solid OpenSCAD_Model
  facet normal 1 -0 0
    outer loop
      vertex 30 -30 4.5
      vertex 30 -0.75 -1.5
      vertex 30 -0.75 4.5
    endloop
  endfacet
  facet normal 1 0 0
    outer loop
      vertex 30 -0.75 -1.5
      vertex 30 -30 4.5
      vertex 30 -30 -1.5
    endloop
  endfacet
  facet normal 1 0 0
    outer loop
      vertex 30 -0.75 4.5
      vertex 30 0.75 4.5
      vertex 30 0.75 27.75
    endloop
  endfacet
  facet normal 1 0 0
    outer loop
      vertex 30 0.75 4.5
      vertex 30 -0.75 4.5
      vertex 30 0.75 -1.5
    endloop
  endfacet
  facet normal 1 0 0
    outer loop
      vertex 30 -0.75 4.5
      vertex 30 0.75 27.75
      vertex 30 -0.75 27.75
    endloop
  endfacet
  facet normal 1 0 0
    outer loop
      vertex 30 0.75 -1.5
      vertex 30 -0.75 4.5
      vertex 30 -0.75 -1.5
    endloop
  endfacet
  facet normal 1 0 0
    outer loop
      vertex 30 0.75 -1.5
      vertex 30 -0.75 -1.5
      vertex 30 0.75 -33.75
    endloop
  endfacet
  facet normal 1 0 0
    outer loop
      vertex 30 0.75 -33.75
      vertex 30 -0.75 -1.5
      vertex 30 -0.75 -33.75
    endloop
  endfacet
  facet normal 1 -0 0
    outer loop
      vertex 30 0.75 4.5
      vertex 30 30 -1.5
      vertex 30 30 4.5
    endloop
  endfacet
  facet normal 1 0 0
    outer loop
      vertex 30 30 -1.5
      vertex 30 0.75 4.5
      vertex 30 0.75 -1.5
    endloop
  endfacet
  facet normal -0 0 1
    outer loop
      vertex -30 30 4.5
      vertex 30 0.75 4.5
      vertex 30 30 4.5
    endloop
  endfacet
  facet normal 0 0 1
    outer loop
      vertex 30 0.75 4.5
      vertex -30 30 4.5
      vertex -30 0.75 4.5
    endloop
  endfacet
  facet normal -0 0 1
    outer loop
      vertex -30 -0.75 4.5
      vertex 30 -30 4.5
      vertex 30 -0.75 4.5
    endloop
  endfacet
  facet normal 0 0 1
    outer loop
      vertex 30 -30 4.5
      vertex -30 -0.75 4.5
      vertex -30 -30 4.5
    endloop
  endfacet
  facet normal -1 0 0
    outer loop
      vertex -30 -30 -1.5
      vertex -30 -0.75 4.5
      vertex -30 -0.75 -1.5
    endloop
  endfacet
  facet normal -1 -0 0
    outer loop
      vertex -30 -0.75 4.5
      vertex -30 -30 -1.5
      vertex -30 -30 4.5
    endloop
  endfacet
  facet normal -1 0 0
    outer loop
      vertex -30 -0.75 -1.5
      vertex -30 0.75 -1.5
      vertex -30 0.75 -33.75
    endloop
  endfacet
  facet normal -1 0 0
    outer loop
      vertex -30 0.75 -1.5
      vertex -30 -0.75 -1.5
      vertex -30 0.75 4.5
    endloop
  endfacet
  facet normal -1 0 0
    outer loop
      vertex -30 -0.75 -1.5
      vertex -30 0.75 -33.75
      vertex -30 -0.75 -33.75
    endloop
  endfacet
  facet normal -1 0 0
    outer loop
      vertex -30 -0.75 4.5
      vertex -30 0.75 4.5
      vertex -30 -0.75 -1.5
    endloop
  endfacet
  facet normal -1 0 0
    outer loop
      vertex -30 0.75 4.5
      vertex -30 -0.75 4.5
      vertex -30 0.75 27.75
    endloop
  endfacet
  facet normal -1 -0 0
    outer loop
      vertex -30 0.75 27.75
      vertex -30 -0.75 4.5
      vertex -30 -0.75 27.75
    endloop
  endfacet
  facet normal -1 0 0
    outer loop
      vertex -30 0.75 -1.5
      vertex -30 30 4.5
      vertex -30 30 -1.5
    endloop
  endfacet
  facet normal -1 -0 0
    outer loop
      vertex -30 30 4.5
      vertex -30 0.75 -1.5
      vertex -30 0.75 4.5
    endloop
  endfacet
  facet normal 0 1 -0
    outer loop
      vertex 30 30 -1.5
      vertex -30 30 4.5
      vertex 30 30 4.5
    endloop
  endfacet
  facet normal 0 1 0
    outer loop
      vertex -30 30 4.5
      vertex 30 30 -1.5
      vertex -30 30 -1.5
    endloop
  endfacet
  facet normal 0 -1 0
    outer loop
      vertex -30 -30 -1.5
      vertex 30 -30 4.5
      vertex -30 -30 4.5
    endloop
  endfacet
  facet normal 0 -1 -0
    outer loop
      vertex 30 -30 4.5
      vertex -30 -30 -1.5
      vertex 30 -30 -1.5
    endloop
  endfacet
  facet normal 0 0 -1
    outer loop
      vertex -30 0.75 -1.5
      vertex 30 30 -1.5
      vertex 30 0.75 -1.5
    endloop
  endfacet
  facet normal -0 0 -1
    outer loop
      vertex 30 30 -1.5
      vertex -30 0.75 -1.5
      vertex -30 30 -1.5
    endloop
  endfacet
  facet normal 0 0 -1
    outer loop
      vertex -30 -30 -1.5
      vertex 30 -0.75 -1.5
      vertex 30 -30 -1.5
    endloop
  endfacet
  facet normal -0 0 -1
    outer loop
      vertex 30 -0.75 -1.5
      vertex -30 -30 -1.5
      vertex -30 -0.75 -1.5
    endloop
  endfacet
  facet normal 0 -1 0
    outer loop
      vertex -30 -0.75 -33.75
      vertex 30 -0.75 -1.5
      vertex -30 -0.75 -1.5
    endloop
  endfacet
  facet normal 0 -1 -0
    outer loop
      vertex 30 -0.75 -1.5
      vertex -30 -0.75 -33.75
      vertex 30 -0.75 -33.75
    endloop
  endfacet
  facet normal 0 -1 0
    outer loop
      vertex -30 -0.75 4.5
      vertex 30 -0.75 27.75
      vertex -30 -0.75 27.75
    endloop
  endfacet
  facet normal 0 -1 -0
    outer loop
      vertex 30 -0.75 27.75
      vertex -30 -0.75 4.5
      vertex 30 -0.75 4.5
    endloop
  endfacet
  facet normal 0 1 -0
    outer loop
      vertex 30 0.75 -33.75
      vertex -30 0.75 -1.5
      vertex 30 0.75 -1.5
    endloop
  endfacet
  facet normal 0 1 0
    outer loop
      vertex -30 0.75 -1.5
      vertex 30 0.75 -33.75
      vertex -30 0.75 -33.75
    endloop
  endfacet
  facet normal 0 1 -0
    outer loop
      vertex 30 0.75 4.5
      vertex -30 0.75 27.75
      vertex 30 0.75 27.75
    endloop
  endfacet
  facet normal 0 1 0
    outer loop
      vertex -30 0.75 27.75
      vertex 30 0.75 4.5
      vertex -30 0.75 4.5
    endloop
  endfacet
  facet normal -0 0 1
    outer loop
      vertex -30 0.75 27.75
      vertex 30 -0.75 27.75
      vertex 30 0.75 27.75
    endloop
  endfacet
  facet normal 0 0 1
    outer loop
      vertex 30 -0.75 27.75
      vertex -30 0.75 27.75
      vertex -30 -0.75 27.75
    endloop
  endfacet
  facet normal 0 0 -1
    outer loop
      vertex -30 -0.75 -33.75
      vertex 30 0.75 -33.75
      vertex 30 -0.75 -33.75
    endloop
  endfacet
  facet normal -0 0 -1
    outer loop
      vertex 30 0.75 -33.75
      vertex -30 -0.75 -33.75
      vertex -30 0.75 -33.75
    endloop
  endfacet
endsolid OpenSCAD_Model
