solid OpenSCAD_Model
  facet normal 0 1 -0
    outer loop
      vertex -4.25 8.29904 25
      vertex -5.75 8.29904 28
      vertex -4.25 8.29904 28
    endloop
  endfacet
  facet normal 0 1 0
    outer loop
      vertex -5.75 8.29904 28
      vertex -4.25 8.29904 25
      vertex -5.75 8.29904 25
    endloop
  endfacet
  facet normal 0.866026 0.499999 0
    outer loop
      vertex -3.5 7 28
      vertex -4.25 8.29904 25
      vertex -4.25 8.29904 28
    endloop
  endfacet
  facet normal 0.866026 0.499999 0
    outer loop
      vertex -4.25 8.29904 25
      vertex -3.5 7 28
      vertex -3.5 7 25
    endloop
  endfacet
  facet normal -0.866026 0.499999 0
    outer loop
      vertex -6.5 7 25
      vertex -5.75 8.29904 28
      vertex -5.75 8.29904 25
    endloop
  endfacet
  facet normal -0.866026 0.499999 0
    outer loop
      vertex -5.75 8.29904 28
      vertex -6.5 7 25
      vertex -6.5 7 28
    endloop
  endfacet
  facet normal -0.866026 -0.499999 0
    outer loop
      vertex -5.75 5.70096 25
      vertex -6.5 7 28
      vertex -6.5 7 25
    endloop
  endfacet
  facet normal -0.866026 -0.499999 0
    outer loop
      vertex -6.5 7 28
      vertex -5.75 5.70096 25
      vertex -5.75 5.70096 28
    endloop
  endfacet
  facet normal 0 0 -1
    outer loop
      vertex -4.25 5.70096 25
      vertex -4.25 8.29904 25
      vertex -3.5 7 25
    endloop
  endfacet
  facet normal 0 0 -1
    outer loop
      vertex -5.75 5.70096 25
      vertex -4.25 8.29904 25
      vertex -4.25 5.70096 25
    endloop
  endfacet
  facet normal 0 0 -1
    outer loop
      vertex -5.75 5.70096 25
      vertex -5.75 8.29904 25
      vertex -4.25 8.29904 25
    endloop
  endfacet
  facet normal 0 -0 -1
    outer loop
      vertex -5.75 8.29904 25
      vertex -5.75 5.70096 25
      vertex -6.5 7 25
    endloop
  endfacet
  facet normal 0 0 1
    outer loop
      vertex -4.25 8.29904 28
      vertex -4.25 5.70096 28
      vertex -3.5 7 28
    endloop
  endfacet
  facet normal -0 0 1
    outer loop
      vertex -5.75 8.29904 28
      vertex -4.25 5.70096 28
      vertex -4.25 8.29904 28
    endloop
  endfacet
  facet normal 0 0 1
    outer loop
      vertex -5.75 8.29904 28
      vertex -5.75 5.70096 28
      vertex -4.25 5.70096 28
    endloop
  endfacet
  facet normal 0 -0 1
    outer loop
      vertex -5.75 5.70096 28
      vertex -5.75 8.29904 28
      vertex -6.5 7 28
    endloop
  endfacet
  facet normal 0 -1 0
    outer loop
      vertex -5.75 5.70096 25
      vertex -4.25 5.70096 28
      vertex -5.75 5.70096 28
    endloop
  endfacet
  facet normal 0 -1 -0
    outer loop
      vertex -4.25 5.70096 28
      vertex -5.75 5.70096 25
      vertex -4.25 5.70096 25
    endloop
  endfacet
  facet normal 0.866026 -0.499999 0
    outer loop
      vertex -4.25 5.70096 28
      vertex -3.5 7 25
      vertex -3.5 7 28
    endloop
  endfacet
  facet normal 0.866026 -0.499999 0
    outer loop
      vertex -3.5 7 25
      vertex -4.25 5.70096 28
      vertex -4.25 5.70096 25
    endloop
  endfacet
  facet normal -0.309015 -0.951057 0
    outer loop
      vertex -5.80902 6.41221 -10
      vertex -4.69098 6.04894 5
      vertex -5.80902 6.41221 5
    endloop
  endfacet
  facet normal -0.309015 -0.951057 -0
    outer loop
      vertex -4.69098 6.04894 5
      vertex -5.80902 6.41221 -10
      vertex -4.69098 6.04894 -10
    endloop
  endfacet
  facet normal 0 0 1
    outer loop
      vertex -4.69098 7.95106 5
      vertex -4.69098 6.04894 5
      vertex -4 7 5
    endloop
  endfacet
  facet normal -0 0 1
    outer loop
      vertex -5.80902 7.58778 5
      vertex -4.69098 6.04894 5
      vertex -4.69098 7.95106 5
    endloop
  endfacet
  facet normal 0 0 1
    outer loop
      vertex -4.69098 6.04894 5
      vertex -5.80902 7.58778 5
      vertex -5.80902 6.41221 5
    endloop
  endfacet
  facet normal -0.309022 0.951055 0
    outer loop
      vertex -4.69098 7.95106 -10
      vertex -5.80902 7.58778 5
      vertex -4.69098 7.95106 5
    endloop
  endfacet
  facet normal -0.309022 0.951055 0
    outer loop
      vertex -5.80902 7.58778 5
      vertex -4.69098 7.95106 -10
      vertex -5.80902 7.58778 -10
    endloop
  endfacet
  facet normal 0.809019 0.587782 0
    outer loop
      vertex -4 7 5
      vertex -4.69098 7.95106 -10
      vertex -4.69098 7.95106 5
    endloop
  endfacet
  facet normal 0.809019 0.587782 0
    outer loop
      vertex -4.69098 7.95106 -10
      vertex -4 7 5
      vertex -4 7 -10
    endloop
  endfacet
  facet normal -1 0 0
    outer loop
      vertex -5.80902 6.41221 -10
      vertex -5.80902 7.58778 5
      vertex -5.80902 7.58778 -10
    endloop
  endfacet
  facet normal -1 -0 0
    outer loop
      vertex -5.80902 7.58778 5
      vertex -5.80902 6.41221 -10
      vertex -5.80902 6.41221 5
    endloop
  endfacet
  facet normal 0 0 -1
    outer loop
      vertex -4.69098 6.04894 -10
      vertex -4.69098 7.95106 -10
      vertex -4 7 -10
    endloop
  endfacet
  facet normal 0 0 -1
    outer loop
      vertex -5.80902 6.41221 -10
      vertex -4.69098 7.95106 -10
      vertex -4.69098 6.04894 -10
    endloop
  endfacet
  facet normal 0 0 -1
    outer loop
      vertex -4.69098 7.95106 -10
      vertex -5.80902 6.41221 -10
      vertex -5.80902 7.58778 -10
    endloop
  endfacet
  facet normal 0.809019 -0.587782 0
    outer loop
      vertex -4.69098 6.04894 5
      vertex -4 7 -10
      vertex -4 7 5
    endloop
  endfacet
  facet normal 0.809019 -0.587782 0
    outer loop
      vertex -4 7 -10
      vertex -4.69098 6.04894 5
      vertex -4.69098 6.04894 -10
    endloop
  endfacet
  facet normal 0 1 -0
    outer loop
      vertex -4.25 14.299 25
      vertex -5.75 14.299 28
      vertex -4.25 14.299 28
    endloop
  endfacet
  facet normal 0 1 0
    outer loop
      vertex -5.75 14.299 28
      vertex -4.25 14.299 25
      vertex -5.75 14.299 25
    endloop
  endfacet
  facet normal 0.866019 0.500011 0
    outer loop
      vertex -3.5 13 28
      vertex -4.25 14.299 25
      vertex -4.25 14.299 28
    endloop
  endfacet
  facet normal 0.866019 0.500011 0
    outer loop
      vertex -4.25 14.299 25
      vertex -3.5 13 28
      vertex -3.5 13 25
    endloop
  endfacet
  facet normal -0.866019 0.500011 0
    outer loop
      vertex -6.5 13 25
      vertex -5.75 14.299 28
      vertex -5.75 14.299 25
    endloop
  endfacet
  facet normal -0.866019 0.500011 0
    outer loop
      vertex -5.75 14.299 28
      vertex -6.5 13 25
      vertex -6.5 13 28
    endloop
  endfacet
  facet normal -0.866019 -0.500011 0
    outer loop
      vertex -5.75 11.701 25
      vertex -6.5 13 28
      vertex -6.5 13 25
    endloop
  endfacet
  facet normal -0.866019 -0.500011 0
    outer loop
      vertex -6.5 13 28
      vertex -5.75 11.701 25
      vertex -5.75 11.701 28
    endloop
  endfacet
  facet normal 0 0 -1
    outer loop
      vertex -4.25 11.701 25
      vertex -4.25 14.299 25
      vertex -3.5 13 25
    endloop
  endfacet
  facet normal 0 0 -1
    outer loop
      vertex -5.75 11.701 25
      vertex -4.25 14.299 25
      vertex -4.25 11.701 25
    endloop
  endfacet
  facet normal 0 0 -1
    outer loop
      vertex -5.75 11.701 25
      vertex -5.75 14.299 25
      vertex -4.25 14.299 25
    endloop
  endfacet
  facet normal 0 -0 -1
    outer loop
      vertex -5.75 14.299 25
      vertex -5.75 11.701 25
      vertex -6.5 13 25
    endloop
  endfacet
  facet normal 0 0 1
    outer loop
      vertex -4.25 14.299 28
      vertex -4.25 11.701 28
      vertex -3.5 13 28
    endloop
  endfacet
  facet normal -0 0 1
    outer loop
      vertex -5.75 14.299 28
      vertex -4.25 11.701 28
      vertex -4.25 14.299 28
    endloop
  endfacet
  facet normal 0 0 1
    outer loop
      vertex -5.75 14.299 28
      vertex -5.75 11.701 28
      vertex -4.25 11.701 28
    endloop
  endfacet
  facet normal 0 -0 1
    outer loop
      vertex -5.75 11.701 28
      vertex -5.75 14.299 28
      vertex -6.5 13 28
    endloop
  endfacet
  facet normal 0 -1 0
    outer loop
      vertex -5.75 11.701 25
      vertex -4.25 11.701 28
      vertex -5.75 11.701 28
    endloop
  endfacet
  facet normal 0 -1 -0
    outer loop
      vertex -4.25 11.701 28
      vertex -5.75 11.701 25
      vertex -4.25 11.701 25
    endloop
  endfacet
  facet normal 0.866019 -0.500011 0
    outer loop
      vertex -4.25 11.701 28
      vertex -3.5 13 25
      vertex -3.5 13 28
    endloop
  endfacet
  facet normal 0.866019 -0.500011 0
    outer loop
      vertex -3.5 13 25
      vertex -4.25 11.701 28
      vertex -4.25 11.701 25
    endloop
  endfacet
  facet normal -0.309038 -0.95105 0
    outer loop
      vertex -5.80902 12.4122 -10
      vertex -4.69098 12.0489 5
      vertex -5.80902 12.4122 5
    endloop
  endfacet
  facet normal -0.309038 -0.95105 -0
    outer loop
      vertex -4.69098 12.0489 5
      vertex -5.80902 12.4122 -10
      vertex -4.69098 12.0489 -10
    endloop
  endfacet
  facet normal 0 0 1
    outer loop
      vertex -4.69098 13.9511 5
      vertex -4.69098 12.0489 5
      vertex -4 13 5
    endloop
  endfacet
  facet normal -0 0 1
    outer loop
      vertex -5.80902 13.5878 5
      vertex -4.69098 12.0489 5
      vertex -4.69098 13.9511 5
    endloop
  endfacet
  facet normal 0 0 1
    outer loop
      vertex -4.69098 12.0489 5
      vertex -5.80902 13.5878 5
      vertex -5.80902 12.4122 5
    endloop
  endfacet
  facet normal -0.309038 0.95105 0
    outer loop
      vertex -4.69098 13.9511 -10
      vertex -5.80902 13.5878 5
      vertex -4.69098 13.9511 5
    endloop
  endfacet
  facet normal -0.309038 0.95105 0
    outer loop
      vertex -5.80902 13.5878 5
      vertex -4.69098 13.9511 -10
      vertex -5.80902 13.5878 -10
    endloop
  endfacet
  facet normal 0.809031 0.587766 0
    outer loop
      vertex -4 13 5
      vertex -4.69098 13.9511 -10
      vertex -4.69098 13.9511 5
    endloop
  endfacet
  facet normal 0.809031 0.587766 0
    outer loop
      vertex -4.69098 13.9511 -10
      vertex -4 13 5
      vertex -4 13 -10
    endloop
  endfacet
  facet normal -1 0 0
    outer loop
      vertex -5.80902 12.4122 -10
      vertex -5.80902 13.5878 5
      vertex -5.80902 13.5878 -10
    endloop
  endfacet
  facet normal -1 -0 0
    outer loop
      vertex -5.80902 13.5878 5
      vertex -5.80902 12.4122 -10
      vertex -5.80902 12.4122 5
    endloop
  endfacet
  facet normal 0 0 -1
    outer loop
      vertex -4.69098 12.0489 -10
      vertex -4.69098 13.9511 -10
      vertex -4 13 -10
    endloop
  endfacet
  facet normal 0 0 -1
    outer loop
      vertex -5.80902 12.4122 -10
      vertex -4.69098 13.9511 -10
      vertex -4.69098 12.0489 -10
    endloop
  endfacet
  facet normal 0 0 -1
    outer loop
      vertex -4.69098 13.9511 -10
      vertex -5.80902 12.4122 -10
      vertex -5.80902 13.5878 -10
    endloop
  endfacet
  facet normal 0.809031 -0.587766 0
    outer loop
      vertex -4.69098 12.0489 5
      vertex -4 13 -10
      vertex -4 13 5
    endloop
  endfacet
  facet normal 0.809031 -0.587766 0
    outer loop
      vertex -4 13 -10
      vertex -4.69098 12.0489 5
      vertex -4.69098 12.0489 -10
    endloop
  endfacet
  facet normal 0 -1 0
    outer loop
      vertex 4.25 5.70096 25
      vertex 5.75 5.70096 28
      vertex 4.25 5.70096 28
    endloop
  endfacet
  facet normal 0 -1 -0
    outer loop
      vertex 5.75 5.70096 28
      vertex 4.25 5.70096 25
      vertex 5.75 5.70096 25
    endloop
  endfacet
  facet normal 0 1 -0
    outer loop
      vertex 5.75 8.29904 25
      vertex 4.25 8.29904 28
      vertex 5.75 8.29904 28
    endloop
  endfacet
  facet normal 0 1 0
    outer loop
      vertex 4.25 8.29904 28
      vertex 5.75 8.29904 25
      vertex 4.25 8.29904 25
    endloop
  endfacet
  facet normal 0.866026 0.499999 0
    outer loop
      vertex 6.5 7 28
      vertex 5.75 8.29904 25
      vertex 5.75 8.29904 28
    endloop
  endfacet
  facet normal 0.866026 0.499999 0
    outer loop
      vertex 5.75 8.29904 25
      vertex 6.5 7 28
      vertex 6.5 7 25
    endloop
  endfacet
  facet normal -0.866026 0.499999 0
    outer loop
      vertex 3.5 7 25
      vertex 4.25 8.29904 28
      vertex 4.25 8.29904 25
    endloop
  endfacet
  facet normal -0.866026 0.499999 0
    outer loop
      vertex 4.25 8.29904 28
      vertex 3.5 7 25
      vertex 3.5 7 28
    endloop
  endfacet
  facet normal -0.866026 -0.499999 0
    outer loop
      vertex 4.25 5.70096 25
      vertex 3.5 7 28
      vertex 3.5 7 25
    endloop
  endfacet
  facet normal -0.866026 -0.499999 0
    outer loop
      vertex 3.5 7 28
      vertex 4.25 5.70096 25
      vertex 4.25 5.70096 28
    endloop
  endfacet
  facet normal 0 0 -1
    outer loop
      vertex 5.75 5.70096 25
      vertex 5.75 8.29904 25
      vertex 6.5 7 25
    endloop
  endfacet
  facet normal 0 0 -1
    outer loop
      vertex 4.25 5.70096 25
      vertex 5.75 8.29904 25
      vertex 5.75 5.70096 25
    endloop
  endfacet
  facet normal 0 0 -1
    outer loop
      vertex 4.25 5.70096 25
      vertex 4.25 8.29904 25
      vertex 5.75 8.29904 25
    endloop
  endfacet
  facet normal 0 -0 -1
    outer loop
      vertex 4.25 8.29904 25
      vertex 4.25 5.70096 25
      vertex 3.5 7 25
    endloop
  endfacet
  facet normal 0 0 1
    outer loop
      vertex 5.75 8.29904 28
      vertex 5.75 5.70096 28
      vertex 6.5 7 28
    endloop
  endfacet
  facet normal -0 0 1
    outer loop
      vertex 4.25 8.29904 28
      vertex 5.75 5.70096 28
      vertex 5.75 8.29904 28
    endloop
  endfacet
  facet normal 0 0 1
    outer loop
      vertex 4.25 8.29904 28
      vertex 4.25 5.70096 28
      vertex 5.75 5.70096 28
    endloop
  endfacet
  facet normal 0 -0 1
    outer loop
      vertex 4.25 5.70096 28
      vertex 4.25 8.29904 28
      vertex 3.5 7 28
    endloop
  endfacet
  facet normal 0.866026 -0.499999 0
    outer loop
      vertex 5.75 5.70096 28
      vertex 6.5 7 25
      vertex 6.5 7 28
    endloop
  endfacet
  facet normal 0.866026 -0.499999 0
    outer loop
      vertex 6.5 7 25
      vertex 5.75 5.70096 28
      vertex 5.75 5.70096 25
    endloop
  endfacet
  facet normal -0.309015 -0.951057 0
    outer loop
      vertex 4.19098 6.41221 -10
      vertex 5.30902 6.04894 5
      vertex 4.19098 6.41221 5
    endloop
  endfacet
  facet normal -0.309015 -0.951057 -0
    outer loop
      vertex 5.30902 6.04894 5
      vertex 4.19098 6.41221 -10
      vertex 5.30902 6.04894 -10
    endloop
  endfacet
  facet normal -0.309022 0.951055 0
    outer loop
      vertex 5.30902 7.95106 -10
      vertex 4.19098 7.58778 5
      vertex 5.30902 7.95106 5
    endloop
  endfacet
  facet normal -0.309022 0.951055 0
    outer loop
      vertex 4.19098 7.58778 5
      vertex 5.30902 7.95106 -10
      vertex 4.19098 7.58778 -10
    endloop
  endfacet
  facet normal 0.809019 0.587782 0
    outer loop
      vertex 6 7 5
      vertex 5.30902 7.95106 -10
      vertex 5.30902 7.95106 5
    endloop
  endfacet
  facet normal 0.809019 0.587782 0
    outer loop
      vertex 5.30902 7.95106 -10
      vertex 6 7 5
      vertex 6 7 -10
    endloop
  endfacet
  facet normal -1 0 0
    outer loop
      vertex 4.19098 6.41221 -10
      vertex 4.19098 7.58778 5
      vertex 4.19098 7.58778 -10
    endloop
  endfacet
  facet normal -1 -0 0
    outer loop
      vertex 4.19098 7.58778 5
      vertex 4.19098 6.41221 -10
      vertex 4.19098 6.41221 5
    endloop
  endfacet
  facet normal 0 0 1
    outer loop
      vertex 5.30902 7.95106 5
      vertex 5.30902 6.04894 5
      vertex 6 7 5
    endloop
  endfacet
  facet normal -0 0 1
    outer loop
      vertex 4.19098 7.58778 5
      vertex 5.30902 6.04894 5
      vertex 5.30902 7.95106 5
    endloop
  endfacet
  facet normal 0 0 1
    outer loop
      vertex 5.30902 6.04894 5
      vertex 4.19098 7.58778 5
      vertex 4.19098 6.41221 5
    endloop
  endfacet
  facet normal 0.809019 -0.587782 0
    outer loop
      vertex 5.30902 6.04894 5
      vertex 6 7 -10
      vertex 6 7 5
    endloop
  endfacet
  facet normal 0.809019 -0.587782 0
    outer loop
      vertex 6 7 -10
      vertex 5.30902 6.04894 5
      vertex 5.30902 6.04894 -10
    endloop
  endfacet
  facet normal 0 0 -1
    outer loop
      vertex 5.30902 6.04894 -10
      vertex 5.30902 7.95106 -10
      vertex 6 7 -10
    endloop
  endfacet
  facet normal 0 0 -1
    outer loop
      vertex 4.19098 6.41221 -10
      vertex 5.30902 7.95106 -10
      vertex 5.30902 6.04894 -10
    endloop
  endfacet
  facet normal 0 0 -1
    outer loop
      vertex 5.30902 7.95106 -10
      vertex 4.19098 6.41221 -10
      vertex 4.19098 7.58778 -10
    endloop
  endfacet
  facet normal 0 -1 0
    outer loop
      vertex 4.25 11.701 25
      vertex 5.75 11.701 28
      vertex 4.25 11.701 28
    endloop
  endfacet
  facet normal 0 -1 -0
    outer loop
      vertex 5.75 11.701 28
      vertex 4.25 11.701 25
      vertex 5.75 11.701 25
    endloop
  endfacet
  facet normal 0 1 -0
    outer loop
      vertex 5.75 14.299 25
      vertex 4.25 14.299 28
      vertex 5.75 14.299 28
    endloop
  endfacet
  facet normal 0 1 0
    outer loop
      vertex 4.25 14.299 28
      vertex 5.75 14.299 25
      vertex 4.25 14.299 25
    endloop
  endfacet
  facet normal 0.866019 0.500011 0
    outer loop
      vertex 6.5 13 28
      vertex 5.75 14.299 25
      vertex 5.75 14.299 28
    endloop
  endfacet
  facet normal 0.866019 0.500011 0
    outer loop
      vertex 5.75 14.299 25
      vertex 6.5 13 28
      vertex 6.5 13 25
    endloop
  endfacet
  facet normal -0.866019 0.500011 0
    outer loop
      vertex 3.5 13 25
      vertex 4.25 14.299 28
      vertex 4.25 14.299 25
    endloop
  endfacet
  facet normal -0.866019 0.500011 0
    outer loop
      vertex 4.25 14.299 28
      vertex 3.5 13 25
      vertex 3.5 13 28
    endloop
  endfacet
  facet normal -0.866019 -0.500011 0
    outer loop
      vertex 4.25 11.701 25
      vertex 3.5 13 28
      vertex 3.5 13 25
    endloop
  endfacet
  facet normal -0.866019 -0.500011 0
    outer loop
      vertex 3.5 13 28
      vertex 4.25 11.701 25
      vertex 4.25 11.701 28
    endloop
  endfacet
  facet normal 0 0 -1
    outer loop
      vertex 5.75 11.701 25
      vertex 5.75 14.299 25
      vertex 6.5 13 25
    endloop
  endfacet
  facet normal 0 0 -1
    outer loop
      vertex 4.25 11.701 25
      vertex 5.75 14.299 25
      vertex 5.75 11.701 25
    endloop
  endfacet
  facet normal 0 0 -1
    outer loop
      vertex 4.25 11.701 25
      vertex 4.25 14.299 25
      vertex 5.75 14.299 25
    endloop
  endfacet
  facet normal 0 -0 -1
    outer loop
      vertex 4.25 14.299 25
      vertex 4.25 11.701 25
      vertex 3.5 13 25
    endloop
  endfacet
  facet normal 0 0 1
    outer loop
      vertex 5.75 14.299 28
      vertex 5.75 11.701 28
      vertex 6.5 13 28
    endloop
  endfacet
  facet normal -0 0 1
    outer loop
      vertex 4.25 14.299 28
      vertex 5.75 11.701 28
      vertex 5.75 14.299 28
    endloop
  endfacet
  facet normal 0 0 1
    outer loop
      vertex 4.25 14.299 28
      vertex 4.25 11.701 28
      vertex 5.75 11.701 28
    endloop
  endfacet
  facet normal 0 -0 1
    outer loop
      vertex 4.25 11.701 28
      vertex 4.25 14.299 28
      vertex 3.5 13 28
    endloop
  endfacet
  facet normal 0.866019 -0.500011 0
    outer loop
      vertex 5.75 11.701 28
      vertex 6.5 13 25
      vertex 6.5 13 28
    endloop
  endfacet
  facet normal 0.866019 -0.500011 0
    outer loop
      vertex 6.5 13 25
      vertex 5.75 11.701 28
      vertex 5.75 11.701 25
    endloop
  endfacet
  facet normal -0.309038 -0.95105 0
    outer loop
      vertex 4.19098 12.4122 -10
      vertex 5.30902 12.0489 5
      vertex 4.19098 12.4122 5
    endloop
  endfacet
  facet normal -0.309038 -0.95105 -0
    outer loop
      vertex 5.30902 12.0489 5
      vertex 4.19098 12.4122 -10
      vertex 5.30902 12.0489 -10
    endloop
  endfacet
  facet normal -0.309038 0.95105 0
    outer loop
      vertex 5.30902 13.9511 -10
      vertex 4.19098 13.5878 5
      vertex 5.30902 13.9511 5
    endloop
  endfacet
  facet normal -0.309038 0.95105 0
    outer loop
      vertex 4.19098 13.5878 5
      vertex 5.30902 13.9511 -10
      vertex 4.19098 13.5878 -10
    endloop
  endfacet
  facet normal 0.809031 0.587766 0
    outer loop
      vertex 6 13 5
      vertex 5.30902 13.9511 -10
      vertex 5.30902 13.9511 5
    endloop
  endfacet
  facet normal 0.809031 0.587766 0
    outer loop
      vertex 5.30902 13.9511 -10
      vertex 6 13 5
      vertex 6 13 -10
    endloop
  endfacet
  facet normal -1 0 0
    outer loop
      vertex 4.19098 12.4122 -10
      vertex 4.19098 13.5878 5
      vertex 4.19098 13.5878 -10
    endloop
  endfacet
  facet normal -1 -0 0
    outer loop
      vertex 4.19098 13.5878 5
      vertex 4.19098 12.4122 -10
      vertex 4.19098 12.4122 5
    endloop
  endfacet
  facet normal 0 0 1
    outer loop
      vertex 5.30902 13.9511 5
      vertex 5.30902 12.0489 5
      vertex 6 13 5
    endloop
  endfacet
  facet normal -0 0 1
    outer loop
      vertex 4.19098 13.5878 5
      vertex 5.30902 12.0489 5
      vertex 5.30902 13.9511 5
    endloop
  endfacet
  facet normal 0 0 1
    outer loop
      vertex 5.30902 12.0489 5
      vertex 4.19098 13.5878 5
      vertex 4.19098 12.4122 5
    endloop
  endfacet
  facet normal 0.809031 -0.587766 0
    outer loop
      vertex 5.30902 12.0489 5
      vertex 6 13 -10
      vertex 6 13 5
    endloop
  endfacet
  facet normal 0.809031 -0.587766 0
    outer loop
      vertex 6 13 -10
      vertex 5.30902 12.0489 5
      vertex 5.30902 12.0489 -10
    endloop
  endfacet
  facet normal 0 0 -1
    outer loop
      vertex 5.30902 12.0489 -10
      vertex 5.30902 13.9511 -10
      vertex 6 13 -10
    endloop
  endfacet
  facet normal 0 0 -1
    outer loop
      vertex 4.19098 12.4122 -10
      vertex 5.30902 13.9511 -10
      vertex 5.30902 12.0489 -10
    endloop
  endfacet
  facet normal 0 0 -1
    outer loop
      vertex 5.30902 13.9511 -10
      vertex 4.19098 12.4122 -10
      vertex 4.19098 13.5878 -10
    endloop
  endfacet
endsolid OpenSCAD_Model
