solid OpenSCAD_Model
  facet normal 1 0 0
    outer loop
      vertex -2.5 10 50
      vertex -2.5 -10 50
      vertex -2.5 10 10
    endloop
  endfacet
  facet normal 1 -0 0
    outer loop
      vertex -2.5 10 10
      vertex -2.5 15 -10
      vertex -2.5 15 10
    endloop
  endfacet
  facet normal 1 0 0
    outer loop
      vertex -2.5 -10 10
      vertex -2.5 10 10
      vertex -2.5 -10 50
    endloop
  endfacet
  facet normal 1 0 0
    outer loop
      vertex -2.5 10 10
      vertex -2.5 -10 10
      vertex -2.5 15 -10
    endloop
  endfacet
  facet normal 1 0 0
    outer loop
      vertex -2.5 -15 -10
      vertex -2.5 -10 10
      vertex -2.5 -15 10
    endloop
  endfacet
  facet normal 1 0 0
    outer loop
      vertex -2.5 -10 10
      vertex -2.5 -15 -10
      vertex -2.5 15 -10
    endloop
  endfacet
  facet normal -0 0 1
    outer loop
      vertex -22.5 10 50
      vertex -2.5 -10 50
      vertex -2.5 10 50
    endloop
  endfacet
  facet normal 0 0 1
    outer loop
      vertex -2.5 -10 50
      vertex -22.5 10 50
      vertex -22.5 -10 50
    endloop
  endfacet
  facet normal -0 0 1
    outer loop
      vertex -42.5 10 30
      vertex -22.5 -10 30
      vertex -22.5 10 30
    endloop
  endfacet
  facet normal 0 0 1
    outer loop
      vertex -22.5 -10 30
      vertex -42.5 10 30
      vertex -42.5 -10 30
    endloop
  endfacet
  facet normal -1 0 0
    outer loop
      vertex -22.5 -10 30
      vertex -22.5 10 50
      vertex -22.5 10 30
    endloop
  endfacet
  facet normal -1 -0 0
    outer loop
      vertex -22.5 10 50
      vertex -22.5 -10 30
      vertex -22.5 -10 50
    endloop
  endfacet
  facet normal 0 1 0
    outer loop
      vertex -2.5 10 50
      vertex -22.5 10 30
      vertex -22.5 10 50
    endloop
  endfacet
  facet normal 0 1 -0
    outer loop
      vertex -2.5 10 10
      vertex -22.5 10 30
      vertex -2.5 10 50
    endloop
  endfacet
  facet normal 0 1 0
    outer loop
      vertex -42.5 10 10
      vertex -22.5 10 30
      vertex -2.5 10 10
    endloop
  endfacet
  facet normal 0 1 0
    outer loop
      vertex -22.5 10 30
      vertex -42.5 10 10
      vertex -42.5 10 30
    endloop
  endfacet
  facet normal 0 -1 0
    outer loop
      vertex -42.5 -10 30
      vertex -42.5 -10 10
      vertex -22.5 -10 30
    endloop
  endfacet
  facet normal 0 -1 0
    outer loop
      vertex -22.5 -10 30
      vertex -2.5 -10 50
      vertex -22.5 -10 50
    endloop
  endfacet
  facet normal 0 -1 0
    outer loop
      vertex -2.5 -10 10
      vertex -22.5 -10 30
      vertex -42.5 -10 10
    endloop
  endfacet
  facet normal 0 -1 0
    outer loop
      vertex -22.5 -10 30
      vertex -2.5 -10 10
      vertex -2.5 -10 50
    endloop
  endfacet
  facet normal 1 -0 0
    outer loop
      vertex 22.5 -10 50
      vertex 22.5 10 30
      vertex 22.5 10 50
    endloop
  endfacet
  facet normal 1 0 0
    outer loop
      vertex 22.5 10 30
      vertex 22.5 -10 50
      vertex 22.5 -10 30
    endloop
  endfacet
  facet normal -0 0 1
    outer loop
      vertex 2.5 10 50
      vertex 22.5 -10 50
      vertex 22.5 10 50
    endloop
  endfacet
  facet normal 0 0 1
    outer loop
      vertex 22.5 -10 50
      vertex 2.5 10 50
      vertex 2.5 -10 50
    endloop
  endfacet
  facet normal -0 0 1
    outer loop
      vertex 22.5 10 30
      vertex 42.5 -10 30
      vertex 42.5 10 30
    endloop
  endfacet
  facet normal 0 0 1
    outer loop
      vertex 42.5 -10 30
      vertex 22.5 10 30
      vertex 22.5 -10 30
    endloop
  endfacet
  facet normal -1 0 0
    outer loop
      vertex 2.5 15 -10
      vertex 2.5 10 10
      vertex 2.5 15 10
    endloop
  endfacet
  facet normal -1 0 0
    outer loop
      vertex 2.5 10 10
      vertex 2.5 -10 10
      vertex 2.5 10 50
    endloop
  endfacet
  facet normal -1 0 0
    outer loop
      vertex 2.5 15 -10
      vertex 2.5 -10 10
      vertex 2.5 10 10
    endloop
  endfacet
  facet normal -1 0 0
    outer loop
      vertex 2.5 -15 -10
      vertex 2.5 -10 10
      vertex 2.5 15 -10
    endloop
  endfacet
  facet normal -1 -0 0
    outer loop
      vertex 2.5 -10 10
      vertex 2.5 -15 -10
      vertex 2.5 -15 10
    endloop
  endfacet
  facet normal -1 -0 0
    outer loop
      vertex 2.5 10 50
      vertex 2.5 -10 10
      vertex 2.5 -10 50
    endloop
  endfacet
  facet normal 0 1 0
    outer loop
      vertex 42.5 10 30
      vertex 42.5 10 10
      vertex 22.5 10 30
    endloop
  endfacet
  facet normal 0 1 -0
    outer loop
      vertex 22.5 10 30
      vertex 2.5 10 50
      vertex 22.5 10 50
    endloop
  endfacet
  facet normal 0 1 0
    outer loop
      vertex 2.5 10 10
      vertex 22.5 10 30
      vertex 42.5 10 10
    endloop
  endfacet
  facet normal 0 1 0
    outer loop
      vertex 22.5 10 30
      vertex 2.5 10 10
      vertex 2.5 10 50
    endloop
  endfacet
  facet normal 0 -1 0
    outer loop
      vertex 2.5 -10 50
      vertex 22.5 -10 30
      vertex 22.5 -10 50
    endloop
  endfacet
  facet normal 0 -1 0
    outer loop
      vertex 2.5 -10 10
      vertex 22.5 -10 30
      vertex 2.5 -10 50
    endloop
  endfacet
  facet normal 0 -1 0
    outer loop
      vertex 42.5 -10 10
      vertex 22.5 -10 30
      vertex 2.5 -10 10
    endloop
  endfacet
  facet normal 0 -1 0
    outer loop
      vertex 22.5 -10 30
      vertex 42.5 -10 10
      vertex 42.5 -10 30
    endloop
  endfacet
  facet normal 0 0 1
    outer loop
      vertex -2.5 15 10
      vertex -42.5 10 10
      vertex -2.5 10 10
    endloop
  endfacet
  facet normal 0 0 1
    outer loop
      vertex -42.5 10 10
      vertex -62.5 15 10
      vertex -42.5 -10 10
    endloop
  endfacet
  facet normal -0 0 1
    outer loop
      vertex -62.5 15 10
      vertex -42.5 10 10
      vertex -2.5 15 10
    endloop
  endfacet
  facet normal -0 0 1
    outer loop
      vertex -42.5 -10 10
      vertex -2.5 -15 10
      vertex -2.5 -10 10
    endloop
  endfacet
  facet normal 0 0 1
    outer loop
      vertex -42.5 -10 10
      vertex -62.5 -15 10
      vertex -2.5 -15 10
    endloop
  endfacet
  facet normal 0 0 1
    outer loop
      vertex -62.5 -15 10
      vertex -42.5 -10 10
      vertex -62.5 15 10
    endloop
  endfacet
  facet normal -1 0 0
    outer loop
      vertex -42.5 -10 10
      vertex -42.5 10 30
      vertex -42.5 10 10
    endloop
  endfacet
  facet normal -1 -0 0
    outer loop
      vertex -42.5 10 30
      vertex -42.5 -10 10
      vertex -42.5 -10 30
    endloop
  endfacet
  facet normal 1 -0 0
    outer loop
      vertex 42.5 -10 30
      vertex 42.5 10 10
      vertex 42.5 10 30
    endloop
  endfacet
  facet normal 1 0 0
    outer loop
      vertex 42.5 10 10
      vertex 42.5 -10 30
      vertex 42.5 -10 10
    endloop
  endfacet
  facet normal 0 0 1
    outer loop
      vertex 62.5 15 10
      vertex 42.5 10 10
      vertex 62.5 -15 10
    endloop
  endfacet
  facet normal -0 0 1
    outer loop
      vertex 2.5 15 10
      vertex 42.5 10 10
      vertex 62.5 15 10
    endloop
  endfacet
  facet normal 0 0 1
    outer loop
      vertex 42.5 10 10
      vertex 2.5 15 10
      vertex 2.5 10 10
    endloop
  endfacet
  facet normal -0 0 1
    outer loop
      vertex 42.5 -10 10
      vertex 62.5 -15 10
      vertex 42.5 10 10
    endloop
  endfacet
  facet normal 0 0 1
    outer loop
      vertex 2.5 -15 10
      vertex 42.5 -10 10
      vertex 2.5 -10 10
    endloop
  endfacet
  facet normal 0 0 1
    outer loop
      vertex 42.5 -10 10
      vertex 2.5 -15 10
      vertex 62.5 -15 10
    endloop
  endfacet
  facet normal 0 0 -1
    outer loop
      vertex -62.5 -15 -10
      vertex -2.5 15 -10
      vertex -2.5 -15 -10
    endloop
  endfacet
  facet normal -0 0 -1
    outer loop
      vertex -2.5 15 -10
      vertex -62.5 -15 -10
      vertex -62.5 15 -10
    endloop
  endfacet
  facet normal -1 0 0
    outer loop
      vertex -62.5 -15 -10
      vertex -62.5 15 10
      vertex -62.5 15 -10
    endloop
  endfacet
  facet normal -1 -0 0
    outer loop
      vertex -62.5 15 10
      vertex -62.5 -15 -10
      vertex -62.5 -15 10
    endloop
  endfacet
  facet normal 0 1 -0
    outer loop
      vertex -2.5 15 -10
      vertex -62.5 15 10
      vertex -2.5 15 10
    endloop
  endfacet
  facet normal 0 1 0
    outer loop
      vertex -62.5 15 10
      vertex -2.5 15 -10
      vertex -62.5 15 -10
    endloop
  endfacet
  facet normal 0 -1 0
    outer loop
      vertex -62.5 -15 -10
      vertex -2.5 -15 10
      vertex -62.5 -15 10
    endloop
  endfacet
  facet normal 0 -1 -0
    outer loop
      vertex -2.5 -15 10
      vertex -62.5 -15 -10
      vertex -2.5 -15 -10
    endloop
  endfacet
  facet normal 1 -0 0
    outer loop
      vertex 62.5 -15 10
      vertex 62.5 15 -10
      vertex 62.5 15 10
    endloop
  endfacet
  facet normal 1 0 0
    outer loop
      vertex 62.5 15 -10
      vertex 62.5 -15 10
      vertex 62.5 -15 -10
    endloop
  endfacet
  facet normal 0 0 -1
    outer loop
      vertex 2.5 -15 -10
      vertex 62.5 15 -10
      vertex 62.5 -15 -10
    endloop
  endfacet
  facet normal -0 0 -1
    outer loop
      vertex 62.5 15 -10
      vertex 2.5 -15 -10
      vertex 2.5 15 -10
    endloop
  endfacet
  facet normal 0 1 -0
    outer loop
      vertex 62.5 15 -10
      vertex 2.5 15 10
      vertex 62.5 15 10
    endloop
  endfacet
  facet normal 0 1 0
    outer loop
      vertex 2.5 15 10
      vertex 62.5 15 -10
      vertex 2.5 15 -10
    endloop
  endfacet
  facet normal 0 -1 0
    outer loop
      vertex 2.5 -15 -10
      vertex 62.5 -15 10
      vertex 2.5 -15 10
    endloop
  endfacet
  facet normal 0 -1 -0
    outer loop
      vertex 62.5 -15 10
      vertex 2.5 -15 -10
      vertex 62.5 -15 -10
    endloop
  endfacet
endsolid OpenSCAD_Model
