solid OpenSCAD_Model
  facet normal 0 1 0
    outer loop
      vertex 10 0 0
      vertex 2 0 2
      vertex 8 0 2
    endloop
  endfacet
  facet normal 0 1 0
    outer loop
      vertex 2 0 2
      vertex 10 0 0
      vertex 0 0 0
    endloop
  endfacet
  facet normal -0.707107 0 -0.707107
    outer loop
      vertex 8 0 2
      vertex 10 5 0
      vertex 10 0 0
    endloop
  endfacet
  facet normal -0.551318 -0.110264 -0.826977
    outer loop
      vertex 10 5 0
      vertex 8 0 2
      vertex 7 5 2
    endloop
  endfacet
  facet normal 0 -1 0
    outer loop
      vertex 0 5 0
      vertex 7 5 2
      vertex 3 5 2
    endloop
  endfacet
  facet normal 0 -1 -0
    outer loop
      vertex 7 5 2
      vertex 0 5 0
      vertex 10 5 0
    endloop
  endfacet
  facet normal 0.707107 0 -0.707107
    outer loop
      vertex 0 5 0
      vertex 2 0 2
      vertex 0 0 0
    endloop
  endfacet
  facet normal 0.551318 -0.110264 -0.826977
    outer loop
      vertex 2 0 2
      vertex 0 5 0
      vertex 3 5 2
    endloop
  endfacet
  facet normal 0 0 -1
    outer loop
      vertex 0 0 0
      vertex 10 5 0
      vertex 10 0 0
    endloop
  endfacet
  facet normal -0 0 -1
    outer loop
      vertex 10 5 0
      vertex 0 0 0
      vertex 0 5 0
    endloop
  endfacet
  facet normal 0 0 -1
    outer loop
      vertex 8 0 2
      vertex 3 5 2
      vertex 7 5 2
    endloop
  endfacet
  facet normal 0 -0 -1
    outer loop
      vertex 3 5 2
      vertex 8 0 2
      vertex 2 0 2
    endloop
  endfacet
endsolid OpenSCAD_Model
