solid OpenSCAD_Model
  facet normal -0.707107 0.707107 0
    outer loop
      vertex 35.3553 35.3553 25
      vertex 35.3553 35.3553 0
      vertex 0 0 0
    endloop
  endfacet
  facet normal -0.316228 0.737865 -0.596284
    outer loop
      vertex -14.1421 14.1421 25
      vertex 35.3553 35.3553 25
      vertex 0 0 0
    endloop
  endfacet
  facet normal 0.707107 0.707107 -0
    outer loop
      vertex -14.1421 14.1421 0
      vertex -14.1421 14.1421 25
      vertex 0 0 0
    endloop
  endfacet
  facet normal -0.707109 -0.707104 -0
    outer loop
      vertex 35.3553 35.3553 25
      vertex 21.2132 49.4975 0
      vertex 35.3553 35.3553 0
    endloop
  endfacet
  facet normal 0.707108 -0.707106 0
    outer loop
      vertex 21.2132 49.4975 0
      vertex -14.1421 14.1421 25
      vertex -14.1421 14.1421 0
    endloop
  endfacet
  facet normal 0.316228 -0.737864 -0.596286
    outer loop
      vertex -14.1421 14.1421 25
      vertex 21.2132 49.4975 0
      vertex 35.3553 35.3553 25
    endloop
  endfacet
endsolid OpenSCAD_Model
