solid OpenSCAD_Model
  facet normal -0.743147 -0.669129 0
    outer loop
      vertex -6.69131 -7.43145 -10
      vertex -8.09017 -5.87785 0
      vertex -8.09017 -5.87785 -10
    endloop
  endfacet
  facet normal -0.743147 -0.669129 0
    outer loop
      vertex -8.09017 -5.87785 0
      vertex -6.69131 -7.43145 -10
      vertex -6.69131 -7.43145 0
    endloop
  endfacet
  facet normal 0.951056 0.309017 0
    outer loop
      vertex 9.64472 2.5 0
      vertex 9.13545 4.06737 -10
      vertex 9.13545 4.06737 0
    endloop
  endfacet
  facet normal 0.951056 0.309017 0
    outer loop
      vertex 9.13545 4.06737 -10
      vertex 9.64472 2.5 0
      vertex 9.64472 2.5 -10
    endloop
  endfacet
  facet normal 0.866026 0.5 0
    outer loop
      vertex 9.13545 4.06737 0
      vertex 8.09017 5.87785 -10
      vertex 8.09017 5.87785 0
    endloop
  endfacet
  facet normal 0.866026 0.5 0
    outer loop
      vertex 8.09017 5.87785 -10
      vertex 9.13545 4.06737 0
      vertex 9.13545 4.06737 -10
    endloop
  endfacet
  facet normal 0.951056 -0.309017 0
    outer loop
      vertex 9.13545 -4.06737 0
      vertex 9.64472 -2.5 -10
      vertex 9.64472 -2.5 0
    endloop
  endfacet
  facet normal 0.951056 -0.309017 0
    outer loop
      vertex 9.64472 -2.5 -10
      vertex 9.13545 -4.06737 0
      vertex 9.13545 -4.06737 -10
    endloop
  endfacet
  facet normal 0.587783 -0.809019 0
    outer loop
      vertex 5 -8.66025 -10
      vertex 6.69131 -7.43145 0
      vertex 5 -8.66025 0
    endloop
  endfacet
  facet normal 0.587783 -0.809019 0
    outer loop
      vertex 6.69131 -7.43145 0
      vertex 5 -8.66025 -10
      vertex 6.69131 -7.43145 -10
    endloop
  endfacet
  facet normal 0.743147 -0.669129 0
    outer loop
      vertex 6.69131 -7.43145 0
      vertex 8.09017 -5.87785 -10
      vertex 8.09017 -5.87785 0
    endloop
  endfacet
  facet normal 0.743147 -0.669129 0
    outer loop
      vertex 8.09017 -5.87785 -10
      vertex 6.69131 -7.43145 0
      vertex 6.69131 -7.43145 -10
    endloop
  endfacet
  facet normal -0.406736 -0.913546 0
    outer loop
      vertex -5 -8.66025 -10
      vertex -3.09017 -9.51056 0
      vertex -5 -8.66025 0
    endloop
  endfacet
  facet normal -0.406736 -0.913546 -0
    outer loop
      vertex -3.09017 -9.51056 0
      vertex -5 -8.66025 -10
      vertex -3.09017 -9.51056 -10
    endloop
  endfacet
  facet normal 0.406736 0.913546 -0
    outer loop
      vertex 5 8.66025 -10
      vertex 3.09017 9.51056 0
      vertex 5 8.66025 0
    endloop
  endfacet
  facet normal 0.406736 0.913546 0
    outer loop
      vertex 3.09017 9.51056 0
      vertex 5 8.66025 -10
      vertex 3.09017 9.51056 -10
    endloop
  endfacet
  facet normal 0.743147 0.669129 0
    outer loop
      vertex 8.09017 5.87785 0
      vertex 6.69131 7.43145 -10
      vertex 6.69131 7.43145 0
    endloop
  endfacet
  facet normal 0.743147 0.669129 0
    outer loop
      vertex 6.69131 7.43145 -10
      vertex 8.09017 5.87785 0
      vertex 8.09017 5.87785 -10
    endloop
  endfacet
  facet normal -0.587783 -0.809019 0
    outer loop
      vertex -6.69131 -7.43145 -10
      vertex -5 -8.66025 0
      vertex -6.69131 -7.43145 0
    endloop
  endfacet
  facet normal -0.587783 -0.809019 -0
    outer loop
      vertex -5 -8.66025 0
      vertex -6.69131 -7.43145 -10
      vertex -5 -8.66025 -10
    endloop
  endfacet
  facet normal -0.743147 0.669129 0
    outer loop
      vertex -8.09017 5.87785 -10
      vertex -6.69131 7.43145 0
      vertex -6.69131 7.43145 -10
    endloop
  endfacet
  facet normal -0.743147 0.669129 0
    outer loop
      vertex -6.69131 7.43145 0
      vertex -8.09017 5.87785 -10
      vertex -8.09017 5.87785 0
    endloop
  endfacet
  facet normal 0 1 -0
    outer loop
      vertex 1.04528 9.94522 -10
      vertex -1.04528 9.94522 0
      vertex 1.04528 9.94522 0
    endloop
  endfacet
  facet normal 0 1 0
    outer loop
      vertex -1.04528 9.94522 0
      vertex 1.04528 9.94522 -10
      vertex -1.04528 9.94522 -10
    endloop
  endfacet
  facet normal 0.406736 -0.913546 0
    outer loop
      vertex 3.09017 -9.51056 -10
      vertex 5 -8.66025 0
      vertex 3.09017 -9.51056 0
    endloop
  endfacet
  facet normal 0.406736 -0.913546 0
    outer loop
      vertex 5 -8.66025 0
      vertex 3.09017 -9.51056 -10
      vertex 5 -8.66025 -10
    endloop
  endfacet
  facet normal 0.207914 -0.978147 0
    outer loop
      vertex 1.04528 -9.94522 -10
      vertex 3.09017 -9.51056 0
      vertex 1.04528 -9.94522 0
    endloop
  endfacet
  facet normal 0.207914 -0.978147 0
    outer loop
      vertex 3.09017 -9.51056 0
      vertex 1.04528 -9.94522 -10
      vertex 3.09017 -9.51056 -10
    endloop
  endfacet
  facet normal -0.951056 0.309017 0
    outer loop
      vertex -9.64472 2.5 -10
      vertex -9.13545 4.06737 0
      vertex -9.13545 4.06737 -10
    endloop
  endfacet
  facet normal -0.951056 0.309017 0
    outer loop
      vertex -9.13545 4.06737 0
      vertex -9.64472 2.5 -10
      vertex -9.64472 2.5 0
    endloop
  endfacet
  facet normal 0 0 -1
    outer loop
      vertex 9.64472 2.5 -10
      vertex 8.09017 5.87785 -10
      vertex 9.13545 4.06737 -10
    endloop
  endfacet
  facet normal 0 0 -1
    outer loop
      vertex 9.64472 2.5 -10
      vertex 6.69131 7.43145 -10
      vertex 8.09017 5.87785 -10
    endloop
  endfacet
  facet normal 0 0 -1
    outer loop
      vertex 9.64472 2.5 -10
      vertex 5 8.66025 -10
      vertex 6.69131 7.43145 -10
    endloop
  endfacet
  facet normal 0 0 -1
    outer loop
      vertex 9.64472 2.5 -10
      vertex 3.09017 9.51056 -10
      vertex 5 8.66025 -10
    endloop
  endfacet
  facet normal 0 0 -1
    outer loop
      vertex 9.64472 2.5 -10
      vertex 1.04528 9.94522 -10
      vertex 3.09017 9.51056 -10
    endloop
  endfacet
  facet normal 0 0 -1
    outer loop
      vertex 9.64472 2.5 -10
      vertex -1.04528 9.94522 -10
      vertex 1.04528 9.94522 -10
    endloop
  endfacet
  facet normal 0 0 -1
    outer loop
      vertex 9.64472 2.5 -10
      vertex -3.09017 9.51056 -10
      vertex -1.04528 9.94522 -10
    endloop
  endfacet
  facet normal 0 0 -1
    outer loop
      vertex 9.64472 2.5 -10
      vertex -5 8.66025 -10
      vertex -3.09017 9.51056 -10
    endloop
  endfacet
  facet normal 0 0 -1
    outer loop
      vertex 9.64472 2.5 -10
      vertex -6.69131 7.43145 -10
      vertex -5 8.66025 -10
    endloop
  endfacet
  facet normal 0 0 -1
    outer loop
      vertex 9.64472 2.5 -10
      vertex -8.09017 5.87785 -10
      vertex -6.69131 7.43145 -10
    endloop
  endfacet
  facet normal 0 0 -1
    outer loop
      vertex -9.64472 2.5 -10
      vertex -8.09017 5.87785 -10
      vertex 9.64472 2.5 -10
    endloop
  endfacet
  facet normal 0 0 -1
    outer loop
      vertex -8.09017 5.87785 -10
      vertex -9.64472 2.5 -10
      vertex -9.13545 4.06737 -10
    endloop
  endfacet
  facet normal 0 0 -1
    outer loop
      vertex 8.09017 -5.87785 -10
      vertex 9.64472 -2.5 -10
      vertex 9.13545 -4.06737 -10
    endloop
  endfacet
  facet normal 0 0 -1
    outer loop
      vertex 6.69131 -7.43145 -10
      vertex 9.64472 -2.5 -10
      vertex 8.09017 -5.87785 -10
    endloop
  endfacet
  facet normal 0 0 -1
    outer loop
      vertex 5 -8.66025 -10
      vertex 9.64472 -2.5 -10
      vertex 6.69131 -7.43145 -10
    endloop
  endfacet
  facet normal 0 0 -1
    outer loop
      vertex 3.09017 -9.51056 -10
      vertex 9.64472 -2.5 -10
      vertex 5 -8.66025 -10
    endloop
  endfacet
  facet normal 0 0 -1
    outer loop
      vertex 1.04528 -9.94522 -10
      vertex 9.64472 -2.5 -10
      vertex 3.09017 -9.51056 -10
    endloop
  endfacet
  facet normal 0 0 -1
    outer loop
      vertex -1.04528 -9.94522 -10
      vertex 9.64472 -2.5 -10
      vertex 1.04528 -9.94522 -10
    endloop
  endfacet
  facet normal 0 0 -1
    outer loop
      vertex -3.09017 -9.51056 -10
      vertex 9.64472 -2.5 -10
      vertex -1.04528 -9.94522 -10
    endloop
  endfacet
  facet normal 0 0 -1
    outer loop
      vertex -5 -8.66025 -10
      vertex 9.64472 -2.5 -10
      vertex -3.09017 -9.51056 -10
    endloop
  endfacet
  facet normal 0 0 -1
    outer loop
      vertex -6.69131 -7.43145 -10
      vertex 9.64472 -2.5 -10
      vertex -5 -8.66025 -10
    endloop
  endfacet
  facet normal 0 0 -1
    outer loop
      vertex -8.09017 -5.87785 -10
      vertex 9.64472 -2.5 -10
      vertex -6.69131 -7.43145 -10
    endloop
  endfacet
  facet normal 0 0 -1
    outer loop
      vertex -9.64472 -2.5 -10
      vertex -8.09017 -5.87785 -10
      vertex -9.13545 -4.06737 -10
    endloop
  endfacet
  facet normal 0 0 -1
    outer loop
      vertex -8.09017 -5.87785 -10
      vertex -9.64472 -2.5 -10
      vertex 9.64472 -2.5 -10
    endloop
  endfacet
  facet normal -0.951056 -0.309017 0
    outer loop
      vertex -9.13545 -4.06737 -10
      vertex -9.64472 -2.5 0
      vertex -9.64472 -2.5 -10
    endloop
  endfacet
  facet normal -0.951056 -0.309017 0
    outer loop
      vertex -9.64472 -2.5 0
      vertex -9.13545 -4.06737 -10
      vertex -9.13545 -4.06737 0
    endloop
  endfacet
  facet normal -0.406736 0.913546 0
    outer loop
      vertex -3.09017 9.51056 -10
      vertex -5 8.66025 0
      vertex -3.09017 9.51056 0
    endloop
  endfacet
  facet normal -0.406736 0.913546 0
    outer loop
      vertex -5 8.66025 0
      vertex -3.09017 9.51056 -10
      vertex -5 8.66025 -10
    endloop
  endfacet
  facet normal 0 0 1
    outer loop
      vertex -1.08519 -5.41513 0
      vertex -1.34837 -7.32248 0
      vertex -1.33494 -7.31218 0
    endloop
  endfacet
  facet normal 0 -0 1
    outer loop
      vertex -1.34837 -7.32248 0
      vertex -1.08519 -5.41513 0
      vertex -2.25 -3.89711 0
    endloop
  endfacet
  facet normal -0 0 1
    outer loop
      vertex 7.01296 -2.5 0
      vertex 9.13545 -4.06737 0
      vertex 9.64472 -2.5 0
    endloop
  endfacet
  facet normal 0 0 1
    outer loop
      vertex 9.13545 -4.06737 0
      vertex 7.01296 -2.5 0
      vertex 6.49519 -3.75 0
    endloop
  endfacet
  facet normal 0 0 1
    outer loop
      vertex 9.13545 -4.06737 0
      vertex 6.49519 -3.75 0
      vertex 8.09017 -5.87785 0
    endloop
  endfacet
  facet normal -0 0 1
    outer loop
      vertex 5.3033 -5.3033 0
      vertex 8.09017 -5.87785 0
      vertex 6.49519 -3.75 0
    endloop
  endfacet
  facet normal 0 0 1
    outer loop
      vertex 8.09017 -5.87785 0
      vertex 5.3033 -5.3033 0
      vertex 6.69131 -7.43145 0
    endloop
  endfacet
  facet normal -0 0 1
    outer loop
      vertex 3.75 -6.49519 0
      vertex 6.69131 -7.43145 0
      vertex 5.3033 -5.3033 0
    endloop
  endfacet
  facet normal 0 0 1
    outer loop
      vertex 6.69131 -7.43145 0
      vertex 3.75 -6.49519 0
      vertex 5 -8.66025 0
    endloop
  endfacet
  facet normal 0 0 1
    outer loop
      vertex 3.75 -6.49519 0
      vertex 3.09017 -9.51056 0
      vertex 5 -8.66025 0
    endloop
  endfacet
  facet normal -0 0 1
    outer loop
      vertex 1.94114 -7.24444 0
      vertex 3.09017 -9.51056 0
      vertex 3.75 -6.49519 0
    endloop
  endfacet
  facet normal 0 0 1
    outer loop
      vertex 1.94114 -7.24444 0
      vertex 1.04528 -9.94522 0
      vertex 3.09017 -9.51056 0
    endloop
  endfacet
  facet normal -0 0 1
    outer loop
      vertex 0 -7.5 0
      vertex 1.04528 -9.94522 0
      vertex 1.94114 -7.24444 0
    endloop
  endfacet
  facet normal 0 0 1
    outer loop
      vertex 0 -7.5 0
      vertex -1.04528 -9.94522 0
      vertex 1.04528 -9.94522 0
    endloop
  endfacet
  facet normal 0 0 1
    outer loop
      vertex -1.34837 -7.32248 0
      vertex -1.04528 -9.94522 0
      vertex 0 -7.5 0
    endloop
  endfacet
  facet normal -0 0 1
    outer loop
      vertex -5.66727 -4.82896 0
      vertex -1.34837 -7.32248 0
      vertex -2.25 -3.89711 0
    endloop
  endfacet
  facet normal 0 0 1
    outer loop
      vertex -1.34837 -7.32248 0
      vertex -3.09017 -9.51056 0
      vertex -1.04528 -9.94522 0
    endloop
  endfacet
  facet normal 0 0 1
    outer loop
      vertex -5.66727 -4.82896 0
      vertex -2.25 -3.89711 0
      vertex -4.14705 -3.64736 0
    endloop
  endfacet
  facet normal 0 0 1
    outer loop
      vertex -1.34837 -7.32248 0
      vertex -5 -8.66025 0
      vertex -3.09017 -9.51056 0
    endloop
  endfacet
  facet normal 0 0 1
    outer loop
      vertex -5.66727 -4.82896 0
      vertex -4.14705 -3.64736 0
      vertex -5.66506 -4.81218 0
    endloop
  endfacet
  facet normal 0 0 1
    outer loop
      vertex -1.34837 -7.32248 0
      vertex -5.66727 -4.82896 0
      vertex -5 -8.66025 0
    endloop
  endfacet
  facet normal 0 0 1
    outer loop
      vertex -8.09017 -5.87785 0
      vertex -5.66727 -4.82896 0
      vertex -6.49519 -3.75 0
    endloop
  endfacet
  facet normal 0 0 1
    outer loop
      vertex -5.66727 -4.82896 0
      vertex -6.69131 -7.43145 0
      vertex -5 -8.66025 0
    endloop
  endfacet
  facet normal 0 0 1
    outer loop
      vertex -9.13545 -4.06737 0
      vertex -6.49519 -3.75 0
      vertex -7.01296 -2.5 0
    endloop
  endfacet
  facet normal 0 0 1
    outer loop
      vertex -5.66727 -4.82896 0
      vertex -8.09017 -5.87785 0
      vertex -6.69131 -7.43145 0
    endloop
  endfacet
  facet normal 0 0 1
    outer loop
      vertex -6.49519 -3.75 0
      vertex -9.13545 -4.06737 0
      vertex -8.09017 -5.87785 0
    endloop
  endfacet
  facet normal 0 -0 1
    outer loop
      vertex -9.13545 -4.06737 0
      vertex -7.01296 -2.5 0
      vertex -9.64472 -2.5 0
    endloop
  endfacet
  facet normal 0 0 1
    outer loop
      vertex 6.49519 3.75 0
      vertex 9.13545 4.06737 0
      vertex 8.09017 5.87785 0
    endloop
  endfacet
  facet normal 0 -0 1
    outer loop
      vertex 7.01296 2.5 0
      vertex 9.13545 4.06737 0
      vertex 6.49519 3.75 0
    endloop
  endfacet
  facet normal 0 0 1
    outer loop
      vertex 5.3033 5.3033 0
      vertex 8.09017 5.87785 0
      vertex 6.69131 7.43145 0
    endloop
  endfacet
  facet normal 0 0 1
    outer loop
      vertex 9.13545 4.06737 0
      vertex 7.01296 2.5 0
      vertex 9.64472 2.5 0
    endloop
  endfacet
  facet normal 0 0 1
    outer loop
      vertex 8.09017 5.87785 0
      vertex 5.3033 5.3033 0
      vertex 6.49519 3.75 0
    endloop
  endfacet
  facet normal 0 0 1
    outer loop
      vertex 3.75 6.49519 0
      vertex 6.69131 7.43145 0
      vertex 5 8.66025 0
    endloop
  endfacet
  facet normal 0 0 1
    outer loop
      vertex 6.69131 7.43145 0
      vertex 3.75 6.49519 0
      vertex 5.3033 5.3033 0
    endloop
  endfacet
  facet normal 0 0 1
    outer loop
      vertex 3.09017 9.51056 0
      vertex 3.75 6.49519 0
      vertex 5 8.66025 0
    endloop
  endfacet
  facet normal 0 0 1
    outer loop
      vertex 3.09017 9.51056 0
      vertex 1.94114 7.24444 0
      vertex 3.75 6.49519 0
    endloop
  endfacet
  facet normal 0 0 1
    outer loop
      vertex 1.04528 9.94522 0
      vertex 1.94114 7.24444 0
      vertex 3.09017 9.51056 0
    endloop
  endfacet
  facet normal 0 0 1
    outer loop
      vertex 1.04528 9.94522 0
      vertex 0 7.5 0
      vertex 1.94114 7.24444 0
    endloop
  endfacet
  facet normal -0 0 1
    outer loop
      vertex -1.04528 9.94522 0
      vertex 0 7.5 0
      vertex 1.04528 9.94522 0
    endloop
  endfacet
  facet normal 0 0 1
    outer loop
      vertex -1.04528 9.94522 0
      vertex -1.34837 7.32248 0
      vertex 0 7.5 0
    endloop
  endfacet
  facet normal -0 0 1
    outer loop
      vertex -3.09017 9.51056 0
      vertex -1.34837 7.32248 0
      vertex -1.04528 9.94522 0
    endloop
  endfacet
  facet normal -0 0 1
    outer loop
      vertex -5 8.66025 0
      vertex -1.34837 7.32248 0
      vertex -3.09017 9.51056 0
    endloop
  endfacet
  facet normal 0 0 1
    outer loop
      vertex -5.66727 4.82896 0
      vertex -1.34837 7.32248 0
      vertex -5 8.66025 0
    endloop
  endfacet
  facet normal 0 0 1
    outer loop
      vertex -1.34837 7.32248 0
      vertex -5.66727 4.82896 0
      vertex -2.25 3.89711 0
    endloop
  endfacet
  facet normal 0 0 1
    outer loop
      vertex -2.25 3.89711 0
      vertex -5.66727 4.82896 0
      vertex -4.14705 3.64736 0
    endloop
  endfacet
  facet normal 0 0 1
    outer loop
      vertex -4.14705 3.64736 0
      vertex -5.66727 4.82896 0
      vertex -5.66506 4.81218 0
    endloop
  endfacet
  facet normal -0 0 1
    outer loop
      vertex -6.69131 7.43145 0
      vertex -5.66727 4.82896 0
      vertex -5 8.66025 0
    endloop
  endfacet
  facet normal -0 0 1
    outer loop
      vertex -8.09017 5.87785 0
      vertex -5.66727 4.82896 0
      vertex -6.69131 7.43145 0
    endloop
  endfacet
  facet normal 0 0 1
    outer loop
      vertex -5.66727 4.82896 0
      vertex -8.09017 5.87785 0
      vertex -6.49519 3.75 0
    endloop
  endfacet
  facet normal -0 0 1
    outer loop
      vertex -9.13545 4.06737 0
      vertex -6.49519 3.75 0
      vertex -8.09017 5.87785 0
    endloop
  endfacet
  facet normal 0 0 1
    outer loop
      vertex -6.49519 3.75 0
      vertex -9.13545 4.06737 0
      vertex -7.01296 2.5 0
    endloop
  endfacet
  facet normal 0 0 1
    outer loop
      vertex -7.01296 2.5 0
      vertex -9.13545 4.06737 0
      vertex -9.64472 2.5 0
    endloop
  endfacet
  facet normal 0 0 1
    outer loop
      vertex -1.34837 7.32248 0
      vertex -1.08519 5.41513 0
      vertex -1.33494 7.31218 0
    endloop
  endfacet
  facet normal 0 0 1
    outer loop
      vertex -1.08519 5.41513 0
      vertex -1.34837 7.32248 0
      vertex -2.25 3.89711 0
    endloop
  endfacet
  facet normal -0.207914 -0.978147 0
    outer loop
      vertex -3.09017 -9.51056 -10
      vertex -1.04528 -9.94522 0
      vertex -3.09017 -9.51056 0
    endloop
  endfacet
  facet normal -0.207914 -0.978147 -0
    outer loop
      vertex -1.04528 -9.94522 0
      vertex -3.09017 -9.51056 -10
      vertex -1.04528 -9.94522 -10
    endloop
  endfacet
  facet normal 0.207914 0.978147 -0
    outer loop
      vertex 3.09017 9.51056 -10
      vertex 1.04528 9.94522 0
      vertex 3.09017 9.51056 0
    endloop
  endfacet
  facet normal 0.207914 0.978147 0
    outer loop
      vertex 1.04528 9.94522 0
      vertex 3.09017 9.51056 -10
      vertex 1.04528 9.94522 -10
    endloop
  endfacet
  facet normal -0.866026 -0.5 0
    outer loop
      vertex -8.09017 -5.87785 -10
      vertex -9.13545 -4.06737 0
      vertex -9.13545 -4.06737 -10
    endloop
  endfacet
  facet normal -0.866026 -0.5 0
    outer loop
      vertex -9.13545 -4.06737 0
      vertex -8.09017 -5.87785 -10
      vertex -8.09017 -5.87785 0
    endloop
  endfacet
  facet normal -0.866026 0.5 0
    outer loop
      vertex -9.13545 4.06737 -10
      vertex -8.09017 5.87785 0
      vertex -8.09017 5.87785 -10
    endloop
  endfacet
  facet normal -0.866026 0.5 0
    outer loop
      vertex -8.09017 5.87785 0
      vertex -9.13545 4.06737 -10
      vertex -9.13545 4.06737 0
    endloop
  endfacet
  facet normal 0.866026 -0.5 0
    outer loop
      vertex 8.09017 -5.87785 0
      vertex 9.13545 -4.06737 -10
      vertex 9.13545 -4.06737 0
    endloop
  endfacet
  facet normal 0.866026 -0.5 0
    outer loop
      vertex 9.13545 -4.06737 -10
      vertex 8.09017 -5.87785 0
      vertex 8.09017 -5.87785 -10
    endloop
  endfacet
  facet normal 0.587783 0.809019 -0
    outer loop
      vertex 6.69131 7.43145 -10
      vertex 5 8.66025 0
      vertex 6.69131 7.43145 0
    endloop
  endfacet
  facet normal 0.587783 0.809019 0
    outer loop
      vertex 5 8.66025 0
      vertex 6.69131 7.43145 -10
      vertex 5 8.66025 -10
    endloop
  endfacet
  facet normal -0.587783 0.809019 0
    outer loop
      vertex -5 8.66025 -10
      vertex -6.69131 7.43145 0
      vertex -5 8.66025 0
    endloop
  endfacet
  facet normal -0.587783 0.809019 0
    outer loop
      vertex -6.69131 7.43145 0
      vertex -5 8.66025 -10
      vertex -6.69131 7.43145 -10
    endloop
  endfacet
  facet normal -0.207914 0.978147 0
    outer loop
      vertex -1.04528 9.94522 -10
      vertex -3.09017 9.51056 0
      vertex -1.04528 9.94522 0
    endloop
  endfacet
  facet normal -0.207914 0.978147 0
    outer loop
      vertex -3.09017 9.51056 0
      vertex -1.04528 9.94522 -10
      vertex -3.09017 9.51056 -10
    endloop
  endfacet
  facet normal 0 -1 0
    outer loop
      vertex -1.04528 -9.94522 -10
      vertex 1.04528 -9.94522 0
      vertex -1.04528 -9.94522 0
    endloop
  endfacet
  facet normal 0 -1 -0
    outer loop
      vertex 1.04528 -9.94522 0
      vertex -1.04528 -9.94522 -10
      vertex 1.04528 -9.94522 -10
    endloop
  endfacet
  facet normal 0 -1 0
    outer loop
      vertex -9.64472 2.5 0
      vertex -7.01296 2.5 -3
      vertex -7.01296 2.5 0
    endloop
  endfacet
  facet normal 0 -1 0
    outer loop
      vertex -9.64472 2.5 -10
      vertex 0 2.5 -3
      vertex -7.01296 2.5 -3
    endloop
  endfacet
  facet normal 0 -1 0
    outer loop
      vertex 9.64472 2.5 -10
      vertex 0 2.5 -3
      vertex -9.64472 2.5 -10
    endloop
  endfacet
  facet normal 0 -1 0
    outer loop
      vertex 0 2.5 -3
      vertex 9.64472 2.5 -10
      vertex 7 2.5 -3
    endloop
  endfacet
  facet normal 0 -1 0
    outer loop
      vertex -9.64472 2.5 -10
      vertex -7.01296 2.5 -3
      vertex -9.64472 2.5 0
    endloop
  endfacet
  facet normal 0 -1 0
    outer loop
      vertex 7.01296 2.5 -3
      vertex 9.64472 2.5 0
      vertex 7.01296 2.5 0
    endloop
  endfacet
  facet normal 0 -1 0
    outer loop
      vertex 7.01296 2.5 -3
      vertex 9.64472 2.5 -10
      vertex 9.64472 2.5 0
    endloop
  endfacet
  facet normal 0 -1 0
    outer loop
      vertex 7 2.5 -3
      vertex 9.64472 2.5 -10
      vertex 7.01296 2.5 -3
    endloop
  endfacet
  facet normal 0 1 0
    outer loop
      vertex 9.64472 -2.5 0
      vertex 7.01296 -2.5 -3
      vertex 7.01296 -2.5 0
    endloop
  endfacet
  facet normal 0 1 0
    outer loop
      vertex 9.64472 -2.5 -10
      vertex 7 -2.5 -3
      vertex 7.01296 -2.5 -3
    endloop
  endfacet
  facet normal 0 1 0
    outer loop
      vertex 7 -2.5 -3
      vertex 9.64472 -2.5 -10
      vertex 0 -2.5 -3
    endloop
  endfacet
  facet normal 0 1 0
    outer loop
      vertex -9.64472 -2.5 -10
      vertex 0 -2.5 -3
      vertex 9.64472 -2.5 -10
    endloop
  endfacet
  facet normal 0 1 -0
    outer loop
      vertex 9.64472 -2.5 -10
      vertex 7.01296 -2.5 -3
      vertex 9.64472 -2.5 0
    endloop
  endfacet
  facet normal 0 1 -0
    outer loop
      vertex -7.01296 -2.5 -3
      vertex -9.64472 -2.5 0
      vertex -7.01296 -2.5 0
    endloop
  endfacet
  facet normal 0 1 0
    outer loop
      vertex -7.01296 -2.5 -3
      vertex -9.64472 -2.5 -10
      vertex -9.64472 -2.5 0
    endloop
  endfacet
  facet normal 0 1 0
    outer loop
      vertex 0 -2.5 -3
      vertex -9.64472 -2.5 -10
      vertex -7.01296 -2.5 -3
    endloop
  endfacet
  facet normal -0.743147 -0.669129 0
    outer loop
      vertex -6.69131 -7.43145 10
      vertex -8.09017 -5.87785 20
      vertex -8.09017 -5.87785 10
    endloop
  endfacet
  facet normal -0.743147 -0.669129 0
    outer loop
      vertex -8.09017 -5.87785 20
      vertex -6.69131 -7.43145 10
      vertex -6.69131 -7.43145 20
    endloop
  endfacet
  facet normal 0.951056 0.309017 0
    outer loop
      vertex 9.64472 2.5 20
      vertex 9.13545 4.06737 10
      vertex 9.13545 4.06737 20
    endloop
  endfacet
  facet normal 0.951056 0.309017 0
    outer loop
      vertex 9.13545 4.06737 10
      vertex 9.64472 2.5 20
      vertex 9.64472 2.5 10
    endloop
  endfacet
  facet normal 0.866026 0.5 0
    outer loop
      vertex 9.13545 4.06737 20
      vertex 8.09017 5.87785 10
      vertex 8.09017 5.87785 20
    endloop
  endfacet
  facet normal 0.866026 0.5 0
    outer loop
      vertex 8.09017 5.87785 10
      vertex 9.13545 4.06737 20
      vertex 9.13545 4.06737 10
    endloop
  endfacet
  facet normal 0.951056 -0.309017 0
    outer loop
      vertex 9.13545 -4.06737 20
      vertex 9.64472 -2.5 10
      vertex 9.64472 -2.5 20
    endloop
  endfacet
  facet normal 0.951056 -0.309017 0
    outer loop
      vertex 9.64472 -2.5 10
      vertex 9.13545 -4.06737 20
      vertex 9.13545 -4.06737 10
    endloop
  endfacet
  facet normal 0.587783 -0.809019 0
    outer loop
      vertex 5 -8.66025 10
      vertex 6.69131 -7.43145 20
      vertex 5 -8.66025 20
    endloop
  endfacet
  facet normal 0.587783 -0.809019 0
    outer loop
      vertex 6.69131 -7.43145 20
      vertex 5 -8.66025 10
      vertex 6.69131 -7.43145 10
    endloop
  endfacet
  facet normal 0.743147 -0.669129 0
    outer loop
      vertex 6.69131 -7.43145 20
      vertex 8.09017 -5.87785 10
      vertex 8.09017 -5.87785 20
    endloop
  endfacet
  facet normal 0.743147 -0.669129 0
    outer loop
      vertex 8.09017 -5.87785 10
      vertex 6.69131 -7.43145 20
      vertex 6.69131 -7.43145 10
    endloop
  endfacet
  facet normal -0.406736 -0.913546 0
    outer loop
      vertex -5 -8.66025 10
      vertex -3.09017 -9.51056 20
      vertex -5 -8.66025 20
    endloop
  endfacet
  facet normal -0.406736 -0.913546 -0
    outer loop
      vertex -3.09017 -9.51056 20
      vertex -5 -8.66025 10
      vertex -3.09017 -9.51056 10
    endloop
  endfacet
  facet normal 0.406736 0.913546 -0
    outer loop
      vertex 5 8.66025 10
      vertex 3.09017 9.51056 20
      vertex 5 8.66025 20
    endloop
  endfacet
  facet normal 0.406736 0.913546 0
    outer loop
      vertex 3.09017 9.51056 20
      vertex 5 8.66025 10
      vertex 3.09017 9.51056 10
    endloop
  endfacet
  facet normal 0.743147 0.669129 0
    outer loop
      vertex 8.09017 5.87785 20
      vertex 6.69131 7.43145 10
      vertex 6.69131 7.43145 20
    endloop
  endfacet
  facet normal 0.743147 0.669129 0
    outer loop
      vertex 6.69131 7.43145 10
      vertex 8.09017 5.87785 20
      vertex 8.09017 5.87785 10
    endloop
  endfacet
  facet normal -0.587783 -0.809019 0
    outer loop
      vertex -6.69131 -7.43145 10
      vertex -5 -8.66025 20
      vertex -6.69131 -7.43145 20
    endloop
  endfacet
  facet normal -0.587783 -0.809019 -0
    outer loop
      vertex -5 -8.66025 20
      vertex -6.69131 -7.43145 10
      vertex -5 -8.66025 10
    endloop
  endfacet
  facet normal -0.743147 0.669129 0
    outer loop
      vertex -8.09017 5.87785 10
      vertex -6.69131 7.43145 20
      vertex -6.69131 7.43145 10
    endloop
  endfacet
  facet normal -0.743147 0.669129 0
    outer loop
      vertex -6.69131 7.43145 20
      vertex -8.09017 5.87785 10
      vertex -8.09017 5.87785 20
    endloop
  endfacet
  facet normal 0 1 -0
    outer loop
      vertex 1.04528 9.94522 10
      vertex -1.04528 9.94522 20
      vertex 1.04528 9.94522 20
    endloop
  endfacet
  facet normal 0 1 0
    outer loop
      vertex -1.04528 9.94522 20
      vertex 1.04528 9.94522 10
      vertex -1.04528 9.94522 10
    endloop
  endfacet
  facet normal 0.406736 -0.913546 0
    outer loop
      vertex 3.09017 -9.51056 10
      vertex 5 -8.66025 20
      vertex 3.09017 -9.51056 20
    endloop
  endfacet
  facet normal 0.406736 -0.913546 0
    outer loop
      vertex 5 -8.66025 20
      vertex 3.09017 -9.51056 10
      vertex 5 -8.66025 10
    endloop
  endfacet
  facet normal 0.207914 -0.978147 0
    outer loop
      vertex 1.04528 -9.94522 10
      vertex 3.09017 -9.51056 20
      vertex 1.04528 -9.94522 20
    endloop
  endfacet
  facet normal 0.207914 -0.978147 0
    outer loop
      vertex 3.09017 -9.51056 20
      vertex 1.04528 -9.94522 10
      vertex 3.09017 -9.51056 10
    endloop
  endfacet
  facet normal -0.951056 0.309017 0
    outer loop
      vertex -9.64472 2.5 10
      vertex -9.13545 4.06737 20
      vertex -9.13545 4.06737 10
    endloop
  endfacet
  facet normal -0.951056 0.309017 0
    outer loop
      vertex -9.13545 4.06737 20
      vertex -9.64472 2.5 10
      vertex -9.64472 2.5 20
    endloop
  endfacet
  facet normal 0 0 -1
    outer loop
      vertex 9.64472 2.5 10
      vertex 8.09017 5.87785 10
      vertex 9.13545 4.06737 10
    endloop
  endfacet
  facet normal 0 0 -1
    outer loop
      vertex -8 2.5 10
      vertex 8.09017 5.87785 10
      vertex 9.64472 2.5 10
    endloop
  endfacet
  facet normal -0 0 -1
    outer loop
      vertex 8.09017 5.87785 10
      vertex -8 2.5 10
      vertex 6.69131 7.43145 10
    endloop
  endfacet
  facet normal -0 0 -1
    outer loop
      vertex 6.69131 7.43145 10
      vertex -8 2.5 10
      vertex 5 8.66025 10
    endloop
  endfacet
  facet normal -0 0 -1
    outer loop
      vertex 5 8.66025 10
      vertex -8 2.5 10
      vertex 3.09017 9.51056 10
    endloop
  endfacet
  facet normal -0 0 -1
    outer loop
      vertex 3.09017 9.51056 10
      vertex -8 2.5 10
      vertex 1.04528 9.94522 10
    endloop
  endfacet
  facet normal -0 0 -1
    outer loop
      vertex 1.04528 9.94522 10
      vertex -8 2.5 10
      vertex -1.04528 9.94522 10
    endloop
  endfacet
  facet normal 0 0 -1
    outer loop
      vertex -1.04528 9.94522 10
      vertex -8 2.5 10
      vertex -3.09017 9.51056 10
    endloop
  endfacet
  facet normal 0 0 -1
    outer loop
      vertex -3.09017 9.51056 10
      vertex -8 2.5 10
      vertex -5 8.66025 10
    endloop
  endfacet
  facet normal 0 0 -1
    outer loop
      vertex -5 8.66025 10
      vertex -8 2.5 10
      vertex -6.69131 7.43145 10
    endloop
  endfacet
  facet normal 0 0 -1
    outer loop
      vertex -8 2.5 10
      vertex -8.09017 5.87785 10
      vertex -6.69131 7.43145 10
    endloop
  endfacet
  facet normal 0 0 -1
    outer loop
      vertex -8 2.5 10
      vertex -9.13545 4.06737 10
      vertex -8.09017 5.87785 10
    endloop
  endfacet
  facet normal 0 -0 -1
    outer loop
      vertex -9.13545 4.06737 10
      vertex -8 2.5 10
      vertex -9.64472 2.5 10
    endloop
  endfacet
  facet normal 0 0 -1
    outer loop
      vertex 8.09017 -5.87785 10
      vertex 9.64472 -2.5 10
      vertex 9.13545 -4.06737 10
    endloop
  endfacet
  facet normal 0 0 -1
    outer loop
      vertex -8 -2.5 10
      vertex 8.09017 -5.87785 10
      vertex 6.69131 -7.43145 10
    endloop
  endfacet
  facet normal 0 0 -1
    outer loop
      vertex -8 -2.5 10
      vertex 6.69131 -7.43145 10
      vertex 5 -8.66025 10
    endloop
  endfacet
  facet normal 0 0 -1
    outer loop
      vertex -8 -2.5 10
      vertex 5 -8.66025 10
      vertex 3.09017 -9.51056 10
    endloop
  endfacet
  facet normal 0 0 -1
    outer loop
      vertex -8 -2.5 10
      vertex 3.09017 -9.51056 10
      vertex 1.04528 -9.94522 10
    endloop
  endfacet
  facet normal 0 0 -1
    outer loop
      vertex -8 -2.5 10
      vertex 1.04528 -9.94522 10
      vertex -1.04528 -9.94522 10
    endloop
  endfacet
  facet normal 0 0 -1
    outer loop
      vertex -8 -2.5 10
      vertex -1.04528 -9.94522 10
      vertex -3.09017 -9.51056 10
    endloop
  endfacet
  facet normal 0 0 -1
    outer loop
      vertex -8 -2.5 10
      vertex -3.09017 -9.51056 10
      vertex -5 -8.66025 10
    endloop
  endfacet
  facet normal 0 0 -1
    outer loop
      vertex -8 -2.5 10
      vertex -5 -8.66025 10
      vertex -6.69131 -7.43145 10
    endloop
  endfacet
  facet normal 0 0 -1
    outer loop
      vertex 8.09017 -5.87785 10
      vertex -8 -2.5 10
      vertex 9.64472 -2.5 10
    endloop
  endfacet
  facet normal 0 0 -1
    outer loop
      vertex -8.09017 -5.87785 10
      vertex -8 -2.5 10
      vertex -6.69131 -7.43145 10
    endloop
  endfacet
  facet normal 0 0 -1
    outer loop
      vertex -9.13545 -4.06737 10
      vertex -8 -2.5 10
      vertex -8.09017 -5.87785 10
    endloop
  endfacet
  facet normal -0 0 -1
    outer loop
      vertex -8 -2.5 10
      vertex -9.13545 -4.06737 10
      vertex -9.64472 -2.5 10
    endloop
  endfacet
  facet normal -0.951056 -0.309017 0
    outer loop
      vertex -9.13545 -4.06737 10
      vertex -9.64472 -2.5 20
      vertex -9.64472 -2.5 10
    endloop
  endfacet
  facet normal -0.951056 -0.309017 0
    outer loop
      vertex -9.64472 -2.5 20
      vertex -9.13545 -4.06737 10
      vertex -9.13545 -4.06737 20
    endloop
  endfacet
  facet normal -0.406736 0.913546 0
    outer loop
      vertex -3.09017 9.51056 10
      vertex -5 8.66025 20
      vertex -3.09017 9.51056 20
    endloop
  endfacet
  facet normal -0.406736 0.913546 0
    outer loop
      vertex -5 8.66025 20
      vertex -3.09017 9.51056 10
      vertex -5 8.66025 10
    endloop
  endfacet
  facet normal 0 0 1
    outer loop
      vertex 9.64472 -2.5 20
      vertex 8.09017 -5.87785 20
      vertex 9.13545 -4.06737 20
    endloop
  endfacet
  facet normal 0 0 1
    outer loop
      vertex 9.64472 -2.5 20
      vertex 6.69131 -7.43145 20
      vertex 8.09017 -5.87785 20
    endloop
  endfacet
  facet normal 0 0 1
    outer loop
      vertex 9.64472 -2.5 20
      vertex 5 -8.66025 20
      vertex 6.69131 -7.43145 20
    endloop
  endfacet
  facet normal 0 0 1
    outer loop
      vertex 9.64472 -2.5 20
      vertex 3.09017 -9.51056 20
      vertex 5 -8.66025 20
    endloop
  endfacet
  facet normal 0 0 1
    outer loop
      vertex 9.64472 -2.5 20
      vertex 1.04528 -9.94522 20
      vertex 3.09017 -9.51056 20
    endloop
  endfacet
  facet normal 0 0 1
    outer loop
      vertex 9.64472 -2.5 20
      vertex -1.04528 -9.94522 20
      vertex 1.04528 -9.94522 20
    endloop
  endfacet
  facet normal 0 0 1
    outer loop
      vertex 9.64472 -2.5 20
      vertex -3.09017 -9.51056 20
      vertex -1.04528 -9.94522 20
    endloop
  endfacet
  facet normal 0 0 1
    outer loop
      vertex 9.64472 -2.5 20
      vertex -5 -8.66025 20
      vertex -3.09017 -9.51056 20
    endloop
  endfacet
  facet normal 0 0 1
    outer loop
      vertex 9.64472 -2.5 20
      vertex -6.69131 -7.43145 20
      vertex -5 -8.66025 20
    endloop
  endfacet
  facet normal 0 0 1
    outer loop
      vertex 9.64472 -2.5 20
      vertex -8.09017 -5.87785 20
      vertex -6.69131 -7.43145 20
    endloop
  endfacet
  facet normal -0 0 1
    outer loop
      vertex -9.64472 -2.5 20
      vertex -8.09017 -5.87785 20
      vertex 9.64472 -2.5 20
    endloop
  endfacet
  facet normal 0 0 1
    outer loop
      vertex -8.09017 -5.87785 20
      vertex -9.64472 -2.5 20
      vertex -9.13545 -4.06737 20
    endloop
  endfacet
  facet normal 0 0 1
    outer loop
      vertex 8.09017 5.87785 20
      vertex 9.64472 2.5 20
      vertex 9.13545 4.06737 20
    endloop
  endfacet
  facet normal 0 0 1
    outer loop
      vertex 6.69131 7.43145 20
      vertex 9.64472 2.5 20
      vertex 8.09017 5.87785 20
    endloop
  endfacet
  facet normal 0 0 1
    outer loop
      vertex 5 8.66025 20
      vertex 9.64472 2.5 20
      vertex 6.69131 7.43145 20
    endloop
  endfacet
  facet normal 0 0 1
    outer loop
      vertex 3.09017 9.51056 20
      vertex 9.64472 2.5 20
      vertex 5 8.66025 20
    endloop
  endfacet
  facet normal 0 0 1
    outer loop
      vertex 1.04528 9.94522 20
      vertex 9.64472 2.5 20
      vertex 3.09017 9.51056 20
    endloop
  endfacet
  facet normal -0 0 1
    outer loop
      vertex -1.04528 9.94522 20
      vertex 9.64472 2.5 20
      vertex 1.04528 9.94522 20
    endloop
  endfacet
  facet normal -0 0 1
    outer loop
      vertex -3.09017 9.51056 20
      vertex 9.64472 2.5 20
      vertex -1.04528 9.94522 20
    endloop
  endfacet
  facet normal -0 0 1
    outer loop
      vertex -5 8.66025 20
      vertex 9.64472 2.5 20
      vertex -3.09017 9.51056 20
    endloop
  endfacet
  facet normal -0 0 1
    outer loop
      vertex -6.69131 7.43145 20
      vertex 9.64472 2.5 20
      vertex -5 8.66025 20
    endloop
  endfacet
  facet normal -0 0 1
    outer loop
      vertex -8.09017 5.87785 20
      vertex 9.64472 2.5 20
      vertex -6.69131 7.43145 20
    endloop
  endfacet
  facet normal 0 0 1
    outer loop
      vertex -9.64472 2.5 20
      vertex -8.09017 5.87785 20
      vertex -9.13545 4.06737 20
    endloop
  endfacet
  facet normal 0 0 1
    outer loop
      vertex -8.09017 5.87785 20
      vertex -9.64472 2.5 20
      vertex 9.64472 2.5 20
    endloop
  endfacet
  facet normal -0.207914 -0.978147 0
    outer loop
      vertex -3.09017 -9.51056 10
      vertex -1.04528 -9.94522 20
      vertex -3.09017 -9.51056 20
    endloop
  endfacet
  facet normal -0.207914 -0.978147 -0
    outer loop
      vertex -1.04528 -9.94522 20
      vertex -3.09017 -9.51056 10
      vertex -1.04528 -9.94522 10
    endloop
  endfacet
  facet normal 0.207914 0.978147 -0
    outer loop
      vertex 3.09017 9.51056 10
      vertex 1.04528 9.94522 20
      vertex 3.09017 9.51056 20
    endloop
  endfacet
  facet normal 0.207914 0.978147 0
    outer loop
      vertex 1.04528 9.94522 20
      vertex 3.09017 9.51056 10
      vertex 1.04528 9.94522 10
    endloop
  endfacet
  facet normal -0.866026 -0.5 0
    outer loop
      vertex -8.09017 -5.87785 10
      vertex -9.13545 -4.06737 20
      vertex -9.13545 -4.06737 10
    endloop
  endfacet
  facet normal -0.866026 -0.5 0
    outer loop
      vertex -9.13545 -4.06737 20
      vertex -8.09017 -5.87785 10
      vertex -8.09017 -5.87785 20
    endloop
  endfacet
  facet normal -0.866026 0.5 0
    outer loop
      vertex -9.13545 4.06737 10
      vertex -8.09017 5.87785 20
      vertex -8.09017 5.87785 10
    endloop
  endfacet
  facet normal -0.866026 0.5 0
    outer loop
      vertex -8.09017 5.87785 20
      vertex -9.13545 4.06737 10
      vertex -9.13545 4.06737 20
    endloop
  endfacet
  facet normal 0.866026 -0.5 0
    outer loop
      vertex 8.09017 -5.87785 20
      vertex 9.13545 -4.06737 10
      vertex 9.13545 -4.06737 20
    endloop
  endfacet
  facet normal 0.866026 -0.5 0
    outer loop
      vertex 9.13545 -4.06737 10
      vertex 8.09017 -5.87785 20
      vertex 8.09017 -5.87785 10
    endloop
  endfacet
  facet normal 0.587783 0.809019 -0
    outer loop
      vertex 6.69131 7.43145 10
      vertex 5 8.66025 20
      vertex 6.69131 7.43145 20
    endloop
  endfacet
  facet normal 0.587783 0.809019 0
    outer loop
      vertex 5 8.66025 20
      vertex 6.69131 7.43145 10
      vertex 5 8.66025 10
    endloop
  endfacet
  facet normal -0.587783 0.809019 0
    outer loop
      vertex -5 8.66025 10
      vertex -6.69131 7.43145 20
      vertex -5 8.66025 20
    endloop
  endfacet
  facet normal -0.587783 0.809019 0
    outer loop
      vertex -6.69131 7.43145 20
      vertex -5 8.66025 10
      vertex -6.69131 7.43145 10
    endloop
  endfacet
  facet normal -0.207914 0.978147 0
    outer loop
      vertex -1.04528 9.94522 10
      vertex -3.09017 9.51056 20
      vertex -1.04528 9.94522 20
    endloop
  endfacet
  facet normal -0.207914 0.978147 0
    outer loop
      vertex -3.09017 9.51056 20
      vertex -1.04528 9.94522 10
      vertex -3.09017 9.51056 10
    endloop
  endfacet
  facet normal 0 -1 0
    outer loop
      vertex -1.04528 -9.94522 10
      vertex 1.04528 -9.94522 20
      vertex -1.04528 -9.94522 20
    endloop
  endfacet
  facet normal 0 -1 -0
    outer loop
      vertex 1.04528 -9.94522 20
      vertex -1.04528 -9.94522 10
      vertex 1.04528 -9.94522 10
    endloop
  endfacet
  facet normal 0 -1 0
    outer loop
      vertex -8 2.5 10
      vertex -9.64472 2.5 20
      vertex -9.64472 2.5 10
    endloop
  endfacet
  facet normal 0 -1 0
    outer loop
      vertex -9.64472 2.5 20
      vertex -8 2.5 10
      vertex 9.64472 2.5 20
    endloop
  endfacet
  facet normal 0 -1 -0
    outer loop
      vertex 9.64472 2.5 20
      vertex -8 2.5 10
      vertex 9.64472 2.5 10
    endloop
  endfacet
  facet normal 0 1 0
    outer loop
      vertex -8 -2.5 10
      vertex 9.64472 -2.5 20
      vertex 9.64472 -2.5 10
    endloop
  endfacet
  facet normal 0 1 0
    outer loop
      vertex 9.64472 -2.5 20
      vertex -8 -2.5 10
      vertex -9.64472 -2.5 20
    endloop
  endfacet
  facet normal 0 1 0
    outer loop
      vertex -9.64472 -2.5 20
      vertex -8 -2.5 10
      vertex -9.64472 -2.5 10
    endloop
  endfacet
  facet normal -0.382769 -0.923844 0
    outer loop
      vertex 7 2.5 -3
      vertex 7.01564 2.49352 6
      vertex 7 2.5 6
    endloop
  endfacet
  facet normal -0.382769 -0.923844 -0
    outer loop
      vertex 7.01564 2.49352 6
      vertex 7 2.5 -3
      vertex 7.01564 2.49352 -3
    endloop
  endfacet
  facet normal 0.382682 -0.92388 0
    outer loop
      vertex 5.23223 1.76777 -3
      vertex 7 2.5 6
      vertex 5.23223 1.76777 6
    endloop
  endfacet
  facet normal 0.382682 -0.92388 0
    outer loop
      vertex 7 2.5 6
      vertex 5.23223 1.76777 -3
      vertex 7 2.5 -3
    endloop
  endfacet
  facet normal 0.92388 -0.382682 0
    outer loop
      vertex 4.5 0 6
      vertex 5.23223 1.76777 -3
      vertex 5.23223 1.76777 6
    endloop
  endfacet
  facet normal 0.92388 -0.382682 0
    outer loop
      vertex 5.23223 1.76777 -3
      vertex 4.5 0 6
      vertex 4.5 0 -3
    endloop
  endfacet
  facet normal 0.382682 0.92388 -0
    outer loop
      vertex 7 -2.5 -3
      vertex 5.23223 -1.76777 6
      vertex 7 -2.5 6
    endloop
  endfacet
  facet normal 0.382682 0.92388 0
    outer loop
      vertex 5.23223 -1.76777 6
      vertex 7 -2.5 -3
      vertex 5.23223 -1.76777 -3
    endloop
  endfacet
  facet normal -0 0 -1
    outer loop
      vertex -1.76777 -1.76777 -3
      vertex -7.01296 -2.5 -3
      vertex -2.5 0 -3
    endloop
  endfacet
  facet normal 0 0 -1
    outer loop
      vertex -7.01296 -2.5 -3
      vertex -1.76777 -1.76777 -3
      vertex 0 -2.5 -3
    endloop
  endfacet
  facet normal 0 0 -1
    outer loop
      vertex -7.34659 -1.16523 -3
      vertex -2.5 0 -3
      vertex -7.01296 -2.5 -3
    endloop
  endfacet
  facet normal 0 0 -1
    outer loop
      vertex -1.76777 1.76777 -3
      vertex -7.01296 2.5 -3
      vertex 0 2.5 -3
    endloop
  endfacet
  facet normal 0 0 -1
    outer loop
      vertex -7.34659 1.16523 -3
      vertex -2.5 0 -3
      vertex -7.34659 -1.16523 -3
    endloop
  endfacet
  facet normal 0 0 -1
    outer loop
      vertex -7.34659 -1.16523 -3
      vertex -7.01296 -2.5 -3
      vertex -7.24444 -1.94114 -3
    endloop
  endfacet
  facet normal 0 -0 -1
    outer loop
      vertex -7.01296 2.5 -3
      vertex -2.5 0 -3
      vertex -7.34659 1.16523 -3
    endloop
  endfacet
  facet normal 0 0 -1
    outer loop
      vertex -2.5 0 -3
      vertex -7.01296 2.5 -3
      vertex -1.76777 1.76777 -3
    endloop
  endfacet
  facet normal 0 0 -1
    outer loop
      vertex -7.01296 2.5 -3
      vertex -7.34659 1.16523 -3
      vertex -7.24444 1.94114 -3
    endloop
  endfacet
  facet normal 0 0 -1
    outer loop
      vertex -9.21352 -0.881678 -3
      vertex -7.34659 -1.16523 -3
      vertex -7.53648 -1.42658 -3
    endloop
  endfacet
  facet normal 0 0 -1
    outer loop
      vertex -7.34659 -1.16523 -3
      vertex -9.21352 -0.881678 -3
      vertex -7.34659 1.16523 -3
    endloop
  endfacet
  facet normal 0 0 -1
    outer loop
      vertex -9.21352 0.881678 -3
      vertex -7.34659 1.16523 -3
      vertex -9.21352 -0.881678 -3
    endloop
  endfacet
  facet normal -0 0 -1
    outer loop
      vertex -7.34659 1.16523 -3
      vertex -9.21352 0.881678 -3
      vertex -7.53648 1.42658 -3
    endloop
  endfacet
  facet normal 0 0 -1
    outer loop
      vertex 5.23223 -1.76777 -3
      vertex 2.5 0 -3
      vertex 4.5 0 -3
    endloop
  endfacet
  facet normal 0 0 -1
    outer loop
      vertex 5.23223 -1.76777 -3
      vertex 1.76777 -1.76777 -3
      vertex 2.5 0 -3
    endloop
  endfacet
  facet normal 0 0 -1
    outer loop
      vertex 7 -2.5 -3
      vertex 1.76777 -1.76777 -3
      vertex 5.23223 -1.76777 -3
    endloop
  endfacet
  facet normal 0 -0 -1
    outer loop
      vertex 1.76777 -1.76777 -3
      vertex 7 -2.5 -3
      vertex 0 -2.5 -3
    endloop
  endfacet
  facet normal 0 0 -1
    outer loop
      vertex 2.5 0 -3
      vertex 5.23223 1.76777 -3
      vertex 4.5 0 -3
    endloop
  endfacet
  facet normal 0 0 -1
    outer loop
      vertex 1.76777 1.76777 -3
      vertex 5.23223 1.76777 -3
      vertex 2.5 0 -3
    endloop
  endfacet
  facet normal 0 0 -1
    outer loop
      vertex 1.76777 1.76777 -3
      vertex 7 2.5 -3
      vertex 5.23223 1.76777 -3
    endloop
  endfacet
  facet normal -0 0 -1
    outer loop
      vertex 7 2.5 -3
      vertex 1.76777 1.76777 -3
      vertex 0 2.5 -3
    endloop
  endfacet
  facet normal 0 0 -1
    outer loop
      vertex 7.01564 2.49352 -3
      vertex 7 2.5 -3
      vertex 7.01296 2.5 -3
    endloop
  endfacet
  facet normal 0 0 -1
    outer loop
      vertex 7.01296 -2.5 -3
      vertex 7 -2.5 -3
      vertex 7.01564 -2.49352 -3
    endloop
  endfacet
  facet normal -0.382769 0.923844 0
    outer loop
      vertex 7.01564 -2.49352 -3
      vertex 7 -2.5 6
      vertex 7.01564 -2.49352 6
    endloop
  endfacet
  facet normal -0.382769 0.923844 0
    outer loop
      vertex 7 -2.5 6
      vertex 7.01564 -2.49352 -3
      vertex 7 -2.5 -3
    endloop
  endfacet
  facet normal 0.92388 0.382682 0
    outer loop
      vertex 5.23223 -1.76777 6
      vertex 4.5 0 -3
      vertex 4.5 0 6
    endloop
  endfacet
  facet normal 0.92388 0.382682 0
    outer loop
      vertex 4.5 0 -3
      vertex 5.23223 -1.76777 6
      vertex 5.23223 -1.76777 -3
    endloop
  endfacet
  facet normal 0.923879 0.382685 0
    outer loop
      vertex 6.49519 3.75 6
      vertex 7.01296 2.5 0
      vertex 6.49519 3.75 0
    endloop
  endfacet
  facet normal 0.92388 0.382683 6.31077e-07
    outer loop
      vertex 7.01564 2.49352 6
      vertex 7.01296 2.5 0
      vertex 6.49519 3.75 6
    endloop
  endfacet
  facet normal 0.924086 0.382184 -0
    outer loop
      vertex 7.01564 2.49352 -3
      vertex 7.01296 2.5 0
      vertex 7.01564 2.49352 6
    endloop
  endfacet
  facet normal 0.924086 0.382184 0
    outer loop
      vertex 7.01296 2.5 0
      vertex 7.01564 2.49352 -3
      vertex 7.01296 2.5 -3
    endloop
  endfacet
  facet normal -0.923884 0.382673 0
    outer loop
      vertex -7.24444 1.94114 -3
      vertex -7.01296 2.5 0
      vertex -7.01296 2.5 -3
    endloop
  endfacet
  facet normal -0.923884 0.382673 0
    outer loop
      vertex -7.24444 1.94114 5
      vertex -7.01296 2.5 0
      vertex -7.24444 1.94114 -3
    endloop
  endfacet
  facet normal -0.923894 0.382649 -3.20222e-06
    outer loop
      vertex -7.01296 2.5 0
      vertex -7.24444 1.94114 5
      vertex -7.15751 2.15103 5
    endloop
  endfacet
  facet normal -0.923879 0.382685 -1.92625e-07
    outer loop
      vertex -7.15751 2.15103 5
      vertex -6.49519 3.75 0
      vertex -7.01296 2.5 0
    endloop
  endfacet
  facet normal -0.923879 0.382686 0
    outer loop
      vertex -6.49519 3.75 0
      vertex -7.15751 2.15103 5
      vertex -6.49519 3.75 6
    endloop
  endfacet
  facet normal -0.923879 0.382686 0
    outer loop
      vertex -6.49519 3.75 6
      vertex -7.15751 2.15103 5
      vertex -7.15751 2.15103 6
    endloop
  endfacet
  facet normal -0.991445 0.130526 0
    outer loop
      vertex -7.34659 1.16523 -3
      vertex -7.24444 1.94114 5
      vertex -7.24444 1.94114 -3
    endloop
  endfacet
  facet normal -0.991445 0.130526 0
    outer loop
      vertex -7.24444 1.94114 5
      vertex -7.34659 1.16523 -3
      vertex -7.34659 1.16523 5
    endloop
  endfacet
  facet normal 0.924086 -0.382184 0
    outer loop
      vertex 7.01564 -2.49352 6
      vertex 7.01296 -2.5 0
      vertex 7.01564 -2.49352 -3
    endloop
  endfacet
  facet normal 0.92388 -0.382683 6.31077e-07
    outer loop
      vertex 6.49519 -3.75 6
      vertex 7.01296 -2.5 0
      vertex 7.01564 -2.49352 6
    endloop
  endfacet
  facet normal 0.923879 -0.382685 0
    outer loop
      vertex 7.01296 -2.5 0
      vertex 6.49519 -3.75 6
      vertex 6.49519 -3.75 0
    endloop
  endfacet
  facet normal 0.924086 -0.382184 0
    outer loop
      vertex 7.01564 -2.49352 -3
      vertex 7.01296 -2.5 0
      vertex 7.01296 -2.5 -3
    endloop
  endfacet
  facet normal -0.923884 -0.382673 0
    outer loop
      vertex -7.01296 -2.5 0
      vertex -7.24444 -1.94114 5
      vertex -7.24444 -1.94114 -3
    endloop
  endfacet
  facet normal -0.923884 -0.382673 -0
    outer loop
      vertex -7.01296 -2.5 0
      vertex -7.24444 -1.94114 -3
      vertex -7.01296 -2.5 -3
    endloop
  endfacet
  facet normal -0.923894 -0.382649 -3.20222e-06
    outer loop
      vertex -7.24444 -1.94114 5
      vertex -7.01296 -2.5 0
      vertex -7.15751 -2.15103 5
    endloop
  endfacet
  facet normal -0.923879 -0.382685 -1.92625e-07
    outer loop
      vertex -6.49519 -3.75 0
      vertex -7.15751 -2.15103 5
      vertex -7.01296 -2.5 0
    endloop
  endfacet
  facet normal -0.923879 -0.382686 0
    outer loop
      vertex -7.15751 -2.15103 5
      vertex -6.49519 -3.75 0
      vertex -6.49519 -3.75 6
    endloop
  endfacet
  facet normal -0.923879 -0.382686 0
    outer loop
      vertex -7.15751 -2.15103 5
      vertex -6.49519 -3.75 6
      vertex -7.15751 -2.15103 6
    endloop
  endfacet
  facet normal -0.991445 -0.130526 0
    outer loop
      vertex -7.24444 -1.94114 -3
      vertex -7.34659 -1.16523 5
      vertex -7.34659 -1.16523 -3
    endloop
  endfacet
  facet normal -0.991445 -0.130526 0
    outer loop
      vertex -7.34659 -1.16523 5
      vertex -7.24444 -1.94114 -3
      vertex -7.24444 -1.94114 5
    endloop
  endfacet
  facet normal 0.92388 0.382682 0
    outer loop
      vertex -1.76777 -1.76777 6
      vertex -2.5 0 -3
      vertex -2.5 0 6
    endloop
  endfacet
  facet normal 0.92388 0.382682 0
    outer loop
      vertex -2.5 0 -3
      vertex -1.76777 -1.76777 6
      vertex -1.76777 -1.76777 -3
    endloop
  endfacet
  facet normal -0.382682 -0.92388 0
    outer loop
      vertex 0 2.5 -3
      vertex 1.76777 1.76777 6
      vertex 0 2.5 6
    endloop
  endfacet
  facet normal -0.382682 -0.92388 -0
    outer loop
      vertex 1.76777 1.76777 6
      vertex 0 2.5 -3
      vertex 1.76777 1.76777 -3
    endloop
  endfacet
  facet normal -0.92388 -0.382682 0
    outer loop
      vertex 2.5 0 -3
      vertex 1.76777 1.76777 6
      vertex 1.76777 1.76777 -3
    endloop
  endfacet
  facet normal -0.92388 -0.382682 0
    outer loop
      vertex 1.76777 1.76777 6
      vertex 2.5 0 -3
      vertex 2.5 0 6
    endloop
  endfacet
  facet normal -0.92388 0.382682 0
    outer loop
      vertex 1.76777 -1.76777 -3
      vertex 2.5 0 6
      vertex 2.5 0 -3
    endloop
  endfacet
  facet normal -0.92388 0.382682 0
    outer loop
      vertex 2.5 0 6
      vertex 1.76777 -1.76777 -3
      vertex 1.76777 -1.76777 6
    endloop
  endfacet
  facet normal 0.382682 0.92388 -0
    outer loop
      vertex 0 -2.5 -3
      vertex -1.76777 -1.76777 6
      vertex 0 -2.5 6
    endloop
  endfacet
  facet normal 0.382682 0.92388 0
    outer loop
      vertex -1.76777 -1.76777 6
      vertex 0 -2.5 -3
      vertex -1.76777 -1.76777 -3
    endloop
  endfacet
  facet normal 0.92388 -0.382682 0
    outer loop
      vertex -2.5 0 6
      vertex -1.76777 1.76777 -3
      vertex -1.76777 1.76777 6
    endloop
  endfacet
  facet normal 0.92388 -0.382682 0
    outer loop
      vertex -1.76777 1.76777 -3
      vertex -2.5 0 6
      vertex -2.5 0 -3
    endloop
  endfacet
  facet normal -0.382682 0.92388 0
    outer loop
      vertex 1.76777 -1.76777 -3
      vertex 0 -2.5 6
      vertex 1.76777 -1.76777 6
    endloop
  endfacet
  facet normal -0.382682 0.92388 0
    outer loop
      vertex 0 -2.5 6
      vertex 1.76777 -1.76777 -3
      vertex 0 -2.5 -3
    endloop
  endfacet
  facet normal 0.382682 -0.92388 0
    outer loop
      vertex -1.76777 1.76777 -3
      vertex 0 2.5 6
      vertex -1.76777 1.76777 6
    endloop
  endfacet
  facet normal 0.382682 -0.92388 0
    outer loop
      vertex 0 2.5 6
      vertex -1.76777 1.76777 -3
      vertex 0 2.5 -3
    endloop
  endfacet
  facet normal 0.608765 0.793351 -0
    outer loop
      vertex -4.14705 3.64736 0
      vertex -5.66506 4.81218 6
      vertex -4.14705 3.64736 6
    endloop
  endfacet
  facet normal 0.608765 0.793351 0
    outer loop
      vertex -5.66506 4.81218 6
      vertex -4.14705 3.64736 0
      vertex -5.66506 4.81218 0
    endloop
  endfacet
  facet normal -0.608568 -0.793502 0
    outer loop
      vertex -1.34837 7.32248 0
      vertex -1.33494 7.31218 6
      vertex -1.34837 7.32248 6
    endloop
  endfacet
  facet normal -0.608568 -0.793502 -0
    outer loop
      vertex -1.33494 7.31218 6
      vertex -1.34837 7.32248 0
      vertex -1.33494 7.31218 0
    endloop
  endfacet
  facet normal -0.130525 0.991445 0
    outer loop
      vertex -2.25 3.89711 0
      vertex -4.14705 3.64736 6
      vertex -2.25 3.89711 6
    endloop
  endfacet
  facet normal -0.130525 0.991445 0
    outer loop
      vertex -4.14705 3.64736 6
      vertex -2.25 3.89711 0
      vertex -4.14705 3.64736 0
    endloop
  endfacet
  facet normal -0.991445 -0.130525 0
    outer loop
      vertex -1.08519 5.41513 0
      vertex -1.33494 7.31218 6
      vertex -1.33494 7.31218 0
    endloop
  endfacet
  facet normal -0.991445 -0.130525 0
    outer loop
      vertex -1.33494 7.31218 6
      vertex -1.08519 5.41513 0
      vertex -1.08519 5.41513 6
    endloop
  endfacet
  facet normal 0.991438 0.130577 0
    outer loop
      vertex -5.66506 4.81218 6
      vertex -5.66727 4.82896 0
      vertex -5.66727 4.82896 6
    endloop
  endfacet
  facet normal 0.991438 0.130577 0
    outer loop
      vertex -5.66727 4.82896 0
      vertex -5.66506 4.81218 6
      vertex -5.66506 4.81218 0
    endloop
  endfacet
  facet normal -0.793355 0.608759 0
    outer loop
      vertex -2.25 3.89711 0
      vertex -1.08519 5.41513 6
      vertex -1.08519 5.41513 0
    endloop
  endfacet
  facet normal -0.793355 0.608759 0
    outer loop
      vertex -1.08519 5.41513 6
      vertex -2.25 3.89711 0
      vertex -2.25 3.89711 6
    endloop
  endfacet
  facet normal -0.991445 0.130525 0
    outer loop
      vertex -1.33494 -7.31218 0
      vertex -1.08519 -5.41513 6
      vertex -1.08519 -5.41513 0
    endloop
  endfacet
  facet normal -0.991445 0.130525 0
    outer loop
      vertex -1.08519 -5.41513 6
      vertex -1.33494 -7.31218 0
      vertex -1.33494 -7.31218 6
    endloop
  endfacet
  facet normal 0.991438 -0.130577 0
    outer loop
      vertex -5.66727 -4.82896 6
      vertex -5.66506 -4.81218 0
      vertex -5.66506 -4.81218 6
    endloop
  endfacet
  facet normal 0.991438 -0.130577 0
    outer loop
      vertex -5.66506 -4.81218 0
      vertex -5.66727 -4.82896 6
      vertex -5.66727 -4.82896 0
    endloop
  endfacet
  facet normal -0.793355 -0.608759 0
    outer loop
      vertex -1.08519 -5.41513 0
      vertex -2.25 -3.89711 6
      vertex -2.25 -3.89711 0
    endloop
  endfacet
  facet normal -0.793355 -0.608759 0
    outer loop
      vertex -2.25 -3.89711 6
      vertex -1.08519 -5.41513 0
      vertex -1.08519 -5.41513 6
    endloop
  endfacet
  facet normal 0.608765 -0.793351 0
    outer loop
      vertex -5.66506 -4.81218 0
      vertex -4.14705 -3.64736 6
      vertex -5.66506 -4.81218 6
    endloop
  endfacet
  facet normal 0.608765 -0.793351 0
    outer loop
      vertex -4.14705 -3.64736 6
      vertex -5.66506 -4.81218 0
      vertex -4.14705 -3.64736 0
    endloop
  endfacet
  facet normal -0.608568 0.793502 0
    outer loop
      vertex -1.33494 -7.31218 0
      vertex -1.34837 -7.32248 6
      vertex -1.33494 -7.31218 6
    endloop
  endfacet
  facet normal -0.608568 0.793502 0
    outer loop
      vertex -1.34837 -7.32248 6
      vertex -1.33494 -7.31218 0
      vertex -1.34837 -7.32248 0
    endloop
  endfacet
  facet normal -0.130525 -0.991445 0
    outer loop
      vertex -4.14705 -3.64736 0
      vertex -2.25 -3.89711 6
      vertex -4.14705 -3.64736 6
    endloop
  endfacet
  facet normal -0.130525 -0.991445 -0
    outer loop
      vertex -2.25 -3.89711 6
      vertex -4.14705 -3.64736 0
      vertex -2.25 -3.89711 0
    endloop
  endfacet
  facet normal 0.793353 0.608762 0
    outer loop
      vertex 6.49519 3.75 6
      vertex 5.3033 5.3033 0
      vertex 5.3033 5.3033 6
    endloop
  endfacet
  facet normal 0.793353 0.608762 0
    outer loop
      vertex 5.3033 5.3033 0
      vertex 6.49519 3.75 6
      vertex 6.49519 3.75 0
    endloop
  endfacet
  facet normal -0.793352 0.608764 0
    outer loop
      vertex -6.49519 3.75 0
      vertex -5.66727 4.82896 6
      vertex -5.66727 4.82896 0
    endloop
  endfacet
  facet normal -0.793352 0.608764 0
    outer loop
      vertex -5.66727 4.82896 6
      vertex -6.49519 3.75 0
      vertex -6.49519 3.75 6
    endloop
  endfacet
  facet normal 0.382682 -0.92388 0
    outer loop
      vertex 1.94114 -7.24444 0
      vertex 3.75 -6.49519 6
      vertex 1.94114 -7.24444 6
    endloop
  endfacet
  facet normal 0.382682 -0.92388 0
    outer loop
      vertex 3.75 -6.49519 6
      vertex 1.94114 -7.24444 0
      vertex 3.75 -6.49519 0
    endloop
  endfacet
  facet normal 0.608762 0.793353 -0
    outer loop
      vertex 5.3033 5.3033 0
      vertex 3.75 6.49519 6
      vertex 5.3033 5.3033 6
    endloop
  endfacet
  facet normal 0.608762 0.793353 0
    outer loop
      vertex 3.75 6.49519 6
      vertex 5.3033 5.3033 0
      vertex 3.75 6.49519 0
    endloop
  endfacet
  facet normal 0.130528 0.991445 -0
    outer loop
      vertex 1.94114 7.24444 0
      vertex 0 7.5 6
      vertex 1.94114 7.24444 6
    endloop
  endfacet
  facet normal 0.130528 0.991445 0
    outer loop
      vertex 0 7.5 6
      vertex 1.94114 7.24444 0
      vertex 0 7.5 0
    endloop
  endfacet
  facet normal 0.130528 -0.991445 0
    outer loop
      vertex 0 -7.5 0
      vertex 1.94114 -7.24444 6
      vertex 0 -7.5 6
    endloop
  endfacet
  facet normal 0.130528 -0.991445 0
    outer loop
      vertex 1.94114 -7.24444 6
      vertex 0 -7.5 0
      vertex 1.94114 -7.24444 0
    endloop
  endfacet
  facet normal 0.793353 -0.608762 0
    outer loop
      vertex 5.3033 -5.3033 6
      vertex 6.49519 -3.75 0
      vertex 6.49519 -3.75 6
    endloop
  endfacet
  facet normal 0.793353 -0.608762 0
    outer loop
      vertex 6.49519 -3.75 0
      vertex 5.3033 -5.3033 6
      vertex 5.3033 -5.3033 0
    endloop
  endfacet
  facet normal 0.608762 -0.793353 0
    outer loop
      vertex 3.75 -6.49519 0
      vertex 5.3033 -5.3033 6
      vertex 3.75 -6.49519 6
    endloop
  endfacet
  facet normal 0.608762 -0.793353 0
    outer loop
      vertex 5.3033 -5.3033 6
      vertex 3.75 -6.49519 0
      vertex 5.3033 -5.3033 0
    endloop
  endfacet
  facet normal -0.793352 -0.608764 0
    outer loop
      vertex -5.66727 -4.82896 0
      vertex -6.49519 -3.75 6
      vertex -6.49519 -3.75 0
    endloop
  endfacet
  facet normal -0.793352 -0.608764 0
    outer loop
      vertex -6.49519 -3.75 6
      vertex -5.66727 -4.82896 0
      vertex -5.66727 -4.82896 6
    endloop
  endfacet
  facet normal -0.130529 0.991445 0
    outer loop
      vertex 0 7.5 0
      vertex -1.34837 7.32248 6
      vertex 0 7.5 6
    endloop
  endfacet
  facet normal -0.130529 0.991445 0
    outer loop
      vertex -1.34837 7.32248 6
      vertex 0 7.5 0
      vertex -1.34837 7.32248 0
    endloop
  endfacet
  facet normal 0.382682 0.92388 -0
    outer loop
      vertex 3.75 6.49519 0
      vertex 1.94114 7.24444 6
      vertex 3.75 6.49519 6
    endloop
  endfacet
  facet normal 0.382682 0.92388 0
    outer loop
      vertex 1.94114 7.24444 6
      vertex 3.75 6.49519 0
      vertex 1.94114 7.24444 0
    endloop
  endfacet
  facet normal -0.130529 -0.991445 0
    outer loop
      vertex -1.34837 -7.32248 0
      vertex 0 -7.5 6
      vertex -1.34837 -7.32248 6
    endloop
  endfacet
  facet normal -0.130529 -0.991445 -0
    outer loop
      vertex 0 -7.5 6
      vertex -1.34837 -7.32248 0
      vertex 0 -7.5 0
    endloop
  endfacet
  facet normal 0 0 1
    outer loop
      vertex 6.49519 3.75 6
      vertex 7 2.5 6
      vertex 7.01564 2.49352 6
    endloop
  endfacet
  facet normal 0 0 1
    outer loop
      vertex 5.23223 1.76777 6
      vertex 6.49519 3.75 6
      vertex 5.3033 5.3033 6
    endloop
  endfacet
  facet normal 0 0 1
    outer loop
      vertex 6.49519 3.75 6
      vertex 5.23223 1.76777 6
      vertex 7 2.5 6
    endloop
  endfacet
  facet normal 0 0 1
    outer loop
      vertex 1.76777 1.76777 6
      vertex 5.23223 1.76777 6
      vertex 5.3033 5.3033 6
    endloop
  endfacet
  facet normal 0 0 1
    outer loop
      vertex 1.76777 1.76777 6
      vertex 5.3033 5.3033 6
      vertex 3.75 6.49519 6
    endloop
  endfacet
  facet normal -0 0 1
    outer loop
      vertex 7 -2.5 6
      vertex 6.49519 -3.75 6
      vertex 7.01564 -2.49352 6
    endloop
  endfacet
  facet normal 0 0 1
    outer loop
      vertex 5.23223 -1.76777 6
      vertex 6.49519 -3.75 6
      vertex 7 -2.5 6
    endloop
  endfacet
  facet normal 0 0 1
    outer loop
      vertex 6.49519 -3.75 6
      vertex 5.23223 -1.76777 6
      vertex 5.3033 -5.3033 6
    endloop
  endfacet
  facet normal 0 0 1
    outer loop
      vertex 1.76777 -1.76777 6
      vertex 5.23223 -1.76777 6
      vertex 4.5 0 6
    endloop
  endfacet
  facet normal 0 0 1
    outer loop
      vertex 5.23223 -1.76777 6
      vertex 1.76777 -1.76777 6
      vertex 5.3033 -5.3033 6
    endloop
  endfacet
  facet normal 0 0 1
    outer loop
      vertex 5.23223 1.76777 6
      vertex 1.76777 1.76777 6
      vertex 4.5 0 6
    endloop
  endfacet
  facet normal 0 0 1
    outer loop
      vertex 1.76777 -1.76777 6
      vertex 4.5 0 6
      vertex 2.5 0 6
    endloop
  endfacet
  facet normal 0 0 1
    outer loop
      vertex 1.76777 1.76777 6
      vertex 3.75 6.49519 6
      vertex 1.94114 7.24444 6
    endloop
  endfacet
  facet normal 0 0 1
    outer loop
      vertex 4.5 0 6
      vertex 1.76777 1.76777 6
      vertex 2.5 0 6
    endloop
  endfacet
  facet normal 0 0 1
    outer loop
      vertex -1.08519 5.41513 6
      vertex 1.94114 7.24444 6
      vertex 0 7.5 6
    endloop
  endfacet
  facet normal 0 -0 1
    outer loop
      vertex 0 2.5 6
      vertex 1.94114 7.24444 6
      vertex -1.08519 5.41513 6
    endloop
  endfacet
  facet normal 0 0 1
    outer loop
      vertex 1.94114 7.24444 6
      vertex 0 2.5 6
      vertex 1.76777 1.76777 6
    endloop
  endfacet
  facet normal 0 0 1
    outer loop
      vertex 0 7.5 6
      vertex -1.33494 7.31218 6
      vertex -1.08519 5.41513 6
    endloop
  endfacet
  facet normal 0 -0 1
    outer loop
      vertex -1.33494 7.31218 6
      vertex 0 7.5 6
      vertex -1.34837 7.32248 6
    endloop
  endfacet
  facet normal -0 0 1
    outer loop
      vertex -6.23223 -1.76777 6
      vertex -4.14705 -3.64736 6
      vertex -5.5 0 6
    endloop
  endfacet
  facet normal 0 0 1
    outer loop
      vertex -6.49519 -3.75 6
      vertex -4.14705 -3.64736 6
      vertex -6.23223 -1.76777 6
    endloop
  endfacet
  facet normal 0 0 1
    outer loop
      vertex -4.14705 -3.64736 6
      vertex -6.49519 -3.75 6
      vertex -5.66506 -4.81218 6
    endloop
  endfacet
  facet normal 0 0 1
    outer loop
      vertex -5.66506 -4.81218 6
      vertex -6.49519 -3.75 6
      vertex -5.66727 -4.82896 6
    endloop
  endfacet
  facet normal 0 -0 1
    outer loop
      vertex -6.49519 -3.75 6
      vertex -6.23223 -1.76777 6
      vertex -7.15751 -2.15103 6
    endloop
  endfacet
  facet normal 0 0 1
    outer loop
      vertex 5.3033 -5.3033 6
      vertex 1.76777 -1.76777 6
      vertex 3.75 -6.49519 6
    endloop
  endfacet
  facet normal 0 0 1
    outer loop
      vertex 3.75 -6.49519 6
      vertex 1.76777 -1.76777 6
      vertex 1.94114 -7.24444 6
    endloop
  endfacet
  facet normal -0 0 1
    outer loop
      vertex 0 -2.5 6
      vertex 1.94114 -7.24444 6
      vertex 1.76777 -1.76777 6
    endloop
  endfacet
  facet normal -0 0 1
    outer loop
      vertex -1.08519 -5.41513 6
      vertex 1.94114 -7.24444 6
      vertex 0 -2.5 6
    endloop
  endfacet
  facet normal 0 0 1
    outer loop
      vertex 1.94114 -7.24444 6
      vertex -1.08519 -5.41513 6
      vertex 0 -7.5 6
    endloop
  endfacet
  facet normal 0 0 1
    outer loop
      vertex -2.25 -3.89711 6
      vertex 0 -2.5 6
      vertex -1.76777 -1.76777 6
    endloop
  endfacet
  facet normal 0 0 1
    outer loop
      vertex 0 -2.5 6
      vertex -2.25 -3.89711 6
      vertex -1.08519 -5.41513 6
    endloop
  endfacet
  facet normal 0 0 1
    outer loop
      vertex -4.14705 -3.64736 6
      vertex -1.76777 -1.76777 6
      vertex -2.5 0 6
    endloop
  endfacet
  facet normal 0 0 1
    outer loop
      vertex -5.5 0 6
      vertex -2.5 0 6
      vertex -4.14705 3.64736 6
    endloop
  endfacet
  facet normal 0 -0 1
    outer loop
      vertex -4.14705 -3.64736 6
      vertex -2.5 0 6
      vertex -5.5 0 6
    endloop
  endfacet
  facet normal 0 0 1
    outer loop
      vertex -1.76777 -1.76777 6
      vertex -4.14705 -3.64736 6
      vertex -2.25 -3.89711 6
    endloop
  endfacet
  facet normal -0 0 1
    outer loop
      vertex -6.49519 3.75 6
      vertex -4.14705 3.64736 6
      vertex -5.66506 4.81218 6
    endloop
  endfacet
  facet normal 0 0 1
    outer loop
      vertex -6.49519 3.75 6
      vertex -5.66506 4.81218 6
      vertex -5.66727 4.82896 6
    endloop
  endfacet
  facet normal 0 0 1
    outer loop
      vertex -4.14705 3.64736 6
      vertex -6.23223 1.76777 6
      vertex -5.5 0 6
    endloop
  endfacet
  facet normal 0 0 1
    outer loop
      vertex -4.14705 3.64736 6
      vertex -6.49519 3.75 6
      vertex -6.23223 1.76777 6
    endloop
  endfacet
  facet normal 0 0 1
    outer loop
      vertex -6.23223 1.76777 6
      vertex -6.49519 3.75 6
      vertex -7.15751 2.15103 6
    endloop
  endfacet
  facet normal -0 0 1
    outer loop
      vertex -2.25 3.89711 6
      vertex 0 2.5 6
      vertex -1.08519 5.41513 6
    endloop
  endfacet
  facet normal 0 0 1
    outer loop
      vertex 0 2.5 6
      vertex -2.25 3.89711 6
      vertex -1.76777 1.76777 6
    endloop
  endfacet
  facet normal -0 0 1
    outer loop
      vertex -4.14705 3.64736 6
      vertex -1.76777 1.76777 6
      vertex -2.25 3.89711 6
    endloop
  endfacet
  facet normal 0 0 1
    outer loop
      vertex -1.76777 1.76777 6
      vertex -4.14705 3.64736 6
      vertex -2.5 0 6
    endloop
  endfacet
  facet normal -0 0 1
    outer loop
      vertex -1.33494 -7.31218 6
      vertex 0 -7.5 6
      vertex -1.08519 -5.41513 6
    endloop
  endfacet
  facet normal 0 0 1
    outer loop
      vertex 0 -7.5 6
      vertex -1.33494 -7.31218 6
      vertex -1.34837 -7.32248 6
    endloop
  endfacet
  facet normal -0.309016 -0.951057 0
    outer loop
      vertex -9.21352 -0.881678 10
      vertex -7.53648 -1.42658 11
      vertex -9.21352 -0.881678 11
    endloop
  endfacet
  facet normal -0.309016 -0.951057 -0
    outer loop
      vertex -7.53648 -1.42658 11
      vertex -9.21352 -0.881678 10
      vertex -7.53648 -1.42658 10
    endloop
  endfacet
  facet normal -0.309016 -0.951057 0
    outer loop
      vertex -9.21352 -0.881678 7
      vertex -7.53648 -1.42658 8
      vertex -9.21352 -0.881678 8
    endloop
  endfacet
  facet normal -0.309016 -0.951057 -0
    outer loop
      vertex -7.53648 -1.42658 8
      vertex -9.21352 -0.881678 7
      vertex -7.53648 -1.42658 7
    endloop
  endfacet
  facet normal -0.309016 -0.951057 0
    outer loop
      vertex -9.21352 -0.881678 -3
      vertex -7.53648 -1.42658 5
      vertex -9.21352 -0.881678 5
    endloop
  endfacet
  facet normal -0.309016 -0.951057 -0
    outer loop
      vertex -7.53648 -1.42658 5
      vertex -9.21352 -0.881678 -3
      vertex -7.53648 -1.42658 -3
    endloop
  endfacet
  facet normal -0.309016 0.951057 0
    outer loop
      vertex -7.53648 1.42658 10
      vertex -9.21352 0.881678 11
      vertex -7.53648 1.42658 11
    endloop
  endfacet
  facet normal -0.309016 0.951057 0
    outer loop
      vertex -9.21352 0.881678 11
      vertex -7.53648 1.42658 10
      vertex -9.21352 0.881678 10
    endloop
  endfacet
  facet normal -0.309016 0.951057 0
    outer loop
      vertex -7.53648 1.42658 7
      vertex -9.21352 0.881678 8
      vertex -7.53648 1.42658 8
    endloop
  endfacet
  facet normal -0.309016 0.951057 0
    outer loop
      vertex -9.21352 0.881678 8
      vertex -7.53648 1.42658 7
      vertex -9.21352 0.881678 7
    endloop
  endfacet
  facet normal -0.309016 0.951057 0
    outer loop
      vertex -7.53648 1.42658 -3
      vertex -9.21352 0.881678 5
      vertex -7.53648 1.42658 5
    endloop
  endfacet
  facet normal -0.309016 0.951057 0
    outer loop
      vertex -9.21352 0.881678 5
      vertex -7.53648 1.42658 -3
      vertex -9.21352 0.881678 -3
    endloop
  endfacet
  facet normal 0.809015 0.587789 0
    outer loop
      vertex -6.5 0 11
      vertex -7.53648 1.42658 10
      vertex -7.53648 1.42658 11
    endloop
  endfacet
  facet normal 0.809015 0.587789 0
    outer loop
      vertex -7.53648 1.42658 10
      vertex -6.5 0 11
      vertex -6.5 0 10
    endloop
  endfacet
  facet normal 0.809015 0.587789 0
    outer loop
      vertex -6.5 0 8
      vertex -7.53648 1.42658 7
      vertex -7.53648 1.42658 8
    endloop
  endfacet
  facet normal 0.809015 0.587789 0
    outer loop
      vertex -7.53648 1.42658 7
      vertex -6.5 0 8
      vertex -6.5 0 7
    endloop
  endfacet
  facet normal 0.809005 0.587802 0
    outer loop
      vertex -7.34659 1.16523 5
      vertex -7.53648 1.42658 -3
      vertex -7.53648 1.42658 5
    endloop
  endfacet
  facet normal 0.809005 0.587802 0
    outer loop
      vertex -7.53648 1.42658 -3
      vertex -7.34659 1.16523 5
      vertex -7.34659 1.16523 -3
    endloop
  endfacet
  facet normal -1 0 0
    outer loop
      vertex -9.21352 -0.881678 10
      vertex -9.21352 0.881678 11
      vertex -9.21352 0.881678 10
    endloop
  endfacet
  facet normal -1 -0 0
    outer loop
      vertex -9.21352 0.881678 11
      vertex -9.21352 -0.881678 10
      vertex -9.21352 -0.881678 11
    endloop
  endfacet
  facet normal -1 0 0
    outer loop
      vertex -9.21352 -0.881678 7
      vertex -9.21352 0.881678 8
      vertex -9.21352 0.881678 7
    endloop
  endfacet
  facet normal -1 -0 0
    outer loop
      vertex -9.21352 0.881678 8
      vertex -9.21352 -0.881678 7
      vertex -9.21352 -0.881678 8
    endloop
  endfacet
  facet normal -1 0 0
    outer loop
      vertex -9.21352 -0.881678 -3
      vertex -9.21352 0.881678 5
      vertex -9.21352 0.881678 -3
    endloop
  endfacet
  facet normal -1 -0 0
    outer loop
      vertex -9.21352 0.881678 5
      vertex -9.21352 -0.881678 -3
      vertex -9.21352 -0.881678 5
    endloop
  endfacet
  facet normal 0 0 -1
    outer loop
      vertex -7.24444 -1.94114 5
      vertex -7.53648 -1.42658 5
      vertex -7.34659 -1.16523 5
    endloop
  endfacet
  facet normal 0 0 -1
    outer loop
      vertex -8 -2.5 5
      vertex -7.24444 -1.94114 5
      vertex -7.15751 -2.15103 5
    endloop
  endfacet
  facet normal -0 0 -1
    outer loop
      vertex -7.24444 -1.94114 5
      vertex -8 -2.5 5
      vertex -7.53648 -1.42658 5
    endloop
  endfacet
  facet normal 0 0 -1
    outer loop
      vertex -8 -2.5 5
      vertex -9.21352 -0.881678 5
      vertex -7.53648 -1.42658 5
    endloop
  endfacet
  facet normal 0 0 -1
    outer loop
      vertex -10.5 0 5
      vertex -9.21352 -0.881678 5
      vertex -9.76777 -1.76777 5
    endloop
  endfacet
  facet normal 0 0 -1
    outer loop
      vertex -9.76777 -1.76777 5
      vertex -9.21352 -0.881678 5
      vertex -8 -2.5 5
    endloop
  endfacet
  facet normal 0 0 -1
    outer loop
      vertex -7.53648 1.42658 5
      vertex -7.24444 1.94114 5
      vertex -7.34659 1.16523 5
    endloop
  endfacet
  facet normal 0 0 -1
    outer loop
      vertex -8 2.5 5
      vertex -7.24444 1.94114 5
      vertex -7.53648 1.42658 5
    endloop
  endfacet
  facet normal 0 0 -1
    outer loop
      vertex -7.24444 1.94114 5
      vertex -8 2.5 5
      vertex -7.15751 2.15103 5
    endloop
  endfacet
  facet normal 0 0 -1
    outer loop
      vertex -9.21352 0.881678 5
      vertex -8 2.5 5
      vertex -7.53648 1.42658 5
    endloop
  endfacet
  facet normal 0 0 -1
    outer loop
      vertex -9.21352 0.881678 5
      vertex -9.76777 1.76777 5
      vertex -8 2.5 5
    endloop
  endfacet
  facet normal 0 0 -1
    outer loop
      vertex -9.21352 -0.881678 5
      vertex -10.5 0 5
      vertex -9.21352 0.881678 5
    endloop
  endfacet
  facet normal -0 0 -1
    outer loop
      vertex -9.21352 0.881678 5
      vertex -10.5 0 5
      vertex -9.76777 1.76777 5
    endloop
  endfacet
  facet normal 0.809015 -0.587789 0
    outer loop
      vertex -7.53648 -1.42658 11
      vertex -6.5 0 10
      vertex -6.5 0 11
    endloop
  endfacet
  facet normal 0.809015 -0.587789 0
    outer loop
      vertex -6.5 0 10
      vertex -7.53648 -1.42658 11
      vertex -7.53648 -1.42658 10
    endloop
  endfacet
  facet normal 0.809015 -0.587789 0
    outer loop
      vertex -7.53648 -1.42658 8
      vertex -6.5 0 7
      vertex -6.5 0 8
    endloop
  endfacet
  facet normal 0.809015 -0.587789 0
    outer loop
      vertex -6.5 0 7
      vertex -7.53648 -1.42658 8
      vertex -7.53648 -1.42658 7
    endloop
  endfacet
  facet normal 0.809005 -0.587802 0
    outer loop
      vertex -7.53648 -1.42658 5
      vertex -7.34659 -1.16523 -3
      vertex -7.34659 -1.16523 5
    endloop
  endfacet
  facet normal 0.809005 -0.587802 0
    outer loop
      vertex -7.34659 -1.16523 -3
      vertex -7.53648 -1.42658 5
      vertex -7.53648 -1.42658 -3
    endloop
  endfacet
  facet normal -0.92388 -0.382682 0
    outer loop
      vertex -9.76777 -1.76777 5
      vertex -10.5 0 7
      vertex -10.5 0 5
    endloop
  endfacet
  facet normal -0.92388 -0.382682 0
    outer loop
      vertex -10.5 0 7
      vertex -9.76777 -1.76777 5
      vertex -9.76777 -1.76777 7
    endloop
  endfacet
  facet normal 0.38268 0.923881 0
    outer loop
      vertex -7.15751 2.15103 6
      vertex -6.23223 1.76777 7
      vertex -6.23223 1.76777 6
    endloop
  endfacet
  facet normal 0.382682 0.92388 -1.17287e-06
    outer loop
      vertex -6.23223 1.76777 7
      vertex -7.15751 2.15103 6
      vertex -8 2.5 7
    endloop
  endfacet
  facet normal 0.382683 0.92388 0
    outer loop
      vertex -8 2.5 5
      vertex -7.15751 2.15103 6
      vertex -7.15751 2.15103 5
    endloop
  endfacet
  facet normal 0.382683 0.92388 0
    outer loop
      vertex -7.15751 2.15103 6
      vertex -8 2.5 5
      vertex -8 2.5 7
    endloop
  endfacet
  facet normal 0.92388 0.382682 0
    outer loop
      vertex -5.5 0 7
      vertex -6.23223 1.76777 6
      vertex -6.23223 1.76777 7
    endloop
  endfacet
  facet normal 0.92388 0.382682 0
    outer loop
      vertex -6.23223 1.76777 6
      vertex -5.5 0 7
      vertex -5.5 0 6
    endloop
  endfacet
  facet normal 0.92388 -0.382682 0
    outer loop
      vertex -6.23223 -1.76777 7
      vertex -5.5 0 6
      vertex -5.5 0 7
    endloop
  endfacet
  facet normal 0.92388 -0.382682 0
    outer loop
      vertex -5.5 0 6
      vertex -6.23223 -1.76777 7
      vertex -6.23223 -1.76777 6
    endloop
  endfacet
  facet normal -0.382682 -0.92388 0
    outer loop
      vertex -9.76777 -1.76777 5
      vertex -8 -2.5 7
      vertex -9.76777 -1.76777 7
    endloop
  endfacet
  facet normal -0.382682 -0.92388 -0
    outer loop
      vertex -8 -2.5 7
      vertex -9.76777 -1.76777 5
      vertex -8 -2.5 5
    endloop
  endfacet
  facet normal -0.92388 0.382682 0
    outer loop
      vertex -10.5 0 5
      vertex -9.76777 1.76777 7
      vertex -9.76777 1.76777 5
    endloop
  endfacet
  facet normal -0.92388 0.382682 0
    outer loop
      vertex -9.76777 1.76777 7
      vertex -10.5 0 5
      vertex -10.5 0 7
    endloop
  endfacet
  facet normal 0.382682 -0.92388 -1.17287e-06
    outer loop
      vertex -8 -2.5 7
      vertex -7.15751 -2.15103 6
      vertex -6.23223 -1.76777 7
    endloop
  endfacet
  facet normal 0.382683 -0.92388 0
    outer loop
      vertex -8 -2.5 5
      vertex -7.15751 -2.15103 6
      vertex -8 -2.5 7
    endloop
  endfacet
  facet normal 0.382683 -0.92388 0
    outer loop
      vertex -7.15751 -2.15103 6
      vertex -8 -2.5 5
      vertex -7.15751 -2.15103 5
    endloop
  endfacet
  facet normal 0.38268 -0.923881 0
    outer loop
      vertex -6.23223 -1.76777 7
      vertex -7.15751 -2.15103 6
      vertex -6.23223 -1.76777 6
    endloop
  endfacet
  facet normal 0 0 1
    outer loop
      vertex -6.5 0 7
      vertex -5.5 0 7
      vertex -6.23223 1.76777 7
    endloop
  endfacet
  facet normal 0 0 1
    outer loop
      vertex -5.5 0 7
      vertex -6.5 0 7
      vertex -6.23223 -1.76777 7
    endloop
  endfacet
  facet normal 0 0 1
    outer loop
      vertex -6.23223 1.76777 7
      vertex -7.53648 1.42658 7
      vertex -6.5 0 7
    endloop
  endfacet
  facet normal 0 0 1
    outer loop
      vertex -8 2.5 7
      vertex -7.53648 1.42658 7
      vertex -6.23223 1.76777 7
    endloop
  endfacet
  facet normal 0 0 1
    outer loop
      vertex -8 2.5 7
      vertex -9.21352 0.881678 7
      vertex -7.53648 1.42658 7
    endloop
  endfacet
  facet normal 0 0 1
    outer loop
      vertex -10.5 0 7
      vertex -9.21352 0.881678 7
      vertex -9.76777 1.76777 7
    endloop
  endfacet
  facet normal -0 0 1
    outer loop
      vertex -9.76777 1.76777 7
      vertex -9.21352 0.881678 7
      vertex -8 2.5 7
    endloop
  endfacet
  facet normal -0 0 1
    outer loop
      vertex -7.53648 -1.42658 7
      vertex -6.23223 -1.76777 7
      vertex -6.5 0 7
    endloop
  endfacet
  facet normal 0 0 1
    outer loop
      vertex -7.53648 -1.42658 7
      vertex -8 -2.5 7
      vertex -6.23223 -1.76777 7
    endloop
  endfacet
  facet normal 0 0 1
    outer loop
      vertex -9.21352 -0.881678 7
      vertex -8 -2.5 7
      vertex -7.53648 -1.42658 7
    endloop
  endfacet
  facet normal 0 0 1
    outer loop
      vertex -9.21352 -0.881678 7
      vertex -9.76777 -1.76777 7
      vertex -8 -2.5 7
    endloop
  endfacet
  facet normal 0 0 1
    outer loop
      vertex -9.21352 0.881678 7
      vertex -10.5 0 7
      vertex -9.21352 -0.881678 7
    endloop
  endfacet
  facet normal 0 0 1
    outer loop
      vertex -9.21352 -0.881678 7
      vertex -10.5 0 7
      vertex -9.76777 -1.76777 7
    endloop
  endfacet
  facet normal -0.382682 0.92388 0
    outer loop
      vertex -8 2.5 5
      vertex -9.76777 1.76777 7
      vertex -8 2.5 7
    endloop
  endfacet
  facet normal -0.382682 0.92388 0
    outer loop
      vertex -9.76777 1.76777 7
      vertex -8 2.5 5
      vertex -9.76777 1.76777 5
    endloop
  endfacet
  facet normal 0 0 -1
    outer loop
      vertex -6.5 0 8
      vertex -5.5 0 8
      vertex -6.23223 -1.76777 8
    endloop
  endfacet
  facet normal 0 0 -1
    outer loop
      vertex -5.5 0 8
      vertex -6.5 0 8
      vertex -6.23223 1.76777 8
    endloop
  endfacet
  facet normal 0 0 -1
    outer loop
      vertex -6.23223 -1.76777 8
      vertex -7.53648 -1.42658 8
      vertex -6.5 0 8
    endloop
  endfacet
  facet normal 0 0 -1
    outer loop
      vertex -8 -2.5 8
      vertex -7.53648 -1.42658 8
      vertex -6.23223 -1.76777 8
    endloop
  endfacet
  facet normal 0 0 -1
    outer loop
      vertex -8 -2.5 8
      vertex -9.21352 -0.881678 8
      vertex -7.53648 -1.42658 8
    endloop
  endfacet
  facet normal 0 0 -1
    outer loop
      vertex -10.5 0 8
      vertex -9.21352 -0.881678 8
      vertex -9.76777 -1.76777 8
    endloop
  endfacet
  facet normal 0 0 -1
    outer loop
      vertex -9.76777 -1.76777 8
      vertex -9.21352 -0.881678 8
      vertex -8 -2.5 8
    endloop
  endfacet
  facet normal 0 0 -1
    outer loop
      vertex -7.53648 1.42658 8
      vertex -6.23223 1.76777 8
      vertex -6.5 0 8
    endloop
  endfacet
  facet normal 0 0 -1
    outer loop
      vertex -7.53648 1.42658 8
      vertex -8 2.5 8
      vertex -6.23223 1.76777 8
    endloop
  endfacet
  facet normal 0 0 -1
    outer loop
      vertex -9.21352 0.881678 8
      vertex -8 2.5 8
      vertex -7.53648 1.42658 8
    endloop
  endfacet
  facet normal 0 0 -1
    outer loop
      vertex -9.21352 0.881678 8
      vertex -9.76777 1.76777 8
      vertex -8 2.5 8
    endloop
  endfacet
  facet normal 0 0 -1
    outer loop
      vertex -9.21352 -0.881678 8
      vertex -10.5 0 8
      vertex -9.21352 0.881678 8
    endloop
  endfacet
  facet normal -0 0 -1
    outer loop
      vertex -9.21352 0.881678 8
      vertex -10.5 0 8
      vertex -9.76777 1.76777 8
    endloop
  endfacet
  facet normal -0.92388 -0.382682 0
    outer loop
      vertex -9.76777 -1.76777 8
      vertex -10.5 0 10
      vertex -10.5 0 8
    endloop
  endfacet
  facet normal -0.92388 -0.382682 0
    outer loop
      vertex -10.5 0 10
      vertex -9.76777 -1.76777 8
      vertex -9.76777 -1.76777 10
    endloop
  endfacet
  facet normal 0.382682 0.92388 -0
    outer loop
      vertex -6.23223 1.76777 8
      vertex -8 2.5 10
      vertex -6.23223 1.76777 10
    endloop
  endfacet
  facet normal 0.382682 0.92388 0
    outer loop
      vertex -8 2.5 10
      vertex -6.23223 1.76777 8
      vertex -8 2.5 8
    endloop
  endfacet
  facet normal 0.92388 0.382682 0
    outer loop
      vertex -5.5 0 10
      vertex -6.23223 1.76777 8
      vertex -6.23223 1.76777 10
    endloop
  endfacet
  facet normal 0.92388 0.382682 0
    outer loop
      vertex -6.23223 1.76777 8
      vertex -5.5 0 10
      vertex -5.5 0 8
    endloop
  endfacet
  facet normal 0.92388 -0.382682 0
    outer loop
      vertex -6.23223 -1.76777 10
      vertex -5.5 0 8
      vertex -5.5 0 10
    endloop
  endfacet
  facet normal 0.92388 -0.382682 0
    outer loop
      vertex -5.5 0 8
      vertex -6.23223 -1.76777 10
      vertex -6.23223 -1.76777 8
    endloop
  endfacet
  facet normal -0.382682 -0.92388 0
    outer loop
      vertex -9.76777 -1.76777 8
      vertex -8 -2.5 10
      vertex -9.76777 -1.76777 10
    endloop
  endfacet
  facet normal -0.382682 -0.92388 -0
    outer loop
      vertex -8 -2.5 10
      vertex -9.76777 -1.76777 8
      vertex -8 -2.5 8
    endloop
  endfacet
  facet normal -0.92388 0.382682 0
    outer loop
      vertex -10.5 0 8
      vertex -9.76777 1.76777 10
      vertex -9.76777 1.76777 8
    endloop
  endfacet
  facet normal -0.92388 0.382682 0
    outer loop
      vertex -9.76777 1.76777 10
      vertex -10.5 0 8
      vertex -10.5 0 10
    endloop
  endfacet
  facet normal 0.382682 -0.92388 0
    outer loop
      vertex -8 -2.5 8
      vertex -6.23223 -1.76777 10
      vertex -8 -2.5 10
    endloop
  endfacet
  facet normal 0.382682 -0.92388 0
    outer loop
      vertex -6.23223 -1.76777 10
      vertex -8 -2.5 8
      vertex -6.23223 -1.76777 8
    endloop
  endfacet
  facet normal 0 0 1
    outer loop
      vertex -6.5 0 10
      vertex -5.5 0 10
      vertex -6.23223 1.76777 10
    endloop
  endfacet
  facet normal 0 0 1
    outer loop
      vertex -5.5 0 10
      vertex -6.5 0 10
      vertex -6.23223 -1.76777 10
    endloop
  endfacet
  facet normal 0 0 1
    outer loop
      vertex -6.23223 1.76777 10
      vertex -7.53648 1.42658 10
      vertex -6.5 0 10
    endloop
  endfacet
  facet normal 0 0 1
    outer loop
      vertex -8 2.5 10
      vertex -7.53648 1.42658 10
      vertex -6.23223 1.76777 10
    endloop
  endfacet
  facet normal 0 0 1
    outer loop
      vertex -8 2.5 10
      vertex -9.21352 0.881678 10
      vertex -7.53648 1.42658 10
    endloop
  endfacet
  facet normal 0 0 1
    outer loop
      vertex -10.5 0 10
      vertex -9.21352 0.881678 10
      vertex -9.76777 1.76777 10
    endloop
  endfacet
  facet normal -0 0 1
    outer loop
      vertex -9.76777 1.76777 10
      vertex -9.21352 0.881678 10
      vertex -8 2.5 10
    endloop
  endfacet
  facet normal -0 0 1
    outer loop
      vertex -7.53648 -1.42658 10
      vertex -6.23223 -1.76777 10
      vertex -6.5 0 10
    endloop
  endfacet
  facet normal 0 0 1
    outer loop
      vertex -7.53648 -1.42658 10
      vertex -8 -2.5 10
      vertex -6.23223 -1.76777 10
    endloop
  endfacet
  facet normal 0 0 1
    outer loop
      vertex -9.21352 -0.881678 10
      vertex -8 -2.5 10
      vertex -7.53648 -1.42658 10
    endloop
  endfacet
  facet normal 0 0 1
    outer loop
      vertex -9.21352 -0.881678 10
      vertex -9.76777 -1.76777 10
      vertex -8 -2.5 10
    endloop
  endfacet
  facet normal 0 0 1
    outer loop
      vertex -9.21352 0.881678 10
      vertex -10.5 0 10
      vertex -9.21352 -0.881678 10
    endloop
  endfacet
  facet normal 0 0 1
    outer loop
      vertex -9.21352 -0.881678 10
      vertex -10.5 0 10
      vertex -9.76777 -1.76777 10
    endloop
  endfacet
  facet normal -0.382682 0.92388 0
    outer loop
      vertex -8 2.5 8
      vertex -9.76777 1.76777 10
      vertex -8 2.5 10
    endloop
  endfacet
  facet normal -0.382682 0.92388 0
    outer loop
      vertex -9.76777 1.76777 10
      vertex -8 2.5 8
      vertex -9.76777 1.76777 8
    endloop
  endfacet
  facet normal 0 0 -1
    outer loop
      vertex -6.5 0 11
      vertex -5.5 0 11
      vertex -6.23223 -1.76777 11
    endloop
  endfacet
  facet normal 0 0 -1
    outer loop
      vertex -5.5 0 11
      vertex -6.5 0 11
      vertex -6.23223 1.76777 11
    endloop
  endfacet
  facet normal 0 0 -1
    outer loop
      vertex -6.23223 -1.76777 11
      vertex -7.53648 -1.42658 11
      vertex -6.5 0 11
    endloop
  endfacet
  facet normal 0 0 -1
    outer loop
      vertex -8 -2.5 11
      vertex -7.53648 -1.42658 11
      vertex -6.23223 -1.76777 11
    endloop
  endfacet
  facet normal 0 0 -1
    outer loop
      vertex -8 -2.5 11
      vertex -9.21352 -0.881678 11
      vertex -7.53648 -1.42658 11
    endloop
  endfacet
  facet normal 0 0 -1
    outer loop
      vertex -10.5 0 11
      vertex -9.21352 -0.881678 11
      vertex -9.76777 -1.76777 11
    endloop
  endfacet
  facet normal 0 0 -1
    outer loop
      vertex -9.76777 -1.76777 11
      vertex -9.21352 -0.881678 11
      vertex -8 -2.5 11
    endloop
  endfacet
  facet normal 0 0 -1
    outer loop
      vertex -7.53648 1.42658 11
      vertex -6.23223 1.76777 11
      vertex -6.5 0 11
    endloop
  endfacet
  facet normal 0 0 -1
    outer loop
      vertex -7.53648 1.42658 11
      vertex -8 2.5 11
      vertex -6.23223 1.76777 11
    endloop
  endfacet
  facet normal 0 0 -1
    outer loop
      vertex -9.21352 0.881678 11
      vertex -8 2.5 11
      vertex -7.53648 1.42658 11
    endloop
  endfacet
  facet normal 0 0 -1
    outer loop
      vertex -9.21352 0.881678 11
      vertex -9.76777 1.76777 11
      vertex -8 2.5 11
    endloop
  endfacet
  facet normal 0 0 -1
    outer loop
      vertex -9.21352 -0.881678 11
      vertex -10.5 0 11
      vertex -9.21352 0.881678 11
    endloop
  endfacet
  facet normal -0 0 -1
    outer loop
      vertex -9.21352 0.881678 11
      vertex -10.5 0 11
      vertex -9.76777 1.76777 11
    endloop
  endfacet
  facet normal -0.92388 -0.382682 0
    outer loop
      vertex -9.76777 -1.76777 11
      vertex -10.5 0 13
      vertex -10.5 0 11
    endloop
  endfacet
  facet normal -0.92388 -0.382682 0
    outer loop
      vertex -10.5 0 13
      vertex -9.76777 -1.76777 11
      vertex -9.76777 -1.76777 13
    endloop
  endfacet
  facet normal 0.382682 0.92388 -0
    outer loop
      vertex -6.23223 1.76777 11
      vertex -8 2.5 13
      vertex -6.23223 1.76777 13
    endloop
  endfacet
  facet normal 0.382682 0.92388 0
    outer loop
      vertex -8 2.5 13
      vertex -6.23223 1.76777 11
      vertex -8 2.5 11
    endloop
  endfacet
  facet normal 0.92388 0.382682 0
    outer loop
      vertex -5.5 0 13
      vertex -6.23223 1.76777 11
      vertex -6.23223 1.76777 13
    endloop
  endfacet
  facet normal 0.92388 0.382682 0
    outer loop
      vertex -6.23223 1.76777 11
      vertex -5.5 0 13
      vertex -5.5 0 11
    endloop
  endfacet
  facet normal 0.92388 -0.382682 0
    outer loop
      vertex -6.23223 -1.76777 13
      vertex -5.5 0 11
      vertex -5.5 0 13
    endloop
  endfacet
  facet normal 0.92388 -0.382682 0
    outer loop
      vertex -5.5 0 11
      vertex -6.23223 -1.76777 13
      vertex -6.23223 -1.76777 11
    endloop
  endfacet
  facet normal -0.382682 -0.92388 0
    outer loop
      vertex -9.76777 -1.76777 11
      vertex -8 -2.5 13
      vertex -9.76777 -1.76777 13
    endloop
  endfacet
  facet normal -0.382682 -0.92388 -0
    outer loop
      vertex -8 -2.5 13
      vertex -9.76777 -1.76777 11
      vertex -8 -2.5 11
    endloop
  endfacet
  facet normal -0.92388 0.382682 0
    outer loop
      vertex -10.5 0 11
      vertex -9.76777 1.76777 13
      vertex -9.76777 1.76777 11
    endloop
  endfacet
  facet normal -0.92388 0.382682 0
    outer loop
      vertex -9.76777 1.76777 13
      vertex -10.5 0 11
      vertex -10.5 0 13
    endloop
  endfacet
  facet normal 0.382682 -0.92388 0
    outer loop
      vertex -8 -2.5 11
      vertex -6.23223 -1.76777 13
      vertex -8 -2.5 13
    endloop
  endfacet
  facet normal 0.382682 -0.92388 0
    outer loop
      vertex -6.23223 -1.76777 13
      vertex -8 -2.5 11
      vertex -6.23223 -1.76777 11
    endloop
  endfacet
  facet normal 0 0 1
    outer loop
      vertex -6.23223 1.76777 13
      vertex -6.23223 -1.76777 13
      vertex -5.5 0 13
    endloop
  endfacet
  facet normal 0 0 1
    outer loop
      vertex -8 2.5 13
      vertex -6.23223 -1.76777 13
      vertex -6.23223 1.76777 13
    endloop
  endfacet
  facet normal 0 0 1
    outer loop
      vertex -8 2.5 13
      vertex -8 -2.5 13
      vertex -6.23223 -1.76777 13
    endloop
  endfacet
  facet normal -0 0 1
    outer loop
      vertex -9.76777 1.76777 13
      vertex -8 -2.5 13
      vertex -8 2.5 13
    endloop
  endfacet
  facet normal 0 0 1
    outer loop
      vertex -9.76777 1.76777 13
      vertex -9.76777 -1.76777 13
      vertex -8 -2.5 13
    endloop
  endfacet
  facet normal 0 -0 1
    outer loop
      vertex -9.76777 -1.76777 13
      vertex -9.76777 1.76777 13
      vertex -10.5 0 13
    endloop
  endfacet
  facet normal -0.382682 0.92388 0
    outer loop
      vertex -8 2.5 11
      vertex -9.76777 1.76777 13
      vertex -8 2.5 13
    endloop
  endfacet
  facet normal -0.382682 0.92388 0
    outer loop
      vertex -9.76777 1.76777 13
      vertex -8 2.5 11
      vertex -9.76777 1.76777 11
    endloop
  endfacet
  facet normal -0.309015 -0.951057 0
    outer loop
      vertex 5.78647 -0.881678 -3
      vertex 7.46352 -1.42658 13
      vertex 5.78647 -0.881678 13
    endloop
  endfacet
  facet normal -0.309015 -0.951057 -0
    outer loop
      vertex 7.46352 -1.42658 13
      vertex 5.78647 -0.881678 -3
      vertex 7.46352 -1.42658 -3
    endloop
  endfacet
  facet normal -0.309015 0.951057 0
    outer loop
      vertex 7.46352 1.42658 -3
      vertex 5.78647 0.881678 13
      vertex 7.46352 1.42658 13
    endloop
  endfacet
  facet normal -0.309015 0.951057 0
    outer loop
      vertex 5.78647 0.881678 13
      vertex 7.46352 1.42658 -3
      vertex 5.78647 0.881678 -3
    endloop
  endfacet
  facet normal 0.809015 0.587789 0
    outer loop
      vertex 8.5 0 13
      vertex 7.46352 1.42658 -3
      vertex 7.46352 1.42658 13
    endloop
  endfacet
  facet normal 0.809015 0.587789 0
    outer loop
      vertex 7.46352 1.42658 -3
      vertex 8.5 0 13
      vertex 8.5 0 -3
    endloop
  endfacet
  facet normal -1 0 0
    outer loop
      vertex 5.78647 -0.881678 -3
      vertex 5.78647 0.881678 13
      vertex 5.78647 0.881678 -3
    endloop
  endfacet
  facet normal -1 -0 0
    outer loop
      vertex 5.78647 0.881678 13
      vertex 5.78647 -0.881678 -3
      vertex 5.78647 -0.881678 13
    endloop
  endfacet
  facet normal 0.809015 -0.587789 0
    outer loop
      vertex 7.46352 -1.42658 13
      vertex 8.5 0 -3
      vertex 8.5 0 13
    endloop
  endfacet
  facet normal 0.809015 -0.587789 0
    outer loop
      vertex 8.5 0 -3
      vertex 7.46352 -1.42658 13
      vertex 7.46352 -1.42658 -3
    endloop
  endfacet
  facet normal 0 0 -1
    outer loop
      vertex 7.46352 -1.42658 -3
      vertex 7.46352 1.42658 -3
      vertex 8.5 0 -3
    endloop
  endfacet
  facet normal 0 0 -1
    outer loop
      vertex 5.78647 -0.881678 -3
      vertex 7.46352 1.42658 -3
      vertex 7.46352 -1.42658 -3
    endloop
  endfacet
  facet normal 0 0 -1
    outer loop
      vertex 7.46352 1.42658 -3
      vertex 5.78647 -0.881678 -3
      vertex 5.78647 0.881678 -3
    endloop
  endfacet
  facet normal 0 0 1
    outer loop
      vertex 7.46352 1.42658 13
      vertex 7.46352 -1.42658 13
      vertex 8.5 0 13
    endloop
  endfacet
  facet normal -0 0 1
    outer loop
      vertex 5.78647 0.881678 13
      vertex 7.46352 -1.42658 13
      vertex 7.46352 1.42658 13
    endloop
  endfacet
  facet normal 0 0 1
    outer loop
      vertex 7.46352 -1.42658 13
      vertex 5.78647 0.881678 13
      vertex 5.78647 -0.881678 13
    endloop
  endfacet
endsolid OpenSCAD_Model
