solid OpenSCAD_Model
  facet normal 1 -0 0
    outer loop
      vertex 100 0 50
      vertex 100 50 0
      vertex 100 50 50
    endloop
  endfacet
  facet normal 1 0 0
    outer loop
      vertex 100 50 0
      vertex 100 0 50
      vertex 100 0 0
    endloop
  endfacet
  facet normal 0 0 -1
    outer loop
      vertex 0 0 0
      vertex 100 50 0
      vertex 100 0 0
    endloop
  endfacet
  facet normal -0 0 -1
    outer loop
      vertex 100 50 0
      vertex 0 0 0
      vertex 0 50 0
    endloop
  endfacet
  facet normal -1 0 0
    outer loop
      vertex 0 50 0
      vertex 0 30 50
      vertex 0 50 50
    endloop
  endfacet
  facet normal -1 0 0
    outer loop
      vertex 0 0 0
      vertex 0 30 50
      vertex 0 50 0
    endloop
  endfacet
  facet normal -1 0 0
    outer loop
      vertex 0 0 90
      vertex 0 30 50
      vertex 0 0 0
    endloop
  endfacet
  facet normal -1 0 0
    outer loop
      vertex 0 30 50
      vertex 0 0 90
      vertex 0 30 90
    endloop
  endfacet
  facet normal 0 1 -0
    outer loop
      vertex 100 50 0
      vertex 0 50 50
      vertex 100 50 50
    endloop
  endfacet
  facet normal 0 1 0
    outer loop
      vertex 0 50 50
      vertex 100 50 0
      vertex 0 50 0
    endloop
  endfacet
  facet normal 0 -1 0
    outer loop
      vertex 0 0 90
      vertex 90 0 50
      vertex 90 0 90
    endloop
  endfacet
  facet normal 0 -1 0
    outer loop
      vertex 0 0 0
      vertex 90 0 50
      vertex 0 0 90
    endloop
  endfacet
  facet normal 0 -1 0
    outer loop
      vertex 100 0 0
      vertex 90 0 50
      vertex 0 0 0
    endloop
  endfacet
  facet normal 0 -1 0
    outer loop
      vertex 90 0 50
      vertex 100 0 0
      vertex 100 0 50
    endloop
  endfacet
  facet normal 0 0 1
    outer loop
      vertex 100 50 50
      vertex 90 30 50
      vertex 100 0 50
    endloop
  endfacet
  facet normal -0 0 1
    outer loop
      vertex 0 50 50
      vertex 90 30 50
      vertex 100 50 50
    endloop
  endfacet
  facet normal 0 0 1
    outer loop
      vertex 90 30 50
      vertex 0 50 50
      vertex 0 30 50
    endloop
  endfacet
  facet normal 0 0 1
    outer loop
      vertex 100 0 50
      vertex 90 30 50
      vertex 90 0 50
    endloop
  endfacet
  facet normal -0 0 1
    outer loop
      vertex 0 30 90
      vertex 90 0 90
      vertex 90 30 90
    endloop
  endfacet
  facet normal 0 0 1
    outer loop
      vertex 90 0 90
      vertex 0 30 90
      vertex 0 0 90
    endloop
  endfacet
  facet normal 0 1 -0
    outer loop
      vertex 90 30 50
      vertex 0 30 90
      vertex 90 30 90
    endloop
  endfacet
  facet normal 0 1 0
    outer loop
      vertex 0 30 90
      vertex 90 30 50
      vertex 0 30 50
    endloop
  endfacet
  facet normal 1 -0 0
    outer loop
      vertex 90 0 90
      vertex 90 30 50
      vertex 90 30 90
    endloop
  endfacet
  facet normal 1 0 0
    outer loop
      vertex 90 30 50
      vertex 90 0 90
      vertex 90 0 50
    endloop
  endfacet
endsolid OpenSCAD_Model
