solid OpenSCAD_Model
  facet normal 1 -0 0
    outer loop
      vertex 50 0 5
      vertex 50 5 0
      vertex 50 5 5
    endloop
  endfacet
  facet normal 1 0 0
    outer loop
      vertex 50 5 0
      vertex 50 0 5
      vertex 50 0 0
    endloop
  endfacet
  facet normal 0 0 -1
    outer loop
      vertex 0 40 5
      vertex 4.375 5 5
      vertex 0 5 5
    endloop
  endfacet
  facet normal -0 0 1
    outer loop
      vertex 5 5 5
      vertex 50 0 5
      vertex 50 5 5
    endloop
  endfacet
  facet normal 0 0 1
    outer loop
      vertex 50 0 5
      vertex 5 5 5
      vertex 5 0 5
    endloop
  endfacet
  facet normal 0 0 -1
    outer loop
      vertex 0 0 0
      vertex 50 5 0
      vertex 50 0 0
    endloop
  endfacet
  facet normal -0 0 -1
    outer loop
      vertex 50 5 0
      vertex 0 0 0
      vertex 0 5 0
    endloop
  endfacet
  facet normal -1 0 0
    outer loop
      vertex 0 0 0
      vertex 0 5 5
      vertex 0 5 0
    endloop
  endfacet
  facet normal -1 -0 0
    outer loop
      vertex 0 5 5
      vertex 0 0 0
      vertex 0 5 10
    endloop
  endfacet
  facet normal -1 0 0
    outer loop
      vertex 0 0 45
      vertex 0 5 10
      vertex 0 0 0
    endloop
  endfacet
  facet normal -1 0 0
    outer loop
      vertex 0 5 10
      vertex 0 0 45
      vertex 0 5 45
    endloop
  endfacet
  facet normal -1 0 0
    outer loop
      vertex 0 5 5
      vertex 0 40 10
      vertex 0 40 5
    endloop
  endfacet
  facet normal -1 -0 0
    outer loop
      vertex 0 40 10
      vertex 0 5 5
      vertex 0 5 10
    endloop
  endfacet
  facet normal 0 1 -0
    outer loop
      vertex 50 5 0
      vertex 5 5 5
      vertex 50 5 5
    endloop
  endfacet
  facet normal 0 1 0
    outer loop
      vertex 0 5 0
      vertex 5 5 5
      vertex 50 5 0
    endloop
  endfacet
  facet normal 0 1 0
    outer loop
      vertex 5 5 5
      vertex 0 5 0
      vertex 4.375 5 5
    endloop
  endfacet
  facet normal 0 1 0
    outer loop
      vertex 4.375 5 5
      vertex 0 5 0
      vertex 0 5 5
    endloop
  endfacet
  facet normal 0 1 0
    outer loop
      vertex 5 5 45
      vertex 4.375 5 10
      vertex 0 5 45
    endloop
  endfacet
  facet normal 0 1 -0
    outer loop
      vertex 5 5 5
      vertex 4.375 5 10
      vertex 5 5 45
    endloop
  endfacet
  facet normal 0 1 0
    outer loop
      vertex 4.375 5 10
      vertex 5 5 5
      vertex 4.375 5 5
    endloop
  endfacet
  facet normal 0 1 0
    outer loop
      vertex 0 5 45
      vertex 4.375 5 10
      vertex 0 5 10
    endloop
  endfacet
  facet normal 0 -1 0
    outer loop
      vertex 0 0 45
      vertex 5 0 5
      vertex 5 0 45
    endloop
  endfacet
  facet normal 0 -1 0
    outer loop
      vertex 0 0 0
      vertex 5 0 5
      vertex 0 0 45
    endloop
  endfacet
  facet normal 0 -1 0
    outer loop
      vertex 50 0 0
      vertex 5 0 5
      vertex 0 0 0
    endloop
  endfacet
  facet normal 0 -1 0
    outer loop
      vertex 5 0 5
      vertex 50 0 0
      vertex 50 0 5
    endloop
  endfacet
  facet normal 1 -0 0
    outer loop
      vertex 5 0 45
      vertex 5 5 5
      vertex 5 5 45
    endloop
  endfacet
  facet normal 1 0 0
    outer loop
      vertex 5 5 5
      vertex 5 0 45
      vertex 5 0 5
    endloop
  endfacet
  facet normal -0 0 1
    outer loop
      vertex 0 5 45
      vertex 5 0 45
      vertex 5 5 45
    endloop
  endfacet
  facet normal 0 0 1
    outer loop
      vertex 5 0 45
      vertex 0 5 45
      vertex 0 0 45
    endloop
  endfacet
  facet normal 0 0 1
    outer loop
      vertex 0 40 10
      vertex 0 5 10
      vertex 4.375 5 10
    endloop
  endfacet
  facet normal 0.992278 0.124035 0
    outer loop
      vertex 4.375 5 10
      vertex 0 40 5
      vertex 0 40 10
    endloop
  endfacet
  facet normal 0.992278 0.124035 0
    outer loop
      vertex 0 40 5
      vertex 4.375 5 10
      vertex 4.375 5 5
    endloop
  endfacet
endsolid OpenSCAD_Model
