solid OpenSCAD_Model
  facet normal 1 -0 0
    outer loop
      vertex 40 0 40
      vertex 40 20 0
      vertex 40 20 40
    endloop
  endfacet
  facet normal 1 0 0
    outer loop
      vertex 40 20 0
      vertex 40 0 40
      vertex 40 0 0
    endloop
  endfacet
  facet normal 0 0 -1
    outer loop
      vertex 0 0 0
      vertex 40 20 0
      vertex 40 0 0
    endloop
  endfacet
  facet normal -0 0 -1
    outer loop
      vertex 40 20 0
      vertex 0 0 0
      vertex 0 20 0
    endloop
  endfacet
  facet normal -1 0 0
    outer loop
      vertex 0 0 0
      vertex 0 20 40
      vertex 0 20 0
    endloop
  endfacet
  facet normal -1 -0 0
    outer loop
      vertex 0 20 40
      vertex 0 0 0
      vertex 0 0 40
    endloop
  endfacet
  facet normal 0 1 -0
    outer loop
      vertex 40 20 0
      vertex 0 20 40
      vertex 40 20 40
    endloop
  endfacet
  facet normal 0 1 0
    outer loop
      vertex 0 20 40
      vertex 40 20 0
      vertex 0 20 0
    endloop
  endfacet
  facet normal 0 -1 0
    outer loop
      vertex 0 0 0
      vertex 40 0 40
      vertex 0 0 40
    endloop
  endfacet
  facet normal 0 -1 -0
    outer loop
      vertex 40 0 40
      vertex 0 0 0
      vertex 40 0 0
    endloop
  endfacet
  facet normal -1 0 0
    outer loop
      vertex 38 2 2
      vertex 38 18 18
      vertex 38 18 2
    endloop
  endfacet
  facet normal -1 -0 0
    outer loop
      vertex 38 18 18
      vertex 38 2 2
      vertex 38 2 18
    endloop
  endfacet
  facet normal 0 0 -1
    outer loop
      vertex 2 2 18
      vertex 38 18 18
      vertex 38 2 18
    endloop
  endfacet
  facet normal -0 0 -1
    outer loop
      vertex 38 18 18
      vertex 2 2 18
      vertex 2 18 18
    endloop
  endfacet
  facet normal -0 0 1
    outer loop
      vertex 2 18 2
      vertex 38 2 2
      vertex 38 18 2
    endloop
  endfacet
  facet normal 0 0 1
    outer loop
      vertex 38 2 2
      vertex 2 18 2
      vertex 2 2 2
    endloop
  endfacet
  facet normal 1 -0 0
    outer loop
      vertex 2 2 18
      vertex 2 18 2
      vertex 2 18 18
    endloop
  endfacet
  facet normal 1 0 0
    outer loop
      vertex 2 18 2
      vertex 2 2 18
      vertex 2 2 2
    endloop
  endfacet
  facet normal 0 -1 0
    outer loop
      vertex 2 18 2
      vertex 38 18 18
      vertex 2 18 18
    endloop
  endfacet
  facet normal 0 -1 -0
    outer loop
      vertex 38 18 18
      vertex 2 18 2
      vertex 38 18 2
    endloop
  endfacet
  facet normal 0 1 -0
    outer loop
      vertex 38 2 2
      vertex 2 2 18
      vertex 38 2 18
    endloop
  endfacet
  facet normal 0 1 0
    outer loop
      vertex 2 2 18
      vertex 38 2 2
      vertex 2 2 2
    endloop
  endfacet
  facet normal 0 0 1
    outer loop
      vertex 40 20 40
      vertex 30 15 40
      vertex 40 0 40
    endloop
  endfacet
  facet normal 0 0 1
    outer loop
      vertex 40 20 40
      vertex 10 15 40
      vertex 30 15 40
    endloop
  endfacet
  facet normal 0 0 1
    outer loop
      vertex 10 15 40
      vertex 0 20 40
      vertex 10 5 40
    endloop
  endfacet
  facet normal -0 0 1
    outer loop
      vertex 0 20 40
      vertex 10 15 40
      vertex 40 20 40
    endloop
  endfacet
  facet normal -0 0 1
    outer loop
      vertex 30 5 40
      vertex 40 0 40
      vertex 30 15 40
    endloop
  endfacet
  facet normal -0 0 1
    outer loop
      vertex 10 5 40
      vertex 40 0 40
      vertex 30 5 40
    endloop
  endfacet
  facet normal 0 0 1
    outer loop
      vertex 10 5 40
      vertex 0 0 40
      vertex 40 0 40
    endloop
  endfacet
  facet normal 0 0 1
    outer loop
      vertex 0 0 40
      vertex 10 5 40
      vertex 0 20 40
    endloop
  endfacet
  facet normal -1 0 0
    outer loop
      vertex 38 2 22
      vertex 38 18 38
      vertex 38 18 22
    endloop
  endfacet
  facet normal -1 -0 0
    outer loop
      vertex 38 18 38
      vertex 38 2 22
      vertex 38 2 38
    endloop
  endfacet
  facet normal 0 0 -1
    outer loop
      vertex 2 2 38
      vertex 38 18 38
      vertex 38 2 38
    endloop
  endfacet
  facet normal -0 0 -1
    outer loop
      vertex 38 18 38
      vertex 2 2 38
      vertex 2 18 38
    endloop
  endfacet
  facet normal -0 0 1
    outer loop
      vertex 2 18 22
      vertex 38 2 22
      vertex 38 18 22
    endloop
  endfacet
  facet normal 0 0 1
    outer loop
      vertex 38 2 22
      vertex 2 18 22
      vertex 2 2 22
    endloop
  endfacet
  facet normal 1 -0 0
    outer loop
      vertex 2 2 38
      vertex 2 18 22
      vertex 2 18 38
    endloop
  endfacet
  facet normal 1 0 0
    outer loop
      vertex 2 18 22
      vertex 2 2 38
      vertex 2 2 22
    endloop
  endfacet
  facet normal 0 -1 0
    outer loop
      vertex 2 18 22
      vertex 38 18 38
      vertex 2 18 38
    endloop
  endfacet
  facet normal 0 -1 -0
    outer loop
      vertex 38 18 38
      vertex 2 18 22
      vertex 38 18 22
    endloop
  endfacet
  facet normal 0 1 -0
    outer loop
      vertex 38 2 22
      vertex 2 2 38
      vertex 38 2 38
    endloop
  endfacet
  facet normal 0 1 0
    outer loop
      vertex 2 2 38
      vertex 38 2 22
      vertex 2 2 22
    endloop
  endfacet
  facet normal 1 -0 0
    outer loop
      vertex 30 5 50
      vertex 30 15 40
      vertex 30 15 50
    endloop
  endfacet
  facet normal 1 0 0
    outer loop
      vertex 30 15 40
      vertex 30 5 50
      vertex 30 5 40
    endloop
  endfacet
  facet normal -0 0 1
    outer loop
      vertex 10 15 50
      vertex 30 5 50
      vertex 30 15 50
    endloop
  endfacet
  facet normal 0 0 1
    outer loop
      vertex 30 5 50
      vertex 10 15 50
      vertex 10 5 50
    endloop
  endfacet
  facet normal -1 0 0
    outer loop
      vertex 10 5 40
      vertex 10 15 50
      vertex 10 15 40
    endloop
  endfacet
  facet normal -1 -0 0
    outer loop
      vertex 10 15 50
      vertex 10 5 40
      vertex 10 5 50
    endloop
  endfacet
  facet normal 0 1 -0
    outer loop
      vertex 30 15 40
      vertex 10 15 50
      vertex 30 15 50
    endloop
  endfacet
  facet normal 0 1 0
    outer loop
      vertex 10 15 50
      vertex 30 15 40
      vertex 10 15 40
    endloop
  endfacet
  facet normal 0 -1 0
    outer loop
      vertex 10 5 40
      vertex 30 5 50
      vertex 10 5 50
    endloop
  endfacet
  facet normal 0 -1 -0
    outer loop
      vertex 30 5 50
      vertex 10 5 40
      vertex 30 5 40
    endloop
  endfacet
endsolid OpenSCAD_Model
