solid OpenSCAD_Model
  facet normal -0.743147 -0.669129 0
    outer loop
      vertex -6.69131 -7.43145 0
      vertex -8.09017 -5.87785 2
      vertex -8.09017 -5.87785 0
    endloop
  endfacet
  facet normal -0.743147 -0.669129 0
    outer loop
      vertex -8.09017 -5.87785 2
      vertex -6.69131 -7.43145 0
      vertex -6.69131 -7.43145 2
    endloop
  endfacet
  facet normal 0.951056 0.309017 0
    outer loop
      vertex 9.48226 3 2
      vertex 9.13545 4.06737 0
      vertex 9.13545 4.06737 2
    endloop
  endfacet
  facet normal 0.951056 0.309017 0
    outer loop
      vertex 9.13545 4.06737 0
      vertex 9.48226 3 2
      vertex 9.48226 3 0
    endloop
  endfacet
  facet normal 0.866026 0.5 0
    outer loop
      vertex 9.13545 4.06737 2
      vertex 8.09017 5.87785 0
      vertex 8.09017 5.87785 2
    endloop
  endfacet
  facet normal 0.866026 0.5 0
    outer loop
      vertex 8.09017 5.87785 0
      vertex 9.13545 4.06737 2
      vertex 9.13545 4.06737 0
    endloop
  endfacet
  facet normal 0.951056 -0.309017 0
    outer loop
      vertex 9.13545 -4.06737 2
      vertex 9.48226 -3 0
      vertex 9.48226 -3 2
    endloop
  endfacet
  facet normal 0.951056 -0.309017 0
    outer loop
      vertex 9.48226 -3 0
      vertex 9.13545 -4.06737 2
      vertex 9.13545 -4.06737 0
    endloop
  endfacet
  facet normal 0.587783 -0.809019 0
    outer loop
      vertex 5 -8.66025 0
      vertex 6.69131 -7.43145 2
      vertex 5 -8.66025 2
    endloop
  endfacet
  facet normal 0.587783 -0.809019 0
    outer loop
      vertex 6.69131 -7.43145 2
      vertex 5 -8.66025 0
      vertex 6.69131 -7.43145 0
    endloop
  endfacet
  facet normal 0.743147 -0.669129 0
    outer loop
      vertex 6.69131 -7.43145 2
      vertex 8.09017 -5.87785 0
      vertex 8.09017 -5.87785 2
    endloop
  endfacet
  facet normal 0.743147 -0.669129 0
    outer loop
      vertex 8.09017 -5.87785 0
      vertex 6.69131 -7.43145 2
      vertex 6.69131 -7.43145 0
    endloop
  endfacet
  facet normal -0.406736 -0.913546 0
    outer loop
      vertex -5 -8.66025 0
      vertex -3.09017 -9.51056 2
      vertex -5 -8.66025 2
    endloop
  endfacet
  facet normal -0.406736 -0.913546 -0
    outer loop
      vertex -3.09017 -9.51056 2
      vertex -5 -8.66025 0
      vertex -3.09017 -9.51056 0
    endloop
  endfacet
  facet normal 0.406736 0.913546 -0
    outer loop
      vertex 5 8.66025 0
      vertex 3.09017 9.51056 2
      vertex 5 8.66025 2
    endloop
  endfacet
  facet normal 0.406736 0.913546 0
    outer loop
      vertex 3.09017 9.51056 2
      vertex 5 8.66025 0
      vertex 3.09017 9.51056 0
    endloop
  endfacet
  facet normal 0.743147 0.669129 0
    outer loop
      vertex 8.09017 5.87785 2
      vertex 6.69131 7.43145 0
      vertex 6.69131 7.43145 2
    endloop
  endfacet
  facet normal 0.743147 0.669129 0
    outer loop
      vertex 6.69131 7.43145 0
      vertex 8.09017 5.87785 2
      vertex 8.09017 5.87785 0
    endloop
  endfacet
  facet normal -0.587783 -0.809019 0
    outer loop
      vertex -6.69131 -7.43145 0
      vertex -5 -8.66025 2
      vertex -6.69131 -7.43145 2
    endloop
  endfacet
  facet normal -0.587783 -0.809019 -0
    outer loop
      vertex -5 -8.66025 2
      vertex -6.69131 -7.43145 0
      vertex -5 -8.66025 0
    endloop
  endfacet
  facet normal -0.743147 0.669129 0
    outer loop
      vertex -8.09017 5.87785 0
      vertex -6.69131 7.43145 2
      vertex -6.69131 7.43145 0
    endloop
  endfacet
  facet normal -0.743147 0.669129 0
    outer loop
      vertex -6.69131 7.43145 2
      vertex -8.09017 5.87785 0
      vertex -8.09017 5.87785 2
    endloop
  endfacet
  facet normal 0 1 -0
    outer loop
      vertex 1.04528 9.94522 0
      vertex -1.04528 9.94522 2
      vertex 1.04528 9.94522 2
    endloop
  endfacet
  facet normal 0 1 0
    outer loop
      vertex -1.04528 9.94522 2
      vertex 1.04528 9.94522 0
      vertex -1.04528 9.94522 0
    endloop
  endfacet
  facet normal 0.406736 -0.913546 0
    outer loop
      vertex 3.09017 -9.51056 0
      vertex 5 -8.66025 2
      vertex 3.09017 -9.51056 2
    endloop
  endfacet
  facet normal 0.406736 -0.913546 0
    outer loop
      vertex 5 -8.66025 2
      vertex 3.09017 -9.51056 0
      vertex 5 -8.66025 0
    endloop
  endfacet
  facet normal 0.207914 -0.978147 0
    outer loop
      vertex 1.04528 -9.94522 0
      vertex 3.09017 -9.51056 2
      vertex 1.04528 -9.94522 2
    endloop
  endfacet
  facet normal 0.207914 -0.978147 0
    outer loop
      vertex 3.09017 -9.51056 2
      vertex 1.04528 -9.94522 0
      vertex 3.09017 -9.51056 0
    endloop
  endfacet
  facet normal -0.951056 0.309017 0
    outer loop
      vertex -9.48226 3 0
      vertex -9.13545 4.06737 2
      vertex -9.13545 4.06737 0
    endloop
  endfacet
  facet normal -0.951056 0.309017 0
    outer loop
      vertex -9.13545 4.06737 2
      vertex -9.48226 3 0
      vertex -9.48226 3 2
    endloop
  endfacet
  facet normal 0 0 -1
    outer loop
      vertex 9.48226 -3 0
      vertex 25 3 0
      vertex 25 -3 0
    endloop
  endfacet
  facet normal 0 0 -1
    outer loop
      vertex 9.48226 -3 0
      vertex 9.48226 3 0
      vertex 25 3 0
    endloop
  endfacet
  facet normal 0 0 -1
    outer loop
      vertex 8.09017 -5.87785 0
      vertex 9.48226 -3 0
      vertex 9.13545 -4.06737 0
    endloop
  endfacet
  facet normal 0 0 -1
    outer loop
      vertex 6.69131 -7.43145 0
      vertex 9.48226 -3 0
      vertex 8.09017 -5.87785 0
    endloop
  endfacet
  facet normal 0 0 -1
    outer loop
      vertex 5 -8.66025 0
      vertex 9.48226 -3 0
      vertex 6.69131 -7.43145 0
    endloop
  endfacet
  facet normal 0 0 -1
    outer loop
      vertex 9.48226 3 0
      vertex 8.09017 5.87785 0
      vertex 9.13545 4.06737 0
    endloop
  endfacet
  facet normal -0 0 -1
    outer loop
      vertex 9.48226 -3 0
      vertex 5 -8.66025 0
      vertex 9.48226 3 0
    endloop
  endfacet
  facet normal 0 0 -1
    outer loop
      vertex 9.48226 3 0
      vertex 6.69131 7.43145 0
      vertex 8.09017 5.87785 0
    endloop
  endfacet
  facet normal 0 0 -1
    outer loop
      vertex 3.09017 -9.51056 0
      vertex 9.48226 3 0
      vertex 5 -8.66025 0
    endloop
  endfacet
  facet normal 0 0 -1
    outer loop
      vertex 9.48226 3 0
      vertex 5 8.66025 0
      vertex 6.69131 7.43145 0
    endloop
  endfacet
  facet normal -0 0 -1
    outer loop
      vertex 9.48226 3 0
      vertex 3.09017 -9.51056 0
      vertex 5 8.66025 0
    endloop
  endfacet
  facet normal 0 0 -1
    outer loop
      vertex 3.09017 -9.51056 0
      vertex 3.09017 9.51056 0
      vertex 5 8.66025 0
    endloop
  endfacet
  facet normal 0 0 -1
    outer loop
      vertex 1.04528 -9.94522 0
      vertex 3.09017 9.51056 0
      vertex 3.09017 -9.51056 0
    endloop
  endfacet
  facet normal 0 0 -1
    outer loop
      vertex 1.04528 -9.94522 0
      vertex 1.04528 9.94522 0
      vertex 3.09017 9.51056 0
    endloop
  endfacet
  facet normal 0 0 -1
    outer loop
      vertex -1.04528 -9.94522 0
      vertex 1.04528 9.94522 0
      vertex 1.04528 -9.94522 0
    endloop
  endfacet
  facet normal 0 0 -1
    outer loop
      vertex -1.04528 -9.94522 0
      vertex -1.04528 9.94522 0
      vertex 1.04528 9.94522 0
    endloop
  endfacet
  facet normal 0 0 -1
    outer loop
      vertex -3.09017 -9.51056 0
      vertex -1.04528 9.94522 0
      vertex -1.04528 -9.94522 0
    endloop
  endfacet
  facet normal 0 0 -1
    outer loop
      vertex -3.09017 -9.51056 0
      vertex -3.09017 9.51056 0
      vertex -1.04528 9.94522 0
    endloop
  endfacet
  facet normal 0 0 -1
    outer loop
      vertex -5 -8.66025 0
      vertex -3.09017 9.51056 0
      vertex -3.09017 -9.51056 0
    endloop
  endfacet
  facet normal 0 0 -1
    outer loop
      vertex -9.48226 -3 0
      vertex -3.09017 9.51056 0
      vertex -5 -8.66025 0
    endloop
  endfacet
  facet normal 0 0 -1
    outer loop
      vertex -9.48226 -3 0
      vertex -5 -8.66025 0
      vertex -6.69131 -7.43145 0
    endloop
  endfacet
  facet normal 0 0 -1
    outer loop
      vertex -3.09017 9.51056 0
      vertex -9.48226 -3 0
      vertex -5 8.66025 0
    endloop
  endfacet
  facet normal 0 0 -1
    outer loop
      vertex -9.48226 -3 0
      vertex -6.69131 -7.43145 0
      vertex -8.09017 -5.87785 0
    endloop
  endfacet
  facet normal 0 0 -1
    outer loop
      vertex -9.48226 3 0
      vertex -5 8.66025 0
      vertex -9.48226 -3 0
    endloop
  endfacet
  facet normal 0 0 -1
    outer loop
      vertex -9.48226 -3 0
      vertex -8.09017 -5.87785 0
      vertex -9.13545 -4.06737 0
    endloop
  endfacet
  facet normal 0 0 -1
    outer loop
      vertex -5 8.66025 0
      vertex -9.48226 3 0
      vertex -6.69131 7.43145 0
    endloop
  endfacet
  facet normal 0 0 -1
    outer loop
      vertex -6.69131 7.43145 0
      vertex -9.48226 3 0
      vertex -8.09017 5.87785 0
    endloop
  endfacet
  facet normal 0 0 -1
    outer loop
      vertex -8.09017 5.87785 0
      vertex -9.48226 3 0
      vertex -9.13545 4.06737 0
    endloop
  endfacet
  facet normal 0 0 -1
    outer loop
      vertex -11.1051 -3 0
      vertex -9.48226 3 0
      vertex -9.48226 -3 0
    endloop
  endfacet
  facet normal 0 0 -1
    outer loop
      vertex -16.2954 2.19027 0
      vertex -9.48226 3 0
      vertex -11.1051 -3 0
    endloop
  endfacet
  facet normal 0 0 -1
    outer loop
      vertex -16.8157 2.68782 0
      vertex -9.48226 3 0
      vertex -16.2954 2.19027 0
    endloop
  endfacet
  facet normal -0 0 -1
    outer loop
      vertex -9.48226 3 0
      vertex -16.8157 2.68782 0
      vertex -17.1421 3 0
    endloop
  endfacet
  facet normal -0 0 -1
    outer loop
      vertex -24.8579 3 0
      vertex -25 2.8641 0
      vertex -25 3 0
    endloop
  endfacet
  facet normal -0.951056 -0.309017 0
    outer loop
      vertex -9.13545 -4.06737 0
      vertex -9.48226 -3 2
      vertex -9.48226 -3 0
    endloop
  endfacet
  facet normal -0.951056 -0.309017 0
    outer loop
      vertex -9.48226 -3 2
      vertex -9.13545 -4.06737 0
      vertex -9.13545 -4.06737 2
    endloop
  endfacet
  facet normal -0.406736 0.913546 0
    outer loop
      vertex -3.09017 9.51056 0
      vertex -5 8.66025 2
      vertex -3.09017 9.51056 2
    endloop
  endfacet
  facet normal -0.406736 0.913546 0
    outer loop
      vertex -5 8.66025 2
      vertex -3.09017 9.51056 0
      vertex -5 8.66025 0
    endloop
  endfacet
  facet normal -0 0 1
    outer loop
      vertex -25 3 2
      vertex -25 2.8641 2
      vertex -24.8579 3 2
    endloop
  endfacet
  facet normal -0 0 1
    outer loop
      vertex 9.48226 3 2
      vertex 25 -3 2
      vertex 25 3 2
    endloop
  endfacet
  facet normal 0 0 1
    outer loop
      vertex 9.48226 3 2
      vertex 9.48226 -3 2
      vertex 25 -3 2
    endloop
  endfacet
  facet normal 0 0 1
    outer loop
      vertex 8.09017 5.87785 2
      vertex 9.48226 3 2
      vertex 9.13545 4.06737 2
    endloop
  endfacet
  facet normal 0 0 1
    outer loop
      vertex 6.69131 7.43145 2
      vertex 9.48226 3 2
      vertex 8.09017 5.87785 2
    endloop
  endfacet
  facet normal 0 0 1
    outer loop
      vertex 5 8.66025 2
      vertex 9.48226 3 2
      vertex 6.69131 7.43145 2
    endloop
  endfacet
  facet normal 0 0 1
    outer loop
      vertex 9.48226 -3 2
      vertex 8.09017 -5.87785 2
      vertex 9.13545 -4.06737 2
    endloop
  endfacet
  facet normal 0 0 1
    outer loop
      vertex 9.48226 3 2
      vertex 5 8.66025 2
      vertex 9.48226 -3 2
    endloop
  endfacet
  facet normal 0 0 1
    outer loop
      vertex 9.48226 -3 2
      vertex 6.69131 -7.43145 2
      vertex 8.09017 -5.87785 2
    endloop
  endfacet
  facet normal 0 0 1
    outer loop
      vertex 3.09017 9.51056 2
      vertex 9.48226 -3 2
      vertex 5 8.66025 2
    endloop
  endfacet
  facet normal 0 0 1
    outer loop
      vertex 9.48226 -3 2
      vertex 5 -8.66025 2
      vertex 6.69131 -7.43145 2
    endloop
  endfacet
  facet normal 0 0 1
    outer loop
      vertex 9.48226 -3 2
      vertex 3.09017 9.51056 2
      vertex 5 -8.66025 2
    endloop
  endfacet
  facet normal 0 0 1
    outer loop
      vertex 3.09017 9.51056 2
      vertex 3.09017 -9.51056 2
      vertex 5 -8.66025 2
    endloop
  endfacet
  facet normal 0 0 1
    outer loop
      vertex 1.04528 9.94522 2
      vertex 3.09017 -9.51056 2
      vertex 3.09017 9.51056 2
    endloop
  endfacet
  facet normal 0 0 1
    outer loop
      vertex 1.04528 9.94522 2
      vertex 1.04528 -9.94522 2
      vertex 3.09017 -9.51056 2
    endloop
  endfacet
  facet normal -0 0 1
    outer loop
      vertex -1.04528 9.94522 2
      vertex 1.04528 -9.94522 2
      vertex 1.04528 9.94522 2
    endloop
  endfacet
  facet normal 0 0 1
    outer loop
      vertex -1.04528 9.94522 2
      vertex -1.04528 -9.94522 2
      vertex 1.04528 -9.94522 2
    endloop
  endfacet
  facet normal -0 0 1
    outer loop
      vertex -3.09017 9.51056 2
      vertex -1.04528 -9.94522 2
      vertex -1.04528 9.94522 2
    endloop
  endfacet
  facet normal 0 0 1
    outer loop
      vertex -3.09017 9.51056 2
      vertex -3.09017 -9.51056 2
      vertex -1.04528 -9.94522 2
    endloop
  endfacet
  facet normal -0 0 1
    outer loop
      vertex -5 8.66025 2
      vertex -3.09017 -9.51056 2
      vertex -3.09017 9.51056 2
    endloop
  endfacet
  facet normal -0 0 1
    outer loop
      vertex -9.48226 3 2
      vertex -3.09017 -9.51056 2
      vertex -5 8.66025 2
    endloop
  endfacet
  facet normal 0 0 1
    outer loop
      vertex -9.48226 3 2
      vertex -5 8.66025 2
      vertex -6.69131 7.43145 2
    endloop
  endfacet
  facet normal 0 0 1
    outer loop
      vertex -3.09017 -9.51056 2
      vertex -9.48226 3 2
      vertex -5 -8.66025 2
    endloop
  endfacet
  facet normal 0 0 1
    outer loop
      vertex -9.48226 3 2
      vertex -6.69131 7.43145 2
      vertex -8.09017 5.87785 2
    endloop
  endfacet
  facet normal -0 0 1
    outer loop
      vertex -9.48226 -3 2
      vertex -5 -8.66025 2
      vertex -9.48226 3 2
    endloop
  endfacet
  facet normal 0 0 1
    outer loop
      vertex -9.48226 3 2
      vertex -8.09017 5.87785 2
      vertex -9.13545 4.06737 2
    endloop
  endfacet
  facet normal 0 0 1
    outer loop
      vertex -5 -8.66025 2
      vertex -9.48226 -3 2
      vertex -6.69131 -7.43145 2
    endloop
  endfacet
  facet normal 0 0 1
    outer loop
      vertex -6.69131 -7.43145 2
      vertex -9.48226 -3 2
      vertex -8.09017 -5.87785 2
    endloop
  endfacet
  facet normal 0 0 1
    outer loop
      vertex -8.09017 -5.87785 2
      vertex -9.48226 -3 2
      vertex -9.13545 -4.06737 2
    endloop
  endfacet
  facet normal 0 0 1
    outer loop
      vertex -9.48226 3 2
      vertex -11.1051 -3 2
      vertex -9.48226 -3 2
    endloop
  endfacet
  facet normal 0 0 1
    outer loop
      vertex -9.48226 3 2
      vertex -16.2954 2.19026 2
      vertex -11.1051 -3 2
    endloop
  endfacet
  facet normal 0 -0 1
    outer loop
      vertex -16.2954 2.19026 2
      vertex -9.48226 3 2
      vertex -17.1421 3 2
    endloop
  endfacet
  facet normal -0.207914 -0.978147 0
    outer loop
      vertex -3.09017 -9.51056 0
      vertex -1.04528 -9.94522 2
      vertex -3.09017 -9.51056 2
    endloop
  endfacet
  facet normal -0.207914 -0.978147 -0
    outer loop
      vertex -1.04528 -9.94522 2
      vertex -3.09017 -9.51056 0
      vertex -1.04528 -9.94522 0
    endloop
  endfacet
  facet normal 0.207914 0.978147 -0
    outer loop
      vertex 3.09017 9.51056 0
      vertex 1.04528 9.94522 2
      vertex 3.09017 9.51056 2
    endloop
  endfacet
  facet normal 0.207914 0.978147 0
    outer loop
      vertex 1.04528 9.94522 2
      vertex 3.09017 9.51056 0
      vertex 1.04528 9.94522 0
    endloop
  endfacet
  facet normal -0.866026 -0.5 0
    outer loop
      vertex -8.09017 -5.87785 0
      vertex -9.13545 -4.06737 2
      vertex -9.13545 -4.06737 0
    endloop
  endfacet
  facet normal -0.866026 -0.5 0
    outer loop
      vertex -9.13545 -4.06737 2
      vertex -8.09017 -5.87785 0
      vertex -8.09017 -5.87785 2
    endloop
  endfacet
  facet normal -0.866026 0.5 0
    outer loop
      vertex -9.13545 4.06737 0
      vertex -8.09017 5.87785 2
      vertex -8.09017 5.87785 0
    endloop
  endfacet
  facet normal -0.866026 0.5 0
    outer loop
      vertex -8.09017 5.87785 2
      vertex -9.13545 4.06737 0
      vertex -9.13545 4.06737 2
    endloop
  endfacet
  facet normal 0.866026 -0.5 0
    outer loop
      vertex 8.09017 -5.87785 2
      vertex 9.13545 -4.06737 0
      vertex 9.13545 -4.06737 2
    endloop
  endfacet
  facet normal 0.866026 -0.5 0
    outer loop
      vertex 9.13545 -4.06737 0
      vertex 8.09017 -5.87785 2
      vertex 8.09017 -5.87785 0
    endloop
  endfacet
  facet normal 0.587783 0.809019 -0
    outer loop
      vertex 6.69131 7.43145 0
      vertex 5 8.66025 2
      vertex 6.69131 7.43145 2
    endloop
  endfacet
  facet normal 0.587783 0.809019 0
    outer loop
      vertex 5 8.66025 2
      vertex 6.69131 7.43145 0
      vertex 5 8.66025 0
    endloop
  endfacet
  facet normal -0.587783 0.809019 0
    outer loop
      vertex -5 8.66025 0
      vertex -6.69131 7.43145 2
      vertex -5 8.66025 2
    endloop
  endfacet
  facet normal -0.587783 0.809019 0
    outer loop
      vertex -6.69131 7.43145 2
      vertex -5 8.66025 0
      vertex -6.69131 7.43145 0
    endloop
  endfacet
  facet normal -0.207914 0.978147 0
    outer loop
      vertex -1.04528 9.94522 0
      vertex -3.09017 9.51056 2
      vertex -1.04528 9.94522 2
    endloop
  endfacet
  facet normal -0.207914 0.978147 0
    outer loop
      vertex -3.09017 9.51056 2
      vertex -1.04528 9.94522 0
      vertex -3.09017 9.51056 0
    endloop
  endfacet
  facet normal 0 -1 0
    outer loop
      vertex -1.04528 -9.94522 0
      vertex 1.04528 -9.94522 2
      vertex -1.04528 -9.94522 2
    endloop
  endfacet
  facet normal 0 -1 -0
    outer loop
      vertex 1.04528 -9.94522 2
      vertex -1.04528 -9.94522 0
      vertex 1.04528 -9.94522 0
    endloop
  endfacet
  facet normal 1 -0 0
    outer loop
      vertex 25 -3 2
      vertex 25 3 0
      vertex 25 3 2
    endloop
  endfacet
  facet normal 1 0 0
    outer loop
      vertex 25 3 0
      vertex 25 -3 2
      vertex 25 -3 0
    endloop
  endfacet
  facet normal -1 0 0
    outer loop
      vertex -25 2.91064 1.85023
      vertex -25 3 2
      vertex -25 3 1
    endloop
  endfacet
  facet normal -1 -0 0
    outer loop
      vertex -25 3 2
      vertex -25 2.91064 1.85023
      vertex -25 2.8641 2
    endloop
  endfacet
  facet normal -1 0 0
    outer loop
      vertex -25 3 0
      vertex -25 2.91385 0.180295
      vertex -25 3 1
    endloop
  endfacet
  facet normal -1 0 0
    outer loop
      vertex -25 3 0
      vertex -25 2.91064 0.149774
      vertex -25 2.91385 0.180295
    endloop
  endfacet
  facet normal -1 0 0
    outer loop
      vertex -25 3 0
      vertex -25 2.89958 0.1142
      vertex -25 2.91064 0.149774
    endloop
  endfacet
  facet normal -1 0 -0
    outer loop
      vertex -25 2.89958 0.1142
      vertex -25 3 0
      vertex -25 2.8641 0
    endloop
  endfacet
  facet normal 0 1 0
    outer loop
      vertex -17.7639 3 -1.35114
      vertex -17.1421 3 0
      vertex -17.3458 3 -0.626946
    endloop
  endfacet
  facet normal 0 1 0
    outer loop
      vertex -17.1421 3 0
      vertex -17.7639 3 -1.35114
      vertex -24.8579 3 0
    endloop
  endfacet
  facet normal 0 1 -0
    outer loop
      vertex -24.2361 3 -1.35114
      vertex -24.8579 3 0
      vertex -17.7639 3 -1.35114
    endloop
  endfacet
  facet normal 0 1 0
    outer loop
      vertex -24.8579 3 0
      vertex -24.2361 3 -1.35114
      vertex -24.6542 3 -0.626946
    endloop
  endfacet
  facet normal 0 1 -0
    outer loop
      vertex -18.3235 3 -1.97258
      vertex -24.2361 3 -1.35114
      vertex -17.7639 3 -1.35114
    endloop
  endfacet
  facet normal 0 1 0
    outer loop
      vertex -18.3235 3 -1.97258
      vertex -23.6765 3 -1.97258
      vertex -24.2361 3 -1.35114
    endloop
  endfacet
  facet normal 0 1 -0
    outer loop
      vertex -19 3 -2.4641
      vertex -23.6765 3 -1.97258
      vertex -18.3235 3 -1.97258
    endloop
  endfacet
  facet normal 0 1 0
    outer loop
      vertex -19 3 -2.4641
      vertex -23 3 -2.4641
      vertex -23.6765 3 -1.97258
    endloop
  endfacet
  facet normal 0 1 -0
    outer loop
      vertex -19.7639 3 -2.80423
      vertex -23 3 -2.4641
      vertex -19 3 -2.4641
    endloop
  endfacet
  facet normal 0 1 0
    outer loop
      vertex -19.7639 3 -2.80423
      vertex -22.2361 3 -2.80423
      vertex -23 3 -2.4641
    endloop
  endfacet
  facet normal 0 1 -0
    outer loop
      vertex -20.5819 3 -2.97809
      vertex -22.2361 3 -2.80423
      vertex -19.7639 3 -2.80423
    endloop
  endfacet
  facet normal 0 1 0
    outer loop
      vertex -22.2361 3 -2.80423
      vertex -20.5819 3 -2.97809
      vertex -21.4181 3 -2.97809
    endloop
  endfacet
  facet normal 0 1 0
    outer loop
      vertex -17.1421 3 0
      vertex -17.1421 3 2
      vertex -9.48226 3 2
    endloop
  endfacet
  facet normal 0 1 0
    outer loop
      vertex -17.1421 3 2
      vertex -17.1421 3 0
      vertex -24.8579 3 2
    endloop
  endfacet
  facet normal 0 1 0
    outer loop
      vertex -24.8579 3 0
      vertex -24.8579 3 2
      vertex -17.1421 3 0
    endloop
  endfacet
  facet normal 0 1 0
    outer loop
      vertex -17.1421 3 0
      vertex -9.48226 3 2
      vertex -9.48226 3 0
    endloop
  endfacet
  facet normal 0 1 0
    outer loop
      vertex -24.8579 3 2
      vertex -25 3 1
      vertex -25 3 2
    endloop
  endfacet
  facet normal 0 1 0
    outer loop
      vertex -24.8579 3 2
      vertex -24.8579 3 0
      vertex -25 3 1
    endloop
  endfacet
  facet normal 0 1 0
    outer loop
      vertex -25 3 1
      vertex -24.8579 3 0
      vertex -25 3 0
    endloop
  endfacet
  facet normal 0 1 0
    outer loop
      vertex -19.7639 3 4.80423
      vertex -21.4181 3 4.97809
      vertex -20.5819 3 4.97809
    endloop
  endfacet
  facet normal 0 1 0
    outer loop
      vertex -19.7639 3 4.80423
      vertex -22.2361 3 4.80423
      vertex -21.4181 3 4.97809
    endloop
  endfacet
  facet normal 0 1 0
    outer loop
      vertex -19 3 4.4641
      vertex -22.2361 3 4.80423
      vertex -19.7639 3 4.80423
    endloop
  endfacet
  facet normal 0 1 0
    outer loop
      vertex -19 3 4.4641
      vertex -23 3 4.4641
      vertex -22.2361 3 4.80423
    endloop
  endfacet
  facet normal 0 1 0
    outer loop
      vertex -18.3235 3 3.97258
      vertex -23 3 4.4641
      vertex -19 3 4.4641
    endloop
  endfacet
  facet normal 0 1 0
    outer loop
      vertex -18.3235 3 3.97258
      vertex -23.6765 3 3.97258
      vertex -23 3 4.4641
    endloop
  endfacet
  facet normal 0 1 0
    outer loop
      vertex -17.7639 3 3.35114
      vertex -23.6765 3 3.97258
      vertex -18.3235 3 3.97258
    endloop
  endfacet
  facet normal 0 1 0
    outer loop
      vertex -17.7639 3 3.35114
      vertex -24.2361 3 3.35114
      vertex -23.6765 3 3.97258
    endloop
  endfacet
  facet normal 0 1 0
    outer loop
      vertex -17.1421 3 2
      vertex -17.7639 3 3.35114
      vertex -17.3458 3 2.62695
    endloop
  endfacet
  facet normal 0 1 0
    outer loop
      vertex -17.7639 3 3.35114
      vertex -17.1421 3 2
      vertex -24.2361 3 3.35114
    endloop
  endfacet
  facet normal 0 1 0
    outer loop
      vertex -24.8579 3 2
      vertex -24.2361 3 3.35114
      vertex -17.1421 3 2
    endloop
  endfacet
  facet normal 0 1 0
    outer loop
      vertex -24.2361 3 3.35114
      vertex -24.8579 3 2
      vertex -24.6542 3 2.62695
    endloop
  endfacet
  facet normal 0 1 -0
    outer loop
      vertex 25 3 0
      vertex 9.48226 3 2
      vertex 25 3 2
    endloop
  endfacet
  facet normal 0 1 0
    outer loop
      vertex 9.48226 3 2
      vertex 25 3 0
      vertex 9.48226 3 0
    endloop
  endfacet
  facet normal 0 -1 0
    outer loop
      vertex 9.48226 -3 0
      vertex 25 -3 2
      vertex 9.48226 -3 2
    endloop
  endfacet
  facet normal 0 -1 -0
    outer loop
      vertex 25 -3 2
      vertex 9.48226 -3 0
      vertex 25 -3 0
    endloop
  endfacet
  facet normal 0 -1 0
    outer loop
      vertex -30.7815 -3 -1.07912
      vertex -11.1051 -3 0
      vertex -31 -3 1
    endloop
  endfacet
  facet normal 0 -1 0
    outer loop
      vertex -30.1355 -3 -3.06737
      vertex -11.1051 -3 0
      vertex -30.7815 -3 -1.07912
    endloop
  endfacet
  facet normal 0 -1 0
    outer loop
      vertex -29.0902 -3 -4.87785
      vertex -11.1051 -3 0
      vertex -30.1355 -3 -3.06737
    endloop
  endfacet
  facet normal 0 -1 0
    outer loop
      vertex -11.1051 -3 0
      vertex -11.8645 -3 -3.06737
      vertex -11.2185 -3 -1.07912
    endloop
  endfacet
  facet normal 0 -1 0
    outer loop
      vertex -12.9098 -3 -4.87785
      vertex -11.1051 -3 0
      vertex -29.0902 -3 -4.87785
    endloop
  endfacet
  facet normal 0 -1 0
    outer loop
      vertex -11.1051 -3 0
      vertex -12.9098 -3 -4.87785
      vertex -11.8645 -3 -3.06737
    endloop
  endfacet
  facet normal 0 -1 0
    outer loop
      vertex -27.6913 -3 -6.43145
      vertex -12.9098 -3 -4.87785
      vertex -29.0902 -3 -4.87785
    endloop
  endfacet
  facet normal 0 -1 0
    outer loop
      vertex -27.6913 -3 -6.43145
      vertex -14.3087 -3 -6.43145
      vertex -12.9098 -3 -4.87785
    endloop
  endfacet
  facet normal 0 -1 0
    outer loop
      vertex -26 -3 -7.66025
      vertex -14.3087 -3 -6.43145
      vertex -27.6913 -3 -6.43145
    endloop
  endfacet
  facet normal 0 -1 0
    outer loop
      vertex -26 -3 -7.66025
      vertex -16 -3 -7.66025
      vertex -14.3087 -3 -6.43145
    endloop
  endfacet
  facet normal 0 -1 0
    outer loop
      vertex -24.0902 -3 -8.51056
      vertex -16 -3 -7.66025
      vertex -26 -3 -7.66025
    endloop
  endfacet
  facet normal 0 -1 0
    outer loop
      vertex -24.0902 -3 -8.51056
      vertex -17.9098 -3 -8.51056
      vertex -16 -3 -7.66025
    endloop
  endfacet
  facet normal 0 -1 0
    outer loop
      vertex -22.0453 -3 -8.94522
      vertex -17.9098 -3 -8.51056
      vertex -24.0902 -3 -8.51056
    endloop
  endfacet
  facet normal 0 -1 0
    outer loop
      vertex -17.9098 -3 -8.51056
      vertex -22.0453 -3 -8.94522
      vertex -19.9547 -3 -8.94522
    endloop
  endfacet
  facet normal 0 -1 0
    outer loop
      vertex -24.0902 -3 10.5106
      vertex -19.9547 -3 10.9452
      vertex -22.0453 -3 10.9452
    endloop
  endfacet
  facet normal 0 -1 0
    outer loop
      vertex -24.0902 -3 10.5106
      vertex -17.9098 -3 10.5106
      vertex -19.9547 -3 10.9452
    endloop
  endfacet
  facet normal 0 -1 0
    outer loop
      vertex -26 -3 9.66025
      vertex -17.9098 -3 10.5106
      vertex -24.0902 -3 10.5106
    endloop
  endfacet
  facet normal 0 -1 0
    outer loop
      vertex -26 -3 9.66025
      vertex -16 -3 9.66025
      vertex -17.9098 -3 10.5106
    endloop
  endfacet
  facet normal 0 -1 0
    outer loop
      vertex -27.6913 -3 8.43145
      vertex -16 -3 9.66025
      vertex -26 -3 9.66025
    endloop
  endfacet
  facet normal 0 -1 0
    outer loop
      vertex -27.6913 -3 8.43145
      vertex -14.3087 -3 8.43145
      vertex -16 -3 9.66025
    endloop
  endfacet
  facet normal 0 -1 0
    outer loop
      vertex -29.0902 -3 6.87785
      vertex -14.3087 -3 8.43145
      vertex -27.6913 -3 8.43145
    endloop
  endfacet
  facet normal 0 -1 0
    outer loop
      vertex -29.0902 -3 6.87785
      vertex -12.9098 -3 6.87785
      vertex -14.3087 -3 8.43145
    endloop
  endfacet
  facet normal 0 -1 0
    outer loop
      vertex -30.1355 -3 5.06737
      vertex -12.9098 -3 6.87785
      vertex -29.0902 -3 6.87785
    endloop
  endfacet
  facet normal 0 -1 0
    outer loop
      vertex -11.1051 -3 2
      vertex -12.9098 -3 6.87785
      vertex -30.1355 -3 5.06737
    endloop
  endfacet
  facet normal 0 -1 0
    outer loop
      vertex -11.1051 -3 2
      vertex -30.1355 -3 5.06737
      vertex -30.7815 -3 3.07912
    endloop
  endfacet
  facet normal 0 -1 0
    outer loop
      vertex -12.9098 -3 6.87785
      vertex -11.1051 -3 2
      vertex -11.8645 -3 5.06737
    endloop
  endfacet
  facet normal 0 -1 0
    outer loop
      vertex -11.8645 -3 5.06737
      vertex -11.1051 -3 2
      vertex -11.2185 -3 3.07912
    endloop
  endfacet
  facet normal 0 -1 0
    outer loop
      vertex -31 -3 1
      vertex -11.1051 -3 2
      vertex -30.7815 -3 3.07912
    endloop
  endfacet
  facet normal 0 -1 0
    outer loop
      vertex -11.1051 -3 0
      vertex -11.1051 -3 2
      vertex -31 -3 1
    endloop
  endfacet
  facet normal 0 -1 0
    outer loop
      vertex -11.1051 -3 2
      vertex -11.1051 -3 0
      vertex -9.48226 -3 2
    endloop
  endfacet
  facet normal 0 -1 -0
    outer loop
      vertex -9.48226 -3 2
      vertex -11.1051 -3 0
      vertex -9.48226 -3 0
    endloop
  endfacet
  facet normal -0.416775 0.705161 0.573625
    outer loop
      vertex -23.6765 3 3.97258
      vertex -26 -3 9.66025
      vertex -23 3 4.4641
    endloop
  endfacet
  facet normal 0.288409 0.705163 -0.647739
    outer loop
      vertex -16 -3 -7.66025
      vertex -19.7639 3 -2.80423
      vertex -19 3 -2.4641
    endloop
  endfacet
  facet normal 0.614057 0.705161 0.354516
    outer loop
      vertex -17.3458 3 2.62695
      vertex -17.7639 3 3.35114
      vertex -12.9098 -3 6.87785
    endloop
  endfacet
  facet normal -0.705162 0.705163 -0.0741073
    outer loop
      vertex -31 -3 1
      vertex -25 2.91064 0.149774
      vertex -30.7815 -3 -1.07912
    endloop
  endfacet
  facet normal -0.705163 0.705156 -0.0741637
    outer loop
      vertex -25 2.91064 0.149774
      vertex -31 -3 1
      vertex -25 2.91385 0.180295
    endloop
  endfacet
  facet normal -0.614048 0.705163 0.354527
    outer loop
      vertex -24.6542 3 2.62695
      vertex -30.1355 -3 5.06737
      vertex -29.0902 -3 6.87785
    endloop
  endfacet
  facet normal 0.288409 0.705163 0.647739
    outer loop
      vertex -19 3 4.4641
      vertex -19.7639 3 4.80423
      vertex -16 -3 9.66025
    endloop
  endfacet
  facet normal 0.614058 0.705161 -0.354515
    outer loop
      vertex -12.9098 -3 -4.87785
      vertex -17.7639 3 -1.35114
      vertex -17.3458 3 -0.626946
    endloop
  endfacet
  facet normal 0.14742 0.705162 -0.693551
    outer loop
      vertex -19.9547 -3 -8.94522
      vertex -20.5819 3 -2.97809
      vertex -17.9098 -3 -8.51056
    endloop
  endfacet
  facet normal -0.288409 0.705163 -0.647739
    outer loop
      vertex -22.2361 3 -2.80423
      vertex -26 -3 -7.66025
      vertex -23 3 -2.4641
    endloop
  endfacet
  facet normal -0.147401 0.705162 0.693556
    outer loop
      vertex -21.4181 3 4.97809
      vertex -24.0902 -3 10.5106
      vertex -22.0453 -3 10.9452
    endloop
  endfacet
  facet normal -0.674308 0.705156 -0.219234
    outer loop
      vertex -25 2.89958 0.1142
      vertex -30.7815 -3 -1.07912
      vertex -25 2.91064 0.149774
    endloop
  endfacet
  facet normal -0.674343 0.705164 -0.2191
    outer loop
      vertex -30.7815 -3 -1.07912
      vertex -25 2.89958 0.1142
      vertex -30.1355 -3 -3.06737
    endloop
  endfacet
  facet normal -0.705162 0.705162 -0.0741117
    outer loop
      vertex -25 2.91385 0.180295
      vertex -31 -3 1
      vertex -25 3 1
    endloop
  endfacet
  facet normal 0.614048 0.705163 -0.354527
    outer loop
      vertex -12.9098 -3 -4.87785
      vertex -17.3458 3 -0.626946
      vertex -11.8645 -3 -3.06737
    endloop
  endfacet
  facet normal 0.416775 0.705161 -0.573625
    outer loop
      vertex -16 -3 -7.66025
      vertex -19 3 -2.4641
      vertex -18.3235 3 -1.97258
    endloop
  endfacet
  facet normal 0.288399 0.705161 -0.647745
    outer loop
      vertex -17.9098 -3 -8.51056
      vertex -19.7639 3 -2.80423
      vertex -16 -3 -7.66025
    endloop
  endfacet
  facet normal -0.614057 0.705161 0.354516
    outer loop
      vertex -24.6542 3 2.62695
      vertex -29.0902 -3 6.87785
      vertex -24.2361 3 3.35114
    endloop
  endfacet
  facet normal 0.614048 0.705163 0.354527
    outer loop
      vertex -11.8645 -3 5.06737
      vertex -17.3458 3 2.62695
      vertex -12.9098 -3 6.87785
    endloop
  endfacet
  facet normal -0.614058 0.705161 -0.354515
    outer loop
      vertex -24.2361 3 -1.35114
      vertex -29.0902 -3 -4.87785
      vertex -24.6542 3 -0.626946
    endloop
  endfacet
  facet normal 0.28841 0.705163 0.647739
    outer loop
      vertex -16 -3 9.66025
      vertex -19.7639 3 4.80423
      vertex -17.9098 -3 10.5106
    endloop
  endfacet
  facet normal 0.526918 0.705163 -0.47445
    outer loop
      vertex -14.3087 -3 -6.43145
      vertex -18.3235 3 -1.97258
      vertex -12.9098 -3 -4.87785
    endloop
  endfacet
  facet normal 0.416766 0.705163 -0.57363
    outer loop
      vertex -16 -3 -7.66025
      vertex -18.3235 3 -1.97258
      vertex -14.3087 -3 -6.43145
    endloop
  endfacet
  facet normal 0.416775 0.705161 0.573625
    outer loop
      vertex -18.3235 3 3.97258
      vertex -19 3 4.4641
      vertex -16 -3 9.66025
    endloop
  endfacet
  facet normal 0.705161 0.705165 -0.0741022
    outer loop
      vertex -11.2185 -3 -1.07912
      vertex -16.2954 2.19027 0
      vertex -11.1051 -3 0
    endloop
  endfacet
  facet normal 0.70516 0.705165 0.0741022
    outer loop
      vertex -11.1051 -3 2
      vertex -16.2954 2.19026 2
      vertex -11.2185 -3 3.07912
    endloop
  endfacet
  facet normal 0.674342 0.705166 -0.2191
    outer loop
      vertex -11.8645 -3 -3.06737
      vertex -16.2954 2.19027 0
      vertex -11.2185 -3 -1.07912
    endloop
  endfacet
  facet normal 0.674335 0.705168 -0.219114
    outer loop
      vertex -16.2954 2.19027 0
      vertex -11.8645 -3 -3.06737
      vertex -16.8157 2.68782 0
    endloop
  endfacet
  facet normal -0.674344 0.705163 0.2191
    outer loop
      vertex -24.6542 3 2.62695
      vertex -30.7815 -3 3.07912
      vertex -30.1355 -3 5.06737
    endloop
  endfacet
  facet normal 0.14741 0.705161 -0.693555
    outer loop
      vertex -17.9098 -3 -8.51056
      vertex -20.5819 3 -2.97809
      vertex -19.7639 3 -2.80423
    endloop
  endfacet
  facet normal -0.416766 0.705163 0.57363
    outer loop
      vertex -23.6765 3 3.97258
      vertex -27.6913 -3 8.43145
      vertex -26 -3 9.66025
    endloop
  endfacet
  facet normal -0.705162 0.705162 0.0741073
    outer loop
      vertex -25 3 1
      vertex -31 -3 1
      vertex -30.7815 -3 3.07912
    endloop
  endfacet
  facet normal -0.288399 0.705161 -0.647745
    outer loop
      vertex -24.0902 -3 -8.51056
      vertex -26 -3 -7.66025
      vertex -22.2361 3 -2.80423
    endloop
  endfacet
  facet normal -0.526918 0.705163 0.47445
    outer loop
      vertex -23.6765 3 3.97258
      vertex -29.0902 -3 6.87785
      vertex -27.6913 -3 8.43145
    endloop
  endfacet
  facet normal 0.147401 0.705162 0.693556
    outer loop
      vertex -17.9098 -3 10.5106
      vertex -20.5819 3 4.97809
      vertex -19.9547 -3 10.9452
    endloop
  endfacet
  facet normal -0.288409 0.705163 0.647739
    outer loop
      vertex -23 3 4.4641
      vertex -26 -3 9.66025
      vertex -22.2361 3 4.80423
    endloop
  endfacet
  facet normal -0.28841 0.705163 0.647739
    outer loop
      vertex -22.2361 3 4.80423
      vertex -26 -3 9.66025
      vertex -24.0902 -3 10.5106
    endloop
  endfacet
  facet normal 0.526903 0.70516 0.474471
    outer loop
      vertex -17.7639 3 3.35114
      vertex -18.3235 3 3.97258
      vertex -12.9098 -3 6.87785
    endloop
  endfacet
  facet normal 0 0.705162 -0.709046
    outer loop
      vertex -19.9547 -3 -8.94522
      vertex -21.4181 3 -2.97809
      vertex -20.5819 3 -2.97809
    endloop
  endfacet
  facet normal 0 0.705162 -0.709046
    outer loop
      vertex -21.4181 3 -2.97809
      vertex -19.9547 -3 -8.94522
      vertex -22.0453 -3 -8.94522
    endloop
  endfacet
  facet normal 0.526903 0.70516 -0.474471
    outer loop
      vertex -12.9098 -3 -4.87785
      vertex -18.3235 3 -1.97258
      vertex -17.7639 3 -1.35114
    endloop
  endfacet
  facet normal -0.14741 0.705163 0.693553
    outer loop
      vertex -22.2361 3 4.80423
      vertex -24.0902 -3 10.5106
      vertex -21.4181 3 4.97809
    endloop
  endfacet
  facet normal 0.674393 0.705112 -0.219116
    outer loop
      vertex -16.8157 2.68782 0
      vertex -17.3458 3 -0.626946
      vertex -17.1421 3 0
    endloop
  endfacet
  facet normal 0.674359 0.705161 -0.219062
    outer loop
      vertex -17.3458 3 -0.626946
      vertex -16.8157 2.68782 0
      vertex -11.8645 -3 -3.06737
    endloop
  endfacet
  facet normal 0.674344 0.705163 0.2191
    outer loop
      vertex -11.2185 -3 3.07912
      vertex -17.3458 3 2.62695
      vertex -11.8645 -3 5.06737
    endloop
  endfacet
  facet normal 0.674353 0.705169 0.219056
    outer loop
      vertex -16.2954 2.19026 2
      vertex -17.3458 3 2.62695
      vertex -11.2185 -3 3.07912
    endloop
  endfacet
  facet normal 0.674363 0.705144 0.219105
    outer loop
      vertex -17.3458 3 2.62695
      vertex -16.2954 2.19026 2
      vertex -17.1421 3 2
    endloop
  endfacet
  facet normal -0.416766 0.705163 -0.57363
    outer loop
      vertex -26 -3 -7.66025
      vertex -27.6913 -3 -6.43145
      vertex -23.6765 3 -1.97258
    endloop
  endfacet
  facet normal -0.614048 0.705163 -0.354527
    outer loop
      vertex -29.0902 -3 -4.87785
      vertex -30.1355 -3 -3.06737
      vertex -24.6542 3 -0.626946
    endloop
  endfacet
  facet normal -0.67437 0.705136 0.219107
    outer loop
      vertex -25 2.8641 2
      vertex -24.6542 3 2.62695
      vertex -24.8579 3 2
    endloop
  endfacet
  facet normal -0.674347 0.705165 0.219088
    outer loop
      vertex -24.6542 3 2.62695
      vertex -25 2.8641 2
      vertex -30.7815 -3 3.07912
    endloop
  endfacet
  facet normal -0.674337 0.705162 0.219124
    outer loop
      vertex -30.7815 -3 3.07912
      vertex -25 2.8641 2
      vertex -25 2.91064 1.85023
    endloop
  endfacet
  facet normal -0.705161 0.705163 0.0741133
    outer loop
      vertex -25 3 1
      vertex -30.7815 -3 3.07912
      vertex -25 2.91064 1.85023
    endloop
  endfacet
  facet normal -0.526903 0.70516 -0.474471
    outer loop
      vertex -23.6765 3 -1.97258
      vertex -29.0902 -3 -4.87785
      vertex -24.2361 3 -1.35114
    endloop
  endfacet
  facet normal -0.526903 0.70516 0.474471
    outer loop
      vertex -24.2361 3 3.35114
      vertex -29.0902 -3 6.87785
      vertex -23.6765 3 3.97258
    endloop
  endfacet
  facet normal -0.14742 0.705162 -0.693551
    outer loop
      vertex -22.0453 -3 -8.94522
      vertex -24.0902 -3 -8.51056
      vertex -21.4181 3 -2.97809
    endloop
  endfacet
  facet normal -0 0.705161 0.709047
    outer loop
      vertex -21.4181 3 4.97809
      vertex -19.9547 -3 10.9452
      vertex -20.5819 3 4.97809
    endloop
  endfacet
  facet normal 0 0.705161 0.709047
    outer loop
      vertex -19.9547 -3 10.9452
      vertex -21.4181 3 4.97809
      vertex -22.0453 -3 10.9452
    endloop
  endfacet
  facet normal 0.14741 0.705163 0.693553
    outer loop
      vertex -19.7639 3 4.80423
      vertex -20.5819 3 4.97809
      vertex -17.9098 -3 10.5106
    endloop
  endfacet
  facet normal -0.67437 0.705136 -0.219108
    outer loop
      vertex -24.8579 3 0
      vertex -24.6542 3 -0.626946
      vertex -25 2.8641 0
    endloop
  endfacet
  facet normal -0.674352 0.705162 -0.219082
    outer loop
      vertex -25 2.8641 0
      vertex -30.1355 -3 -3.06737
      vertex -25 2.89958 0.1142
    endloop
  endfacet
  facet normal -0.674348 0.705163 -0.21909
    outer loop
      vertex -30.1355 -3 -3.06737
      vertex -25 2.8641 0
      vertex -24.6542 3 -0.626946
    endloop
  endfacet
  facet normal -0.14741 0.705161 -0.693555
    outer loop
      vertex -21.4181 3 -2.97809
      vertex -24.0902 -3 -8.51056
      vertex -22.2361 3 -2.80423
    endloop
  endfacet
  facet normal 0.526918 0.705163 0.47445
    outer loop
      vertex -12.9098 -3 6.87785
      vertex -18.3235 3 3.97258
      vertex -14.3087 -3 8.43145
    endloop
  endfacet
  facet normal 0.416766 0.705163 0.57363
    outer loop
      vertex -14.3087 -3 8.43145
      vertex -18.3235 3 3.97258
      vertex -16 -3 9.66025
    endloop
  endfacet
  facet normal -0.526918 0.705163 -0.47445
    outer loop
      vertex -27.6913 -3 -6.43145
      vertex -29.0902 -3 -4.87785
      vertex -23.6765 3 -1.97258
    endloop
  endfacet
  facet normal -0.416775 0.705161 -0.573625
    outer loop
      vertex -23 3 -2.4641
      vertex -26 -3 -7.66025
      vertex -23.6765 3 -1.97258
    endloop
  endfacet
endsolid OpenSCAD_Model
