solid OpenSCAD_Model
  facet normal -0 0 1
    outer loop
      vertex 0 20 40
      vertex 50 0 40
      vertex 50 20 40
    endloop
  endfacet
  facet normal 0 0 1
    outer loop
      vertex 50 0 40
      vertex 0 20 40
      vertex 0 0 40
    endloop
  endfacet
  facet normal 0 0 -1
    outer loop
      vertex 0 0 0
      vertex 50 20 0
      vertex 50 0 0
    endloop
  endfacet
  facet normal -0 0 -1
    outer loop
      vertex 50 20 0
      vertex 0 0 0
      vertex 0 20 0
    endloop
  endfacet
  facet normal 0 -1 0
    outer loop
      vertex 0 0 0
      vertex 50 0 40
      vertex 0 0 40
    endloop
  endfacet
  facet normal 0 -1 -0
    outer loop
      vertex 50 0 40
      vertex 0 0 0
      vertex 50 0 0
    endloop
  endfacet
  facet normal 1 -0 0
    outer loop
      vertex 50 0 40
      vertex 50 20 0
      vertex 50 20 40
    endloop
  endfacet
  facet normal 1 0 0
    outer loop
      vertex 50 20 0
      vertex 50 0 40
      vertex 50 0 0
    endloop
  endfacet
  facet normal 0 1 -0
    outer loop
      vertex 50 20 0
      vertex 0 20 40
      vertex 50 20 40
    endloop
  endfacet
  facet normal 0 1 0
    outer loop
      vertex 0 20 40
      vertex 50 20 0
      vertex 0 20 0
    endloop
  endfacet
  facet normal -1 0 0
    outer loop
      vertex 0 0 0
      vertex 0 20 40
      vertex 0 20 0
    endloop
  endfacet
  facet normal -1 -0 0
    outer loop
      vertex 0 20 40
      vertex 0 0 0
      vertex 0 0 40
    endloop
  endfacet
endsolid OpenSCAD_Model
