solid OpenSCAD_Model
  facet normal -0 0 1
    outer loop
      vertex -20 17.5 1
      vertex 20 -17.5 1
      vertex 20 17.5 1
    endloop
  endfacet
  facet normal 0 0 1
    outer loop
      vertex 20 -17.5 1
      vertex -20 17.5 1
      vertex -20 -17.5 1
    endloop
  endfacet
  facet normal 0 0 -1
    outer loop
      vertex -20 -17.5 -5
      vertex 20 17.5 -5
      vertex 20 -17.5 -5
    endloop
  endfacet
  facet normal -0 0 -1
    outer loop
      vertex 20 17.5 -5
      vertex -20 -17.5 -5
      vertex -20 17.5 -5
    endloop
  endfacet
  facet normal 0 -1 0
    outer loop
      vertex -20 -17.5 -5
      vertex 20 -17.5 1
      vertex -20 -17.5 1
    endloop
  endfacet
  facet normal 0 -1 -0
    outer loop
      vertex 20 -17.5 1
      vertex -20 -17.5 -5
      vertex 20 -17.5 -5
    endloop
  endfacet
  facet normal 1 -0 0
    outer loop
      vertex 20 -17.5 1
      vertex 20 17.5 -5
      vertex 20 17.5 1
    endloop
  endfacet
  facet normal 1 0 0
    outer loop
      vertex 20 17.5 -5
      vertex 20 -17.5 1
      vertex 20 -17.5 -5
    endloop
  endfacet
  facet normal 0 1 -0
    outer loop
      vertex 20 17.5 -5
      vertex -20 17.5 1
      vertex 20 17.5 1
    endloop
  endfacet
  facet normal 0 1 0
    outer loop
      vertex -20 17.5 1
      vertex 20 17.5 -5
      vertex -20 17.5 -5
    endloop
  endfacet
  facet normal -1 0 0
    outer loop
      vertex -20 -17.5 -5
      vertex -20 17.5 1
      vertex -20 17.5 -5
    endloop
  endfacet
  facet normal -1 -0 0
    outer loop
      vertex -20 17.5 1
      vertex -20 -17.5 -5
      vertex -20 -17.5 1
    endloop
  endfacet
endsolid OpenSCAD_Model
