solid OpenSCAD_Model
  facet normal -0 0 1
    outer loop
      vertex -1.04528 9.94522 50
      vertex 0 8.5 50
      vertex 0 9.94522 50
    endloop
  endfacet
  facet normal 0 0 1
    outer loop
      vertex -1.04528 9.94522 50
      vertex -1.42658 7.46352 50
      vertex 0 8.5 50
    endloop
  endfacet
  facet normal -0 0 1
    outer loop
      vertex -5.78647 -0.881678 50
      vertex 0 -5 50
      vertex -5.78647 0.881678 50
    endloop
  endfacet
  facet normal -0 0 1
    outer loop
      vertex -3.09017 9.51056 50
      vertex -1.42658 7.46352 50
      vertex -1.04528 9.94522 50
    endloop
  endfacet
  facet normal -0 0 1
    outer loop
      vertex -0.881678 5.78647 50
      vertex 0 5 50
      vertex 0 5.78647 50
    endloop
  endfacet
  facet normal 0 0 1
    outer loop
      vertex -5.78647 0.881678 50
      vertex 0 5 50
      vertex -0.881678 5.78647 50
    endloop
  endfacet
  facet normal 0 0 1
    outer loop
      vertex 0 5 50
      vertex -5.78647 0.881678 50
      vertex 0 -5 50
    endloop
  endfacet
  facet normal 0 0 1
    outer loop
      vertex 0 -5 50
      vertex -0.881678 -5.78647 50
      vertex 0 -5.78647 50
    endloop
  endfacet
  facet normal 0 0 1
    outer loop
      vertex -5.78647 0.881678 50
      vertex -1.42658 7.46352 50
      vertex -3.09017 9.51056 50
    endloop
  endfacet
  facet normal 0 0 1
    outer loop
      vertex -1.42658 7.46352 50
      vertex -5.78647 0.881678 50
      vertex -0.881678 5.78647 50
    endloop
  endfacet
  facet normal 0 0 1
    outer loop
      vertex 4.6194 1.91342 50
      vertex 4.6194 -1.91342 50
      vertex 5 0 50
    endloop
  endfacet
  facet normal 0 0 1
    outer loop
      vertex 3.53553 3.53553 50
      vertex 4.6194 -1.91342 50
      vertex 4.6194 1.91342 50
    endloop
  endfacet
  facet normal 0 0 1
    outer loop
      vertex 3.53553 3.53553 50
      vertex 3.53553 -3.53553 50
      vertex 4.6194 -1.91342 50
    endloop
  endfacet
  facet normal 0 0 1
    outer loop
      vertex 1.91342 4.6194 50
      vertex 3.53553 -3.53553 50
      vertex 3.53553 3.53553 50
    endloop
  endfacet
  facet normal 0 0 1
    outer loop
      vertex 1.91342 4.6194 50
      vertex 1.91342 -4.6194 50
      vertex 3.53553 -3.53553 50
    endloop
  endfacet
  facet normal 0 0 1
    outer loop
      vertex 0 5 50
      vertex 1.91342 -4.6194 50
      vertex 1.91342 4.6194 50
    endloop
  endfacet
  facet normal 0 0 1
    outer loop
      vertex 1.91342 -4.6194 50
      vertex 0 5 50
      vertex 0 -5 50
    endloop
  endfacet
  facet normal 0 0 1
    outer loop
      vertex 0 -8.5 50
      vertex -1.04528 -9.94522 50
      vertex 0 -9.94522 50
    endloop
  endfacet
  facet normal 0 0 1
    outer loop
      vertex -1.42658 -7.46352 50
      vertex -1.04528 -9.94522 50
      vertex 0 -8.5 50
    endloop
  endfacet
  facet normal 0 0 1
    outer loop
      vertex -1.42658 -7.46352 50
      vertex -3.09017 -9.51056 50
      vertex -1.04528 -9.94522 50
    endloop
  endfacet
  facet normal 0 0 1
    outer loop
      vertex 0 -5 50
      vertex -5.78647 -0.881678 50
      vertex -0.881678 -5.78647 50
    endloop
  endfacet
  facet normal 0 0 1
    outer loop
      vertex -5.78647 0.881678 50
      vertex -3.09017 9.51056 50
      vertex -5 8.66025 50
    endloop
  endfacet
  facet normal 0 0 1
    outer loop
      vertex -6.69131 -7.43145 50
      vertex -0.881678 -5.78647 50
      vertex -5.78647 -0.881678 50
    endloop
  endfacet
  facet normal 0 -0 1
    outer loop
      vertex -5 -8.66025 50
      vertex -0.881678 -5.78647 50
      vertex -6.69131 -7.43145 50
    endloop
  endfacet
  facet normal -0 0 1
    outer loop
      vertex -6.69131 7.43145 50
      vertex -5.78647 0.881678 50
      vertex -5 8.66025 50
    endloop
  endfacet
  facet normal -0 0 1
    outer loop
      vertex -8.09017 5.87785 50
      vertex -5.78647 0.881678 50
      vertex -6.69131 7.43145 50
    endloop
  endfacet
  facet normal 0 0 1
    outer loop
      vertex -5.78647 0.881678 50
      vertex -8.09017 5.87785 50
      vertex -7.46352 1.42658 50
    endloop
  endfacet
  facet normal -0 0 1
    outer loop
      vertex -9.13545 4.06737 50
      vertex -7.46352 1.42658 50
      vertex -8.09017 5.87785 50
    endloop
  endfacet
  facet normal -0 0 1
    outer loop
      vertex -9.78148 2.07912 50
      vertex -7.46352 1.42658 50
      vertex -9.13545 4.06737 50
    endloop
  endfacet
  facet normal 0 0 1
    outer loop
      vertex -1.42658 -7.46352 50
      vertex -5 -8.66025 50
      vertex -3.09017 -9.51056 50
    endloop
  endfacet
  facet normal 0 0 1
    outer loop
      vertex -0.881678 -5.78647 50
      vertex -5 -8.66025 50
      vertex -1.42658 -7.46352 50
    endloop
  endfacet
  facet normal 0 0 1
    outer loop
      vertex -8.09017 -5.87785 50
      vertex -5.78647 -0.881678 50
      vertex -7.46352 -1.42658 50
    endloop
  endfacet
  facet normal 0 0 1
    outer loop
      vertex -5.78647 -0.881678 50
      vertex -8.09017 -5.87785 50
      vertex -6.69131 -7.43145 50
    endloop
  endfacet
  facet normal 0 0 1
    outer loop
      vertex -9.78148 -2.07912 50
      vertex -7.46352 -1.42658 50
      vertex -8.5 0 50
    endloop
  endfacet
  facet normal 0 0 1
    outer loop
      vertex -7.46352 1.42658 50
      vertex -9.78148 2.07912 50
      vertex -8.5 0 50
    endloop
  endfacet
  facet normal 0 0 1
    outer loop
      vertex -7.46352 -1.42658 50
      vertex -9.13545 -4.06737 50
      vertex -8.09017 -5.87785 50
    endloop
  endfacet
  facet normal 0 0 1
    outer loop
      vertex -10 0 50
      vertex -8.5 0 50
      vertex -9.78148 2.07912 50
    endloop
  endfacet
  facet normal 0 0 1
    outer loop
      vertex -7.46352 -1.42658 50
      vertex -9.78148 -2.07912 50
      vertex -9.13545 -4.06737 50
    endloop
  endfacet
  facet normal 0 0 1
    outer loop
      vertex -8.5 0 50
      vertex -10 0 50
      vertex -9.78148 -2.07912 50
    endloop
  endfacet
  facet normal 0 0 -1
    outer loop
      vertex 0 5 20
      vertex -0.881678 5.78647 20
      vertex 0 5.78647 20
    endloop
  endfacet
  facet normal -0 0 -1
    outer loop
      vertex -0.881678 5.78647 20
      vertex -1.91342 4.6194 20
      vertex -1.42658 7.46352 20
    endloop
  endfacet
  facet normal 0 0 -1
    outer loop
      vertex -1.91342 4.6194 20
      vertex -0.881678 5.78647 20
      vertex 0 5 20
    endloop
  endfacet
  facet normal 0 0 -1
    outer loop
      vertex 0 8.5 20
      vertex -1.04528 9.94522 20
      vertex 0 9.94522 20
    endloop
  endfacet
  facet normal 0 0 -1
    outer loop
      vertex -1.42658 7.46352 20
      vertex -1.04528 9.94522 20
      vertex 0 8.5 20
    endloop
  endfacet
  facet normal 0 0 -1
    outer loop
      vertex -5 8.66025 20
      vertex -1.42658 7.46352 20
      vertex -1.91342 4.6194 20
    endloop
  endfacet
  facet normal 0 0 -1
    outer loop
      vertex -1.42658 7.46352 20
      vertex -3.09017 9.51056 20
      vertex -1.04528 9.94522 20
    endloop
  endfacet
  facet normal 0 0 -1
    outer loop
      vertex -5 8.66025 20
      vertex -1.91342 4.6194 20
      vertex -3.53553 3.53553 20
    endloop
  endfacet
  facet normal 0 0 -1
    outer loop
      vertex -8.09017 5.87785 20
      vertex -3.53553 3.53553 20
      vertex -4.6194 1.91342 20
    endloop
  endfacet
  facet normal 0 0 -1
    outer loop
      vertex -1.42658 7.46352 20
      vertex -5 8.66025 20
      vertex -3.09017 9.51056 20
    endloop
  endfacet
  facet normal 0 0 -1
    outer loop
      vertex -5.78647 0.881678 20
      vertex -4.6194 1.91342 20
      vertex -5 0 20
    endloop
  endfacet
  facet normal 0 0 -1
    outer loop
      vertex -1.04528 -9.94522 20
      vertex 0 -8.5 20
      vertex 0 -9.94522 20
    endloop
  endfacet
  facet normal 0 0 -1
    outer loop
      vertex -1.04528 -9.94522 20
      vertex -1.42658 -7.46352 20
      vertex 0 -8.5 20
    endloop
  endfacet
  facet normal 0 0 -1
    outer loop
      vertex -3.09017 -9.51056 20
      vertex -1.42658 -7.46352 20
      vertex -1.04528 -9.94522 20
    endloop
  endfacet
  facet normal 0 0 -1
    outer loop
      vertex -5 -8.66025 20
      vertex -1.42658 -7.46352 20
      vertex -3.09017 -9.51056 20
    endloop
  endfacet
  facet normal -0 0 -1
    outer loop
      vertex -1.42658 -7.46352 20
      vertex -5 -8.66025 20
      vertex -1.91342 -4.6194 20
    endloop
  endfacet
  facet normal -0 0 -1
    outer loop
      vertex -1.91342 -4.6194 20
      vertex -5 -8.66025 20
      vertex -3.53553 -3.53553 20
    endloop
  endfacet
  facet normal 0 0 -1
    outer loop
      vertex -6.69131 -7.43145 20
      vertex -3.53553 -3.53553 20
      vertex -5 -8.66025 20
    endloop
  endfacet
  facet normal 0 0 -1
    outer loop
      vertex -8.09017 -5.87785 20
      vertex -3.53553 -3.53553 20
      vertex -6.69131 -7.43145 20
    endloop
  endfacet
  facet normal 0 0 -1
    outer loop
      vertex -4.6194 -1.91342 20
      vertex -5.78647 -0.881678 20
      vertex -5 0 20
    endloop
  endfacet
  facet normal 0 0 -1
    outer loop
      vertex -5.78647 0.881678 20
      vertex -5 0 20
      vertex -5.78647 -0.881678 20
    endloop
  endfacet
  facet normal -0 0 -1
    outer loop
      vertex -3.53553 -3.53553 20
      vertex -8.09017 -5.87785 20
      vertex -4.6194 -1.91342 20
    endloop
  endfacet
  facet normal 0 -0 -1
    outer loop
      vertex -7.46352 -1.42658 20
      vertex -4.6194 -1.91342 20
      vertex -8.09017 -5.87785 20
    endloop
  endfacet
  facet normal 0 0 -1
    outer loop
      vertex -4.6194 -1.91342 20
      vertex -7.46352 -1.42658 20
      vertex -5.78647 -0.881678 20
    endloop
  endfacet
  facet normal 0 0 -1
    outer loop
      vertex -9.13545 -4.06737 20
      vertex -7.46352 -1.42658 20
      vertex -8.09017 -5.87785 20
    endloop
  endfacet
  facet normal 0 0 -1
    outer loop
      vertex -9.78148 -2.07912 20
      vertex -7.46352 -1.42658 20
      vertex -9.13545 -4.06737 20
    endloop
  endfacet
  facet normal 0 0 -1
    outer loop
      vertex -0.881678 -5.78647 20
      vertex 0 -5 20
      vertex 0 -5.78647 20
    endloop
  endfacet
  facet normal 0 0 -1
    outer loop
      vertex -0.881678 -5.78647 20
      vertex -1.91342 -4.6194 20
      vertex 0 -5 20
    endloop
  endfacet
  facet normal 0 0 -1
    outer loop
      vertex -1.91342 -4.6194 20
      vertex -0.881678 -5.78647 20
      vertex -1.42658 -7.46352 20
    endloop
  endfacet
  facet normal 0 0 -1
    outer loop
      vertex -7.46352 1.42658 20
      vertex -4.6194 1.91342 20
      vertex -5.78647 0.881678 20
    endloop
  endfacet
  facet normal 0 0 -1
    outer loop
      vertex -3.53553 3.53553 20
      vertex -6.69131 7.43145 20
      vertex -5 8.66025 20
    endloop
  endfacet
  facet normal -0 0 -1
    outer loop
      vertex -4.6194 1.91342 20
      vertex -7.46352 1.42658 20
      vertex -8.09017 5.87785 20
    endloop
  endfacet
  facet normal 0 0 -1
    outer loop
      vertex -3.53553 3.53553 20
      vertex -8.09017 5.87785 20
      vertex -6.69131 7.43145 20
    endloop
  endfacet
  facet normal 0 0 -1
    outer loop
      vertex -9.78148 2.07912 20
      vertex -7.46352 1.42658 20
      vertex -8.5 0 20
    endloop
  endfacet
  facet normal -0 0 -1
    outer loop
      vertex -7.46352 -1.42658 20
      vertex -9.78148 -2.07912 20
      vertex -8.5 0 20
    endloop
  endfacet
  facet normal 0 0 -1
    outer loop
      vertex -7.46352 1.42658 20
      vertex -9.13545 4.06737 20
      vertex -8.09017 5.87785 20
    endloop
  endfacet
  facet normal 0 0 -1
    outer loop
      vertex -10 0 20
      vertex -8.5 0 20
      vertex -9.78148 -2.07912 20
    endloop
  endfacet
  facet normal 0 0 -1
    outer loop
      vertex -7.46352 1.42658 20
      vertex -9.78148 2.07912 20
      vertex -9.13545 4.06737 20
    endloop
  endfacet
  facet normal 0 0 -1
    outer loop
      vertex -8.5 0 20
      vertex -10 0 20
      vertex -9.78148 2.07912 20
    endloop
  endfacet
  facet normal 0.587789 -0.809015 0
    outer loop
      vertex -1.42658 7.46352 20
      vertex 0 8.5 50
      vertex -1.42658 7.46352 50
    endloop
  endfacet
  facet normal 0.587789 -0.809015 0
    outer loop
      vertex 0 8.5 50
      vertex -1.42658 7.46352 20
      vertex 0 8.5 20
    endloop
  endfacet
  facet normal 0 1 -0
    outer loop
      vertex 0 5.78647 20
      vertex -0.881678 5.78647 50
      vertex 0 5.78647 50
    endloop
  endfacet
  facet normal 0 1 0
    outer loop
      vertex -0.881678 5.78647 50
      vertex 0 5.78647 20
      vertex -0.881678 5.78647 20
    endloop
  endfacet
  facet normal 0.951057 0.309015 0
    outer loop
      vertex -0.881678 5.78647 50
      vertex -1.42658 7.46352 20
      vertex -1.42658 7.46352 50
    endloop
  endfacet
  facet normal 0.951057 0.309015 0
    outer loop
      vertex -1.42658 7.46352 20
      vertex -0.881678 5.78647 50
      vertex -0.881678 5.78647 20
    endloop
  endfacet
  facet normal 0.809015 0.587789 0
    outer loop
      vertex -7.46352 -1.42658 50
      vertex -8.5 0 20
      vertex -8.5 0 50
    endloop
  endfacet
  facet normal 0.809015 0.587789 0
    outer loop
      vertex -8.5 0 20
      vertex -7.46352 -1.42658 50
      vertex -7.46352 -1.42658 20
    endloop
  endfacet
  facet normal -1 0 0
    outer loop
      vertex -5.78647 -0.881678 20
      vertex -5.78647 0.881678 50
      vertex -5.78647 0.881678 20
    endloop
  endfacet
  facet normal -1 -0 0
    outer loop
      vertex -5.78647 0.881678 50
      vertex -5.78647 -0.881678 20
      vertex -5.78647 -0.881678 50
    endloop
  endfacet
  facet normal -0.309015 -0.951057 0
    outer loop
      vertex -7.46352 1.42658 20
      vertex -5.78647 0.881678 50
      vertex -7.46352 1.42658 50
    endloop
  endfacet
  facet normal -0.309015 -0.951057 -0
    outer loop
      vertex -5.78647 0.881678 50
      vertex -7.46352 1.42658 20
      vertex -5.78647 0.881678 20
    endloop
  endfacet
  facet normal 0.809015 -0.587789 0
    outer loop
      vertex -8.5 0 50
      vertex -7.46352 1.42658 20
      vertex -7.46352 1.42658 50
    endloop
  endfacet
  facet normal 0.809015 -0.587789 0
    outer loop
      vertex -7.46352 1.42658 20
      vertex -8.5 0 50
      vertex -8.5 0 20
    endloop
  endfacet
  facet normal -0.309015 0.951057 0
    outer loop
      vertex -5.78647 -0.881678 20
      vertex -7.46352 -1.42658 50
      vertex -5.78647 -0.881678 50
    endloop
  endfacet
  facet normal -0.309015 0.951057 0
    outer loop
      vertex -7.46352 -1.42658 50
      vertex -5.78647 -0.881678 20
      vertex -7.46352 -1.42658 20
    endloop
  endfacet
  facet normal 0 -1 0
    outer loop
      vertex -0.881678 -5.78647 20
      vertex 0 -5.78647 50
      vertex -0.881678 -5.78647 50
    endloop
  endfacet
  facet normal 0 -1 -0
    outer loop
      vertex 0 -5.78647 50
      vertex -0.881678 -5.78647 20
      vertex 0 -5.78647 20
    endloop
  endfacet
  facet normal 0.951057 -0.309015 0
    outer loop
      vertex -1.42658 -7.46352 50
      vertex -0.881678 -5.78647 20
      vertex -0.881678 -5.78647 50
    endloop
  endfacet
  facet normal 0.951057 -0.309015 0
    outer loop
      vertex -0.881678 -5.78647 20
      vertex -1.42658 -7.46352 50
      vertex -1.42658 -7.46352 20
    endloop
  endfacet
  facet normal 0.587789 0.809015 -0
    outer loop
      vertex 0 -8.5 20
      vertex -1.42658 -7.46352 50
      vertex 0 -8.5 50
    endloop
  endfacet
  facet normal 0.587789 0.809015 0
    outer loop
      vertex -1.42658 -7.46352 50
      vertex 0 -8.5 20
      vertex -1.42658 -7.46352 20
    endloop
  endfacet
  facet normal -0.743147 -0.669129 0
    outer loop
      vertex -6.69131 -7.43145 20
      vertex -8.09017 -5.87785 50
      vertex -8.09017 -5.87785 20
    endloop
  endfacet
  facet normal -0.743147 -0.669129 0
    outer loop
      vertex -8.09017 -5.87785 50
      vertex -6.69131 -7.43145 20
      vertex -6.69131 -7.43145 50
    endloop
  endfacet
  facet normal -0.406736 -0.913546 0
    outer loop
      vertex -5 -8.66025 20
      vertex -3.09017 -9.51056 50
      vertex -5 -8.66025 50
    endloop
  endfacet
  facet normal -0.406736 -0.913546 -0
    outer loop
      vertex -3.09017 -9.51056 50
      vertex -5 -8.66025 20
      vertex -3.09017 -9.51056 20
    endloop
  endfacet
  facet normal -0.587783 -0.809019 0
    outer loop
      vertex -6.69131 -7.43145 20
      vertex -5 -8.66025 50
      vertex -6.69131 -7.43145 50
    endloop
  endfacet
  facet normal -0.587783 -0.809019 -0
    outer loop
      vertex -5 -8.66025 50
      vertex -6.69131 -7.43145 20
      vertex -5 -8.66025 20
    endloop
  endfacet
  facet normal -0.743147 0.669129 0
    outer loop
      vertex -8.09017 5.87785 20
      vertex -6.69131 7.43145 50
      vertex -6.69131 7.43145 20
    endloop
  endfacet
  facet normal -0.743147 0.669129 0
    outer loop
      vertex -6.69131 7.43145 50
      vertex -8.09017 5.87785 20
      vertex -8.09017 5.87785 50
    endloop
  endfacet
  facet normal 0 1 -0
    outer loop
      vertex 0 9.94522 20
      vertex -1.04528 9.94522 50
      vertex 0 9.94522 50
    endloop
  endfacet
  facet normal 0 1 0
    outer loop
      vertex -1.04528 9.94522 50
      vertex 0 9.94522 20
      vertex -1.04528 9.94522 20
    endloop
  endfacet
  facet normal -0.951055 0.309021 0
    outer loop
      vertex -9.78148 2.07912 20
      vertex -9.13545 4.06737 50
      vertex -9.13545 4.06737 20
    endloop
  endfacet
  facet normal -0.951055 0.309021 0
    outer loop
      vertex -9.13545 4.06737 50
      vertex -9.78148 2.07912 20
      vertex -9.78148 2.07912 50
    endloop
  endfacet
  facet normal -0.951055 -0.309021 0
    outer loop
      vertex -9.13545 -4.06737 20
      vertex -9.78148 -2.07912 50
      vertex -9.78148 -2.07912 20
    endloop
  endfacet
  facet normal -0.951055 -0.309021 0
    outer loop
      vertex -9.78148 -2.07912 50
      vertex -9.13545 -4.06737 20
      vertex -9.13545 -4.06737 50
    endloop
  endfacet
  facet normal -0.406736 0.913546 0
    outer loop
      vertex -3.09017 9.51056 20
      vertex -5 8.66025 50
      vertex -3.09017 9.51056 50
    endloop
  endfacet
  facet normal -0.406736 0.913546 0
    outer loop
      vertex -5 8.66025 50
      vertex -3.09017 9.51056 20
      vertex -5 8.66025 20
    endloop
  endfacet
  facet normal -0.207914 -0.978147 0
    outer loop
      vertex -3.09017 -9.51056 20
      vertex -1.04528 -9.94522 50
      vertex -3.09017 -9.51056 50
    endloop
  endfacet
  facet normal -0.207914 -0.978147 -0
    outer loop
      vertex -1.04528 -9.94522 50
      vertex -3.09017 -9.51056 20
      vertex -1.04528 -9.94522 20
    endloop
  endfacet
  facet normal -0.994522 -0.104526 0
    outer loop
      vertex -9.78148 -2.07912 20
      vertex -10 0 50
      vertex -10 0 20
    endloop
  endfacet
  facet normal -0.994522 -0.104526 0
    outer loop
      vertex -10 0 50
      vertex -9.78148 -2.07912 20
      vertex -9.78148 -2.07912 50
    endloop
  endfacet
  facet normal -0.866026 -0.5 0
    outer loop
      vertex -8.09017 -5.87785 20
      vertex -9.13545 -4.06737 50
      vertex -9.13545 -4.06737 20
    endloop
  endfacet
  facet normal -0.866026 -0.5 0
    outer loop
      vertex -9.13545 -4.06737 50
      vertex -8.09017 -5.87785 20
      vertex -8.09017 -5.87785 50
    endloop
  endfacet
  facet normal -0.866026 0.5 0
    outer loop
      vertex -9.13545 4.06737 20
      vertex -8.09017 5.87785 50
      vertex -8.09017 5.87785 20
    endloop
  endfacet
  facet normal -0.866026 0.5 0
    outer loop
      vertex -8.09017 5.87785 50
      vertex -9.13545 4.06737 20
      vertex -9.13545 4.06737 50
    endloop
  endfacet
  facet normal -0.587783 0.809019 0
    outer loop
      vertex -5 8.66025 20
      vertex -6.69131 7.43145 50
      vertex -5 8.66025 50
    endloop
  endfacet
  facet normal -0.587783 0.809019 0
    outer loop
      vertex -6.69131 7.43145 50
      vertex -5 8.66025 20
      vertex -6.69131 7.43145 20
    endloop
  endfacet
  facet normal -0.207914 0.978147 0
    outer loop
      vertex -1.04528 9.94522 20
      vertex -3.09017 9.51056 50
      vertex -1.04528 9.94522 50
    endloop
  endfacet
  facet normal -0.207914 0.978147 0
    outer loop
      vertex -3.09017 9.51056 50
      vertex -1.04528 9.94522 20
      vertex -3.09017 9.51056 20
    endloop
  endfacet
  facet normal 0 -1 0
    outer loop
      vertex -1.04528 -9.94522 20
      vertex 0 -9.94522 50
      vertex -1.04528 -9.94522 50
    endloop
  endfacet
  facet normal 0 -1 -0
    outer loop
      vertex 0 -9.94522 50
      vertex -1.04528 -9.94522 20
      vertex 0 -9.94522 20
    endloop
  endfacet
  facet normal -0.994522 0.104526 0
    outer loop
      vertex -10 0 20
      vertex -9.78148 2.07912 50
      vertex -9.78148 2.07912 20
    endloop
  endfacet
  facet normal -0.994522 0.104526 0
    outer loop
      vertex -9.78148 2.07912 50
      vertex -10 0 20
      vertex -10 0 50
    endloop
  endfacet
  facet normal 1 -0 0
    outer loop
      vertex 0 8.5 50
      vertex 0 9.94522 20
      vertex 0 9.94522 50
    endloop
  endfacet
  facet normal 1 0 0
    outer loop
      vertex 0 9.94522 20
      vertex 0 8.5 50
      vertex 0 8.5 20
    endloop
  endfacet
  facet normal 1 -0 0
    outer loop
      vertex 0 -9.94522 50
      vertex 0 -8.5 20
      vertex 0 -8.5 50
    endloop
  endfacet
  facet normal 1 0 0
    outer loop
      vertex 0 -8.5 20
      vertex 0 -9.94522 50
      vertex 0 -9.94522 20
    endloop
  endfacet
  facet normal 1 -0 0
    outer loop
      vertex 0 -5.78647 50
      vertex 0 -5 20
      vertex 0 -5 50
    endloop
  endfacet
  facet normal 1 0 0
    outer loop
      vertex 0 -5 20
      vertex 0 -5.78647 50
      vertex 0 -5.78647 20
    endloop
  endfacet
  facet normal 1 -0 0
    outer loop
      vertex 0 5 50
      vertex 0 5.78647 20
      vertex 0 5.78647 50
    endloop
  endfacet
  facet normal 1 0 0
    outer loop
      vertex 0 5.78647 20
      vertex 0 5 50
      vertex 0 5 20
    endloop
  endfacet
  facet normal 0 0 1
    outer loop
      vertex 0 -5 -20
      vertex -0.881678 -5.78647 -20
      vertex 0 -5.78647 -20
    endloop
  endfacet
  facet normal 0 0 1
    outer loop
      vertex -0.881678 -5.78647 -20
      vertex -1.91342 -4.6194 -20
      vertex -1.42658 -7.46352 -20
    endloop
  endfacet
  facet normal 0 0 1
    outer loop
      vertex -1.91342 -4.6194 -20
      vertex -0.881678 -5.78647 -20
      vertex 0 -5 -20
    endloop
  endfacet
  facet normal 0 0 1
    outer loop
      vertex 0 -8.5 -20
      vertex -1.04528 -9.94522 -20
      vertex 0 -9.94522 -20
    endloop
  endfacet
  facet normal 0 0 1
    outer loop
      vertex -1.42658 -7.46352 -20
      vertex -1.04528 -9.94522 -20
      vertex 0 -8.5 -20
    endloop
  endfacet
  facet normal 0 0 1
    outer loop
      vertex -5 -8.66025 -20
      vertex -1.42658 -7.46352 -20
      vertex -1.91342 -4.6194 -20
    endloop
  endfacet
  facet normal 0 0 1
    outer loop
      vertex -1.42658 -7.46352 -20
      vertex -3.09017 -9.51056 -20
      vertex -1.04528 -9.94522 -20
    endloop
  endfacet
  facet normal 0 0 1
    outer loop
      vertex -5 -8.66025 -20
      vertex -1.91342 -4.6194 -20
      vertex -3.53553 -3.53553 -20
    endloop
  endfacet
  facet normal 0 0 1
    outer loop
      vertex -8.09017 -5.87785 -20
      vertex -3.53553 -3.53553 -20
      vertex -4.6194 -1.91342 -20
    endloop
  endfacet
  facet normal 0 0 1
    outer loop
      vertex -1.42658 -7.46352 -20
      vertex -5 -8.66025 -20
      vertex -3.09017 -9.51056 -20
    endloop
  endfacet
  facet normal -0 0 1
    outer loop
      vertex -5.78647 -0.881678 -20
      vertex -4.6194 -1.91342 -20
      vertex -5 0 -20
    endloop
  endfacet
  facet normal -0 0 1
    outer loop
      vertex -1.04528 9.94522 -20
      vertex 0 8.5 -20
      vertex 0 9.94522 -20
    endloop
  endfacet
  facet normal 0 0 1
    outer loop
      vertex -1.04528 9.94522 -20
      vertex -1.42658 7.46352 -20
      vertex 0 8.5 -20
    endloop
  endfacet
  facet normal -0 0 1
    outer loop
      vertex -3.09017 9.51056 -20
      vertex -1.42658 7.46352 -20
      vertex -1.04528 9.94522 -20
    endloop
  endfacet
  facet normal -0 0 1
    outer loop
      vertex -5 8.66025 -20
      vertex -1.42658 7.46352 -20
      vertex -3.09017 9.51056 -20
    endloop
  endfacet
  facet normal 0 0 1
    outer loop
      vertex -1.42658 7.46352 -20
      vertex -5 8.66025 -20
      vertex -1.91342 4.6194 -20
    endloop
  endfacet
  facet normal 0 0 1
    outer loop
      vertex -1.91342 4.6194 -20
      vertex -5 8.66025 -20
      vertex -3.53553 3.53553 -20
    endloop
  endfacet
  facet normal -0 0 1
    outer loop
      vertex -6.69131 7.43145 -20
      vertex -3.53553 3.53553 -20
      vertex -5 8.66025 -20
    endloop
  endfacet
  facet normal -0 0 1
    outer loop
      vertex -8.09017 5.87785 -20
      vertex -3.53553 3.53553 -20
      vertex -6.69131 7.43145 -20
    endloop
  endfacet
  facet normal 0 0 1
    outer loop
      vertex -4.6194 1.91342 -20
      vertex -5.78647 0.881678 -20
      vertex -5 0 -20
    endloop
  endfacet
  facet normal 0 0 1
    outer loop
      vertex -5.78647 -0.881678 -20
      vertex -5 0 -20
      vertex -5.78647 0.881678 -20
    endloop
  endfacet
  facet normal 0 0 1
    outer loop
      vertex -3.53553 3.53553 -20
      vertex -8.09017 5.87785 -20
      vertex -4.6194 1.91342 -20
    endloop
  endfacet
  facet normal 0 -0 1
    outer loop
      vertex -7.46352 1.42658 -20
      vertex -4.6194 1.91342 -20
      vertex -8.09017 5.87785 -20
    endloop
  endfacet
  facet normal 0 0 1
    outer loop
      vertex -4.6194 1.91342 -20
      vertex -7.46352 1.42658 -20
      vertex -5.78647 0.881678 -20
    endloop
  endfacet
  facet normal -0 0 1
    outer loop
      vertex -9.13545 4.06737 -20
      vertex -7.46352 1.42658 -20
      vertex -8.09017 5.87785 -20
    endloop
  endfacet
  facet normal -0 0 1
    outer loop
      vertex -9.78148 2.07912 -20
      vertex -7.46352 1.42658 -20
      vertex -9.13545 4.06737 -20
    endloop
  endfacet
  facet normal -0 0 1
    outer loop
      vertex -0.881678 5.78647 -20
      vertex 0 5 -20
      vertex 0 5.78647 -20
    endloop
  endfacet
  facet normal 0 0 1
    outer loop
      vertex -0.881678 5.78647 -20
      vertex -1.91342 4.6194 -20
      vertex 0 5 -20
    endloop
  endfacet
  facet normal 0 0 1
    outer loop
      vertex -1.91342 4.6194 -20
      vertex -0.881678 5.78647 -20
      vertex -1.42658 7.46352 -20
    endloop
  endfacet
  facet normal -0 0 1
    outer loop
      vertex -7.46352 -1.42658 -20
      vertex -4.6194 -1.91342 -20
      vertex -5.78647 -0.881678 -20
    endloop
  endfacet
  facet normal 0 0 1
    outer loop
      vertex -3.53553 -3.53553 -20
      vertex -6.69131 -7.43145 -20
      vertex -5 -8.66025 -20
    endloop
  endfacet
  facet normal 0 0 1
    outer loop
      vertex -4.6194 -1.91342 -20
      vertex -7.46352 -1.42658 -20
      vertex -8.09017 -5.87785 -20
    endloop
  endfacet
  facet normal 0 0 1
    outer loop
      vertex -3.53553 -3.53553 -20
      vertex -8.09017 -5.87785 -20
      vertex -6.69131 -7.43145 -20
    endloop
  endfacet
  facet normal 0 0 1
    outer loop
      vertex -9.78148 -2.07912 -20
      vertex -7.46352 -1.42658 -20
      vertex -8.5 0 -20
    endloop
  endfacet
  facet normal 0 0 1
    outer loop
      vertex -7.46352 1.42658 -20
      vertex -9.78148 2.07912 -20
      vertex -8.5 0 -20
    endloop
  endfacet
  facet normal 0 0 1
    outer loop
      vertex -7.46352 -1.42658 -20
      vertex -9.13545 -4.06737 -20
      vertex -8.09017 -5.87785 -20
    endloop
  endfacet
  facet normal 0 0 1
    outer loop
      vertex -10 0 -20
      vertex -8.5 0 -20
      vertex -9.78148 2.07912 -20
    endloop
  endfacet
  facet normal 0 0 1
    outer loop
      vertex -7.46352 -1.42658 -20
      vertex -9.78148 -2.07912 -20
      vertex -9.13545 -4.06737 -20
    endloop
  endfacet
  facet normal 0 0 1
    outer loop
      vertex -8.5 0 -20
      vertex -10 0 -20
      vertex -9.78148 -2.07912 -20
    endloop
  endfacet
  facet normal 0 0 -1
    outer loop
      vertex -1.04528 -9.94522 -50
      vertex 0 -8.5 -50
      vertex 0 -9.94522 -50
    endloop
  endfacet
  facet normal 0 0 -1
    outer loop
      vertex -1.04528 -9.94522 -50
      vertex -1.42658 -7.46352 -50
      vertex 0 -8.5 -50
    endloop
  endfacet
  facet normal 0 0 -1
    outer loop
      vertex -5.78647 0.881678 -50
      vertex 0 5 -50
      vertex -5.78647 -0.881678 -50
    endloop
  endfacet
  facet normal 0 0 -1
    outer loop
      vertex -3.09017 -9.51056 -50
      vertex -1.42658 -7.46352 -50
      vertex -1.04528 -9.94522 -50
    endloop
  endfacet
  facet normal 0 0 -1
    outer loop
      vertex -0.881678 -5.78647 -50
      vertex 0 -5 -50
      vertex 0 -5.78647 -50
    endloop
  endfacet
  facet normal 0 0 -1
    outer loop
      vertex -5.78647 -0.881678 -50
      vertex 0 -5 -50
      vertex -0.881678 -5.78647 -50
    endloop
  endfacet
  facet normal 0 0 -1
    outer loop
      vertex 0 -5 -50
      vertex -5.78647 -0.881678 -50
      vertex 0 5 -50
    endloop
  endfacet
  facet normal 0 0 -1
    outer loop
      vertex 0 5 -50
      vertex -0.881678 5.78647 -50
      vertex 0 5.78647 -50
    endloop
  endfacet
  facet normal 0 0 -1
    outer loop
      vertex -5.78647 -0.881678 -50
      vertex -1.42658 -7.46352 -50
      vertex -3.09017 -9.51056 -50
    endloop
  endfacet
  facet normal 0 0 -1
    outer loop
      vertex -1.42658 -7.46352 -50
      vertex -5.78647 -0.881678 -50
      vertex -0.881678 -5.78647 -50
    endloop
  endfacet
  facet normal 0 0 -1
    outer loop
      vertex 4.6194 -1.91342 -50
      vertex 4.6194 1.91342 -50
      vertex 5 0 -50
    endloop
  endfacet
  facet normal 0 0 -1
    outer loop
      vertex 3.53553 -3.53553 -50
      vertex 4.6194 1.91342 -50
      vertex 4.6194 -1.91342 -50
    endloop
  endfacet
  facet normal 0 0 -1
    outer loop
      vertex 3.53553 -3.53553 -50
      vertex 3.53553 3.53553 -50
      vertex 4.6194 1.91342 -50
    endloop
  endfacet
  facet normal 0 0 -1
    outer loop
      vertex 1.91342 -4.6194 -50
      vertex 3.53553 3.53553 -50
      vertex 3.53553 -3.53553 -50
    endloop
  endfacet
  facet normal 0 0 -1
    outer loop
      vertex 1.91342 -4.6194 -50
      vertex 1.91342 4.6194 -50
      vertex 3.53553 3.53553 -50
    endloop
  endfacet
  facet normal 0 0 -1
    outer loop
      vertex 0 -5 -50
      vertex 1.91342 4.6194 -50
      vertex 1.91342 -4.6194 -50
    endloop
  endfacet
  facet normal -0 0 -1
    outer loop
      vertex 1.91342 4.6194 -50
      vertex 0 -5 -50
      vertex 0 5 -50
    endloop
  endfacet
  facet normal 0 0 -1
    outer loop
      vertex 0 8.5 -50
      vertex -1.04528 9.94522 -50
      vertex 0 9.94522 -50
    endloop
  endfacet
  facet normal 0 0 -1
    outer loop
      vertex -1.42658 7.46352 -50
      vertex -1.04528 9.94522 -50
      vertex 0 8.5 -50
    endloop
  endfacet
  facet normal 0 0 -1
    outer loop
      vertex -1.42658 7.46352 -50
      vertex -3.09017 9.51056 -50
      vertex -1.04528 9.94522 -50
    endloop
  endfacet
  facet normal -0 0 -1
    outer loop
      vertex 0 5 -50
      vertex -5.78647 0.881678 -50
      vertex -0.881678 5.78647 -50
    endloop
  endfacet
  facet normal 0 0 -1
    outer loop
      vertex -5.78647 -0.881678 -50
      vertex -3.09017 -9.51056 -50
      vertex -5 -8.66025 -50
    endloop
  endfacet
  facet normal 0 0 -1
    outer loop
      vertex -6.69131 7.43145 -50
      vertex -0.881678 5.78647 -50
      vertex -5.78647 0.881678 -50
    endloop
  endfacet
  facet normal 0 -0 -1
    outer loop
      vertex -5 8.66025 -50
      vertex -0.881678 5.78647 -50
      vertex -6.69131 7.43145 -50
    endloop
  endfacet
  facet normal 0 0 -1
    outer loop
      vertex -6.69131 -7.43145 -50
      vertex -5.78647 -0.881678 -50
      vertex -5 -8.66025 -50
    endloop
  endfacet
  facet normal 0 0 -1
    outer loop
      vertex -8.09017 -5.87785 -50
      vertex -5.78647 -0.881678 -50
      vertex -6.69131 -7.43145 -50
    endloop
  endfacet
  facet normal 0 0 -1
    outer loop
      vertex -5.78647 -0.881678 -50
      vertex -8.09017 -5.87785 -50
      vertex -7.46352 -1.42658 -50
    endloop
  endfacet
  facet normal 0 0 -1
    outer loop
      vertex -9.13545 -4.06737 -50
      vertex -7.46352 -1.42658 -50
      vertex -8.09017 -5.87785 -50
    endloop
  endfacet
  facet normal 0 0 -1
    outer loop
      vertex -9.78148 -2.07912 -50
      vertex -7.46352 -1.42658 -50
      vertex -9.13545 -4.06737 -50
    endloop
  endfacet
  facet normal 0 0 -1
    outer loop
      vertex -1.42658 7.46352 -50
      vertex -5 8.66025 -50
      vertex -3.09017 9.51056 -50
    endloop
  endfacet
  facet normal 0 0 -1
    outer loop
      vertex -0.881678 5.78647 -50
      vertex -5 8.66025 -50
      vertex -1.42658 7.46352 -50
    endloop
  endfacet
  facet normal 0 0 -1
    outer loop
      vertex -8.09017 5.87785 -50
      vertex -5.78647 0.881678 -50
      vertex -7.46352 1.42658 -50
    endloop
  endfacet
  facet normal 0 0 -1
    outer loop
      vertex -5.78647 0.881678 -50
      vertex -8.09017 5.87785 -50
      vertex -6.69131 7.43145 -50
    endloop
  endfacet
  facet normal 0 0 -1
    outer loop
      vertex -9.78148 2.07912 -50
      vertex -7.46352 1.42658 -50
      vertex -8.5 0 -50
    endloop
  endfacet
  facet normal -0 0 -1
    outer loop
      vertex -7.46352 -1.42658 -50
      vertex -9.78148 -2.07912 -50
      vertex -8.5 0 -50
    endloop
  endfacet
  facet normal 0 0 -1
    outer loop
      vertex -7.46352 1.42658 -50
      vertex -9.13545 4.06737 -50
      vertex -8.09017 5.87785 -50
    endloop
  endfacet
  facet normal 0 0 -1
    outer loop
      vertex -10 0 -50
      vertex -8.5 0 -50
      vertex -9.78148 -2.07912 -50
    endloop
  endfacet
  facet normal 0 0 -1
    outer loop
      vertex -7.46352 1.42658 -50
      vertex -9.78148 2.07912 -50
      vertex -9.13545 4.06737 -50
    endloop
  endfacet
  facet normal 0 0 -1
    outer loop
      vertex -8.5 0 -50
      vertex -10 0 -50
      vertex -9.78148 2.07912 -50
    endloop
  endfacet
  facet normal 0.587789 -0.809015 0
    outer loop
      vertex -1.42658 7.46352 -50
      vertex 0 8.5 -20
      vertex -1.42658 7.46352 -20
    endloop
  endfacet
  facet normal 0.587789 -0.809015 0
    outer loop
      vertex 0 8.5 -20
      vertex -1.42658 7.46352 -50
      vertex 0 8.5 -50
    endloop
  endfacet
  facet normal 0 1 -0
    outer loop
      vertex 0 5.78647 -50
      vertex -0.881678 5.78647 -20
      vertex 0 5.78647 -20
    endloop
  endfacet
  facet normal 0 1 0
    outer loop
      vertex -0.881678 5.78647 -20
      vertex 0 5.78647 -50
      vertex -0.881678 5.78647 -50
    endloop
  endfacet
  facet normal 0.951057 0.309015 0
    outer loop
      vertex -0.881678 5.78647 -20
      vertex -1.42658 7.46352 -50
      vertex -1.42658 7.46352 -20
    endloop
  endfacet
  facet normal 0.951057 0.309015 0
    outer loop
      vertex -1.42658 7.46352 -50
      vertex -0.881678 5.78647 -20
      vertex -0.881678 5.78647 -50
    endloop
  endfacet
  facet normal 0.809015 0.587789 0
    outer loop
      vertex -7.46352 -1.42658 -20
      vertex -8.5 0 -50
      vertex -8.5 0 -20
    endloop
  endfacet
  facet normal 0.809015 0.587789 0
    outer loop
      vertex -8.5 0 -50
      vertex -7.46352 -1.42658 -20
      vertex -7.46352 -1.42658 -50
    endloop
  endfacet
  facet normal -1 0 0
    outer loop
      vertex -5.78647 -0.881678 -50
      vertex -5.78647 0.881678 -20
      vertex -5.78647 0.881678 -50
    endloop
  endfacet
  facet normal -1 -0 0
    outer loop
      vertex -5.78647 0.881678 -20
      vertex -5.78647 -0.881678 -50
      vertex -5.78647 -0.881678 -20
    endloop
  endfacet
  facet normal -0.309015 -0.951057 0
    outer loop
      vertex -7.46352 1.42658 -50
      vertex -5.78647 0.881678 -20
      vertex -7.46352 1.42658 -20
    endloop
  endfacet
  facet normal -0.309015 -0.951057 -0
    outer loop
      vertex -5.78647 0.881678 -20
      vertex -7.46352 1.42658 -50
      vertex -5.78647 0.881678 -50
    endloop
  endfacet
  facet normal 0.809015 -0.587789 0
    outer loop
      vertex -8.5 0 -20
      vertex -7.46352 1.42658 -50
      vertex -7.46352 1.42658 -20
    endloop
  endfacet
  facet normal 0.809015 -0.587789 0
    outer loop
      vertex -7.46352 1.42658 -50
      vertex -8.5 0 -20
      vertex -8.5 0 -50
    endloop
  endfacet
  facet normal -0.309015 0.951057 0
    outer loop
      vertex -5.78647 -0.881678 -50
      vertex -7.46352 -1.42658 -20
      vertex -5.78647 -0.881678 -20
    endloop
  endfacet
  facet normal -0.309015 0.951057 0
    outer loop
      vertex -7.46352 -1.42658 -20
      vertex -5.78647 -0.881678 -50
      vertex -7.46352 -1.42658 -50
    endloop
  endfacet
  facet normal 0 -1 0
    outer loop
      vertex -0.881678 -5.78647 -50
      vertex 0 -5.78647 -20
      vertex -0.881678 -5.78647 -20
    endloop
  endfacet
  facet normal 0 -1 -0
    outer loop
      vertex 0 -5.78647 -20
      vertex -0.881678 -5.78647 -50
      vertex 0 -5.78647 -50
    endloop
  endfacet
  facet normal 0.951057 -0.309015 0
    outer loop
      vertex -1.42658 -7.46352 -20
      vertex -0.881678 -5.78647 -50
      vertex -0.881678 -5.78647 -20
    endloop
  endfacet
  facet normal 0.951057 -0.309015 0
    outer loop
      vertex -0.881678 -5.78647 -50
      vertex -1.42658 -7.46352 -20
      vertex -1.42658 -7.46352 -50
    endloop
  endfacet
  facet normal 0.587789 0.809015 -0
    outer loop
      vertex 0 -8.5 -50
      vertex -1.42658 -7.46352 -20
      vertex 0 -8.5 -20
    endloop
  endfacet
  facet normal 0.587789 0.809015 0
    outer loop
      vertex -1.42658 -7.46352 -20
      vertex 0 -8.5 -50
      vertex -1.42658 -7.46352 -50
    endloop
  endfacet
  facet normal -0.743147 -0.669129 0
    outer loop
      vertex -6.69131 -7.43145 -50
      vertex -8.09017 -5.87785 -20
      vertex -8.09017 -5.87785 -50
    endloop
  endfacet
  facet normal -0.743147 -0.669129 0
    outer loop
      vertex -8.09017 -5.87785 -20
      vertex -6.69131 -7.43145 -50
      vertex -6.69131 -7.43145 -20
    endloop
  endfacet
  facet normal -0.406736 -0.913546 0
    outer loop
      vertex -5 -8.66025 -50
      vertex -3.09017 -9.51056 -20
      vertex -5 -8.66025 -20
    endloop
  endfacet
  facet normal -0.406736 -0.913546 -0
    outer loop
      vertex -3.09017 -9.51056 -20
      vertex -5 -8.66025 -50
      vertex -3.09017 -9.51056 -50
    endloop
  endfacet
  facet normal -0.587783 -0.809019 0
    outer loop
      vertex -6.69131 -7.43145 -50
      vertex -5 -8.66025 -20
      vertex -6.69131 -7.43145 -20
    endloop
  endfacet
  facet normal -0.587783 -0.809019 -0
    outer loop
      vertex -5 -8.66025 -20
      vertex -6.69131 -7.43145 -50
      vertex -5 -8.66025 -50
    endloop
  endfacet
  facet normal -0.743147 0.669129 0
    outer loop
      vertex -8.09017 5.87785 -50
      vertex -6.69131 7.43145 -20
      vertex -6.69131 7.43145 -50
    endloop
  endfacet
  facet normal -0.743147 0.669129 0
    outer loop
      vertex -6.69131 7.43145 -20
      vertex -8.09017 5.87785 -50
      vertex -8.09017 5.87785 -20
    endloop
  endfacet
  facet normal 0 1 -0
    outer loop
      vertex 0 9.94522 -50
      vertex -1.04528 9.94522 -20
      vertex 0 9.94522 -20
    endloop
  endfacet
  facet normal 0 1 0
    outer loop
      vertex -1.04528 9.94522 -20
      vertex 0 9.94522 -50
      vertex -1.04528 9.94522 -50
    endloop
  endfacet
  facet normal -0.951055 0.309021 0
    outer loop
      vertex -9.78148 2.07912 -50
      vertex -9.13545 4.06737 -20
      vertex -9.13545 4.06737 -50
    endloop
  endfacet
  facet normal -0.951055 0.309021 0
    outer loop
      vertex -9.13545 4.06737 -20
      vertex -9.78148 2.07912 -50
      vertex -9.78148 2.07912 -20
    endloop
  endfacet
  facet normal -0.951055 -0.309021 0
    outer loop
      vertex -9.13545 -4.06737 -50
      vertex -9.78148 -2.07912 -20
      vertex -9.78148 -2.07912 -50
    endloop
  endfacet
  facet normal -0.951055 -0.309021 0
    outer loop
      vertex -9.78148 -2.07912 -20
      vertex -9.13545 -4.06737 -50
      vertex -9.13545 -4.06737 -20
    endloop
  endfacet
  facet normal -0.406736 0.913546 0
    outer loop
      vertex -3.09017 9.51056 -50
      vertex -5 8.66025 -20
      vertex -3.09017 9.51056 -20
    endloop
  endfacet
  facet normal -0.406736 0.913546 0
    outer loop
      vertex -5 8.66025 -20
      vertex -3.09017 9.51056 -50
      vertex -5 8.66025 -50
    endloop
  endfacet
  facet normal -0.207914 -0.978147 0
    outer loop
      vertex -3.09017 -9.51056 -50
      vertex -1.04528 -9.94522 -20
      vertex -3.09017 -9.51056 -20
    endloop
  endfacet
  facet normal -0.207914 -0.978147 -0
    outer loop
      vertex -1.04528 -9.94522 -20
      vertex -3.09017 -9.51056 -50
      vertex -1.04528 -9.94522 -50
    endloop
  endfacet
  facet normal -0.994522 -0.104526 0
    outer loop
      vertex -9.78148 -2.07912 -50
      vertex -10 0 -20
      vertex -10 0 -50
    endloop
  endfacet
  facet normal -0.994522 -0.104526 0
    outer loop
      vertex -10 0 -20
      vertex -9.78148 -2.07912 -50
      vertex -9.78148 -2.07912 -20
    endloop
  endfacet
  facet normal -0.866026 -0.5 0
    outer loop
      vertex -8.09017 -5.87785 -50
      vertex -9.13545 -4.06737 -20
      vertex -9.13545 -4.06737 -50
    endloop
  endfacet
  facet normal -0.866026 -0.5 0
    outer loop
      vertex -9.13545 -4.06737 -20
      vertex -8.09017 -5.87785 -50
      vertex -8.09017 -5.87785 -20
    endloop
  endfacet
  facet normal -0.866026 0.5 0
    outer loop
      vertex -9.13545 4.06737 -50
      vertex -8.09017 5.87785 -20
      vertex -8.09017 5.87785 -50
    endloop
  endfacet
  facet normal -0.866026 0.5 0
    outer loop
      vertex -8.09017 5.87785 -20
      vertex -9.13545 4.06737 -50
      vertex -9.13545 4.06737 -20
    endloop
  endfacet
  facet normal -0.587783 0.809019 0
    outer loop
      vertex -5 8.66025 -50
      vertex -6.69131 7.43145 -20
      vertex -5 8.66025 -20
    endloop
  endfacet
  facet normal -0.587783 0.809019 0
    outer loop
      vertex -6.69131 7.43145 -20
      vertex -5 8.66025 -50
      vertex -6.69131 7.43145 -50
    endloop
  endfacet
  facet normal -0.207914 0.978147 0
    outer loop
      vertex -1.04528 9.94522 -50
      vertex -3.09017 9.51056 -20
      vertex -1.04528 9.94522 -20
    endloop
  endfacet
  facet normal -0.207914 0.978147 0
    outer loop
      vertex -3.09017 9.51056 -20
      vertex -1.04528 9.94522 -50
      vertex -3.09017 9.51056 -50
    endloop
  endfacet
  facet normal 0 -1 0
    outer loop
      vertex -1.04528 -9.94522 -50
      vertex 0 -9.94522 -20
      vertex -1.04528 -9.94522 -20
    endloop
  endfacet
  facet normal 0 -1 -0
    outer loop
      vertex 0 -9.94522 -20
      vertex -1.04528 -9.94522 -50
      vertex 0 -9.94522 -50
    endloop
  endfacet
  facet normal -0.994522 0.104526 0
    outer loop
      vertex -10 0 -50
      vertex -9.78148 2.07912 -20
      vertex -9.78148 2.07912 -50
    endloop
  endfacet
  facet normal -0.994522 0.104526 0
    outer loop
      vertex -9.78148 2.07912 -20
      vertex -10 0 -50
      vertex -10 0 -20
    endloop
  endfacet
  facet normal 1 -0 0
    outer loop
      vertex 0 8.5 -20
      vertex 0 9.94522 -50
      vertex 0 9.94522 -20
    endloop
  endfacet
  facet normal 1 0 0
    outer loop
      vertex 0 9.94522 -50
      vertex 0 8.5 -20
      vertex 0 8.5 -50
    endloop
  endfacet
  facet normal 1 -0 0
    outer loop
      vertex 0 -9.94522 -20
      vertex 0 -8.5 -50
      vertex 0 -8.5 -20
    endloop
  endfacet
  facet normal 1 0 0
    outer loop
      vertex 0 -8.5 -50
      vertex 0 -9.94522 -20
      vertex 0 -9.94522 -50
    endloop
  endfacet
  facet normal 1 -0 0
    outer loop
      vertex 0 5 -20
      vertex 0 5.78647 -50
      vertex 0 5.78647 -20
    endloop
  endfacet
  facet normal 1 0 0
    outer loop
      vertex 0 5.78647 -50
      vertex 0 5 -20
      vertex 0 5 -50
    endloop
  endfacet
  facet normal 1 -0 0
    outer loop
      vertex 0 -5.78647 -20
      vertex 0 -5 -50
      vertex 0 -5 -20
    endloop
  endfacet
  facet normal 1 0 0
    outer loop
      vertex 0 -5 -50
      vertex 0 -5.78647 -20
      vertex 0 -5.78647 -50
    endloop
  endfacet
  facet normal -0.555574 0.831467 0
    outer loop
      vertex -1.91342 4.6194 -20
      vertex -3.53553 3.53553 20
      vertex -1.91342 4.6194 20
    endloop
  endfacet
  facet normal -0.555574 0.831467 0
    outer loop
      vertex -3.53553 3.53553 20
      vertex -1.91342 4.6194 -20
      vertex -3.53553 3.53553 -20
    endloop
  endfacet
  facet normal 0.831467 0.555574 0
    outer loop
      vertex 4.6194 1.91342 50
      vertex 3.53553 3.53553 -50
      vertex 3.53553 3.53553 50
    endloop
  endfacet
  facet normal 0.831467 0.555574 0
    outer loop
      vertex 3.53553 3.53553 -50
      vertex 4.6194 1.91342 50
      vertex 4.6194 1.91342 -50
    endloop
  endfacet
  facet normal 0.980786 0.195089 0
    outer loop
      vertex 5 0 50
      vertex 4.6194 1.91342 -50
      vertex 4.6194 1.91342 50
    endloop
  endfacet
  facet normal 0.980786 0.195089 0
    outer loop
      vertex 4.6194 1.91342 -50
      vertex 5 0 50
      vertex 5 0 -50
    endloop
  endfacet
  facet normal -0.831467 0.555574 0
    outer loop
      vertex -4.6194 1.91342 -20
      vertex -3.53553 3.53553 20
      vertex -3.53553 3.53553 -20
    endloop
  endfacet
  facet normal -0.831467 0.555574 0
    outer loop
      vertex -3.53553 3.53553 20
      vertex -4.6194 1.91342 -20
      vertex -4.6194 1.91342 20
    endloop
  endfacet
  facet normal -0.195089 -0.980786 0
    outer loop
      vertex -1.91342 -4.6194 -20
      vertex 0 -5 20
      vertex -1.91342 -4.6194 20
    endloop
  endfacet
  facet normal -0.195089 -0.980786 -0
    outer loop
      vertex 0 -5 20
      vertex -1.91342 -4.6194 -20
      vertex 0 -5 -20
    endloop
  endfacet
  facet normal 0.195089 -0.980786 0
    outer loop
      vertex 0 -5 20
      vertex 1.91342 -4.6194 50
      vertex 0 -5 50
    endloop
  endfacet
  facet normal 0.195089 -0.980786 0
    outer loop
      vertex 0 -5 -20
      vertex 1.91342 -4.6194 50
      vertex 0 -5 20
    endloop
  endfacet
  facet normal 0.195089 -0.980786 0
    outer loop
      vertex 1.91342 -4.6194 -50
      vertex 0 -5 -20
      vertex 0 -5 -50
    endloop
  endfacet
  facet normal 0.195089 -0.980786 0
    outer loop
      vertex 0 -5 -20
      vertex 1.91342 -4.6194 -50
      vertex 1.91342 -4.6194 50
    endloop
  endfacet
  facet normal 0.555574 -0.831467 0
    outer loop
      vertex 1.91342 -4.6194 -50
      vertex 3.53553 -3.53553 50
      vertex 1.91342 -4.6194 50
    endloop
  endfacet
  facet normal 0.555574 -0.831467 0
    outer loop
      vertex 3.53553 -3.53553 50
      vertex 1.91342 -4.6194 -50
      vertex 3.53553 -3.53553 -50
    endloop
  endfacet
  facet normal 0.831467 -0.555574 0
    outer loop
      vertex 3.53553 -3.53553 50
      vertex 4.6194 -1.91342 -50
      vertex 4.6194 -1.91342 50
    endloop
  endfacet
  facet normal 0.831467 -0.555574 0
    outer loop
      vertex 4.6194 -1.91342 -50
      vertex 3.53553 -3.53553 50
      vertex 3.53553 -3.53553 -50
    endloop
  endfacet
  facet normal -0.980786 0.195089 0
    outer loop
      vertex -5 0 -20
      vertex -4.6194 1.91342 20
      vertex -4.6194 1.91342 -20
    endloop
  endfacet
  facet normal -0.980786 0.195089 0
    outer loop
      vertex -4.6194 1.91342 20
      vertex -5 0 -20
      vertex -5 0 20
    endloop
  endfacet
  facet normal 0.980786 -0.195089 0
    outer loop
      vertex 4.6194 -1.91342 50
      vertex 5 0 -50
      vertex 5 0 50
    endloop
  endfacet
  facet normal 0.980786 -0.195089 0
    outer loop
      vertex 5 0 -50
      vertex 4.6194 -1.91342 50
      vertex 4.6194 -1.91342 -50
    endloop
  endfacet
  facet normal -0.195089 0.980786 0
    outer loop
      vertex 0 5 -20
      vertex -1.91342 4.6194 20
      vertex 0 5 20
    endloop
  endfacet
  facet normal -0.195089 0.980786 0
    outer loop
      vertex -1.91342 4.6194 20
      vertex 0 5 -20
      vertex -1.91342 4.6194 -20
    endloop
  endfacet
  facet normal 0.195089 0.980786 0
    outer loop
      vertex 1.91342 4.6194 50
      vertex 0 5 20
      vertex 0 5 50
    endloop
  endfacet
  facet normal 0.195089 0.980786 0
    outer loop
      vertex 1.91342 4.6194 50
      vertex 0 5 -20
      vertex 0 5 20
    endloop
  endfacet
  facet normal 0.195089 0.980786 -0
    outer loop
      vertex 1.91342 4.6194 -50
      vertex 0 5 -20
      vertex 1.91342 4.6194 50
    endloop
  endfacet
  facet normal 0.195089 0.980786 0
    outer loop
      vertex 0 5 -20
      vertex 1.91342 4.6194 -50
      vertex 0 5 -50
    endloop
  endfacet
  facet normal 0.555574 0.831467 -0
    outer loop
      vertex 3.53553 3.53553 -50
      vertex 1.91342 4.6194 50
      vertex 3.53553 3.53553 50
    endloop
  endfacet
  facet normal 0.555574 0.831467 0
    outer loop
      vertex 1.91342 4.6194 50
      vertex 3.53553 3.53553 -50
      vertex 1.91342 4.6194 -50
    endloop
  endfacet
  facet normal -0.831467 -0.555574 0
    outer loop
      vertex -3.53553 -3.53553 -20
      vertex -4.6194 -1.91342 20
      vertex -4.6194 -1.91342 -20
    endloop
  endfacet
  facet normal -0.831467 -0.555574 0
    outer loop
      vertex -4.6194 -1.91342 20
      vertex -3.53553 -3.53553 -20
      vertex -3.53553 -3.53553 20
    endloop
  endfacet
  facet normal -0.980786 -0.195089 0
    outer loop
      vertex -4.6194 -1.91342 -20
      vertex -5 0 20
      vertex -5 0 -20
    endloop
  endfacet
  facet normal -0.980786 -0.195089 0
    outer loop
      vertex -5 0 20
      vertex -4.6194 -1.91342 -20
      vertex -4.6194 -1.91342 20
    endloop
  endfacet
  facet normal -0.555574 -0.831467 0
    outer loop
      vertex -3.53553 -3.53553 -20
      vertex -1.91342 -4.6194 20
      vertex -3.53553 -3.53553 20
    endloop
  endfacet
  facet normal -0.555574 -0.831467 -0
    outer loop
      vertex -1.91342 -4.6194 20
      vertex -3.53553 -3.53553 -20
      vertex -1.91342 -4.6194 -20
    endloop
  endfacet
endsolid OpenSCAD_Model
