solid OpenSCAD_Model
  facet normal 1 -0 0
    outer loop
      vertex 20 0 10
      vertex 20 30 0
      vertex 20 30 10
    endloop
  endfacet
  facet normal 1 0 0
    outer loop
      vertex 20 30 0
      vertex 20 0 10
      vertex 20 0 0
    endloop
  endfacet
  facet normal -0 0 1
    outer loop
      vertex 0 30 10
      vertex 20 0 10
      vertex 20 30 10
    endloop
  endfacet
  facet normal 0 0 1
    outer loop
      vertex 20 0 10
      vertex 0 30 10
      vertex 0 0 10
    endloop
  endfacet
  facet normal 0 0 -1
    outer loop
      vertex 0 0 0
      vertex 20 30 0
      vertex 20 0 0
    endloop
  endfacet
  facet normal -0 0 -1
    outer loop
      vertex 20 30 0
      vertex 0 0 0
      vertex 0 30 0
    endloop
  endfacet
  facet normal -1 0 0
    outer loop
      vertex 0 0 0
      vertex 0 30 10
      vertex 0 30 0
    endloop
  endfacet
  facet normal -1 -0 0
    outer loop
      vertex 0 30 10
      vertex 0 0 0
      vertex 0 0 10
    endloop
  endfacet
  facet normal 0 1 -0
    outer loop
      vertex 20 30 0
      vertex 0 30 10
      vertex 20 30 10
    endloop
  endfacet
  facet normal 0 1 0
    outer loop
      vertex 0 30 10
      vertex 20 30 0
      vertex 0 30 0
    endloop
  endfacet
  facet normal 0 -1 0
    outer loop
      vertex 0 0 0
      vertex 20 0 10
      vertex 0 0 10
    endloop
  endfacet
  facet normal 0 -1 -0
    outer loop
      vertex 20 0 10
      vertex 0 0 0
      vertex 20 0 0
    endloop
  endfacet
  facet normal 1 -0 0
    outer loop
      vertex 15 0 30
      vertex 15 25 20
      vertex 15 25 30
    endloop
  endfacet
  facet normal 1 0 0
    outer loop
      vertex 15 25 20
      vertex 15 0 30
      vertex 15 0 20
    endloop
  endfacet
  facet normal -0 0 1
    outer loop
      vertex 0 25 30
      vertex 15 0 30
      vertex 15 25 30
    endloop
  endfacet
  facet normal 0 0 1
    outer loop
      vertex 15 0 30
      vertex 0 25 30
      vertex 0 0 30
    endloop
  endfacet
  facet normal 0 0 -1
    outer loop
      vertex 0 0 20
      vertex 15 25 20
      vertex 15 0 20
    endloop
  endfacet
  facet normal -0 0 -1
    outer loop
      vertex 15 25 20
      vertex 0 0 20
      vertex 0 25 20
    endloop
  endfacet
  facet normal -1 0 0
    outer loop
      vertex 0 0 20
      vertex 0 25 30
      vertex 0 25 20
    endloop
  endfacet
  facet normal -1 -0 0
    outer loop
      vertex 0 25 30
      vertex 0 0 20
      vertex 0 0 30
    endloop
  endfacet
  facet normal 0 1 -0
    outer loop
      vertex 15 25 20
      vertex 0 25 30
      vertex 15 25 30
    endloop
  endfacet
  facet normal 0 1 0
    outer loop
      vertex 0 25 30
      vertex 15 25 20
      vertex 0 25 20
    endloop
  endfacet
  facet normal 0 -1 0
    outer loop
      vertex 0 0 20
      vertex 15 0 30
      vertex 0 0 30
    endloop
  endfacet
  facet normal 0 -1 -0
    outer loop
      vertex 15 0 30
      vertex 0 0 20
      vertex 15 0 20
    endloop
  endfacet
  facet normal 1 -0 0
    outer loop
      vertex 10 0 50
      vertex 10 20 40
      vertex 10 20 50
    endloop
  endfacet
  facet normal 1 0 0
    outer loop
      vertex 10 20 40
      vertex 10 0 50
      vertex 10 0 40
    endloop
  endfacet
  facet normal -0 0 1
    outer loop
      vertex 0 20 50
      vertex 10 0 50
      vertex 10 20 50
    endloop
  endfacet
  facet normal 0 0 1
    outer loop
      vertex 10 0 50
      vertex 0 20 50
      vertex 0 0 50
    endloop
  endfacet
  facet normal 0 0 -1
    outer loop
      vertex 0 0 40
      vertex 10 20 40
      vertex 10 0 40
    endloop
  endfacet
  facet normal -0 0 -1
    outer loop
      vertex 10 20 40
      vertex 0 0 40
      vertex 0 20 40
    endloop
  endfacet
  facet normal -1 0 0
    outer loop
      vertex 0 0 40
      vertex 0 20 50
      vertex 0 20 40
    endloop
  endfacet
  facet normal -1 -0 0
    outer loop
      vertex 0 20 50
      vertex 0 0 40
      vertex 0 0 50
    endloop
  endfacet
  facet normal 0 1 -0
    outer loop
      vertex 10 20 40
      vertex 0 20 50
      vertex 10 20 50
    endloop
  endfacet
  facet normal 0 1 0
    outer loop
      vertex 0 20 50
      vertex 10 20 40
      vertex 0 20 40
    endloop
  endfacet
  facet normal 0 -1 0
    outer loop
      vertex 0 0 40
      vertex 10 0 50
      vertex 0 0 50
    endloop
  endfacet
  facet normal 0 -1 -0
    outer loop
      vertex 10 0 50
      vertex 0 0 40
      vertex 10 0 40
    endloop
  endfacet
endsolid OpenSCAD_Model
