solid OpenSCAD_Model
  facet normal 1 0 0
    outer loop
      vertex 40 5 30
      vertex 40 0 30
      vertex 40 5 20
    endloop
  endfacet
  facet normal 1 0 0
    outer loop
      vertex 40 15 20
      vertex 40 20 30
      vertex 40 15 30
    endloop
  endfacet
  facet normal 1 0 0
    outer loop
      vertex 40 20 30
      vertex 40 15 20
      vertex 40 20 0
    endloop
  endfacet
  facet normal 1 -0 0
    outer loop
      vertex 40 5 20
      vertex 40 20 0
      vertex 40 15 20
    endloop
  endfacet
  facet normal 1 0 0
    outer loop
      vertex 40 5 20
      vertex 40 0 0
      vertex 40 20 0
    endloop
  endfacet
  facet normal 1 0 0
    outer loop
      vertex 40 0 0
      vertex 40 5 20
      vertex 40 0 30
    endloop
  endfacet
  facet normal 0 0 1
    outer loop
      vertex 20 20 20
      vertex 10 15 20
      vertex 20 15 20
    endloop
  endfacet
  facet normal 0 0 1
    outer loop
      vertex 10 15 20
      vertex 0 20 20
      vertex 10 5 20
    endloop
  endfacet
  facet normal -0 0 1
    outer loop
      vertex 0 20 20
      vertex 10 15 20
      vertex 20 20 20
    endloop
  endfacet
  facet normal -0 0 1
    outer loop
      vertex 10 5 20
      vertex 20 0 20
      vertex 20 5 20
    endloop
  endfacet
  facet normal 0 0 1
    outer loop
      vertex 10 5 20
      vertex 0 0 20
      vertex 20 0 20
    endloop
  endfacet
  facet normal 0 0 1
    outer loop
      vertex 0 0 20
      vertex 10 5 20
      vertex 0 20 20
    endloop
  endfacet
  facet normal 0 0 -1
    outer loop
      vertex 40 5 20
      vertex 50 15 20
      vertex 50 5 20
    endloop
  endfacet
  facet normal -0 0 -1
    outer loop
      vertex 50 15 20
      vertex 40 5 20
      vertex 40 15 20
    endloop
  endfacet
  facet normal 0 0 -1
    outer loop
      vertex 0 0 0
      vertex 40 20 0
      vertex 40 0 0
    endloop
  endfacet
  facet normal -0 0 -1
    outer loop
      vertex 40 20 0
      vertex 0 0 0
      vertex 0 20 0
    endloop
  endfacet
  facet normal -1 0 0
    outer loop
      vertex 0 0 0
      vertex 0 20 20
      vertex 0 20 0
    endloop
  endfacet
  facet normal -1 -0 0
    outer loop
      vertex 0 20 20
      vertex 0 0 0
      vertex 0 0 20
    endloop
  endfacet
  facet normal 0 1 0
    outer loop
      vertex 40 20 30
      vertex 20 20 20
      vertex 20 20 30
    endloop
  endfacet
  facet normal 0 1 -0
    outer loop
      vertex 40 20 0
      vertex 20 20 20
      vertex 40 20 30
    endloop
  endfacet
  facet normal 0 1 0
    outer loop
      vertex 0 20 0
      vertex 20 20 20
      vertex 40 20 0
    endloop
  endfacet
  facet normal 0 1 0
    outer loop
      vertex 20 20 20
      vertex 0 20 0
      vertex 0 20 20
    endloop
  endfacet
  facet normal 0 -1 0
    outer loop
      vertex 0 0 20
      vertex 0 0 0
      vertex 20 0 20
    endloop
  endfacet
  facet normal 0 -1 0
    outer loop
      vertex 20 0 20
      vertex 40 0 30
      vertex 20 0 30
    endloop
  endfacet
  facet normal 0 -1 0
    outer loop
      vertex 40 0 0
      vertex 20 0 20
      vertex 0 0 0
    endloop
  endfacet
  facet normal 0 -1 0
    outer loop
      vertex 20 0 20
      vertex 40 0 0
      vertex 40 0 30
    endloop
  endfacet
  facet normal -0 0 1
    outer loop
      vertex 10 15 30
      vertex 20 5 30
      vertex 20 15 30
    endloop
  endfacet
  facet normal 0 0 1
    outer loop
      vertex 20 5 30
      vertex 10 15 30
      vertex 10 5 30
    endloop
  endfacet
  facet normal 0 0 1
    outer loop
      vertex 20 15 30
      vertex 40 15 30
      vertex 40 20 30
    endloop
  endfacet
  facet normal 0 0 1
    outer loop
      vertex 40 15 30
      vertex 20 15 30
      vertex 40 5 30
    endloop
  endfacet
  facet normal 0 0 1
    outer loop
      vertex 20 15 30
      vertex 40 20 30
      vertex 20 20 30
    endloop
  endfacet
  facet normal 0 0 1
    outer loop
      vertex 20 5 30
      vertex 40 5 30
      vertex 20 15 30
    endloop
  endfacet
  facet normal 0 0 1
    outer loop
      vertex 40 5 30
      vertex 20 5 30
      vertex 40 0 30
    endloop
  endfacet
  facet normal 0 0 1
    outer loop
      vertex 40 0 30
      vertex 20 5 30
      vertex 20 0 30
    endloop
  endfacet
  facet normal -1 0 0
    outer loop
      vertex 20 15 20
      vertex 20 20 30
      vertex 20 20 20
    endloop
  endfacet
  facet normal -1 -0 0
    outer loop
      vertex 20 20 30
      vertex 20 15 20
      vertex 20 15 30
    endloop
  endfacet
  facet normal -1 0 0
    outer loop
      vertex 20 0 20
      vertex 20 5 30
      vertex 20 5 20
    endloop
  endfacet
  facet normal -1 -0 0
    outer loop
      vertex 20 5 30
      vertex 20 0 20
      vertex 20 0 30
    endloop
  endfacet
  facet normal -1 0 0
    outer loop
      vertex 40 5 30
      vertex 40 15 50
      vertex 40 15 30
    endloop
  endfacet
  facet normal -1 -0 0
    outer loop
      vertex 40 15 50
      vertex 40 5 30
      vertex 40 5 50
    endloop
  endfacet
  facet normal -1 0 0
    outer loop
      vertex 10 5 20
      vertex 10 15 30
      vertex 10 15 20
    endloop
  endfacet
  facet normal -1 -0 0
    outer loop
      vertex 10 15 30
      vertex 10 5 20
      vertex 10 5 30
    endloop
  endfacet
  facet normal 0 1 -0
    outer loop
      vertex 20 15 20
      vertex 10 15 30
      vertex 20 15 30
    endloop
  endfacet
  facet normal 0 1 0
    outer loop
      vertex 10 15 30
      vertex 20 15 20
      vertex 10 15 20
    endloop
  endfacet
  facet normal 0 1 0
    outer loop
      vertex 50 15 50
      vertex 40 15 30
      vertex 40 15 50
    endloop
  endfacet
  facet normal 0 1 -0
    outer loop
      vertex 50 15 20
      vertex 40 15 30
      vertex 50 15 50
    endloop
  endfacet
  facet normal 0 1 0
    outer loop
      vertex 40 15 30
      vertex 50 15 20
      vertex 40 15 20
    endloop
  endfacet
  facet normal 0 -1 0
    outer loop
      vertex 10 5 20
      vertex 20 5 30
      vertex 10 5 30
    endloop
  endfacet
  facet normal 0 -1 -0
    outer loop
      vertex 20 5 30
      vertex 10 5 20
      vertex 20 5 20
    endloop
  endfacet
  facet normal 0 -1 0
    outer loop
      vertex 40 5 30
      vertex 50 5 50
      vertex 40 5 50
    endloop
  endfacet
  facet normal 0 -1 0
    outer loop
      vertex 50 5 20
      vertex 40 5 30
      vertex 40 5 20
    endloop
  endfacet
  facet normal 0 -1 0
    outer loop
      vertex 40 5 30
      vertex 50 5 20
      vertex 50 5 50
    endloop
  endfacet
  facet normal 1 -0 0
    outer loop
      vertex 50 5 50
      vertex 50 15 20
      vertex 50 15 50
    endloop
  endfacet
  facet normal 1 0 0
    outer loop
      vertex 50 15 20
      vertex 50 5 50
      vertex 50 5 20
    endloop
  endfacet
  facet normal -0 0 1
    outer loop
      vertex 40 15 50
      vertex 50 5 50
      vertex 50 15 50
    endloop
  endfacet
  facet normal 0 0 1
    outer loop
      vertex 50 5 50
      vertex 40 15 50
      vertex 40 5 50
    endloop
  endfacet
endsolid OpenSCAD_Model
