solid OpenSCAD_Model
  facet normal -0.382676 -0.923883 0
    outer loop
      vertex 40 2.5 0
      vertex 41.7678 1.76777 1.5
      vertex 40 2.5 1.5
    endloop
  endfacet
  facet normal -0.382676 -0.923883 -0
    outer loop
      vertex 41.7678 1.76777 1.5
      vertex 40 2.5 0
      vertex 41.7678 1.76777 0
    endloop
  endfacet
  facet normal -0.923886 -0.382668 0
    outer loop
      vertex 42.5 0 0
      vertex 41.7678 1.76777 1.5
      vertex 41.7678 1.76777 0
    endloop
  endfacet
  facet normal -0.923886 -0.382668 0
    outer loop
      vertex 41.7678 1.76777 1.5
      vertex 42.5 0 0
      vertex 42.5 0 1.5
    endloop
  endfacet
  facet normal 0.382676 -0.923883 0
    outer loop
      vertex 38.2322 1.76777 0
      vertex 40 2.5 1.5
      vertex 38.2322 1.76777 1.5
    endloop
  endfacet
  facet normal 0.382676 -0.923883 0
    outer loop
      vertex 40 2.5 1.5
      vertex 38.2322 1.76777 0
      vertex 40 2.5 0
    endloop
  endfacet
  facet normal 0 0 -1
    outer loop
      vertex 42.5 0 1.5
      vertex 40 2.5 1.5
      vertex 41.7678 1.76777 1.5
    endloop
  endfacet
  facet normal 0 0 -1
    outer loop
      vertex 42.5 0 1.5
      vertex 38.2322 1.76777 1.5
      vertex 40 2.5 1.5
    endloop
  endfacet
  facet normal 0 -0 -1
    outer loop
      vertex 38.2322 1.76777 1.5
      vertex 42.5 0 1.5
      vertex 37.5 0 1.5
    endloop
  endfacet
  facet normal 0.923886 -0.382668 0
    outer loop
      vertex 37.5 0 1.5
      vertex 38.2322 1.76777 0
      vertex 38.2322 1.76777 1.5
    endloop
  endfacet
  facet normal 0.923886 -0.382668 0
    outer loop
      vertex 38.2322 1.76777 0
      vertex 37.5 0 1.5
      vertex 37.5 0 0
    endloop
  endfacet
  facet normal 1 -0 0
    outer loop
      vertex 98 0 2
      vertex 98 18 0
      vertex 98 18 2
    endloop
  endfacet
  facet normal 1 0 0
    outer loop
      vertex 98 18 0
      vertex 98 0 2
      vertex 98 0 0
    endloop
  endfacet
  facet normal 0 0 -1
    outer loop
      vertex 0 0 2
      vertex 4.33013 -2.5 2
      vertex 0 -5 2
    endloop
  endfacet
  facet normal 0 0 -1
    outer loop
      vertex 4.33013 -2.5 2
      vertex 0 0 2
      vertex 4.33013 0 2
    endloop
  endfacet
  facet normal 0 0 -1
    outer loop
      vertex -4.33013 -2.5 2
      vertex 0 0 2
      vertex 0 -5 2
    endloop
  endfacet
  facet normal 0 0 -1
    outer loop
      vertex -4.33013 2.5 2
      vertex 0 0 2
      vertex -4.33013 -2.5 2
    endloop
  endfacet
  facet normal 0 0 -1
    outer loop
      vertex 0 0 2
      vertex -4.33013 2.5 2
      vertex 0 5 2
    endloop
  endfacet
  facet normal 0 0 1
    outer loop
      vertex 98 18 2
      vertex 4.33013 2.5 2
      vertex 98 0 2
    endloop
  endfacet
  facet normal -0 0 1
    outer loop
      vertex 0 18 2
      vertex 4.33013 2.5 2
      vertex 98 18 2
    endloop
  endfacet
  facet normal 0 0 1
    outer loop
      vertex 4.33013 2.5 2
      vertex 0 18 2
      vertex 0 5 2
    endloop
  endfacet
  facet normal 0 0 1
    outer loop
      vertex 98 0 2
      vertex 4.33013 2.5 2
      vertex 4.33013 0 2
    endloop
  endfacet
  facet normal 0 0 -1
    outer loop
      vertex 42.5 0 0
      vertex 98 18 0
      vertex 98 0 0
    endloop
  endfacet
  facet normal 0 0 -1
    outer loop
      vertex 41.7678 1.76777 0
      vertex 98 18 0
      vertex 42.5 0 0
    endloop
  endfacet
  facet normal 0 0 -1
    outer loop
      vertex 40 2.5 0
      vertex 98 18 0
      vertex 41.7678 1.76777 0
    endloop
  endfacet
  facet normal 0 0 -1
    outer loop
      vertex 0 0 0
      vertex 38.2322 1.76777 0
      vertex 37.5 0 0
    endloop
  endfacet
  facet normal 0 0 -1
    outer loop
      vertex 0 18 0
      vertex 38.2322 1.76777 0
      vertex 0 0 0
    endloop
  endfacet
  facet normal 0 0 -1
    outer loop
      vertex 38.2322 1.76777 0
      vertex 0 18 0
      vertex 40 2.5 0
    endloop
  endfacet
  facet normal 0 0 -1
    outer loop
      vertex 40 2.5 0
      vertex 0 18 0
      vertex 98 18 0
    endloop
  endfacet
  facet normal -1 0 0
    outer loop
      vertex 0 18 0
      vertex 0 5 2
      vertex 0 18 2
    endloop
  endfacet
  facet normal -1 0 0
    outer loop
      vertex 0 0 0
      vertex 0 5 2
      vertex 0 18 0
    endloop
  endfacet
  facet normal -1 -0 0
    outer loop
      vertex 0 5 2
      vertex 0 0 0
      vertex 0 0 2
    endloop
  endfacet
  facet normal 0 1 -0
    outer loop
      vertex 98 18 0
      vertex 0 18 2
      vertex 98 18 2
    endloop
  endfacet
  facet normal 0 1 0
    outer loop
      vertex 0 18 2
      vertex 98 18 0
      vertex 0 18 0
    endloop
  endfacet
  facet normal 0 -1 0
    outer loop
      vertex 0 0 0
      vertex 4.33013 0 2
      vertex 0 0 2
    endloop
  endfacet
  facet normal 0 -1 0
    outer loop
      vertex 4.33013 0 2
      vertex 37.5 0 1.5
      vertex 98 0 2
    endloop
  endfacet
  facet normal 0 -1 0
    outer loop
      vertex 37.5 0 0
      vertex 4.33013 0 2
      vertex 0 0 0
    endloop
  endfacet
  facet normal 0 -1 0
    outer loop
      vertex 4.33013 0 2
      vertex 37.5 0 0
      vertex 37.5 0 1.5
    endloop
  endfacet
  facet normal 0 -1 0
    outer loop
      vertex 42.5 0 1.5
      vertex 98 0 2
      vertex 37.5 0 1.5
    endloop
  endfacet
  facet normal 0 -1 0
    outer loop
      vertex 42.5 0 0
      vertex 98 0 2
      vertex 42.5 0 1.5
    endloop
  endfacet
  facet normal 0 -1 -0
    outer loop
      vertex 98 0 2
      vertex 42.5 0 0
      vertex 98 0 0
    endloop
  endfacet
  facet normal 0.5 -0.866026 0
    outer loop
      vertex 0 -5 2
      vertex 4.33013 -2.5 12
      vertex 0 -5 12
    endloop
  endfacet
  facet normal 0.5 -0.866026 0
    outer loop
      vertex 4.33013 -2.5 12
      vertex 0 -5 2
      vertex 4.33013 -2.5 2
    endloop
  endfacet
  facet normal 1 0 0
    outer loop
      vertex 4.33013 2.5 12
      vertex 4.33013 0 2
      vertex 4.33013 2.5 2
    endloop
  endfacet
  facet normal 1 -0 0
    outer loop
      vertex 4.33013 -2.5 12
      vertex 4.33013 0 2
      vertex 4.33013 2.5 12
    endloop
  endfacet
  facet normal 1 0 0
    outer loop
      vertex 4.33013 0 2
      vertex 4.33013 -2.5 12
      vertex 4.33013 -2.5 2
    endloop
  endfacet
  facet normal -0.5 0.866026 0
    outer loop
      vertex 0 5 2
      vertex -4.33013 2.5 12
      vertex 0 5 12
    endloop
  endfacet
  facet normal -0.5 0.866026 0
    outer loop
      vertex -4.33013 2.5 12
      vertex 0 5 2
      vertex -4.33013 2.5 2
    endloop
  endfacet
  facet normal 0.5 0.866026 -0
    outer loop
      vertex 4.33013 2.5 2
      vertex 0 5 12
      vertex 4.33013 2.5 12
    endloop
  endfacet
  facet normal 0.5 0.866026 0
    outer loop
      vertex 0 5 12
      vertex 4.33013 2.5 2
      vertex 0 5 2
    endloop
  endfacet
  facet normal -1 0 0
    outer loop
      vertex -4.33013 -2.5 2
      vertex -4.33013 2.5 12
      vertex -4.33013 2.5 2
    endloop
  endfacet
  facet normal -1 -0 0
    outer loop
      vertex -4.33013 2.5 12
      vertex -4.33013 -2.5 2
      vertex -4.33013 -2.5 12
    endloop
  endfacet
  facet normal -0.5 -0.866026 0
    outer loop
      vertex -4.33013 -2.5 2
      vertex 0 -5 12
      vertex -4.33013 -2.5 12
    endloop
  endfacet
  facet normal -0.5 -0.866026 -0
    outer loop
      vertex 0 -5 12
      vertex -4.33013 -2.5 2
      vertex 0 -5 2
    endloop
  endfacet
  facet normal 0 0 1
    outer loop
      vertex 0 5 12
      vertex 4.33013 -2.5 12
      vertex 4.33013 2.5 12
    endloop
  endfacet
  facet normal 0 0 1
    outer loop
      vertex 0 5 12
      vertex 0 -5 12
      vertex 4.33013 -2.5 12
    endloop
  endfacet
  facet normal -0 0 1
    outer loop
      vertex -4.33013 2.5 12
      vertex 0 -5 12
      vertex 0 5 12
    endloop
  endfacet
  facet normal 0 0 1
    outer loop
      vertex 0 -5 12
      vertex -4.33013 2.5 12
      vertex -4.33013 -2.5 12
    endloop
  endfacet
endsolid OpenSCAD_Model
