solid OpenSCAD_Model
  facet normal 1 -0 0
    outer loop
      vertex 25 -15 1
      vertex 25 15 -1
      vertex 25 15 1
    endloop
  endfacet
  facet normal 1 0 0
    outer loop
      vertex 25 15 -1
      vertex 25 -15 1
      vertex 25 -15 -1
    endloop
  endfacet
  facet normal -0 0 1
    outer loop
      vertex -25 15 1
      vertex 25 -15 1
      vertex 25 15 1
    endloop
  endfacet
  facet normal 0 0 1
    outer loop
      vertex 25 -15 1
      vertex -25 15 1
      vertex -25 -15 1
    endloop
  endfacet
  facet normal 0 0 -1
    outer loop
      vertex -25 -15 -1
      vertex 25 15 -1
      vertex 25 -15 -1
    endloop
  endfacet
  facet normal -0 0 -1
    outer loop
      vertex 25 15 -1
      vertex -25 -15 -1
      vertex -25 15 -1
    endloop
  endfacet
  facet normal -1 0 0
    outer loop
      vertex -25 -15 -1
      vertex -25 15 1
      vertex -25 15 -1
    endloop
  endfacet
  facet normal -1 -0 0
    outer loop
      vertex -25 15 1
      vertex -25 -15 -1
      vertex -25 -15 1
    endloop
  endfacet
  facet normal 0 1 -0
    outer loop
      vertex 25 15 -1
      vertex -25 15 1
      vertex 25 15 1
    endloop
  endfacet
  facet normal 0 1 0
    outer loop
      vertex -25 15 1
      vertex 25 15 -1
      vertex -25 15 -1
    endloop
  endfacet
  facet normal 0 -1 0
    outer loop
      vertex -25 -15 -1
      vertex 25 -15 1
      vertex -25 -15 1
    endloop
  endfacet
  facet normal 0 -1 -0
    outer loop
      vertex 25 -15 1
      vertex -25 -15 -1
      vertex 25 -15 -1
    endloop
  endfacet
  facet normal 1 -0 0
    outer loop
      vertex 25 -15 4
      vertex 25 15 2
      vertex 25 15 4
    endloop
  endfacet
  facet normal 1 0 0
    outer loop
      vertex 25 15 2
      vertex 25 -15 4
      vertex 25 -15 2
    endloop
  endfacet
  facet normal -0 0 1
    outer loop
      vertex -25 15 4
      vertex 25 -15 4
      vertex 25 15 4
    endloop
  endfacet
  facet normal 0 0 1
    outer loop
      vertex 25 -15 4
      vertex -25 15 4
      vertex -25 -15 4
    endloop
  endfacet
  facet normal 0 0 -1
    outer loop
      vertex -25 -15 2
      vertex 25 15 2
      vertex 25 -15 2
    endloop
  endfacet
  facet normal -0 0 -1
    outer loop
      vertex 25 15 2
      vertex -25 -15 2
      vertex -25 15 2
    endloop
  endfacet
  facet normal -1 0 0
    outer loop
      vertex -25 -15 2
      vertex -25 15 4
      vertex -25 15 2
    endloop
  endfacet
  facet normal -1 -0 0
    outer loop
      vertex -25 15 4
      vertex -25 -15 2
      vertex -25 -15 4
    endloop
  endfacet
  facet normal 0 1 -0
    outer loop
      vertex 25 15 2
      vertex -25 15 4
      vertex 25 15 4
    endloop
  endfacet
  facet normal 0 1 0
    outer loop
      vertex -25 15 4
      vertex 25 15 2
      vertex -25 15 2
    endloop
  endfacet
  facet normal 0 -1 0
    outer loop
      vertex -25 -15 2
      vertex 25 -15 4
      vertex -25 -15 4
    endloop
  endfacet
  facet normal 0 -1 -0
    outer loop
      vertex 25 -15 4
      vertex -25 -15 2
      vertex 25 -15 2
    endloop
  endfacet
  facet normal 1 -0 0
    outer loop
      vertex 25 -15 7
      vertex 25 15 5
      vertex 25 15 7
    endloop
  endfacet
  facet normal 1 0 0
    outer loop
      vertex 25 15 5
      vertex 25 -15 7
      vertex 25 -15 5
    endloop
  endfacet
  facet normal -0 0 1
    outer loop
      vertex -25 15 7
      vertex 25 -15 7
      vertex 25 15 7
    endloop
  endfacet
  facet normal 0 0 1
    outer loop
      vertex 25 -15 7
      vertex -25 15 7
      vertex -25 -15 7
    endloop
  endfacet
  facet normal 0 0 -1
    outer loop
      vertex -25 -15 5
      vertex 25 15 5
      vertex 25 -15 5
    endloop
  endfacet
  facet normal -0 0 -1
    outer loop
      vertex 25 15 5
      vertex -25 -15 5
      vertex -25 15 5
    endloop
  endfacet
  facet normal -1 0 0
    outer loop
      vertex -25 -15 5
      vertex -25 15 7
      vertex -25 15 5
    endloop
  endfacet
  facet normal -1 -0 0
    outer loop
      vertex -25 15 7
      vertex -25 -15 5
      vertex -25 -15 7
    endloop
  endfacet
  facet normal 0 1 -0
    outer loop
      vertex 25 15 5
      vertex -25 15 7
      vertex 25 15 7
    endloop
  endfacet
  facet normal 0 1 0
    outer loop
      vertex -25 15 7
      vertex 25 15 5
      vertex -25 15 5
    endloop
  endfacet
  facet normal 0 -1 0
    outer loop
      vertex -25 -15 5
      vertex 25 -15 7
      vertex -25 -15 7
    endloop
  endfacet
  facet normal 0 -1 -0
    outer loop
      vertex 25 -15 7
      vertex -25 -15 5
      vertex 25 -15 5
    endloop
  endfacet
  facet normal 1 -0 0
    outer loop
      vertex 25 -15 10
      vertex 25 15 8
      vertex 25 15 10
    endloop
  endfacet
  facet normal 1 0 0
    outer loop
      vertex 25 15 8
      vertex 25 -15 10
      vertex 25 -15 8
    endloop
  endfacet
  facet normal -0 0 1
    outer loop
      vertex -25 15 10
      vertex 25 -15 10
      vertex 25 15 10
    endloop
  endfacet
  facet normal 0 0 1
    outer loop
      vertex 25 -15 10
      vertex -25 15 10
      vertex -25 -15 10
    endloop
  endfacet
  facet normal 0 0 -1
    outer loop
      vertex -25 -15 8
      vertex 25 15 8
      vertex 25 -15 8
    endloop
  endfacet
  facet normal -0 0 -1
    outer loop
      vertex 25 15 8
      vertex -25 -15 8
      vertex -25 15 8
    endloop
  endfacet
  facet normal -1 0 0
    outer loop
      vertex -25 -15 8
      vertex -25 15 10
      vertex -25 15 8
    endloop
  endfacet
  facet normal -1 -0 0
    outer loop
      vertex -25 15 10
      vertex -25 -15 8
      vertex -25 -15 10
    endloop
  endfacet
  facet normal 0 1 -0
    outer loop
      vertex 25 15 8
      vertex -25 15 10
      vertex 25 15 10
    endloop
  endfacet
  facet normal 0 1 0
    outer loop
      vertex -25 15 10
      vertex 25 15 8
      vertex -25 15 8
    endloop
  endfacet
  facet normal 0 -1 0
    outer loop
      vertex -25 -15 8
      vertex 25 -15 10
      vertex -25 -15 10
    endloop
  endfacet
  facet normal 0 -1 -0
    outer loop
      vertex 25 -15 10
      vertex -25 -15 8
      vertex 25 -15 8
    endloop
  endfacet
  facet normal 1 -0 0
    outer loop
      vertex 25 -15 13
      vertex 25 15 11
      vertex 25 15 13
    endloop
  endfacet
  facet normal 1 0 0
    outer loop
      vertex 25 15 11
      vertex 25 -15 13
      vertex 25 -15 11
    endloop
  endfacet
  facet normal -0 0 1
    outer loop
      vertex -25 15 13
      vertex 25 -15 13
      vertex 25 15 13
    endloop
  endfacet
  facet normal 0 0 1
    outer loop
      vertex 25 -15 13
      vertex -25 15 13
      vertex -25 -15 13
    endloop
  endfacet
  facet normal 0 0 -1
    outer loop
      vertex -25 -15 11
      vertex 25 15 11
      vertex 25 -15 11
    endloop
  endfacet
  facet normal -0 0 -1
    outer loop
      vertex 25 15 11
      vertex -25 -15 11
      vertex -25 15 11
    endloop
  endfacet
  facet normal -1 0 0
    outer loop
      vertex -25 -15 11
      vertex -25 15 13
      vertex -25 15 11
    endloop
  endfacet
  facet normal -1 -0 0
    outer loop
      vertex -25 15 13
      vertex -25 -15 11
      vertex -25 -15 13
    endloop
  endfacet
  facet normal 0 1 -0
    outer loop
      vertex 25 15 11
      vertex -25 15 13
      vertex 25 15 13
    endloop
  endfacet
  facet normal 0 1 0
    outer loop
      vertex -25 15 13
      vertex 25 15 11
      vertex -25 15 11
    endloop
  endfacet
  facet normal 0 -1 0
    outer loop
      vertex -25 -15 11
      vertex 25 -15 13
      vertex -25 -15 13
    endloop
  endfacet
  facet normal 0 -1 -0
    outer loop
      vertex 25 -15 13
      vertex -25 -15 11
      vertex 25 -15 11
    endloop
  endfacet
  facet normal 1 -0 0
    outer loop
      vertex 25 -15 16
      vertex 25 15 14
      vertex 25 15 16
    endloop
  endfacet
  facet normal 1 0 0
    outer loop
      vertex 25 15 14
      vertex 25 -15 16
      vertex 25 -15 14
    endloop
  endfacet
  facet normal -0 0 1
    outer loop
      vertex -25 15 16
      vertex 25 -15 16
      vertex 25 15 16
    endloop
  endfacet
  facet normal 0 0 1
    outer loop
      vertex 25 -15 16
      vertex -25 15 16
      vertex -25 -15 16
    endloop
  endfacet
  facet normal 0 0 -1
    outer loop
      vertex -25 -15 14
      vertex 25 15 14
      vertex 25 -15 14
    endloop
  endfacet
  facet normal -0 0 -1
    outer loop
      vertex 25 15 14
      vertex -25 -15 14
      vertex -25 15 14
    endloop
  endfacet
  facet normal -1 0 0
    outer loop
      vertex -25 -15 14
      vertex -25 15 16
      vertex -25 15 14
    endloop
  endfacet
  facet normal -1 -0 0
    outer loop
      vertex -25 15 16
      vertex -25 -15 14
      vertex -25 -15 16
    endloop
  endfacet
  facet normal 0 1 -0
    outer loop
      vertex 25 15 14
      vertex -25 15 16
      vertex 25 15 16
    endloop
  endfacet
  facet normal 0 1 0
    outer loop
      vertex -25 15 16
      vertex 25 15 14
      vertex -25 15 14
    endloop
  endfacet
  facet normal 0 -1 0
    outer loop
      vertex -25 -15 14
      vertex 25 -15 16
      vertex -25 -15 16
    endloop
  endfacet
  facet normal 0 -1 -0
    outer loop
      vertex 25 -15 16
      vertex -25 -15 14
      vertex 25 -15 14
    endloop
  endfacet
endsolid OpenSCAD_Model
