solid OpenSCAD_Model
  facet normal 1 -0 0
    outer loop
      vertex 25 -5 2.5
      vertex 25 5 -2.5
      vertex 25 5 2.5
    endloop
  endfacet
  facet normal 1 0 0
    outer loop
      vertex 25 5 -2.5
      vertex 25 -5 2.5
      vertex 25 -5 -2.5
    endloop
  endfacet
  facet normal -0 0 1
    outer loop
      vertex 0 10 2.5
      vertex 8.66025 5 2.5
      vertex 8.16987 24.1506 2.5
    endloop
  endfacet
  facet normal 0 0 1
    outer loop
      vertex 8.16987 24.1506 2.5
      vertex 8.66025 5 2.5
      vertex 16.8301 19.1506 2.5
    endloop
  endfacet
  facet normal -0 0 1
    outer loop
      vertex 8.66025 5 2.5
      vertex 25 -5 2.5
      vertex 25 5 2.5
    endloop
  endfacet
  facet normal 0 0 1
    outer loop
      vertex 25 -5 2.5
      vertex 8.66025 5 2.5
      vertex 8.66025 -5 2.5
    endloop
  endfacet
  facet normal 0 0 1
    outer loop
      vertex 8.66025 -5 2.5
      vertex 8.16987 -24.1506 2.5
      vertex 16.8301 -19.1506 2.5
    endloop
  endfacet
  facet normal 0 0 1
    outer loop
      vertex 8.66025 5 2.5
      vertex 0 10 2.5
      vertex 8.66025 -5 2.5
    endloop
  endfacet
  facet normal 0 0 1
    outer loop
      vertex 0 -10 2.5
      vertex 8.66025 -5 2.5
      vertex 0 10 2.5
    endloop
  endfacet
  facet normal 0 0 1
    outer loop
      vertex 8.66025 -5 2.5
      vertex 0 -10 2.5
      vertex 8.16987 -24.1506 2.5
    endloop
  endfacet
  facet normal 0 0 1
    outer loop
      vertex -8.66025 5 2.5
      vertex 0 10 2.5
      vertex -8.16987 24.1506 2.5
    endloop
  endfacet
  facet normal 0 0 1
    outer loop
      vertex 0 10 2.5
      vertex -8.66025 5 2.5
      vertex 0 -10 2.5
    endloop
  endfacet
  facet normal -0 0 1
    outer loop
      vertex -8.66025 -5 2.5
      vertex 0 -10 2.5
      vertex -8.66025 5 2.5
    endloop
  endfacet
  facet normal 0 -0 1
    outer loop
      vertex -8.66025 5 2.5
      vertex -8.16987 24.1506 2.5
      vertex -16.8301 19.1506 2.5
    endloop
  endfacet
  facet normal -0 0 1
    outer loop
      vertex -25 5 2.5
      vertex -8.66025 -5 2.5
      vertex -8.66025 5 2.5
    endloop
  endfacet
  facet normal 0 0 1
    outer loop
      vertex -8.66025 -5 2.5
      vertex -25 5 2.5
      vertex -25 -5 2.5
    endloop
  endfacet
  facet normal 0 0 1
    outer loop
      vertex 0 -10 2.5
      vertex -8.66025 -5 2.5
      vertex -8.16987 -24.1506 2.5
    endloop
  endfacet
  facet normal 0 0 1
    outer loop
      vertex -8.16987 -24.1506 2.5
      vertex -8.66025 -5 2.5
      vertex -16.8301 -19.1506 2.5
    endloop
  endfacet
  facet normal 0 0 -1
    outer loop
      vertex 0 -10 -2.5
      vertex 8.66025 -5 -2.5
      vertex 8.16987 -24.1506 -2.5
    endloop
  endfacet
  facet normal 0 0 -1
    outer loop
      vertex 8.16987 -24.1506 -2.5
      vertex 8.66025 -5 -2.5
      vertex 16.8301 -19.1506 -2.5
    endloop
  endfacet
  facet normal 0 0 -1
    outer loop
      vertex 8.66025 -5 -2.5
      vertex 25 5 -2.5
      vertex 25 -5 -2.5
    endloop
  endfacet
  facet normal -0 0 -1
    outer loop
      vertex 25 5 -2.5
      vertex 8.66025 -5 -2.5
      vertex 8.66025 5 -2.5
    endloop
  endfacet
  facet normal 0 0 -1
    outer loop
      vertex 8.66025 5 -2.5
      vertex 8.16987 24.1506 -2.5
      vertex 16.8301 19.1506 -2.5
    endloop
  endfacet
  facet normal -0 0 -1
    outer loop
      vertex 8.66025 -5 -2.5
      vertex 0 -10 -2.5
      vertex 8.66025 5 -2.5
    endloop
  endfacet
  facet normal 0 0 -1
    outer loop
      vertex 0 10 -2.5
      vertex 8.66025 5 -2.5
      vertex 0 -10 -2.5
    endloop
  endfacet
  facet normal 0 0 -1
    outer loop
      vertex 8.66025 5 -2.5
      vertex 0 10 -2.5
      vertex 8.16987 24.1506 -2.5
    endloop
  endfacet
  facet normal 0 0 -1
    outer loop
      vertex -8.66025 -5 -2.5
      vertex 0 -10 -2.5
      vertex -8.16987 -24.1506 -2.5
    endloop
  endfacet
  facet normal 0 0 -1
    outer loop
      vertex 0 -10 -2.5
      vertex -8.66025 -5 -2.5
      vertex 0 10 -2.5
    endloop
  endfacet
  facet normal 0 0 -1
    outer loop
      vertex -8.66025 5 -2.5
      vertex 0 10 -2.5
      vertex -8.66025 -5 -2.5
    endloop
  endfacet
  facet normal 0 -0 -1
    outer loop
      vertex -8.66025 -5 -2.5
      vertex -8.16987 -24.1506 -2.5
      vertex -16.8301 -19.1506 -2.5
    endloop
  endfacet
  facet normal 0 0 -1
    outer loop
      vertex -25 -5 -2.5
      vertex -8.66025 5 -2.5
      vertex -8.66025 -5 -2.5
    endloop
  endfacet
  facet normal -0 0 -1
    outer loop
      vertex -8.66025 5 -2.5
      vertex -25 -5 -2.5
      vertex -25 5 -2.5
    endloop
  endfacet
  facet normal -0 0 -1
    outer loop
      vertex 0 10 -2.5
      vertex -8.66025 5 -2.5
      vertex -8.16987 24.1506 -2.5
    endloop
  endfacet
  facet normal 0 0 -1
    outer loop
      vertex -8.16987 24.1506 -2.5
      vertex -8.66025 5 -2.5
      vertex -16.8301 19.1506 -2.5
    endloop
  endfacet
  facet normal -1 0 0
    outer loop
      vertex -25 -5 -2.5
      vertex -25 5 2.5
      vertex -25 5 -2.5
    endloop
  endfacet
  facet normal -1 -0 0
    outer loop
      vertex -25 5 2.5
      vertex -25 -5 -2.5
      vertex -25 -5 2.5
    endloop
  endfacet
  facet normal 0 1 -0
    outer loop
      vertex 25 5 -2.5
      vertex 8.66025 5 2.5
      vertex 25 5 2.5
    endloop
  endfacet
  facet normal 0 1 0
    outer loop
      vertex 8.66025 5 2.5
      vertex 25 5 -2.5
      vertex 8.66025 5 -2.5
    endloop
  endfacet
  facet normal 0 1 -0
    outer loop
      vertex -8.66025 5 -2.5
      vertex -25 5 2.5
      vertex -8.66025 5 2.5
    endloop
  endfacet
  facet normal 0 1 0
    outer loop
      vertex -25 5 2.5
      vertex -8.66025 5 -2.5
      vertex -25 5 -2.5
    endloop
  endfacet
  facet normal 0 -1 0
    outer loop
      vertex 8.66025 -5 -2.5
      vertex 25 -5 2.5
      vertex 8.66025 -5 2.5
    endloop
  endfacet
  facet normal 0 -1 -0
    outer loop
      vertex 25 -5 2.5
      vertex 8.66025 -5 -2.5
      vertex 25 -5 -2.5
    endloop
  endfacet
  facet normal 0 -1 0
    outer loop
      vertex -25 -5 -2.5
      vertex -8.66025 -5 2.5
      vertex -25 -5 2.5
    endloop
  endfacet
  facet normal 0 -1 -0
    outer loop
      vertex -8.66025 -5 2.5
      vertex -25 -5 -2.5
      vertex -8.66025 -5 -2.5
    endloop
  endfacet
  facet normal -0.500001 -0.866025 0
    outer loop
      vertex -16.8301 -19.1506 -2.5
      vertex -8.16987 -24.1506 2.5
      vertex -16.8301 -19.1506 2.5
    endloop
  endfacet
  facet normal -0.500001 -0.866025 -0
    outer loop
      vertex -8.16987 -24.1506 2.5
      vertex -16.8301 -19.1506 -2.5
      vertex -8.16987 -24.1506 -2.5
    endloop
  endfacet
  facet normal -0.866025 0.5 0
    outer loop
      vertex -16.8301 -19.1506 -2.5
      vertex -8.66025 -5 2.5
      vertex -8.66025 -5 -2.5
    endloop
  endfacet
  facet normal -0.866025 0.5 0
    outer loop
      vertex -8.66025 -5 2.5
      vertex -16.8301 -19.1506 -2.5
      vertex -16.8301 -19.1506 2.5
    endloop
  endfacet
  facet normal -0.866025 0.500001 0
    outer loop
      vertex 0 10 -2.5
      vertex 8.16987 24.1506 2.5
      vertex 8.16987 24.1506 -2.5
    endloop
  endfacet
  facet normal -0.866025 0.500001 0
    outer loop
      vertex 8.16987 24.1506 2.5
      vertex 0 10 -2.5
      vertex 0 10 2.5
    endloop
  endfacet
  facet normal 0.866025 -0.500001 0
    outer loop
      vertex -8.16987 -24.1506 2.5
      vertex 0 -10 -2.5
      vertex 0 -10 2.5
    endloop
  endfacet
  facet normal 0.866025 -0.500001 0
    outer loop
      vertex 0 -10 -2.5
      vertex -8.16987 -24.1506 2.5
      vertex -8.16987 -24.1506 -2.5
    endloop
  endfacet
  facet normal 0.866025 -0.5 0
    outer loop
      vertex 8.66025 5 2.5
      vertex 16.8301 19.1506 -2.5
      vertex 16.8301 19.1506 2.5
    endloop
  endfacet
  facet normal 0.866025 -0.5 0
    outer loop
      vertex 16.8301 19.1506 -2.5
      vertex 8.66025 5 2.5
      vertex 8.66025 5 -2.5
    endloop
  endfacet
  facet normal 0.500001 0.866025 -0
    outer loop
      vertex 16.8301 19.1506 -2.5
      vertex 8.16987 24.1506 2.5
      vertex 16.8301 19.1506 2.5
    endloop
  endfacet
  facet normal 0.500001 0.866025 0
    outer loop
      vertex 8.16987 24.1506 2.5
      vertex 16.8301 19.1506 -2.5
      vertex 8.16987 24.1506 -2.5
    endloop
  endfacet
  facet normal 0.500001 -0.866025 0
    outer loop
      vertex 8.16987 -24.1506 -2.5
      vertex 16.8301 -19.1506 2.5
      vertex 8.16987 -24.1506 2.5
    endloop
  endfacet
  facet normal 0.500001 -0.866025 0
    outer loop
      vertex 16.8301 -19.1506 2.5
      vertex 8.16987 -24.1506 -2.5
      vertex 16.8301 -19.1506 -2.5
    endloop
  endfacet
  facet normal -0.866025 -0.5 0
    outer loop
      vertex -8.66025 5 -2.5
      vertex -16.8301 19.1506 2.5
      vertex -16.8301 19.1506 -2.5
    endloop
  endfacet
  facet normal -0.866025 -0.5 0
    outer loop
      vertex -16.8301 19.1506 2.5
      vertex -8.66025 5 -2.5
      vertex -8.66025 5 2.5
    endloop
  endfacet
  facet normal -0.866025 -0.500001 0
    outer loop
      vertex 8.16987 -24.1506 -2.5
      vertex 0 -10 2.5
      vertex 0 -10 -2.5
    endloop
  endfacet
  facet normal -0.866025 -0.500001 0
    outer loop
      vertex 0 -10 2.5
      vertex 8.16987 -24.1506 -2.5
      vertex 8.16987 -24.1506 2.5
    endloop
  endfacet
  facet normal 0.866025 0.500001 0
    outer loop
      vertex 0 10 2.5
      vertex -8.16987 24.1506 -2.5
      vertex -8.16987 24.1506 2.5
    endloop
  endfacet
  facet normal 0.866025 0.500001 0
    outer loop
      vertex -8.16987 24.1506 -2.5
      vertex 0 10 2.5
      vertex 0 10 -2.5
    endloop
  endfacet
  facet normal 0.866025 0.5 0
    outer loop
      vertex 16.8301 -19.1506 2.5
      vertex 8.66025 -5 -2.5
      vertex 8.66025 -5 2.5
    endloop
  endfacet
  facet normal 0.866025 0.5 0
    outer loop
      vertex 8.66025 -5 -2.5
      vertex 16.8301 -19.1506 2.5
      vertex 16.8301 -19.1506 -2.5
    endloop
  endfacet
  facet normal -0.500001 0.866025 0
    outer loop
      vertex -8.16987 24.1506 -2.5
      vertex -16.8301 19.1506 2.5
      vertex -8.16987 24.1506 2.5
    endloop
  endfacet
  facet normal -0.500001 0.866025 0
    outer loop
      vertex -16.8301 19.1506 2.5
      vertex -8.16987 24.1506 -2.5
      vertex -16.8301 19.1506 -2.5
    endloop
  endfacet
endsolid OpenSCAD_Model
