solid OpenSCAD_Model
  facet normal 1 -0 0
    outer loop
      vertex 25 -5 2.5
      vertex 25 5 -2.5
      vertex 25 5 2.5
    endloop
  endfacet
  facet normal 1 0 0
    outer loop
      vertex 25 5 -2.5
      vertex 25 -5 2.5
      vertex 25 -5 -2.5
    endloop
  endfacet
  facet normal -0 0 1
    outer loop
      vertex -25 5 2.5
      vertex 25 -5 2.5
      vertex 25 5 2.5
    endloop
  endfacet
  facet normal 0 0 1
    outer loop
      vertex 25 -5 2.5
      vertex -25 5 2.5
      vertex -25 -5 2.5
    endloop
  endfacet
  facet normal 0 0 -1
    outer loop
      vertex -25 -5 -2.5
      vertex 25 5 -2.5
      vertex 25 -5 -2.5
    endloop
  endfacet
  facet normal -0 0 -1
    outer loop
      vertex 25 5 -2.5
      vertex -25 -5 -2.5
      vertex -25 5 -2.5
    endloop
  endfacet
  facet normal -1 0 0
    outer loop
      vertex -25 -5 -2.5
      vertex -25 5 2.5
      vertex -25 5 -2.5
    endloop
  endfacet
  facet normal -1 -0 0
    outer loop
      vertex -25 5 2.5
      vertex -25 -5 -2.5
      vertex -25 -5 2.5
    endloop
  endfacet
  facet normal 0 1 -0
    outer loop
      vertex 25 5 -2.5
      vertex -25 5 2.5
      vertex 25 5 2.5
    endloop
  endfacet
  facet normal 0 1 0
    outer loop
      vertex -25 5 2.5
      vertex 25 5 -2.5
      vertex -25 5 -2.5
    endloop
  endfacet
  facet normal 0 -1 0
    outer loop
      vertex -25 -5 -2.5
      vertex 25 -5 2.5
      vertex -25 -5 2.5
    endloop
  endfacet
  facet normal 0 -1 -0
    outer loop
      vertex 25 -5 2.5
      vertex -25 -5 -2.5
      vertex 25 -5 -2.5
    endloop
  endfacet
  facet normal 1 -0 0
    outer loop
      vertex 85 -5 2.5
      vertex 85 5 -2.5
      vertex 85 5 2.5
    endloop
  endfacet
  facet normal 1 0 0
    outer loop
      vertex 85 5 -2.5
      vertex 85 -5 2.5
      vertex 85 -5 -2.5
    endloop
  endfacet
  facet normal -0 0 1
    outer loop
      vertex 35 5 2.5
      vertex 85 -5 2.5
      vertex 85 5 2.5
    endloop
  endfacet
  facet normal 0 0 1
    outer loop
      vertex 85 -5 2.5
      vertex 35 5 2.5
      vertex 35 -5 2.5
    endloop
  endfacet
  facet normal 0 0 -1
    outer loop
      vertex 35 -5 -2.5
      vertex 85 5 -2.5
      vertex 85 -5 -2.5
    endloop
  endfacet
  facet normal -0 0 -1
    outer loop
      vertex 85 5 -2.5
      vertex 35 -5 -2.5
      vertex 35 5 -2.5
    endloop
  endfacet
  facet normal -1 0 0
    outer loop
      vertex 35 -5 -2.5
      vertex 35 5 2.5
      vertex 35 5 -2.5
    endloop
  endfacet
  facet normal -1 -0 0
    outer loop
      vertex 35 5 2.5
      vertex 35 -5 -2.5
      vertex 35 -5 2.5
    endloop
  endfacet
  facet normal 0 1 -0
    outer loop
      vertex 85 5 -2.5
      vertex 35 5 2.5
      vertex 85 5 2.5
    endloop
  endfacet
  facet normal 0 1 0
    outer loop
      vertex 35 5 2.5
      vertex 85 5 -2.5
      vertex 35 5 -2.5
    endloop
  endfacet
  facet normal 0 -1 0
    outer loop
      vertex 35 -5 -2.5
      vertex 85 -5 2.5
      vertex 35 -5 2.5
    endloop
  endfacet
  facet normal 0 -1 -0
    outer loop
      vertex 85 -5 2.5
      vertex 35 -5 -2.5
      vertex 85 -5 -2.5
    endloop
  endfacet
  facet normal 1 -0 0
    outer loop
      vertex 145 -5 2.5
      vertex 145 5 -2.5
      vertex 145 5 2.5
    endloop
  endfacet
  facet normal 1 0 0
    outer loop
      vertex 145 5 -2.5
      vertex 145 -5 2.5
      vertex 145 -5 -2.5
    endloop
  endfacet
  facet normal -0 0 1
    outer loop
      vertex 95 5 2.5
      vertex 145 -5 2.5
      vertex 145 5 2.5
    endloop
  endfacet
  facet normal 0 0 1
    outer loop
      vertex 145 -5 2.5
      vertex 95 5 2.5
      vertex 95 -5 2.5
    endloop
  endfacet
  facet normal 0 0 -1
    outer loop
      vertex 95 -5 -2.5
      vertex 145 5 -2.5
      vertex 145 -5 -2.5
    endloop
  endfacet
  facet normal -0 0 -1
    outer loop
      vertex 145 5 -2.5
      vertex 95 -5 -2.5
      vertex 95 5 -2.5
    endloop
  endfacet
  facet normal -1 0 0
    outer loop
      vertex 95 -5 -2.5
      vertex 95 5 2.5
      vertex 95 5 -2.5
    endloop
  endfacet
  facet normal -1 -0 0
    outer loop
      vertex 95 5 2.5
      vertex 95 -5 -2.5
      vertex 95 -5 2.5
    endloop
  endfacet
  facet normal 0 1 -0
    outer loop
      vertex 145 5 -2.5
      vertex 95 5 2.5
      vertex 145 5 2.5
    endloop
  endfacet
  facet normal 0 1 0
    outer loop
      vertex 95 5 2.5
      vertex 145 5 -2.5
      vertex 95 5 -2.5
    endloop
  endfacet
  facet normal 0 -1 0
    outer loop
      vertex 95 -5 -2.5
      vertex 145 -5 2.5
      vertex 95 -5 2.5
    endloop
  endfacet
  facet normal 0 -1 -0
    outer loop
      vertex 145 -5 2.5
      vertex 95 -5 -2.5
      vertex 145 -5 -2.5
    endloop
  endfacet
  facet normal 1 -0 0
    outer loop
      vertex 205 -5 2.5
      vertex 205 5 -2.5
      vertex 205 5 2.5
    endloop
  endfacet
  facet normal 1 0 0
    outer loop
      vertex 205 5 -2.5
      vertex 205 -5 2.5
      vertex 205 -5 -2.5
    endloop
  endfacet
  facet normal -0 0 1
    outer loop
      vertex 155 5 2.5
      vertex 205 -5 2.5
      vertex 205 5 2.5
    endloop
  endfacet
  facet normal 0 0 1
    outer loop
      vertex 205 -5 2.5
      vertex 155 5 2.5
      vertex 155 -5 2.5
    endloop
  endfacet
  facet normal 0 0 -1
    outer loop
      vertex 155 -5 -2.5
      vertex 205 5 -2.5
      vertex 205 -5 -2.5
    endloop
  endfacet
  facet normal -0 0 -1
    outer loop
      vertex 205 5 -2.5
      vertex 155 -5 -2.5
      vertex 155 5 -2.5
    endloop
  endfacet
  facet normal -1 0 0
    outer loop
      vertex 155 -5 -2.5
      vertex 155 5 2.5
      vertex 155 5 -2.5
    endloop
  endfacet
  facet normal -1 -0 0
    outer loop
      vertex 155 5 2.5
      vertex 155 -5 -2.5
      vertex 155 -5 2.5
    endloop
  endfacet
  facet normal 0 1 -0
    outer loop
      vertex 205 5 -2.5
      vertex 155 5 2.5
      vertex 205 5 2.5
    endloop
  endfacet
  facet normal 0 1 0
    outer loop
      vertex 155 5 2.5
      vertex 205 5 -2.5
      vertex 155 5 -2.5
    endloop
  endfacet
  facet normal 0 -1 0
    outer loop
      vertex 155 -5 -2.5
      vertex 205 -5 2.5
      vertex 155 -5 2.5
    endloop
  endfacet
  facet normal 0 -1 -0
    outer loop
      vertex 205 -5 2.5
      vertex 155 -5 -2.5
      vertex 205 -5 -2.5
    endloop
  endfacet
  facet normal 1 -0 0
    outer loop
      vertex 265 -5 2.5
      vertex 265 5 -2.5
      vertex 265 5 2.5
    endloop
  endfacet
  facet normal 1 0 0
    outer loop
      vertex 265 5 -2.5
      vertex 265 -5 2.5
      vertex 265 -5 -2.5
    endloop
  endfacet
  facet normal -0 0 1
    outer loop
      vertex 215 5 2.5
      vertex 265 -5 2.5
      vertex 265 5 2.5
    endloop
  endfacet
  facet normal 0 0 1
    outer loop
      vertex 265 -5 2.5
      vertex 215 5 2.5
      vertex 215 -5 2.5
    endloop
  endfacet
  facet normal 0 0 -1
    outer loop
      vertex 215 -5 -2.5
      vertex 265 5 -2.5
      vertex 265 -5 -2.5
    endloop
  endfacet
  facet normal -0 0 -1
    outer loop
      vertex 265 5 -2.5
      vertex 215 -5 -2.5
      vertex 215 5 -2.5
    endloop
  endfacet
  facet normal -1 0 0
    outer loop
      vertex 215 -5 -2.5
      vertex 215 5 2.5
      vertex 215 5 -2.5
    endloop
  endfacet
  facet normal -1 -0 0
    outer loop
      vertex 215 5 2.5
      vertex 215 -5 -2.5
      vertex 215 -5 2.5
    endloop
  endfacet
  facet normal 0 1 -0
    outer loop
      vertex 265 5 -2.5
      vertex 215 5 2.5
      vertex 265 5 2.5
    endloop
  endfacet
  facet normal 0 1 0
    outer loop
      vertex 215 5 2.5
      vertex 265 5 -2.5
      vertex 215 5 -2.5
    endloop
  endfacet
  facet normal 0 -1 0
    outer loop
      vertex 215 -5 -2.5
      vertex 265 -5 2.5
      vertex 215 -5 2.5
    endloop
  endfacet
  facet normal 0 -1 -0
    outer loop
      vertex 265 -5 2.5
      vertex 215 -5 -2.5
      vertex 265 -5 -2.5
    endloop
  endfacet
  facet normal 1 -0 0
    outer loop
      vertex 325 -5 2.5
      vertex 325 5 -2.5
      vertex 325 5 2.5
    endloop
  endfacet
  facet normal 1 0 0
    outer loop
      vertex 325 5 -2.5
      vertex 325 -5 2.5
      vertex 325 -5 -2.5
    endloop
  endfacet
  facet normal -0 0 1
    outer loop
      vertex 275 5 2.5
      vertex 325 -5 2.5
      vertex 325 5 2.5
    endloop
  endfacet
  facet normal 0 0 1
    outer loop
      vertex 325 -5 2.5
      vertex 275 5 2.5
      vertex 275 -5 2.5
    endloop
  endfacet
  facet normal 0 0 -1
    outer loop
      vertex 275 -5 -2.5
      vertex 325 5 -2.5
      vertex 325 -5 -2.5
    endloop
  endfacet
  facet normal -0 0 -1
    outer loop
      vertex 325 5 -2.5
      vertex 275 -5 -2.5
      vertex 275 5 -2.5
    endloop
  endfacet
  facet normal -1 0 0
    outer loop
      vertex 275 -5 -2.5
      vertex 275 5 2.5
      vertex 275 5 -2.5
    endloop
  endfacet
  facet normal -1 -0 0
    outer loop
      vertex 275 5 2.5
      vertex 275 -5 -2.5
      vertex 275 -5 2.5
    endloop
  endfacet
  facet normal 0 1 -0
    outer loop
      vertex 325 5 -2.5
      vertex 275 5 2.5
      vertex 325 5 2.5
    endloop
  endfacet
  facet normal 0 1 0
    outer loop
      vertex 275 5 2.5
      vertex 325 5 -2.5
      vertex 275 5 -2.5
    endloop
  endfacet
  facet normal 0 -1 0
    outer loop
      vertex 275 -5 -2.5
      vertex 325 -5 2.5
      vertex 275 -5 2.5
    endloop
  endfacet
  facet normal 0 -1 -0
    outer loop
      vertex 325 -5 2.5
      vertex 275 -5 -2.5
      vertex 325 -5 -2.5
    endloop
  endfacet
endsolid OpenSCAD_Model
