solid OpenSCAD_Model
  facet normal 1 -0 0
    outer loop
      vertex 60 0 3
      vertex 60 15 0
      vertex 60 15 3
    endloop
  endfacet
  facet normal 1 0 0
    outer loop
      vertex 60 15 0
      vertex 60 0 3
      vertex 60 0 0
    endloop
  endfacet
  facet normal 0 0 1
    outer loop
      vertex 60 15 3
      vertex 9.37868 9.5 3
      vertex 60 0 3
    endloop
  endfacet
  facet normal -0 0 1
    outer loop
      vertex 0 15 3
      vertex 9.37868 9.5 3
      vertex 60 15 3
    endloop
  endfacet
  facet normal 0 0 1
    outer loop
      vertex 5.62132 9.5 3
      vertex 0 15 3
      vertex 5.62132 5.5 3
    endloop
  endfacet
  facet normal 0 0 1
    outer loop
      vertex 9.37868 9.5 3
      vertex 0 15 3
      vertex 5.62132 9.5 3
    endloop
  endfacet
  facet normal -0 0 1
    outer loop
      vertex 9.37868 5.5 3
      vertex 60 0 3
      vertex 9.37868 9.5 3
    endloop
  endfacet
  facet normal 0 0 1
    outer loop
      vertex 0 0 3
      vertex 9.37868 5.5 3
      vertex 5.62132 5.5 3
    endloop
  endfacet
  facet normal 0 0 1
    outer loop
      vertex 9.37868 5.5 3
      vertex 0 0 3
      vertex 60 0 3
    endloop
  endfacet
  facet normal 0 0 1
    outer loop
      vertex 0 0 3
      vertex 5.62132 5.5 3
      vertex 0 15 3
    endloop
  endfacet
  facet normal 0 0 -1
    outer loop
      vertex 60 0 0
      vertex 9.37868 5.5 0
      vertex 60 15 0
    endloop
  endfacet
  facet normal 0 0 -1
    outer loop
      vertex 0 0 0
      vertex 9.37868 5.5 0
      vertex 60 0 0
    endloop
  endfacet
  facet normal -0 0 -1
    outer loop
      vertex 5.62132 5.5 0
      vertex 0 0 0
      vertex 5.62132 9.5 0
    endloop
  endfacet
  facet normal -0 0 -1
    outer loop
      vertex 9.37868 5.5 0
      vertex 0 0 0
      vertex 5.62132 5.5 0
    endloop
  endfacet
  facet normal 0 0 -1
    outer loop
      vertex 9.37868 9.5 0
      vertex 60 15 0
      vertex 9.37868 5.5 0
    endloop
  endfacet
  facet normal 0 0 -1
    outer loop
      vertex 0 15 0
      vertex 9.37868 9.5 0
      vertex 5.62132 9.5 0
    endloop
  endfacet
  facet normal 0 0 -1
    outer loop
      vertex 9.37868 9.5 0
      vertex 0 15 0
      vertex 60 15 0
    endloop
  endfacet
  facet normal 0 0 -1
    outer loop
      vertex 0 15 0
      vertex 5.62132 9.5 0
      vertex 0 0 0
    endloop
  endfacet
  facet normal -1 0 0
    outer loop
      vertex 0 0 0
      vertex 0 15 3
      vertex 0 15 0
    endloop
  endfacet
  facet normal -1 -0 0
    outer loop
      vertex 0 15 3
      vertex 0 0 0
      vertex 0 0 3
    endloop
  endfacet
  facet normal 0 1 -0
    outer loop
      vertex 60 15 0
      vertex 0 15 3
      vertex 60 15 3
    endloop
  endfacet
  facet normal 0 1 0
    outer loop
      vertex 0 15 3
      vertex 60 15 0
      vertex 0 15 0
    endloop
  endfacet
  facet normal 0 -1 0
    outer loop
      vertex 0 0 0
      vertex 60 0 3
      vertex 0 0 3
    endloop
  endfacet
  facet normal 0 -1 -0
    outer loop
      vertex 60 0 3
      vertex 0 0 0
      vertex 60 0 0
    endloop
  endfacet
  facet normal 0.382682 0 0.92388
    outer loop
      vertex 7.5 9.5 4
      vertex 9.26777 5.5 3.26777
      vertex 9.26777 9.5 3.26777
    endloop
  endfacet
  facet normal 0.382682 0 0.92388
    outer loop
      vertex 9.26777 5.5 3.26777
      vertex 7.5 9.5 4
      vertex 7.5 5.5 4
    endloop
  endfacet
  facet normal 0.923884 -0 0.382672
    outer loop
      vertex 9.26777 5.5 3.26777
      vertex 9.37868 9.5 3
      vertex 9.26777 9.5 3.26777
    endloop
  endfacet
  facet normal 0.923884 0 0.382672
    outer loop
      vertex 9.37868 9.5 3
      vertex 9.26777 5.5 3.26777
      vertex 9.37868 5.5 3
    endloop
  endfacet
  facet normal -0.382682 0 0.92388
    outer loop
      vertex 5.73223 9.5 3.26777
      vertex 7.5 5.5 4
      vertex 7.5 9.5 4
    endloop
  endfacet
  facet normal -0.382682 0 0.92388
    outer loop
      vertex 7.5 5.5 4
      vertex 5.73223 9.5 3.26777
      vertex 5.73223 5.5 3.26777
    endloop
  endfacet
  facet normal -0.382683 0 -0.92388
    outer loop
      vertex 5.73223 5.5 -0.267767
      vertex 7.5 9.5 -1
      vertex 7.5 5.5 -1
    endloop
  endfacet
  facet normal -0.382683 0 -0.92388
    outer loop
      vertex 7.5 9.5 -1
      vertex 5.73223 5.5 -0.267767
      vertex 5.73223 9.5 -0.267767
    endloop
  endfacet
  facet normal 0 -1 0
    outer loop
      vertex 5.62132 5.5 3
      vertex 7.5 5.5 4
      vertex 5.73223 5.5 3.26777
    endloop
  endfacet
  facet normal 0 -1 0
    outer loop
      vertex 9.37868 5.5 3
      vertex 7.5 5.5 4
      vertex 5.62132 5.5 3
    endloop
  endfacet
  facet normal 0 -1 0
    outer loop
      vertex 7.5 5.5 4
      vertex 9.37868 5.5 3
      vertex 9.26777 5.5 3.26777
    endloop
  endfacet
  facet normal 0 -1 0
    outer loop
      vertex 7.5 5.5 -1
      vertex 5.62132 5.5 0
      vertex 5.73223 5.5 -0.267767
    endloop
  endfacet
  facet normal 0 -1 0
    outer loop
      vertex 5.62132 5.5 0
      vertex 7.5 5.5 -1
      vertex 9.37868 5.5 0
    endloop
  endfacet
  facet normal 0 -1 0
    outer loop
      vertex 9.37868 5.5 0
      vertex 7.5 5.5 -1
      vertex 9.26777 5.5 -0.267767
    endloop
  endfacet
  facet normal -0.923884 0 0.382672
    outer loop
      vertex 5.62132 5.5 3
      vertex 5.73223 9.5 3.26777
      vertex 5.62132 9.5 3
    endloop
  endfacet
  facet normal -0.923884 0 0.382672
    outer loop
      vertex 5.73223 9.5 3.26777
      vertex 5.62132 5.5 3
      vertex 5.73223 5.5 3.26777
    endloop
  endfacet
  facet normal 0 1 0
    outer loop
      vertex 9.37868 9.5 3
      vertex 7.5 9.5 4
      vertex 9.26777 9.5 3.26777
    endloop
  endfacet
  facet normal 0 1 0
    outer loop
      vertex 5.62132 9.5 3
      vertex 7.5 9.5 4
      vertex 9.37868 9.5 3
    endloop
  endfacet
  facet normal 0 1 0
    outer loop
      vertex 7.5 9.5 4
      vertex 5.62132 9.5 3
      vertex 5.73223 9.5 3.26777
    endloop
  endfacet
  facet normal 0 1 0
    outer loop
      vertex 7.5 9.5 -1
      vertex 9.37868 9.5 0
      vertex 9.26777 9.5 -0.267767
    endloop
  endfacet
  facet normal 0 1 0
    outer loop
      vertex 9.37868 9.5 0
      vertex 7.5 9.5 -1
      vertex 5.62132 9.5 0
    endloop
  endfacet
  facet normal 0 1 0
    outer loop
      vertex 5.62132 9.5 0
      vertex 7.5 9.5 -1
      vertex 5.73223 9.5 -0.267767
    endloop
  endfacet
  facet normal 0.382683 0 -0.92388
    outer loop
      vertex 7.5 5.5 -1
      vertex 9.26777 9.5 -0.267767
      vertex 9.26777 5.5 -0.267767
    endloop
  endfacet
  facet normal 0.382683 0 -0.92388
    outer loop
      vertex 9.26777 9.5 -0.267767
      vertex 7.5 5.5 -1
      vertex 7.5 9.5 -1
    endloop
  endfacet
  facet normal -0.923883 0 -0.382675
    outer loop
      vertex 5.73223 5.5 -0.267767
      vertex 5.62132 9.5 0
      vertex 5.73223 9.5 -0.267767
    endloop
  endfacet
  facet normal -0.923883 -0 -0.382675
    outer loop
      vertex 5.62132 9.5 0
      vertex 5.73223 5.5 -0.267767
      vertex 5.62132 5.5 0
    endloop
  endfacet
  facet normal 0.923883 0 -0.382675
    outer loop
      vertex 9.37868 5.5 0
      vertex 9.26777 9.5 -0.267767
      vertex 9.37868 9.5 0
    endloop
  endfacet
  facet normal 0.923883 0 -0.382675
    outer loop
      vertex 9.26777 9.5 -0.267767
      vertex 9.37868 5.5 0
      vertex 9.26777 5.5 -0.267767
    endloop
  endfacet
endsolid OpenSCAD_Model
