solid OpenSCAD_Model
  facet normal 1 -0 0
    outer loop
      vertex 30 -15 7.5
      vertex 30 15 -7.5
      vertex 30 15 7.5
    endloop
  endfacet
  facet normal 1 0 0
    outer loop
      vertex 30 15 -7.5
      vertex 30 -15 7.5
      vertex 30 -15 -7.5
    endloop
  endfacet
  facet normal -0 0 1
    outer loop
      vertex -30 15 7.5
      vertex 30 -15 7.5
      vertex 30 15 7.5
    endloop
  endfacet
  facet normal 0 0 1
    outer loop
      vertex 30 -15 7.5
      vertex -30 15 7.5
      vertex -30 -15 7.5
    endloop
  endfacet
  facet normal 0 0 -1
    outer loop
      vertex -30 -15 -7.5
      vertex 30 15 -7.5
      vertex 30 -15 -7.5
    endloop
  endfacet
  facet normal -0 0 -1
    outer loop
      vertex 30 15 -7.5
      vertex -30 -15 -7.5
      vertex -30 15 -7.5
    endloop
  endfacet
  facet normal -1 0 0
    outer loop
      vertex -30 -15 -7.5
      vertex -30 15 7.5
      vertex -30 15 -7.5
    endloop
  endfacet
  facet normal -1 -0 0
    outer loop
      vertex -30 15 7.5
      vertex -30 -15 -7.5
      vertex -30 -15 7.5
    endloop
  endfacet
  facet normal 0 1 -0
    outer loop
      vertex 30 15 -7.5
      vertex -30 15 7.5
      vertex 30 15 7.5
    endloop
  endfacet
  facet normal 0 1 0
    outer loop
      vertex -30 15 7.5
      vertex 30 15 -7.5
      vertex -30 15 -7.5
    endloop
  endfacet
  facet normal 0 -1 0
    outer loop
      vertex -30 -15 -7.5
      vertex 30 -15 7.5
      vertex -30 -15 7.5
    endloop
  endfacet
  facet normal 0 -1 -0
    outer loop
      vertex 30 -15 7.5
      vertex -30 -15 -7.5
      vertex 30 -15 -7.5
    endloop
  endfacet
  facet normal 1 -0 0
    outer loop
      vertex 20 -10 20
      vertex 20 10 10
      vertex 20 10 20
    endloop
  endfacet
  facet normal 1 0 0
    outer loop
      vertex 20 10 10
      vertex 20 -10 20
      vertex 20 -10 10
    endloop
  endfacet
  facet normal -0 0 1
    outer loop
      vertex -20 10 20
      vertex 20 -10 20
      vertex 20 10 20
    endloop
  endfacet
  facet normal 0 0 1
    outer loop
      vertex 20 -10 20
      vertex -20 10 20
      vertex -20 -10 20
    endloop
  endfacet
  facet normal 0 0 -1
    outer loop
      vertex -20 -10 10
      vertex 20 10 10
      vertex 20 -10 10
    endloop
  endfacet
  facet normal -0 0 -1
    outer loop
      vertex 20 10 10
      vertex -20 -10 10
      vertex -20 10 10
    endloop
  endfacet
  facet normal -1 0 0
    outer loop
      vertex -20 -10 10
      vertex -20 10 20
      vertex -20 10 10
    endloop
  endfacet
  facet normal -1 -0 0
    outer loop
      vertex -20 10 20
      vertex -20 -10 10
      vertex -20 -10 20
    endloop
  endfacet
  facet normal 0 1 -0
    outer loop
      vertex 20 10 10
      vertex -20 10 20
      vertex 20 10 20
    endloop
  endfacet
  facet normal 0 1 0
    outer loop
      vertex -20 10 20
      vertex 20 10 10
      vertex -20 10 10
    endloop
  endfacet
  facet normal 0 -1 0
    outer loop
      vertex -20 -10 10
      vertex 20 -10 20
      vertex -20 -10 20
    endloop
  endfacet
  facet normal 0 -1 -0
    outer loop
      vertex 20 -10 20
      vertex -20 -10 10
      vertex 20 -10 10
    endloop
  endfacet
  facet normal 1 -0 0
    outer loop
      vertex 10 -5 27.5
      vertex 10 5 22.5
      vertex 10 5 27.5
    endloop
  endfacet
  facet normal 1 0 0
    outer loop
      vertex 10 5 22.5
      vertex 10 -5 27.5
      vertex 10 -5 22.5
    endloop
  endfacet
  facet normal -0 0 1
    outer loop
      vertex -10 5 27.5
      vertex 10 -5 27.5
      vertex 10 5 27.5
    endloop
  endfacet
  facet normal 0 0 1
    outer loop
      vertex 10 -5 27.5
      vertex -10 5 27.5
      vertex -10 -5 27.5
    endloop
  endfacet
  facet normal 0 0 -1
    outer loop
      vertex -10 -5 22.5
      vertex 10 5 22.5
      vertex 10 -5 22.5
    endloop
  endfacet
  facet normal -0 0 -1
    outer loop
      vertex 10 5 22.5
      vertex -10 -5 22.5
      vertex -10 5 22.5
    endloop
  endfacet
  facet normal -1 0 0
    outer loop
      vertex -10 -5 22.5
      vertex -10 5 27.5
      vertex -10 5 22.5
    endloop
  endfacet
  facet normal -1 -0 0
    outer loop
      vertex -10 5 27.5
      vertex -10 -5 22.5
      vertex -10 -5 27.5
    endloop
  endfacet
  facet normal 0 1 -0
    outer loop
      vertex 10 5 22.5
      vertex -10 5 27.5
      vertex 10 5 27.5
    endloop
  endfacet
  facet normal 0 1 0
    outer loop
      vertex -10 5 27.5
      vertex 10 5 22.5
      vertex -10 5 22.5
    endloop
  endfacet
  facet normal 0 -1 0
    outer loop
      vertex -10 -5 22.5
      vertex 10 -5 27.5
      vertex -10 -5 27.5
    endloop
  endfacet
  facet normal 0 -1 -0
    outer loop
      vertex 10 -5 27.5
      vertex -10 -5 22.5
      vertex 10 -5 22.5
    endloop
  endfacet
endsolid OpenSCAD_Model
