solid OpenSCAD_Model
  facet normal 1 -0 0
    outer loop
      vertex 30 -15 -42.5
      vertex 30 15 -57.5
      vertex 30 15 -42.5
    endloop
  endfacet
  facet normal 1 0 0
    outer loop
      vertex 30 15 -57.5
      vertex 30 -15 -42.5
      vertex 30 -15 -57.5
    endloop
  endfacet
  facet normal 0 0 1
    outer loop
      vertex 30 15 -42.5
      vertex 10 10 -42.5
      vertex 30 -15 -42.5
    endloop
  endfacet
  facet normal 0 0 1
    outer loop
      vertex 30 15 -42.5
      vertex -10 10 -42.5
      vertex 10 10 -42.5
    endloop
  endfacet
  facet normal 0 0 1
    outer loop
      vertex -10 10 -42.5
      vertex -30 15 -42.5
      vertex -10 -10 -42.5
    endloop
  endfacet
  facet normal -0 0 1
    outer loop
      vertex -30 15 -42.5
      vertex -10 10 -42.5
      vertex 30 15 -42.5
    endloop
  endfacet
  facet normal -0 0 1
    outer loop
      vertex 10 -10 -42.5
      vertex 30 -15 -42.5
      vertex 10 10 -42.5
    endloop
  endfacet
  facet normal -0 0 1
    outer loop
      vertex -10 -10 -42.5
      vertex 30 -15 -42.5
      vertex 10 -10 -42.5
    endloop
  endfacet
  facet normal 0 0 1
    outer loop
      vertex -10 -10 -42.5
      vertex -30 -15 -42.5
      vertex 30 -15 -42.5
    endloop
  endfacet
  facet normal 0 0 1
    outer loop
      vertex -30 -15 -42.5
      vertex -10 -10 -42.5
      vertex -30 15 -42.5
    endloop
  endfacet
  facet normal 0 0 -1
    outer loop
      vertex -30 -15 -57.5
      vertex 30 15 -57.5
      vertex 30 -15 -57.5
    endloop
  endfacet
  facet normal -0 0 -1
    outer loop
      vertex 30 15 -57.5
      vertex -30 -15 -57.5
      vertex -30 15 -57.5
    endloop
  endfacet
  facet normal -1 0 0
    outer loop
      vertex -30 -15 -57.5
      vertex -30 15 -42.5
      vertex -30 15 -57.5
    endloop
  endfacet
  facet normal -1 -0 0
    outer loop
      vertex -30 15 -42.5
      vertex -30 -15 -57.5
      vertex -30 -15 -42.5
    endloop
  endfacet
  facet normal 0 1 -0
    outer loop
      vertex 30 15 -57.5
      vertex -30 15 -42.5
      vertex 30 15 -42.5
    endloop
  endfacet
  facet normal 0 1 0
    outer loop
      vertex -30 15 -42.5
      vertex 30 15 -57.5
      vertex -30 15 -57.5
    endloop
  endfacet
  facet normal 0 -1 0
    outer loop
      vertex -30 -15 -57.5
      vertex 30 -15 -42.5
      vertex -30 -15 -42.5
    endloop
  endfacet
  facet normal 0 -1 -0
    outer loop
      vertex 30 -15 -42.5
      vertex -30 -15 -57.5
      vertex 30 -15 -57.5
    endloop
  endfacet
  facet normal 1 -0 0
    outer loop
      vertex 10 -10 -32.5
      vertex 10 10 -42.5
      vertex 10 10 -32.5
    endloop
  endfacet
  facet normal 1 0 0
    outer loop
      vertex 10 10 -42.5
      vertex 10 -10 -32.5
      vertex 10 -10 -42.5
    endloop
  endfacet
  facet normal -0 0 1
    outer loop
      vertex -10 10 -32.5
      vertex 10 -10 -32.5
      vertex 10 10 -32.5
    endloop
  endfacet
  facet normal 0 0 1
    outer loop
      vertex 10 -10 -32.5
      vertex -10 10 -32.5
      vertex -10 -10 -32.5
    endloop
  endfacet
  facet normal -1 0 0
    outer loop
      vertex -10 -10 -42.5
      vertex -10 10 -32.5
      vertex -10 10 -42.5
    endloop
  endfacet
  facet normal -1 -0 0
    outer loop
      vertex -10 10 -32.5
      vertex -10 -10 -42.5
      vertex -10 -10 -32.5
    endloop
  endfacet
  facet normal 0 1 -0
    outer loop
      vertex 10 10 -42.5
      vertex -10 10 -32.5
      vertex 10 10 -32.5
    endloop
  endfacet
  facet normal 0 1 0
    outer loop
      vertex -10 10 -32.5
      vertex 10 10 -42.5
      vertex -10 10 -42.5
    endloop
  endfacet
  facet normal 0 -1 0
    outer loop
      vertex -10 -10 -42.5
      vertex 10 -10 -32.5
      vertex -10 -10 -32.5
    endloop
  endfacet
  facet normal 0 -1 -0
    outer loop
      vertex 10 -10 -32.5
      vertex -10 -10 -42.5
      vertex 10 -10 -42.5
    endloop
  endfacet
  facet normal 1 -0 0
    outer loop
      vertex 20 -10 -10
      vertex 20 10 -30
      vertex 20 10 -10
    endloop
  endfacet
  facet normal 1 0 0
    outer loop
      vertex 20 10 -30
      vertex 20 -10 -10
      vertex 20 -10 -30
    endloop
  endfacet
  facet normal -0 0 1
    outer loop
      vertex -20 10 -10
      vertex -10 -10 -10
      vertex -10 10 -10
    endloop
  endfacet
  facet normal 0 0 1
    outer loop
      vertex -10 -10 -10
      vertex -20 10 -10
      vertex -20 -10 -10
    endloop
  endfacet
  facet normal -0 0 1
    outer loop
      vertex 10 10 -10
      vertex 20 -10 -10
      vertex 20 10 -10
    endloop
  endfacet
  facet normal 0 0 1
    outer loop
      vertex 20 -10 -10
      vertex 10 10 -10
      vertex 10 -10 -10
    endloop
  endfacet
  facet normal 0 0 -1
    outer loop
      vertex -20 -10 -30
      vertex 20 10 -30
      vertex 20 -10 -30
    endloop
  endfacet
  facet normal -0 0 -1
    outer loop
      vertex 20 10 -30
      vertex -20 -10 -30
      vertex -20 10 -30
    endloop
  endfacet
  facet normal -1 0 0
    outer loop
      vertex -20 -10 -30
      vertex -20 10 -10
      vertex -20 10 -30
    endloop
  endfacet
  facet normal -1 -0 0
    outer loop
      vertex -20 10 -10
      vertex -20 -10 -30
      vertex -20 -10 -10
    endloop
  endfacet
  facet normal 0 1 -0
    outer loop
      vertex 20 10 -30
      vertex 10 10 -10
      vertex 20 10 -10
    endloop
  endfacet
  facet normal 0 1 0
    outer loop
      vertex 10 10 -10
      vertex 20 10 -30
      vertex -10 10 -10
    endloop
  endfacet
  facet normal 0 1 0
    outer loop
      vertex -20 10 -30
      vertex -10 10 -10
      vertex 20 10 -30
    endloop
  endfacet
  facet normal 0 1 0
    outer loop
      vertex -10 10 -10
      vertex -20 10 -30
      vertex -20 10 -10
    endloop
  endfacet
  facet normal 0 1 -0
    outer loop
      vertex 10 10 -10
      vertex -10 10 -5
      vertex 10 10 -5
    endloop
  endfacet
  facet normal 0 1 0
    outer loop
      vertex -10 10 -5
      vertex 10 10 -10
      vertex -10 10 -10
    endloop
  endfacet
  facet normal 0 -1 0
    outer loop
      vertex -20 -10 -30
      vertex -10 -10 -10
      vertex -20 -10 -10
    endloop
  endfacet
  facet normal 0 -1 -0
    outer loop
      vertex -10 -10 -10
      vertex -20 -10 -30
      vertex 10 -10 -10
    endloop
  endfacet
  facet normal 0 -1 0
    outer loop
      vertex 20 -10 -30
      vertex 10 -10 -10
      vertex -20 -10 -30
    endloop
  endfacet
  facet normal 0 -1 0
    outer loop
      vertex 10 -10 -10
      vertex 20 -10 -30
      vertex 20 -10 -10
    endloop
  endfacet
  facet normal 0 -1 0
    outer loop
      vertex -10 -10 -10
      vertex 10 -10 -5
      vertex -10 -10 -5
    endloop
  endfacet
  facet normal 0 -1 -0
    outer loop
      vertex 10 -10 -5
      vertex -10 -10 -10
      vertex 10 -10 -10
    endloop
  endfacet
  facet normal 1 -0 0
    outer loop
      vertex 10 -10 -5
      vertex 10 10 -10
      vertex 10 10 -5
    endloop
  endfacet
  facet normal 1 0 0
    outer loop
      vertex 10 10 -10
      vertex 10 -10 -5
      vertex 10 -10 -10
    endloop
  endfacet
  facet normal -0 0 1
    outer loop
      vertex -10 10 -5
      vertex 10 -10 -5
      vertex 10 10 -5
    endloop
  endfacet
  facet normal 0 0 1
    outer loop
      vertex 10 -10 -5
      vertex -10 10 -5
      vertex -10 -10 -5
    endloop
  endfacet
  facet normal -1 0 0
    outer loop
      vertex -10 -10 -10
      vertex -10 10 -5
      vertex -10 10 -10
    endloop
  endfacet
  facet normal -1 -0 0
    outer loop
      vertex -10 10 -5
      vertex -10 -10 -10
      vertex -10 -10 -5
    endloop
  endfacet
  facet normal 1 -0 0
    outer loop
      vertex 30 -15 15
      vertex 30 15 0
      vertex 30 15 15
    endloop
  endfacet
  facet normal 1 0 0
    outer loop
      vertex 30 15 0
      vertex 30 -15 15
      vertex 30 -15 0
    endloop
  endfacet
  facet normal -0 0 1
    outer loop
      vertex -30 15 15
      vertex 30 -15 15
      vertex 30 15 15
    endloop
  endfacet
  facet normal 0 0 1
    outer loop
      vertex 30 -15 15
      vertex -30 15 15
      vertex -30 -15 15
    endloop
  endfacet
  facet normal 0 0 -1
    outer loop
      vertex -30 -15 0
      vertex 30 15 0
      vertex 30 -15 0
    endloop
  endfacet
  facet normal -0 0 -1
    outer loop
      vertex 30 15 0
      vertex -30 -15 0
      vertex -30 15 0
    endloop
  endfacet
  facet normal -1 0 0
    outer loop
      vertex -30 -15 0
      vertex -30 15 15
      vertex -30 15 0
    endloop
  endfacet
  facet normal -1 -0 0
    outer loop
      vertex -30 15 15
      vertex -30 -15 0
      vertex -30 -15 15
    endloop
  endfacet
  facet normal 0 1 -0
    outer loop
      vertex 30 15 0
      vertex -30 15 15
      vertex 30 15 15
    endloop
  endfacet
  facet normal 0 1 0
    outer loop
      vertex -30 15 15
      vertex 30 15 0
      vertex -30 15 0
    endloop
  endfacet
  facet normal 0 -1 0
    outer loop
      vertex -30 -15 0
      vertex 30 -15 15
      vertex -30 -15 15
    endloop
  endfacet
  facet normal 0 -1 -0
    outer loop
      vertex 30 -15 15
      vertex -30 -15 0
      vertex 30 -15 0
    endloop
  endfacet
endsolid OpenSCAD_Model
