solid OpenSCAD_Model
  facet normal 1 -0 0
    outer loop
      vertex 25 -5 1
      vertex 25 5 -1
      vertex 25 5 1
    endloop
  endfacet
  facet normal 1 0 0
    outer loop
      vertex 25 5 -1
      vertex 25 -5 1
      vertex 25 -5 -1
    endloop
  endfacet
  facet normal -0 0 1
    outer loop
      vertex -25 5 1
      vertex 25 -5 1
      vertex 25 5 1
    endloop
  endfacet
  facet normal 0 0 1
    outer loop
      vertex 25 -5 1
      vertex -25 5 1
      vertex -25 -5 1
    endloop
  endfacet
  facet normal 0 0 -1
    outer loop
      vertex -25 -5 -1
      vertex 25 5 -1
      vertex 25 -5 -1
    endloop
  endfacet
  facet normal -0 0 -1
    outer loop
      vertex 25 5 -1
      vertex -25 -5 -1
      vertex -25 5 -1
    endloop
  endfacet
  facet normal -1 0 0
    outer loop
      vertex -25 -5 -1
      vertex -25 5 1
      vertex -25 5 -1
    endloop
  endfacet
  facet normal -1 -0 0
    outer loop
      vertex -25 5 1
      vertex -25 -5 -1
      vertex -25 -5 1
    endloop
  endfacet
  facet normal 0 1 -0
    outer loop
      vertex 25 5 -1
      vertex -25 5 1
      vertex 25 5 1
    endloop
  endfacet
  facet normal 0 1 0
    outer loop
      vertex -25 5 1
      vertex 25 5 -1
      vertex -25 5 -1
    endloop
  endfacet
  facet normal 0 -1 0
    outer loop
      vertex -25 -5 -1
      vertex 25 -5 1
      vertex -25 -5 1
    endloop
  endfacet
  facet normal 0 -1 -0
    outer loop
      vertex 25 -5 1
      vertex -25 -5 -1
      vertex 25 -5 -1
    endloop
  endfacet
  facet normal 1 -0 0
    outer loop
      vertex 25 10 1
      vertex 25 20 -1
      vertex 25 20 1
    endloop
  endfacet
  facet normal 1 0 0
    outer loop
      vertex 25 20 -1
      vertex 25 10 1
      vertex 25 10 -1
    endloop
  endfacet
  facet normal -0 0 1
    outer loop
      vertex -25 20 1
      vertex 25 10 1
      vertex 25 20 1
    endloop
  endfacet
  facet normal 0 0 1
    outer loop
      vertex 25 10 1
      vertex -25 20 1
      vertex -25 10 1
    endloop
  endfacet
  facet normal 0 0 -1
    outer loop
      vertex -25 10 -1
      vertex 25 20 -1
      vertex 25 10 -1
    endloop
  endfacet
  facet normal -0 0 -1
    outer loop
      vertex 25 20 -1
      vertex -25 10 -1
      vertex -25 20 -1
    endloop
  endfacet
  facet normal -1 0 0
    outer loop
      vertex -25 10 -1
      vertex -25 20 1
      vertex -25 20 -1
    endloop
  endfacet
  facet normal -1 -0 0
    outer loop
      vertex -25 20 1
      vertex -25 10 -1
      vertex -25 10 1
    endloop
  endfacet
  facet normal 0 1 -0
    outer loop
      vertex 25 20 -1
      vertex -25 20 1
      vertex 25 20 1
    endloop
  endfacet
  facet normal 0 1 0
    outer loop
      vertex -25 20 1
      vertex 25 20 -1
      vertex -25 20 -1
    endloop
  endfacet
  facet normal 0 -1 0
    outer loop
      vertex -25 10 -1
      vertex 25 10 1
      vertex -25 10 1
    endloop
  endfacet
  facet normal 0 -1 -0
    outer loop
      vertex 25 10 1
      vertex -25 10 -1
      vertex 25 10 -1
    endloop
  endfacet
  facet normal 1 -0 0
    outer loop
      vertex 25 25 1
      vertex 25 35 -1
      vertex 25 35 1
    endloop
  endfacet
  facet normal 1 0 0
    outer loop
      vertex 25 35 -1
      vertex 25 25 1
      vertex 25 25 -1
    endloop
  endfacet
  facet normal -0 0 1
    outer loop
      vertex -25 35 1
      vertex 25 25 1
      vertex 25 35 1
    endloop
  endfacet
  facet normal 0 0 1
    outer loop
      vertex 25 25 1
      vertex -25 35 1
      vertex -25 25 1
    endloop
  endfacet
  facet normal 0 0 -1
    outer loop
      vertex -25 25 -1
      vertex 25 35 -1
      vertex 25 25 -1
    endloop
  endfacet
  facet normal -0 0 -1
    outer loop
      vertex 25 35 -1
      vertex -25 25 -1
      vertex -25 35 -1
    endloop
  endfacet
  facet normal -1 0 0
    outer loop
      vertex -25 25 -1
      vertex -25 35 1
      vertex -25 35 -1
    endloop
  endfacet
  facet normal -1 -0 0
    outer loop
      vertex -25 35 1
      vertex -25 25 -1
      vertex -25 25 1
    endloop
  endfacet
  facet normal 0 1 -0
    outer loop
      vertex 25 35 -1
      vertex -25 35 1
      vertex 25 35 1
    endloop
  endfacet
  facet normal 0 1 0
    outer loop
      vertex -25 35 1
      vertex 25 35 -1
      vertex -25 35 -1
    endloop
  endfacet
  facet normal 0 -1 0
    outer loop
      vertex -25 25 -1
      vertex 25 25 1
      vertex -25 25 1
    endloop
  endfacet
  facet normal 0 -1 -0
    outer loop
      vertex 25 25 1
      vertex -25 25 -1
      vertex 25 25 -1
    endloop
  endfacet
  facet normal 1 -0 0
    outer loop
      vertex 25 40 1
      vertex 25 50 -1
      vertex 25 50 1
    endloop
  endfacet
  facet normal 1 0 0
    outer loop
      vertex 25 50 -1
      vertex 25 40 1
      vertex 25 40 -1
    endloop
  endfacet
  facet normal -0 0 1
    outer loop
      vertex -25 50 1
      vertex 25 40 1
      vertex 25 50 1
    endloop
  endfacet
  facet normal 0 0 1
    outer loop
      vertex 25 40 1
      vertex -25 50 1
      vertex -25 40 1
    endloop
  endfacet
  facet normal 0 0 -1
    outer loop
      vertex -25 40 -1
      vertex 25 50 -1
      vertex 25 40 -1
    endloop
  endfacet
  facet normal -0 0 -1
    outer loop
      vertex 25 50 -1
      vertex -25 40 -1
      vertex -25 50 -1
    endloop
  endfacet
  facet normal -1 0 0
    outer loop
      vertex -25 40 -1
      vertex -25 50 1
      vertex -25 50 -1
    endloop
  endfacet
  facet normal -1 -0 0
    outer loop
      vertex -25 50 1
      vertex -25 40 -1
      vertex -25 40 1
    endloop
  endfacet
  facet normal 0 1 -0
    outer loop
      vertex 25 50 -1
      vertex -25 50 1
      vertex 25 50 1
    endloop
  endfacet
  facet normal 0 1 0
    outer loop
      vertex -25 50 1
      vertex 25 50 -1
      vertex -25 50 -1
    endloop
  endfacet
  facet normal 0 -1 0
    outer loop
      vertex -25 40 -1
      vertex 25 40 1
      vertex -25 40 1
    endloop
  endfacet
  facet normal 0 -1 -0
    outer loop
      vertex 25 40 1
      vertex -25 40 -1
      vertex 25 40 -1
    endloop
  endfacet
  facet normal 1 -0 0
    outer loop
      vertex 25 55 1
      vertex 25 65 -1
      vertex 25 65 1
    endloop
  endfacet
  facet normal 1 0 0
    outer loop
      vertex 25 65 -1
      vertex 25 55 1
      vertex 25 55 -1
    endloop
  endfacet
  facet normal -0 0 1
    outer loop
      vertex -25 65 1
      vertex 25 55 1
      vertex 25 65 1
    endloop
  endfacet
  facet normal 0 0 1
    outer loop
      vertex 25 55 1
      vertex -25 65 1
      vertex -25 55 1
    endloop
  endfacet
  facet normal 0 0 -1
    outer loop
      vertex -25 55 -1
      vertex 25 65 -1
      vertex 25 55 -1
    endloop
  endfacet
  facet normal -0 0 -1
    outer loop
      vertex 25 65 -1
      vertex -25 55 -1
      vertex -25 65 -1
    endloop
  endfacet
  facet normal -1 0 0
    outer loop
      vertex -25 55 -1
      vertex -25 65 1
      vertex -25 65 -1
    endloop
  endfacet
  facet normal -1 -0 0
    outer loop
      vertex -25 65 1
      vertex -25 55 -1
      vertex -25 55 1
    endloop
  endfacet
  facet normal 0 1 -0
    outer loop
      vertex 25 65 -1
      vertex -25 65 1
      vertex 25 65 1
    endloop
  endfacet
  facet normal 0 1 0
    outer loop
      vertex -25 65 1
      vertex 25 65 -1
      vertex -25 65 -1
    endloop
  endfacet
  facet normal 0 -1 0
    outer loop
      vertex -25 55 -1
      vertex 25 55 1
      vertex -25 55 1
    endloop
  endfacet
  facet normal 0 -1 -0
    outer loop
      vertex 25 55 1
      vertex -25 55 -1
      vertex 25 55 -1
    endloop
  endfacet
  facet normal 1 -0 0
    outer loop
      vertex 25 70 1
      vertex 25 80 -1
      vertex 25 80 1
    endloop
  endfacet
  facet normal 1 0 0
    outer loop
      vertex 25 80 -1
      vertex 25 70 1
      vertex 25 70 -1
    endloop
  endfacet
  facet normal -0 0 1
    outer loop
      vertex -25 80 1
      vertex 25 70 1
      vertex 25 80 1
    endloop
  endfacet
  facet normal 0 0 1
    outer loop
      vertex 25 70 1
      vertex -25 80 1
      vertex -25 70 1
    endloop
  endfacet
  facet normal 0 0 -1
    outer loop
      vertex -25 70 -1
      vertex 25 80 -1
      vertex 25 70 -1
    endloop
  endfacet
  facet normal -0 0 -1
    outer loop
      vertex 25 80 -1
      vertex -25 70 -1
      vertex -25 80 -1
    endloop
  endfacet
  facet normal -1 0 0
    outer loop
      vertex -25 70 -1
      vertex -25 80 1
      vertex -25 80 -1
    endloop
  endfacet
  facet normal -1 -0 0
    outer loop
      vertex -25 80 1
      vertex -25 70 -1
      vertex -25 70 1
    endloop
  endfacet
  facet normal 0 1 -0
    outer loop
      vertex 25 80 -1
      vertex -25 80 1
      vertex 25 80 1
    endloop
  endfacet
  facet normal 0 1 0
    outer loop
      vertex -25 80 1
      vertex 25 80 -1
      vertex -25 80 -1
    endloop
  endfacet
  facet normal 0 -1 0
    outer loop
      vertex -25 70 -1
      vertex 25 70 1
      vertex -25 70 1
    endloop
  endfacet
  facet normal 0 -1 -0
    outer loop
      vertex 25 70 1
      vertex -25 70 -1
      vertex 25 70 -1
    endloop
  endfacet
endsolid OpenSCAD_Model
