solid OpenSCAD_Model
  facet normal 1 -0 0
    outer loop
      vertex 10 -15 55
      vertex 10 15 45
      vertex 10 15 55
    endloop
  endfacet
  facet normal 1 0 0
    outer loop
      vertex 10 15 45
      vertex 10 -15 55
      vertex 10 -15 45
    endloop
  endfacet
  facet normal -0 0 1
    outer loop
      vertex -10 15 55
      vertex 10 -15 55
      vertex 10 15 55
    endloop
  endfacet
  facet normal 0 0 1
    outer loop
      vertex 10 -15 55
      vertex -10 15 55
      vertex -10 -15 55
    endloop
  endfacet
  facet normal 0 0 -1
    outer loop
      vertex -10 -15 45
      vertex 10 15 45
      vertex 10 -15 45
    endloop
  endfacet
  facet normal -0 0 -1
    outer loop
      vertex 10 15 45
      vertex -10 -15 45
      vertex -10 15 45
    endloop
  endfacet
  facet normal -1 0 0
    outer loop
      vertex -10 -15 45
      vertex -10 15 55
      vertex -10 15 45
    endloop
  endfacet
  facet normal -1 -0 0
    outer loop
      vertex -10 15 55
      vertex -10 -15 45
      vertex -10 -15 55
    endloop
  endfacet
  facet normal 0 1 -0
    outer loop
      vertex 10 15 45
      vertex -10 15 55
      vertex 10 15 55
    endloop
  endfacet
  facet normal 0 1 0
    outer loop
      vertex -10 15 55
      vertex 10 15 45
      vertex -10 15 45
    endloop
  endfacet
  facet normal 0 -1 0
    outer loop
      vertex -10 -15 45
      vertex 10 -15 55
      vertex -10 -15 55
    endloop
  endfacet
  facet normal 0 -1 -0
    outer loop
      vertex 10 -15 55
      vertex -10 -15 45
      vertex 10 -15 45
    endloop
  endfacet
  facet normal 1 -0 0
    outer loop
      vertex 10 -15 40
      vertex 10 15 30
      vertex 10 15 40
    endloop
  endfacet
  facet normal 1 0 0
    outer loop
      vertex 10 15 30
      vertex 10 -15 40
      vertex 10 -15 30
    endloop
  endfacet
  facet normal -0 0 1
    outer loop
      vertex -10 15 40
      vertex 10 -15 40
      vertex 10 15 40
    endloop
  endfacet
  facet normal 0 0 1
    outer loop
      vertex 10 -15 40
      vertex -10 15 40
      vertex -10 -15 40
    endloop
  endfacet
  facet normal 0 0 -1
    outer loop
      vertex -10 -15 30
      vertex 10 15 30
      vertex 10 -15 30
    endloop
  endfacet
  facet normal -0 0 -1
    outer loop
      vertex 10 15 30
      vertex -10 -15 30
      vertex -10 15 30
    endloop
  endfacet
  facet normal -1 0 0
    outer loop
      vertex -10 -15 30
      vertex -10 15 40
      vertex -10 15 30
    endloop
  endfacet
  facet normal -1 -0 0
    outer loop
      vertex -10 15 40
      vertex -10 -15 30
      vertex -10 -15 40
    endloop
  endfacet
  facet normal 0 1 -0
    outer loop
      vertex 10 15 30
      vertex -10 15 40
      vertex 10 15 40
    endloop
  endfacet
  facet normal 0 1 0
    outer loop
      vertex -10 15 40
      vertex 10 15 30
      vertex -10 15 30
    endloop
  endfacet
  facet normal 0 -1 0
    outer loop
      vertex -10 -15 30
      vertex 10 -15 40
      vertex -10 -15 40
    endloop
  endfacet
  facet normal 0 -1 -0
    outer loop
      vertex 10 -15 40
      vertex -10 -15 30
      vertex 10 -15 30
    endloop
  endfacet
  facet normal 1 -0 0
    outer loop
      vertex 10 -15 25
      vertex 10 15 15
      vertex 10 15 25
    endloop
  endfacet
  facet normal 1 0 0
    outer loop
      vertex 10 15 15
      vertex 10 -15 25
      vertex 10 -15 15
    endloop
  endfacet
  facet normal -0 0 1
    outer loop
      vertex -10 15 25
      vertex 10 -15 25
      vertex 10 15 25
    endloop
  endfacet
  facet normal 0 0 1
    outer loop
      vertex 10 -15 25
      vertex -10 15 25
      vertex -10 -15 25
    endloop
  endfacet
  facet normal 0 0 -1
    outer loop
      vertex -10 -15 15
      vertex 10 15 15
      vertex 10 -15 15
    endloop
  endfacet
  facet normal -0 0 -1
    outer loop
      vertex 10 15 15
      vertex -10 -15 15
      vertex -10 15 15
    endloop
  endfacet
  facet normal -1 0 0
    outer loop
      vertex -10 -15 15
      vertex -10 15 25
      vertex -10 15 15
    endloop
  endfacet
  facet normal -1 -0 0
    outer loop
      vertex -10 15 25
      vertex -10 -15 15
      vertex -10 -15 25
    endloop
  endfacet
  facet normal 0 1 -0
    outer loop
      vertex 10 15 15
      vertex -10 15 25
      vertex 10 15 25
    endloop
  endfacet
  facet normal 0 1 0
    outer loop
      vertex -10 15 25
      vertex 10 15 15
      vertex -10 15 15
    endloop
  endfacet
  facet normal 0 -1 0
    outer loop
      vertex -10 -15 15
      vertex 10 -15 25
      vertex -10 -15 25
    endloop
  endfacet
  facet normal 0 -1 -0
    outer loop
      vertex 10 -15 25
      vertex -10 -15 15
      vertex 10 -15 15
    endloop
  endfacet
  facet normal 1 -0 0
    outer loop
      vertex 10 -15 10
      vertex 10 15 0
      vertex 10 15 10
    endloop
  endfacet
  facet normal 1 0 0
    outer loop
      vertex 10 15 0
      vertex 10 -15 10
      vertex 10 -15 0
    endloop
  endfacet
  facet normal -0 0 1
    outer loop
      vertex -10 15 10
      vertex 10 -15 10
      vertex 10 15 10
    endloop
  endfacet
  facet normal 0 0 1
    outer loop
      vertex 10 -15 10
      vertex -10 15 10
      vertex -10 -15 10
    endloop
  endfacet
  facet normal 0 0 -1
    outer loop
      vertex -10 -15 0
      vertex 10 15 0
      vertex 10 -15 0
    endloop
  endfacet
  facet normal -0 0 -1
    outer loop
      vertex 10 15 0
      vertex -10 -15 0
      vertex -10 15 0
    endloop
  endfacet
  facet normal -1 0 0
    outer loop
      vertex -10 -15 0
      vertex -10 15 10
      vertex -10 15 0
    endloop
  endfacet
  facet normal -1 -0 0
    outer loop
      vertex -10 15 10
      vertex -10 -15 0
      vertex -10 -15 10
    endloop
  endfacet
  facet normal 0 1 -0
    outer loop
      vertex 10 15 0
      vertex -10 15 10
      vertex 10 15 10
    endloop
  endfacet
  facet normal 0 1 0
    outer loop
      vertex -10 15 10
      vertex 10 15 0
      vertex -10 15 0
    endloop
  endfacet
  facet normal 0 -1 0
    outer loop
      vertex -10 -15 0
      vertex 10 -15 10
      vertex -10 -15 10
    endloop
  endfacet
  facet normal 0 -1 -0
    outer loop
      vertex 10 -15 10
      vertex -10 -15 0
      vertex 10 -15 0
    endloop
  endfacet
  facet normal 1 -0 0
    outer loop
      vertex 10 -15 -5
      vertex 10 15 -15
      vertex 10 15 -5
    endloop
  endfacet
  facet normal 1 0 0
    outer loop
      vertex 10 15 -15
      vertex 10 -15 -5
      vertex 10 -15 -15
    endloop
  endfacet
  facet normal -0 0 1
    outer loop
      vertex -10 15 -5
      vertex 10 -15 -5
      vertex 10 15 -5
    endloop
  endfacet
  facet normal 0 0 1
    outer loop
      vertex 10 -15 -5
      vertex -10 15 -5
      vertex -10 -15 -5
    endloop
  endfacet
  facet normal 0 0 -1
    outer loop
      vertex -10 -15 -15
      vertex 10 15 -15
      vertex 10 -15 -15
    endloop
  endfacet
  facet normal -0 0 -1
    outer loop
      vertex 10 15 -15
      vertex -10 -15 -15
      vertex -10 15 -15
    endloop
  endfacet
  facet normal -1 0 0
    outer loop
      vertex -10 -15 -15
      vertex -10 15 -5
      vertex -10 15 -15
    endloop
  endfacet
  facet normal -1 -0 0
    outer loop
      vertex -10 15 -5
      vertex -10 -15 -15
      vertex -10 -15 -5
    endloop
  endfacet
  facet normal 0 1 -0
    outer loop
      vertex 10 15 -15
      vertex -10 15 -5
      vertex 10 15 -5
    endloop
  endfacet
  facet normal 0 1 0
    outer loop
      vertex -10 15 -5
      vertex 10 15 -15
      vertex -10 15 -15
    endloop
  endfacet
  facet normal 0 -1 0
    outer loop
      vertex -10 -15 -15
      vertex 10 -15 -5
      vertex -10 -15 -5
    endloop
  endfacet
  facet normal 0 -1 -0
    outer loop
      vertex 10 -15 -5
      vertex -10 -15 -15
      vertex 10 -15 -15
    endloop
  endfacet
  facet normal 1 -0 0
    outer loop
      vertex 10 -15 -20
      vertex 10 15 -30
      vertex 10 15 -20
    endloop
  endfacet
  facet normal 1 0 0
    outer loop
      vertex 10 15 -30
      vertex 10 -15 -20
      vertex 10 -15 -30
    endloop
  endfacet
  facet normal -0 0 1
    outer loop
      vertex -10 15 -20
      vertex 10 -15 -20
      vertex 10 15 -20
    endloop
  endfacet
  facet normal 0 0 1
    outer loop
      vertex 10 -15 -20
      vertex -10 15 -20
      vertex -10 -15 -20
    endloop
  endfacet
  facet normal 0 0 -1
    outer loop
      vertex -10 -15 -30
      vertex 10 15 -30
      vertex 10 -15 -30
    endloop
  endfacet
  facet normal -0 0 -1
    outer loop
      vertex 10 15 -30
      vertex -10 -15 -30
      vertex -10 15 -30
    endloop
  endfacet
  facet normal -1 0 0
    outer loop
      vertex -10 -15 -30
      vertex -10 15 -20
      vertex -10 15 -30
    endloop
  endfacet
  facet normal -1 -0 0
    outer loop
      vertex -10 15 -20
      vertex -10 -15 -30
      vertex -10 -15 -20
    endloop
  endfacet
  facet normal 0 1 -0
    outer loop
      vertex 10 15 -30
      vertex -10 15 -20
      vertex 10 15 -20
    endloop
  endfacet
  facet normal 0 1 0
    outer loop
      vertex -10 15 -20
      vertex 10 15 -30
      vertex -10 15 -30
    endloop
  endfacet
  facet normal 0 -1 0
    outer loop
      vertex -10 -15 -30
      vertex 10 -15 -20
      vertex -10 -15 -20
    endloop
  endfacet
  facet normal 0 -1 -0
    outer loop
      vertex 10 -15 -20
      vertex -10 -15 -30
      vertex 10 -15 -30
    endloop
  endfacet
endsolid OpenSCAD_Model
