solid OpenSCAD_Model
  facet normal 1 -0 0
    outer loop
      vertex -20 -2.5 75
      vertex -20 2.5 -25
      vertex -20 2.5 75
    endloop
  endfacet
  facet normal 1 0 0
    outer loop
      vertex -20 2.5 -25
      vertex -20 -2.5 75
      vertex -20 -2.5 -25
    endloop
  endfacet
  facet normal 0 0 -1
    outer loop
      vertex -40 -2.5 -25
      vertex -20 2.5 -25
      vertex -20 -2.5 -25
    endloop
  endfacet
  facet normal -0 0 -1
    outer loop
      vertex -20 2.5 -25
      vertex -40 -2.5 -25
      vertex -40 2.5 -25
    endloop
  endfacet
  facet normal -1 0 0
    outer loop
      vertex -40 -2.5 -25
      vertex -40 2.5 75
      vertex -40 2.5 -25
    endloop
  endfacet
  facet normal -1 -0 0
    outer loop
      vertex -40 2.5 75
      vertex -40 -2.5 -25
      vertex -40 -2.5 75
    endloop
  endfacet
  facet normal 0 1 -0
    outer loop
      vertex -20 2.5 -25
      vertex -40 2.5 75
      vertex -20 2.5 75
    endloop
  endfacet
  facet normal 0 1 0
    outer loop
      vertex -40 2.5 75
      vertex -20 2.5 -25
      vertex -40 2.5 -25
    endloop
  endfacet
  facet normal 0 -1 0
    outer loop
      vertex -40 -2.5 -25
      vertex -20 -2.5 75
      vertex -40 -2.5 75
    endloop
  endfacet
  facet normal 0 -1 -0
    outer loop
      vertex -20 -2.5 75
      vertex -40 -2.5 -25
      vertex -20 -2.5 -25
    endloop
  endfacet
  facet normal 1 -0 0
    outer loop
      vertex 10 -2.5 75
      vertex 10 2.5 -25
      vertex 10 2.5 75
    endloop
  endfacet
  facet normal 1 0 0
    outer loop
      vertex 10 2.5 -25
      vertex 10 -2.5 75
      vertex 10 -2.5 -25
    endloop
  endfacet
  facet normal 0 0 -1
    outer loop
      vertex -10 -2.5 -25
      vertex 10 2.5 -25
      vertex 10 -2.5 -25
    endloop
  endfacet
  facet normal -0 0 -1
    outer loop
      vertex 10 2.5 -25
      vertex -10 -2.5 -25
      vertex -10 2.5 -25
    endloop
  endfacet
  facet normal -1 0 0
    outer loop
      vertex -10 -2.5 -25
      vertex -10 2.5 75
      vertex -10 2.5 -25
    endloop
  endfacet
  facet normal -1 -0 0
    outer loop
      vertex -10 2.5 75
      vertex -10 -2.5 -25
      vertex -10 -2.5 75
    endloop
  endfacet
  facet normal 0 1 -0
    outer loop
      vertex 10 2.5 -25
      vertex -10 2.5 75
      vertex 10 2.5 75
    endloop
  endfacet
  facet normal 0 1 0
    outer loop
      vertex -10 2.5 75
      vertex 10 2.5 -25
      vertex -10 2.5 -25
    endloop
  endfacet
  facet normal 0 -1 0
    outer loop
      vertex -10 -2.5 -25
      vertex 10 -2.5 75
      vertex -10 -2.5 75
    endloop
  endfacet
  facet normal 0 -1 -0
    outer loop
      vertex 10 -2.5 75
      vertex -10 -2.5 -25
      vertex 10 -2.5 -25
    endloop
  endfacet
  facet normal 1 -0 0
    outer loop
      vertex 40 -2.5 75
      vertex 40 2.5 -25
      vertex 40 2.5 75
    endloop
  endfacet
  facet normal 1 0 0
    outer loop
      vertex 40 2.5 -25
      vertex 40 -2.5 75
      vertex 40 -2.5 -25
    endloop
  endfacet
  facet normal 0 0 -1
    outer loop
      vertex 20 -2.5 -25
      vertex 40 2.5 -25
      vertex 40 -2.5 -25
    endloop
  endfacet
  facet normal -0 0 -1
    outer loop
      vertex 40 2.5 -25
      vertex 20 -2.5 -25
      vertex 20 2.5 -25
    endloop
  endfacet
  facet normal -1 0 0
    outer loop
      vertex 20 -2.5 -25
      vertex 20 2.5 75
      vertex 20 2.5 -25
    endloop
  endfacet
  facet normal -1 -0 0
    outer loop
      vertex 20 2.5 75
      vertex 20 -2.5 -25
      vertex 20 -2.5 75
    endloop
  endfacet
  facet normal 0 1 -0
    outer loop
      vertex 40 2.5 -25
      vertex 20 2.5 75
      vertex 40 2.5 75
    endloop
  endfacet
  facet normal 0 1 0
    outer loop
      vertex 20 2.5 75
      vertex 40 2.5 -25
      vertex 20 2.5 -25
    endloop
  endfacet
  facet normal 0 -1 0
    outer loop
      vertex 20 -2.5 -25
      vertex 40 -2.5 75
      vertex 20 -2.5 75
    endloop
  endfacet
  facet normal 0 -1 -0
    outer loop
      vertex 40 -2.5 75
      vertex 20 -2.5 -25
      vertex 40 -2.5 -25
    endloop
  endfacet
  facet normal -0 0 1
    outer loop
      vertex -40 2.5 75
      vertex -20 -2.5 75
      vertex -20 2.5 75
    endloop
  endfacet
  facet normal 0 0 1
    outer loop
      vertex -20 -2.5 75
      vertex -40 2.5 75
      vertex -40 -2.5 75
    endloop
  endfacet
  facet normal -0 0 1
    outer loop
      vertex -10 2.5 75
      vertex 10 -2.5 75
      vertex 10 2.5 75
    endloop
  endfacet
  facet normal 0 0 1
    outer loop
      vertex 10 -2.5 75
      vertex -10 2.5 75
      vertex -10 -2.5 75
    endloop
  endfacet
  facet normal -0 0 1
    outer loop
      vertex 20 2.5 75
      vertex 40 -2.5 75
      vertex 40 2.5 75
    endloop
  endfacet
  facet normal 0 0 1
    outer loop
      vertex 40 -2.5 75
      vertex 20 2.5 75
      vertex 20 -2.5 75
    endloop
  endfacet
endsolid OpenSCAD_Model
