solid OpenSCAD_Model
  facet normal -0.92388 -0.382682 0
    outer loop
      vertex -1.76777 -1.76777 7.5
      vertex -2.5 0 12.5
      vertex -2.5 0 7.5
    endloop
  endfacet
  facet normal -0.92388 -0.382682 0
    outer loop
      vertex -2.5 0 12.5
      vertex -1.76777 -1.76777 7.5
      vertex -1.76777 -1.76777 12.5
    endloop
  endfacet
  facet normal 0.382682 0.92388 -0
    outer loop
      vertex 1.76777 1.76777 7.5
      vertex 0 2.5 12.5
      vertex 1.76777 1.76777 12.5
    endloop
  endfacet
  facet normal 0.382682 0.92388 0
    outer loop
      vertex 0 2.5 12.5
      vertex 1.76777 1.76777 7.5
      vertex 0 2.5 7.5
    endloop
  endfacet
  facet normal 0.92388 0.382682 0
    outer loop
      vertex 2.5 0 12.5
      vertex 1.76777 1.76777 7.5
      vertex 1.76777 1.76777 12.5
    endloop
  endfacet
  facet normal 0.92388 0.382682 0
    outer loop
      vertex 1.76777 1.76777 7.5
      vertex 2.5 0 12.5
      vertex 2.5 0 7.5
    endloop
  endfacet
  facet normal 0.92388 -0.382682 0
    outer loop
      vertex 1.76777 -1.76777 12.5
      vertex 2.5 0 7.5
      vertex 2.5 0 12.5
    endloop
  endfacet
  facet normal 0.92388 -0.382682 0
    outer loop
      vertex 2.5 0 7.5
      vertex 1.76777 -1.76777 12.5
      vertex 1.76777 -1.76777 7.5
    endloop
  endfacet
  facet normal -0.382682 -0.92388 0
    outer loop
      vertex -1.76777 -1.76777 7.5
      vertex 0 -2.5 12.5
      vertex -1.76777 -1.76777 12.5
    endloop
  endfacet
  facet normal -0.382682 -0.92388 -0
    outer loop
      vertex 0 -2.5 12.5
      vertex -1.76777 -1.76777 7.5
      vertex 0 -2.5 7.5
    endloop
  endfacet
  facet normal -0.382682 0.92388 0
    outer loop
      vertex 0 2.5 7.5
      vertex -1.76777 1.76777 12.5
      vertex 0 2.5 12.5
    endloop
  endfacet
  facet normal -0.382682 0.92388 0
    outer loop
      vertex -1.76777 1.76777 12.5
      vertex 0 2.5 7.5
      vertex -1.76777 1.76777 7.5
    endloop
  endfacet
  facet normal -0.92388 0.382682 0
    outer loop
      vertex -2.5 0 7.5
      vertex -1.76777 1.76777 12.5
      vertex -1.76777 1.76777 7.5
    endloop
  endfacet
  facet normal -0.92388 0.382682 0
    outer loop
      vertex -1.76777 1.76777 12.5
      vertex -2.5 0 7.5
      vertex -2.5 0 12.5
    endloop
  endfacet
  facet normal 0.382682 -0.92388 0
    outer loop
      vertex 0 -2.5 7.5
      vertex 1.76777 -1.76777 12.5
      vertex 0 -2.5 12.5
    endloop
  endfacet
  facet normal 0.382682 -0.92388 0
    outer loop
      vertex 1.76777 -1.76777 12.5
      vertex 0 -2.5 7.5
      vertex 1.76777 -1.76777 7.5
    endloop
  endfacet
  facet normal 0 0 -1
    outer loop
      vertex 0.309016 -0.951056 12.5
      vertex 0.309016 0.951056 12.5
      vertex 1 0 12.5
    endloop
  endfacet
  facet normal 0 0 -1
    outer loop
      vertex -0.809016 -0.587785 12.5
      vertex 0.309016 0.951056 12.5
      vertex 0.309016 -0.951056 12.5
    endloop
  endfacet
  facet normal 0 0 -1
    outer loop
      vertex 0.309016 0.951056 12.5
      vertex -0.809016 -0.587785 12.5
      vertex -0.809016 0.587785 12.5
    endloop
  endfacet
  facet normal 0 0 -1
    outer loop
      vertex 2.5 0 12.5
      vertex 3.5 0 12.5
      vertex 2.94439 -1.89224 12.5
    endloop
  endfacet
  facet normal 0 0 -1
    outer loop
      vertex 3.5 0 12.5
      vertex 2.5 0 12.5
      vertex 2.94439 1.89224 12.5
    endloop
  endfacet
  facet normal 0 0 -1
    outer loop
      vertex 2.94439 -1.89224 12.5
      vertex 1.76777 -1.76777 12.5
      vertex 2.5 0 12.5
    endloop
  endfacet
  facet normal 0 0 -1
    outer loop
      vertex 1.45395 -3.18371 12.5
      vertex 1.76777 -1.76777 12.5
      vertex 2.94439 -1.89224 12.5
    endloop
  endfacet
  facet normal 0 0 -1
    outer loop
      vertex 1.45395 -3.18371 12.5
      vertex 0 -2.5 12.5
      vertex 1.76777 -1.76777 12.5
    endloop
  endfacet
  facet normal 0 0 -1
    outer loop
      vertex -0.498101 -3.46437 12.5
      vertex 0 -2.5 12.5
      vertex 1.45395 -3.18371 12.5
    endloop
  endfacet
  facet normal 0 0 -1
    outer loop
      vertex -0.498101 -3.46437 12.5
      vertex -1.76777 -1.76777 12.5
      vertex 0 -2.5 12.5
    endloop
  endfacet
  facet normal 0 0 -1
    outer loop
      vertex -2.29201 -2.64512 12.5
      vertex -1.76777 -1.76777 12.5
      vertex -0.498101 -3.46437 12.5
    endloop
  endfacet
  facet normal 0 0 -1
    outer loop
      vertex -3.35822 -0.986063 12.5
      vertex -1.76777 -1.76777 12.5
      vertex -2.29201 -2.64512 12.5
    endloop
  endfacet
  facet normal 0 0 -1
    outer loop
      vertex -1.76777 -1.76777 12.5
      vertex -3.35822 -0.986063 12.5
      vertex -2.5 0 12.5
    endloop
  endfacet
  facet normal 0 0 -1
    outer loop
      vertex 1.76777 1.76777 12.5
      vertex 2.94439 1.89224 12.5
      vertex 2.5 0 12.5
    endloop
  endfacet
  facet normal 0 0 -1
    outer loop
      vertex 1.76777 1.76777 12.5
      vertex 1.45395 3.18371 12.5
      vertex 2.94439 1.89224 12.5
    endloop
  endfacet
  facet normal 0 0 -1
    outer loop
      vertex 0 2.5 12.5
      vertex 1.45395 3.18371 12.5
      vertex 1.76777 1.76777 12.5
    endloop
  endfacet
  facet normal 0 0 -1
    outer loop
      vertex 0 2.5 12.5
      vertex -0.498101 3.46437 12.5
      vertex 1.45395 3.18371 12.5
    endloop
  endfacet
  facet normal 0 0 -1
    outer loop
      vertex -1.76777 1.76777 12.5
      vertex -0.498101 3.46437 12.5
      vertex 0 2.5 12.5
    endloop
  endfacet
  facet normal 0 0 -1
    outer loop
      vertex -1.76777 1.76777 12.5
      vertex -2.29201 2.64512 12.5
      vertex -0.498101 3.46437 12.5
    endloop
  endfacet
  facet normal 0 0 -1
    outer loop
      vertex -3.35822 0.986063 12.5
      vertex -1.76777 1.76777 12.5
      vertex -2.5 0 12.5
    endloop
  endfacet
  facet normal 0 0 -1
    outer loop
      vertex -3.35822 0.986063 12.5
      vertex -2.5 0 12.5
      vertex -3.35822 -0.986063 12.5
    endloop
  endfacet
  facet normal -0 0 -1
    outer loop
      vertex -1.76777 1.76777 12.5
      vertex -3.35822 0.986063 12.5
      vertex -2.29201 2.64512 12.5
    endloop
  endfacet
  facet normal 0 0 -1
    outer loop
      vertex 1 0 7.5
      vertex 2.5 0 7.5
      vertex 1.76777 -1.76777 7.5
    endloop
  endfacet
  facet normal 0 0 -1
    outer loop
      vertex 2.5 0 7.5
      vertex 1 0 7.5
      vertex 1.76777 1.76777 7.5
    endloop
  endfacet
  facet normal 0 0 -1
    outer loop
      vertex 1.76777 -1.76777 7.5
      vertex 0.309016 -0.951056 7.5
      vertex 1 0 7.5
    endloop
  endfacet
  facet normal 0 0 -1
    outer loop
      vertex 0 -2.5 7.5
      vertex 0.309016 -0.951056 7.5
      vertex 1.76777 -1.76777 7.5
    endloop
  endfacet
  facet normal 0 0 -1
    outer loop
      vertex 0 -2.5 7.5
      vertex -0.809016 -0.587785 7.5
      vertex 0.309016 -0.951056 7.5
    endloop
  endfacet
  facet normal 0 0 -1
    outer loop
      vertex -2.5 0 7.5
      vertex -0.809016 -0.587785 7.5
      vertex -1.76777 -1.76777 7.5
    endloop
  endfacet
  facet normal 0 0 -1
    outer loop
      vertex -1.76777 -1.76777 7.5
      vertex -0.809016 -0.587785 7.5
      vertex 0 -2.5 7.5
    endloop
  endfacet
  facet normal 0 0 -1
    outer loop
      vertex 0.309016 0.951056 7.5
      vertex 1.76777 1.76777 7.5
      vertex 1 0 7.5
    endloop
  endfacet
  facet normal 0 0 -1
    outer loop
      vertex 0.309016 0.951056 7.5
      vertex 0 2.5 7.5
      vertex 1.76777 1.76777 7.5
    endloop
  endfacet
  facet normal 0 0 -1
    outer loop
      vertex -0.809016 0.587785 7.5
      vertex 0 2.5 7.5
      vertex 0.309016 0.951056 7.5
    endloop
  endfacet
  facet normal 0 0 -1
    outer loop
      vertex -0.809016 0.587785 7.5
      vertex -1.76777 1.76777 7.5
      vertex 0 2.5 7.5
    endloop
  endfacet
  facet normal 0 0 -1
    outer loop
      vertex -0.809016 -0.587785 7.5
      vertex -2.5 0 7.5
      vertex -0.809016 0.587785 7.5
    endloop
  endfacet
  facet normal -0 0 -1
    outer loop
      vertex -0.809016 0.587785 7.5
      vertex -2.5 0 7.5
      vertex -1.76777 1.76777 7.5
    endloop
  endfacet
  facet normal 0.309017 0.951056 -0
    outer loop
      vertex 0.309016 -0.951056 7.5
      vertex -0.809016 -0.587785 12.5
      vertex 0.309016 -0.951056 12.5
    endloop
  endfacet
  facet normal 0.309017 0.951056 0
    outer loop
      vertex -0.809016 -0.587785 12.5
      vertex 0.309016 -0.951056 7.5
      vertex -0.809016 -0.587785 7.5
    endloop
  endfacet
  facet normal 0.309017 -0.951056 0
    outer loop
      vertex -0.809016 0.587785 7.5
      vertex 0.309016 0.951056 12.5
      vertex -0.809016 0.587785 12.5
    endloop
  endfacet
  facet normal 0.309017 -0.951056 0
    outer loop
      vertex 0.309016 0.951056 12.5
      vertex -0.809016 0.587785 7.5
      vertex 0.309016 0.951056 7.5
    endloop
  endfacet
  facet normal -0.809016 -0.587786 0
    outer loop
      vertex 1 0 7.5
      vertex 0.309016 0.951056 12.5
      vertex 0.309016 0.951056 7.5
    endloop
  endfacet
  facet normal -0.809016 -0.587786 0
    outer loop
      vertex 0.309016 0.951056 12.5
      vertex 1 0 7.5
      vertex 1 0 12.5
    endloop
  endfacet
  facet normal 1 -0 0
    outer loop
      vertex -0.809016 -0.587785 12.5
      vertex -0.809016 0.587785 7.5
      vertex -0.809016 0.587785 12.5
    endloop
  endfacet
  facet normal 1 0 0
    outer loop
      vertex -0.809016 0.587785 7.5
      vertex -0.809016 -0.587785 12.5
      vertex -0.809016 -0.587785 7.5
    endloop
  endfacet
  facet normal -0.809016 0.587786 0
    outer loop
      vertex 0.309016 -0.951056 7.5
      vertex 1 0 12.5
      vertex 1 0 7.5
    endloop
  endfacet
  facet normal -0.809016 0.587786 0
    outer loop
      vertex 1 0 12.5
      vertex 0.309016 -0.951056 7.5
      vertex 0.309016 -0.951056 12.5
    endloop
  endfacet
  facet normal -0.923881 -0.38268 0
    outer loop
      vertex -2.5 0 -0.5
      vertex -2.2724 -0.54948 0
      vertex -2.5 0 0
    endloop
  endfacet
  facet normal -0.923866 -0.382716 0
    outer loop
      vertex -2.2724 -0.54948 0
      vertex -2.20454 -0.713292 2.76824
      vertex -2.2724 -0.54948 2.64922
    endloop
  endfacet
  facet normal -0.92388 -0.382683 2.32943e-06
    outer loop
      vertex -1.76777 -1.76777 -0.5
      vertex -2.20454 -0.713292 2.76824
      vertex -2.2724 -0.54948 0
    endloop
  endfacet
  facet normal -0.923881 -0.382679 -0
    outer loop
      vertex -1.76777 -1.76777 6.5
      vertex -2.14467 -0.857841 3.75
      vertex -1.76777 -1.76777 -0.5
    endloop
  endfacet
  facet normal -0.923884 -0.382672 -1.88058e-06
    outer loop
      vertex -2.20454 -0.713292 2.76824
      vertex -1.76777 -1.76777 -0.5
      vertex -2.14467 -0.857841 3.75
    endloop
  endfacet
  facet normal -0.92388 -0.382682 -1.3467e-06
    outer loop
      vertex -1.76777 -1.76777 -0.5
      vertex -2.2724 -0.54948 0
      vertex -2.5 0 -0.5
    endloop
  endfacet
  facet normal -0.923881 -0.382681 0
    outer loop
      vertex -2.3174 -0.440839 3.60676
      vertex -2.5 0 3.75
      vertex -2.5 0 3.60676
    endloop
  endfacet
  facet normal -0.923879 -0.382684 1.16936e-05
    outer loop
      vertex -2.3174 -0.440839 3.60676
      vertex -2.14467 -0.857841 3.75
      vertex -2.5 0 3.75
    endloop
  endfacet
  facet normal -0.923877 -0.382689 -4.84656e-06
    outer loop
      vertex -2.14467 -0.857841 3.75
      vertex -2.3174 -0.440839 3.60676
      vertex -2.20454 -0.713292 2.76824
    endloop
  endfacet
  facet normal -0.923879 -0.382684 0
    outer loop
      vertex -2.14467 -0.857841 5.25
      vertex -2.5 0 6.5
      vertex -2.5 0 5.25
    endloop
  endfacet
  facet normal -0.92388 -0.382682 -2.00632e-06
    outer loop
      vertex -2.14467 -0.857841 5.25
      vertex -1.76777 -1.76777 6.5
      vertex -2.5 0 6.5
    endloop
  endfacet
  facet normal -0.923881 -0.382679 0
    outer loop
      vertex -2.14467 -0.857841 3.75
      vertex -1.76777 -1.76777 6.5
      vertex -2.14467 -0.857841 5.25
    endloop
  endfacet
  facet normal 0.382682 0.92388 -0
    outer loop
      vertex 1.76777 1.76777 -0.5
      vertex 0 2.5 6.5
      vertex 1.76777 1.76777 6.5
    endloop
  endfacet
  facet normal 0.382682 0.92388 0
    outer loop
      vertex 0 2.5 6.5
      vertex 1.76777 1.76777 -0.5
      vertex 0 2.5 -0.5
    endloop
  endfacet
  facet normal 0.923884 0.382673 -6.87039e-06
    outer loop
      vertex 2.1633 0.812875 3.75
      vertex 2.20777 0.705498 3
      vertex 2.20454 0.713292 2.76824
    endloop
  endfacet
  facet normal 0.92388 0.382681 -8.25172e-06
    outer loop
      vertex 2.3174 0.440839 3.60676
      vertex 2.20777 0.705498 3
      vertex 2.1633 0.812875 3.75
    endloop
  endfacet
  facet normal 0.923848 0.382759 3.13705e-05
    outer loop
      vertex 2.20777 0.705498 3
      vertex 2.3174 0.440839 3.60676
      vertex 2.23574 0.637988 3
    endloop
  endfacet
  facet normal 0.923881 0.38268 -3.83799e-06
    outer loop
      vertex 2.5 0 3.75
      vertex 2.3174 0.440839 3.60676
      vertex 2.1633 0.812875 3.75
    endloop
  endfacet
  facet normal 0.923881 0.382681 0
    outer loop
      vertex 2.3174 0.440839 3.60676
      vertex 2.5 0 3.75
      vertex 2.5 0 3.60676
    endloop
  endfacet
  facet normal 0.92388 0.382683 -0
    outer loop
      vertex 2.1633 0.812875 3.75
      vertex 1.76777 1.76777 6.5
      vertex 2.1633 0.812875 5.25
    endloop
  endfacet
  facet normal 0.92388 0.382682 1.38067e-06
    outer loop
      vertex 2.5 0 6.5
      vertex 2.1633 0.812875 5.25
      vertex 1.76777 1.76777 6.5
    endloop
  endfacet
  facet normal 0.923881 0.38268 0
    outer loop
      vertex 2.1633 0.812875 5.25
      vertex 2.5 0 6.5
      vertex 2.5 0 5.25
    endloop
  endfacet
  facet normal 0.92388 0.382683 0
    outer loop
      vertex 1.76777 1.76777 6.5
      vertex 2.1633 0.812875 3.75
      vertex 1.76777 1.76777 -0.5
    endloop
  endfacet
  facet normal 0.923888 0.382662 -5.56367e-06
    outer loop
      vertex 2.20454 0.713292 2.76824
      vertex 1.76777 1.76777 -0.5
      vertex 2.1633 0.812875 3.75
    endloop
  endfacet
  facet normal 0.923812 0.382847 -0
    outer loop
      vertex 2.20777 0.705498 0
      vertex 2.20454 0.713292 2.76824
      vertex 2.20777 0.705498 2.76258
    endloop
  endfacet
  facet normal 0.923882 0.382678 5.58046e-07
    outer loop
      vertex 2.20454 0.713292 2.76824
      vertex 2.20777 0.705498 0
      vertex 1.76777 1.76777 -0.5
    endloop
  endfacet
  facet normal 0.923878 0.382687 -0
    outer loop
      vertex 2.5 0 -0.5
      vertex 2.20777 0.705498 0
      vertex 2.5 0 0
    endloop
  endfacet
  facet normal 0.92388 0.382682 9.01691e-06
    outer loop
      vertex 2.20777 0.705498 0
      vertex 2.5 0 -0.5
      vertex 1.76777 1.76777 -0.5
    endloop
  endfacet
  facet normal 0.923812 0.382847 0
    outer loop
      vertex 2.20454 0.713292 2.76824
      vertex 2.20777 0.705498 3
      vertex 2.20777 0.705498 2.79223
    endloop
  endfacet
  facet normal 0.923878 -0.382688 0
    outer loop
      vertex 2.5 0 6.5
      vertex 2.1726 -0.790402 5.25
      vertex 2.5 0 5.25
    endloop
  endfacet
  facet normal 0.923883 -0.382676 0
    outer loop
      vertex 2.1726 -0.790402 5.25
      vertex 1.76777 -1.76777 6.5
      vertex 2.1726 -0.790402 3.75
    endloop
  endfacet
  facet normal 0.92388 -0.382682 -4.95095e-06
    outer loop
      vertex 1.76777 -1.76777 6.5
      vertex 2.1726 -0.790402 5.25
      vertex 2.5 0 6.5
    endloop
  endfacet
  facet normal 0.923881 -0.382681 0
    outer loop
      vertex 2.5 0 3.75
      vertex 2.3174 -0.440839 3.60676
      vertex 2.5 0 3.60676
    endloop
  endfacet
  facet normal 0.923848 -0.382759 3.13705e-05
    outer loop
      vertex 2.3174 -0.440839 3.60676
      vertex 2.20777 -0.705498 3
      vertex 2.23574 -0.637988 3
    endloop
  endfacet
  facet normal 0.923812 -0.382847 0
    outer loop
      vertex 2.20777 -0.705498 3
      vertex 2.20454 -0.713292 2.76824
      vertex 2.20777 -0.705498 2.79223
    endloop
  endfacet
  facet normal 0.923859 -0.382732 -4.5225e-06
    outer loop
      vertex 2.20777 -0.705498 3
      vertex 2.1726 -0.790402 3.75
      vertex 2.20454 -0.713292 2.76824
    endloop
  endfacet
  facet normal 0.923874 -0.382698 1.1644e-07
    outer loop
      vertex 2.3174 -0.440839 3.60676
      vertex 2.1726 -0.790402 3.75
      vertex 2.20777 -0.705498 3
    endloop
  endfacet
  facet normal 0.923878 -0.382688 2.67933e-05
    outer loop
      vertex 2.1726 -0.790402 3.75
      vertex 2.3174 -0.440839 3.60676
      vertex 2.5 0 3.75
    endloop
  endfacet
  facet normal 0.923812 -0.382847 0
    outer loop
      vertex 2.20777 -0.705498 2.76258
      vertex 2.20454 -0.713292 2.76824
      vertex 2.20777 -0.705498 0
    endloop
  endfacet
  facet normal 0.923878 -0.382687 0
    outer loop
      vertex 2.20777 -0.705498 0
      vertex 2.5 0 -0.5
      vertex 2.5 0 0
    endloop
  endfacet
  facet normal 0.923882 -0.382678 4.97102e-07
    outer loop
      vertex 1.76777 -1.76777 -0.5
      vertex 2.20454 -0.713292 2.76824
      vertex 2.1726 -0.790402 3.75
    endloop
  endfacet
  facet normal 0.923883 -0.382676 0
    outer loop
      vertex 1.76777 -1.76777 -0.5
      vertex 2.1726 -0.790402 3.75
      vertex 1.76777 -1.76777 6.5
    endloop
  endfacet
  facet normal 0.92388 -0.382682 9.01691e-06
    outer loop
      vertex 2.20777 -0.705498 0
      vertex 1.76777 -1.76777 -0.5
      vertex 2.5 0 -0.5
    endloop
  endfacet
  facet normal 0.923882 -0.382678 5.58046e-07
    outer loop
      vertex 2.20454 -0.713292 2.76824
      vertex 1.76777 -1.76777 -0.5
      vertex 2.20777 -0.705498 0
    endloop
  endfacet
  facet normal -0.382682 -0.92388 0
    outer loop
      vertex -1.76777 -1.76777 -0.5
      vertex 0 -2.5 6.5
      vertex -1.76777 -1.76777 6.5
    endloop
  endfacet
  facet normal -0.382682 -0.92388 -0
    outer loop
      vertex 0 -2.5 6.5
      vertex -1.76777 -1.76777 -0.5
      vertex 0 -2.5 -0.5
    endloop
  endfacet
  facet normal -0.923883 0.382676 0
    outer loop
      vertex -1.76777 1.76777 -0.5
      vertex -2.11244 0.935643 3.75
      vertex -1.76777 1.76777 6.5
    endloop
  endfacet
  facet normal -0.923882 0.382678 6.17443e-07
    outer loop
      vertex -1.76777 1.76777 -0.5
      vertex -2.20454 0.713292 2.76824
      vertex -2.11244 0.935643 3.75
    endloop
  endfacet
  facet normal -0.92388 0.382683 2.32943e-06
    outer loop
      vertex -1.76777 1.76777 -0.5
      vertex -2.2724 0.54948 0
      vertex -2.20454 0.713292 2.76824
    endloop
  endfacet
  facet normal -0.92388 0.382682 -1.3467e-06
    outer loop
      vertex -2.5 0 -0.5
      vertex -2.2724 0.54948 0
      vertex -1.76777 1.76777 -0.5
    endloop
  endfacet
  facet normal -0.923881 0.38268 0
    outer loop
      vertex -2.2724 0.54948 0
      vertex -2.5 0 -0.5
      vertex -2.5 0 0
    endloop
  endfacet
  facet normal -0.923883 0.382676 0
    outer loop
      vertex -2.11244 0.935643 5.25
      vertex -1.76777 1.76777 6.5
      vertex -2.11244 0.935643 3.75
    endloop
  endfacet
  facet normal -0.923878 0.382687 0
    outer loop
      vertex -2.5 0 6.5
      vertex -2.11244 0.935643 5.25
      vertex -2.5 0 5.25
    endloop
  endfacet
  facet normal -0.92388 0.382682 -4.62724e-06
    outer loop
      vertex -2.11244 0.935643 5.25
      vertex -2.5 0 6.5
      vertex -1.76777 1.76777 6.5
    endloop
  endfacet
  facet normal -0.923876 0.382693 -3.28202e-06
    outer loop
      vertex -2.3174 0.440839 3.60676
      vertex -2.11244 0.935643 3.75
      vertex -2.20454 0.713292 2.76824
    endloop
  endfacet
  facet normal -0.923881 0.382681 0
    outer loop
      vertex -2.5 0 3.75
      vertex -2.3174 0.440839 3.60676
      vertex -2.5 0 3.60676
    endloop
  endfacet
  facet normal -0.923878 0.382687 2.17217e-05
    outer loop
      vertex -2.3174 0.440839 3.60676
      vertex -2.5 0 3.75
      vertex -2.11244 0.935643 3.75
    endloop
  endfacet
  facet normal -0.923866 0.382716 0
    outer loop
      vertex -2.20454 0.713292 2.76824
      vertex -2.2724 0.54948 0
      vertex -2.2724 0.54948 2.64922
    endloop
  endfacet
  facet normal 0.382682 -0.92388 0
    outer loop
      vertex 0 -2.5 -0.5
      vertex 1.76777 -1.76777 6.5
      vertex 0 -2.5 6.5
    endloop
  endfacet
  facet normal 0.382682 -0.92388 0
    outer loop
      vertex 1.76777 -1.76777 6.5
      vertex 0 -2.5 -0.5
      vertex 1.76777 -1.76777 -0.5
    endloop
  endfacet
  facet normal 0 0 1
    outer loop
      vertex 1.76777 1.76777 6.5
      vertex 1.76777 -1.76777 6.5
      vertex 2.5 0 6.5
    endloop
  endfacet
  facet normal 0 0 1
    outer loop
      vertex 0 2.5 6.5
      vertex 1.76777 -1.76777 6.5
      vertex 1.76777 1.76777 6.5
    endloop
  endfacet
  facet normal 0 0 1
    outer loop
      vertex 0 2.5 6.5
      vertex 0 -2.5 6.5
      vertex 1.76777 -1.76777 6.5
    endloop
  endfacet
  facet normal -0 0 1
    outer loop
      vertex -1.76777 1.76777 6.5
      vertex 0 -2.5 6.5
      vertex 0 2.5 6.5
    endloop
  endfacet
  facet normal 0 0 1
    outer loop
      vertex -1.76777 1.76777 6.5
      vertex -1.76777 -1.76777 6.5
      vertex 0 -2.5 6.5
    endloop
  endfacet
  facet normal 0 -0 1
    outer loop
      vertex -1.76777 -1.76777 6.5
      vertex -1.76777 1.76777 6.5
      vertex -2.5 0 6.5
    endloop
  endfacet
  facet normal -0.382682 0.92388 0
    outer loop
      vertex 0 2.5 -0.5
      vertex -1.76777 1.76777 6.5
      vertex 0 2.5 6.5
    endloop
  endfacet
  facet normal -0.382682 0.92388 0
    outer loop
      vertex -1.76777 1.76777 6.5
      vertex 0 2.5 -0.5
      vertex -1.76777 1.76777 -0.5
    endloop
  endfacet
  facet normal 0 0 -1
    outer loop
      vertex 1.76777 -1.76777 -0.5
      vertex 1.76777 1.76777 -0.5
      vertex 2.5 0 -0.5
    endloop
  endfacet
  facet normal 0 0 -1
    outer loop
      vertex 0 -2.5 -0.5
      vertex 1.76777 1.76777 -0.5
      vertex 1.76777 -1.76777 -0.5
    endloop
  endfacet
  facet normal 0 0 -1
    outer loop
      vertex 0 -2.5 -0.5
      vertex 0 2.5 -0.5
      vertex 1.76777 1.76777 -0.5
    endloop
  endfacet
  facet normal 0 0 -1
    outer loop
      vertex -1.76777 -1.76777 -0.5
      vertex 0 2.5 -0.5
      vertex 0 -2.5 -0.5
    endloop
  endfacet
  facet normal 0 0 -1
    outer loop
      vertex -1.76777 -1.76777 -0.5
      vertex -1.76777 1.76777 -0.5
      vertex 0 2.5 -0.5
    endloop
  endfacet
  facet normal 0 -0 -1
    outer loop
      vertex -1.76777 1.76777 -0.5
      vertex -1.76777 -1.76777 -0.5
      vertex -2.5 0 -0.5
    endloop
  endfacet
  facet normal 0 -0.587797 0.809009
    outer loop
      vertex -1.76824 0.713292 2.76824
      vertex -2.20454 0.713292 2.76824
      vertex -2.2724 0.54948 2.64922
    endloop
  endfacet
  facet normal -8.29341e-05 -0.587626 0.809133
    outer loop
      vertex 2.20454 0.713292 2.76824
      vertex 1.39324 0.440839 2.57029
      vertex 2.20777 0.705498 2.76258
    endloop
  endfacet
  facet normal 0 -0.587787 0.809015
    outer loop
      vertex 1.39324 0.440839 2.57029
      vertex -1.25 0 2.25
      vertex 1.39324 0 2.25
    endloop
  endfacet
  facet normal 0 -0.587788 0.809015
    outer loop
      vertex -1.76824 0.713292 2.76824
      vertex 1.39324 0.440839 2.57029
      vertex 2.20454 0.713292 2.76824
    endloop
  endfacet
  facet normal 4.15939e-08 -0.587787 0.809015
    outer loop
      vertex 1.39324 0.440839 2.57029
      vertex -1.76824 0.713292 2.76824
      vertex -1.25 0 2.25
    endloop
  endfacet
  facet normal 0 -0.951056 -0.309019
    outer loop
      vertex -1.76824 0.713292 2.76824
      vertex 2 0.637988 3
      vertex -1.71353 0.637988 3
    endloop
  endfacet
  facet normal 0 -0.951056 -0.309019
    outer loop
      vertex 2 0.637988 3
      vertex -1.76824 0.713292 2.76824
      vertex 2.20454 0.713292 2.76824
    endloop
  endfacet
  facet normal 3.45616e-05 -0.951065 -0.308992
    outer loop
      vertex 2 0.637988 3
      vertex 2.20454 0.713292 2.76824
      vertex 2.20777 0.705498 2.79223
    endloop
  endfacet
  facet normal -0 -0.951056 -0.309018
    outer loop
      vertex -1.71353 0.637988 3
      vertex -2.3174 0.440839 3.60676
      vertex -2 0.637988 3
    endloop
  endfacet
  facet normal -9.75751e-07 -0.951056 -0.309018
    outer loop
      vertex -2.20454 0.713292 2.76824
      vertex -2 0.637988 3
      vertex -2.3174 0.440839 3.60676
    endloop
  endfacet
  facet normal 0 -0.951056 -0.309019
    outer loop
      vertex -2 0.637988 3
      vertex -2.20454 0.713292 2.76824
      vertex -1.76824 0.713292 2.76824
    endloop
  endfacet
  facet normal 0 -0.951056 -0.309018
    outer loop
      vertex -2.3174 0.440839 3.60676
      vertex -1.71353 0.637988 3
      vertex 2.3174 0.440839 3.60676
    endloop
  endfacet
  facet normal -0 -0.951056 -0.309018
    outer loop
      vertex 2 0.637988 3
      vertex 2.3174 0.440839 3.60676
      vertex -1.71353 0.637988 3
    endloop
  endfacet
  facet normal 0 -0.951056 -0.309018
    outer loop
      vertex 2.3174 0.440839 3.60676
      vertex 2 0.637988 3
      vertex 2.23574 0.637988 3
    endloop
  endfacet
  facet normal 0 0 -1
    outer loop
      vertex 2.3174 -0.440839 3.60676
      vertex 2.3174 0.440839 3.60676
      vertex 2.5 0 3.60676
    endloop
  endfacet
  facet normal 0 0 -1
    outer loop
      vertex -2.3174 -0.440839 3.60676
      vertex 2.3174 0.440839 3.60676
      vertex 2.3174 -0.440839 3.60676
    endloop
  endfacet
  facet normal 0 0 -1
    outer loop
      vertex -2.3174 -0.440839 3.60676
      vertex -2.3174 0.440839 3.60676
      vertex 2.3174 0.440839 3.60676
    endloop
  endfacet
  facet normal 0 -0 -1
    outer loop
      vertex -2.3174 0.440839 3.60676
      vertex -2.3174 -0.440839 3.60676
      vertex -2.5 0 3.60676
    endloop
  endfacet
  facet normal 3.45616e-05 0.951065 -0.308992
    outer loop
      vertex 2.20454 -0.713292 2.76824
      vertex 2 -0.637988 3
      vertex 2.20777 -0.705498 2.79223
    endloop
  endfacet
  facet normal 0 0.951056 -0.309019
    outer loop
      vertex -1.76824 -0.713292 2.76824
      vertex 2 -0.637988 3
      vertex 2.20454 -0.713292 2.76824
    endloop
  endfacet
  facet normal 0 0.951056 -0.309019
    outer loop
      vertex 2 -0.637988 3
      vertex -1.76824 -0.713292 2.76824
      vertex -1.71353 -0.637988 3
    endloop
  endfacet
  facet normal 0 0.951056 -0.309018
    outer loop
      vertex 2 -0.637988 3
      vertex 2.3174 -0.440839 3.60676
      vertex 2.23574 -0.637988 3
    endloop
  endfacet
  facet normal 0 0.951056 -0.309018
    outer loop
      vertex -1.71353 -0.637988 3
      vertex 2.3174 -0.440839 3.60676
      vertex 2 -0.637988 3
    endloop
  endfacet
  facet normal 0 0.951056 -0.309018
    outer loop
      vertex 2.3174 -0.440839 3.60676
      vertex -1.71353 -0.637988 3
      vertex -2.3174 -0.440839 3.60676
    endloop
  endfacet
  facet normal 0 0.951056 -0.309018
    outer loop
      vertex -2 -0.637988 3
      vertex -2.3174 -0.440839 3.60676
      vertex -1.71353 -0.637988 3
    endloop
  endfacet
  facet normal -9.75751e-07 0.951056 -0.309018
    outer loop
      vertex -2 -0.637988 3
      vertex -2.20454 -0.713292 2.76824
      vertex -2.3174 -0.440839 3.60676
    endloop
  endfacet
  facet normal 0 0.951056 -0.309019
    outer loop
      vertex -2.20454 -0.713292 2.76824
      vertex -2 -0.637988 3
      vertex -1.76824 -0.713292 2.76824
    endloop
  endfacet
  facet normal -0 0.587797 0.809009
    outer loop
      vertex -2.20454 -0.713292 2.76824
      vertex -1.76824 -0.713292 2.76824
      vertex -2.2724 -0.54948 2.64922
    endloop
  endfacet
  facet normal 0 0.587787 0.809015
    outer loop
      vertex 1.39324 0 2.25
      vertex -1.25 0 2.25
      vertex 1.39324 -0.440839 2.57029
    endloop
  endfacet
  facet normal -8.29341e-05 0.587626 0.809133
    outer loop
      vertex 1.39324 -0.440839 2.57029
      vertex 2.20454 -0.713292 2.76824
      vertex 2.20777 -0.705498 2.76258
    endloop
  endfacet
  facet normal 4.15939e-08 0.587787 0.809015
    outer loop
      vertex -1.76824 -0.713292 2.76824
      vertex 1.39324 -0.440839 2.57029
      vertex -1.25 0 2.25
    endloop
  endfacet
  facet normal 0 0.587788 0.809015
    outer loop
      vertex 1.39324 -0.440839 2.57029
      vertex -1.76824 -0.713292 2.76824
      vertex 2.20454 -0.713292 2.76824
    endloop
  endfacet
  facet normal -0.309018 -0.951056 0
    outer loop
      vertex 1.39324 -0.440839 2.57029
      vertex 2 -0.637988 3
      vertex 1.39324 -0.440839 3
    endloop
  endfacet
  facet normal -0.30902 -0.951056 2.9341e-06
    outer loop
      vertex 2.20777 -0.705498 2.76258
      vertex 2 -0.637988 3
      vertex 1.39324 -0.440839 2.57029
    endloop
  endfacet
  facet normal -0.309023 -0.951055 0
    outer loop
      vertex 2 -0.637988 3
      vertex 2.20777 -0.705498 2.76258
      vertex 2.20777 -0.705498 2.79223
    endloop
  endfacet
  facet normal -0.308987 -0.951066 0
    outer loop
      vertex 2.20777 -0.705498 2.79223
      vertex 2.23176 -0.713292 3
      vertex 2.20777 -0.705498 3
    endloop
  endfacet
  facet normal -0.308987 -0.951066 0
    outer loop
      vertex 2.20777 -0.705498 2.76258
      vertex 2.23176 -0.713292 3
      vertex 2.20777 -0.705498 2.79223
    endloop
  endfacet
  facet normal -0.308987 -0.951066 0
    outer loop
      vertex 2.23176 -0.713292 0
      vertex 2.20777 -0.705498 2.76258
      vertex 2.20777 -0.705498 0
    endloop
  endfacet
  facet normal -0.308987 -0.951066 0
    outer loop
      vertex 2.20777 -0.705498 2.76258
      vertex 2.23176 -0.713292 0
      vertex 2.23176 -0.713292 3
    endloop
  endfacet
  facet normal -0.308987 0.951066 0
    outer loop
      vertex 2.23176 0.713292 3
      vertex 2.20777 0.705498 2.79223
      vertex 2.20777 0.705498 3
    endloop
  endfacet
  facet normal -0.308987 0.951066 0
    outer loop
      vertex 2.23176 0.713292 3
      vertex 2.20777 0.705498 2.76258
      vertex 2.20777 0.705498 2.79223
    endloop
  endfacet
  facet normal -0.308987 0.951066 0
    outer loop
      vertex 2.23176 0.713292 0
      vertex 2.20777 0.705498 2.76258
      vertex 2.23176 0.713292 3
    endloop
  endfacet
  facet normal -0.308987 0.951066 0
    outer loop
      vertex 2.20777 0.705498 2.76258
      vertex 2.23176 0.713292 0
      vertex 2.20777 0.705498 0
    endloop
  endfacet
  facet normal -0.309023 0.951055 0
    outer loop
      vertex 2.20777 0.705498 2.76258
      vertex 2 0.637988 3
      vertex 2.20777 0.705498 2.79223
    endloop
  endfacet
  facet normal -0.30902 0.951056 2.9341e-06
    outer loop
      vertex 2 0.637988 3
      vertex 2.20777 0.705498 2.76258
      vertex 1.39324 0.440839 2.57029
    endloop
  endfacet
  facet normal -0.309018 0.951056 0
    outer loop
      vertex 2 0.637988 3
      vertex 1.39324 0.440839 2.57029
      vertex 1.39324 0.440839 3
    endloop
  endfacet
  facet normal 0.809015 0.587787 0
    outer loop
      vertex 2.75 0 3
      vertex 2.23176 0.713292 0
      vertex 2.23176 0.713292 3
    endloop
  endfacet
  facet normal 0.809015 0.587787 0
    outer loop
      vertex 2.23176 0.713292 0
      vertex 2.75 0 3
      vertex 2.75 0 0
    endloop
  endfacet
  facet normal -1 0 0
    outer loop
      vertex 1.39324 -0.440839 2.57029
      vertex 1.39324 0.440839 2.57029
      vertex 1.39324 0 2.25
    endloop
  endfacet
  facet normal -1 0 0
    outer loop
      vertex 1.39324 0.440839 2.57029
      vertex 1.39324 -0.440839 2.57029
      vertex 1.39324 0.440839 3
    endloop
  endfacet
  facet normal -1 -0 0
    outer loop
      vertex 1.39324 0.440839 3
      vertex 1.39324 -0.440839 2.57029
      vertex 1.39324 -0.440839 3
    endloop
  endfacet
  facet normal 0 0 1
    outer loop
      vertex 2 -0.637988 3
      vertex 2.75 0 3
      vertex 2 0.637988 3
    endloop
  endfacet
  facet normal 0 0 1
    outer loop
      vertex 2.75 0 3
      vertex 2 -0.637988 3
      vertex 2.23574 -0.637988 3
    endloop
  endfacet
  facet normal -0 0 1
    outer loop
      vertex 1.39324 0.440839 3
      vertex 2 -0.637988 3
      vertex 2 0.637988 3
    endloop
  endfacet
  facet normal 0 0 1
    outer loop
      vertex 2 -0.637988 3
      vertex 1.39324 0.440839 3
      vertex 1.39324 -0.440839 3
    endloop
  endfacet
  facet normal 0 0 1
    outer loop
      vertex 2.23176 0.713292 3
      vertex 2.23574 0.637988 3
      vertex 2.75 0 3
    endloop
  endfacet
  facet normal 0 0 1
    outer loop
      vertex 2.23574 0.637988 3
      vertex 2.23176 0.713292 3
      vertex 2.20777 0.705498 3
    endloop
  endfacet
  facet normal -0 0 1
    outer loop
      vertex 2 0.637988 3
      vertex 2.75 0 3
      vertex 2.23574 0.637988 3
    endloop
  endfacet
  facet normal -0 0 1
    outer loop
      vertex 2.23574 -0.637988 3
      vertex 2.23176 -0.713292 3
      vertex 2.75 0 3
    endloop
  endfacet
  facet normal 0 -0 1
    outer loop
      vertex 2.23176 -0.713292 3
      vertex 2.23574 -0.637988 3
      vertex 2.20777 -0.705498 3
    endloop
  endfacet
  facet normal 0.809015 -0.587787 0
    outer loop
      vertex 2.23176 -0.713292 3
      vertex 2.75 0 0
      vertex 2.75 0 3
    endloop
  endfacet
  facet normal 0.809015 -0.587787 0
    outer loop
      vertex 2.75 0 0
      vertex 2.23176 -0.713292 3
      vertex 2.23176 -0.713292 0
    endloop
  endfacet
  facet normal 0 0 -1
    outer loop
      vertex 2.23176 -0.713292 0
      vertex 2.5 0 0
      vertex 2.75 0 0
    endloop
  endfacet
  facet normal 0 0 -1
    outer loop
      vertex 2.5 0 0
      vertex 2.23176 -0.713292 0
      vertex 2.20777 -0.705498 0
    endloop
  endfacet
  facet normal 0 0 -1
    outer loop
      vertex 2.5 0 0
      vertex 2.23176 0.713292 0
      vertex 2.75 0 0
    endloop
  endfacet
  facet normal 0 -0 -1
    outer loop
      vertex 2.23176 0.713292 0
      vertex 2.5 0 0
      vertex 2.20777 0.705498 0
    endloop
  endfacet
  facet normal 0.207912 -0.978148 0
    outer loop
      vertex 2.1726 -0.790402 3.75
      vertex 2.74314 -0.66913 5.25
      vertex 2.1726 -0.790402 5.25
    endloop
  endfacet
  facet normal 0.207912 -0.978148 0
    outer loop
      vertex 2.74314 -0.66913 5.25
      vertex 2.1726 -0.790402 3.75
      vertex 2.74314 -0.66913 3.75
    endloop
  endfacet
  facet normal 0.406741 0.913544 -0
    outer loop
      vertex 2.86602 0.5 3.75
      vertex 2.1633 0.812875 5.25
      vertex 2.86602 0.5 5.25
    endloop
  endfacet
  facet normal 0.406741 0.913544 0
    outer loop
      vertex 2.1633 0.812875 5.25
      vertex 2.86602 0.5 3.75
      vertex 2.1633 0.812875 3.75
    endloop
  endfacet
  facet normal 0 0 1
    outer loop
      vertex 2.86602 0.5 5.25
      vertex 2.5 0 5.25
      vertex 2.74314 -0.66913 5.25
    endloop
  endfacet
  facet normal 0 -0 1
    outer loop
      vertex 2.5 0 5.25
      vertex 2.86602 0.5 5.25
      vertex 2.1633 0.812875 5.25
    endloop
  endfacet
  facet normal 0 0 1
    outer loop
      vertex 2.74314 -0.66913 5.25
      vertex 2.5 0 5.25
      vertex 2.1726 -0.790402 5.25
    endloop
  endfacet
  facet normal 0.994522 -0.104528 0
    outer loop
      vertex 2.74314 -0.66913 5.25
      vertex 2.86602 0.5 3.75
      vertex 2.86602 0.5 5.25
    endloop
  endfacet
  facet normal 0.994522 -0.104528 0
    outer loop
      vertex 2.86602 0.5 3.75
      vertex 2.74314 -0.66913 5.25
      vertex 2.74314 -0.66913 3.75
    endloop
  endfacet
  facet normal -0 0 -1
    outer loop
      vertex 2.74314 -0.66913 3.75
      vertex 2.1726 -0.790402 3.75
      vertex 2.5 0 3.75
    endloop
  endfacet
  facet normal 0 0 -1
    outer loop
      vertex 2.5 0 3.75
      vertex 2.86602 0.5 3.75
      vertex 2.74314 -0.66913 3.75
    endloop
  endfacet
  facet normal -0 0 -1
    outer loop
      vertex 2.86602 0.5 3.75
      vertex 2.5 0 3.75
      vertex 2.1633 0.812875 3.75
    endloop
  endfacet
  facet normal -0.309018 -0.951056 1.2222e-06
    outer loop
      vertex -2.2724 -0.54948 2.64922
      vertex -2 -0.637988 3
      vertex -2.60676 -0.440839 3
    endloop
  endfacet
  facet normal -0.309018 -0.951056 1.28749e-06
    outer loop
      vertex -2 -0.637988 3
      vertex -2.2724 -0.54948 2.64922
      vertex -1.76824 -0.713292 2.76824
    endloop
  endfacet
  facet normal -0.309019 -0.951056 0
    outer loop
      vertex -2.60676 -0.440839 0
      vertex -2.2724 -0.54948 2.64922
      vertex -2.60676 -0.440839 3
    endloop
  endfacet
  facet normal -0.309019 -0.951056 -0
    outer loop
      vertex -2.2724 -0.54948 2.64922
      vertex -2.60676 -0.440839 0
      vertex -2.2724 -0.54948 0
    endloop
  endfacet
  facet normal -0.309018 0.951056 1.28749e-06
    outer loop
      vertex -2.2724 0.54948 2.64922
      vertex -2 0.637988 3
      vertex -1.76824 0.713292 2.76824
    endloop
  endfacet
  facet normal -0.309018 0.951056 1.2222e-06
    outer loop
      vertex -2 0.637988 3
      vertex -2.2724 0.54948 2.64922
      vertex -2.60676 0.440839 3
    endloop
  endfacet
  facet normal -0.309019 0.951056 0
    outer loop
      vertex -2.60676 0.440839 0
      vertex -2.2724 0.54948 2.64922
      vertex -2.2724 0.54948 0
    endloop
  endfacet
  facet normal -0.309019 0.951056 0
    outer loop
      vertex -2.2724 0.54948 2.64922
      vertex -2.60676 0.440839 0
      vertex -2.60676 0.440839 3
    endloop
  endfacet
  facet normal 0.809014 0.587789 7.32982e-06
    outer loop
      vertex -1.25 0 3
      vertex -1.76824 0.713292 2.76824
      vertex -1.71353 0.637988 3
    endloop
  endfacet
  facet normal 0.809015 0.587787 0
    outer loop
      vertex -1.76824 0.713292 2.76824
      vertex -1.25 0 3
      vertex -1.25 0 2.25
    endloop
  endfacet
  facet normal -1 0 0
    outer loop
      vertex -2.60676 -0.440839 0
      vertex -2.60676 0.440839 3
      vertex -2.60676 0.440839 0
    endloop
  endfacet
  facet normal -1 -0 0
    outer loop
      vertex -2.60676 0.440839 3
      vertex -2.60676 -0.440839 0
      vertex -2.60676 -0.440839 3
    endloop
  endfacet
  facet normal -0 0 1
    outer loop
      vertex -2 0.637988 3
      vertex -1.25 0 3
      vertex -1.71353 0.637988 3
    endloop
  endfacet
  facet normal 0 0 1
    outer loop
      vertex -2 -0.637988 3
      vertex -1.25 0 3
      vertex -2 0.637988 3
    endloop
  endfacet
  facet normal 0 0 1
    outer loop
      vertex -1.25 0 3
      vertex -2 -0.637988 3
      vertex -1.71353 -0.637988 3
    endloop
  endfacet
  facet normal -0 0 1
    outer loop
      vertex -2.60676 0.440839 3
      vertex -2 -0.637988 3
      vertex -2 0.637988 3
    endloop
  endfacet
  facet normal 0 0 1
    outer loop
      vertex -2 -0.637988 3
      vertex -2.60676 0.440839 3
      vertex -2.60676 -0.440839 3
    endloop
  endfacet
  facet normal 0.809014 -0.587789 7.32982e-06
    outer loop
      vertex -1.76824 -0.713292 2.76824
      vertex -1.25 0 3
      vertex -1.71353 -0.637988 3
    endloop
  endfacet
  facet normal 0.809015 -0.587787 0
    outer loop
      vertex -1.25 0 3
      vertex -1.76824 -0.713292 2.76824
      vertex -1.25 0 2.25
    endloop
  endfacet
  facet normal 0 0 -1
    outer loop
      vertex -2.2724 -0.54948 0
      vertex -2.60676 -0.440839 0
      vertex -2.5 0 0
    endloop
  endfacet
  facet normal 0 0 -1
    outer loop
      vertex -2.5 0 0
      vertex -2.60676 0.440839 0
      vertex -2.2724 0.54948 0
    endloop
  endfacet
  facet normal 0 0 -1
    outer loop
      vertex -2.60676 0.440839 0
      vertex -2.5 0 0
      vertex -2.60676 -0.440839 0
    endloop
  endfacet
  facet normal 0.207909 -0.978148 0
    outer loop
      vertex -2.40674 -0.913545 3.75
      vertex -2.14467 -0.857841 5.25
      vertex -2.40674 -0.913545 5.25
    endloop
  endfacet
  facet normal 0.207909 -0.978148 0
    outer loop
      vertex -2.14467 -0.857841 5.25
      vertex -2.40674 -0.913545 3.75
      vertex -2.14467 -0.857841 3.75
    endloop
  endfacet
  facet normal -0.743145 0.66913 0
    outer loop
      vertex -2.99452 0.104528 3.75
      vertex -2.20791 0.978148 5.25
      vertex -2.20791 0.978148 3.75
    endloop
  endfacet
  facet normal -0.743145 0.66913 0
    outer loop
      vertex -2.20791 0.978148 5.25
      vertex -2.99452 0.104528 3.75
      vertex -2.99452 0.104528 5.25
    endloop
  endfacet
  facet normal 0.406729 0.913549 -0
    outer loop
      vertex -2.11244 0.935643 3.75
      vertex -2.20791 0.978148 5.25
      vertex -2.11244 0.935643 5.25
    endloop
  endfacet
  facet normal 0.406729 0.913549 0
    outer loop
      vertex -2.20791 0.978148 5.25
      vertex -2.11244 0.935643 3.75
      vertex -2.20791 0.978148 3.75
    endloop
  endfacet
  facet normal -0.866027 -0.499997 0
    outer loop
      vertex -2.40674 -0.913545 3.75
      vertex -2.99452 0.104528 5.25
      vertex -2.99452 0.104528 3.75
    endloop
  endfacet
  facet normal -0.866027 -0.499997 0
    outer loop
      vertex -2.99452 0.104528 5.25
      vertex -2.40674 -0.913545 3.75
      vertex -2.40674 -0.913545 5.25
    endloop
  endfacet
  facet normal 0 0 1
    outer loop
      vertex -2.20791 0.978148 5.25
      vertex -2.5 0 5.25
      vertex -2.11244 0.935643 5.25
    endloop
  endfacet
  facet normal 0 -0 1
    outer loop
      vertex -2.5 0 5.25
      vertex -2.20791 0.978148 5.25
      vertex -2.99452 0.104528 5.25
    endloop
  endfacet
  facet normal 0 0 1
    outer loop
      vertex -2.5 0 5.25
      vertex -2.40674 -0.913545 5.25
      vertex -2.14467 -0.857841 5.25
    endloop
  endfacet
  facet normal 0 0 1
    outer loop
      vertex -2.40674 -0.913545 5.25
      vertex -2.5 0 5.25
      vertex -2.99452 0.104528 5.25
    endloop
  endfacet
  facet normal 0 0 -1
    outer loop
      vertex -2.40674 -0.913545 3.75
      vertex -2.5 0 3.75
      vertex -2.14467 -0.857841 3.75
    endloop
  endfacet
  facet normal -0 -0 -1
    outer loop
      vertex -2.5 0 3.75
      vertex -2.40674 -0.913545 3.75
      vertex -2.99452 0.104528 3.75
    endloop
  endfacet
  facet normal 0 0 -1
    outer loop
      vertex -2.5 0 3.75
      vertex -2.20791 0.978148 3.75
      vertex -2.11244 0.935643 3.75
    endloop
  endfacet
  facet normal 0 0 -1
    outer loop
      vertex -2.20791 0.978148 3.75
      vertex -2.5 0 3.75
      vertex -2.99452 0.104528 3.75
    endloop
  endfacet
  facet normal -0.92388 -0.382682 0
    outer loop
      vertex -1.76777 -1.76777 -6.5
      vertex -2.5 0 -1.5
      vertex -2.5 0 -6.5
    endloop
  endfacet
  facet normal -0.92388 -0.382682 0
    outer loop
      vertex -2.5 0 -1.5
      vertex -1.76777 -1.76777 -6.5
      vertex -1.76777 -1.76777 -1.5
    endloop
  endfacet
  facet normal 0.382682 0.92388 -0
    outer loop
      vertex 1.76777 1.76777 -6.5
      vertex 0 2.5 -1.5
      vertex 1.76777 1.76777 -1.5
    endloop
  endfacet
  facet normal 0.382682 0.92388 0
    outer loop
      vertex 0 2.5 -1.5
      vertex 1.76777 1.76777 -6.5
      vertex 0 2.5 -6.5
    endloop
  endfacet
  facet normal 0.92388 0.382682 0
    outer loop
      vertex 2.5 0 -1.5
      vertex 1.76777 1.76777 -6.5
      vertex 1.76777 1.76777 -1.5
    endloop
  endfacet
  facet normal 0.92388 0.382682 0
    outer loop
      vertex 1.76777 1.76777 -6.5
      vertex 2.5 0 -1.5
      vertex 2.5 0 -6.5
    endloop
  endfacet
  facet normal 0.92388 -0.382682 0
    outer loop
      vertex 1.76777 -1.76777 -1.5
      vertex 2.5 0 -6.5
      vertex 2.5 0 -1.5
    endloop
  endfacet
  facet normal 0.92388 -0.382682 0
    outer loop
      vertex 2.5 0 -6.5
      vertex 1.76777 -1.76777 -1.5
      vertex 1.76777 -1.76777 -6.5
    endloop
  endfacet
  facet normal -0.382682 -0.92388 0
    outer loop
      vertex -1.76777 -1.76777 -6.5
      vertex 0 -2.5 -1.5
      vertex -1.76777 -1.76777 -1.5
    endloop
  endfacet
  facet normal -0.382682 -0.92388 -0
    outer loop
      vertex 0 -2.5 -1.5
      vertex -1.76777 -1.76777 -6.5
      vertex 0 -2.5 -6.5
    endloop
  endfacet
  facet normal -0.382682 0.92388 0
    outer loop
      vertex 0 2.5 -6.5
      vertex -1.76777 1.76777 -1.5
      vertex 0 2.5 -1.5
    endloop
  endfacet
  facet normal -0.382682 0.92388 0
    outer loop
      vertex -1.76777 1.76777 -1.5
      vertex 0 2.5 -6.5
      vertex -1.76777 1.76777 -6.5
    endloop
  endfacet
  facet normal -0.92388 0.382682 0
    outer loop
      vertex -2.5 0 -6.5
      vertex -1.76777 1.76777 -1.5
      vertex -1.76777 1.76777 -6.5
    endloop
  endfacet
  facet normal -0.92388 0.382682 0
    outer loop
      vertex -1.76777 1.76777 -1.5
      vertex -2.5 0 -6.5
      vertex -2.5 0 -1.5
    endloop
  endfacet
  facet normal 0.382682 -0.92388 0
    outer loop
      vertex 0 -2.5 -6.5
      vertex 1.76777 -1.76777 -1.5
      vertex 0 -2.5 -1.5
    endloop
  endfacet
  facet normal 0.382682 -0.92388 0
    outer loop
      vertex 1.76777 -1.76777 -1.5
      vertex 0 -2.5 -6.5
      vertex 1.76777 -1.76777 -6.5
    endloop
  endfacet
  facet normal 0 0 1
    outer loop
      vertex 1 0 -1.5
      vertex 2.5 0 -1.5
      vertex 1.76777 1.76777 -1.5
    endloop
  endfacet
  facet normal 0 0 1
    outer loop
      vertex 2.5 0 -1.5
      vertex 1 0 -1.5
      vertex 1.76777 -1.76777 -1.5
    endloop
  endfacet
  facet normal 0 0 1
    outer loop
      vertex 1.76777 1.76777 -1.5
      vertex 0.309016 0.951056 -1.5
      vertex 1 0 -1.5
    endloop
  endfacet
  facet normal 0 0 1
    outer loop
      vertex 0 2.5 -1.5
      vertex 0.309016 0.951056 -1.5
      vertex 1.76777 1.76777 -1.5
    endloop
  endfacet
  facet normal 0 0 1
    outer loop
      vertex 0 2.5 -1.5
      vertex -0.809016 0.587785 -1.5
      vertex 0.309016 0.951056 -1.5
    endloop
  endfacet
  facet normal 0 0 1
    outer loop
      vertex -2.5 0 -1.5
      vertex -0.809016 0.587785 -1.5
      vertex -1.76777 1.76777 -1.5
    endloop
  endfacet
  facet normal -0 0 1
    outer loop
      vertex -1.76777 1.76777 -1.5
      vertex -0.809016 0.587785 -1.5
      vertex 0 2.5 -1.5
    endloop
  endfacet
  facet normal -0 0 1
    outer loop
      vertex 0.309016 -0.951056 -1.5
      vertex 1.76777 -1.76777 -1.5
      vertex 1 0 -1.5
    endloop
  endfacet
  facet normal 0 0 1
    outer loop
      vertex 0.309016 -0.951056 -1.5
      vertex 0 -2.5 -1.5
      vertex 1.76777 -1.76777 -1.5
    endloop
  endfacet
  facet normal 0 0 1
    outer loop
      vertex -0.809016 -0.587785 -1.5
      vertex 0 -2.5 -1.5
      vertex 0.309016 -0.951056 -1.5
    endloop
  endfacet
  facet normal 0 0 1
    outer loop
      vertex -0.809016 -0.587785 -1.5
      vertex -1.76777 -1.76777 -1.5
      vertex 0 -2.5 -1.5
    endloop
  endfacet
  facet normal 0 0 1
    outer loop
      vertex -0.809016 0.587785 -1.5
      vertex -2.5 0 -1.5
      vertex -0.809016 -0.587785 -1.5
    endloop
  endfacet
  facet normal 0 0 1
    outer loop
      vertex -0.809016 -0.587785 -1.5
      vertex -2.5 0 -1.5
      vertex -1.76777 -1.76777 -1.5
    endloop
  endfacet
  facet normal 0 0 1
    outer loop
      vertex 2.5 0 -6.5
      vertex 3.5 0 -6.5
      vertex 2.94439 1.89224 -6.5
    endloop
  endfacet
  facet normal 0 0 1
    outer loop
      vertex 3.5 0 -6.5
      vertex 2.5 0 -6.5
      vertex 2.94439 -1.89224 -6.5
    endloop
  endfacet
  facet normal 0 0 1
    outer loop
      vertex 2.94439 1.89224 -6.5
      vertex 1.76777 1.76777 -6.5
      vertex 2.5 0 -6.5
    endloop
  endfacet
  facet normal 0 0 1
    outer loop
      vertex 1.45395 3.18371 -6.5
      vertex 1.76777 1.76777 -6.5
      vertex 2.94439 1.89224 -6.5
    endloop
  endfacet
  facet normal 0 0 1
    outer loop
      vertex 1.45395 3.18371 -6.5
      vertex 0 2.5 -6.5
      vertex 1.76777 1.76777 -6.5
    endloop
  endfacet
  facet normal 0 0 1
    outer loop
      vertex -0.498101 3.46437 -6.5
      vertex 0 2.5 -6.5
      vertex 1.45395 3.18371 -6.5
    endloop
  endfacet
  facet normal 0 0 1
    outer loop
      vertex -0.498101 3.46437 -6.5
      vertex -1.76777 1.76777 -6.5
      vertex 0 2.5 -6.5
    endloop
  endfacet
  facet normal -0 0 1
    outer loop
      vertex -2.29201 2.64512 -6.5
      vertex -1.76777 1.76777 -6.5
      vertex -0.498101 3.46437 -6.5
    endloop
  endfacet
  facet normal 0 0 1
    outer loop
      vertex -3.35822 0.986063 -6.5
      vertex -1.76777 1.76777 -6.5
      vertex -2.29201 2.64512 -6.5
    endloop
  endfacet
  facet normal 0 0 1
    outer loop
      vertex -1.76777 1.76777 -6.5
      vertex -3.35822 0.986063 -6.5
      vertex -2.5 0 -6.5
    endloop
  endfacet
  facet normal -0 0 1
    outer loop
      vertex 1.76777 -1.76777 -6.5
      vertex 2.94439 -1.89224 -6.5
      vertex 2.5 0 -6.5
    endloop
  endfacet
  facet normal 0 0 1
    outer loop
      vertex 1.76777 -1.76777 -6.5
      vertex 1.45395 -3.18371 -6.5
      vertex 2.94439 -1.89224 -6.5
    endloop
  endfacet
  facet normal -0 0 1
    outer loop
      vertex 0 -2.5 -6.5
      vertex 1.45395 -3.18371 -6.5
      vertex 1.76777 -1.76777 -6.5
    endloop
  endfacet
  facet normal 0 0 1
    outer loop
      vertex 0 -2.5 -6.5
      vertex -0.498101 -3.46437 -6.5
      vertex 1.45395 -3.18371 -6.5
    endloop
  endfacet
  facet normal 0 0 1
    outer loop
      vertex -1.76777 -1.76777 -6.5
      vertex -0.498101 -3.46437 -6.5
      vertex 0 -2.5 -6.5
    endloop
  endfacet
  facet normal 0 0 1
    outer loop
      vertex -1.76777 -1.76777 -6.5
      vertex -2.29201 -2.64512 -6.5
      vertex -0.498101 -3.46437 -6.5
    endloop
  endfacet
  facet normal -0 0 1
    outer loop
      vertex -3.35822 -0.986063 -6.5
      vertex -1.76777 -1.76777 -6.5
      vertex -2.5 0 -6.5
    endloop
  endfacet
  facet normal 0 0 1
    outer loop
      vertex -3.35822 -0.986063 -6.5
      vertex -2.5 0 -6.5
      vertex -3.35822 0.986063 -6.5
    endloop
  endfacet
  facet normal 0 0 1
    outer loop
      vertex -1.76777 -1.76777 -6.5
      vertex -3.35822 -0.986063 -6.5
      vertex -2.29201 -2.64512 -6.5
    endloop
  endfacet
  facet normal 0 0 1
    outer loop
      vertex 0.309016 0.951056 -6.5
      vertex 0.309016 -0.951056 -6.5
      vertex 1 0 -6.5
    endloop
  endfacet
  facet normal -0 0 1
    outer loop
      vertex -0.809016 0.587785 -6.5
      vertex 0.309016 -0.951056 -6.5
      vertex 0.309016 0.951056 -6.5
    endloop
  endfacet
  facet normal 0 0 1
    outer loop
      vertex 0.309016 -0.951056 -6.5
      vertex -0.809016 0.587785 -6.5
      vertex -0.809016 -0.587785 -6.5
    endloop
  endfacet
  facet normal 0.309017 0.951056 -0
    outer loop
      vertex 0.309016 -0.951056 -6.5
      vertex -0.809016 -0.587785 -1.5
      vertex 0.309016 -0.951056 -1.5
    endloop
  endfacet
  facet normal 0.309017 0.951056 0
    outer loop
      vertex -0.809016 -0.587785 -1.5
      vertex 0.309016 -0.951056 -6.5
      vertex -0.809016 -0.587785 -6.5
    endloop
  endfacet
  facet normal 0.309017 -0.951056 0
    outer loop
      vertex -0.809016 0.587785 -6.5
      vertex 0.309016 0.951056 -1.5
      vertex -0.809016 0.587785 -1.5
    endloop
  endfacet
  facet normal 0.309017 -0.951056 0
    outer loop
      vertex 0.309016 0.951056 -1.5
      vertex -0.809016 0.587785 -6.5
      vertex 0.309016 0.951056 -6.5
    endloop
  endfacet
  facet normal -0.809016 -0.587786 0
    outer loop
      vertex 1 0 -6.5
      vertex 0.309016 0.951056 -1.5
      vertex 0.309016 0.951056 -6.5
    endloop
  endfacet
  facet normal -0.809016 -0.587786 0
    outer loop
      vertex 0.309016 0.951056 -1.5
      vertex 1 0 -6.5
      vertex 1 0 -1.5
    endloop
  endfacet
  facet normal 1 -0 0
    outer loop
      vertex -0.809016 -0.587785 -1.5
      vertex -0.809016 0.587785 -6.5
      vertex -0.809016 0.587785 -1.5
    endloop
  endfacet
  facet normal 1 0 0
    outer loop
      vertex -0.809016 0.587785 -6.5
      vertex -0.809016 -0.587785 -1.5
      vertex -0.809016 -0.587785 -6.5
    endloop
  endfacet
  facet normal -0.809016 0.587786 0
    outer loop
      vertex 0.309016 -0.951056 -6.5
      vertex 1 0 -1.5
      vertex 1 0 -6.5
    endloop
  endfacet
  facet normal -0.809016 0.587786 0
    outer loop
      vertex 1 0 -1.5
      vertex 0.309016 -0.951056 -6.5
      vertex 0.309016 -0.951056 -1.5
    endloop
  endfacet
  facet normal 0.65486 0.75575 -0
    outer loop
      vertex 2.94439 1.89224 12.5
      vertex 1.45395 3.18371 17.5
      vertex 2.94439 1.89224 17.5
    endloop
  endfacet
  facet normal 0.65486 0.75575 0
    outer loop
      vertex 1.45395 3.18371 17.5
      vertex 2.94439 1.89224 12.5
      vertex 1.45395 3.18371 12.5
    endloop
  endfacet
  facet normal 0.959493 0.281732 0
    outer loop
      vertex 3.5 0 17.5
      vertex 2.94439 1.89224 12.5
      vertex 2.94439 1.89224 17.5
    endloop
  endfacet
  facet normal 0.959493 0.281732 0
    outer loop
      vertex 2.94439 1.89224 12.5
      vertex 3.5 0 17.5
      vertex 3.5 0 12.5
    endloop
  endfacet
  facet normal 0.142314 0.989822 -0
    outer loop
      vertex 1.45395 3.18371 12.5
      vertex -0.498101 3.46437 17.5
      vertex 1.45395 3.18371 17.5
    endloop
  endfacet
  facet normal 0.142314 0.989822 0
    outer loop
      vertex -0.498101 3.46437 17.5
      vertex 1.45395 3.18371 12.5
      vertex -0.498101 3.46437 12.5
    endloop
  endfacet
  facet normal -0.415415 0.909632 0
    outer loop
      vertex -0.498101 3.46437 12.5
      vertex -2.29201 2.64512 17.5
      vertex -0.498101 3.46437 17.5
    endloop
  endfacet
  facet normal -0.415415 0.909632 0
    outer loop
      vertex -2.29201 2.64512 17.5
      vertex -0.498101 3.46437 12.5
      vertex -2.29201 2.64512 12.5
    endloop
  endfacet
  facet normal -1 0 0
    outer loop
      vertex -3.35822 -0.986063 12.5
      vertex -3.35822 0.986063 17.5
      vertex -3.35822 0.986063 12.5
    endloop
  endfacet
  facet normal -1 -0 0
    outer loop
      vertex -3.35822 0.986063 17.5
      vertex -3.35822 -0.986063 12.5
      vertex -3.35822 -0.986063 17.5
    endloop
  endfacet
  facet normal 0.142314 -0.989822 0
    outer loop
      vertex -0.498101 -3.46437 12.5
      vertex 1.45395 -3.18371 17.5
      vertex -0.498101 -3.46437 17.5
    endloop
  endfacet
  facet normal 0.142314 -0.989822 0
    outer loop
      vertex 1.45395 -3.18371 17.5
      vertex -0.498101 -3.46437 12.5
      vertex 1.45395 -3.18371 12.5
    endloop
  endfacet
  facet normal 0.65486 -0.75575 0
    outer loop
      vertex 1.45395 -3.18371 12.5
      vertex 2.94439 -1.89224 17.5
      vertex 1.45395 -3.18371 17.5
    endloop
  endfacet
  facet normal 0.65486 -0.75575 0
    outer loop
      vertex 2.94439 -1.89224 17.5
      vertex 1.45395 -3.18371 12.5
      vertex 2.94439 -1.89224 12.5
    endloop
  endfacet
  facet normal -0.841254 -0.54064 0
    outer loop
      vertex -2.29201 -2.64512 12.5
      vertex -3.35822 -0.986063 17.5
      vertex -3.35822 -0.986063 12.5
    endloop
  endfacet
  facet normal -0.841254 -0.54064 0
    outer loop
      vertex -3.35822 -0.986063 17.5
      vertex -2.29201 -2.64512 12.5
      vertex -2.29201 -2.64512 17.5
    endloop
  endfacet
  facet normal 0.959493 -0.281732 0
    outer loop
      vertex 2.94439 -1.89224 17.5
      vertex 3.5 0 12.5
      vertex 3.5 0 17.5
    endloop
  endfacet
  facet normal 0.959493 -0.281732 0
    outer loop
      vertex 3.5 0 12.5
      vertex 2.94439 -1.89224 17.5
      vertex 2.94439 -1.89224 12.5
    endloop
  endfacet
  facet normal -0.841254 0.54064 0
    outer loop
      vertex -3.35822 0.986063 12.5
      vertex -2.29201 2.64512 17.5
      vertex -2.29201 2.64512 12.5
    endloop
  endfacet
  facet normal -0.841254 0.54064 0
    outer loop
      vertex -2.29201 2.64512 17.5
      vertex -3.35822 0.986063 12.5
      vertex -3.35822 0.986063 17.5
    endloop
  endfacet
  facet normal 0 0 1
    outer loop
      vertex 2.94439 1.89224 17.5
      vertex 2.94439 -1.89224 17.5
      vertex 3.5 0 17.5
    endloop
  endfacet
  facet normal 0 0 1
    outer loop
      vertex 1.45395 3.18371 17.5
      vertex 2.94439 -1.89224 17.5
      vertex 2.94439 1.89224 17.5
    endloop
  endfacet
  facet normal 0 0 1
    outer loop
      vertex 1.45395 3.18371 17.5
      vertex 1.45395 -3.18371 17.5
      vertex 2.94439 -1.89224 17.5
    endloop
  endfacet
  facet normal 0 0 1
    outer loop
      vertex -0.498101 3.46437 17.5
      vertex 1.45395 -3.18371 17.5
      vertex 1.45395 3.18371 17.5
    endloop
  endfacet
  facet normal 0 0 1
    outer loop
      vertex -0.498101 3.46437 17.5
      vertex -0.498101 -3.46437 17.5
      vertex 1.45395 -3.18371 17.5
    endloop
  endfacet
  facet normal -0 0 1
    outer loop
      vertex -2.29201 2.64512 17.5
      vertex -0.498101 -3.46437 17.5
      vertex -0.498101 3.46437 17.5
    endloop
  endfacet
  facet normal 0 0 1
    outer loop
      vertex -2.29201 2.64512 17.5
      vertex -2.29201 -2.64512 17.5
      vertex -0.498101 -3.46437 17.5
    endloop
  endfacet
  facet normal -0 0 1
    outer loop
      vertex -3.35822 0.986063 17.5
      vertex -2.29201 -2.64512 17.5
      vertex -2.29201 2.64512 17.5
    endloop
  endfacet
  facet normal 0 0 1
    outer loop
      vertex -2.29201 -2.64512 17.5
      vertex -3.35822 0.986063 17.5
      vertex -3.35822 -0.986063 17.5
    endloop
  endfacet
  facet normal -0.415415 -0.909632 0
    outer loop
      vertex -2.29201 -2.64512 12.5
      vertex -0.498101 -3.46437 17.5
      vertex -2.29201 -2.64512 17.5
    endloop
  endfacet
  facet normal -0.415415 -0.909632 -0
    outer loop
      vertex -0.498101 -3.46437 17.5
      vertex -2.29201 -2.64512 12.5
      vertex -0.498101 -3.46437 12.5
    endloop
  endfacet
  facet normal 0.65486 0.75575 -0
    outer loop
      vertex 2.94439 1.89224 -11.5
      vertex 1.45395 3.18371 -6.5
      vertex 2.94439 1.89224 -6.5
    endloop
  endfacet
  facet normal 0.65486 0.75575 0
    outer loop
      vertex 1.45395 3.18371 -6.5
      vertex 2.94439 1.89224 -11.5
      vertex 1.45395 3.18371 -11.5
    endloop
  endfacet
  facet normal 0.959493 0.281732 0
    outer loop
      vertex 3.5 0 -6.5
      vertex 2.94439 1.89224 -11.5
      vertex 2.94439 1.89224 -6.5
    endloop
  endfacet
  facet normal 0.959493 0.281732 0
    outer loop
      vertex 2.94439 1.89224 -11.5
      vertex 3.5 0 -6.5
      vertex 3.5 0 -11.5
    endloop
  endfacet
  facet normal 0.142314 0.989822 -0
    outer loop
      vertex 1.45395 3.18371 -11.5
      vertex -0.498101 3.46437 -6.5
      vertex 1.45395 3.18371 -6.5
    endloop
  endfacet
  facet normal 0.142314 0.989822 0
    outer loop
      vertex -0.498101 3.46437 -6.5
      vertex 1.45395 3.18371 -11.5
      vertex -0.498101 3.46437 -11.5
    endloop
  endfacet
  facet normal -0.415415 0.909632 0
    outer loop
      vertex -0.498101 3.46437 -11.5
      vertex -2.29201 2.64512 -6.5
      vertex -0.498101 3.46437 -6.5
    endloop
  endfacet
  facet normal -0.415415 0.909632 0
    outer loop
      vertex -2.29201 2.64512 -6.5
      vertex -0.498101 3.46437 -11.5
      vertex -2.29201 2.64512 -11.5
    endloop
  endfacet
  facet normal -1 0 0
    outer loop
      vertex -3.35822 -0.986063 -11.5
      vertex -3.35822 0.986063 -6.5
      vertex -3.35822 0.986063 -11.5
    endloop
  endfacet
  facet normal -1 -0 0
    outer loop
      vertex -3.35822 0.986063 -6.5
      vertex -3.35822 -0.986063 -11.5
      vertex -3.35822 -0.986063 -6.5
    endloop
  endfacet
  facet normal 0.142314 -0.989822 0
    outer loop
      vertex -0.498101 -3.46437 -11.5
      vertex 1.45395 -3.18371 -6.5
      vertex -0.498101 -3.46437 -6.5
    endloop
  endfacet
  facet normal 0.142314 -0.989822 0
    outer loop
      vertex 1.45395 -3.18371 -6.5
      vertex -0.498101 -3.46437 -11.5
      vertex 1.45395 -3.18371 -11.5
    endloop
  endfacet
  facet normal 0.65486 -0.75575 0
    outer loop
      vertex 1.45395 -3.18371 -11.5
      vertex 2.94439 -1.89224 -6.5
      vertex 1.45395 -3.18371 -6.5
    endloop
  endfacet
  facet normal 0.65486 -0.75575 0
    outer loop
      vertex 2.94439 -1.89224 -6.5
      vertex 1.45395 -3.18371 -11.5
      vertex 2.94439 -1.89224 -11.5
    endloop
  endfacet
  facet normal -0.841254 -0.54064 0
    outer loop
      vertex -2.29201 -2.64512 -11.5
      vertex -3.35822 -0.986063 -6.5
      vertex -3.35822 -0.986063 -11.5
    endloop
  endfacet
  facet normal -0.841254 -0.54064 0
    outer loop
      vertex -3.35822 -0.986063 -6.5
      vertex -2.29201 -2.64512 -11.5
      vertex -2.29201 -2.64512 -6.5
    endloop
  endfacet
  facet normal 0.959493 -0.281732 0
    outer loop
      vertex 2.94439 -1.89224 -6.5
      vertex 3.5 0 -11.5
      vertex 3.5 0 -6.5
    endloop
  endfacet
  facet normal 0.959493 -0.281732 0
    outer loop
      vertex 3.5 0 -11.5
      vertex 2.94439 -1.89224 -6.5
      vertex 2.94439 -1.89224 -11.5
    endloop
  endfacet
  facet normal -0.841254 0.54064 0
    outer loop
      vertex -3.35822 0.986063 -11.5
      vertex -2.29201 2.64512 -6.5
      vertex -2.29201 2.64512 -11.5
    endloop
  endfacet
  facet normal -0.841254 0.54064 0
    outer loop
      vertex -2.29201 2.64512 -6.5
      vertex -3.35822 0.986063 -11.5
      vertex -3.35822 0.986063 -6.5
    endloop
  endfacet
  facet normal 0 0 -1
    outer loop
      vertex 2.94439 -1.89224 -11.5
      vertex 2.94439 1.89224 -11.5
      vertex 3.5 0 -11.5
    endloop
  endfacet
  facet normal 0 0 -1
    outer loop
      vertex 1.45395 -3.18371 -11.5
      vertex 2.94439 1.89224 -11.5
      vertex 2.94439 -1.89224 -11.5
    endloop
  endfacet
  facet normal 0 0 -1
    outer loop
      vertex 1.45395 -3.18371 -11.5
      vertex 1.45395 3.18371 -11.5
      vertex 2.94439 1.89224 -11.5
    endloop
  endfacet
  facet normal 0 0 -1
    outer loop
      vertex -0.498101 -3.46437 -11.5
      vertex 1.45395 3.18371 -11.5
      vertex 1.45395 -3.18371 -11.5
    endloop
  endfacet
  facet normal 0 0 -1
    outer loop
      vertex -0.498101 -3.46437 -11.5
      vertex -0.498101 3.46437 -11.5
      vertex 1.45395 3.18371 -11.5
    endloop
  endfacet
  facet normal 0 0 -1
    outer loop
      vertex -2.29201 -2.64512 -11.5
      vertex -0.498101 3.46437 -11.5
      vertex -0.498101 -3.46437 -11.5
    endloop
  endfacet
  facet normal 0 0 -1
    outer loop
      vertex -2.29201 -2.64512 -11.5
      vertex -2.29201 2.64512 -11.5
      vertex -0.498101 3.46437 -11.5
    endloop
  endfacet
  facet normal 0 0 -1
    outer loop
      vertex -3.35822 -0.986063 -11.5
      vertex -2.29201 2.64512 -11.5
      vertex -2.29201 -2.64512 -11.5
    endloop
  endfacet
  facet normal 0 0 -1
    outer loop
      vertex -2.29201 2.64512 -11.5
      vertex -3.35822 -0.986063 -11.5
      vertex -3.35822 0.986063 -11.5
    endloop
  endfacet
  facet normal -0.415415 -0.909632 0
    outer loop
      vertex -2.29201 -2.64512 -11.5
      vertex -0.498101 -3.46437 -6.5
      vertex -2.29201 -2.64512 -6.5
    endloop
  endfacet
  facet normal -0.415415 -0.909632 -0
    outer loop
      vertex -0.498101 -3.46437 -6.5
      vertex -2.29201 -2.64512 -11.5
      vertex -0.498101 -3.46437 -11.5
    endloop
  endfacet
endsolid OpenSCAD_Model
