solid OpenSCAD_Model
  facet normal 1 -0 0
    outer loop
      vertex 20 -20 10
      vertex 20 20 -10
      vertex 20 20 10
    endloop
  endfacet
  facet normal 1 0 0
    outer loop
      vertex 20 20 -10
      vertex 20 -20 10
      vertex 20 -20 -10
    endloop
  endfacet
  facet normal -0 0 1
    outer loop
      vertex -20 20 10
      vertex 20 -20 10
      vertex 20 20 10
    endloop
  endfacet
  facet normal 0 0 1
    outer loop
      vertex 20 -20 10
      vertex -20 20 10
      vertex -20 -20 10
    endloop
  endfacet
  facet normal 0 0 -1
    outer loop
      vertex 20 -20 -10
      vertex 18 -18 -10
      vertex 20 20 -10
    endloop
  endfacet
  facet normal 0 0 -1
    outer loop
      vertex 20 -20 -10
      vertex -18 -18 -10
      vertex 18 -18 -10
    endloop
  endfacet
  facet normal -0 0 -1
    outer loop
      vertex -18 -18 -10
      vertex -20 -20 -10
      vertex -18 18 -10
    endloop
  endfacet
  facet normal 0 0 -1
    outer loop
      vertex -20 -20 -10
      vertex -18 -18 -10
      vertex 20 -20 -10
    endloop
  endfacet
  facet normal 0 0 -1
    outer loop
      vertex 18 18 -10
      vertex 20 20 -10
      vertex 18 -18 -10
    endloop
  endfacet
  facet normal 0 0 -1
    outer loop
      vertex -18 18 -10
      vertex 20 20 -10
      vertex 18 18 -10
    endloop
  endfacet
  facet normal 0 0 -1
    outer loop
      vertex -18 18 -10
      vertex -20 20 -10
      vertex 20 20 -10
    endloop
  endfacet
  facet normal 0 0 -1
    outer loop
      vertex -20 20 -10
      vertex -18 18 -10
      vertex -20 -20 -10
    endloop
  endfacet
  facet normal -1 0 0
    outer loop
      vertex -20 -20 -10
      vertex -20 20 10
      vertex -20 20 -10
    endloop
  endfacet
  facet normal -1 -0 0
    outer loop
      vertex -20 20 10
      vertex -20 -20 -10
      vertex -20 -20 10
    endloop
  endfacet
  facet normal 0 1 -0
    outer loop
      vertex 20 20 -10
      vertex -20 20 10
      vertex 20 20 10
    endloop
  endfacet
  facet normal 0 1 0
    outer loop
      vertex -20 20 10
      vertex 20 20 -10
      vertex -20 20 -10
    endloop
  endfacet
  facet normal 0 -1 0
    outer loop
      vertex -20 -20 -10
      vertex 20 -20 10
      vertex -20 -20 10
    endloop
  endfacet
  facet normal 0 -1 -0
    outer loop
      vertex 20 -20 10
      vertex -20 -20 -10
      vertex 20 -20 -10
    endloop
  endfacet
  facet normal -1 0 0
    outer loop
      vertex 18 -18 -10
      vertex 18 18 6
      vertex 18 18 -10
    endloop
  endfacet
  facet normal -1 -0 0
    outer loop
      vertex 18 18 6
      vertex 18 -18 -10
      vertex 18 -18 6
    endloop
  endfacet
  facet normal 0 0 -1
    outer loop
      vertex -18 -18 6
      vertex 18 18 6
      vertex 18 -18 6
    endloop
  endfacet
  facet normal -0 0 -1
    outer loop
      vertex 18 18 6
      vertex -18 -18 6
      vertex -18 18 6
    endloop
  endfacet
  facet normal 1 -0 0
    outer loop
      vertex -18 -18 6
      vertex -18 18 -10
      vertex -18 18 6
    endloop
  endfacet
  facet normal 1 0 0
    outer loop
      vertex -18 18 -10
      vertex -18 -18 6
      vertex -18 -18 -10
    endloop
  endfacet
  facet normal 0 -1 0
    outer loop
      vertex -18 18 -10
      vertex 18 18 6
      vertex -18 18 6
    endloop
  endfacet
  facet normal 0 -1 -0
    outer loop
      vertex 18 18 6
      vertex -18 18 -10
      vertex 18 18 -10
    endloop
  endfacet
  facet normal 0 1 -0
    outer loop
      vertex 18 -18 -10
      vertex -18 -18 6
      vertex 18 -18 6
    endloop
  endfacet
  facet normal 0 1 0
    outer loop
      vertex -18 -18 6
      vertex 18 -18 -10
      vertex -18 -18 -10
    endloop
  endfacet
endsolid OpenSCAD_Model
