solid OpenSCAD_Model
  facet normal 0.447214 -0.894427 0
    outer loop
      vertex 3.35411 3.35411 -20
      vertex 8.15993 5.75702 20
      vertex 3.35411 3.35411 20
    endloop
  endfacet
  facet normal 0.447214 -0.894427 0
    outer loop
      vertex 8.15993 5.75702 20
      vertex 3.35411 3.35411 -20
      vertex 8.15993 5.75702 -20
    endloop
  endfacet
  facet normal 0 0 -1
    outer loop
      vertex 3.35411 3.35411 -20
      vertex 8.09017 5.87785 -20
      vertex 8.15993 5.75702 -20
    endloop
  endfacet
  facet normal -0 0 -1
    outer loop
      vertex 8.09017 5.87785 -20
      vertex 3.35411 3.35411 -20
      vertex 6.69131 7.43145 -20
    endloop
  endfacet
  facet normal -0 0 -1
    outer loop
      vertex 6.69131 7.43145 -20
      vertex 3.35411 3.35411 -20
      vertex 5.7388 8.12349 -20
    endloop
  endfacet
  facet normal 0 0 -1
    outer loop
      vertex -3.35411 3.35411 -20
      vertex -6.69131 7.43145 -20
      vertex -5.7388 8.12349 -20
    endloop
  endfacet
  facet normal 0 0 -1
    outer loop
      vertex -3.35411 3.35411 -20
      vertex -8.09017 5.87785 -20
      vertex -6.69131 7.43145 -20
    endloop
  endfacet
  facet normal 0 -0 -1
    outer loop
      vertex -8.09017 5.87785 -20
      vertex -3.35411 3.35411 -20
      vertex -8.15993 5.75702 -20
    endloop
  endfacet
  facet normal 0 0 -1
    outer loop
      vertex -6.69131 -7.43145 -20
      vertex -3.35411 -3.35411 -20
      vertex -5.7388 -8.12349 -20
    endloop
  endfacet
  facet normal 0 0 -1
    outer loop
      vertex -8.09017 -5.87785 -20
      vertex -3.35411 -3.35411 -20
      vertex -6.69131 -7.43145 -20
    endloop
  endfacet
  facet normal 0 0 -1
    outer loop
      vertex -3.35411 -3.35411 -20
      vertex -8.09017 -5.87785 -20
      vertex -8.15993 -5.75702 -20
    endloop
  endfacet
  facet normal 0 0 -1
    outer loop
      vertex 3.35411 -3.35411 -20
      vertex 8.09017 -5.87785 -20
      vertex 6.69131 -7.43145 -20
    endloop
  endfacet
  facet normal 0 0 -1
    outer loop
      vertex 3.35411 -3.35411 -20
      vertex 6.69131 -7.43145 -20
      vertex 5.7388 -8.12349 -20
    endloop
  endfacet
  facet normal 0 0 -1
    outer loop
      vertex 8.09017 -5.87785 -20
      vertex 3.35411 -3.35411 -20
      vertex 8.15993 -5.75702 -20
    endloop
  endfacet
  facet normal 0.447214 0.894427 -0
    outer loop
      vertex 8.15993 -5.75702 -20
      vertex 3.35411 -3.35411 20
      vertex 8.15993 -5.75702 20
    endloop
  endfacet
  facet normal 0.447214 0.894427 0
    outer loop
      vertex 3.35411 -3.35411 20
      vertex 8.15993 -5.75702 -20
      vertex 3.35411 -3.35411 -20
    endloop
  endfacet
  facet normal -0 0 1
    outer loop
      vertex -6.69131 7.43145 20
      vertex -3.35411 3.35411 20
      vertex -5.7388 8.12349 20
    endloop
  endfacet
  facet normal -0 0 1
    outer loop
      vertex -8.09017 5.87785 20
      vertex -3.35411 3.35411 20
      vertex -6.69131 7.43145 20
    endloop
  endfacet
  facet normal 0 0 1
    outer loop
      vertex -3.35411 3.35411 20
      vertex -8.09017 5.87785 20
      vertex -8.15993 5.75702 20
    endloop
  endfacet
  facet normal 0 0 1
    outer loop
      vertex 3.35411 3.35411 20
      vertex 8.09017 5.87785 20
      vertex 6.69131 7.43145 20
    endloop
  endfacet
  facet normal 0 0 1
    outer loop
      vertex 3.35411 3.35411 20
      vertex 6.69131 7.43145 20
      vertex 5.7388 8.12349 20
    endloop
  endfacet
  facet normal 0 0 1
    outer loop
      vertex 8.09017 5.87785 20
      vertex 3.35411 3.35411 20
      vertex 8.15993 5.75702 20
    endloop
  endfacet
  facet normal 0 0 1
    outer loop
      vertex 3.35411 -3.35411 20
      vertex 8.09017 -5.87785 20
      vertex 8.15993 -5.75702 20
    endloop
  endfacet
  facet normal 0 0 1
    outer loop
      vertex 8.09017 -5.87785 20
      vertex 3.35411 -3.35411 20
      vertex 6.69131 -7.43145 20
    endloop
  endfacet
  facet normal 0 0 1
    outer loop
      vertex 6.69131 -7.43145 20
      vertex 3.35411 -3.35411 20
      vertex 5.7388 -8.12349 20
    endloop
  endfacet
  facet normal 0 0 1
    outer loop
      vertex -3.35411 -3.35411 20
      vertex -6.69131 -7.43145 20
      vertex -5.7388 -8.12349 20
    endloop
  endfacet
  facet normal 0 0 1
    outer loop
      vertex -3.35411 -3.35411 20
      vertex -8.09017 -5.87785 20
      vertex -6.69131 -7.43145 20
    endloop
  endfacet
  facet normal 0 -0 1
    outer loop
      vertex -8.09017 -5.87785 20
      vertex -3.35411 -3.35411 20
      vertex -8.15993 -5.75702 20
    endloop
  endfacet
  facet normal 0.894427 0.447214 0
    outer loop
      vertex -3.35411 3.35411 20
      vertex -5.7388 8.12349 -20
      vertex -5.7388 8.12349 20
    endloop
  endfacet
  facet normal 0.894427 0.447214 0
    outer loop
      vertex -5.7388 8.12349 -20
      vertex -3.35411 3.35411 20
      vertex -3.35411 3.35411 -20
    endloop
  endfacet
  facet normal -0.894427 0.447214 0
    outer loop
      vertex 3.35411 3.35411 -20
      vertex 5.7388 8.12349 20
      vertex 5.7388 8.12349 -20
    endloop
  endfacet
  facet normal -0.894427 0.447214 0
    outer loop
      vertex 5.7388 8.12349 20
      vertex 3.35411 3.35411 -20
      vertex 3.35411 3.35411 20
    endloop
  endfacet
  facet normal -0.447214 0.894427 0
    outer loop
      vertex -3.35411 -3.35411 -20
      vertex -8.15993 -5.75702 20
      vertex -3.35411 -3.35411 20
    endloop
  endfacet
  facet normal -0.447214 0.894427 0
    outer loop
      vertex -8.15993 -5.75702 20
      vertex -3.35411 -3.35411 -20
      vertex -8.15993 -5.75702 -20
    endloop
  endfacet
  facet normal -0.447214 -0.894427 0
    outer loop
      vertex -8.15993 5.75702 -20
      vertex -3.35411 3.35411 20
      vertex -8.15993 5.75702 20
    endloop
  endfacet
  facet normal -0.447214 -0.894427 -0
    outer loop
      vertex -3.35411 3.35411 20
      vertex -8.15993 5.75702 -20
      vertex -3.35411 3.35411 -20
    endloop
  endfacet
  facet normal -0.894427 -0.447214 0
    outer loop
      vertex 5.7388 -8.12349 -20
      vertex 3.35411 -3.35411 20
      vertex 3.35411 -3.35411 -20
    endloop
  endfacet
  facet normal -0.894427 -0.447214 0
    outer loop
      vertex 3.35411 -3.35411 20
      vertex 5.7388 -8.12349 -20
      vertex 5.7388 -8.12349 20
    endloop
  endfacet
  facet normal 0.894427 -0.447214 0
    outer loop
      vertex -5.7388 -8.12349 20
      vertex -3.35411 -3.35411 -20
      vertex -3.35411 -3.35411 20
    endloop
  endfacet
  facet normal 0.894427 -0.447214 0
    outer loop
      vertex -3.35411 -3.35411 -20
      vertex -5.7388 -8.12349 20
      vertex -5.7388 -8.12349 -20
    endloop
  endfacet
  facet normal -0.743147 -0.669129 0
    outer loop
      vertex -6.69131 -7.43145 -20
      vertex -8.09017 -5.87785 20
      vertex -8.09017 -5.87785 -20
    endloop
  endfacet
  facet normal -0.743147 -0.669129 0
    outer loop
      vertex -8.09017 -5.87785 20
      vertex -6.69131 -7.43145 -20
      vertex -6.69131 -7.43145 20
    endloop
  endfacet
  facet normal 0.866029 0.499993 0
    outer loop
      vertex 8.15993 5.75702 20
      vertex 8.09017 5.87785 -20
      vertex 8.09017 5.87785 20
    endloop
  endfacet
  facet normal 0.866029 0.499993 0
    outer loop
      vertex 8.09017 5.87785 -20
      vertex 8.15993 5.75702 20
      vertex 8.15993 5.75702 -20
    endloop
  endfacet
  facet normal 0.587786 -0.809017 0
    outer loop
      vertex 5.7388 -8.12349 -20
      vertex 6.69131 -7.43145 20
      vertex 5.7388 -8.12349 20
    endloop
  endfacet
  facet normal 0.587786 -0.809017 0
    outer loop
      vertex 6.69131 -7.43145 20
      vertex 5.7388 -8.12349 -20
      vertex 6.69131 -7.43145 -20
    endloop
  endfacet
  facet normal 0.743147 -0.669129 0
    outer loop
      vertex 6.69131 -7.43145 20
      vertex 8.09017 -5.87785 -20
      vertex 8.09017 -5.87785 20
    endloop
  endfacet
  facet normal 0.743147 -0.669129 0
    outer loop
      vertex 8.09017 -5.87785 -20
      vertex 6.69131 -7.43145 20
      vertex 6.69131 -7.43145 -20
    endloop
  endfacet
  facet normal 0.743147 0.669129 0
    outer loop
      vertex 8.09017 5.87785 20
      vertex 6.69131 7.43145 -20
      vertex 6.69131 7.43145 20
    endloop
  endfacet
  facet normal 0.743147 0.669129 0
    outer loop
      vertex 6.69131 7.43145 -20
      vertex 8.09017 5.87785 20
      vertex 8.09017 5.87785 -20
    endloop
  endfacet
  facet normal -0.587786 -0.809017 0
    outer loop
      vertex -6.69131 -7.43145 -20
      vertex -5.7388 -8.12349 20
      vertex -6.69131 -7.43145 20
    endloop
  endfacet
  facet normal -0.587786 -0.809017 -0
    outer loop
      vertex -5.7388 -8.12349 20
      vertex -6.69131 -7.43145 -20
      vertex -5.7388 -8.12349 -20
    endloop
  endfacet
  facet normal -0.743147 0.669129 0
    outer loop
      vertex -8.09017 5.87785 -20
      vertex -6.69131 7.43145 20
      vertex -6.69131 7.43145 -20
    endloop
  endfacet
  facet normal -0.743147 0.669129 0
    outer loop
      vertex -6.69131 7.43145 20
      vertex -8.09017 5.87785 -20
      vertex -8.09017 5.87785 20
    endloop
  endfacet
  facet normal -0.866029 -0.499993 0
    outer loop
      vertex -8.09017 -5.87785 -20
      vertex -8.15993 -5.75702 20
      vertex -8.15993 -5.75702 -20
    endloop
  endfacet
  facet normal -0.866029 -0.499993 0
    outer loop
      vertex -8.15993 -5.75702 20
      vertex -8.09017 -5.87785 -20
      vertex -8.09017 -5.87785 20
    endloop
  endfacet
  facet normal -0.866029 0.499993 0
    outer loop
      vertex -8.15993 5.75702 -20
      vertex -8.09017 5.87785 20
      vertex -8.09017 5.87785 -20
    endloop
  endfacet
  facet normal -0.866029 0.499993 0
    outer loop
      vertex -8.09017 5.87785 20
      vertex -8.15993 5.75702 -20
      vertex -8.15993 5.75702 20
    endloop
  endfacet
  facet normal 0.866029 -0.499993 0
    outer loop
      vertex 8.09017 -5.87785 20
      vertex 8.15993 -5.75702 -20
      vertex 8.15993 -5.75702 20
    endloop
  endfacet
  facet normal 0.866029 -0.499993 0
    outer loop
      vertex 8.15993 -5.75702 -20
      vertex 8.09017 -5.87785 20
      vertex 8.09017 -5.87785 -20
    endloop
  endfacet
  facet normal 0.587786 0.809017 -0
    outer loop
      vertex 6.69131 7.43145 -20
      vertex 5.7388 8.12349 20
      vertex 6.69131 7.43145 20
    endloop
  endfacet
  facet normal 0.587786 0.809017 0
    outer loop
      vertex 5.7388 8.12349 20
      vertex 6.69131 7.43145 -20
      vertex 5.7388 8.12349 -20
    endloop
  endfacet
  facet normal -0.587786 0.809017 0
    outer loop
      vertex -5.7388 8.12349 -20
      vertex -6.69131 7.43145 20
      vertex -5.7388 8.12349 20
    endloop
  endfacet
  facet normal -0.587786 0.809017 0
    outer loop
      vertex -6.69131 7.43145 20
      vertex -5.7388 8.12349 -20
      vertex -6.69131 7.43145 -20
    endloop
  endfacet
  facet normal -0.309015 -0.951057 0
    outer loop
      vertex 5.45314 -0.881678 -22.5
      vertex 7.13019 -1.42658 -18.125
      vertex 5.45314 -0.881678 -18.125
    endloop
  endfacet
  facet normal -0.309015 -0.951057 -0
    outer loop
      vertex 7.13019 -1.42658 -18.125
      vertex 5.45314 -0.881678 -22.5
      vertex 7.13019 -1.42658 -22.5
    endloop
  endfacet
  facet normal -0.309015 0.951057 0
    outer loop
      vertex 7.13019 1.42658 -22.5
      vertex 5.45314 0.881678 -18.125
      vertex 7.13019 1.42658 -18.125
    endloop
  endfacet
  facet normal -0.309015 0.951057 0
    outer loop
      vertex 5.45314 0.881678 -18.125
      vertex 7.13019 1.42658 -22.5
      vertex 5.45314 0.881678 -22.5
    endloop
  endfacet
  facet normal 0.809015 0.587789 0
    outer loop
      vertex 8.16667 0 -18.125
      vertex 7.13019 1.42658 -22.5
      vertex 7.13019 1.42658 -18.125
    endloop
  endfacet
  facet normal 0.809015 0.587789 0
    outer loop
      vertex 7.13019 1.42658 -22.5
      vertex 8.16667 0 -18.125
      vertex 8.16667 0 -22.5
    endloop
  endfacet
  facet normal -1 0 0
    outer loop
      vertex 5.45314 -0.881678 -22.5
      vertex 5.45314 0.881678 -18.125
      vertex 5.45314 0.881678 -22.5
    endloop
  endfacet
  facet normal -1 -0 0
    outer loop
      vertex 5.45314 0.881678 -18.125
      vertex 5.45314 -0.881678 -22.5
      vertex 5.45314 -0.881678 -18.125
    endloop
  endfacet
  facet normal 0.809015 -0.587789 0
    outer loop
      vertex 7.13019 -1.42658 -18.125
      vertex 8.16667 0 -22.5
      vertex 8.16667 0 -18.125
    endloop
  endfacet
  facet normal 0.809015 -0.587789 0
    outer loop
      vertex 8.16667 0 -22.5
      vertex 7.13019 -1.42658 -18.125
      vertex 7.13019 -1.42658 -22.5
    endloop
  endfacet
  facet normal 0 0 -1
    outer loop
      vertex 7.13019 -1.42658 -22.5
      vertex 7.13019 1.42658 -22.5
      vertex 8.16667 0 -22.5
    endloop
  endfacet
  facet normal 0 0 -1
    outer loop
      vertex 5.45314 -0.881678 -22.5
      vertex 7.13019 1.42658 -22.5
      vertex 7.13019 -1.42658 -22.5
    endloop
  endfacet
  facet normal 0 0 -1
    outer loop
      vertex 7.13019 1.42658 -22.5
      vertex 5.45314 -0.881678 -22.5
      vertex 5.45314 0.881678 -22.5
    endloop
  endfacet
  facet normal -0.923879 -0.382684 0
    outer loop
      vertex 5.07568 -1.59099 -18.125
      vertex 4.41667 0 -16.875
      vertex 4.41667 0 -18.125
    endloop
  endfacet
  facet normal -0.923879 -0.382684 0
    outer loop
      vertex 4.41667 0 -16.875
      vertex 5.07568 -1.59099 -18.125
      vertex 5.07568 -1.59099 -16.875
    endloop
  endfacet
  facet normal 0.382684 0.923879 -0
    outer loop
      vertex 8.25766 1.59099 -18.125
      vertex 6.66667 2.25 -16.875
      vertex 8.25766 1.59099 -16.875
    endloop
  endfacet
  facet normal 0.382684 0.923879 0
    outer loop
      vertex 6.66667 2.25 -16.875
      vertex 8.25766 1.59099 -18.125
      vertex 6.66667 2.25 -18.125
    endloop
  endfacet
  facet normal 0.923879 0.382684 0
    outer loop
      vertex 8.91667 0 -16.875
      vertex 8.25766 1.59099 -18.125
      vertex 8.25766 1.59099 -16.875
    endloop
  endfacet
  facet normal 0.923879 0.382684 0
    outer loop
      vertex 8.25766 1.59099 -18.125
      vertex 8.91667 0 -16.875
      vertex 8.91667 0 -18.125
    endloop
  endfacet
  facet normal 0.923879 -0.382684 0
    outer loop
      vertex 8.25766 -1.59099 -16.875
      vertex 8.91667 0 -18.125
      vertex 8.91667 0 -16.875
    endloop
  endfacet
  facet normal 0.923879 -0.382684 0
    outer loop
      vertex 8.91667 0 -18.125
      vertex 8.25766 -1.59099 -16.875
      vertex 8.25766 -1.59099 -18.125
    endloop
  endfacet
  facet normal -0.382684 -0.923879 0
    outer loop
      vertex 5.07568 -1.59099 -18.125
      vertex 6.66667 -2.25 -16.875
      vertex 5.07568 -1.59099 -16.875
    endloop
  endfacet
  facet normal -0.382684 -0.923879 -0
    outer loop
      vertex 6.66667 -2.25 -16.875
      vertex 5.07568 -1.59099 -18.125
      vertex 6.66667 -2.25 -18.125
    endloop
  endfacet
  facet normal -0.923879 0.382684 0
    outer loop
      vertex 4.41667 0 -18.125
      vertex 5.07568 1.59099 -16.875
      vertex 5.07568 1.59099 -18.125
    endloop
  endfacet
  facet normal -0.923879 0.382684 0
    outer loop
      vertex 5.07568 1.59099 -16.875
      vertex 4.41667 0 -18.125
      vertex 4.41667 0 -16.875
    endloop
  endfacet
  facet normal 0.382684 -0.923879 0
    outer loop
      vertex 6.66667 -2.25 -18.125
      vertex 8.25766 -1.59099 -16.875
      vertex 6.66667 -2.25 -16.875
    endloop
  endfacet
  facet normal 0.382684 -0.923879 0
    outer loop
      vertex 8.25766 -1.59099 -16.875
      vertex 6.66667 -2.25 -18.125
      vertex 8.25766 -1.59099 -18.125
    endloop
  endfacet
  facet normal 0 0 1
    outer loop
      vertex 8.25766 1.59099 -16.875
      vertex 8.25766 -1.59099 -16.875
      vertex 8.91667 0 -16.875
    endloop
  endfacet
  facet normal 0 0 1
    outer loop
      vertex 6.66667 2.25 -16.875
      vertex 8.25766 -1.59099 -16.875
      vertex 8.25766 1.59099 -16.875
    endloop
  endfacet
  facet normal 0 0 1
    outer loop
      vertex 6.66667 2.25 -16.875
      vertex 6.66667 -2.25 -16.875
      vertex 8.25766 -1.59099 -16.875
    endloop
  endfacet
  facet normal -0 0 1
    outer loop
      vertex 5.07568 1.59099 -16.875
      vertex 6.66667 -2.25 -16.875
      vertex 6.66667 2.25 -16.875
    endloop
  endfacet
  facet normal 0 0 1
    outer loop
      vertex 5.07568 1.59099 -16.875
      vertex 5.07568 -1.59099 -16.875
      vertex 6.66667 -2.25 -16.875
    endloop
  endfacet
  facet normal 0 -0 1
    outer loop
      vertex 5.07568 -1.59099 -16.875
      vertex 5.07568 1.59099 -16.875
      vertex 4.41667 0 -16.875
    endloop
  endfacet
  facet normal -0.382684 0.923879 0
    outer loop
      vertex 6.66667 2.25 -18.125
      vertex 5.07568 1.59099 -16.875
      vertex 6.66667 2.25 -16.875
    endloop
  endfacet
  facet normal -0.382684 0.923879 0
    outer loop
      vertex 5.07568 1.59099 -16.875
      vertex 6.66667 2.25 -18.125
      vertex 5.07568 1.59099 -18.125
    endloop
  endfacet
  facet normal 0 0 -1
    outer loop
      vertex 8.16667 0 -18.125
      vertex 8.91667 0 -18.125
      vertex 8.25766 -1.59099 -18.125
    endloop
  endfacet
  facet normal 0 0 -1
    outer loop
      vertex 8.91667 0 -18.125
      vertex 8.16667 0 -18.125
      vertex 8.25766 1.59099 -18.125
    endloop
  endfacet
  facet normal 0 0 -1
    outer loop
      vertex 8.25766 -1.59099 -18.125
      vertex 7.13019 -1.42658 -18.125
      vertex 8.16667 0 -18.125
    endloop
  endfacet
  facet normal 0 0 -1
    outer loop
      vertex 6.66667 -2.25 -18.125
      vertex 7.13019 -1.42658 -18.125
      vertex 8.25766 -1.59099 -18.125
    endloop
  endfacet
  facet normal 0 0 -1
    outer loop
      vertex 6.66667 -2.25 -18.125
      vertex 5.45314 -0.881678 -18.125
      vertex 7.13019 -1.42658 -18.125
    endloop
  endfacet
  facet normal 0 0 -1
    outer loop
      vertex 4.41667 0 -18.125
      vertex 5.45314 -0.881678 -18.125
      vertex 5.07568 -1.59099 -18.125
    endloop
  endfacet
  facet normal 0 0 -1
    outer loop
      vertex 5.07568 -1.59099 -18.125
      vertex 5.45314 -0.881678 -18.125
      vertex 6.66667 -2.25 -18.125
    endloop
  endfacet
  facet normal 0 0 -1
    outer loop
      vertex 7.13019 1.42658 -18.125
      vertex 8.25766 1.59099 -18.125
      vertex 8.16667 0 -18.125
    endloop
  endfacet
  facet normal 0 0 -1
    outer loop
      vertex 7.13019 1.42658 -18.125
      vertex 6.66667 2.25 -18.125
      vertex 8.25766 1.59099 -18.125
    endloop
  endfacet
  facet normal 0 0 -1
    outer loop
      vertex 5.45314 0.881678 -18.125
      vertex 6.66667 2.25 -18.125
      vertex 7.13019 1.42658 -18.125
    endloop
  endfacet
  facet normal 0 0 -1
    outer loop
      vertex 5.45314 0.881678 -18.125
      vertex 5.07568 1.59099 -18.125
      vertex 6.66667 2.25 -18.125
    endloop
  endfacet
  facet normal 0 0 -1
    outer loop
      vertex 5.45314 -0.881678 -18.125
      vertex 4.41667 0 -18.125
      vertex 5.45314 0.881678 -18.125
    endloop
  endfacet
  facet normal -0 0 -1
    outer loop
      vertex 5.45314 0.881678 -18.125
      vertex 4.41667 0 -18.125
      vertex 5.07568 1.59099 -18.125
    endloop
  endfacet
  facet normal -0.309015 -0.951057 0
    outer loop
      vertex -7.88019 -0.881678 -22.5
      vertex -6.20314 -1.42658 -18.125
      vertex -7.88019 -0.881678 -18.125
    endloop
  endfacet
  facet normal -0.309015 -0.951057 -0
    outer loop
      vertex -6.20314 -1.42658 -18.125
      vertex -7.88019 -0.881678 -22.5
      vertex -6.20314 -1.42658 -22.5
    endloop
  endfacet
  facet normal -0.309015 0.951057 0
    outer loop
      vertex -6.20314 1.42658 -22.5
      vertex -7.88019 0.881678 -18.125
      vertex -6.20314 1.42658 -18.125
    endloop
  endfacet
  facet normal -0.309015 0.951057 0
    outer loop
      vertex -7.88019 0.881678 -18.125
      vertex -6.20314 1.42658 -22.5
      vertex -7.88019 0.881678 -22.5
    endloop
  endfacet
  facet normal 0.809017 0.587785 0
    outer loop
      vertex -5.16667 0 -18.125
      vertex -6.20314 1.42658 -22.5
      vertex -6.20314 1.42658 -18.125
    endloop
  endfacet
  facet normal 0.809017 0.587785 0
    outer loop
      vertex -6.20314 1.42658 -22.5
      vertex -5.16667 0 -18.125
      vertex -5.16667 0 -22.5
    endloop
  endfacet
  facet normal -1 0 0
    outer loop
      vertex -7.88019 -0.881678 -22.5
      vertex -7.88019 0.881678 -18.125
      vertex -7.88019 0.881678 -22.5
    endloop
  endfacet
  facet normal -1 -0 0
    outer loop
      vertex -7.88019 0.881678 -18.125
      vertex -7.88019 -0.881678 -22.5
      vertex -7.88019 -0.881678 -18.125
    endloop
  endfacet
  facet normal 0.809017 -0.587785 0
    outer loop
      vertex -6.20314 -1.42658 -18.125
      vertex -5.16667 0 -22.5
      vertex -5.16667 0 -18.125
    endloop
  endfacet
  facet normal 0.809017 -0.587785 0
    outer loop
      vertex -5.16667 0 -22.5
      vertex -6.20314 -1.42658 -18.125
      vertex -6.20314 -1.42658 -22.5
    endloop
  endfacet
  facet normal 0 0 -1
    outer loop
      vertex -6.20314 -1.42658 -22.5
      vertex -6.20314 1.42658 -22.5
      vertex -5.16667 0 -22.5
    endloop
  endfacet
  facet normal 0 0 -1
    outer loop
      vertex -7.88019 -0.881678 -22.5
      vertex -6.20314 1.42658 -22.5
      vertex -6.20314 -1.42658 -22.5
    endloop
  endfacet
  facet normal 0 0 -1
    outer loop
      vertex -6.20314 1.42658 -22.5
      vertex -7.88019 -0.881678 -22.5
      vertex -7.88019 0.881678 -22.5
    endloop
  endfacet
  facet normal -0.923879 -0.382684 0
    outer loop
      vertex -8.25766 -1.59099 -18.125
      vertex -8.91667 0 -16.875
      vertex -8.91667 0 -18.125
    endloop
  endfacet
  facet normal -0.923879 -0.382684 0
    outer loop
      vertex -8.91667 0 -16.875
      vertex -8.25766 -1.59099 -18.125
      vertex -8.25766 -1.59099 -16.875
    endloop
  endfacet
  facet normal 0.382684 0.923879 -0
    outer loop
      vertex -5.07568 1.59099 -18.125
      vertex -6.66667 2.25 -16.875
      vertex -5.07568 1.59099 -16.875
    endloop
  endfacet
  facet normal 0.382684 0.923879 0
    outer loop
      vertex -6.66667 2.25 -16.875
      vertex -5.07568 1.59099 -18.125
      vertex -6.66667 2.25 -18.125
    endloop
  endfacet
  facet normal 0.923879 0.382684 0
    outer loop
      vertex -4.41667 0 -16.875
      vertex -5.07568 1.59099 -18.125
      vertex -5.07568 1.59099 -16.875
    endloop
  endfacet
  facet normal 0.923879 0.382684 0
    outer loop
      vertex -5.07568 1.59099 -18.125
      vertex -4.41667 0 -16.875
      vertex -4.41667 0 -18.125
    endloop
  endfacet
  facet normal 0.923879 -0.382684 0
    outer loop
      vertex -5.07568 -1.59099 -16.875
      vertex -4.41667 0 -18.125
      vertex -4.41667 0 -16.875
    endloop
  endfacet
  facet normal 0.923879 -0.382684 0
    outer loop
      vertex -4.41667 0 -18.125
      vertex -5.07568 -1.59099 -16.875
      vertex -5.07568 -1.59099 -18.125
    endloop
  endfacet
  facet normal -0.382684 -0.923879 0
    outer loop
      vertex -8.25766 -1.59099 -18.125
      vertex -6.66667 -2.25 -16.875
      vertex -8.25766 -1.59099 -16.875
    endloop
  endfacet
  facet normal -0.382684 -0.923879 -0
    outer loop
      vertex -6.66667 -2.25 -16.875
      vertex -8.25766 -1.59099 -18.125
      vertex -6.66667 -2.25 -18.125
    endloop
  endfacet
  facet normal -0.923879 0.382684 0
    outer loop
      vertex -8.91667 0 -18.125
      vertex -8.25766 1.59099 -16.875
      vertex -8.25766 1.59099 -18.125
    endloop
  endfacet
  facet normal -0.923879 0.382684 0
    outer loop
      vertex -8.25766 1.59099 -16.875
      vertex -8.91667 0 -18.125
      vertex -8.91667 0 -16.875
    endloop
  endfacet
  facet normal 0.382684 -0.923879 0
    outer loop
      vertex -6.66667 -2.25 -18.125
      vertex -5.07568 -1.59099 -16.875
      vertex -6.66667 -2.25 -16.875
    endloop
  endfacet
  facet normal 0.382684 -0.923879 0
    outer loop
      vertex -5.07568 -1.59099 -16.875
      vertex -6.66667 -2.25 -18.125
      vertex -5.07568 -1.59099 -18.125
    endloop
  endfacet
  facet normal 0 0 1
    outer loop
      vertex -5.07568 1.59099 -16.875
      vertex -5.07568 -1.59099 -16.875
      vertex -4.41667 0 -16.875
    endloop
  endfacet
  facet normal 0 0 1
    outer loop
      vertex -6.66667 2.25 -16.875
      vertex -5.07568 -1.59099 -16.875
      vertex -5.07568 1.59099 -16.875
    endloop
  endfacet
  facet normal 0 0 1
    outer loop
      vertex -6.66667 2.25 -16.875
      vertex -6.66667 -2.25 -16.875
      vertex -5.07568 -1.59099 -16.875
    endloop
  endfacet
  facet normal -0 0 1
    outer loop
      vertex -8.25766 1.59099 -16.875
      vertex -6.66667 -2.25 -16.875
      vertex -6.66667 2.25 -16.875
    endloop
  endfacet
  facet normal 0 0 1
    outer loop
      vertex -8.25766 1.59099 -16.875
      vertex -8.25766 -1.59099 -16.875
      vertex -6.66667 -2.25 -16.875
    endloop
  endfacet
  facet normal 0 -0 1
    outer loop
      vertex -8.25766 -1.59099 -16.875
      vertex -8.25766 1.59099 -16.875
      vertex -8.91667 0 -16.875
    endloop
  endfacet
  facet normal -0.382684 0.923879 0
    outer loop
      vertex -6.66667 2.25 -18.125
      vertex -8.25766 1.59099 -16.875
      vertex -6.66667 2.25 -16.875
    endloop
  endfacet
  facet normal -0.382684 0.923879 0
    outer loop
      vertex -8.25766 1.59099 -16.875
      vertex -6.66667 2.25 -18.125
      vertex -8.25766 1.59099 -18.125
    endloop
  endfacet
  facet normal 0 0 -1
    outer loop
      vertex -5.16667 0 -18.125
      vertex -4.41667 0 -18.125
      vertex -5.07568 -1.59099 -18.125
    endloop
  endfacet
  facet normal 0 0 -1
    outer loop
      vertex -4.41667 0 -18.125
      vertex -5.16667 0 -18.125
      vertex -5.07568 1.59099 -18.125
    endloop
  endfacet
  facet normal 0 0 -1
    outer loop
      vertex -5.07568 -1.59099 -18.125
      vertex -6.20314 -1.42658 -18.125
      vertex -5.16667 0 -18.125
    endloop
  endfacet
  facet normal 0 0 -1
    outer loop
      vertex -6.66667 -2.25 -18.125
      vertex -6.20314 -1.42658 -18.125
      vertex -5.07568 -1.59099 -18.125
    endloop
  endfacet
  facet normal 0 0 -1
    outer loop
      vertex -6.66667 -2.25 -18.125
      vertex -7.88019 -0.881678 -18.125
      vertex -6.20314 -1.42658 -18.125
    endloop
  endfacet
  facet normal 0 0 -1
    outer loop
      vertex -8.91667 0 -18.125
      vertex -7.88019 -0.881678 -18.125
      vertex -8.25766 -1.59099 -18.125
    endloop
  endfacet
  facet normal 0 0 -1
    outer loop
      vertex -8.25766 -1.59099 -18.125
      vertex -7.88019 -0.881678 -18.125
      vertex -6.66667 -2.25 -18.125
    endloop
  endfacet
  facet normal 0 0 -1
    outer loop
      vertex -6.20314 1.42658 -18.125
      vertex -5.07568 1.59099 -18.125
      vertex -5.16667 0 -18.125
    endloop
  endfacet
  facet normal 0 0 -1
    outer loop
      vertex -6.20314 1.42658 -18.125
      vertex -6.66667 2.25 -18.125
      vertex -5.07568 1.59099 -18.125
    endloop
  endfacet
  facet normal 0 0 -1
    outer loop
      vertex -7.88019 0.881678 -18.125
      vertex -6.66667 2.25 -18.125
      vertex -6.20314 1.42658 -18.125
    endloop
  endfacet
  facet normal 0 0 -1
    outer loop
      vertex -7.88019 0.881678 -18.125
      vertex -8.25766 1.59099 -18.125
      vertex -6.66667 2.25 -18.125
    endloop
  endfacet
  facet normal 0 0 -1
    outer loop
      vertex -7.88019 -0.881678 -18.125
      vertex -8.91667 0 -18.125
      vertex -7.88019 0.881678 -18.125
    endloop
  endfacet
  facet normal -0 0 -1
    outer loop
      vertex -7.88019 0.881678 -18.125
      vertex -8.91667 0 -18.125
      vertex -8.25766 1.59099 -18.125
    endloop
  endfacet
  facet normal -0.309015 -0.951057 0
    outer loop
      vertex 5.45314 -0.881678 17.5
      vertex 7.13019 -1.42658 21.875
      vertex 5.45314 -0.881678 21.875
    endloop
  endfacet
  facet normal -0.309015 -0.951057 -0
    outer loop
      vertex 7.13019 -1.42658 21.875
      vertex 5.45314 -0.881678 17.5
      vertex 7.13019 -1.42658 17.5
    endloop
  endfacet
  facet normal -0.309015 0.951057 0
    outer loop
      vertex 7.13019 1.42658 17.5
      vertex 5.45314 0.881678 21.875
      vertex 7.13019 1.42658 21.875
    endloop
  endfacet
  facet normal -0.309015 0.951057 0
    outer loop
      vertex 5.45314 0.881678 21.875
      vertex 7.13019 1.42658 17.5
      vertex 5.45314 0.881678 17.5
    endloop
  endfacet
  facet normal 0.809015 0.587789 0
    outer loop
      vertex 8.16667 0 21.875
      vertex 7.13019 1.42658 17.5
      vertex 7.13019 1.42658 21.875
    endloop
  endfacet
  facet normal 0.809015 0.587789 0
    outer loop
      vertex 7.13019 1.42658 17.5
      vertex 8.16667 0 21.875
      vertex 8.16667 0 17.5
    endloop
  endfacet
  facet normal -1 0 0
    outer loop
      vertex 5.45314 -0.881678 17.5
      vertex 5.45314 0.881678 21.875
      vertex 5.45314 0.881678 17.5
    endloop
  endfacet
  facet normal -1 -0 0
    outer loop
      vertex 5.45314 0.881678 21.875
      vertex 5.45314 -0.881678 17.5
      vertex 5.45314 -0.881678 21.875
    endloop
  endfacet
  facet normal 0.809015 -0.587789 0
    outer loop
      vertex 7.13019 -1.42658 21.875
      vertex 8.16667 0 17.5
      vertex 8.16667 0 21.875
    endloop
  endfacet
  facet normal 0.809015 -0.587789 0
    outer loop
      vertex 8.16667 0 17.5
      vertex 7.13019 -1.42658 21.875
      vertex 7.13019 -1.42658 17.5
    endloop
  endfacet
  facet normal 0 0 -1
    outer loop
      vertex 7.13019 -1.42658 17.5
      vertex 7.13019 1.42658 17.5
      vertex 8.16667 0 17.5
    endloop
  endfacet
  facet normal 0 0 -1
    outer loop
      vertex 5.45314 -0.881678 17.5
      vertex 7.13019 1.42658 17.5
      vertex 7.13019 -1.42658 17.5
    endloop
  endfacet
  facet normal 0 0 -1
    outer loop
      vertex 7.13019 1.42658 17.5
      vertex 5.45314 -0.881678 17.5
      vertex 5.45314 0.881678 17.5
    endloop
  endfacet
  facet normal -0.923879 -0.382684 0
    outer loop
      vertex 5.07568 -1.59099 21.875
      vertex 4.41667 0 23.125
      vertex 4.41667 0 21.875
    endloop
  endfacet
  facet normal -0.923879 -0.382684 0
    outer loop
      vertex 4.41667 0 23.125
      vertex 5.07568 -1.59099 21.875
      vertex 5.07568 -1.59099 23.125
    endloop
  endfacet
  facet normal 0.382684 0.923879 -0
    outer loop
      vertex 8.25766 1.59099 21.875
      vertex 6.66667 2.25 23.125
      vertex 8.25766 1.59099 23.125
    endloop
  endfacet
  facet normal 0.382684 0.923879 0
    outer loop
      vertex 6.66667 2.25 23.125
      vertex 8.25766 1.59099 21.875
      vertex 6.66667 2.25 21.875
    endloop
  endfacet
  facet normal 0.923879 0.382684 0
    outer loop
      vertex 8.91667 0 23.125
      vertex 8.25766 1.59099 21.875
      vertex 8.25766 1.59099 23.125
    endloop
  endfacet
  facet normal 0.923879 0.382684 0
    outer loop
      vertex 8.25766 1.59099 21.875
      vertex 8.91667 0 23.125
      vertex 8.91667 0 21.875
    endloop
  endfacet
  facet normal 0.923879 -0.382684 0
    outer loop
      vertex 8.25766 -1.59099 23.125
      vertex 8.91667 0 21.875
      vertex 8.91667 0 23.125
    endloop
  endfacet
  facet normal 0.923879 -0.382684 0
    outer loop
      vertex 8.91667 0 21.875
      vertex 8.25766 -1.59099 23.125
      vertex 8.25766 -1.59099 21.875
    endloop
  endfacet
  facet normal -0.382684 -0.923879 0
    outer loop
      vertex 5.07568 -1.59099 21.875
      vertex 6.66667 -2.25 23.125
      vertex 5.07568 -1.59099 23.125
    endloop
  endfacet
  facet normal -0.382684 -0.923879 -0
    outer loop
      vertex 6.66667 -2.25 23.125
      vertex 5.07568 -1.59099 21.875
      vertex 6.66667 -2.25 21.875
    endloop
  endfacet
  facet normal -0.923879 0.382684 0
    outer loop
      vertex 4.41667 0 21.875
      vertex 5.07568 1.59099 23.125
      vertex 5.07568 1.59099 21.875
    endloop
  endfacet
  facet normal -0.923879 0.382684 0
    outer loop
      vertex 5.07568 1.59099 23.125
      vertex 4.41667 0 21.875
      vertex 4.41667 0 23.125
    endloop
  endfacet
  facet normal 0.382684 -0.923879 0
    outer loop
      vertex 6.66667 -2.25 21.875
      vertex 8.25766 -1.59099 23.125
      vertex 6.66667 -2.25 23.125
    endloop
  endfacet
  facet normal 0.382684 -0.923879 0
    outer loop
      vertex 8.25766 -1.59099 23.125
      vertex 6.66667 -2.25 21.875
      vertex 8.25766 -1.59099 21.875
    endloop
  endfacet
  facet normal 0 0 1
    outer loop
      vertex 8.25766 1.59099 23.125
      vertex 8.25766 -1.59099 23.125
      vertex 8.91667 0 23.125
    endloop
  endfacet
  facet normal 0 0 1
    outer loop
      vertex 6.66667 2.25 23.125
      vertex 8.25766 -1.59099 23.125
      vertex 8.25766 1.59099 23.125
    endloop
  endfacet
  facet normal 0 0 1
    outer loop
      vertex 6.66667 2.25 23.125
      vertex 6.66667 -2.25 23.125
      vertex 8.25766 -1.59099 23.125
    endloop
  endfacet
  facet normal -0 0 1
    outer loop
      vertex 5.07568 1.59099 23.125
      vertex 6.66667 -2.25 23.125
      vertex 6.66667 2.25 23.125
    endloop
  endfacet
  facet normal 0 0 1
    outer loop
      vertex 5.07568 1.59099 23.125
      vertex 5.07568 -1.59099 23.125
      vertex 6.66667 -2.25 23.125
    endloop
  endfacet
  facet normal 0 -0 1
    outer loop
      vertex 5.07568 -1.59099 23.125
      vertex 5.07568 1.59099 23.125
      vertex 4.41667 0 23.125
    endloop
  endfacet
  facet normal -0.382684 0.923879 0
    outer loop
      vertex 6.66667 2.25 21.875
      vertex 5.07568 1.59099 23.125
      vertex 6.66667 2.25 23.125
    endloop
  endfacet
  facet normal -0.382684 0.923879 0
    outer loop
      vertex 5.07568 1.59099 23.125
      vertex 6.66667 2.25 21.875
      vertex 5.07568 1.59099 21.875
    endloop
  endfacet
  facet normal 0 0 -1
    outer loop
      vertex 8.16667 0 21.875
      vertex 8.91667 0 21.875
      vertex 8.25766 -1.59099 21.875
    endloop
  endfacet
  facet normal 0 0 -1
    outer loop
      vertex 8.91667 0 21.875
      vertex 8.16667 0 21.875
      vertex 8.25766 1.59099 21.875
    endloop
  endfacet
  facet normal 0 0 -1
    outer loop
      vertex 8.25766 -1.59099 21.875
      vertex 7.13019 -1.42658 21.875
      vertex 8.16667 0 21.875
    endloop
  endfacet
  facet normal 0 0 -1
    outer loop
      vertex 6.66667 -2.25 21.875
      vertex 7.13019 -1.42658 21.875
      vertex 8.25766 -1.59099 21.875
    endloop
  endfacet
  facet normal 0 0 -1
    outer loop
      vertex 6.66667 -2.25 21.875
      vertex 5.45314 -0.881678 21.875
      vertex 7.13019 -1.42658 21.875
    endloop
  endfacet
  facet normal 0 0 -1
    outer loop
      vertex 4.41667 0 21.875
      vertex 5.45314 -0.881678 21.875
      vertex 5.07568 -1.59099 21.875
    endloop
  endfacet
  facet normal 0 0 -1
    outer loop
      vertex 5.07568 -1.59099 21.875
      vertex 5.45314 -0.881678 21.875
      vertex 6.66667 -2.25 21.875
    endloop
  endfacet
  facet normal 0 0 -1
    outer loop
      vertex 7.13019 1.42658 21.875
      vertex 8.25766 1.59099 21.875
      vertex 8.16667 0 21.875
    endloop
  endfacet
  facet normal 0 0 -1
    outer loop
      vertex 7.13019 1.42658 21.875
      vertex 6.66667 2.25 21.875
      vertex 8.25766 1.59099 21.875
    endloop
  endfacet
  facet normal 0 0 -1
    outer loop
      vertex 5.45314 0.881678 21.875
      vertex 6.66667 2.25 21.875
      vertex 7.13019 1.42658 21.875
    endloop
  endfacet
  facet normal 0 0 -1
    outer loop
      vertex 5.45314 0.881678 21.875
      vertex 5.07568 1.59099 21.875
      vertex 6.66667 2.25 21.875
    endloop
  endfacet
  facet normal 0 0 -1
    outer loop
      vertex 5.45314 -0.881678 21.875
      vertex 4.41667 0 21.875
      vertex 5.45314 0.881678 21.875
    endloop
  endfacet
  facet normal -0 0 -1
    outer loop
      vertex 5.45314 0.881678 21.875
      vertex 4.41667 0 21.875
      vertex 5.07568 1.59099 21.875
    endloop
  endfacet
  facet normal -0.309015 -0.951057 0
    outer loop
      vertex -7.88019 -0.881678 17.5
      vertex -6.20314 -1.42658 21.875
      vertex -7.88019 -0.881678 21.875
    endloop
  endfacet
  facet normal -0.309015 -0.951057 -0
    outer loop
      vertex -6.20314 -1.42658 21.875
      vertex -7.88019 -0.881678 17.5
      vertex -6.20314 -1.42658 17.5
    endloop
  endfacet
  facet normal -0.309015 0.951057 0
    outer loop
      vertex -6.20314 1.42658 17.5
      vertex -7.88019 0.881678 21.875
      vertex -6.20314 1.42658 21.875
    endloop
  endfacet
  facet normal -0.309015 0.951057 0
    outer loop
      vertex -7.88019 0.881678 21.875
      vertex -6.20314 1.42658 17.5
      vertex -7.88019 0.881678 17.5
    endloop
  endfacet
  facet normal 0.809017 0.587785 0
    outer loop
      vertex -5.16667 0 21.875
      vertex -6.20314 1.42658 17.5
      vertex -6.20314 1.42658 21.875
    endloop
  endfacet
  facet normal 0.809017 0.587785 0
    outer loop
      vertex -6.20314 1.42658 17.5
      vertex -5.16667 0 21.875
      vertex -5.16667 0 17.5
    endloop
  endfacet
  facet normal -1 0 0
    outer loop
      vertex -7.88019 -0.881678 17.5
      vertex -7.88019 0.881678 21.875
      vertex -7.88019 0.881678 17.5
    endloop
  endfacet
  facet normal -1 -0 0
    outer loop
      vertex -7.88019 0.881678 21.875
      vertex -7.88019 -0.881678 17.5
      vertex -7.88019 -0.881678 21.875
    endloop
  endfacet
  facet normal 0.809017 -0.587785 0
    outer loop
      vertex -6.20314 -1.42658 21.875
      vertex -5.16667 0 17.5
      vertex -5.16667 0 21.875
    endloop
  endfacet
  facet normal 0.809017 -0.587785 0
    outer loop
      vertex -5.16667 0 17.5
      vertex -6.20314 -1.42658 21.875
      vertex -6.20314 -1.42658 17.5
    endloop
  endfacet
  facet normal 0 0 -1
    outer loop
      vertex -6.20314 -1.42658 17.5
      vertex -6.20314 1.42658 17.5
      vertex -5.16667 0 17.5
    endloop
  endfacet
  facet normal 0 0 -1
    outer loop
      vertex -7.88019 -0.881678 17.5
      vertex -6.20314 1.42658 17.5
      vertex -6.20314 -1.42658 17.5
    endloop
  endfacet
  facet normal 0 0 -1
    outer loop
      vertex -6.20314 1.42658 17.5
      vertex -7.88019 -0.881678 17.5
      vertex -7.88019 0.881678 17.5
    endloop
  endfacet
  facet normal -0.923879 -0.382684 0
    outer loop
      vertex -8.25766 -1.59099 21.875
      vertex -8.91667 0 23.125
      vertex -8.91667 0 21.875
    endloop
  endfacet
  facet normal -0.923879 -0.382684 0
    outer loop
      vertex -8.91667 0 23.125
      vertex -8.25766 -1.59099 21.875
      vertex -8.25766 -1.59099 23.125
    endloop
  endfacet
  facet normal 0.382684 0.923879 -0
    outer loop
      vertex -5.07568 1.59099 21.875
      vertex -6.66667 2.25 23.125
      vertex -5.07568 1.59099 23.125
    endloop
  endfacet
  facet normal 0.382684 0.923879 0
    outer loop
      vertex -6.66667 2.25 23.125
      vertex -5.07568 1.59099 21.875
      vertex -6.66667 2.25 21.875
    endloop
  endfacet
  facet normal 0.923879 0.382684 0
    outer loop
      vertex -4.41667 0 23.125
      vertex -5.07568 1.59099 21.875
      vertex -5.07568 1.59099 23.125
    endloop
  endfacet
  facet normal 0.923879 0.382684 0
    outer loop
      vertex -5.07568 1.59099 21.875
      vertex -4.41667 0 23.125
      vertex -4.41667 0 21.875
    endloop
  endfacet
  facet normal 0.923879 -0.382684 0
    outer loop
      vertex -5.07568 -1.59099 23.125
      vertex -4.41667 0 21.875
      vertex -4.41667 0 23.125
    endloop
  endfacet
  facet normal 0.923879 -0.382684 0
    outer loop
      vertex -4.41667 0 21.875
      vertex -5.07568 -1.59099 23.125
      vertex -5.07568 -1.59099 21.875
    endloop
  endfacet
  facet normal -0.382684 -0.923879 0
    outer loop
      vertex -8.25766 -1.59099 21.875
      vertex -6.66667 -2.25 23.125
      vertex -8.25766 -1.59099 23.125
    endloop
  endfacet
  facet normal -0.382684 -0.923879 -0
    outer loop
      vertex -6.66667 -2.25 23.125
      vertex -8.25766 -1.59099 21.875
      vertex -6.66667 -2.25 21.875
    endloop
  endfacet
  facet normal -0.923879 0.382684 0
    outer loop
      vertex -8.91667 0 21.875
      vertex -8.25766 1.59099 23.125
      vertex -8.25766 1.59099 21.875
    endloop
  endfacet
  facet normal -0.923879 0.382684 0
    outer loop
      vertex -8.25766 1.59099 23.125
      vertex -8.91667 0 21.875
      vertex -8.91667 0 23.125
    endloop
  endfacet
  facet normal 0.382684 -0.923879 0
    outer loop
      vertex -6.66667 -2.25 21.875
      vertex -5.07568 -1.59099 23.125
      vertex -6.66667 -2.25 23.125
    endloop
  endfacet
  facet normal 0.382684 -0.923879 0
    outer loop
      vertex -5.07568 -1.59099 23.125
      vertex -6.66667 -2.25 21.875
      vertex -5.07568 -1.59099 21.875
    endloop
  endfacet
  facet normal 0 0 1
    outer loop
      vertex -5.07568 1.59099 23.125
      vertex -5.07568 -1.59099 23.125
      vertex -4.41667 0 23.125
    endloop
  endfacet
  facet normal 0 0 1
    outer loop
      vertex -6.66667 2.25 23.125
      vertex -5.07568 -1.59099 23.125
      vertex -5.07568 1.59099 23.125
    endloop
  endfacet
  facet normal 0 0 1
    outer loop
      vertex -6.66667 2.25 23.125
      vertex -6.66667 -2.25 23.125
      vertex -5.07568 -1.59099 23.125
    endloop
  endfacet
  facet normal -0 0 1
    outer loop
      vertex -8.25766 1.59099 23.125
      vertex -6.66667 -2.25 23.125
      vertex -6.66667 2.25 23.125
    endloop
  endfacet
  facet normal 0 0 1
    outer loop
      vertex -8.25766 1.59099 23.125
      vertex -8.25766 -1.59099 23.125
      vertex -6.66667 -2.25 23.125
    endloop
  endfacet
  facet normal 0 -0 1
    outer loop
      vertex -8.25766 -1.59099 23.125
      vertex -8.25766 1.59099 23.125
      vertex -8.91667 0 23.125
    endloop
  endfacet
  facet normal -0.382684 0.923879 0
    outer loop
      vertex -6.66667 2.25 21.875
      vertex -8.25766 1.59099 23.125
      vertex -6.66667 2.25 23.125
    endloop
  endfacet
  facet normal -0.382684 0.923879 0
    outer loop
      vertex -8.25766 1.59099 23.125
      vertex -6.66667 2.25 21.875
      vertex -8.25766 1.59099 21.875
    endloop
  endfacet
  facet normal 0 0 -1
    outer loop
      vertex -5.16667 0 21.875
      vertex -4.41667 0 21.875
      vertex -5.07568 -1.59099 21.875
    endloop
  endfacet
  facet normal 0 0 -1
    outer loop
      vertex -4.41667 0 21.875
      vertex -5.16667 0 21.875
      vertex -5.07568 1.59099 21.875
    endloop
  endfacet
  facet normal 0 0 -1
    outer loop
      vertex -5.07568 -1.59099 21.875
      vertex -6.20314 -1.42658 21.875
      vertex -5.16667 0 21.875
    endloop
  endfacet
  facet normal 0 0 -1
    outer loop
      vertex -6.66667 -2.25 21.875
      vertex -6.20314 -1.42658 21.875
      vertex -5.07568 -1.59099 21.875
    endloop
  endfacet
  facet normal 0 0 -1
    outer loop
      vertex -6.66667 -2.25 21.875
      vertex -7.88019 -0.881678 21.875
      vertex -6.20314 -1.42658 21.875
    endloop
  endfacet
  facet normal 0 0 -1
    outer loop
      vertex -8.91667 0 21.875
      vertex -7.88019 -0.881678 21.875
      vertex -8.25766 -1.59099 21.875
    endloop
  endfacet
  facet normal 0 0 -1
    outer loop
      vertex -8.25766 -1.59099 21.875
      vertex -7.88019 -0.881678 21.875
      vertex -6.66667 -2.25 21.875
    endloop
  endfacet
  facet normal 0 0 -1
    outer loop
      vertex -6.20314 1.42658 21.875
      vertex -5.07568 1.59099 21.875
      vertex -5.16667 0 21.875
    endloop
  endfacet
  facet normal 0 0 -1
    outer loop
      vertex -6.20314 1.42658 21.875
      vertex -6.66667 2.25 21.875
      vertex -5.07568 1.59099 21.875
    endloop
  endfacet
  facet normal 0 0 -1
    outer loop
      vertex -7.88019 0.881678 21.875
      vertex -6.66667 2.25 21.875
      vertex -6.20314 1.42658 21.875
    endloop
  endfacet
  facet normal 0 0 -1
    outer loop
      vertex -7.88019 0.881678 21.875
      vertex -8.25766 1.59099 21.875
      vertex -6.66667 2.25 21.875
    endloop
  endfacet
  facet normal 0 0 -1
    outer loop
      vertex -7.88019 -0.881678 21.875
      vertex -8.91667 0 21.875
      vertex -7.88019 0.881678 21.875
    endloop
  endfacet
  facet normal -0 0 -1
    outer loop
      vertex -7.88019 0.881678 21.875
      vertex -8.91667 0 21.875
      vertex -8.25766 1.59099 21.875
    endloop
  endfacet
endsolid OpenSCAD_Model
