solid OpenSCAD_Model
  facet normal -0.309026 0 -0.951054
    outer loop
      vertex -29.809 -50 0.412214
      vertex -28.691 -20 0.0489426
      vertex -28.691 -50 0.0489426
    endloop
  endfacet
  facet normal -0.309026 0 -0.951054
    outer loop
      vertex -28.691 -20 0.0489426
      vertex -29.809 -50 0.412214
      vertex -29.809 -20 0.412214
    endloop
  endfacet
  facet normal -0.309032 0 0.951052
    outer loop
      vertex -29.809 -20 1.58778
      vertex -28.691 -50 1.95106
      vertex -28.691 -20 1.95106
    endloop
  endfacet
  facet normal -0.309032 0 0.951052
    outer loop
      vertex -28.691 -50 1.95106
      vertex -29.809 -20 1.58778
      vertex -29.809 -50 1.58778
    endloop
  endfacet
  facet normal 0.809011 -0 0.587793
    outer loop
      vertex -28.691 -50 1.95106
      vertex -28 -20 1
      vertex -28.691 -20 1.95106
    endloop
  endfacet
  facet normal 0.809011 0 0.587793
    outer loop
      vertex -28 -20 1
      vertex -28.691 -50 1.95106
      vertex -28 -50 1
    endloop
  endfacet
  facet normal -1 0 0
    outer loop
      vertex -29.809 -50 0.412214
      vertex -29.809 -20 1.58778
      vertex -29.809 -20 0.412214
    endloop
  endfacet
  facet normal -1 -0 0
    outer loop
      vertex -29.809 -20 1.58778
      vertex -29.809 -50 0.412214
      vertex -29.809 -50 1.58778
    endloop
  endfacet
  facet normal 0 -1 0
    outer loop
      vertex -29.809 -50 1.58778
      vertex -28 -50 1
      vertex -28.691 -50 1.95106
    endloop
  endfacet
  facet normal 0 -1 0
    outer loop
      vertex -29.809 -50 0.412214
      vertex -28 -50 1
      vertex -29.809 -50 1.58778
    endloop
  endfacet
  facet normal 0 -1 0
    outer loop
      vertex -28 -50 1
      vertex -29.809 -50 0.412214
      vertex -28.691 -50 0.0489426
    endloop
  endfacet
  facet normal 0.80901 0 -0.587794
    outer loop
      vertex -28 -50 1
      vertex -28.691 -20 0.0489426
      vertex -28 -20 1
    endloop
  endfacet
  facet normal 0.80901 0 -0.587794
    outer loop
      vertex -28.691 -20 0.0489426
      vertex -28 -50 1
      vertex -28.691 -50 0.0489426
    endloop
  endfacet
  facet normal 0 1 0
    outer loop
      vertex -28 -20 1
      vertex -29.809 -20 1.58778
      vertex -28.691 -20 1.95106
    endloop
  endfacet
  facet normal 0 1 0
    outer loop
      vertex -28 -20 1
      vertex -29.809 -20 0.412214
      vertex -29.809 -20 1.58778
    endloop
  endfacet
  facet normal -0 1 0
    outer loop
      vertex -29.809 -20 0.412214
      vertex -28 -20 1
      vertex -28.691 -20 0.0489426
    endloop
  endfacet
  facet normal -0.309026 0 -0.951054
    outer loop
      vertex 27.191 -50 0.412214
      vertex 28.309 -20 0.0489426
      vertex 28.309 -50 0.0489426
    endloop
  endfacet
  facet normal -0.309026 0 -0.951054
    outer loop
      vertex 28.309 -20 0.0489426
      vertex 27.191 -50 0.412214
      vertex 27.191 -20 0.412214
    endloop
  endfacet
  facet normal -0.309032 0 0.951052
    outer loop
      vertex 27.191 -20 1.58778
      vertex 28.309 -50 1.95106
      vertex 28.309 -20 1.95106
    endloop
  endfacet
  facet normal -0.309032 0 0.951052
    outer loop
      vertex 28.309 -50 1.95106
      vertex 27.191 -20 1.58778
      vertex 27.191 -50 1.58778
    endloop
  endfacet
  facet normal 0.809011 -0 0.587793
    outer loop
      vertex 28.309 -50 1.95106
      vertex 29 -20 1
      vertex 28.309 -20 1.95106
    endloop
  endfacet
  facet normal 0.809011 0 0.587793
    outer loop
      vertex 29 -20 1
      vertex 28.309 -50 1.95106
      vertex 29 -50 1
    endloop
  endfacet
  facet normal -1 0 0
    outer loop
      vertex 27.191 -50 0.412214
      vertex 27.191 -20 1.58778
      vertex 27.191 -20 0.412214
    endloop
  endfacet
  facet normal -1 -0 0
    outer loop
      vertex 27.191 -20 1.58778
      vertex 27.191 -50 0.412214
      vertex 27.191 -50 1.58778
    endloop
  endfacet
  facet normal 0 -1 0
    outer loop
      vertex 27.191 -50 1.58778
      vertex 29 -50 1
      vertex 28.309 -50 1.95106
    endloop
  endfacet
  facet normal 0 -1 0
    outer loop
      vertex 27.191 -50 0.412214
      vertex 29 -50 1
      vertex 27.191 -50 1.58778
    endloop
  endfacet
  facet normal 0 -1 0
    outer loop
      vertex 29 -50 1
      vertex 27.191 -50 0.412214
      vertex 28.309 -50 0.0489426
    endloop
  endfacet
  facet normal 0.80901 0 -0.587794
    outer loop
      vertex 29 -50 1
      vertex 28.309 -20 0.0489426
      vertex 29 -20 1
    endloop
  endfacet
  facet normal 0.80901 0 -0.587794
    outer loop
      vertex 28.309 -20 0.0489426
      vertex 29 -50 1
      vertex 28.309 -50 0.0489426
    endloop
  endfacet
  facet normal 0 1 0
    outer loop
      vertex 29 -20 1
      vertex 27.191 -20 1.58778
      vertex 28.309 -20 1.95106
    endloop
  endfacet
  facet normal 0 1 0
    outer loop
      vertex 29 -20 1
      vertex 27.191 -20 0.412214
      vertex 27.191 -20 1.58778
    endloop
  endfacet
  facet normal -0 1 0
    outer loop
      vertex 27.191 -20 0.412214
      vertex 29 -20 1
      vertex 28.309 -20 0.0489426
    endloop
  endfacet
  facet normal -0.309048 0 -0.951047
    outer loop
      vertex -29.809 -50 37.4122
      vertex -28.691 -20 37.0489
      vertex -28.691 -50 37.0489
    endloop
  endfacet
  facet normal -0.309048 0 -0.951047
    outer loop
      vertex -28.691 -20 37.0489
      vertex -29.809 -50 37.4122
      vertex -29.809 -20 37.4122
    endloop
  endfacet
  facet normal -0.309048 0 0.951047
    outer loop
      vertex -29.809 -20 38.5878
      vertex -28.691 -50 38.9511
      vertex -28.691 -20 38.9511
    endloop
  endfacet
  facet normal -0.309048 0 0.951047
    outer loop
      vertex -28.691 -50 38.9511
      vertex -29.809 -20 38.5878
      vertex -29.809 -50 38.5878
    endloop
  endfacet
  facet normal 0.809023 -0 0.587777
    outer loop
      vertex -28.691 -50 38.9511
      vertex -28 -20 38
      vertex -28.691 -20 38.9511
    endloop
  endfacet
  facet normal 0.809023 0 0.587777
    outer loop
      vertex -28 -20 38
      vertex -28.691 -50 38.9511
      vertex -28 -50 38
    endloop
  endfacet
  facet normal -1 0 0
    outer loop
      vertex -29.809 -50 37.4122
      vertex -29.809 -20 38.5878
      vertex -29.809 -20 37.4122
    endloop
  endfacet
  facet normal -1 -0 0
    outer loop
      vertex -29.809 -20 38.5878
      vertex -29.809 -50 37.4122
      vertex -29.809 -50 38.5878
    endloop
  endfacet
  facet normal 0 -1 0
    outer loop
      vertex -29.809 -50 38.5878
      vertex -28 -50 38
      vertex -28.691 -50 38.9511
    endloop
  endfacet
  facet normal 0 -1 0
    outer loop
      vertex -29.809 -50 37.4122
      vertex -28 -50 38
      vertex -29.809 -50 38.5878
    endloop
  endfacet
  facet normal 0 -1 0
    outer loop
      vertex -28 -50 38
      vertex -29.809 -50 37.4122
      vertex -28.691 -50 37.0489
    endloop
  endfacet
  facet normal 0.809023 0 -0.587777
    outer loop
      vertex -28 -50 38
      vertex -28.691 -20 37.0489
      vertex -28 -20 38
    endloop
  endfacet
  facet normal 0.809023 0 -0.587777
    outer loop
      vertex -28.691 -20 37.0489
      vertex -28 -50 38
      vertex -28.691 -50 37.0489
    endloop
  endfacet
  facet normal 0 1 0
    outer loop
      vertex -28 -20 38
      vertex -29.809 -20 38.5878
      vertex -28.691 -20 38.9511
    endloop
  endfacet
  facet normal 0 1 0
    outer loop
      vertex -28 -20 38
      vertex -29.809 -20 37.4122
      vertex -29.809 -20 38.5878
    endloop
  endfacet
  facet normal -0 1 0
    outer loop
      vertex -29.809 -20 37.4122
      vertex -28 -20 38
      vertex -28.691 -20 37.0489
    endloop
  endfacet
  facet normal -0.309048 0 -0.951047
    outer loop
      vertex 27.191 -50 37.4122
      vertex 28.309 -20 37.0489
      vertex 28.309 -50 37.0489
    endloop
  endfacet
  facet normal -0.309048 0 -0.951047
    outer loop
      vertex 28.309 -20 37.0489
      vertex 27.191 -50 37.4122
      vertex 27.191 -20 37.4122
    endloop
  endfacet
  facet normal -0.309048 0 0.951047
    outer loop
      vertex 27.191 -20 38.5878
      vertex 28.309 -50 38.9511
      vertex 28.309 -20 38.9511
    endloop
  endfacet
  facet normal -0.309048 0 0.951047
    outer loop
      vertex 28.309 -50 38.9511
      vertex 27.191 -20 38.5878
      vertex 27.191 -50 38.5878
    endloop
  endfacet
  facet normal 0.809023 -0 0.587777
    outer loop
      vertex 28.309 -50 38.9511
      vertex 29 -20 38
      vertex 28.309 -20 38.9511
    endloop
  endfacet
  facet normal 0.809023 0 0.587777
    outer loop
      vertex 29 -20 38
      vertex 28.309 -50 38.9511
      vertex 29 -50 38
    endloop
  endfacet
  facet normal -1 0 0
    outer loop
      vertex 27.191 -50 37.4122
      vertex 27.191 -20 38.5878
      vertex 27.191 -20 37.4122
    endloop
  endfacet
  facet normal -1 -0 0
    outer loop
      vertex 27.191 -20 38.5878
      vertex 27.191 -50 37.4122
      vertex 27.191 -50 38.5878
    endloop
  endfacet
  facet normal 0 -1 0
    outer loop
      vertex 27.191 -50 38.5878
      vertex 29 -50 38
      vertex 28.309 -50 38.9511
    endloop
  endfacet
  facet normal 0 -1 0
    outer loop
      vertex 27.191 -50 37.4122
      vertex 29 -50 38
      vertex 27.191 -50 38.5878
    endloop
  endfacet
  facet normal 0 -1 0
    outer loop
      vertex 29 -50 38
      vertex 27.191 -50 37.4122
      vertex 28.309 -50 37.0489
    endloop
  endfacet
  facet normal 0.809023 0 -0.587777
    outer loop
      vertex 29 -50 38
      vertex 28.309 -20 37.0489
      vertex 29 -20 38
    endloop
  endfacet
  facet normal 0.809023 0 -0.587777
    outer loop
      vertex 28.309 -20 37.0489
      vertex 29 -50 38
      vertex 28.309 -50 37.0489
    endloop
  endfacet
  facet normal 0 1 0
    outer loop
      vertex 29 -20 38
      vertex 27.191 -20 38.5878
      vertex 28.309 -20 38.9511
    endloop
  endfacet
  facet normal 0 1 0
    outer loop
      vertex 29 -20 38
      vertex 27.191 -20 37.4122
      vertex 27.191 -20 38.5878
    endloop
  endfacet
  facet normal -0 1 0
    outer loop
      vertex 27.191 -20 37.4122
      vertex 29 -20 38
      vertex 28.309 -20 37.0489
    endloop
  endfacet
  facet normal 1 -0 0
    outer loop
      vertex 0 -40 31
      vertex 0 0 29
      vertex 0 0 31
    endloop
  endfacet
  facet normal 1 0 0
    outer loop
      vertex 0 0 29
      vertex 0 -40 31
      vertex 0 -40 29
    endloop
  endfacet
  facet normal -0 0 1
    outer loop
      vertex -60 0 31
      vertex 0 -40 31
      vertex 0 0 31
    endloop
  endfacet
  facet normal 0 0 1
    outer loop
      vertex 0 -40 31
      vertex -60 0 31
      vertex -60 -40 31
    endloop
  endfacet
  facet normal 0 0 -1
    outer loop
      vertex -60 -40 29
      vertex 0 0 29
      vertex 0 -40 29
    endloop
  endfacet
  facet normal -0 0 -1
    outer loop
      vertex 0 0 29
      vertex -60 -40 29
      vertex -60 0 29
    endloop
  endfacet
  facet normal -1 0 0
    outer loop
      vertex -60 -40 29
      vertex -60 0 31
      vertex -60 0 29
    endloop
  endfacet
  facet normal -1 -0 0
    outer loop
      vertex -60 0 31
      vertex -60 -40 29
      vertex -60 -40 31
    endloop
  endfacet
  facet normal 0 1 -0
    outer loop
      vertex 0 0 29
      vertex -60 0 31
      vertex 0 0 31
    endloop
  endfacet
  facet normal 0 1 0
    outer loop
      vertex -60 0 31
      vertex 0 0 29
      vertex -60 0 29
    endloop
  endfacet
  facet normal 0 -1 0
    outer loop
      vertex -60 -40 29
      vertex 0 -40 31
      vertex -60 -40 31
    endloop
  endfacet
  facet normal 0 -1 -0
    outer loop
      vertex 0 -40 31
      vertex -60 -40 29
      vertex 0 -40 29
    endloop
  endfacet
  facet normal 1 0 0
    outer loop
      vertex 29 0.293892 15.4045
      vertex 29 0 14.5
      vertex 29 0.475528 14.8455
    endloop
  endfacet
  facet normal 1 -0 0
    outer loop
      vertex 29 -0.293893 15.4045
      vertex 29 0 14.5
      vertex 29 0.293892 15.4045
    endloop
  endfacet
  facet normal 1 0 0
    outer loop
      vertex 29 0 14.5
      vertex 29 -0.293893 15.4045
      vertex 29 -0.475529 14.8455
    endloop
  endfacet
  facet normal 0 0.951054 0.309026
    outer loop
      vertex 29 0.475528 14.8455
      vertex -29 0.293892 15.4045
      vertex 29 0.293892 15.4045
    endloop
  endfacet
  facet normal 0 0.951054 0.309026
    outer loop
      vertex -29 0.293892 15.4045
      vertex 29 0.475528 14.8455
      vertex -29 0.475528 14.8455
    endloop
  endfacet
  facet normal -0 0 1
    outer loop
      vertex -29 0.293892 15.4045
      vertex 29 -0.293893 15.4045
      vertex 29 0.293892 15.4045
    endloop
  endfacet
  facet normal 0 0 1
    outer loop
      vertex 29 -0.293893 15.4045
      vertex -29 0.293892 15.4045
      vertex -29 -0.293893 15.4045
    endloop
  endfacet
  facet normal 0 -0.951054 0.309026
    outer loop
      vertex -29 -0.475529 14.8455
      vertex 29 -0.293893 15.4045
      vertex -29 -0.293893 15.4045
    endloop
  endfacet
  facet normal 0 -0.951054 0.309026
    outer loop
      vertex 29 -0.293893 15.4045
      vertex -29 -0.475529 14.8455
      vertex 29 -0.475529 14.8455
    endloop
  endfacet
  facet normal -1 0 0
    outer loop
      vertex -29 0 14.5
      vertex -29 0.293892 15.4045
      vertex -29 0.475528 14.8455
    endloop
  endfacet
  facet normal -1 0 0
    outer loop
      vertex -29 0 14.5
      vertex -29 -0.293893 15.4045
      vertex -29 0.293892 15.4045
    endloop
  endfacet
  facet normal -1 0 -0
    outer loop
      vertex -29 -0.293893 15.4045
      vertex -29 0 14.5
      vertex -29 -0.475529 14.8455
    endloop
  endfacet
  facet normal 0 0.587795 -0.80901
    outer loop
      vertex -29 0 14.5
      vertex 29 0.475528 14.8455
      vertex 29 0 14.5
    endloop
  endfacet
  facet normal 0 0.587795 -0.80901
    outer loop
      vertex 29 0.475528 14.8455
      vertex -29 0 14.5
      vertex -29 0.475528 14.8455
    endloop
  endfacet
  facet normal 0 -0.587794 -0.809011
    outer loop
      vertex -29 -0.475529 14.8455
      vertex 29 0 14.5
      vertex 29 -0.475529 14.8455
    endloop
  endfacet
  facet normal -0 -0.587794 -0.809011
    outer loop
      vertex 29 0 14.5
      vertex -29 -0.475529 14.8455
      vertex -29 0 14.5
    endloop
  endfacet
  facet normal -0.308962 0 -0.951074
    outer loop
      vertex -0.404509 -77 14.7061
      vertex 0.154508 -19 14.5245
      vertex 0.154508 -77 14.5245
    endloop
  endfacet
  facet normal -0.308962 0 -0.951074
    outer loop
      vertex 0.154508 -19 14.5245
      vertex -0.404509 -77 14.7061
      vertex -0.404509 -19 14.7061
    endloop
  endfacet
  facet normal -0.308962 0 0.951074
    outer loop
      vertex -0.404509 -19 15.2939
      vertex 0.154508 -77 15.4755
      vertex 0.154508 -19 15.4755
    endloop
  endfacet
  facet normal -0.308962 0 0.951074
    outer loop
      vertex 0.154508 -77 15.4755
      vertex -0.404509 -19 15.2939
      vertex -0.404509 -77 15.2939
    endloop
  endfacet
  facet normal 0.809 -0 0.587809
    outer loop
      vertex 0.154508 -77 15.4755
      vertex 0.5 -19 15
      vertex 0.154508 -19 15.4755
    endloop
  endfacet
  facet normal 0.809 0 0.587809
    outer loop
      vertex 0.5 -19 15
      vertex 0.154508 -77 15.4755
      vertex 0.5 -77 15
    endloop
  endfacet
  facet normal -1 0 0
    outer loop
      vertex -0.404509 -77 14.7061
      vertex -0.404509 -19 15.2939
      vertex -0.404509 -19 14.7061
    endloop
  endfacet
  facet normal -1 -0 0
    outer loop
      vertex -0.404509 -19 15.2939
      vertex -0.404509 -77 14.7061
      vertex -0.404509 -77 15.2939
    endloop
  endfacet
  facet normal 0 -1 0
    outer loop
      vertex -0.404509 -77 15.2939
      vertex 0.5 -77 15
      vertex 0.154508 -77 15.4755
    endloop
  endfacet
  facet normal 0 -1 0
    outer loop
      vertex -0.404509 -77 14.7061
      vertex 0.5 -77 15
      vertex -0.404509 -77 15.2939
    endloop
  endfacet
  facet normal 0 -1 0
    outer loop
      vertex 0.5 -77 15
      vertex -0.404509 -77 14.7061
      vertex 0.154508 -77 14.5245
    endloop
  endfacet
  facet normal 0.809 0 -0.587809
    outer loop
      vertex 0.5 -77 15
      vertex 0.154508 -19 14.5245
      vertex 0.5 -19 15
    endloop
  endfacet
  facet normal 0.809 0 -0.587809
    outer loop
      vertex 0.154508 -19 14.5245
      vertex 0.5 -77 15
      vertex 0.154508 -77 14.5245
    endloop
  endfacet
  facet normal 0 1 0
    outer loop
      vertex 0.5 -19 15
      vertex -0.404509 -19 15.2939
      vertex 0.154508 -19 15.4755
    endloop
  endfacet
  facet normal 0 1 0
    outer loop
      vertex 0.5 -19 15
      vertex -0.404509 -19 14.7061
      vertex -0.404509 -19 15.2939
    endloop
  endfacet
  facet normal -0 1 0
    outer loop
      vertex -0.404509 -19 14.7061
      vertex 0.5 -19 15
      vertex 0.154508 -19 14.5245
    endloop
  endfacet
endsolid OpenSCAD_Model
