solid OpenSCAD_Model
  facet normal 0.831458 0.555587 0
    outer loop
      vertex 24.6194 21.9134 1
      vertex 23.5355 23.5355 -1
      vertex 23.5355 23.5355 1
    endloop
  endfacet
  facet normal 0.831458 0.555587 0
    outer loop
      vertex 23.5355 23.5355 -1
      vertex 24.6194 21.9134 1
      vertex 24.6194 21.9134 -1
    endloop
  endfacet
  facet normal -0.831458 -0.555587 0
    outer loop
      vertex -23.5355 -23.5355 -1
      vertex -24.6194 -21.9134 1
      vertex -24.6194 -21.9134 -1
    endloop
  endfacet
  facet normal -0.831458 -0.555587 0
    outer loop
      vertex -24.6194 -21.9134 1
      vertex -23.5355 -23.5355 -1
      vertex -23.5355 -23.5355 1
    endloop
  endfacet
  facet normal 0.980785 -0.195091 0
    outer loop
      vertex 24.6194 -21.9134 1
      vertex 25 -20 -1
      vertex 25 -20 1
    endloop
  endfacet
  facet normal 0.980785 -0.195091 0
    outer loop
      vertex 25 -20 -1
      vertex 24.6194 -21.9134 1
      vertex 24.6194 -21.9134 -1
    endloop
  endfacet
  facet normal 0.555587 0.831458 -0
    outer loop
      vertex 23.5355 23.5355 -1
      vertex 21.9134 24.6194 1
      vertex 23.5355 23.5355 1
    endloop
  endfacet
  facet normal 0.555587 0.831458 0
    outer loop
      vertex 21.9134 24.6194 1
      vertex 23.5355 23.5355 -1
      vertex 21.9134 24.6194 -1
    endloop
  endfacet
  facet normal -0.555587 0.831458 0
    outer loop
      vertex -21.9134 24.6194 -1
      vertex -23.5355 23.5355 1
      vertex -21.9134 24.6194 1
    endloop
  endfacet
  facet normal -0.555587 0.831458 0
    outer loop
      vertex -23.5355 23.5355 1
      vertex -21.9134 24.6194 -1
      vertex -23.5355 23.5355 -1
    endloop
  endfacet
  facet normal -1 0 0
    outer loop
      vertex -25 -20 -1
      vertex -25 20 1
      vertex -25 20 -1
    endloop
  endfacet
  facet normal -1 -0 0
    outer loop
      vertex -25 20 1
      vertex -25 -20 -1
      vertex -25 -20 1
    endloop
  endfacet
  facet normal 0.195091 0.980785 -0
    outer loop
      vertex 21.9134 24.6194 -1
      vertex 20 25 1
      vertex 21.9134 24.6194 1
    endloop
  endfacet
  facet normal 0.195091 0.980785 0
    outer loop
      vertex 20 25 1
      vertex 21.9134 24.6194 -1
      vertex 20 25 -1
    endloop
  endfacet
  facet normal -0.980785 -0.195091 0
    outer loop
      vertex -24.6194 -21.9134 -1
      vertex -25 -20 1
      vertex -25 -20 -1
    endloop
  endfacet
  facet normal -0.980785 -0.195091 0
    outer loop
      vertex -25 -20 1
      vertex -24.6194 -21.9134 -1
      vertex -24.6194 -21.9134 1
    endloop
  endfacet
  facet normal 1 -0 0
    outer loop
      vertex 25 -20 1
      vertex 25 20 -1
      vertex 25 20 1
    endloop
  endfacet
  facet normal 1 0 0
    outer loop
      vertex 25 20 -1
      vertex 25 -20 1
      vertex 25 -20 -1
    endloop
  endfacet
  facet normal 0.195091 -0.980785 0
    outer loop
      vertex 20 -25 -1
      vertex 21.9134 -24.6194 1
      vertex 20 -25 1
    endloop
  endfacet
  facet normal 0.195091 -0.980785 0
    outer loop
      vertex 21.9134 -24.6194 1
      vertex 20 -25 -1
      vertex 21.9134 -24.6194 -1
    endloop
  endfacet
  facet normal 0.831458 -0.555587 0
    outer loop
      vertex 23.5355 -23.5355 1
      vertex 24.6194 -21.9134 -1
      vertex 24.6194 -21.9134 1
    endloop
  endfacet
  facet normal 0.831458 -0.555587 0
    outer loop
      vertex 24.6194 -21.9134 -1
      vertex 23.5355 -23.5355 1
      vertex 23.5355 -23.5355 -1
    endloop
  endfacet
  facet normal -0.980785 0.195091 0
    outer loop
      vertex -25 20 -1
      vertex -24.6194 21.9134 1
      vertex -24.6194 21.9134 -1
    endloop
  endfacet
  facet normal -0.980785 0.195091 0
    outer loop
      vertex -24.6194 21.9134 1
      vertex -25 20 -1
      vertex -25 20 1
    endloop
  endfacet
  facet normal -0.555587 -0.831458 0
    outer loop
      vertex -23.5355 -23.5355 -1
      vertex -21.9134 -24.6194 1
      vertex -23.5355 -23.5355 1
    endloop
  endfacet
  facet normal -0.555587 -0.831458 -0
    outer loop
      vertex -21.9134 -24.6194 1
      vertex -23.5355 -23.5355 -1
      vertex -21.9134 -24.6194 -1
    endloop
  endfacet
  facet normal 0 -1 0
    outer loop
      vertex -20 -25 -1
      vertex 20 -25 1
      vertex -20 -25 1
    endloop
  endfacet
  facet normal 0 -1 -0
    outer loop
      vertex 20 -25 1
      vertex -20 -25 -1
      vertex 20 -25 -1
    endloop
  endfacet
  facet normal 0 1 -0
    outer loop
      vertex 20 25 -1
      vertex -20 25 1
      vertex 20 25 1
    endloop
  endfacet
  facet normal 0 1 0
    outer loop
      vertex -20 25 1
      vertex 20 25 -1
      vertex -20 25 -1
    endloop
  endfacet
  facet normal -0.831458 0.555587 0
    outer loop
      vertex -24.6194 21.9134 -1
      vertex -23.5355 23.5355 1
      vertex -23.5355 23.5355 -1
    endloop
  endfacet
  facet normal -0.831458 0.555587 0
    outer loop
      vertex -23.5355 23.5355 1
      vertex -24.6194 21.9134 -1
      vertex -24.6194 21.9134 1
    endloop
  endfacet
  facet normal -0.195091 0.980785 0
    outer loop
      vertex -20 25 -1
      vertex -21.9134 24.6194 1
      vertex -20 25 1
    endloop
  endfacet
  facet normal -0.195091 0.980785 0
    outer loop
      vertex -21.9134 24.6194 1
      vertex -20 25 -1
      vertex -21.9134 24.6194 -1
    endloop
  endfacet
  facet normal 0.555587 -0.831458 0
    outer loop
      vertex 21.9134 -24.6194 -1
      vertex 23.5355 -23.5355 1
      vertex 21.9134 -24.6194 1
    endloop
  endfacet
  facet normal 0.555587 -0.831458 0
    outer loop
      vertex 23.5355 -23.5355 1
      vertex 21.9134 -24.6194 -1
      vertex 23.5355 -23.5355 -1
    endloop
  endfacet
  facet normal -0.195091 -0.980785 0
    outer loop
      vertex -21.9134 -24.6194 -1
      vertex -20 -25 1
      vertex -21.9134 -24.6194 1
    endloop
  endfacet
  facet normal -0.195091 -0.980785 -0
    outer loop
      vertex -20 -25 1
      vertex -21.9134 -24.6194 -1
      vertex -20 -25 -1
    endloop
  endfacet
  facet normal 0.980785 0.195091 0
    outer loop
      vertex 25 20 1
      vertex 24.6194 21.9134 -1
      vertex 24.6194 21.9134 1
    endloop
  endfacet
  facet normal 0.980785 0.195091 0
    outer loop
      vertex 24.6194 21.9134 -1
      vertex 25 20 1
      vertex 25 20 -1
    endloop
  endfacet
  facet normal 0 0 -1
    outer loop
      vertex 20 -25 -1
      vertex 25 -20 -1
      vertex 24.6194 -21.9134 -1
    endloop
  endfacet
  facet normal 0 0 -1
    outer loop
      vertex 25 -20 -1
      vertex 1.5 0 -1
      vertex 25 20 -1
    endloop
  endfacet
  facet normal 0 0 -1
    outer loop
      vertex 20 -25 -1
      vertex 24.6194 -21.9134 -1
      vertex 23.5355 -23.5355 -1
    endloop
  endfacet
  facet normal 0 0 -1
    outer loop
      vertex 0.463525 1.42658 -1
      vertex 25 20 -1
      vertex 1.5 0 -1
    endloop
  endfacet
  facet normal 0 0 -1
    outer loop
      vertex 20 -25 -1
      vertex 23.5355 -23.5355 -1
      vertex 21.9134 -24.6194 -1
    endloop
  endfacet
  facet normal 0 -0 -1
    outer loop
      vertex 20 25 -1
      vertex 25 20 -1
      vertex 0.463525 1.42658 -1
    endloop
  endfacet
  facet normal -0 0 -1
    outer loop
      vertex 25 -20 -1
      vertex 20 -25 -1
      vertex 0.463525 -1.42658 -1
    endloop
  endfacet
  facet normal 0 0 -1
    outer loop
      vertex 24.6194 21.9134 -1
      vertex 20 25 -1
      vertex 23.5355 23.5355 -1
    endloop
  endfacet
  facet normal 0 0 -1
    outer loop
      vertex 23.5355 23.5355 -1
      vertex 20 25 -1
      vertex 21.9134 24.6194 -1
    endloop
  endfacet
  facet normal 0 0 -1
    outer loop
      vertex 25 -20 -1
      vertex 0.463525 -1.42658 -1
      vertex 1.5 0 -1
    endloop
  endfacet
  facet normal 0 0 -1
    outer loop
      vertex -20 -25 -1
      vertex 0.463525 -1.42658 -1
      vertex 20 -25 -1
    endloop
  endfacet
  facet normal 0 0 -1
    outer loop
      vertex -25 -20 -1
      vertex -1.21352 -0.881678 -1
      vertex -20 -25 -1
    endloop
  endfacet
  facet normal -0 0 -1
    outer loop
      vertex 0.463525 -1.42658 -1
      vertex -20 -25 -1
      vertex -1.21352 -0.881678 -1
    endloop
  endfacet
  facet normal 0 0 -1
    outer loop
      vertex 25 20 -1
      vertex 20 25 -1
      vertex 24.6194 21.9134 -1
    endloop
  endfacet
  facet normal 0 0 -1
    outer loop
      vertex -20 25 -1
      vertex 0.463525 1.42658 -1
      vertex -1.21352 0.881678 -1
    endloop
  endfacet
  facet normal 0 0 -1
    outer loop
      vertex 0.463525 1.42658 -1
      vertex -20 25 -1
      vertex 20 25 -1
    endloop
  endfacet
  facet normal -0 0 -1
    outer loop
      vertex -1.21352 -0.881678 -1
      vertex -25 -20 -1
      vertex -1.21352 0.881678 -1
    endloop
  endfacet
  facet normal 0 0 -1
    outer loop
      vertex -25 -20 -1
      vertex -20 -25 -1
      vertex -21.9134 -24.6194 -1
    endloop
  endfacet
  facet normal 0 0 -1
    outer loop
      vertex -25 20 -1
      vertex -1.21352 0.881678 -1
      vertex -25 -20 -1
    endloop
  endfacet
  facet normal 0 0 -1
    outer loop
      vertex -25 -20 -1
      vertex -21.9134 -24.6194 -1
      vertex -23.5355 -23.5355 -1
    endloop
  endfacet
  facet normal 0 0 -1
    outer loop
      vertex -1.21352 0.881678 -1
      vertex -25 20 -1
      vertex -20 25 -1
    endloop
  endfacet
  facet normal 0 0 -1
    outer loop
      vertex -25 -20 -1
      vertex -23.5355 -23.5355 -1
      vertex -24.6194 -21.9134 -1
    endloop
  endfacet
  facet normal 0 0 -1
    outer loop
      vertex -20 25 -1
      vertex -25 20 -1
      vertex -21.9134 24.6194 -1
    endloop
  endfacet
  facet normal 0 0 -1
    outer loop
      vertex -21.9134 24.6194 -1
      vertex -25 20 -1
      vertex -23.5355 23.5355 -1
    endloop
  endfacet
  facet normal 0 0 -1
    outer loop
      vertex -23.5355 23.5355 -1
      vertex -25 20 -1
      vertex -24.6194 21.9134 -1
    endloop
  endfacet
  facet normal 0 0 1
    outer loop
      vertex 20 25 1
      vertex 25 20 1
      vertex 24.6194 21.9134 1
    endloop
  endfacet
  facet normal 0 0 1
    outer loop
      vertex 25 20 1
      vertex 1.5 0 1
      vertex 25 -20 1
    endloop
  endfacet
  facet normal 0 0 1
    outer loop
      vertex 20 25 1
      vertex 24.6194 21.9134 1
      vertex 23.5355 23.5355 1
    endloop
  endfacet
  facet normal -0 0 1
    outer loop
      vertex 0.463525 -1.42658 1
      vertex 25 -20 1
      vertex 1.5 0 1
    endloop
  endfacet
  facet normal 0 0 1
    outer loop
      vertex 20 25 1
      vertex 23.5355 23.5355 1
      vertex 21.9134 24.6194 1
    endloop
  endfacet
  facet normal 0 -0 1
    outer loop
      vertex 20 -25 1
      vertex 25 -20 1
      vertex 0.463525 -1.42658 1
    endloop
  endfacet
  facet normal 0 0 1
    outer loop
      vertex 25 20 1
      vertex 20 25 1
      vertex 0.463525 1.42658 1
    endloop
  endfacet
  facet normal 0 0 1
    outer loop
      vertex 24.6194 -21.9134 1
      vertex 20 -25 1
      vertex 23.5355 -23.5355 1
    endloop
  endfacet
  facet normal 0 0 1
    outer loop
      vertex 23.5355 -23.5355 1
      vertex 20 -25 1
      vertex 21.9134 -24.6194 1
    endloop
  endfacet
  facet normal 0 0 1
    outer loop
      vertex 25 20 1
      vertex 0.463525 1.42658 1
      vertex 1.5 0 1
    endloop
  endfacet
  facet normal -0 0 1
    outer loop
      vertex -20 25 1
      vertex 0.463525 1.42658 1
      vertex 20 25 1
    endloop
  endfacet
  facet normal -0 0 1
    outer loop
      vertex -25 20 1
      vertex -1.21352 0.881678 1
      vertex -20 25 1
    endloop
  endfacet
  facet normal 0 0 1
    outer loop
      vertex 0.463525 1.42658 1
      vertex -20 25 1
      vertex -1.21352 0.881678 1
    endloop
  endfacet
  facet normal 0 0 1
    outer loop
      vertex 25 -20 1
      vertex 20 -25 1
      vertex 24.6194 -21.9134 1
    endloop
  endfacet
  facet normal 0 0 1
    outer loop
      vertex -20 -25 1
      vertex 0.463525 -1.42658 1
      vertex -1.21352 -0.881678 1
    endloop
  endfacet
  facet normal 0 0 1
    outer loop
      vertex 0.463525 -1.42658 1
      vertex -20 -25 1
      vertex 20 -25 1
    endloop
  endfacet
  facet normal 0 0 1
    outer loop
      vertex -1.21352 0.881678 1
      vertex -25 20 1
      vertex -1.21352 -0.881678 1
    endloop
  endfacet
  facet normal 0 0 1
    outer loop
      vertex -25 20 1
      vertex -20 25 1
      vertex -21.9134 24.6194 1
    endloop
  endfacet
  facet normal 0 0 1
    outer loop
      vertex -25 -20 1
      vertex -1.21352 -0.881678 1
      vertex -25 20 1
    endloop
  endfacet
  facet normal 0 0 1
    outer loop
      vertex -25 20 1
      vertex -21.9134 24.6194 1
      vertex -23.5355 23.5355 1
    endloop
  endfacet
  facet normal 0 0 1
    outer loop
      vertex -1.21352 -0.881678 1
      vertex -25 -20 1
      vertex -20 -25 1
    endloop
  endfacet
  facet normal 0 0 1
    outer loop
      vertex -25 20 1
      vertex -23.5355 23.5355 1
      vertex -24.6194 21.9134 1
    endloop
  endfacet
  facet normal 0 0 1
    outer loop
      vertex -20 -25 1
      vertex -25 -20 1
      vertex -21.9134 -24.6194 1
    endloop
  endfacet
  facet normal 0 0 1
    outer loop
      vertex -21.9134 -24.6194 1
      vertex -25 -20 1
      vertex -23.5355 -23.5355 1
    endloop
  endfacet
  facet normal 0 0 1
    outer loop
      vertex -23.5355 -23.5355 1
      vertex -25 -20 1
      vertex -24.6194 -21.9134 1
    endloop
  endfacet
  facet normal 0.309015 0.951057 -0
    outer loop
      vertex 0.463525 -1.42658 -1
      vertex -1.21352 -0.881678 1
      vertex 0.463525 -1.42658 1
    endloop
  endfacet
  facet normal 0.309015 0.951057 0
    outer loop
      vertex -1.21352 -0.881678 1
      vertex 0.463525 -1.42658 -1
      vertex -1.21352 -0.881678 -1
    endloop
  endfacet
  facet normal 0.309015 -0.951057 0
    outer loop
      vertex -1.21352 0.881678 -1
      vertex 0.463525 1.42658 1
      vertex -1.21352 0.881678 1
    endloop
  endfacet
  facet normal 0.309015 -0.951057 0
    outer loop
      vertex 0.463525 1.42658 1
      vertex -1.21352 0.881678 -1
      vertex 0.463525 1.42658 -1
    endloop
  endfacet
  facet normal -0.809016 -0.587787 0
    outer loop
      vertex 1.5 0 -1
      vertex 0.463525 1.42658 1
      vertex 0.463525 1.42658 -1
    endloop
  endfacet
  facet normal -0.809016 -0.587787 0
    outer loop
      vertex 0.463525 1.42658 1
      vertex 1.5 0 -1
      vertex 1.5 0 1
    endloop
  endfacet
  facet normal 1 -0 0
    outer loop
      vertex -1.21352 -0.881678 1
      vertex -1.21352 0.881678 -1
      vertex -1.21352 0.881678 1
    endloop
  endfacet
  facet normal 1 0 0
    outer loop
      vertex -1.21352 0.881678 -1
      vertex -1.21352 -0.881678 1
      vertex -1.21352 -0.881678 -1
    endloop
  endfacet
  facet normal -0.809016 0.587787 0
    outer loop
      vertex 0.463525 -1.42658 -1
      vertex 1.5 0 1
      vertex 1.5 0 -1
    endloop
  endfacet
  facet normal -0.809016 0.587787 0
    outer loop
      vertex 1.5 0 1
      vertex 0.463525 -1.42658 -1
      vertex 0.463525 -1.42658 1
    endloop
  endfacet
endsolid OpenSCAD_Model
