solid OpenSCAD_Model
  facet normal 1 -0 0
    outer loop
      vertex 20 0 10
      vertex 20 30 0
      vertex 20 30 10
    endloop
  endfacet
  facet normal 1 0 0
    outer loop
      vertex 20 30 0
      vertex 20 0 10
      vertex 20 0 0
    endloop
  endfacet
  facet normal -0 0 1
    outer loop
      vertex 0 30 10
      vertex 20 0 10
      vertex 20 30 10
    endloop
  endfacet
  facet normal 0 0 1
    outer loop
      vertex 20 0 10
      vertex 0 30 10
      vertex 0 0 10
    endloop
  endfacet
  facet normal 0 0 -1
    outer loop
      vertex 0 0 0
      vertex 20 30 0
      vertex 20 0 0
    endloop
  endfacet
  facet normal -0 0 -1
    outer loop
      vertex 20 30 0
      vertex 0 0 0
      vertex 0 30 0
    endloop
  endfacet
  facet normal -1 0 0
    outer loop
      vertex 0 0 0
      vertex 0 30 10
      vertex 0 30 0
    endloop
  endfacet
  facet normal -1 -0 0
    outer loop
      vertex 0 30 10
      vertex 0 0 0
      vertex 0 0 10
    endloop
  endfacet
  facet normal 0 1 -0
    outer loop
      vertex 20 30 0
      vertex 0 30 10
      vertex 20 30 10
    endloop
  endfacet
  facet normal 0 1 0
    outer loop
      vertex 0 30 10
      vertex 20 30 0
      vertex 0 30 0
    endloop
  endfacet
  facet normal 0 -1 0
    outer loop
      vertex 0 0 0
      vertex 20 0 10
      vertex 0 0 10
    endloop
  endfacet
  facet normal 0 -1 -0
    outer loop
      vertex 20 0 10
      vertex 0 0 0
      vertex 20 0 0
    endloop
  endfacet
  facet normal 1 -0 0
    outer loop
      vertex 17.5 2.5 30
      vertex 17.5 27.5 20
      vertex 17.5 27.5 30
    endloop
  endfacet
  facet normal 1 0 0
    outer loop
      vertex 17.5 27.5 20
      vertex 17.5 2.5 30
      vertex 17.5 2.5 20
    endloop
  endfacet
  facet normal -0 0 1
    outer loop
      vertex 2.5 27.5 30
      vertex 17.5 2.5 30
      vertex 17.5 27.5 30
    endloop
  endfacet
  facet normal 0 0 1
    outer loop
      vertex 17.5 2.5 30
      vertex 2.5 27.5 30
      vertex 2.5 2.5 30
    endloop
  endfacet
  facet normal 0 0 -1
    outer loop
      vertex 2.5 2.5 20
      vertex 17.5 27.5 20
      vertex 17.5 2.5 20
    endloop
  endfacet
  facet normal -0 0 -1
    outer loop
      vertex 17.5 27.5 20
      vertex 2.5 2.5 20
      vertex 2.5 27.5 20
    endloop
  endfacet
  facet normal -1 0 0
    outer loop
      vertex 2.5 2.5 20
      vertex 2.5 27.5 30
      vertex 2.5 27.5 20
    endloop
  endfacet
  facet normal -1 -0 0
    outer loop
      vertex 2.5 27.5 30
      vertex 2.5 2.5 20
      vertex 2.5 2.5 30
    endloop
  endfacet
  facet normal 0 1 -0
    outer loop
      vertex 17.5 27.5 20
      vertex 2.5 27.5 30
      vertex 17.5 27.5 30
    endloop
  endfacet
  facet normal 0 1 0
    outer loop
      vertex 2.5 27.5 30
      vertex 17.5 27.5 20
      vertex 2.5 27.5 20
    endloop
  endfacet
  facet normal 0 -1 0
    outer loop
      vertex 2.5 2.5 20
      vertex 17.5 2.5 30
      vertex 2.5 2.5 30
    endloop
  endfacet
  facet normal 0 -1 -0
    outer loop
      vertex 17.5 2.5 30
      vertex 2.5 2.5 20
      vertex 17.5 2.5 20
    endloop
  endfacet
  facet normal 1 -0 0
    outer loop
      vertex 12.5 2.5 50
      vertex 12.5 22.5 40
      vertex 12.5 22.5 50
    endloop
  endfacet
  facet normal 1 0 0
    outer loop
      vertex 12.5 22.5 40
      vertex 12.5 2.5 50
      vertex 12.5 2.5 40
    endloop
  endfacet
  facet normal -0 0 1
    outer loop
      vertex 2.5 22.5 50
      vertex 12.5 2.5 50
      vertex 12.5 22.5 50
    endloop
  endfacet
  facet normal 0 0 1
    outer loop
      vertex 12.5 2.5 50
      vertex 2.5 22.5 50
      vertex 2.5 2.5 50
    endloop
  endfacet
  facet normal 0 0 -1
    outer loop
      vertex 2.5 2.5 40
      vertex 12.5 22.5 40
      vertex 12.5 2.5 40
    endloop
  endfacet
  facet normal -0 0 -1
    outer loop
      vertex 12.5 22.5 40
      vertex 2.5 2.5 40
      vertex 2.5 22.5 40
    endloop
  endfacet
  facet normal -1 0 0
    outer loop
      vertex 2.5 2.5 40
      vertex 2.5 22.5 50
      vertex 2.5 22.5 40
    endloop
  endfacet
  facet normal -1 -0 0
    outer loop
      vertex 2.5 22.5 50
      vertex 2.5 2.5 40
      vertex 2.5 2.5 50
    endloop
  endfacet
  facet normal 0 1 -0
    outer loop
      vertex 12.5 22.5 40
      vertex 2.5 22.5 50
      vertex 12.5 22.5 50
    endloop
  endfacet
  facet normal 0 1 0
    outer loop
      vertex 2.5 22.5 50
      vertex 12.5 22.5 40
      vertex 2.5 22.5 40
    endloop
  endfacet
  facet normal 0 -1 0
    outer loop
      vertex 2.5 2.5 40
      vertex 12.5 2.5 50
      vertex 2.5 2.5 50
    endloop
  endfacet
  facet normal 0 -1 -0
    outer loop
      vertex 12.5 2.5 50
      vertex 2.5 2.5 40
      vertex 12.5 2.5 40
    endloop
  endfacet
endsolid OpenSCAD_Model
