solid OpenSCAD_Model
  facet normal 0.866038 0.499979 0
    outer loop
      vertex 12.8955 7.5 5
      vertex 12.1353 8.81678 -5
      vertex 12.1353 8.81678 5
    endloop
  endfacet
  facet normal 0.866038 0.499979 0
    outer loop
      vertex 12.1353 8.81678 -5
      vertex 12.8955 7.5 5
      vertex 12.8955 7.5 -5
    endloop
  endfacet
  facet normal 0.587777 0.809023 -0
    outer loop
      vertex 10.037 11.1472 -5
      vertex 7.5 12.9904 5
      vertex 10.037 11.1472 5
    endloop
  endfacet
  facet normal 0.587777 0.809023 0
    outer loop
      vertex 7.5 12.9904 5
      vertex 10.037 11.1472 -5
      vertex 7.5 12.9904 -5
    endloop
  endfacet
  facet normal 0.743148 0.669127 0
    outer loop
      vertex 12.1353 8.81678 5
      vertex 10.037 11.1472 -5
      vertex 10.037 11.1472 5
    endloop
  endfacet
  facet normal 0.743148 0.669127 0
    outer loop
      vertex 10.037 11.1472 -5
      vertex 12.1353 8.81678 5
      vertex 12.1353 8.81678 -5
    endloop
  endfacet
  facet normal -0.743148 0.669127 0
    outer loop
      vertex -12.1353 8.81678 -5
      vertex -10.037 11.1472 5
      vertex -10.037 11.1472 -5
    endloop
  endfacet
  facet normal -0.743148 0.669127 0
    outer loop
      vertex -10.037 11.1472 5
      vertex -12.1353 8.81678 -5
      vertex -12.1353 8.81678 5
    endloop
  endfacet
  facet normal 0.587777 -0.809023 0
    outer loop
      vertex 7.5 -12.9904 -5
      vertex 10.037 -11.1472 5
      vertex 7.5 -12.9904 5
    endloop
  endfacet
  facet normal 0.587777 -0.809023 0
    outer loop
      vertex 10.037 -11.1472 5
      vertex 7.5 -12.9904 -5
      vertex 10.037 -11.1472 -5
    endloop
  endfacet
  facet normal -0.587777 0.809023 0
    outer loop
      vertex -7.5 12.9904 -5
      vertex -10.037 11.1472 5
      vertex -7.5 12.9904 5
    endloop
  endfacet
  facet normal -0.587777 0.809023 0
    outer loop
      vertex -10.037 11.1472 5
      vertex -7.5 12.9904 -5
      vertex -10.037 11.1472 -5
    endloop
  endfacet
  facet normal -0 0 1
    outer loop
      vertex 12.8955 7.5 5
      vertex 17.5 -7.5 5
      vertex 17.5 7.5 5
    endloop
  endfacet
  facet normal 0 0 1
    outer loop
      vertex 12.8955 7.5 5
      vertex 12.8955 -7.5 5
      vertex 17.5 -7.5 5
    endloop
  endfacet
  facet normal 0 0 1
    outer loop
      vertex 5.88877 3.78448 5
      vertex 12.8955 7.5 5
      vertex 12.1353 8.81678 5
    endloop
  endfacet
  facet normal 0 0 1
    outer loop
      vertex 12.8955 7.5 5
      vertex 7 0 5
      vertex 12.8955 -7.5 5
    endloop
  endfacet
  facet normal 0 0 1
    outer loop
      vertex 4.58402 5.29025 5
      vertex 12.1353 8.81678 5
      vertex 10.037 11.1472 5
    endloop
  endfacet
  facet normal -0 0 1
    outer loop
      vertex 6.71645 -1.97213 5
      vertex 12.8955 -7.5 5
      vertex 7 0 5
    endloop
  endfacet
  facet normal 0 0 1
    outer loop
      vertex 4.58402 5.29025 5
      vertex 10.037 11.1472 5
      vertex 7.5 12.9904 5
    endloop
  endfacet
  facet normal -0 0 1
    outer loop
      vertex 5.88877 -3.78448 5
      vertex 12.8955 -7.5 5
      vertex 6.71645 -1.97213 5
    endloop
  endfacet
  facet normal 0 0 1
    outer loop
      vertex 12.8955 -7.5 5
      vertex 5.88877 -3.78448 5
      vertex 12.1353 -8.81678 5
    endloop
  endfacet
  facet normal 0 0 1
    outer loop
      vertex 12.8955 7.5 5
      vertex 6.71645 1.97213 5
      vertex 7 0 5
    endloop
  endfacet
  facet normal 0 0 1
    outer loop
      vertex 12.8955 7.5 5
      vertex 5.88877 3.78448 5
      vertex 6.71645 1.97213 5
    endloop
  endfacet
  facet normal 0 0 1
    outer loop
      vertex 2.9079 6.36742 5
      vertex 7.5 12.9904 5
      vertex 4.63525 14.2658 5
    endloop
  endfacet
  facet normal 0 0 1
    outer loop
      vertex 12.1353 8.81678 5
      vertex 4.58402 5.29025 5
      vertex 5.88877 3.78448 5
    endloop
  endfacet
  facet normal 0 0 1
    outer loop
      vertex 7.5 12.9904 5
      vertex 2.9079 6.36742 5
      vertex 4.58402 5.29025 5
    endloop
  endfacet
  facet normal 0 0 1
    outer loop
      vertex 0.996203 6.92875 5
      vertex 4.63525 14.2658 5
      vertex 1.56793 14.9178 5
    endloop
  endfacet
  facet normal 0 0 1
    outer loop
      vertex 4.63525 14.2658 5
      vertex 0.996203 6.92875 5
      vertex 2.9079 6.36742 5
    endloop
  endfacet
  facet normal 0 0 1
    outer loop
      vertex 1.56793 14.9178 5
      vertex -0.996203 6.92875 5
      vertex 0.996203 6.92875 5
    endloop
  endfacet
  facet normal -0 0 1
    outer loop
      vertex -1.56793 14.9178 5
      vertex -0.996203 6.92875 5
      vertex 1.56793 14.9178 5
    endloop
  endfacet
  facet normal -0 0 1
    outer loop
      vertex -4.63525 14.2658 5
      vertex -0.996203 6.92875 5
      vertex -1.56793 14.9178 5
    endloop
  endfacet
  facet normal 0 0 1
    outer loop
      vertex -0.996203 6.92875 5
      vertex -4.63525 14.2658 5
      vertex -2.9079 6.36742 5
    endloop
  endfacet
  facet normal -0 0 1
    outer loop
      vertex -7.5 12.9904 5
      vertex -2.9079 6.36742 5
      vertex -4.63525 14.2658 5
    endloop
  endfacet
  facet normal 0 0 1
    outer loop
      vertex -2.9079 6.36742 5
      vertex -7.5 12.9904 5
      vertex -4.58402 5.29025 5
    endloop
  endfacet
  facet normal -0 0 1
    outer loop
      vertex -10.037 11.1472 5
      vertex -4.58402 5.29025 5
      vertex -7.5 12.9904 5
    endloop
  endfacet
  facet normal 0 0 1
    outer loop
      vertex -4.58402 5.29025 5
      vertex -12.1353 8.81678 5
      vertex -5.88877 3.78448 5
    endloop
  endfacet
  facet normal -0 0 1
    outer loop
      vertex -12.1353 8.81678 5
      vertex -4.58402 5.29025 5
      vertex -10.037 11.1472 5
    endloop
  endfacet
  facet normal -0 0 1
    outer loop
      vertex 4.58402 -5.29025 5
      vertex 12.1353 -8.81678 5
      vertex 5.88877 -3.78448 5
    endloop
  endfacet
  facet normal 0 0 1
    outer loop
      vertex 12.1353 -8.81678 5
      vertex 4.58402 -5.29025 5
      vertex 10.037 -11.1472 5
    endloop
  endfacet
  facet normal 0 0 1
    outer loop
      vertex 10.037 -11.1472 5
      vertex 4.58402 -5.29025 5
      vertex 7.5 -12.9904 5
    endloop
  endfacet
  facet normal -0 0 1
    outer loop
      vertex 2.9079 -6.36742 5
      vertex 7.5 -12.9904 5
      vertex 4.58402 -5.29025 5
    endloop
  endfacet
  facet normal 0 0 1
    outer loop
      vertex 7.5 -12.9904 5
      vertex 2.9079 -6.36742 5
      vertex 4.63525 -14.2658 5
    endloop
  endfacet
  facet normal -0 0 1
    outer loop
      vertex 0.996203 -6.92875 5
      vertex 4.63525 -14.2658 5
      vertex 2.9079 -6.36742 5
    endloop
  endfacet
  facet normal 0 0 1
    outer loop
      vertex 4.63525 -14.2658 5
      vertex 0.996203 -6.92875 5
      vertex 1.56793 -14.9178 5
    endloop
  endfacet
  facet normal -0 0 1
    outer loop
      vertex -0.996203 -6.92875 5
      vertex 1.56793 -14.9178 5
      vertex 0.996203 -6.92875 5
    endloop
  endfacet
  facet normal 0 0 1
    outer loop
      vertex -0.996203 -6.92875 5
      vertex -1.56793 -14.9178 5
      vertex 1.56793 -14.9178 5
    endloop
  endfacet
  facet normal 0 0 1
    outer loop
      vertex -4.63525 -14.2658 5
      vertex -0.996203 -6.92875 5
      vertex -2.9079 -6.36742 5
    endloop
  endfacet
  facet normal 0 0 1
    outer loop
      vertex -7.5 -12.9904 5
      vertex -2.9079 -6.36742 5
      vertex -4.58402 -5.29025 5
    endloop
  endfacet
  facet normal 0 0 1
    outer loop
      vertex -0.996203 -6.92875 5
      vertex -4.63525 -14.2658 5
      vertex -1.56793 -14.9178 5
    endloop
  endfacet
  facet normal 0 0 1
    outer loop
      vertex -12.1353 -8.81678 5
      vertex -4.58402 -5.29025 5
      vertex -5.88877 -3.78448 5
    endloop
  endfacet
  facet normal 0 0 1
    outer loop
      vertex -12.8955 -7.5 5
      vertex -5.88877 -3.78448 5
      vertex -6.71645 -1.97213 5
    endloop
  endfacet
  facet normal 0 0 1
    outer loop
      vertex -2.9079 -6.36742 5
      vertex -7.5 -12.9904 5
      vertex -4.63525 -14.2658 5
    endloop
  endfacet
  facet normal 0 0 1
    outer loop
      vertex -12.8955 -7.5 5
      vertex -6.71645 -1.97213 5
      vertex -7 0 5
    endloop
  endfacet
  facet normal -0 0 1
    outer loop
      vertex -12.8955 7.5 5
      vertex -5.88877 3.78448 5
      vertex -12.1353 8.81678 5
    endloop
  endfacet
  facet normal 0 0 1
    outer loop
      vertex -5.88877 3.78448 5
      vertex -12.8955 7.5 5
      vertex -6.71645 1.97213 5
    endloop
  endfacet
  facet normal 0 0 1
    outer loop
      vertex -12.8955 -7.5 5
      vertex -7 0 5
      vertex -12.8955 7.5 5
    endloop
  endfacet
  facet normal 0 0 1
    outer loop
      vertex -6.71645 1.97213 5
      vertex -12.8955 7.5 5
      vertex -7 0 5
    endloop
  endfacet
  facet normal 0 0 1
    outer loop
      vertex -5.88877 -3.78448 5
      vertex -12.8955 -7.5 5
      vertex -12.1353 -8.81678 5
    endloop
  endfacet
  facet normal 0 0 1
    outer loop
      vertex -4.58402 -5.29025 5
      vertex -10.037 -11.1472 5
      vertex -7.5 -12.9904 5
    endloop
  endfacet
  facet normal 0 0 1
    outer loop
      vertex -4.58402 -5.29025 5
      vertex -12.1353 -8.81678 5
      vertex -10.037 -11.1472 5
    endloop
  endfacet
  facet normal -0 0 1
    outer loop
      vertex -17.5 7.5 5
      vertex -12.8955 -7.5 5
      vertex -12.8955 7.5 5
    endloop
  endfacet
  facet normal 0 0 1
    outer loop
      vertex -12.8955 -7.5 5
      vertex -17.5 7.5 5
      vertex -17.5 -7.5 5
    endloop
  endfacet
  facet normal -0.866053 0.499952 0
    outer loop
      vertex -12.1353 8.81678 -5
      vertex -12.5 8.18502 -2.5
      vertex -12.1353 8.81678 5
    endloop
  endfacet
  facet normal -0.866038 0.499979 9.01987e-06
    outer loop
      vertex -12.8955 7.5 -5
      vertex -12.5 8.18502 -2.5
      vertex -12.1353 8.81678 -5
    endloop
  endfacet
  facet normal -0.866023 0.500003 0
    outer loop
      vertex -12.5 8.18502 -2.5
      vertex -12.8955 7.5 -5
      vertex -12.8955 7.5 -2.5
    endloop
  endfacet
  facet normal -0.866053 0.499952 0
    outer loop
      vertex -12.5 8.18502 2.5
      vertex -12.1353 8.81678 5
      vertex -12.5 8.18502 -2.5
    endloop
  endfacet
  facet normal -0.866023 0.500003 0
    outer loop
      vertex -12.8955 7.5 5
      vertex -12.5 8.18502 2.5
      vertex -12.8955 7.5 2.5
    endloop
  endfacet
  facet normal -0.866038 0.499979 -9.01987e-06
    outer loop
      vertex -12.5 8.18502 2.5
      vertex -12.8955 7.5 5
      vertex -12.1353 8.81678 5
    endloop
  endfacet
  facet normal 0.866023 -0.500003 0
    outer loop
      vertex 12.8955 -7.5 5
      vertex 12.5 -8.18502 2.5
      vertex 12.8955 -7.5 2.5
    endloop
  endfacet
  facet normal 0.866053 -0.499952 0
    outer loop
      vertex 12.5 -8.18502 2.5
      vertex 12.1353 -8.81678 5
      vertex 12.5 -8.18502 -2.5
    endloop
  endfacet
  facet normal 0.866038 -0.499979 -9.01987e-06
    outer loop
      vertex 12.1353 -8.81678 5
      vertex 12.5 -8.18502 2.5
      vertex 12.8955 -7.5 5
    endloop
  endfacet
  facet normal 0.866023 -0.500003 0
    outer loop
      vertex 12.5 -8.18502 -2.5
      vertex 12.8955 -7.5 -5
      vertex 12.8955 -7.5 -2.5
    endloop
  endfacet
  facet normal 0.866038 -0.499979 9.01987e-06
    outer loop
      vertex 12.5 -8.18502 -2.5
      vertex 12.1353 -8.81678 -5
      vertex 12.8955 -7.5 -5
    endloop
  endfacet
  facet normal 0.866053 -0.499952 0
    outer loop
      vertex 12.1353 -8.81678 -5
      vertex 12.5 -8.18502 -2.5
      vertex 12.1353 -8.81678 5
    endloop
  endfacet
  facet normal 0 1 -0
    outer loop
      vertex 1.56793 14.9178 -5
      vertex -1.56793 14.9178 5
      vertex 1.56793 14.9178 5
    endloop
  endfacet
  facet normal 0 1 0
    outer loop
      vertex -1.56793 14.9178 5
      vertex 1.56793 14.9178 -5
      vertex -1.56793 14.9178 -5
    endloop
  endfacet
  facet normal -0.406718 0.913554 0
    outer loop
      vertex -4.63525 14.2658 -5
      vertex -7.5 12.9904 5
      vertex -4.63525 14.2658 5
    endloop
  endfacet
  facet normal -0.406718 0.913554 0
    outer loop
      vertex -7.5 12.9904 5
      vertex -4.63525 14.2658 -5
      vertex -7.5 12.9904 -5
    endloop
  endfacet
  facet normal -0.207918 -0.978146 0
    outer loop
      vertex -4.63525 -14.2658 -5
      vertex -1.56793 -14.9178 5
      vertex -4.63525 -14.2658 5
    endloop
  endfacet
  facet normal -0.207918 -0.978146 -0
    outer loop
      vertex -1.56793 -14.9178 5
      vertex -4.63525 -14.2658 -5
      vertex -1.56793 -14.9178 -5
    endloop
  endfacet
  facet normal 0 -1 0
    outer loop
      vertex -1.56793 -14.9178 -5
      vertex 1.56793 -14.9178 5
      vertex -1.56793 -14.9178 5
    endloop
  endfacet
  facet normal 0 -1 -0
    outer loop
      vertex 1.56793 -14.9178 5
      vertex -1.56793 -14.9178 -5
      vertex 1.56793 -14.9178 -5
    endloop
  endfacet
  facet normal -0.207918 0.978146 0
    outer loop
      vertex -1.56793 14.9178 -5
      vertex -4.63525 14.2658 5
      vertex -1.56793 14.9178 5
    endloop
  endfacet
  facet normal -0.207918 0.978146 0
    outer loop
      vertex -4.63525 14.2658 5
      vertex -1.56793 14.9178 -5
      vertex -4.63525 14.2658 -5
    endloop
  endfacet
  facet normal 0.207918 -0.978146 0
    outer loop
      vertex 1.56793 -14.9178 -5
      vertex 4.63525 -14.2658 5
      vertex 1.56793 -14.9178 5
    endloop
  endfacet
  facet normal 0.207918 -0.978146 0
    outer loop
      vertex 4.63525 -14.2658 5
      vertex 1.56793 -14.9178 -5
      vertex 4.63525 -14.2658 -5
    endloop
  endfacet
  facet normal 0.743148 -0.669127 0
    outer loop
      vertex 10.037 -11.1472 5
      vertex 12.1353 -8.81678 -5
      vertex 12.1353 -8.81678 5
    endloop
  endfacet
  facet normal 0.743148 -0.669127 0
    outer loop
      vertex 12.1353 -8.81678 -5
      vertex 10.037 -11.1472 5
      vertex 10.037 -11.1472 -5
    endloop
  endfacet
  facet normal 0.406718 -0.913554 0
    outer loop
      vertex 4.63525 -14.2658 -5
      vertex 7.5 -12.9904 5
      vertex 4.63525 -14.2658 5
    endloop
  endfacet
  facet normal 0.406718 -0.913554 0
    outer loop
      vertex 7.5 -12.9904 5
      vertex 4.63525 -14.2658 -5
      vertex 7.5 -12.9904 -5
    endloop
  endfacet
  facet normal -0.587777 -0.809023 0
    outer loop
      vertex -10.037 -11.1472 -5
      vertex -7.5 -12.9904 5
      vertex -10.037 -11.1472 5
    endloop
  endfacet
  facet normal -0.587777 -0.809023 -0
    outer loop
      vertex -7.5 -12.9904 5
      vertex -10.037 -11.1472 -5
      vertex -7.5 -12.9904 -5
    endloop
  endfacet
  facet normal 0.207918 0.978146 -0
    outer loop
      vertex 4.63525 14.2658 -5
      vertex 1.56793 14.9178 5
      vertex 4.63525 14.2658 5
    endloop
  endfacet
  facet normal 0.207918 0.978146 0
    outer loop
      vertex 1.56793 14.9178 5
      vertex 4.63525 14.2658 -5
      vertex 1.56793 14.9178 -5
    endloop
  endfacet
  facet normal -0.866038 -0.499979 0
    outer loop
      vertex -12.1353 -8.81678 -5
      vertex -12.8955 -7.5 5
      vertex -12.8955 -7.5 -5
    endloop
  endfacet
  facet normal -0.866038 -0.499979 0
    outer loop
      vertex -12.8955 -7.5 5
      vertex -12.1353 -8.81678 -5
      vertex -12.1353 -8.81678 5
    endloop
  endfacet
  facet normal 0.406718 0.913554 -0
    outer loop
      vertex 7.5 12.9904 -5
      vertex 4.63525 14.2658 5
      vertex 7.5 12.9904 5
    endloop
  endfacet
  facet normal 0.406718 0.913554 0
    outer loop
      vertex 4.63525 14.2658 5
      vertex 7.5 12.9904 -5
      vertex 4.63525 14.2658 -5
    endloop
  endfacet
  facet normal -0.743148 -0.669127 0
    outer loop
      vertex -10.037 -11.1472 -5
      vertex -12.1353 -8.81678 5
      vertex -12.1353 -8.81678 -5
    endloop
  endfacet
  facet normal -0.743148 -0.669127 0
    outer loop
      vertex -12.1353 -8.81678 5
      vertex -10.037 -11.1472 -5
      vertex -10.037 -11.1472 5
    endloop
  endfacet
  facet normal 0 0 -1
    outer loop
      vertex 12.5 -5 -5
      vertex 17.5 -7.5 -5
      vertex 12.8955 -7.5 -5
    endloop
  endfacet
  facet normal 0 0 -1
    outer loop
      vertex 12.5 0 -5
      vertex 17.5 -7.5 -5
      vertex 12.5 -5 -5
    endloop
  endfacet
  facet normal 0 0 -1
    outer loop
      vertex 17.5 -7.5 -5
      vertex 12.5 0 -5
      vertex 17.5 7.5 -5
    endloop
  endfacet
  facet normal 0 0 -1
    outer loop
      vertex 12.1353 -8.81678 -5
      vertex 12.5 -5 -5
      vertex 12.8955 -7.5 -5
    endloop
  endfacet
  facet normal 0 0 -1
    outer loop
      vertex 4.83552 -5 -5
      vertex 12.1353 -8.81678 -5
      vertex 10.037 -11.1472 -5
    endloop
  endfacet
  facet normal 0 0 -1
    outer loop
      vertex 4.58402 -5.29025 -5
      vertex 10.037 -11.1472 -5
      vertex 7.5 -12.9904 -5
    endloop
  endfacet
  facet normal 0 0 -1
    outer loop
      vertex 12.1353 -8.81678 -5
      vertex 4.83552 -5 -5
      vertex 12.5 -5 -5
    endloop
  endfacet
  facet normal 0 0 -1
    outer loop
      vertex 2.9079 -6.36742 -5
      vertex 7.5 -12.9904 -5
      vertex 4.63525 -14.2658 -5
    endloop
  endfacet
  facet normal 0 0 -1
    outer loop
      vertex 10.037 -11.1472 -5
      vertex 4.58402 -5.29025 -5
      vertex 4.83552 -5 -5
    endloop
  endfacet
  facet normal 0 0 -1
    outer loop
      vertex 7.5 -12.9904 -5
      vertex 2.9079 -6.36742 -5
      vertex 4.58402 -5.29025 -5
    endloop
  endfacet
  facet normal 0 0 -1
    outer loop
      vertex 0.996203 -6.92875 -5
      vertex 4.63525 -14.2658 -5
      vertex 1.56793 -14.9178 -5
    endloop
  endfacet
  facet normal 0 0 -1
    outer loop
      vertex 4.63525 -14.2658 -5
      vertex 0.996203 -6.92875 -5
      vertex 2.9079 -6.36742 -5
    endloop
  endfacet
  facet normal 0 0 -1
    outer loop
      vertex 1.56793 -14.9178 -5
      vertex -0.996203 -6.92875 -5
      vertex 0.996203 -6.92875 -5
    endloop
  endfacet
  facet normal 0 0 -1
    outer loop
      vertex -1.56793 -14.9178 -5
      vertex -0.996203 -6.92875 -5
      vertex 1.56793 -14.9178 -5
    endloop
  endfacet
  facet normal 0 0 -1
    outer loop
      vertex -4.63525 -14.2658 -5
      vertex -0.996203 -6.92875 -5
      vertex -1.56793 -14.9178 -5
    endloop
  endfacet
  facet normal -0 0 -1
    outer loop
      vertex -0.996203 -6.92875 -5
      vertex -4.63525 -14.2658 -5
      vertex -2.9079 -6.36742 -5
    endloop
  endfacet
  facet normal 0 0 -1
    outer loop
      vertex -7.5 -12.9904 -5
      vertex -2.9079 -6.36742 -5
      vertex -4.63525 -14.2658 -5
    endloop
  endfacet
  facet normal -0 0 -1
    outer loop
      vertex -2.9079 -6.36742 -5
      vertex -7.5 -12.9904 -5
      vertex -4.58402 -5.29025 -5
    endloop
  endfacet
  facet normal 0 0 -1
    outer loop
      vertex -10.037 -11.1472 -5
      vertex -4.58402 -5.29025 -5
      vertex -7.5 -12.9904 -5
    endloop
  endfacet
  facet normal -0 0 -1
    outer loop
      vertex -4.58402 -5.29025 -5
      vertex -10.037 -11.1472 -5
      vertex -4.83552 -5 -5
    endloop
  endfacet
  facet normal 0 0 -1
    outer loop
      vertex -12.1353 -8.81678 -5
      vertex -4.83552 -5 -5
      vertex -10.037 -11.1472 -5
    endloop
  endfacet
  facet normal 0 0 -1
    outer loop
      vertex -12.1353 -8.81678 -5
      vertex -12.5 -5 -5
      vertex -4.83552 -5 -5
    endloop
  endfacet
  facet normal 0 0 -1
    outer loop
      vertex -17.5 -7.5 -5
      vertex -12.5 -5 -5
      vertex -12.8955 -7.5 -5
    endloop
  endfacet
  facet normal 0 0 -1
    outer loop
      vertex -12.8955 -7.5 -5
      vertex -12.5 -5 -5
      vertex -12.1353 -8.81678 -5
    endloop
  endfacet
  facet normal -0 0 -1
    outer loop
      vertex 17.5 7.5 -5
      vertex 12.5 0 -5
      vertex 12.8955 7.5 -5
    endloop
  endfacet
  facet normal 0 0 -1
    outer loop
      vertex 6.71645 1.97213 -5
      vertex 12.8955 7.5 -5
      vertex 12.5 0 -5
    endloop
  endfacet
  facet normal 0 0 -1
    outer loop
      vertex 5.88877 3.78448 -5
      vertex 12.8955 7.5 -5
      vertex 6.71645 1.97213 -5
    endloop
  endfacet
  facet normal 0 0 -1
    outer loop
      vertex 4.58402 5.29025 -5
      vertex 12.1353 8.81678 -5
      vertex 5.88877 3.78448 -5
    endloop
  endfacet
  facet normal 0 0 -1
    outer loop
      vertex 6.71645 1.97213 -5
      vertex 12.5 0 -5
      vertex 7 0 -5
    endloop
  endfacet
  facet normal -0 0 -1
    outer loop
      vertex 12.8955 7.5 -5
      vertex 5.88877 3.78448 -5
      vertex 12.1353 8.81678 -5
    endloop
  endfacet
  facet normal -0 0 -1
    outer loop
      vertex 12.1353 8.81678 -5
      vertex 4.58402 5.29025 -5
      vertex 10.037 11.1472 -5
    endloop
  endfacet
  facet normal -0 0 -1
    outer loop
      vertex 10.037 11.1472 -5
      vertex 4.58402 5.29025 -5
      vertex 7.5 12.9904 -5
    endloop
  endfacet
  facet normal 0 0 -1
    outer loop
      vertex 2.9079 6.36742 -5
      vertex 7.5 12.9904 -5
      vertex 4.58402 5.29025 -5
    endloop
  endfacet
  facet normal -0 0 -1
    outer loop
      vertex 7.5 12.9904 -5
      vertex 2.9079 6.36742 -5
      vertex 4.63525 14.2658 -5
    endloop
  endfacet
  facet normal 0 0 -1
    outer loop
      vertex 0.996203 6.92875 -5
      vertex 4.63525 14.2658 -5
      vertex 2.9079 6.36742 -5
    endloop
  endfacet
  facet normal -0 0 -1
    outer loop
      vertex 4.63525 14.2658 -5
      vertex 0.996203 6.92875 -5
      vertex 1.56793 14.9178 -5
    endloop
  endfacet
  facet normal 0 0 -1
    outer loop
      vertex -0.996203 6.92875 -5
      vertex 1.56793 14.9178 -5
      vertex 0.996203 6.92875 -5
    endloop
  endfacet
  facet normal 0 0 -1
    outer loop
      vertex -0.996203 6.92875 -5
      vertex -1.56793 14.9178 -5
      vertex 1.56793 14.9178 -5
    endloop
  endfacet
  facet normal 0 0 -1
    outer loop
      vertex -4.63525 14.2658 -5
      vertex -0.996203 6.92875 -5
      vertex -2.9079 6.36742 -5
    endloop
  endfacet
  facet normal 0 0 -1
    outer loop
      vertex -7.5 12.9904 -5
      vertex -2.9079 6.36742 -5
      vertex -4.58402 5.29025 -5
    endloop
  endfacet
  facet normal 0 0 -1
    outer loop
      vertex -0.996203 6.92875 -5
      vertex -4.63525 14.2658 -5
      vertex -1.56793 14.9178 -5
    endloop
  endfacet
  facet normal 0 0 -1
    outer loop
      vertex -12.1353 8.81678 -5
      vertex -4.58402 5.29025 -5
      vertex -5.88877 3.78448 -5
    endloop
  endfacet
  facet normal 0 0 -1
    outer loop
      vertex -12.8955 7.5 -5
      vertex -5.88877 3.78448 -5
      vertex -6.71645 1.97213 -5
    endloop
  endfacet
  facet normal 0 0 -1
    outer loop
      vertex -2.9079 6.36742 -5
      vertex -7.5 12.9904 -5
      vertex -4.63525 14.2658 -5
    endloop
  endfacet
  facet normal 0 0 -1
    outer loop
      vertex -12.5 0 -5
      vertex -6.71645 1.97213 -5
      vertex -7 0 -5
    endloop
  endfacet
  facet normal 0 0 -1
    outer loop
      vertex -4.58402 5.29025 -5
      vertex -10.037 11.1472 -5
      vertex -7.5 12.9904 -5
    endloop
  endfacet
  facet normal 0 0 -1
    outer loop
      vertex -4.58402 5.29025 -5
      vertex -12.1353 8.81678 -5
      vertex -10.037 11.1472 -5
    endloop
  endfacet
  facet normal -0 0 -1
    outer loop
      vertex -6.71645 1.97213 -5
      vertex -12.5 0 -5
      vertex -12.8955 7.5 -5
    endloop
  endfacet
  facet normal -0 0 -1
    outer loop
      vertex -12.5 -5 -5
      vertex -17.5 -7.5 -5
      vertex -12.5 0 -5
    endloop
  endfacet
  facet normal 0 0 -1
    outer loop
      vertex -5.88877 3.78448 -5
      vertex -12.8955 7.5 -5
      vertex -12.1353 8.81678 -5
    endloop
  endfacet
  facet normal 0 0 -1
    outer loop
      vertex -17.5 7.5 -5
      vertex -12.5 0 -5
      vertex -17.5 -7.5 -5
    endloop
  endfacet
  facet normal 0 0 -1
    outer loop
      vertex -12.5 0 -5
      vertex -17.5 7.5 -5
      vertex -12.8955 7.5 -5
    endloop
  endfacet
  facet normal -0.406718 -0.913554 0
    outer loop
      vertex -7.5 -12.9904 -5
      vertex -4.63525 -14.2658 5
      vertex -7.5 -12.9904 5
    endloop
  endfacet
  facet normal -0.406718 -0.913554 -0
    outer loop
      vertex -4.63525 -14.2658 5
      vertex -7.5 -12.9904 -5
      vertex -4.63525 -14.2658 -5
    endloop
  endfacet
  facet normal -0.909631 -0.415418 0
    outer loop
      vertex 6.71645 1.97213 -5
      vertex 5.88877 3.78448 5
      vertex 5.88877 3.78448 -5
    endloop
  endfacet
  facet normal -0.909631 -0.415418 0
    outer loop
      vertex 5.88877 3.78448 5
      vertex 6.71645 1.97213 -5
      vertex 6.71645 1.97213 5
    endloop
  endfacet
  facet normal -0.989821 -0.142315 -0
    outer loop
      vertex 7 0 0
      vertex 6.71645 1.97213 -5
      vertex 7 0 -5
    endloop
  endfacet
  facet normal -0.989821 -0.142315 0
    outer loop
      vertex 6.71645 1.97213 -5
      vertex 7 0 0
      vertex 6.71645 1.97213 5
    endloop
  endfacet
  facet normal -0.989821 -0.142315 0
    outer loop
      vertex 6.71645 1.97213 5
      vertex 7 0 0
      vertex 7 0 5
    endloop
  endfacet
  facet normal -0.755751 -0.654859 0
    outer loop
      vertex 5.88877 3.78448 -5
      vertex 4.58402 5.29025 5
      vertex 4.58402 5.29025 -5
    endloop
  endfacet
  facet normal -0.755751 -0.654859 0
    outer loop
      vertex 4.58402 5.29025 5
      vertex 5.88877 3.78448 -5
      vertex 5.88877 3.78448 5
    endloop
  endfacet
  facet normal -0.755754 0.654856 0
    outer loop
      vertex 4.83552 -5 -5
      vertex 4.58402 -5.29025 -5
      vertex 4.83552 -5 0
    endloop
  endfacet
  facet normal -0.755751 0.654859 0
    outer loop
      vertex 4.83552 -5 0
      vertex 5.88877 -3.78448 5
      vertex 5.88877 -3.78448 0
    endloop
  endfacet
  facet normal -0.755751 0.654859 2.54214e-07
    outer loop
      vertex 4.83552 -5 0
      vertex 4.58402 -5.29025 5
      vertex 5.88877 -3.78448 5
    endloop
  endfacet
  facet normal -0.755754 0.654856 0
    outer loop
      vertex 4.58402 -5.29025 5
      vertex 4.83552 -5 0
      vertex 4.58402 -5.29025 -5
    endloop
  endfacet
  facet normal 0.540638 -0.841255 0
    outer loop
      vertex -4.58402 5.29025 -5
      vertex -2.9079 6.36742 5
      vertex -4.58402 5.29025 5
    endloop
  endfacet
  facet normal 0.540638 -0.841255 0
    outer loop
      vertex -2.9079 6.36742 5
      vertex -4.58402 5.29025 -5
      vertex -2.9079 6.36742 -5
    endloop
  endfacet
  facet normal -0.540638 0.841255 0
    outer loop
      vertex 4.58402 -5.29025 -5
      vertex 2.9079 -6.36742 5
      vertex 4.58402 -5.29025 5
    endloop
  endfacet
  facet normal -0.540638 0.841255 0
    outer loop
      vertex 2.9079 -6.36742 5
      vertex 4.58402 -5.29025 -5
      vertex 2.9079 -6.36742 -5
    endloop
  endfacet
  facet normal -0.909631 0.415418 0
    outer loop
      vertex 5.88877 -3.78448 0
      vertex 6.71645 -1.97213 5
      vertex 6.71645 -1.97213 0
    endloop
  endfacet
  facet normal -0.909631 0.415418 0
    outer loop
      vertex 6.71645 -1.97213 5
      vertex 5.88877 -3.78448 0
      vertex 5.88877 -3.78448 5
    endloop
  endfacet
  facet normal -0.540638 -0.841255 0
    outer loop
      vertex 2.9079 6.36742 -5
      vertex 4.58402 5.29025 5
      vertex 2.9079 6.36742 5
    endloop
  endfacet
  facet normal -0.540638 -0.841255 -0
    outer loop
      vertex 4.58402 5.29025 5
      vertex 2.9079 6.36742 -5
      vertex 4.58402 5.29025 -5
    endloop
  endfacet
  facet normal 0.281735 0.959492 -0
    outer loop
      vertex -0.996203 -6.92875 -5
      vertex -2.9079 -6.36742 5
      vertex -0.996203 -6.92875 5
    endloop
  endfacet
  facet normal 0.281735 0.959492 0
    outer loop
      vertex -2.9079 -6.36742 5
      vertex -0.996203 -6.92875 -5
      vertex -2.9079 -6.36742 -5
    endloop
  endfacet
  facet normal -0.281735 0.959492 0
    outer loop
      vertex 2.9079 -6.36742 -5
      vertex 0.996203 -6.92875 5
      vertex 2.9079 -6.36742 5
    endloop
  endfacet
  facet normal -0.281735 0.959492 0
    outer loop
      vertex 0.996203 -6.92875 5
      vertex 2.9079 -6.36742 -5
      vertex 0.996203 -6.92875 -5
    endloop
  endfacet
  facet normal -0.989821 0.142315 0
    outer loop
      vertex 6.71645 -1.97213 0
      vertex 7 0 5
      vertex 7 0 0
    endloop
  endfacet
  facet normal -0.989821 0.142315 0
    outer loop
      vertex 7 0 5
      vertex 6.71645 -1.97213 0
      vertex 6.71645 -1.97213 5
    endloop
  endfacet
  facet normal 0 -1 0
    outer loop
      vertex -0.996203 6.92875 -5
      vertex 0.996203 6.92875 5
      vertex -0.996203 6.92875 5
    endloop
  endfacet
  facet normal 0 -1 -0
    outer loop
      vertex 0.996203 6.92875 5
      vertex -0.996203 6.92875 -5
      vertex 0.996203 6.92875 -5
    endloop
  endfacet
  facet normal 0.281735 -0.959492 0
    outer loop
      vertex -2.9079 6.36742 -5
      vertex -0.996203 6.92875 5
      vertex -2.9079 6.36742 5
    endloop
  endfacet
  facet normal 0.281735 -0.959492 0
    outer loop
      vertex -0.996203 6.92875 5
      vertex -2.9079 6.36742 -5
      vertex -0.996203 6.92875 -5
    endloop
  endfacet
  facet normal 0.755751 -0.654859 0
    outer loop
      vertex -5.88877 3.78448 5
      vertex -4.58402 5.29025 -5
      vertex -4.58402 5.29025 5
    endloop
  endfacet
  facet normal 0.755751 -0.654859 0
    outer loop
      vertex -4.58402 5.29025 -5
      vertex -5.88877 3.78448 5
      vertex -5.88877 3.78448 -5
    endloop
  endfacet
  facet normal 0 1 -0
    outer loop
      vertex 0.996203 -6.92875 -5
      vertex -0.996203 -6.92875 5
      vertex 0.996203 -6.92875 5
    endloop
  endfacet
  facet normal 0 1 0
    outer loop
      vertex -0.996203 -6.92875 5
      vertex 0.996203 -6.92875 -5
      vertex -0.996203 -6.92875 -5
    endloop
  endfacet
  facet normal 0.909631 -0.415418 0
    outer loop
      vertex -6.71645 1.97213 5
      vertex -5.88877 3.78448 -5
      vertex -5.88877 3.78448 5
    endloop
  endfacet
  facet normal 0.909631 -0.415418 0
    outer loop
      vertex -5.88877 3.78448 -5
      vertex -6.71645 1.97213 5
      vertex -6.71645 1.97213 -5
    endloop
  endfacet
  facet normal 0.989821 0.142315 0
    outer loop
      vertex -6.71645 -1.97213 5
      vertex -7 0 0
      vertex -7 0 5
    endloop
  endfacet
  facet normal 0.989821 0.142315 0
    outer loop
      vertex -7 0 0
      vertex -6.71645 -1.97213 5
      vertex -6.71645 -1.97213 0
    endloop
  endfacet
  facet normal 0.989821 -0.142315 0
    outer loop
      vertex -7 0 0
      vertex -6.71645 1.97213 5
      vertex -7 0 5
    endloop
  endfacet
  facet normal 0.989821 -0.142315 0
    outer loop
      vertex -6.71645 1.97213 5
      vertex -7 0 0
      vertex -6.71645 1.97213 -5
    endloop
  endfacet
  facet normal 0.989821 -0.142315 0
    outer loop
      vertex -6.71645 1.97213 -5
      vertex -7 0 0
      vertex -7 0 -5
    endloop
  endfacet
  facet normal -0.281735 -0.959492 0
    outer loop
      vertex 0.996203 6.92875 -5
      vertex 2.9079 6.36742 5
      vertex 0.996203 6.92875 5
    endloop
  endfacet
  facet normal -0.281735 -0.959492 -0
    outer loop
      vertex 2.9079 6.36742 5
      vertex 0.996203 6.92875 -5
      vertex 2.9079 6.36742 -5
    endloop
  endfacet
  facet normal 0.755751 0.654859 0
    outer loop
      vertex -5.88877 -3.78448 5
      vertex -4.83552 -5 0
      vertex -5.88877 -3.78448 0
    endloop
  endfacet
  facet normal 0.755751 0.654859 2.54214e-07
    outer loop
      vertex -4.58402 -5.29025 5
      vertex -4.83552 -5 0
      vertex -5.88877 -3.78448 5
    endloop
  endfacet
  facet normal 0.755754 0.654856 -0
    outer loop
      vertex -4.58402 -5.29025 -5
      vertex -4.83552 -5 0
      vertex -4.58402 -5.29025 5
    endloop
  endfacet
  facet normal 0.755754 0.654856 0
    outer loop
      vertex -4.83552 -5 0
      vertex -4.58402 -5.29025 -5
      vertex -4.83552 -5 -5
    endloop
  endfacet
  facet normal 0.909631 0.415418 0
    outer loop
      vertex -5.88877 -3.78448 5
      vertex -6.71645 -1.97213 0
      vertex -6.71645 -1.97213 5
    endloop
  endfacet
  facet normal 0.909631 0.415418 0
    outer loop
      vertex -6.71645 -1.97213 0
      vertex -5.88877 -3.78448 5
      vertex -5.88877 -3.78448 0
    endloop
  endfacet
  facet normal 0.540638 0.841255 -0
    outer loop
      vertex -2.9079 -6.36742 -5
      vertex -4.58402 -5.29025 5
      vertex -2.9079 -6.36742 5
    endloop
  endfacet
  facet normal 0.540638 0.841255 0
    outer loop
      vertex -4.58402 -5.29025 5
      vertex -2.9079 -6.36742 -5
      vertex -4.58402 -5.29025 -5
    endloop
  endfacet
  facet normal 0 0 -1
    outer loop
      vertex -12.5 -5 0
      vertex -5.88877 -3.78448 0
      vertex -4.83552 -5 0
    endloop
  endfacet
  facet normal 0 0 -1
    outer loop
      vertex -12.5 -5 0
      vertex -6.71645 -1.97213 0
      vertex -5.88877 -3.78448 0
    endloop
  endfacet
  facet normal 0 0 -1
    outer loop
      vertex -12.5 0 0
      vertex -6.71645 -1.97213 0
      vertex -12.5 -5 0
    endloop
  endfacet
  facet normal 0 0 -1
    outer loop
      vertex -6.71645 -1.97213 0
      vertex -12.5 0 0
      vertex -7 0 0
    endloop
  endfacet
  facet normal 0 -1 0
    outer loop
      vertex -12.5 0 -5
      vertex -7 0 0
      vertex -12.5 0 0
    endloop
  endfacet
  facet normal 0 -1 -0
    outer loop
      vertex -7 0 0
      vertex -12.5 0 -5
      vertex -7 0 -5
    endloop
  endfacet
  facet normal 0 1 -0
    outer loop
      vertex -4.83552 -5 -5
      vertex -12.5 -5 0
      vertex -4.83552 -5 0
    endloop
  endfacet
  facet normal 0 1 0
    outer loop
      vertex -12.5 -5 0
      vertex -4.83552 -5 -5
      vertex -12.5 -5 -5
    endloop
  endfacet
  facet normal 0 0 -1
    outer loop
      vertex 6.71645 -1.97213 0
      vertex 12.5 0 0
      vertex 12.5 -5 0
    endloop
  endfacet
  facet normal -0 0 -1
    outer loop
      vertex 12.5 0 0
      vertex 6.71645 -1.97213 0
      vertex 7 0 0
    endloop
  endfacet
  facet normal 0 0 -1
    outer loop
      vertex 12.5 -5 0
      vertex 5.88877 -3.78448 0
      vertex 6.71645 -1.97213 0
    endloop
  endfacet
  facet normal 0 -0 -1
    outer loop
      vertex 5.88877 -3.78448 0
      vertex 12.5 -5 0
      vertex 4.83552 -5 0
    endloop
  endfacet
  facet normal 0 -1 0
    outer loop
      vertex 7 0 -5
      vertex 12.5 0 0
      vertex 7 0 0
    endloop
  endfacet
  facet normal 0 -1 -0
    outer loop
      vertex 12.5 0 0
      vertex 7 0 -5
      vertex 12.5 0 -5
    endloop
  endfacet
  facet normal 0 1 -0
    outer loop
      vertex 12.5 -5 -5
      vertex 4.83552 -5 0
      vertex 12.5 -5 0
    endloop
  endfacet
  facet normal 0 1 0
    outer loop
      vertex 4.83552 -5 0
      vertex 12.5 -5 -5
      vertex 4.83552 -5 -5
    endloop
  endfacet
  facet normal 0 1 -0
    outer loop
      vertex -12.8955 7.5 2.5
      vertex -17.5 7.5 5
      vertex -12.8955 7.5 5
    endloop
  endfacet
  facet normal 0 1 0
    outer loop
      vertex -17.5 7.5 5
      vertex -12.8955 7.5 2.5
      vertex -17.5 7.5 2.5
    endloop
  endfacet
  facet normal 0 1 -0
    outer loop
      vertex -12.8955 7.5 -5
      vertex -17.5 7.5 -2.5
      vertex -12.8955 7.5 -2.5
    endloop
  endfacet
  facet normal 0 1 0
    outer loop
      vertex -17.5 7.5 -2.5
      vertex -12.8955 7.5 -5
      vertex -17.5 7.5 -5
    endloop
  endfacet
  facet normal 0 -1 0
    outer loop
      vertex -17.5 -7.5 -5
      vertex -12.8955 -7.5 5
      vertex -17.5 -7.5 5
    endloop
  endfacet
  facet normal 0 -1 -0
    outer loop
      vertex -12.8955 -7.5 5
      vertex -17.5 -7.5 -5
      vertex -12.8955 -7.5 -5
    endloop
  endfacet
  facet normal -1 0 0
    outer loop
      vertex -17.5 -7.5 -5
      vertex -17.5 7.5 -2.5
      vertex -17.5 7.5 -5
    endloop
  endfacet
  facet normal -1 -0 0
    outer loop
      vertex -17.5 7.5 -2.5
      vertex -17.5 -7.5 -5
      vertex -17.5 7.5 2.5
    endloop
  endfacet
  facet normal -1 0 0
    outer loop
      vertex -17.5 -7.5 5
      vertex -17.5 7.5 2.5
      vertex -17.5 -7.5 -5
    endloop
  endfacet
  facet normal -1 0 0
    outer loop
      vertex -17.5 7.5 2.5
      vertex -17.5 -7.5 5
      vertex -17.5 7.5 5
    endloop
  endfacet
  facet normal -1 0 0
    outer loop
      vertex -17.5 7.5 -2.5
      vertex -17.5 15 2.5
      vertex -17.5 15 -2.5
    endloop
  endfacet
  facet normal -1 -0 0
    outer loop
      vertex -17.5 15 2.5
      vertex -17.5 7.5 -2.5
      vertex -17.5 7.5 2.5
    endloop
  endfacet
  facet normal 1 -0 0
    outer loop
      vertex -12.5 8.18502 2.5
      vertex -12.5 15 -2.5
      vertex -12.5 15 2.5
    endloop
  endfacet
  facet normal 1 0 0
    outer loop
      vertex -12.5 15 -2.5
      vertex -12.5 8.18502 2.5
      vertex -12.5 8.18502 -2.5
    endloop
  endfacet
  facet normal 1 -0 0
    outer loop
      vertex -12.5 -5 0
      vertex -12.5 0 -5
      vertex -12.5 0 0
    endloop
  endfacet
  facet normal 1 0 0
    outer loop
      vertex -12.5 0 -5
      vertex -12.5 -5 0
      vertex -12.5 -5 -5
    endloop
  endfacet
  facet normal 0 1 -0
    outer loop
      vertex -12.5 15 -2.5
      vertex -17.5 15 2.5
      vertex -12.5 15 2.5
    endloop
  endfacet
  facet normal 0 1 0
    outer loop
      vertex -17.5 15 2.5
      vertex -12.5 15 -2.5
      vertex -17.5 15 -2.5
    endloop
  endfacet
  facet normal -0 0 1
    outer loop
      vertex -17.5 15 2.5
      vertex -12.5 8.18502 2.5
      vertex -12.5 15 2.5
    endloop
  endfacet
  facet normal 0 0 1
    outer loop
      vertex -17.5 7.5 2.5
      vertex -12.5 8.18502 2.5
      vertex -17.5 15 2.5
    endloop
  endfacet
  facet normal 0 0 1
    outer loop
      vertex -12.5 8.18502 2.5
      vertex -17.5 7.5 2.5
      vertex -12.8955 7.5 2.5
    endloop
  endfacet
  facet normal 0 0 -1
    outer loop
      vertex -17.5 7.5 -2.5
      vertex -12.5 8.18502 -2.5
      vertex -12.8955 7.5 -2.5
    endloop
  endfacet
  facet normal -0 0 -1
    outer loop
      vertex -12.5 8.18502 -2.5
      vertex -17.5 7.5 -2.5
      vertex -17.5 15 -2.5
    endloop
  endfacet
  facet normal 0 0 -1
    outer loop
      vertex -12.5 8.18502 -2.5
      vertex -17.5 15 -2.5
      vertex -12.5 15 -2.5
    endloop
  endfacet
  facet normal 0 -1 0
    outer loop
      vertex 12.8955 -7.5 2.5
      vertex 17.5 -7.5 5
      vertex 12.8955 -7.5 5
    endloop
  endfacet
  facet normal 0 -1 -0
    outer loop
      vertex 17.5 -7.5 5
      vertex 12.8955 -7.5 2.5
      vertex 17.5 -7.5 2.5
    endloop
  endfacet
  facet normal 0 -1 0
    outer loop
      vertex 12.8955 -7.5 -5
      vertex 17.5 -7.5 -2.5
      vertex 12.8955 -7.5 -2.5
    endloop
  endfacet
  facet normal 0 -1 -0
    outer loop
      vertex 17.5 -7.5 -2.5
      vertex 12.8955 -7.5 -5
      vertex 17.5 -7.5 -5
    endloop
  endfacet
  facet normal 0 1 -0
    outer loop
      vertex 17.5 7.5 -5
      vertex 12.8955 7.5 5
      vertex 17.5 7.5 5
    endloop
  endfacet
  facet normal 0 1 0
    outer loop
      vertex 12.8955 7.5 5
      vertex 17.5 7.5 -5
      vertex 12.8955 7.5 -5
    endloop
  endfacet
  facet normal 1 -0 0
    outer loop
      vertex 17.5 -15 2.5
      vertex 17.5 -7.5 -2.5
      vertex 17.5 -7.5 2.5
    endloop
  endfacet
  facet normal 1 0 0
    outer loop
      vertex 17.5 -7.5 -2.5
      vertex 17.5 -15 2.5
      vertex 17.5 -15 -2.5
    endloop
  endfacet
  facet normal 1 0 0
    outer loop
      vertex 17.5 -7.5 2.5
      vertex 17.5 7.5 5
      vertex 17.5 -7.5 5
    endloop
  endfacet
  facet normal 1 0 0
    outer loop
      vertex 17.5 7.5 5
      vertex 17.5 -7.5 2.5
      vertex 17.5 7.5 -5
    endloop
  endfacet
  facet normal 1 -0 0
    outer loop
      vertex 17.5 -7.5 -2.5
      vertex 17.5 7.5 -5
      vertex 17.5 -7.5 2.5
    endloop
  endfacet
  facet normal 1 0 0
    outer loop
      vertex 17.5 7.5 -5
      vertex 17.5 -7.5 -2.5
      vertex 17.5 -7.5 -5
    endloop
  endfacet
  facet normal -1 0 0
    outer loop
      vertex 12.5 -15 -2.5
      vertex 12.5 -8.18502 2.5
      vertex 12.5 -8.18502 -2.5
    endloop
  endfacet
  facet normal -1 -0 0
    outer loop
      vertex 12.5 -8.18502 2.5
      vertex 12.5 -15 -2.5
      vertex 12.5 -15 2.5
    endloop
  endfacet
  facet normal -1 0 0
    outer loop
      vertex 12.5 -5 -5
      vertex 12.5 0 0
      vertex 12.5 0 -5
    endloop
  endfacet
  facet normal -1 -0 0
    outer loop
      vertex 12.5 0 0
      vertex 12.5 -5 -5
      vertex 12.5 -5 0
    endloop
  endfacet
  facet normal 0 -1 0
    outer loop
      vertex 12.5 -15 -2.5
      vertex 17.5 -15 2.5
      vertex 12.5 -15 2.5
    endloop
  endfacet
  facet normal 0 -1 -0
    outer loop
      vertex 17.5 -15 2.5
      vertex 12.5 -15 -2.5
      vertex 17.5 -15 -2.5
    endloop
  endfacet
  facet normal 0 0 1
    outer loop
      vertex 12.5 -8.18502 2.5
      vertex 17.5 -7.5 2.5
      vertex 12.8955 -7.5 2.5
    endloop
  endfacet
  facet normal 0 0 1
    outer loop
      vertex 17.5 -7.5 2.5
      vertex 12.5 -8.18502 2.5
      vertex 17.5 -15 2.5
    endloop
  endfacet
  facet normal 0 0 1
    outer loop
      vertex 17.5 -15 2.5
      vertex 12.5 -8.18502 2.5
      vertex 12.5 -15 2.5
    endloop
  endfacet
  facet normal 0 0 -1
    outer loop
      vertex 12.5 -8.18502 -2.5
      vertex 17.5 -7.5 -2.5
      vertex 17.5 -15 -2.5
    endloop
  endfacet
  facet normal 0 0 -1
    outer loop
      vertex 12.5 -8.18502 -2.5
      vertex 17.5 -15 -2.5
      vertex 12.5 -15 -2.5
    endloop
  endfacet
  facet normal -0 0 -1
    outer loop
      vertex 17.5 -7.5 -2.5
      vertex 12.5 -8.18502 -2.5
      vertex 12.8955 -7.5 -2.5
    endloop
  endfacet
endsolid OpenSCAD_Model
