solid OpenSCAD_Model
  facet normal 1 -0 0
    outer loop
      vertex 40 0 50
      vertex 40 5 45
      vertex 40 5 50
    endloop
  endfacet
  facet normal 1 0 0
    outer loop
      vertex 40 5 45
      vertex 40 0 50
      vertex 40 5 35
    endloop
  endfacet
  facet normal 1 0 0
    outer loop
      vertex 40 5 35
      vertex 40 0 50
      vertex 40 5 30
    endloop
  endfacet
  facet normal 1 0 0
    outer loop
      vertex 40 0 10
      vertex 40 5 30
      vertex 40 0 50
    endloop
  endfacet
  facet normal 1 0 0
    outer loop
      vertex 40 5 30
      vertex 40 0 10
      vertex 40 5 20
    endloop
  endfacet
  facet normal 1 0 0
    outer loop
      vertex 40 5 20
      vertex 40 0 10
      vertex 40 5 10
    endloop
  endfacet
  facet normal 1 -0 0
    outer loop
      vertex 40 5 45
      vertex 40 25 35
      vertex 40 25 45
    endloop
  endfacet
  facet normal 1 0 0
    outer loop
      vertex 40 25 35
      vertex 40 5 45
      vertex 40 5 35
    endloop
  endfacet
  facet normal 1 0 0
    outer loop
      vertex 40 25 45
      vertex 40 30 50
      vertex 40 25 50
    endloop
  endfacet
  facet normal 1 0 0
    outer loop
      vertex 40 25 35
      vertex 40 30 50
      vertex 40 25 45
    endloop
  endfacet
  facet normal 1 0 0
    outer loop
      vertex 40 25 30
      vertex 40 30 50
      vertex 40 25 35
    endloop
  endfacet
  facet normal 1 0 0
    outer loop
      vertex 40 30 50
      vertex 40 25 30
      vertex 40 30 10
    endloop
  endfacet
  facet normal 1 -0 0
    outer loop
      vertex 40 25 20
      vertex 40 30 10
      vertex 40 25 30
    endloop
  endfacet
  facet normal 1 0 0
    outer loop
      vertex 40 30 10
      vertex 40 25 20
      vertex 40 25 10
    endloop
  endfacet
  facet normal -0 0 1
    outer loop
      vertex 30 5 50
      vertex 40 0 50
      vertex 40 5 50
    endloop
  endfacet
  facet normal 0 0 1
    outer loop
      vertex 40 0 50
      vertex 30 5 50
      vertex 30 0 50
    endloop
  endfacet
  facet normal -0 0 1
    outer loop
      vertex 0 30 10
      vertex 10 25 10
      vertex 10 30 10
    endloop
  endfacet
  facet normal 0 0 1
    outer loop
      vertex 10 25 10
      vertex 0 30 10
      vertex 10 5 10
    endloop
  endfacet
  facet normal 0 0 1
    outer loop
      vertex 0 0 10
      vertex 10 5 10
      vertex 0 30 10
    endloop
  endfacet
  facet normal 0 0 1
    outer loop
      vertex 10 5 10
      vertex 0 0 10
      vertex 10 0 10
    endloop
  endfacet
  facet normal -0 0 1
    outer loop
      vertex 10 25 10
      vertex 40 5 10
      vertex 40 25 10
    endloop
  endfacet
  facet normal 0 0 1
    outer loop
      vertex 40 5 10
      vertex 10 25 10
      vertex 10 5 10
    endloop
  endfacet
  facet normal 0 0 1
    outer loop
      vertex 40 25 10
      vertex 50 30 10
      vertex 40 30 10
    endloop
  endfacet
  facet normal 0 0 1
    outer loop
      vertex 50 30 10
      vertex 40 25 10
      vertex 50 0 10
    endloop
  endfacet
  facet normal -0 0 1
    outer loop
      vertex 40 5 10
      vertex 50 0 10
      vertex 40 25 10
    endloop
  endfacet
  facet normal 0 0 1
    outer loop
      vertex 50 0 10
      vertex 40 5 10
      vertex 40 0 10
    endloop
  endfacet
  facet normal -1 0 0
    outer loop
      vertex 10 0 10
      vertex 10 5 20
      vertex 10 5 10
    endloop
  endfacet
  facet normal -1 0 0
    outer loop
      vertex 10 0 30
      vertex 10 5 20
      vertex 10 0 10
    endloop
  endfacet
  facet normal -1 0 0
    outer loop
      vertex 10 5 20
      vertex 10 0 30
      vertex 10 5 30
    endloop
  endfacet
  facet normal 0 1 0
    outer loop
      vertex 40 5 35
      vertex 40 5 30
      vertex 35 5 35
    endloop
  endfacet
  facet normal 0 1 0
    outer loop
      vertex 35 5 45
      vertex 40 5 50
      vertex 40 5 45
    endloop
  endfacet
  facet normal 0 1 0
    outer loop
      vertex 40 5 50
      vertex 35 5 45
      vertex 30 5 50
    endloop
  endfacet
  facet normal 0 1 -0
    outer loop
      vertex 35 5 35
      vertex 30 5 50
      vertex 35 5 45
    endloop
  endfacet
  facet normal 0 1 0
    outer loop
      vertex 35 5 35
      vertex 30 5 30
      vertex 30 5 50
    endloop
  endfacet
  facet normal 0 1 0
    outer loop
      vertex 30 5 30
      vertex 35 5 35
      vertex 40 5 30
    endloop
  endfacet
  facet normal 0 1 -0
    outer loop
      vertex 40 5 10
      vertex 10 5 20
      vertex 40 5 20
    endloop
  endfacet
  facet normal 0 1 0
    outer loop
      vertex 10 5 20
      vertex 40 5 10
      vertex 10 5 10
    endloop
  endfacet
  facet normal 0 -1 0
    outer loop
      vertex 5 5 20
      vertex 10 5 30
      vertex 5 5 30
    endloop
  endfacet
  facet normal 0 -1 -0
    outer loop
      vertex 10 5 30
      vertex 5 5 20
      vertex 10 5 20
    endloop
  endfacet
  facet normal 0 -1 0
    outer loop
      vertex 40 5 20
      vertex 45 5 30
      vertex 40 5 30
    endloop
  endfacet
  facet normal 0 -1 -0
    outer loop
      vertex 45 5 30
      vertex 40 5 20
      vertex 45 5 20
    endloop
  endfacet
  facet normal 0 -1 0
    outer loop
      vertex 10 0 30
      vertex 10 0 10
      vertex 30 0 30
    endloop
  endfacet
  facet normal 0 -1 0
    outer loop
      vertex 30 0 30
      vertex 40 0 50
      vertex 30 0 50
    endloop
  endfacet
  facet normal 0 -1 0
    outer loop
      vertex 30 0 30
      vertex 40 0 10
      vertex 40 0 50
    endloop
  endfacet
  facet normal 0 -1 0
    outer loop
      vertex 40 0 10
      vertex 30 0 30
      vertex 10 0 10
    endloop
  endfacet
  facet normal 0 -1 0
    outer loop
      vertex 0 0 0
      vertex 10 0 10
      vertex 0 0 10
    endloop
  endfacet
  facet normal 0 -1 -0
    outer loop
      vertex 10 0 10
      vertex 0 0 0
      vertex 40 0 10
    endloop
  endfacet
  facet normal 0 -1 0
    outer loop
      vertex 50 0 0
      vertex 40 0 10
      vertex 0 0 0
    endloop
  endfacet
  facet normal 0 -1 0
    outer loop
      vertex 40 0 10
      vertex 50 0 0
      vertex 50 0 10
    endloop
  endfacet
  facet normal -1 0 0
    outer loop
      vertex 30 0 30
      vertex 30 5 50
      vertex 30 5 30
    endloop
  endfacet
  facet normal -1 -0 0
    outer loop
      vertex 30 5 50
      vertex 30 0 30
      vertex 30 0 50
    endloop
  endfacet
  facet normal -0 0 1
    outer loop
      vertex 10 5 30
      vertex 30 0 30
      vertex 30 5 30
    endloop
  endfacet
  facet normal 0 0 1
    outer loop
      vertex 30 0 30
      vertex 10 5 30
      vertex 10 0 30
    endloop
  endfacet
  facet normal -0 0 1
    outer loop
      vertex 30 30 50
      vertex 40 25 50
      vertex 40 30 50
    endloop
  endfacet
  facet normal 0 0 1
    outer loop
      vertex 40 25 50
      vertex 30 30 50
      vertex 30 25 50
    endloop
  endfacet
  facet normal -1 0 0
    outer loop
      vertex 10 25 10
      vertex 10 30 30
      vertex 10 30 10
    endloop
  endfacet
  facet normal -1 -0 0
    outer loop
      vertex 10 30 30
      vertex 10 25 10
      vertex 10 25 30
    endloop
  endfacet
  facet normal 0 1 -0
    outer loop
      vertex 50 30 0
      vertex 40 30 10
      vertex 50 30 10
    endloop
  endfacet
  facet normal 0 1 0
    outer loop
      vertex 40 30 10
      vertex 50 30 0
      vertex 10 30 10
    endloop
  endfacet
  facet normal 0 1 0
    outer loop
      vertex 0 30 0
      vertex 10 30 10
      vertex 50 30 0
    endloop
  endfacet
  facet normal 0 1 0
    outer loop
      vertex 10 30 10
      vertex 0 30 0
      vertex 0 30 10
    endloop
  endfacet
  facet normal 0 1 0
    outer loop
      vertex 40 30 50
      vertex 30 30 30
      vertex 30 30 50
    endloop
  endfacet
  facet normal 0 1 -0
    outer loop
      vertex 40 30 10
      vertex 30 30 30
      vertex 40 30 50
    endloop
  endfacet
  facet normal 0 1 0
    outer loop
      vertex 10 30 10
      vertex 30 30 30
      vertex 40 30 10
    endloop
  endfacet
  facet normal 0 1 0
    outer loop
      vertex 30 30 30
      vertex 10 30 10
      vertex 10 30 30
    endloop
  endfacet
  facet normal 0 1 -0
    outer loop
      vertex 45 25 20
      vertex 40 25 30
      vertex 45 25 30
    endloop
  endfacet
  facet normal 0 1 0
    outer loop
      vertex 40 25 30
      vertex 45 25 20
      vertex 40 25 20
    endloop
  endfacet
  facet normal 0 -1 0
    outer loop
      vertex 10 25 30
      vertex 25 25 20
      vertex 25 25 30
    endloop
  endfacet
  facet normal 0 -1 0
    outer loop
      vertex 10 25 10
      vertex 25 25 20
      vertex 10 25 30
    endloop
  endfacet
  facet normal 0 -1 0
    outer loop
      vertex 40 25 10
      vertex 25 25 20
      vertex 10 25 10
    endloop
  endfacet
  facet normal 0 -1 0
    outer loop
      vertex 25 25 20
      vertex 40 25 10
      vertex 40 25 20
    endloop
  endfacet
  facet normal 0 -1 0
    outer loop
      vertex 30 25 50
      vertex 35 25 45
      vertex 40 25 50
    endloop
  endfacet
  facet normal 0 -1 0
    outer loop
      vertex 30 25 50
      vertex 35 25 35
      vertex 35 25 45
    endloop
  endfacet
  facet normal 0 -1 0
    outer loop
      vertex 30 25 30
      vertex 35 25 35
      vertex 30 25 50
    endloop
  endfacet
  facet normal 0 -1 0
    outer loop
      vertex 40 25 30
      vertex 35 25 35
      vertex 30 25 30
    endloop
  endfacet
  facet normal 0 -1 0
    outer loop
      vertex 35 25 35
      vertex 40 25 30
      vertex 40 25 35
    endloop
  endfacet
  facet normal 0 -1 -0
    outer loop
      vertex 40 25 50
      vertex 35 25 45
      vertex 40 25 45
    endloop
  endfacet
  facet normal -1 0 0
    outer loop
      vertex 30 25 30
      vertex 30 30 50
      vertex 30 30 30
    endloop
  endfacet
  facet normal -1 -0 0
    outer loop
      vertex 30 30 50
      vertex 30 25 30
      vertex 30 25 50
    endloop
  endfacet
  facet normal 0 0 1
    outer loop
      vertex 30 30 30
      vertex 25 25 30
      vertex 30 25 30
    endloop
  endfacet
  facet normal -0 0 1
    outer loop
      vertex 10 30 30
      vertex 25 25 30
      vertex 30 30 30
    endloop
  endfacet
  facet normal 0 0 1
    outer loop
      vertex 25 25 30
      vertex 10 30 30
      vertex 10 25 30
    endloop
  endfacet
  facet normal 1 -0 0
    outer loop
      vertex 45 5 30
      vertex 45 25 20
      vertex 45 25 30
    endloop
  endfacet
  facet normal 1 0 0
    outer loop
      vertex 45 25 20
      vertex 45 5 30
      vertex 45 5 20
    endloop
  endfacet
  facet normal 0 0 1
    outer loop
      vertex 25 25 30
      vertex 20 20 30
      vertex 25 20 30
    endloop
  endfacet
  facet normal -0 0 1
    outer loop
      vertex 40 25 30
      vertex 45 5 30
      vertex 45 25 30
    endloop
  endfacet
  facet normal 0 0 1
    outer loop
      vertex 40 25 30
      vertex 40 5 30
      vertex 45 5 30
    endloop
  endfacet
  facet normal -0 0 1
    outer loop
      vertex 30 25 30
      vertex 40 5 30
      vertex 40 25 30
    endloop
  endfacet
  facet normal 0 0 1
    outer loop
      vertex 30 25 30
      vertex 30 5 30
      vertex 40 5 30
    endloop
  endfacet
  facet normal 0 0 1
    outer loop
      vertex 25 20 30
      vertex 30 25 30
      vertex 25 25 30
    endloop
  endfacet
  facet normal 0 0 1
    outer loop
      vertex 30 25 30
      vertex 25 20 30
      vertex 30 5 30
    endloop
  endfacet
  facet normal -0 0 1
    outer loop
      vertex 25 10 30
      vertex 30 5 30
      vertex 25 20 30
    endloop
  endfacet
  facet normal -0 0 1
    outer loop
      vertex 15 10 30
      vertex 30 5 30
      vertex 25 10 30
    endloop
  endfacet
  facet normal 0 0 1
    outer loop
      vertex 30 5 30
      vertex 15 10 30
      vertex 10 5 30
    endloop
  endfacet
  facet normal 0 0 1
    outer loop
      vertex 15 15 30
      vertex 10 5 30
      vertex 15 10 30
    endloop
  endfacet
  facet normal 0 -0 1
    outer loop
      vertex 10 5 30
      vertex 15 15 30
      vertex 5 5 30
    endloop
  endfacet
  facet normal 0 0 -1
    outer loop
      vertex 15 20 30
      vertex 20 20 30
      vertex 15 15 30
    endloop
  endfacet
  facet normal 0 0 -1
    outer loop
      vertex 40 5 20
      vertex 45 25 20
      vertex 45 5 20
    endloop
  endfacet
  facet normal 0 0 -1
    outer loop
      vertex 40 5 20
      vertex 40 25 20
      vertex 45 25 20
    endloop
  endfacet
  facet normal 0 0 -1
    outer loop
      vertex 40 5 20
      vertex 25 25 20
      vertex 40 25 20
    endloop
  endfacet
  facet normal 0 0 -1
    outer loop
      vertex 10 5 20
      vertex 25 25 20
      vertex 40 5 20
    endloop
  endfacet
  facet normal 0 0 -1
    outer loop
      vertex 25 25 20
      vertex 10 5 20
      vertex 5 5 20
    endloop
  endfacet
  facet normal -0.707107 0.707107 0
    outer loop
      vertex 25 25 20
      vertex 20 20 30
      vertex 25 25 30
    endloop
  endfacet
  facet normal -0.707107 0.707107 0
    outer loop
      vertex 25 25 20
      vertex 15 15 30
      vertex 20 20 30
    endloop
  endfacet
  facet normal -0.707107 0.707107 0
    outer loop
      vertex 5 5 20
      vertex 15 15 30
      vertex 25 25 20
    endloop
  endfacet
  facet normal -0.707107 0.707107 0
    outer loop
      vertex 15 15 30
      vertex 5 5 20
      vertex 5 5 30
    endloop
  endfacet
  facet normal -0 0 1
    outer loop
      vertex 15 20 35
      vertex 25 10 35
      vertex 25 20 35
    endloop
  endfacet
  facet normal 0 0 1
    outer loop
      vertex 25 10 35
      vertex 15 20 35
      vertex 15 10 35
    endloop
  endfacet
  facet normal -1 0 0
    outer loop
      vertex 15 15 30
      vertex 15 20 35
      vertex 15 20 30
    endloop
  endfacet
  facet normal -1 0 0
    outer loop
      vertex 15 10 35
      vertex 15 15 30
      vertex 15 10 30
    endloop
  endfacet
  facet normal -1 0 0
    outer loop
      vertex 15 15 30
      vertex 15 10 35
      vertex 15 20 35
    endloop
  endfacet
  facet normal 0 1 0
    outer loop
      vertex 20 20 30
      vertex 25 20 35
      vertex 25 20 30
    endloop
  endfacet
  facet normal 0 1 0
    outer loop
      vertex 25 20 35
      vertex 20 20 30
      vertex 15 20 35
    endloop
  endfacet
  facet normal 0 1 0
    outer loop
      vertex 15 20 35
      vertex 20 20 30
      vertex 15 20 30
    endloop
  endfacet
  facet normal 0 -1 0
    outer loop
      vertex 15 10 30
      vertex 25 10 35
      vertex 15 10 35
    endloop
  endfacet
  facet normal 0 -1 -0
    outer loop
      vertex 25 10 35
      vertex 15 10 30
      vertex 25 10 30
    endloop
  endfacet
  facet normal 1 -0 0
    outer loop
      vertex 25 10 35
      vertex 25 20 30
      vertex 25 20 35
    endloop
  endfacet
  facet normal 1 0 0
    outer loop
      vertex 25 20 30
      vertex 25 10 35
      vertex 25 10 30
    endloop
  endfacet
  facet normal -0 0 1
    outer loop
      vertex 10 25 45
      vertex 15 5 45
      vertex 15 25 45
    endloop
  endfacet
  facet normal 0 0 1
    outer loop
      vertex 15 5 45
      vertex 10 25 45
      vertex 10 5 45
    endloop
  endfacet
  facet normal -0 0 1
    outer loop
      vertex 35 25 45
      vertex 40 5 45
      vertex 40 25 45
    endloop
  endfacet
  facet normal 0 0 1
    outer loop
      vertex 40 5 45
      vertex 35 25 45
      vertex 35 5 45
    endloop
  endfacet
  facet normal 0 0 -1
    outer loop
      vertex 35 5 35
      vertex 40 25 35
      vertex 40 5 35
    endloop
  endfacet
  facet normal -0 0 -1
    outer loop
      vertex 40 25 35
      vertex 35 5 35
      vertex 35 25 35
    endloop
  endfacet
  facet normal 0 0 -1
    outer loop
      vertex 10 5 35
      vertex 15 10 35
      vertex 15 5 35
    endloop
  endfacet
  facet normal -0 0 -1
    outer loop
      vertex 15 10 35
      vertex 10 5 35
      vertex 15 20 35
    endloop
  endfacet
  facet normal 0 0 -1
    outer loop
      vertex 10 25 35
      vertex 15 20 35
      vertex 10 5 35
    endloop
  endfacet
  facet normal 0 0 -1
    outer loop
      vertex 15 20 35
      vertex 10 25 35
      vertex 15 25 35
    endloop
  endfacet
  facet normal -1 0 0
    outer loop
      vertex 10 5 35
      vertex 10 25 45
      vertex 10 25 35
    endloop
  endfacet
  facet normal -1 -0 0
    outer loop
      vertex 10 25 45
      vertex 10 5 35
      vertex 10 5 45
    endloop
  endfacet
  facet normal 0 1 -0
    outer loop
      vertex 15 25 35
      vertex 10 25 45
      vertex 15 25 45
    endloop
  endfacet
  facet normal 0 1 0
    outer loop
      vertex 10 25 45
      vertex 15 25 35
      vertex 10 25 35
    endloop
  endfacet
  facet normal 0 -1 0
    outer loop
      vertex 10 5 35
      vertex 15 5 45
      vertex 10 5 45
    endloop
  endfacet
  facet normal 0 -1 -0
    outer loop
      vertex 15 5 45
      vertex 10 5 35
      vertex 15 5 35
    endloop
  endfacet
  facet normal -1 0 0
    outer loop
      vertex 35 5 35
      vertex 35 25 45
      vertex 35 25 35
    endloop
  endfacet
  facet normal -1 -0 0
    outer loop
      vertex 35 25 45
      vertex 35 5 35
      vertex 35 5 45
    endloop
  endfacet
  facet normal 1 0 0
    outer loop
      vertex 15 25 45
      vertex 15 20 35
      vertex 15 25 35
    endloop
  endfacet
  facet normal 1 0 0
    outer loop
      vertex 15 25 45
      vertex 15 10 35
      vertex 15 20 35
    endloop
  endfacet
  facet normal 1 -0 0
    outer loop
      vertex 15 5 45
      vertex 15 10 35
      vertex 15 25 45
    endloop
  endfacet
  facet normal 1 0 0
    outer loop
      vertex 15 10 35
      vertex 15 5 45
      vertex 15 5 35
    endloop
  endfacet
  facet normal 1 -0 0
    outer loop
      vertex 50 0 10
      vertex 50 30 0
      vertex 50 30 10
    endloop
  endfacet
  facet normal 1 0 0
    outer loop
      vertex 50 30 0
      vertex 50 0 10
      vertex 50 0 0
    endloop
  endfacet
  facet normal 0 0 -1
    outer loop
      vertex 0 0 0
      vertex 50 30 0
      vertex 50 0 0
    endloop
  endfacet
  facet normal -0 0 -1
    outer loop
      vertex 50 30 0
      vertex 0 0 0
      vertex 0 30 0
    endloop
  endfacet
  facet normal -1 0 0
    outer loop
      vertex 0 0 0
      vertex 0 30 10
      vertex 0 30 0
    endloop
  endfacet
  facet normal -1 -0 0
    outer loop
      vertex 0 30 10
      vertex 0 0 0
      vertex 0 0 10
    endloop
  endfacet
endsolid OpenSCAD_Model
