solid OpenSCAD_Model
  facet normal 1 -0 0
    outer loop
      vertex 25 -15 0.5
      vertex 25 15 -0.5
      vertex 25 15 0.5
    endloop
  endfacet
  facet normal 1 0 0
    outer loop
      vertex 25 15 -0.5
      vertex 25 -15 0.5
      vertex 25 -15 -0.5
    endloop
  endfacet
  facet normal -0 0 1
    outer loop
      vertex -25 15 0.5
      vertex 25 -15 0.5
      vertex 25 15 0.5
    endloop
  endfacet
  facet normal 0 0 1
    outer loop
      vertex 25 -15 0.5
      vertex -25 15 0.5
      vertex -25 -15 0.5
    endloop
  endfacet
  facet normal 0 0 -1
    outer loop
      vertex -25 -15 -0.5
      vertex 25 15 -0.5
      vertex 25 -15 -0.5
    endloop
  endfacet
  facet normal -0 0 -1
    outer loop
      vertex 25 15 -0.5
      vertex -25 -15 -0.5
      vertex -25 15 -0.5
    endloop
  endfacet
  facet normal -1 0 0
    outer loop
      vertex -25 -15 -0.5
      vertex -25 15 0.5
      vertex -25 15 -0.5
    endloop
  endfacet
  facet normal -1 -0 0
    outer loop
      vertex -25 15 0.5
      vertex -25 -15 -0.5
      vertex -25 -15 0.5
    endloop
  endfacet
  facet normal 0 1 -0
    outer loop
      vertex 25 15 -0.5
      vertex -25 15 0.5
      vertex 25 15 0.5
    endloop
  endfacet
  facet normal 0 1 0
    outer loop
      vertex -25 15 0.5
      vertex 25 15 -0.5
      vertex -25 15 -0.5
    endloop
  endfacet
  facet normal 0 -1 0
    outer loop
      vertex -25 -15 -0.5
      vertex 25 -15 0.5
      vertex -25 -15 0.5
    endloop
  endfacet
  facet normal 0 -1 -0
    outer loop
      vertex 25 -15 0.5
      vertex -25 -15 -0.5
      vertex 25 -15 -0.5
    endloop
  endfacet
  facet normal 1 -0 0
    outer loop
      vertex 25 -15 1.7
      vertex 25 15 0.7
      vertex 25 15 1.7
    endloop
  endfacet
  facet normal 1 0 0
    outer loop
      vertex 25 15 0.7
      vertex 25 -15 1.7
      vertex 25 -15 0.7
    endloop
  endfacet
  facet normal -0 0 1
    outer loop
      vertex -25 15 1.7
      vertex 25 -15 1.7
      vertex 25 15 1.7
    endloop
  endfacet
  facet normal 0 0 1
    outer loop
      vertex 25 -15 1.7
      vertex -25 15 1.7
      vertex -25 -15 1.7
    endloop
  endfacet
  facet normal 0 0 -1
    outer loop
      vertex -25 -15 0.7
      vertex 25 15 0.7
      vertex 25 -15 0.7
    endloop
  endfacet
  facet normal -0 0 -1
    outer loop
      vertex 25 15 0.7
      vertex -25 -15 0.7
      vertex -25 15 0.7
    endloop
  endfacet
  facet normal -1 0 0
    outer loop
      vertex -25 -15 0.7
      vertex -25 15 1.7
      vertex -25 15 0.7
    endloop
  endfacet
  facet normal -1 -0 0
    outer loop
      vertex -25 15 1.7
      vertex -25 -15 0.7
      vertex -25 -15 1.7
    endloop
  endfacet
  facet normal 0 1 -0
    outer loop
      vertex 25 15 0.7
      vertex -25 15 1.7
      vertex 25 15 1.7
    endloop
  endfacet
  facet normal 0 1 0
    outer loop
      vertex -25 15 1.7
      vertex 25 15 0.7
      vertex -25 15 0.7
    endloop
  endfacet
  facet normal 0 -1 0
    outer loop
      vertex -25 -15 0.7
      vertex 25 -15 1.7
      vertex -25 -15 1.7
    endloop
  endfacet
  facet normal 0 -1 -0
    outer loop
      vertex 25 -15 1.7
      vertex -25 -15 0.7
      vertex 25 -15 0.7
    endloop
  endfacet
  facet normal 1 -0 0
    outer loop
      vertex 25 -15 2.9
      vertex 25 15 1.9
      vertex 25 15 2.9
    endloop
  endfacet
  facet normal 1 0 0
    outer loop
      vertex 25 15 1.9
      vertex 25 -15 2.9
      vertex 25 -15 1.9
    endloop
  endfacet
  facet normal -0 0 1
    outer loop
      vertex -25 15 2.9
      vertex 25 -15 2.9
      vertex 25 15 2.9
    endloop
  endfacet
  facet normal 0 0 1
    outer loop
      vertex 25 -15 2.9
      vertex -25 15 2.9
      vertex -25 -15 2.9
    endloop
  endfacet
  facet normal 0 0 -1
    outer loop
      vertex -25 -15 1.9
      vertex 25 15 1.9
      vertex 25 -15 1.9
    endloop
  endfacet
  facet normal -0 0 -1
    outer loop
      vertex 25 15 1.9
      vertex -25 -15 1.9
      vertex -25 15 1.9
    endloop
  endfacet
  facet normal -1 0 0
    outer loop
      vertex -25 -15 1.9
      vertex -25 15 2.9
      vertex -25 15 1.9
    endloop
  endfacet
  facet normal -1 -0 0
    outer loop
      vertex -25 15 2.9
      vertex -25 -15 1.9
      vertex -25 -15 2.9
    endloop
  endfacet
  facet normal 0 1 -0
    outer loop
      vertex 25 15 1.9
      vertex -25 15 2.9
      vertex 25 15 2.9
    endloop
  endfacet
  facet normal 0 1 0
    outer loop
      vertex -25 15 2.9
      vertex 25 15 1.9
      vertex -25 15 1.9
    endloop
  endfacet
  facet normal 0 -1 0
    outer loop
      vertex -25 -15 1.9
      vertex 25 -15 2.9
      vertex -25 -15 2.9
    endloop
  endfacet
  facet normal 0 -1 -0
    outer loop
      vertex 25 -15 2.9
      vertex -25 -15 1.9
      vertex 25 -15 1.9
    endloop
  endfacet
  facet normal 1 -0 0
    outer loop
      vertex 25 -15 4.1
      vertex 25 15 3.1
      vertex 25 15 4.1
    endloop
  endfacet
  facet normal 1 0 0
    outer loop
      vertex 25 15 3.1
      vertex 25 -15 4.1
      vertex 25 -15 3.1
    endloop
  endfacet
  facet normal -0 0 1
    outer loop
      vertex -25 15 4.1
      vertex 25 -15 4.1
      vertex 25 15 4.1
    endloop
  endfacet
  facet normal 0 0 1
    outer loop
      vertex 25 -15 4.1
      vertex -25 15 4.1
      vertex -25 -15 4.1
    endloop
  endfacet
  facet normal 0 0 -1
    outer loop
      vertex -25 -15 3.1
      vertex 25 15 3.1
      vertex 25 -15 3.1
    endloop
  endfacet
  facet normal -0 0 -1
    outer loop
      vertex 25 15 3.1
      vertex -25 -15 3.1
      vertex -25 15 3.1
    endloop
  endfacet
  facet normal -1 0 0
    outer loop
      vertex -25 -15 3.1
      vertex -25 15 4.1
      vertex -25 15 3.1
    endloop
  endfacet
  facet normal -1 -0 0
    outer loop
      vertex -25 15 4.1
      vertex -25 -15 3.1
      vertex -25 -15 4.1
    endloop
  endfacet
  facet normal 0 1 -0
    outer loop
      vertex 25 15 3.1
      vertex -25 15 4.1
      vertex 25 15 4.1
    endloop
  endfacet
  facet normal 0 1 0
    outer loop
      vertex -25 15 4.1
      vertex 25 15 3.1
      vertex -25 15 3.1
    endloop
  endfacet
  facet normal 0 -1 0
    outer loop
      vertex -25 -15 3.1
      vertex 25 -15 4.1
      vertex -25 -15 4.1
    endloop
  endfacet
  facet normal 0 -1 -0
    outer loop
      vertex 25 -15 4.1
      vertex -25 -15 3.1
      vertex 25 -15 3.1
    endloop
  endfacet
  facet normal 1 -0 0
    outer loop
      vertex 25 -15 5.3
      vertex 25 15 4.3
      vertex 25 15 5.3
    endloop
  endfacet
  facet normal 1 0 0
    outer loop
      vertex 25 15 4.3
      vertex 25 -15 5.3
      vertex 25 -15 4.3
    endloop
  endfacet
  facet normal -0 0 1
    outer loop
      vertex -25 15 5.3
      vertex 25 -15 5.3
      vertex 25 15 5.3
    endloop
  endfacet
  facet normal 0 0 1
    outer loop
      vertex 25 -15 5.3
      vertex -25 15 5.3
      vertex -25 -15 5.3
    endloop
  endfacet
  facet normal 0 0 -1
    outer loop
      vertex -25 -15 4.3
      vertex 25 15 4.3
      vertex 25 -15 4.3
    endloop
  endfacet
  facet normal -0 0 -1
    outer loop
      vertex 25 15 4.3
      vertex -25 -15 4.3
      vertex -25 15 4.3
    endloop
  endfacet
  facet normal -1 0 0
    outer loop
      vertex -25 -15 4.3
      vertex -25 15 5.3
      vertex -25 15 4.3
    endloop
  endfacet
  facet normal -1 -0 0
    outer loop
      vertex -25 15 5.3
      vertex -25 -15 4.3
      vertex -25 -15 5.3
    endloop
  endfacet
  facet normal 0 1 -0
    outer loop
      vertex 25 15 4.3
      vertex -25 15 5.3
      vertex 25 15 5.3
    endloop
  endfacet
  facet normal 0 1 0
    outer loop
      vertex -25 15 5.3
      vertex 25 15 4.3
      vertex -25 15 4.3
    endloop
  endfacet
  facet normal 0 -1 0
    outer loop
      vertex -25 -15 4.3
      vertex 25 -15 5.3
      vertex -25 -15 5.3
    endloop
  endfacet
  facet normal 0 -1 -0
    outer loop
      vertex 25 -15 5.3
      vertex -25 -15 4.3
      vertex 25 -15 4.3
    endloop
  endfacet
  facet normal 1 -0 0
    outer loop
      vertex 25 -15 6.5
      vertex 25 15 5.5
      vertex 25 15 6.5
    endloop
  endfacet
  facet normal 1 0 0
    outer loop
      vertex 25 15 5.5
      vertex 25 -15 6.5
      vertex 25 -15 5.5
    endloop
  endfacet
  facet normal -0 0 1
    outer loop
      vertex -25 15 6.5
      vertex 25 -15 6.5
      vertex 25 15 6.5
    endloop
  endfacet
  facet normal 0 0 1
    outer loop
      vertex 25 -15 6.5
      vertex -25 15 6.5
      vertex -25 -15 6.5
    endloop
  endfacet
  facet normal 0 0 -1
    outer loop
      vertex -25 -15 5.5
      vertex 25 15 5.5
      vertex 25 -15 5.5
    endloop
  endfacet
  facet normal -0 0 -1
    outer loop
      vertex 25 15 5.5
      vertex -25 -15 5.5
      vertex -25 15 5.5
    endloop
  endfacet
  facet normal -1 0 0
    outer loop
      vertex -25 -15 5.5
      vertex -25 15 6.5
      vertex -25 15 5.5
    endloop
  endfacet
  facet normal -1 -0 0
    outer loop
      vertex -25 15 6.5
      vertex -25 -15 5.5
      vertex -25 -15 6.5
    endloop
  endfacet
  facet normal 0 1 -0
    outer loop
      vertex 25 15 5.5
      vertex -25 15 6.5
      vertex 25 15 6.5
    endloop
  endfacet
  facet normal 0 1 0
    outer loop
      vertex -25 15 6.5
      vertex 25 15 5.5
      vertex -25 15 5.5
    endloop
  endfacet
  facet normal 0 -1 0
    outer loop
      vertex -25 -15 5.5
      vertex 25 -15 6.5
      vertex -25 -15 6.5
    endloop
  endfacet
  facet normal 0 -1 -0
    outer loop
      vertex 25 -15 6.5
      vertex -25 -15 5.5
      vertex 25 -15 5.5
    endloop
  endfacet
endsolid OpenSCAD_Model
