solid OpenSCAD_Model
  facet normal 1 -0 0
    outer loop
      vertex 10 -2.5 25
      vertex 10 2.5 -25
      vertex 10 2.5 25
    endloop
  endfacet
  facet normal 1 0 0
    outer loop
      vertex 10 2.5 -25
      vertex 10 -2.5 25
      vertex 10 -2.5 -25
    endloop
  endfacet
  facet normal -0 0 1
    outer loop
      vertex 0 5 25
      vertex 4.33013 2.5 25
      vertex 2.83494 9.91025 25
    endloop
  endfacet
  facet normal 0 0 1
    outer loop
      vertex 2.83494 9.91025 25
      vertex 4.33013 2.5 25
      vertex 7.16506 7.41025 25
    endloop
  endfacet
  facet normal -0 0 1
    outer loop
      vertex 4.33013 2.5 25
      vertex 10 -2.5 25
      vertex 10 2.5 25
    endloop
  endfacet
  facet normal 0 0 1
    outer loop
      vertex 10 -2.5 25
      vertex 4.33013 2.5 25
      vertex 4.33013 -2.5 25
    endloop
  endfacet
  facet normal 0 0 1
    outer loop
      vertex 4.33013 -2.5 25
      vertex 2.83494 -9.91025 25
      vertex 7.16506 -7.41025 25
    endloop
  endfacet
  facet normal 0 0 1
    outer loop
      vertex 4.33013 2.5 25
      vertex 0 5 25
      vertex 4.33013 -2.5 25
    endloop
  endfacet
  facet normal 0 0 1
    outer loop
      vertex 0 -5 25
      vertex 4.33013 -2.5 25
      vertex 0 5 25
    endloop
  endfacet
  facet normal 0 0 1
    outer loop
      vertex 4.33013 -2.5 25
      vertex 0 -5 25
      vertex 2.83494 -9.91025 25
    endloop
  endfacet
  facet normal 0 0 1
    outer loop
      vertex -4.33013 2.5 25
      vertex 0 5 25
      vertex -2.83494 9.91025 25
    endloop
  endfacet
  facet normal 0 0 1
    outer loop
      vertex 0 5 25
      vertex -4.33013 2.5 25
      vertex 0 -5 25
    endloop
  endfacet
  facet normal -0 0 1
    outer loop
      vertex -4.33013 -2.5 25
      vertex 0 -5 25
      vertex -4.33013 2.5 25
    endloop
  endfacet
  facet normal 0 -0 1
    outer loop
      vertex -4.33013 2.5 25
      vertex -2.83494 9.91025 25
      vertex -7.16506 7.41025 25
    endloop
  endfacet
  facet normal -0 0 1
    outer loop
      vertex -10 2.5 25
      vertex -4.33013 -2.5 25
      vertex -4.33013 2.5 25
    endloop
  endfacet
  facet normal 0 0 1
    outer loop
      vertex -4.33013 -2.5 25
      vertex -10 2.5 25
      vertex -10 -2.5 25
    endloop
  endfacet
  facet normal 0 0 1
    outer loop
      vertex 0 -5 25
      vertex -4.33013 -2.5 25
      vertex -2.83494 -9.91025 25
    endloop
  endfacet
  facet normal 0 0 1
    outer loop
      vertex -2.83494 -9.91025 25
      vertex -4.33013 -2.5 25
      vertex -7.16506 -7.41025 25
    endloop
  endfacet
  facet normal 0 0 -1
    outer loop
      vertex 0 -5 -25
      vertex 4.33013 -2.5 -25
      vertex 2.83494 -9.91025 -25
    endloop
  endfacet
  facet normal 0 0 -1
    outer loop
      vertex 2.83494 -9.91025 -25
      vertex 4.33013 -2.5 -25
      vertex 7.16506 -7.41025 -25
    endloop
  endfacet
  facet normal 0 0 -1
    outer loop
      vertex 4.33013 -2.5 -25
      vertex 10 2.5 -25
      vertex 10 -2.5 -25
    endloop
  endfacet
  facet normal -0 0 -1
    outer loop
      vertex 10 2.5 -25
      vertex 4.33013 -2.5 -25
      vertex 4.33013 2.5 -25
    endloop
  endfacet
  facet normal 0 0 -1
    outer loop
      vertex 4.33013 2.5 -25
      vertex 2.83494 9.91025 -25
      vertex 7.16506 7.41025 -25
    endloop
  endfacet
  facet normal -0 0 -1
    outer loop
      vertex 4.33013 -2.5 -25
      vertex 0 -5 -25
      vertex 4.33013 2.5 -25
    endloop
  endfacet
  facet normal 0 0 -1
    outer loop
      vertex 0 5 -25
      vertex 4.33013 2.5 -25
      vertex 0 -5 -25
    endloop
  endfacet
  facet normal 0 0 -1
    outer loop
      vertex 4.33013 2.5 -25
      vertex 0 5 -25
      vertex 2.83494 9.91025 -25
    endloop
  endfacet
  facet normal 0 0 -1
    outer loop
      vertex -4.33013 -2.5 -25
      vertex 0 -5 -25
      vertex -2.83494 -9.91025 -25
    endloop
  endfacet
  facet normal 0 0 -1
    outer loop
      vertex 0 -5 -25
      vertex -4.33013 -2.5 -25
      vertex 0 5 -25
    endloop
  endfacet
  facet normal 0 0 -1
    outer loop
      vertex -4.33013 2.5 -25
      vertex 0 5 -25
      vertex -4.33013 -2.5 -25
    endloop
  endfacet
  facet normal 0 -0 -1
    outer loop
      vertex -4.33013 -2.5 -25
      vertex -2.83494 -9.91025 -25
      vertex -7.16506 -7.41025 -25
    endloop
  endfacet
  facet normal 0 0 -1
    outer loop
      vertex -10 -2.5 -25
      vertex -4.33013 2.5 -25
      vertex -4.33013 -2.5 -25
    endloop
  endfacet
  facet normal -0 0 -1
    outer loop
      vertex -4.33013 2.5 -25
      vertex -10 -2.5 -25
      vertex -10 2.5 -25
    endloop
  endfacet
  facet normal -0 0 -1
    outer loop
      vertex 0 5 -25
      vertex -4.33013 2.5 -25
      vertex -2.83494 9.91025 -25
    endloop
  endfacet
  facet normal 0 0 -1
    outer loop
      vertex -2.83494 9.91025 -25
      vertex -4.33013 2.5 -25
      vertex -7.16506 7.41025 -25
    endloop
  endfacet
  facet normal -1 0 0
    outer loop
      vertex -10 -2.5 -25
      vertex -10 2.5 25
      vertex -10 2.5 -25
    endloop
  endfacet
  facet normal -1 -0 0
    outer loop
      vertex -10 2.5 25
      vertex -10 -2.5 -25
      vertex -10 -2.5 25
    endloop
  endfacet
  facet normal 0 1 -0
    outer loop
      vertex 10 2.5 -25
      vertex 4.33013 2.5 25
      vertex 10 2.5 25
    endloop
  endfacet
  facet normal 0 1 0
    outer loop
      vertex 4.33013 2.5 25
      vertex 10 2.5 -25
      vertex 4.33013 2.5 -25
    endloop
  endfacet
  facet normal 0 1 -0
    outer loop
      vertex -4.33013 2.5 -25
      vertex -10 2.5 25
      vertex -4.33013 2.5 25
    endloop
  endfacet
  facet normal 0 1 0
    outer loop
      vertex -10 2.5 25
      vertex -4.33013 2.5 -25
      vertex -10 2.5 -25
    endloop
  endfacet
  facet normal 0 -1 0
    outer loop
      vertex 4.33013 -2.5 -25
      vertex 10 -2.5 25
      vertex 4.33013 -2.5 25
    endloop
  endfacet
  facet normal 0 -1 -0
    outer loop
      vertex 10 -2.5 25
      vertex 4.33013 -2.5 -25
      vertex 10 -2.5 -25
    endloop
  endfacet
  facet normal 0 -1 0
    outer loop
      vertex -10 -2.5 -25
      vertex -4.33013 -2.5 25
      vertex -10 -2.5 25
    endloop
  endfacet
  facet normal 0 -1 -0
    outer loop
      vertex -4.33013 -2.5 25
      vertex -10 -2.5 -25
      vertex -4.33013 -2.5 -25
    endloop
  endfacet
  facet normal -0.500001 -0.866025 0
    outer loop
      vertex -7.16506 -7.41025 -25
      vertex -2.83494 -9.91025 25
      vertex -7.16506 -7.41025 25
    endloop
  endfacet
  facet normal -0.500001 -0.866025 -0
    outer loop
      vertex -2.83494 -9.91025 25
      vertex -7.16506 -7.41025 -25
      vertex -2.83494 -9.91025 -25
    endloop
  endfacet
  facet normal -0.866026 0.499999 0
    outer loop
      vertex -7.16506 -7.41025 -25
      vertex -4.33013 -2.5 25
      vertex -4.33013 -2.5 -25
    endloop
  endfacet
  facet normal -0.866026 0.499999 0
    outer loop
      vertex -4.33013 -2.5 25
      vertex -7.16506 -7.41025 -25
      vertex -7.16506 -7.41025 25
    endloop
  endfacet
  facet normal -0.866025 0.500001 0
    outer loop
      vertex 0 5 -25
      vertex 2.83494 9.91025 25
      vertex 2.83494 9.91025 -25
    endloop
  endfacet
  facet normal -0.866025 0.500001 0
    outer loop
      vertex 2.83494 9.91025 25
      vertex 0 5 -25
      vertex 0 5 25
    endloop
  endfacet
  facet normal 0.866025 -0.500001 0
    outer loop
      vertex -2.83494 -9.91025 25
      vertex 0 -5 -25
      vertex 0 -5 25
    endloop
  endfacet
  facet normal 0.866025 -0.500001 0
    outer loop
      vertex 0 -5 -25
      vertex -2.83494 -9.91025 25
      vertex -2.83494 -9.91025 -25
    endloop
  endfacet
  facet normal 0.866026 -0.499999 0
    outer loop
      vertex 4.33013 2.5 25
      vertex 7.16506 7.41025 -25
      vertex 7.16506 7.41025 25
    endloop
  endfacet
  facet normal 0.866026 -0.499999 0
    outer loop
      vertex 7.16506 7.41025 -25
      vertex 4.33013 2.5 25
      vertex 4.33013 2.5 -25
    endloop
  endfacet
  facet normal 0.500001 0.866025 -0
    outer loop
      vertex 7.16506 7.41025 -25
      vertex 2.83494 9.91025 25
      vertex 7.16506 7.41025 25
    endloop
  endfacet
  facet normal 0.500001 0.866025 0
    outer loop
      vertex 2.83494 9.91025 25
      vertex 7.16506 7.41025 -25
      vertex 2.83494 9.91025 -25
    endloop
  endfacet
  facet normal -0.500001 0.866025 0
    outer loop
      vertex -2.83494 9.91025 -25
      vertex -7.16506 7.41025 25
      vertex -2.83494 9.91025 25
    endloop
  endfacet
  facet normal -0.500001 0.866025 0
    outer loop
      vertex -7.16506 7.41025 25
      vertex -2.83494 9.91025 -25
      vertex -7.16506 7.41025 -25
    endloop
  endfacet
  facet normal 0.500001 -0.866025 0
    outer loop
      vertex 2.83494 -9.91025 -25
      vertex 7.16506 -7.41025 25
      vertex 2.83494 -9.91025 25
    endloop
  endfacet
  facet normal 0.500001 -0.866025 0
    outer loop
      vertex 7.16506 -7.41025 25
      vertex 2.83494 -9.91025 -25
      vertex 7.16506 -7.41025 -25
    endloop
  endfacet
  facet normal -0.866026 -0.499999 0
    outer loop
      vertex -4.33013 2.5 -25
      vertex -7.16506 7.41025 25
      vertex -7.16506 7.41025 -25
    endloop
  endfacet
  facet normal -0.866026 -0.499999 0
    outer loop
      vertex -7.16506 7.41025 25
      vertex -4.33013 2.5 -25
      vertex -4.33013 2.5 25
    endloop
  endfacet
  facet normal -0.866025 -0.500001 0
    outer loop
      vertex 2.83494 -9.91025 -25
      vertex 0 -5 25
      vertex 0 -5 -25
    endloop
  endfacet
  facet normal -0.866025 -0.500001 0
    outer loop
      vertex 0 -5 25
      vertex 2.83494 -9.91025 -25
      vertex 2.83494 -9.91025 25
    endloop
  endfacet
  facet normal 0.866025 0.500001 0
    outer loop
      vertex 0 5 25
      vertex -2.83494 9.91025 -25
      vertex -2.83494 9.91025 25
    endloop
  endfacet
  facet normal 0.866025 0.500001 0
    outer loop
      vertex -2.83494 9.91025 -25
      vertex 0 5 25
      vertex 0 5 -25
    endloop
  endfacet
  facet normal 0.866026 0.499999 0
    outer loop
      vertex 7.16506 -7.41025 25
      vertex 4.33013 -2.5 -25
      vertex 4.33013 -2.5 25
    endloop
  endfacet
  facet normal 0.866026 0.499999 0
    outer loop
      vertex 4.33013 -2.5 -25
      vertex 7.16506 -7.41025 25
      vertex 7.16506 -7.41025 -25
    endloop
  endfacet
endsolid OpenSCAD_Model
