solid OpenSCAD_Model
  facet normal 0.499998 0.866027 -0
    outer loop
      vertex 2.06832 1.73553 7
      vertex 0.468849 2.65898 12.5
      vertex 2.06832 1.73553 12.5
    endloop
  endfacet
  facet normal 0.499998 0.866027 0
    outer loop
      vertex 0.468849 2.65898 12.5
      vertex 2.06832 1.73553 7
      vertex 0.468849 2.65898 7
    endloop
  endfacet
  facet normal 0.939693 0.34202 0
    outer loop
      vertex 2.7 0 12.5
      vertex 2.06832 1.73553 7
      vertex 2.06832 1.73553 12.5
    endloop
  endfacet
  facet normal 0.939693 0.34202 0
    outer loop
      vertex 2.06832 1.73553 7
      vertex 2.7 0 12.5
      vertex 2.7 0 7
    endloop
  endfacet
  facet normal -0.173647 0.984808 0
    outer loop
      vertex 0.468849 2.65898 7
      vertex -1.35 2.33827 12.5
      vertex 0.468849 2.65898 12.5
    endloop
  endfacet
  facet normal -0.173647 0.984808 0
    outer loop
      vertex -1.35 2.33827 12.5
      vertex 0.468849 2.65898 7
      vertex -1.35 2.33827 7
    endloop
  endfacet
  facet normal 0.939693 -0.34202 0
    outer loop
      vertex 2.06832 -1.73553 12.5
      vertex 2.7 0 7
      vertex 2.7 0 12.5
    endloop
  endfacet
  facet normal 0.939693 -0.34202 0
    outer loop
      vertex 2.7 0 7
      vertex 2.06832 -1.73553 12.5
      vertex 2.06832 -1.73553 7
    endloop
  endfacet
  facet normal -0.766045 0.642787 0
    outer loop
      vertex -2.53717 0.923454 7
      vertex -1.35 2.33827 12.5
      vertex -1.35 2.33827 7
    endloop
  endfacet
  facet normal -0.766045 0.642787 0
    outer loop
      vertex -1.35 2.33827 12.5
      vertex -2.53717 0.923454 7
      vertex -2.53717 0.923454 12.5
    endloop
  endfacet
  facet normal 0.499998 -0.866027 0
    outer loop
      vertex 0.468849 -2.65898 7
      vertex 2.06832 -1.73553 12.5
      vertex 0.468849 -2.65898 12.5
    endloop
  endfacet
  facet normal 0.499998 -0.866027 0
    outer loop
      vertex 2.06832 -1.73553 12.5
      vertex 0.468849 -2.65898 7
      vertex 2.06832 -1.73553 7
    endloop
  endfacet
  facet normal -0.173647 -0.984808 0
    outer loop
      vertex -1.35 -2.33827 7
      vertex 0.468849 -2.65898 12.5
      vertex -1.35 -2.33827 12.5
    endloop
  endfacet
  facet normal -0.173647 -0.984808 -0
    outer loop
      vertex 0.468849 -2.65898 12.5
      vertex -1.35 -2.33827 7
      vertex 0.468849 -2.65898 7
    endloop
  endfacet
  facet normal -0.766045 -0.642787 0
    outer loop
      vertex -1.35 -2.33827 7
      vertex -2.53717 -0.923454 12.5
      vertex -2.53717 -0.923454 7
    endloop
  endfacet
  facet normal -0.766045 -0.642787 0
    outer loop
      vertex -2.53717 -0.923454 12.5
      vertex -1.35 -2.33827 7
      vertex -1.35 -2.33827 12.5
    endloop
  endfacet
  facet normal -1 0 0
    outer loop
      vertex -2.53717 -0.923454 7
      vertex -2.53717 0.923454 12.5
      vertex -2.53717 0.923454 7
    endloop
  endfacet
  facet normal -1 -0 0
    outer loop
      vertex -2.53717 0.923454 12.5
      vertex -2.53717 -0.923454 7
      vertex -2.53717 -0.923454 12.5
    endloop
  endfacet
  facet normal 0 0 -1
    outer loop
      vertex 1.25 0 7
      vertex 2.7 0 7
      vertex 2.06832 -1.73553 7
    endloop
  endfacet
  facet normal 0 0 -1
    outer loop
      vertex 2.7 0 7
      vertex 1.25 0 7
      vertex 2.06832 1.73553 7
    endloop
  endfacet
  facet normal 0 0 -1
    outer loop
      vertex 0.386271 -1.18882 7
      vertex 2.06832 -1.73553 7
      vertex 0.468849 -2.65898 7
    endloop
  endfacet
  facet normal 0 0 -1
    outer loop
      vertex 2.06832 -1.73553 7
      vertex 0.386271 -1.18882 7
      vertex 1.25 0 7
    endloop
  endfacet
  facet normal 0 0 -1
    outer loop
      vertex -1.35 -2.33827 7
      vertex 0.386271 -1.18882 7
      vertex 0.468849 -2.65898 7
    endloop
  endfacet
  facet normal 0 0 -1
    outer loop
      vertex -2.53717 -0.923454 7
      vertex -1.01127 -0.734731 7
      vertex -1.35 -2.33827 7
    endloop
  endfacet
  facet normal -0 0 -1
    outer loop
      vertex 0.386271 -1.18882 7
      vertex -1.35 -2.33827 7
      vertex -1.01127 -0.734731 7
    endloop
  endfacet
  facet normal 0 0 -1
    outer loop
      vertex 0.386271 1.18882 7
      vertex 2.06832 1.73553 7
      vertex 1.25 0 7
    endloop
  endfacet
  facet normal -0 0 -1
    outer loop
      vertex 2.06832 1.73553 7
      vertex 0.386271 1.18882 7
      vertex 0.468849 2.65898 7
    endloop
  endfacet
  facet normal 0 0 -1
    outer loop
      vertex -1.35 2.33827 7
      vertex 0.386271 1.18882 7
      vertex -1.01127 0.734731 7
    endloop
  endfacet
  facet normal 0 0 -1
    outer loop
      vertex 0.386271 1.18882 7
      vertex -1.35 2.33827 7
      vertex 0.468849 2.65898 7
    endloop
  endfacet
  facet normal -0 0 -1
    outer loop
      vertex -1.01127 -0.734731 7
      vertex -2.53717 -0.923454 7
      vertex -1.01127 0.734731 7
    endloop
  endfacet
  facet normal 0 0 -1
    outer loop
      vertex -2.53717 0.923454 7
      vertex -1.01127 0.734731 7
      vertex -2.53717 -0.923454 7
    endloop
  endfacet
  facet normal 0 0 -1
    outer loop
      vertex -1.01127 0.734731 7
      vertex -2.53717 0.923454 7
      vertex -1.35 2.33827 7
    endloop
  endfacet
  facet normal 0.309017 0.951056 -0
    outer loop
      vertex 0.386271 -1.18882 7
      vertex -1.01127 -0.734731 12.5
      vertex 0.386271 -1.18882 12.5
    endloop
  endfacet
  facet normal 0.309017 0.951056 0
    outer loop
      vertex -1.01127 -0.734731 12.5
      vertex 0.386271 -1.18882 7
      vertex -1.01127 -0.734731 7
    endloop
  endfacet
  facet normal 0.309017 -0.951056 0
    outer loop
      vertex -1.01127 0.734731 7
      vertex 0.386271 1.18882 12.5
      vertex -1.01127 0.734731 12.5
    endloop
  endfacet
  facet normal 0.309017 -0.951056 0
    outer loop
      vertex 0.386271 1.18882 12.5
      vertex -1.01127 0.734731 7
      vertex 0.386271 1.18882 7
    endloop
  endfacet
  facet normal -0.809017 -0.587786 0
    outer loop
      vertex 1.25 0 7
      vertex 0.386271 1.18882 12.5
      vertex 0.386271 1.18882 7
    endloop
  endfacet
  facet normal -0.809017 -0.587786 0
    outer loop
      vertex 0.386271 1.18882 12.5
      vertex 1.25 0 7
      vertex 1.25 0 12.5
    endloop
  endfacet
  facet normal 1 -0 0
    outer loop
      vertex -1.01127 -0.734731 12.5
      vertex -1.01127 0.734731 7
      vertex -1.01127 0.734731 12.5
    endloop
  endfacet
  facet normal 1 0 0
    outer loop
      vertex -1.01127 0.734731 7
      vertex -1.01127 -0.734731 12.5
      vertex -1.01127 -0.734731 7
    endloop
  endfacet
  facet normal -0.809017 0.587786 0
    outer loop
      vertex 0.386271 -1.18882 7
      vertex 1.25 0 12.5
      vertex 1.25 0 7
    endloop
  endfacet
  facet normal -0.809017 0.587786 0
    outer loop
      vertex 1.25 0 12.5
      vertex 0.386271 -1.18882 7
      vertex 0.386271 -1.18882 12.5
    endloop
  endfacet
  facet normal -0.923878 -0.382686 0
    outer loop
      vertex -2.45 0 -0.5
      vertex -2.21462 -0.568253 0
      vertex -2.45 0 0
    endloop
  endfacet
  facet normal -0.923899 -0.382637 0
    outer loop
      vertex -2.21462 -0.568253 0
      vertex -2.19394 -0.618186 2.79914
      vertex -2.21462 -0.568253 2.76286
    endloop
  endfacet
  facet normal -0.92388 -0.382683 -9.63711e-07
    outer loop
      vertex -1.73241 -1.73241 -0.5
      vertex -2.19394 -0.618186 2.79914
      vertex -2.21462 -0.568253 0
    endloop
  endfacet
  facet normal -0.923881 -0.382681 -0
    outer loop
      vertex -1.73241 -1.73241 6.5
      vertex -2.11283 -0.813988 4
      vertex -1.73241 -1.73241 -0.5
    endloop
  endfacet
  facet normal -0.923876 -0.382693 2.8925e-06
    outer loop
      vertex -2.19394 -0.618186 2.79914
      vertex -1.73241 -1.73241 -0.5
      vertex -2.11283 -0.813988 4
    endloop
  endfacet
  facet normal -0.923879 -0.382684 2.1284e-06
    outer loop
      vertex -1.73241 -1.73241 -0.5
      vertex -2.21462 -0.568253 0
      vertex -2.45 0 -0.5
    endloop
  endfacet
  facet normal -0.923899 -0.382637 0
    outer loop
      vertex -2.21462 -0.568253 2.95282
      vertex -2.19394 -0.618186 2.79914
      vertex -2.21462 -0.568253 3
    endloop
  endfacet
  facet normal -0.923886 -0.382668 -1.77031e-05
    outer loop
      vertex -2.21462 -0.568253 3
      vertex -2.29175 -0.38206 3.52586
      vertex -2.22097 -0.552922 3
    endloop
  endfacet
  facet normal -0.923871 -0.382704 -2.79749e-06
    outer loop
      vertex -2.11283 -0.813988 4
      vertex -2.29175 -0.38206 3.52586
      vertex -2.21462 -0.568253 3
    endloop
  endfacet
  facet normal -0.923887 -0.382665 8.19075e-06
    outer loop
      vertex -2.11283 -0.813988 4
      vertex -2.21462 -0.568253 3
      vertex -2.19394 -0.618186 2.79914
    endloop
  endfacet
  facet normal -0.923879 -0.382686 1.61356e-05
    outer loop
      vertex -2.29175 -0.38206 3.52586
      vertex -2.11283 -0.813988 4
      vertex -2.27569 -0.420812 4
    endloop
  endfacet
  facet normal -0.923883 -0.382674 1.72363e-05
    outer loop
      vertex -2.27569 -0.420812 4
      vertex -2.45 0 3.52586
      vertex -2.29175 -0.38206 3.52586
    endloop
  endfacet
  facet normal -0.923876 -0.382691 0
    outer loop
      vertex -2.45 0 3.52586
      vertex -2.27569 -0.420812 4
      vertex -2.45 0 4.25
    endloop
  endfacet
  facet normal -0.923876 -0.382691 0
    outer loop
      vertex -2.45 0 4.25
      vertex -2.27569 -0.420812 4
      vertex -2.27569 -0.420812 4.25
    endloop
  endfacet
  facet normal -0.923877 -0.382688 0
    outer loop
      vertex -2.11283 -0.813988 5
      vertex -2.45 0 6.5
      vertex -2.45 0 5
    endloop
  endfacet
  facet normal -0.923879 -0.382684 -2.49964e-06
    outer loop
      vertex -2.11283 -0.813988 5
      vertex -1.73241 -1.73241 6.5
      vertex -2.45 0 6.5
    endloop
  endfacet
  facet normal -0.923881 -0.382681 0
    outer loop
      vertex -2.11283 -0.813988 4
      vertex -1.73241 -1.73241 6.5
      vertex -2.11283 -0.813988 5
    endloop
  endfacet
  facet normal -0.923876 -0.382691 0
    outer loop
      vertex -2.27569 -0.420812 1.75
      vertex -2.45 0 2.35
      vertex -2.45 0 1.75
    endloop
  endfacet
  facet normal -0.923876 -0.382691 0
    outer loop
      vertex -2.45 0 2.35
      vertex -2.27569 -0.420812 1.75
      vertex -2.27569 -0.420812 2.65574
    endloop
  endfacet
  facet normal 0.382684 0.923879 -0
    outer loop
      vertex 1.73241 1.73241 -0.5
      vertex 0 2.45 6.5
      vertex 1.73241 1.73241 6.5
    endloop
  endfacet
  facet normal 0.382684 0.923879 0
    outer loop
      vertex 0 2.45 6.5
      vertex 1.73241 1.73241 -0.5
      vertex 0 2.45 -0.5
    endloop
  endfacet
  facet normal 0.92388 0.382682 0
    outer loop
      vertex 2.45 0 4.25
      vertex 2.25107 0.480262 4
      vertex 2.25107 0.480262 4.25
    endloop
  endfacet
  facet normal 0.92388 0.382682 -0
    outer loop
      vertex 2.45 0 3.52586
      vertex 2.25107 0.480262 4
      vertex 2.45 0 4.25
    endloop
  endfacet
  facet normal 0.923883 0.382674 8.84511e-06
    outer loop
      vertex 2.25107 0.480262 4
      vertex 2.45 0 3.52586
      vertex 2.29175 0.38206 3.52586
    endloop
  endfacet
  facet normal 0.923876 0.382692 -9.68064e-06
    outer loop
      vertex 2.29175 0.38206 3.52586
      vertex 2.1637 0.691179 3
      vertex 2.08607 0.878615 4
    endloop
  endfacet
  facet normal 0.923882 0.382677 8.169e-06
    outer loop
      vertex 2.29175 0.38206 3.52586
      vertex 2.08607 0.878615 4
      vertex 2.25107 0.480262 4
    endloop
  endfacet
  facet normal 0.923875 0.382695 -7.1634e-06
    outer loop
      vertex 2.1637 0.691179 3
      vertex 2.29175 0.38206 3.52586
      vertex 2.22097 0.552922 3
    endloop
  endfacet
  facet normal 0.923877 0.382689 -0
    outer loop
      vertex 2.08607 0.878615 4
      vertex 1.73241 1.73241 6.5
      vertex 2.08607 0.878615 5
    endloop
  endfacet
  facet normal 0.923879 0.382684 3.33007e-06
    outer loop
      vertex 2.45 0 6.5
      vertex 2.08607 0.878615 5
      vertex 1.73241 1.73241 6.5
    endloop
  endfacet
  facet normal 0.923881 0.38268 0
    outer loop
      vertex 2.08607 0.878615 5
      vertex 2.45 0 6.5
      vertex 2.45 0 5
    endloop
  endfacet
  facet normal 0.923877 0.382689 0
    outer loop
      vertex 1.73241 1.73241 6.5
      vertex 2.08607 0.878615 4
      vertex 1.73241 1.73241 -0.5
    endloop
  endfacet
  facet normal 0.923886 0.382669 -4.63229e-06
    outer loop
      vertex 2.1637 0.691179 3
      vertex 1.73241 1.73241 -0.5
      vertex 2.08607 0.878615 4
    endloop
  endfacet
  facet normal 0.92388 0.382682 -0
    outer loop
      vertex 2.1637 0.691179 0
      vertex 1.73241 1.73241 -0.5
      vertex 2.1637 0.691179 3
    endloop
  endfacet
  facet normal 0.923878 0.382688 -0
    outer loop
      vertex 2.45 0 -0.5
      vertex 2.1637 0.691179 0
      vertex 2.45 0 0
    endloop
  endfacet
  facet normal 0.923879 0.382684 6.23352e-06
    outer loop
      vertex 2.1637 0.691179 0
      vertex 2.45 0 -0.5
      vertex 1.73241 1.73241 -0.5
    endloop
  endfacet
  facet normal 0.92388 0.382682 0
    outer loop
      vertex 2.45 0 2.35
      vertex 2.25107 0.480262 1.75
      vertex 2.25107 0.480262 2.69893
    endloop
  endfacet
  facet normal 0.92388 0.382682 0
    outer loop
      vertex 2.25107 0.480262 1.75
      vertex 2.45 0 2.35
      vertex 2.45 0 1.75
    endloop
  endfacet
  facet normal 0.923881 -0.38268 0
    outer loop
      vertex 2.45 0 6.5
      vertex 2.08607 -0.878615 5
      vertex 2.45 0 5
    endloop
  endfacet
  facet normal 0.923877 -0.382689 0
    outer loop
      vertex 2.08607 -0.878615 5
      vertex 1.73241 -1.73241 6.5
      vertex 2.08607 -0.878615 4
    endloop
  endfacet
  facet normal 0.923879 -0.382684 3.33007e-06
    outer loop
      vertex 1.73241 -1.73241 6.5
      vertex 2.08607 -0.878615 5
      vertex 2.45 0 6.5
    endloop
  endfacet
  facet normal 0.92388 -0.382682 0
    outer loop
      vertex 2.25107 -0.480262 4
      vertex 2.45 0 3.52586
      vertex 2.45 0 4.25
    endloop
  endfacet
  facet normal 0.92388 -0.382682 0
    outer loop
      vertex 2.25107 -0.480262 4
      vertex 2.45 0 4.25
      vertex 2.25107 -0.480262 4.25
    endloop
  endfacet
  facet normal 0.923883 -0.382674 8.84511e-06
    outer loop
      vertex 2.45 0 3.52586
      vertex 2.25107 -0.480262 4
      vertex 2.29175 -0.38206 3.52586
    endloop
  endfacet
  facet normal 0.923882 -0.382677 8.169e-06
    outer loop
      vertex 2.08607 -0.878615 4
      vertex 2.29175 -0.38206 3.52586
      vertex 2.25107 -0.480262 4
    endloop
  endfacet
  facet normal 0.923875 -0.382695 -7.1634e-06
    outer loop
      vertex 2.29175 -0.38206 3.52586
      vertex 2.1637 -0.691179 3
      vertex 2.22097 -0.552922 3
    endloop
  endfacet
  facet normal 0.923886 -0.382669 -4.63229e-06
    outer loop
      vertex 1.73241 -1.73241 -0.5
      vertex 2.1637 -0.691179 3
      vertex 2.08607 -0.878615 4
    endloop
  endfacet
  facet normal 0.923876 -0.382692 -9.68064e-06
    outer loop
      vertex 2.29175 -0.38206 3.52586
      vertex 2.08607 -0.878615 4
      vertex 2.1637 -0.691179 3
    endloop
  endfacet
  facet normal 0.923878 -0.382688 0
    outer loop
      vertex 2.1637 -0.691179 0
      vertex 2.45 0 -0.5
      vertex 2.45 0 0
    endloop
  endfacet
  facet normal 0.923877 -0.382689 0
    outer loop
      vertex 1.73241 -1.73241 -0.5
      vertex 2.08607 -0.878615 4
      vertex 1.73241 -1.73241 6.5
    endloop
  endfacet
  facet normal 0.923879 -0.382684 6.23352e-06
    outer loop
      vertex 2.1637 -0.691179 0
      vertex 1.73241 -1.73241 -0.5
      vertex 2.45 0 -0.5
    endloop
  endfacet
  facet normal 0.92388 -0.382682 0
    outer loop
      vertex 2.1637 -0.691179 3
      vertex 1.73241 -1.73241 -0.5
      vertex 2.1637 -0.691179 0
    endloop
  endfacet
  facet normal 0.92388 -0.382682 0
    outer loop
      vertex 2.25107 -0.480262 1.75
      vertex 2.45 0 2.35
      vertex 2.25107 -0.480262 2.69893
    endloop
  endfacet
  facet normal 0.92388 -0.382682 0
    outer loop
      vertex 2.45 0 2.35
      vertex 2.25107 -0.480262 1.75
      vertex 2.45 0 1.75
    endloop
  endfacet
  facet normal -0.382684 -0.923879 0
    outer loop
      vertex -1.73241 -1.73241 -0.5
      vertex 0 -2.45 6.5
      vertex -1.73241 -1.73241 6.5
    endloop
  endfacet
  facet normal -0.382684 -0.923879 -0
    outer loop
      vertex 0 -2.45 6.5
      vertex -1.73241 -1.73241 -0.5
      vertex 0 -2.45 -0.5
    endloop
  endfacet
  facet normal -0.382684 0.923879 0
    outer loop
      vertex 0 2.45 -0.5
      vertex -1.73241 1.73241 6.5
      vertex 0 2.45 6.5
    endloop
  endfacet
  facet normal -0.382684 0.923879 0
    outer loop
      vertex -1.73241 1.73241 6.5
      vertex 0 2.45 -0.5
      vertex -1.73241 1.73241 -0.5
    endloop
  endfacet
  facet normal -0.923881 0.382681 0
    outer loop
      vertex -1.73241 1.73241 -0.5
      vertex -2.11283 0.813988 4
      vertex -1.73241 1.73241 6.5
    endloop
  endfacet
  facet normal -0.923876 0.382693 2.8925e-06
    outer loop
      vertex -1.73241 1.73241 -0.5
      vertex -2.19394 0.618186 2.79914
      vertex -2.11283 0.813988 4
    endloop
  endfacet
  facet normal -0.92388 0.382683 -9.63711e-07
    outer loop
      vertex -1.73241 1.73241 -0.5
      vertex -2.21462 0.568253 0
      vertex -2.19394 0.618186 2.79914
    endloop
  endfacet
  facet normal -0.923879 0.382684 2.1284e-06
    outer loop
      vertex -2.45 0 -0.5
      vertex -2.21462 0.568253 0
      vertex -1.73241 1.73241 -0.5
    endloop
  endfacet
  facet normal -0.923878 0.382686 0
    outer loop
      vertex -2.21462 0.568253 0
      vertex -2.45 0 -0.5
      vertex -2.45 0 0
    endloop
  endfacet
  facet normal -0.923881 0.382681 0
    outer loop
      vertex -2.11283 0.813988 5
      vertex -1.73241 1.73241 6.5
      vertex -2.11283 0.813988 4
    endloop
  endfacet
  facet normal -0.923877 0.382688 0
    outer loop
      vertex -2.45 0 6.5
      vertex -2.11283 0.813988 5
      vertex -2.45 0 5
    endloop
  endfacet
  facet normal -0.923879 0.382684 -2.49964e-06
    outer loop
      vertex -2.11283 0.813988 5
      vertex -2.45 0 6.5
      vertex -1.73241 1.73241 6.5
    endloop
  endfacet
  facet normal -0.923899 0.382637 0
    outer loop
      vertex -2.21462 0.568253 3
      vertex -2.19394 0.618186 2.79914
      vertex -2.21462 0.568253 2.95282
    endloop
  endfacet
  facet normal -0.923887 0.382665 8.19075e-06
    outer loop
      vertex -2.19394 0.618186 2.79914
      vertex -2.21462 0.568253 3
      vertex -2.11283 0.813988 4
    endloop
  endfacet
  facet normal -0.923886 0.382668 -1.77031e-05
    outer loop
      vertex -2.29175 0.38206 3.52586
      vertex -2.21462 0.568253 3
      vertex -2.22097 0.552922 3
    endloop
  endfacet
  facet normal -0.923871 0.382704 -2.79749e-06
    outer loop
      vertex -2.21462 0.568253 3
      vertex -2.29175 0.38206 3.52586
      vertex -2.11283 0.813988 4
    endloop
  endfacet
  facet normal -0.923879 0.382686 1.61356e-05
    outer loop
      vertex -2.11283 0.813988 4
      vertex -2.29175 0.38206 3.52586
      vertex -2.27569 0.420812 4
    endloop
  endfacet
  facet normal -0.923883 0.382674 1.72363e-05
    outer loop
      vertex -2.45 0 3.52586
      vertex -2.27569 0.420812 4
      vertex -2.29175 0.38206 3.52586
    endloop
  endfacet
  facet normal -0.923876 0.382691 0
    outer loop
      vertex -2.27569 0.420812 4
      vertex -2.45 0 3.52586
      vertex -2.45 0 4.25
    endloop
  endfacet
  facet normal -0.923876 0.382691 0
    outer loop
      vertex -2.27569 0.420812 4
      vertex -2.45 0 4.25
      vertex -2.27569 0.420812 4.25
    endloop
  endfacet
  facet normal -0.923899 0.382637 0
    outer loop
      vertex -2.19394 0.618186 2.79914
      vertex -2.21462 0.568253 0
      vertex -2.21462 0.568253 2.76286
    endloop
  endfacet
  facet normal -0.923876 0.382691 0
    outer loop
      vertex -2.45 0 2.35
      vertex -2.27569 0.420812 1.75
      vertex -2.45 0 1.75
    endloop
  endfacet
  facet normal -0.923876 0.382691 0
    outer loop
      vertex -2.27569 0.420812 1.75
      vertex -2.45 0 2.35
      vertex -2.27569 0.420812 2.65574
    endloop
  endfacet
  facet normal 0.382684 -0.923879 0
    outer loop
      vertex 0 -2.45 -0.5
      vertex 1.73241 -1.73241 6.5
      vertex 0 -2.45 6.5
    endloop
  endfacet
  facet normal 0.382684 -0.923879 0
    outer loop
      vertex 1.73241 -1.73241 6.5
      vertex 0 -2.45 -0.5
      vertex 1.73241 -1.73241 -0.5
    endloop
  endfacet
  facet normal 0 0 1
    outer loop
      vertex 1.73241 1.73241 6.5
      vertex 1.73241 -1.73241 6.5
      vertex 2.45 0 6.5
    endloop
  endfacet
  facet normal 0 0 1
    outer loop
      vertex 0 2.45 6.5
      vertex 1.73241 -1.73241 6.5
      vertex 1.73241 1.73241 6.5
    endloop
  endfacet
  facet normal 0 0 1
    outer loop
      vertex 0 2.45 6.5
      vertex 0 -2.45 6.5
      vertex 1.73241 -1.73241 6.5
    endloop
  endfacet
  facet normal -0 0 1
    outer loop
      vertex -1.73241 1.73241 6.5
      vertex 0 -2.45 6.5
      vertex 0 2.45 6.5
    endloop
  endfacet
  facet normal 0 0 1
    outer loop
      vertex -1.73241 1.73241 6.5
      vertex -1.73241 -1.73241 6.5
      vertex 0 -2.45 6.5
    endloop
  endfacet
  facet normal 0 -0 1
    outer loop
      vertex -1.73241 -1.73241 6.5
      vertex -1.73241 1.73241 6.5
      vertex -2.45 0 6.5
    endloop
  endfacet
  facet normal 0 0 -1
    outer loop
      vertex 1.73241 -1.73241 -0.5
      vertex 1.73241 1.73241 -0.5
      vertex 2.45 0 -0.5
    endloop
  endfacet
  facet normal 0 0 -1
    outer loop
      vertex 0 -2.45 -0.5
      vertex 1.73241 1.73241 -0.5
      vertex 1.73241 -1.73241 -0.5
    endloop
  endfacet
  facet normal 0 0 -1
    outer loop
      vertex 0 -2.45 -0.5
      vertex 0 2.45 -0.5
      vertex 1.73241 1.73241 -0.5
    endloop
  endfacet
  facet normal 0 0 -1
    outer loop
      vertex -1.73241 -1.73241 -0.5
      vertex 0 2.45 -0.5
      vertex 0 -2.45 -0.5
    endloop
  endfacet
  facet normal 0 0 -1
    outer loop
      vertex -1.73241 -1.73241 -0.5
      vertex -1.73241 1.73241 -0.5
      vertex 0 2.45 -0.5
    endloop
  endfacet
  facet normal 0 -0 -1
    outer loop
      vertex -1.73241 1.73241 -0.5
      vertex -1.73241 -1.73241 -0.5
      vertex -2.45 0 -0.5
    endloop
  endfacet
  facet normal 0 -0.951053 -0.309027
    outer loop
      vertex 2.1309 0.552922 3
      vertex 2.18541 0.570634 2.94549
      vertex 2.19828 0.552922 3
    endloop
  endfacet
  facet normal 0 -0.951056 -0.30902
    outer loop
      vertex -1.69914 0.618186 2.79914
      vertex 1.7382 0.552922 3
      vertex -1.65172 0.552922 3
    endloop
  endfacet
  facet normal 0 -0.951056 -0.30902
    outer loop
      vertex 1.7382 0.552922 3
      vertex -1.69914 0.618186 2.79914
      vertex 1.93906 0.618186 2.79914
    endloop
  endfacet
  facet normal 0 -0.951053 -0.309027
    outer loop
      vertex -1.8691 0.552922 3
      vertex -1.81459 0.570634 2.94549
      vertex -1.80172 0.552922 3
    endloop
  endfacet
  facet normal -0 -0.951057 -0.309017
    outer loop
      vertex -1.8691 0.552922 3
      vertex -2.29175 0.38206 3.52586
      vertex -2.22097 0.552922 3
    endloop
  endfacet
  facet normal -0 -0.951057 -0.309017
    outer loop
      vertex -1.80172 0.552922 3
      vertex -2.29175 0.38206 3.52586
      vertex -1.8691 0.552922 3
    endloop
  endfacet
  facet normal -0 -0.951057 -0.309017
    outer loop
      vertex -1.65172 0.552922 3
      vertex -2.29175 0.38206 3.52586
      vertex -1.80172 0.552922 3
    endloop
  endfacet
  facet normal 0 -0.951057 -0.309017
    outer loop
      vertex -2.29175 0.38206 3.52586
      vertex -1.65172 0.552922 3
      vertex 2.29175 0.38206 3.52586
    endloop
  endfacet
  facet normal -0 -0.951057 -0.309017
    outer loop
      vertex 1.7382 0.552922 3
      vertex 2.29175 0.38206 3.52586
      vertex -1.65172 0.552922 3
    endloop
  endfacet
  facet normal -0 -0.951057 -0.309017
    outer loop
      vertex 2.1309 0.552922 3
      vertex 2.29175 0.38206 3.52586
      vertex 1.7382 0.552922 3
    endloop
  endfacet
  facet normal -0 -0.951057 -0.309017
    outer loop
      vertex 2.19828 0.552922 3
      vertex 2.29175 0.38206 3.52586
      vertex 2.1309 0.552922 3
    endloop
  endfacet
  facet normal 0 -0.951057 -0.309017
    outer loop
      vertex 2.29175 0.38206 3.52586
      vertex 2.19828 0.552922 3
      vertex 2.22097 0.552922 3
    endloop
  endfacet
  facet normal 0 -0.951058 -0.309013
    outer loop
      vertex -2.19394 0.618186 2.79914
      vertex -2.06094 0.618186 2.79914
      vertex -2.21462 0.568253 2.95282
    endloop
  endfacet
  facet normal 0 0 -1
    outer loop
      vertex 2.29175 -0.38206 3.52586
      vertex 2.29175 0.38206 3.52586
      vertex 2.45 0 3.52586
    endloop
  endfacet
  facet normal 0 0 -1
    outer loop
      vertex -2.29175 -0.38206 3.52586
      vertex 2.29175 0.38206 3.52586
      vertex 2.29175 -0.38206 3.52586
    endloop
  endfacet
  facet normal 0 0 -1
    outer loop
      vertex -2.29175 -0.38206 3.52586
      vertex -2.29175 0.38206 3.52586
      vertex 2.29175 0.38206 3.52586
    endloop
  endfacet
  facet normal 0 -0 -1
    outer loop
      vertex -2.29175 0.38206 3.52586
      vertex -2.29175 -0.38206 3.52586
      vertex -2.45 0 3.52586
    endloop
  endfacet
  facet normal 0 0.951053 -0.309027
    outer loop
      vertex -1.80172 -0.552922 3
      vertex -1.81459 -0.570634 2.94549
      vertex -1.8691 -0.552922 3
    endloop
  endfacet
  facet normal 0 0.951056 -0.30902
    outer loop
      vertex -1.69914 -0.618186 2.79914
      vertex 1.7382 -0.552922 3
      vertex 1.93906 -0.618186 2.79914
    endloop
  endfacet
  facet normal 0 0.951056 -0.30902
    outer loop
      vertex 1.7382 -0.552922 3
      vertex -1.69914 -0.618186 2.79914
      vertex -1.65172 -0.552922 3
    endloop
  endfacet
  facet normal 0 0.951053 -0.309027
    outer loop
      vertex 2.19828 -0.552922 3
      vertex 2.18541 -0.570634 2.94549
      vertex 2.1309 -0.552922 3
    endloop
  endfacet
  facet normal 0 0.951057 -0.309017
    outer loop
      vertex 2.19828 -0.552922 3
      vertex 2.29175 -0.38206 3.52586
      vertex 2.22097 -0.552922 3
    endloop
  endfacet
  facet normal 0 0.951057 -0.309017
    outer loop
      vertex 2.1309 -0.552922 3
      vertex 2.29175 -0.38206 3.52586
      vertex 2.19828 -0.552922 3
    endloop
  endfacet
  facet normal 0 0.951057 -0.309017
    outer loop
      vertex 1.7382 -0.552922 3
      vertex 2.29175 -0.38206 3.52586
      vertex 2.1309 -0.552922 3
    endloop
  endfacet
  facet normal 0 0.951057 -0.309017
    outer loop
      vertex -1.65172 -0.552922 3
      vertex 2.29175 -0.38206 3.52586
      vertex 1.7382 -0.552922 3
    endloop
  endfacet
  facet normal 0 0.951057 -0.309017
    outer loop
      vertex 2.29175 -0.38206 3.52586
      vertex -1.65172 -0.552922 3
      vertex -2.29175 -0.38206 3.52586
    endloop
  endfacet
  facet normal 0 0.951057 -0.309017
    outer loop
      vertex -1.80172 -0.552922 3
      vertex -2.29175 -0.38206 3.52586
      vertex -1.65172 -0.552922 3
    endloop
  endfacet
  facet normal 0 0.951057 -0.309017
    outer loop
      vertex -1.8691 -0.552922 3
      vertex -2.29175 -0.38206 3.52586
      vertex -1.80172 -0.552922 3
    endloop
  endfacet
  facet normal 0 0.951057 -0.309017
    outer loop
      vertex -2.29175 -0.38206 3.52586
      vertex -1.8691 -0.552922 3
      vertex -2.22097 -0.552922 3
    endloop
  endfacet
  facet normal 0 0.951058 -0.309013
    outer loop
      vertex -2.06094 -0.618186 2.79914
      vertex -2.19394 -0.618186 2.79914
      vertex -2.21462 -0.568253 2.95282
    endloop
  endfacet
  facet normal 2.96529e-06 -0.587784 0.809018
    outer loop
      vertex -2.27569 0.420812 2.65574
      vertex -1.4 0 2.35
      vertex -1.81459 0.570634 2.76459
    endloop
  endfacet
  facet normal 0 -0.587788 0.809015
    outer loop
      vertex -1.4 0 2.35
      vertex -2.27569 0.420812 2.65574
      vertex -2.45 0 2.35
    endloop
  endfacet
  facet normal 0 -0.587802 0.809005
    outer loop
      vertex -2.06094 0.618186 2.79914
      vertex -2.19394 0.618186 2.79914
      vertex -2.21462 0.568253 2.76286
    endloop
  endfacet
  facet normal 1.5186e-06 -0.58779 0.809014
    outer loop
      vertex 1.51459 0.352671 2.60623
      vertex 2.25107 0.480262 2.69893
      vertex 2.18541 0.570634 2.76459
    endloop
  endfacet
  facet normal 1.25308e-07 -0.587785 0.809018
    outer loop
      vertex 2.25107 0.480262 2.69893
      vertex 1.51459 0.352671 2.60623
      vertex 1.51459 0 2.35
    endloop
  endfacet
  facet normal 0 -0.587784 0.809018
    outer loop
      vertex 2.25107 0.480262 2.69893
      vertex 1.51459 0 2.35
      vertex 2.45 0 2.35
    endloop
  endfacet
  facet normal 0 -0.587787 0.809015
    outer loop
      vertex 1.39324 0.440839 2.67029
      vertex -1.25 0 2.35
      vertex 1.39324 0 2.35
    endloop
  endfacet
  facet normal 0 -0.587785 0.809017
    outer loop
      vertex -1.69914 0.618186 2.79914
      vertex 1.39324 0.440839 2.67029
      vertex 1.93906 0.618186 2.79914
    endloop
  endfacet
  facet normal -1.61396e-07 -0.587787 0.809016
    outer loop
      vertex 1.39324 0.440839 2.67029
      vertex -1.69914 0.618186 2.79914
      vertex -1.25 0 2.35
    endloop
  endfacet
  facet normal 2.96529e-06 0.587784 0.809018
    outer loop
      vertex -1.4 0 2.35
      vertex -2.27569 -0.420812 2.65574
      vertex -1.81459 -0.570634 2.76459
    endloop
  endfacet
  facet normal 0 0.587788 0.809015
    outer loop
      vertex -2.27569 -0.420812 2.65574
      vertex -1.4 0 2.35
      vertex -2.45 0 2.35
    endloop
  endfacet
  facet normal -0 0.587802 0.809005
    outer loop
      vertex -2.19394 -0.618186 2.79914
      vertex -2.06094 -0.618186 2.79914
      vertex -2.21462 -0.568253 2.76286
    endloop
  endfacet
  facet normal -0 0.587784 0.809018
    outer loop
      vertex 1.51459 0 2.35
      vertex 2.25107 -0.480262 2.69893
      vertex 2.45 0 2.35
    endloop
  endfacet
  facet normal 1.25308e-07 0.587785 0.809018
    outer loop
      vertex 1.51459 -0.352671 2.60623
      vertex 2.25107 -0.480262 2.69893
      vertex 1.51459 0 2.35
    endloop
  endfacet
  facet normal 1.5186e-06 0.58779 0.809014
    outer loop
      vertex 2.25107 -0.480262 2.69893
      vertex 1.51459 -0.352671 2.60623
      vertex 2.18541 -0.570634 2.76459
    endloop
  endfacet
  facet normal 0 0.587787 0.809015
    outer loop
      vertex 1.39324 0 2.35
      vertex -1.25 0 2.35
      vertex 1.39324 -0.440839 2.67029
    endloop
  endfacet
  facet normal -1.61396e-07 0.587787 0.809016
    outer loop
      vertex -1.69914 -0.618186 2.79914
      vertex 1.39324 -0.440839 2.67029
      vertex -1.25 0 2.35
    endloop
  endfacet
  facet normal 0 0.587785 0.809017
    outer loop
      vertex 1.39324 -0.440839 2.67029
      vertex -1.69914 -0.618186 2.79914
      vertex 1.93906 -0.618186 2.79914
    endloop
  endfacet
  facet normal -0.309014 -0.951058 0
    outer loop
      vertex 1.39324 -0.440839 2.67029
      vertex 1.7382 -0.552922 3
      vertex 1.39324 -0.440839 3
    endloop
  endfacet
  facet normal -0.309017 -0.951057 3.35509e-06
    outer loop
      vertex 1.7382 -0.552922 3
      vertex 1.39324 -0.440839 2.67029
      vertex 1.93906 -0.618186 2.79914
    endloop
  endfacet
  facet normal -0.309004 -0.951061 0
    outer loop
      vertex 2.1637 -0.691179 0
      vertex 2.23176 -0.713292 3
      vertex 2.1637 -0.691179 3
    endloop
  endfacet
  facet normal -0.309004 -0.951061 -0
    outer loop
      vertex 2.23176 -0.713292 3
      vertex 2.1637 -0.691179 0
      vertex 2.23176 -0.713292 0
    endloop
  endfacet
  facet normal -0.309004 0.951061 0
    outer loop
      vertex 2.23176 0.713292 0
      vertex 2.1637 0.691179 3
      vertex 2.23176 0.713292 3
    endloop
  endfacet
  facet normal -0.309004 0.951061 0
    outer loop
      vertex 2.1637 0.691179 3
      vertex 2.23176 0.713292 0
      vertex 2.1637 0.691179 0
    endloop
  endfacet
  facet normal -0.309017 0.951057 3.35509e-06
    outer loop
      vertex 1.39324 0.440839 2.67029
      vertex 1.7382 0.552922 3
      vertex 1.93906 0.618186 2.79914
    endloop
  endfacet
  facet normal -0.309014 0.951058 0
    outer loop
      vertex 1.7382 0.552922 3
      vertex 1.39324 0.440839 2.67029
      vertex 1.39324 0.440839 3
    endloop
  endfacet
  facet normal 0.809015 0.587787 0
    outer loop
      vertex 2.75 0 3
      vertex 2.23176 0.713292 0
      vertex 2.23176 0.713292 3
    endloop
  endfacet
  facet normal 0.809015 0.587787 0
    outer loop
      vertex 2.23176 0.713292 0
      vertex 2.75 0 3
      vertex 2.75 0 0
    endloop
  endfacet
  facet normal -1 0 0
    outer loop
      vertex 1.39324 -0.440839 2.67029
      vertex 1.39324 0.440839 2.67029
      vertex 1.39324 0 2.35
    endloop
  endfacet
  facet normal -1 0 0
    outer loop
      vertex 1.39324 0.440839 2.67029
      vertex 1.39324 -0.440839 2.67029
      vertex 1.39324 0.440839 3
    endloop
  endfacet
  facet normal -1 -0 0
    outer loop
      vertex 1.39324 0.440839 3
      vertex 1.39324 -0.440839 2.67029
      vertex 1.39324 -0.440839 3
    endloop
  endfacet
  facet normal 0 0 1
    outer loop
      vertex 2.23176 0.713292 3
      vertex 2.1637 0.691179 3
      vertex 2.22097 0.552922 3
    endloop
  endfacet
  facet normal -0 0 1
    outer loop
      vertex 2.22097 0.552922 3
      vertex 2.75 0 3
      vertex 2.23176 0.713292 3
    endloop
  endfacet
  facet normal 0 0 1
    outer loop
      vertex 2.75 0 3
      vertex 2.22097 0.552922 3
      vertex 2.6 0 3
    endloop
  endfacet
  facet normal 0 0 1
    outer loop
      vertex 2.6 0 3
      vertex 2.22097 0.552922 3
      vertex 2.19828 0.552922 3
    endloop
  endfacet
  facet normal 0 0 1
    outer loop
      vertex 2.22097 -0.552922 3
      vertex 2.75 0 3
      vertex 2.6 0 3
    endloop
  endfacet
  facet normal 0 0 1
    outer loop
      vertex 2.75 0 3
      vertex 2.22097 -0.552922 3
      vertex 2.23176 -0.713292 3
    endloop
  endfacet
  facet normal 0 -0 1
    outer loop
      vertex 2.22097 -0.552922 3
      vertex 2.6 0 3
      vertex 2.19828 -0.552922 3
    endloop
  endfacet
  facet normal 0 0 1
    outer loop
      vertex 2.23176 -0.713292 3
      vertex 2.22097 -0.552922 3
      vertex 2.1637 -0.691179 3
    endloop
  endfacet
  facet normal -0 0 1
    outer loop
      vertex 1.7382 0.552922 3
      vertex 1.51459 0.352671 3
      vertex 2.1309 0.552922 3
    endloop
  endfacet
  facet normal 0 0 1
    outer loop
      vertex 1.51459 0.352671 3
      vertex 1.39324 0.440839 3
      vertex 1.51459 -0.352671 3
    endloop
  endfacet
  facet normal -0 0 1
    outer loop
      vertex 1.39324 0.440839 3
      vertex 1.51459 0.352671 3
      vertex 1.7382 0.552922 3
    endloop
  endfacet
  facet normal 0 0 1
    outer loop
      vertex 1.51459 -0.352671 3
      vertex 1.7382 -0.552922 3
      vertex 2.1309 -0.552922 3
    endloop
  endfacet
  facet normal 0 0 1
    outer loop
      vertex 1.51459 -0.352671 3
      vertex 1.39324 -0.440839 3
      vertex 1.7382 -0.552922 3
    endloop
  endfacet
  facet normal 0 0 1
    outer loop
      vertex 1.39324 -0.440839 3
      vertex 1.51459 -0.352671 3
      vertex 1.39324 0.440839 3
    endloop
  endfacet
  facet normal 0.809015 -0.587787 0
    outer loop
      vertex 2.23176 -0.713292 3
      vertex 2.75 0 0
      vertex 2.75 0 3
    endloop
  endfacet
  facet normal 0.809015 -0.587787 0
    outer loop
      vertex 2.75 0 0
      vertex 2.23176 -0.713292 3
      vertex 2.23176 -0.713292 0
    endloop
  endfacet
  facet normal 0 0 -1
    outer loop
      vertex 2.23176 -0.713292 0
      vertex 2.45 0 0
      vertex 2.75 0 0
    endloop
  endfacet
  facet normal 0 0 -1
    outer loop
      vertex 2.45 0 0
      vertex 2.23176 -0.713292 0
      vertex 2.1637 -0.691179 0
    endloop
  endfacet
  facet normal 0 0 -1
    outer loop
      vertex 2.45 0 0
      vertex 2.23176 0.713292 0
      vertex 2.75 0 0
    endloop
  endfacet
  facet normal 0 -0 -1
    outer loop
      vertex 2.23176 0.713292 0
      vertex 2.45 0 0
      vertex 2.1637 0.691179 0
    endloop
  endfacet
  facet normal -0.309018 -0.951056 0
    outer loop
      vertex 2.08607 -0.878615 4
      vertex 2.30902 -0.951056 5
      vertex 2.08607 -0.878615 5
    endloop
  endfacet
  facet normal -0.309018 -0.951056 -0
    outer loop
      vertex 2.30902 -0.951056 5
      vertex 2.08607 -0.878615 4
      vertex 2.30902 -0.951056 4
    endloop
  endfacet
  facet normal -0.309018 0.951056 0
    outer loop
      vertex 2.30902 0.951056 4
      vertex 2.08607 0.878615 5
      vertex 2.30902 0.951056 5
    endloop
  endfacet
  facet normal -0.309018 0.951056 0
    outer loop
      vertex 2.08607 0.878615 5
      vertex 2.30902 0.951056 4
      vertex 2.08607 0.878615 4
    endloop
  endfacet
  facet normal 0.809018 0.587784 0
    outer loop
      vertex 3 0 5
      vertex 2.30902 0.951056 4
      vertex 2.30902 0.951056 5
    endloop
  endfacet
  facet normal 0.809018 0.587784 0
    outer loop
      vertex 2.30902 0.951056 4
      vertex 3 0 5
      vertex 3 0 4
    endloop
  endfacet
  facet normal 0 0 1
    outer loop
      vertex 2.30902 0.951056 5
      vertex 2.45 0 5
      vertex 3 0 5
    endloop
  endfacet
  facet normal 0 0 1
    outer loop
      vertex 2.45 0 5
      vertex 2.30902 0.951056 5
      vertex 2.08607 0.878615 5
    endloop
  endfacet
  facet normal -0 0 1
    outer loop
      vertex 2.45 0 5
      vertex 2.30902 -0.951056 5
      vertex 3 0 5
    endloop
  endfacet
  facet normal 0 -0 1
    outer loop
      vertex 2.30902 -0.951056 5
      vertex 2.45 0 5
      vertex 2.08607 -0.878615 5
    endloop
  endfacet
  facet normal 0.809018 -0.587784 0
    outer loop
      vertex 2.30902 -0.951056 5
      vertex 3 0 4
      vertex 3 0 5
    endloop
  endfacet
  facet normal 0.809018 -0.587784 0
    outer loop
      vertex 3 0 4
      vertex 2.30902 -0.951056 5
      vertex 2.30902 -0.951056 4
    endloop
  endfacet
  facet normal 0 0 -1
    outer loop
      vertex 2.25107 -0.480262 4
      vertex 3 0 4
      vertex 2.30902 -0.951056 4
    endloop
  endfacet
  facet normal -0 0 -1
    outer loop
      vertex 3 0 4
      vertex 2.25107 -0.480262 4
      vertex 2.6 0 4
    endloop
  endfacet
  facet normal 0 -0 -1
    outer loop
      vertex 2.25107 -0.480262 4
      vertex 2.30902 -0.951056 4
      vertex 2.08607 -0.878615 4
    endloop
  endfacet
  facet normal 0 0 -1
    outer loop
      vertex 2.25107 0.480262 4
      vertex 3 0 4
      vertex 2.6 0 4
    endloop
  endfacet
  facet normal 0 0 -1
    outer loop
      vertex 3 0 4
      vertex 2.25107 0.480262 4
      vertex 2.30902 0.951056 4
    endloop
  endfacet
  facet normal 0 0 -1
    outer loop
      vertex 2.30902 0.951056 4
      vertex 2.25107 0.480262 4
      vertex 2.08607 0.878615 4
    endloop
  endfacet
  facet normal 0.309027 0.951053 -0
    outer loop
      vertex 2.18541 -0.570634 2.76459
      vertex 2.1309 -0.552922 3
      vertex 2.18541 -0.570634 2.94549
    endloop
  endfacet
  facet normal 0.309017 0.951057 -2.62671e-06
    outer loop
      vertex 2.1309 -0.552922 3
      vertex 2.18541 -0.570634 2.76459
      vertex 1.51459 -0.352671 3
    endloop
  endfacet
  facet normal 0.309017 0.951056 0
    outer loop
      vertex 1.51459 -0.352671 3
      vertex 2.18541 -0.570634 2.76459
      vertex 1.51459 -0.352671 2.60623
    endloop
  endfacet
  facet normal 0.309017 -0.951057 -2.62671e-06
    outer loop
      vertex 2.18541 0.570634 2.76459
      vertex 2.1309 0.552922 3
      vertex 1.51459 0.352671 3
    endloop
  endfacet
  facet normal 0.309027 -0.951053 0
    outer loop
      vertex 2.1309 0.552922 3
      vertex 2.18541 0.570634 2.76459
      vertex 2.18541 0.570634 2.94549
    endloop
  endfacet
  facet normal 0.309017 -0.951056 0
    outer loop
      vertex 2.18541 0.570634 2.76459
      vertex 1.51459 0.352671 3
      vertex 1.51459 0.352671 2.60623
    endloop
  endfacet
  facet normal -0.809013 -0.587791 0
    outer loop
      vertex 2.25107 0.480262 2.69893
      vertex 2.18541 0.570634 2.94549
      vertex 2.18541 0.570634 2.76459
    endloop
  endfacet
  facet normal -0.809 -0.587809 1.02478e-05
    outer loop
      vertex 2.18541 0.570634 2.94549
      vertex 2.25107 0.480262 2.69893
      vertex 2.19828 0.552922 3
    endloop
  endfacet
  facet normal -0.809018 -0.587784 -0
    outer loop
      vertex 2.6 0 3
      vertex 2.25107 0.480262 2.69893
      vertex 2.6 0 1.75
    endloop
  endfacet
  facet normal -0.809018 -0.587784 1.08288e-06
    outer loop
      vertex 2.25107 0.480262 2.69893
      vertex 2.6 0 3
      vertex 2.19828 0.552922 3
    endloop
  endfacet
  facet normal -0.809018 -0.587784 0
    outer loop
      vertex 2.25107 0.480262 1.75
      vertex 2.6 0 1.75
      vertex 2.25107 0.480262 2.69893
    endloop
  endfacet
  facet normal -0.809018 -0.587784 0
    outer loop
      vertex 2.6 0 4
      vertex 2.25107 0.480262 4.25
      vertex 2.25107 0.480262 4
    endloop
  endfacet
  facet normal -0.809018 -0.587784 0
    outer loop
      vertex 2.25107 0.480262 4.25
      vertex 2.6 0 4
      vertex 2.6 0 4.25
    endloop
  endfacet
  facet normal 1 0 0
    outer loop
      vertex 1.51459 -0.352671 2.60623
      vertex 1.51459 0.352671 2.60623
      vertex 1.51459 0.352671 3
    endloop
  endfacet
  facet normal 1 0 0
    outer loop
      vertex 1.51459 -0.352671 2.60623
      vertex 1.51459 0.352671 3
      vertex 1.51459 -0.352671 3
    endloop
  endfacet
  facet normal 1 0 0
    outer loop
      vertex 1.51459 0.352671 2.60623
      vertex 1.51459 -0.352671 2.60623
      vertex 1.51459 0 2.35
    endloop
  endfacet
  facet normal -0 0 -1
    outer loop
      vertex 2.6 0 4.25
      vertex 2.25107 -0.480262 4.25
      vertex 2.45 0 4.25
    endloop
  endfacet
  facet normal 0 0 -1
    outer loop
      vertex 2.6 0 4.25
      vertex 2.45 0 4.25
      vertex 2.25107 0.480262 4.25
    endloop
  endfacet
  facet normal -0.809018 0.587784 0
    outer loop
      vertex 2.25107 -0.480262 2.69893
      vertex 2.6 0 1.75
      vertex 2.25107 -0.480262 1.75
    endloop
  endfacet
  facet normal -0.809018 0.587784 0
    outer loop
      vertex 2.6 0 1.75
      vertex 2.25107 -0.480262 2.69893
      vertex 2.6 0 3
    endloop
  endfacet
  facet normal -0.809018 0.587784 1.08288e-06
    outer loop
      vertex 2.25107 -0.480262 2.69893
      vertex 2.19828 -0.552922 3
      vertex 2.6 0 3
    endloop
  endfacet
  facet normal -0.809013 0.587791 0
    outer loop
      vertex 2.18541 -0.570634 2.94549
      vertex 2.25107 -0.480262 2.69893
      vertex 2.18541 -0.570634 2.76459
    endloop
  endfacet
  facet normal -0.809 0.587809 1.02478e-05
    outer loop
      vertex 2.25107 -0.480262 2.69893
      vertex 2.18541 -0.570634 2.94549
      vertex 2.19828 -0.552922 3
    endloop
  endfacet
  facet normal -0.809018 0.587784 0
    outer loop
      vertex 2.25107 -0.480262 4
      vertex 2.6 0 4.25
      vertex 2.6 0 4
    endloop
  endfacet
  facet normal -0.809018 0.587784 0
    outer loop
      vertex 2.6 0 4.25
      vertex 2.25107 -0.480262 4
      vertex 2.25107 -0.480262 4.25
    endloop
  endfacet
  facet normal 0 0 1
    outer loop
      vertex 2.6 0 1.75
      vertex 2.25107 0.480262 1.75
      vertex 2.45 0 1.75
    endloop
  endfacet
  facet normal 0 0 1
    outer loop
      vertex 2.6 0 1.75
      vertex 2.45 0 1.75
      vertex 2.25107 -0.480262 1.75
    endloop
  endfacet
  facet normal -0.309017 -0.951057 0
    outer loop
      vertex -2.60676 -0.440839 3
      vertex -2.21462 -0.568253 2.95282
      vertex -2.21462 -0.568253 3
    endloop
  endfacet
  facet normal -0.309017 -0.951057 0
    outer loop
      vertex -2.21462 -0.568253 2.76286
      vertex -2.21462 -0.568253 2.95282
      vertex -2.60676 -0.440839 3
    endloop
  endfacet
  facet normal -0.309013 -0.951058 -0
    outer loop
      vertex -2.21462 -0.568253 2.95282
      vertex -2.21462 -0.568253 2.76286
      vertex -2.06094 -0.618186 2.79914
    endloop
  endfacet
  facet normal -0.309017 -0.951057 0
    outer loop
      vertex -2.60676 -0.440839 0
      vertex -2.21462 -0.568253 2.76286
      vertex -2.60676 -0.440839 3
    endloop
  endfacet
  facet normal -0.309017 -0.951057 -0
    outer loop
      vertex -2.21462 -0.568253 2.76286
      vertex -2.60676 -0.440839 0
      vertex -2.21462 -0.568253 0
    endloop
  endfacet
  facet normal -0.309017 0.951057 0
    outer loop
      vertex -2.21462 0.568253 2.95282
      vertex -2.60676 0.440839 3
      vertex -2.21462 0.568253 3
    endloop
  endfacet
  facet normal -0.309013 0.951058 0
    outer loop
      vertex -2.21462 0.568253 2.76286
      vertex -2.21462 0.568253 2.95282
      vertex -2.06094 0.618186 2.79914
    endloop
  endfacet
  facet normal -0.309017 0.951057 0
    outer loop
      vertex -2.21462 0.568253 2.95282
      vertex -2.21462 0.568253 2.76286
      vertex -2.60676 0.440839 3
    endloop
  endfacet
  facet normal -0.309017 0.951057 0
    outer loop
      vertex -2.60676 0.440839 0
      vertex -2.21462 0.568253 2.76286
      vertex -2.21462 0.568253 0
    endloop
  endfacet
  facet normal -0.309017 0.951057 0
    outer loop
      vertex -2.21462 0.568253 2.76286
      vertex -2.60676 0.440839 0
      vertex -2.60676 0.440839 3
    endloop
  endfacet
  facet normal 0.809018 0.587784 -1.24358e-05
    outer loop
      vertex -1.25 0 3
      vertex -1.69914 0.618186 2.79914
      vertex -1.65172 0.552922 3
    endloop
  endfacet
  facet normal 0.809016 0.587787 0
    outer loop
      vertex -1.69914 0.618186 2.79914
      vertex -1.25 0 3
      vertex -1.25 0 2.35
    endloop
  endfacet
  facet normal -1 0 0
    outer loop
      vertex -2.60676 -0.440839 0
      vertex -2.60676 0.440839 3
      vertex -2.60676 0.440839 0
    endloop
  endfacet
  facet normal -1 -0 0
    outer loop
      vertex -2.60676 0.440839 3
      vertex -2.60676 -0.440839 0
      vertex -2.60676 -0.440839 3
    endloop
  endfacet
  facet normal 0 0 1
    outer loop
      vertex -1.65172 0.552922 3
      vertex -1.4 0 3
      vertex -1.25 0 3
    endloop
  endfacet
  facet normal 0 0 1
    outer loop
      vertex -1.4 0 3
      vertex -1.65172 0.552922 3
      vertex -1.80172 0.552922 3
    endloop
  endfacet
  facet normal -0 0 1
    outer loop
      vertex -1.4 0 3
      vertex -1.65172 -0.552922 3
      vertex -1.25 0 3
    endloop
  endfacet
  facet normal 0 -0 1
    outer loop
      vertex -1.65172 -0.552922 3
      vertex -1.4 0 3
      vertex -1.80172 -0.552922 3
    endloop
  endfacet
  facet normal 0 0 1
    outer loop
      vertex -2.60676 0.440839 3
      vertex -2.22097 0.552922 3
      vertex -2.21462 0.568253 3
    endloop
  endfacet
  facet normal 0 0 1
    outer loop
      vertex -2.48541 0.352671 3
      vertex -2.60676 0.440839 3
      vertex -2.48541 -0.352671 3
    endloop
  endfacet
  facet normal 0 0 1
    outer loop
      vertex -2.22097 0.552922 3
      vertex -2.60676 0.440839 3
      vertex -2.48541 0.352671 3
    endloop
  endfacet
  facet normal 0 0 1
    outer loop
      vertex -1.8691 0.552922 3
      vertex -2.22097 0.552922 3
      vertex -2.48541 0.352671 3
    endloop
  endfacet
  facet normal 0 0 1
    outer loop
      vertex -1.8691 -0.552922 3
      vertex -2.48541 -0.352671 3
      vertex -2.22097 -0.552922 3
    endloop
  endfacet
  facet normal -0 0 1
    outer loop
      vertex -2.60676 -0.440839 3
      vertex -2.22097 -0.552922 3
      vertex -2.48541 -0.352671 3
    endloop
  endfacet
  facet normal 0 0 1
    outer loop
      vertex -2.22097 -0.552922 3
      vertex -2.60676 -0.440839 3
      vertex -2.21462 -0.568253 3
    endloop
  endfacet
  facet normal 0 0 1
    outer loop
      vertex -2.60676 -0.440839 3
      vertex -2.48541 -0.352671 3
      vertex -2.60676 0.440839 3
    endloop
  endfacet
  facet normal 0.809018 -0.587784 -1.24358e-05
    outer loop
      vertex -1.69914 -0.618186 2.79914
      vertex -1.25 0 3
      vertex -1.65172 -0.552922 3
    endloop
  endfacet
  facet normal 0.809016 -0.587787 0
    outer loop
      vertex -1.25 0 3
      vertex -1.69914 -0.618186 2.79914
      vertex -1.25 0 2.35
    endloop
  endfacet
  facet normal 0 0 -1
    outer loop
      vertex -2.21462 -0.568253 0
      vertex -2.60676 -0.440839 0
      vertex -2.45 0 0
    endloop
  endfacet
  facet normal 0 0 -1
    outer loop
      vertex -2.45 0 0
      vertex -2.60676 0.440839 0
      vertex -2.21462 0.568253 0
    endloop
  endfacet
  facet normal 0 0 -1
    outer loop
      vertex -2.60676 0.440839 0
      vertex -2.45 0 0
      vertex -2.60676 -0.440839 0
    endloop
  endfacet
  facet normal -0.309013 -0.951058 0
    outer loop
      vertex -2.80902 -0.587785 4
      vertex -2.11283 -0.813988 5
      vertex -2.80902 -0.587785 5
    endloop
  endfacet
  facet normal -0.309013 -0.951058 -0
    outer loop
      vertex -2.11283 -0.813988 5
      vertex -2.80902 -0.587785 4
      vertex -2.11283 -0.813988 4
    endloop
  endfacet
  facet normal -0.309013 0.951058 0
    outer loop
      vertex -2.11283 0.813988 4
      vertex -2.80902 0.587785 5
      vertex -2.11283 0.813988 5
    endloop
  endfacet
  facet normal -0.309013 0.951058 0
    outer loop
      vertex -2.80902 0.587785 5
      vertex -2.11283 0.813988 4
      vertex -2.80902 0.587785 4
    endloop
  endfacet
  facet normal -1 0 0
    outer loop
      vertex -2.80902 -0.587785 4
      vertex -2.80902 0.587785 5
      vertex -2.80902 0.587785 4
    endloop
  endfacet
  facet normal -1 -0 0
    outer loop
      vertex -2.80902 0.587785 5
      vertex -2.80902 -0.587785 4
      vertex -2.80902 -0.587785 5
    endloop
  endfacet
  facet normal 0 0 1
    outer loop
      vertex -2.11283 0.813988 5
      vertex -2.80902 0.587785 5
      vertex -2.45 0 5
    endloop
  endfacet
  facet normal 0 0 1
    outer loop
      vertex -2.80902 -0.587785 5
      vertex -2.45 0 5
      vertex -2.80902 0.587785 5
    endloop
  endfacet
  facet normal 0 0 1
    outer loop
      vertex -2.45 0 5
      vertex -2.80902 -0.587785 5
      vertex -2.11283 -0.813988 5
    endloop
  endfacet
  facet normal 0 0 -1
    outer loop
      vertex -2.80902 -0.587785 4
      vertex -2.27569 -0.420812 4
      vertex -2.11283 -0.813988 4
    endloop
  endfacet
  facet normal -0 0 -1
    outer loop
      vertex -2.48541 -0.352671 4
      vertex -2.80902 -0.587785 4
      vertex -2.48541 0.352671 4
    endloop
  endfacet
  facet normal -0 0 -1
    outer loop
      vertex -2.27569 -0.420812 4
      vertex -2.80902 -0.587785 4
      vertex -2.48541 -0.352671 4
    endloop
  endfacet
  facet normal 0 0 -1
    outer loop
      vertex -2.80902 0.587785 4
      vertex -2.27569 0.420812 4
      vertex -2.48541 0.352671 4
    endloop
  endfacet
  facet normal 0 0 -1
    outer loop
      vertex -2.27569 0.420812 4
      vertex -2.80902 0.587785 4
      vertex -2.11283 0.813988 4
    endloop
  endfacet
  facet normal 0 0 -1
    outer loop
      vertex -2.80902 0.587785 4
      vertex -2.48541 0.352671 4
      vertex -2.80902 -0.587785 4
    endloop
  endfacet
  facet normal 0.309012 0.951058 -0
    outer loop
      vertex -2.27569 -0.420812 4
      vertex -2.48541 -0.352671 4.25
      vertex -2.27569 -0.420812 4.25
    endloop
  endfacet
  facet normal 0.309012 0.951058 0
    outer loop
      vertex -2.48541 -0.352671 4.25
      vertex -2.27569 -0.420812 4
      vertex -2.48541 -0.352671 4
    endloop
  endfacet
  facet normal 0.309027 0.951053 -0
    outer loop
      vertex -1.81459 -0.570634 2.76459
      vertex -1.8691 -0.552922 3
      vertex -1.81459 -0.570634 2.94549
    endloop
  endfacet
  facet normal 0.30902 0.951055 -1.71119e-06
    outer loop
      vertex -1.8691 -0.552922 3
      vertex -1.81459 -0.570634 2.76459
      vertex -2.27569 -0.420812 2.65574
    endloop
  endfacet
  facet normal 0.309017 0.951057 2.9585e-06
    outer loop
      vertex -1.8691 -0.552922 3
      vertex -2.27569 -0.420812 2.65574
      vertex -2.48541 -0.352671 3
    endloop
  endfacet
  facet normal 0.309012 0.951058 0
    outer loop
      vertex -2.48541 -0.352671 1.75
      vertex -2.27569 -0.420812 2.65574
      vertex -2.27569 -0.420812 1.75
    endloop
  endfacet
  facet normal 0.309012 0.951058 0
    outer loop
      vertex -2.27569 -0.420812 2.65574
      vertex -2.48541 -0.352671 1.75
      vertex -2.48541 -0.352671 3
    endloop
  endfacet
  facet normal 0.309017 -0.951057 2.9585e-06
    outer loop
      vertex -2.27569 0.420812 2.65574
      vertex -1.8691 0.552922 3
      vertex -2.48541 0.352671 3
    endloop
  endfacet
  facet normal 0.30902 -0.951055 -1.71119e-06
    outer loop
      vertex -1.81459 0.570634 2.76459
      vertex -1.8691 0.552922 3
      vertex -2.27569 0.420812 2.65574
    endloop
  endfacet
  facet normal 0.309027 -0.951053 0
    outer loop
      vertex -1.8691 0.552922 3
      vertex -1.81459 0.570634 2.76459
      vertex -1.81459 0.570634 2.94549
    endloop
  endfacet
  facet normal 0.309012 -0.951058 0
    outer loop
      vertex -2.48541 0.352671 1.75
      vertex -2.27569 0.420812 2.65574
      vertex -2.48541 0.352671 3
    endloop
  endfacet
  facet normal 0.309012 -0.951058 0
    outer loop
      vertex -2.27569 0.420812 2.65574
      vertex -2.48541 0.352671 1.75
      vertex -2.27569 0.420812 1.75
    endloop
  endfacet
  facet normal 0.309012 -0.951058 0
    outer loop
      vertex -2.48541 0.352671 4
      vertex -2.27569 0.420812 4.25
      vertex -2.48541 0.352671 4.25
    endloop
  endfacet
  facet normal 0.309012 -0.951058 0
    outer loop
      vertex -2.27569 0.420812 4.25
      vertex -2.48541 0.352671 4
      vertex -2.27569 0.420812 4
    endloop
  endfacet
  facet normal -0.809017 -0.587785 0
    outer loop
      vertex -1.4 0 3
      vertex -1.81459 0.570634 2.94549
      vertex -1.81459 0.570634 2.76459
    endloop
  endfacet
  facet normal -0.809017 -0.587785 -0
    outer loop
      vertex -1.4 0 3
      vertex -1.81459 0.570634 2.76459
      vertex -1.4 0 2.35
    endloop
  endfacet
  facet normal -0.809018 -0.587784 2.25877e-05
    outer loop
      vertex -1.81459 0.570634 2.94549
      vertex -1.4 0 3
      vertex -1.80172 0.552922 3
    endloop
  endfacet
  facet normal 1 -0 0
    outer loop
      vertex -2.48541 -0.352671 4.25
      vertex -2.48541 0.352671 4
      vertex -2.48541 0.352671 4.25
    endloop
  endfacet
  facet normal 1 0 0
    outer loop
      vertex -2.48541 0.352671 4
      vertex -2.48541 -0.352671 4.25
      vertex -2.48541 -0.352671 4
    endloop
  endfacet
  facet normal 1 -0 0
    outer loop
      vertex -2.48541 -0.352671 3
      vertex -2.48541 0.352671 1.75
      vertex -2.48541 0.352671 3
    endloop
  endfacet
  facet normal 1 0 0
    outer loop
      vertex -2.48541 0.352671 1.75
      vertex -2.48541 -0.352671 3
      vertex -2.48541 -0.352671 1.75
    endloop
  endfacet
  facet normal 0 0 -1
    outer loop
      vertex -2.27569 -0.420812 4.25
      vertex -2.48541 -0.352671 4.25
      vertex -2.45 0 4.25
    endloop
  endfacet
  facet normal 0 0 -1
    outer loop
      vertex -2.45 0 4.25
      vertex -2.48541 0.352671 4.25
      vertex -2.27569 0.420812 4.25
    endloop
  endfacet
  facet normal 0 0 -1
    outer loop
      vertex -2.48541 0.352671 4.25
      vertex -2.45 0 4.25
      vertex -2.48541 -0.352671 4.25
    endloop
  endfacet
  facet normal -0.809017 0.587785 0
    outer loop
      vertex -1.81459 -0.570634 2.76459
      vertex -1.4 0 3
      vertex -1.4 0 2.35
    endloop
  endfacet
  facet normal -0.809017 0.587785 0
    outer loop
      vertex -1.81459 -0.570634 2.94549
      vertex -1.4 0 3
      vertex -1.81459 -0.570634 2.76459
    endloop
  endfacet
  facet normal -0.809018 0.587784 2.25877e-05
    outer loop
      vertex -1.4 0 3
      vertex -1.81459 -0.570634 2.94549
      vertex -1.80172 -0.552922 3
    endloop
  endfacet
  facet normal 0 0 1
    outer loop
      vertex -2.27569 0.420812 1.75
      vertex -2.48541 0.352671 1.75
      vertex -2.45 0 1.75
    endloop
  endfacet
  facet normal 0 0 1
    outer loop
      vertex -2.45 0 1.75
      vertex -2.48541 -0.352671 1.75
      vertex -2.27569 -0.420812 1.75
    endloop
  endfacet
  facet normal 0 0 1
    outer loop
      vertex -2.48541 -0.352671 1.75
      vertex -2.45 0 1.75
      vertex -2.48541 0.352671 1.75
    endloop
  endfacet
  facet normal 0.499998 0.866027 -0
    outer loop
      vertex 2.06832 1.73553 -6.5
      vertex 0.468849 2.65898 -1
      vertex 2.06832 1.73553 -1
    endloop
  endfacet
  facet normal 0.499998 0.866027 0
    outer loop
      vertex 0.468849 2.65898 -1
      vertex 2.06832 1.73553 -6.5
      vertex 0.468849 2.65898 -6.5
    endloop
  endfacet
  facet normal 0.939693 0.34202 0
    outer loop
      vertex 2.7 0 -1
      vertex 2.06832 1.73553 -6.5
      vertex 2.06832 1.73553 -1
    endloop
  endfacet
  facet normal 0.939693 0.34202 0
    outer loop
      vertex 2.06832 1.73553 -6.5
      vertex 2.7 0 -1
      vertex 2.7 0 -6.5
    endloop
  endfacet
  facet normal -0.173647 0.984808 0
    outer loop
      vertex 0.468849 2.65898 -6.5
      vertex -1.35 2.33827 -1
      vertex 0.468849 2.65898 -1
    endloop
  endfacet
  facet normal -0.173647 0.984808 0
    outer loop
      vertex -1.35 2.33827 -1
      vertex 0.468849 2.65898 -6.5
      vertex -1.35 2.33827 -6.5
    endloop
  endfacet
  facet normal 0.939693 -0.34202 0
    outer loop
      vertex 2.06832 -1.73553 -1
      vertex 2.7 0 -6.5
      vertex 2.7 0 -1
    endloop
  endfacet
  facet normal 0.939693 -0.34202 0
    outer loop
      vertex 2.7 0 -6.5
      vertex 2.06832 -1.73553 -1
      vertex 2.06832 -1.73553 -6.5
    endloop
  endfacet
  facet normal -0.766045 0.642787 0
    outer loop
      vertex -2.53717 0.923454 -6.5
      vertex -1.35 2.33827 -1
      vertex -1.35 2.33827 -6.5
    endloop
  endfacet
  facet normal -0.766045 0.642787 0
    outer loop
      vertex -1.35 2.33827 -1
      vertex -2.53717 0.923454 -6.5
      vertex -2.53717 0.923454 -1
    endloop
  endfacet
  facet normal 0.499998 -0.866027 0
    outer loop
      vertex 0.468849 -2.65898 -6.5
      vertex 2.06832 -1.73553 -1
      vertex 0.468849 -2.65898 -1
    endloop
  endfacet
  facet normal 0.499998 -0.866027 0
    outer loop
      vertex 2.06832 -1.73553 -1
      vertex 0.468849 -2.65898 -6.5
      vertex 2.06832 -1.73553 -6.5
    endloop
  endfacet
  facet normal 0 0 1
    outer loop
      vertex 1.25 0 -1
      vertex 2.7 0 -1
      vertex 2.06832 1.73553 -1
    endloop
  endfacet
  facet normal 0 0 1
    outer loop
      vertex 2.7 0 -1
      vertex 1.25 0 -1
      vertex 2.06832 -1.73553 -1
    endloop
  endfacet
  facet normal 0 0 1
    outer loop
      vertex 0.386271 1.18882 -1
      vertex 2.06832 1.73553 -1
      vertex 0.468849 2.65898 -1
    endloop
  endfacet
  facet normal 0 0 1
    outer loop
      vertex 2.06832 1.73553 -1
      vertex 0.386271 1.18882 -1
      vertex 1.25 0 -1
    endloop
  endfacet
  facet normal -0 0 1
    outer loop
      vertex -1.35 2.33827 -1
      vertex 0.386271 1.18882 -1
      vertex 0.468849 2.65898 -1
    endloop
  endfacet
  facet normal -0 0 1
    outer loop
      vertex -2.53717 0.923454 -1
      vertex -1.01127 0.734731 -1
      vertex -1.35 2.33827 -1
    endloop
  endfacet
  facet normal 0 0 1
    outer loop
      vertex 0.386271 1.18882 -1
      vertex -1.35 2.33827 -1
      vertex -1.01127 0.734731 -1
    endloop
  endfacet
  facet normal -0 0 1
    outer loop
      vertex 0.386271 -1.18882 -1
      vertex 2.06832 -1.73553 -1
      vertex 1.25 0 -1
    endloop
  endfacet
  facet normal 0 0 1
    outer loop
      vertex 2.06832 -1.73553 -1
      vertex 0.386271 -1.18882 -1
      vertex 0.468849 -2.65898 -1
    endloop
  endfacet
  facet normal 0 0 1
    outer loop
      vertex -1.35 -2.33827 -1
      vertex 0.386271 -1.18882 -1
      vertex -1.01127 -0.734731 -1
    endloop
  endfacet
  facet normal 0 0 1
    outer loop
      vertex 0.386271 -1.18882 -1
      vertex -1.35 -2.33827 -1
      vertex 0.468849 -2.65898 -1
    endloop
  endfacet
  facet normal 0 0 1
    outer loop
      vertex -1.01127 0.734731 -1
      vertex -2.53717 0.923454 -1
      vertex -1.01127 -0.734731 -1
    endloop
  endfacet
  facet normal 0 0 1
    outer loop
      vertex -2.53717 -0.923454 -1
      vertex -1.01127 -0.734731 -1
      vertex -2.53717 0.923454 -1
    endloop
  endfacet
  facet normal 0 0 1
    outer loop
      vertex -1.01127 -0.734731 -1
      vertex -2.53717 -0.923454 -1
      vertex -1.35 -2.33827 -1
    endloop
  endfacet
  facet normal -0.173647 -0.984808 0
    outer loop
      vertex -1.35 -2.33827 -6.5
      vertex 0.468849 -2.65898 -1
      vertex -1.35 -2.33827 -1
    endloop
  endfacet
  facet normal -0.173647 -0.984808 -0
    outer loop
      vertex 0.468849 -2.65898 -1
      vertex -1.35 -2.33827 -6.5
      vertex 0.468849 -2.65898 -6.5
    endloop
  endfacet
  facet normal -0.766045 -0.642787 0
    outer loop
      vertex -1.35 -2.33827 -6.5
      vertex -2.53717 -0.923454 -1
      vertex -2.53717 -0.923454 -6.5
    endloop
  endfacet
  facet normal -0.766045 -0.642787 0
    outer loop
      vertex -2.53717 -0.923454 -1
      vertex -1.35 -2.33827 -6.5
      vertex -1.35 -2.33827 -1
    endloop
  endfacet
  facet normal -1 0 0
    outer loop
      vertex -2.53717 -0.923454 -6.5
      vertex -2.53717 0.923454 -1
      vertex -2.53717 0.923454 -6.5
    endloop
  endfacet
  facet normal -1 -0 0
    outer loop
      vertex -2.53717 0.923454 -1
      vertex -2.53717 -0.923454 -6.5
      vertex -2.53717 -0.923454 -1
    endloop
  endfacet
  facet normal 0.309017 0.951056 -0
    outer loop
      vertex 0.386271 -1.18882 -6.5
      vertex -1.01127 -0.734731 -1
      vertex 0.386271 -1.18882 -1
    endloop
  endfacet
  facet normal 0.309017 0.951056 0
    outer loop
      vertex -1.01127 -0.734731 -1
      vertex 0.386271 -1.18882 -6.5
      vertex -1.01127 -0.734731 -6.5
    endloop
  endfacet
  facet normal 0.309017 -0.951056 0
    outer loop
      vertex -1.01127 0.734731 -6.5
      vertex 0.386271 1.18882 -1
      vertex -1.01127 0.734731 -1
    endloop
  endfacet
  facet normal 0.309017 -0.951056 0
    outer loop
      vertex 0.386271 1.18882 -1
      vertex -1.01127 0.734731 -6.5
      vertex 0.386271 1.18882 -6.5
    endloop
  endfacet
  facet normal -0.809017 -0.587786 0
    outer loop
      vertex 1.25 0 -6.5
      vertex 0.386271 1.18882 -1
      vertex 0.386271 1.18882 -6.5
    endloop
  endfacet
  facet normal -0.809017 -0.587786 0
    outer loop
      vertex 0.386271 1.18882 -1
      vertex 1.25 0 -6.5
      vertex 1.25 0 -1
    endloop
  endfacet
  facet normal 1 -0 0
    outer loop
      vertex -1.01127 -0.734731 -1
      vertex -1.01127 0.734731 -6.5
      vertex -1.01127 0.734731 -1
    endloop
  endfacet
  facet normal 1 0 0
    outer loop
      vertex -1.01127 0.734731 -6.5
      vertex -1.01127 -0.734731 -1
      vertex -1.01127 -0.734731 -6.5
    endloop
  endfacet
  facet normal -0.809017 0.587786 0
    outer loop
      vertex 0.386271 -1.18882 -6.5
      vertex 1.25 0 -1
      vertex 1.25 0 -6.5
    endloop
  endfacet
  facet normal -0.809017 0.587786 0
    outer loop
      vertex 1.25 0 -1
      vertex 0.386271 -1.18882 -6.5
      vertex 0.386271 -1.18882 -1
    endloop
  endfacet
  facet normal -0.965926 -0.25882 0
    outer loop
      vertex -3.11769 -1.8 12.5
      vertex -3.6 0 17.5
      vertex -3.6 0 12.5
    endloop
  endfacet
  facet normal -0.965926 -0.25882 0
    outer loop
      vertex -3.6 0 17.5
      vertex -3.11769 -1.8 12.5
      vertex -3.11769 -1.8 17.5
    endloop
  endfacet
  facet normal 0.707107 0.707107 0
    outer loop
      vertex 3.11769 1.8 17.5
      vertex 1.8 3.11769 12.5
      vertex 1.8 3.11769 17.5
    endloop
  endfacet
  facet normal 0.707107 0.707107 0
    outer loop
      vertex 1.8 3.11769 12.5
      vertex 3.11769 1.8 17.5
      vertex 3.11769 1.8 12.5
    endloop
  endfacet
  facet normal 0.965926 0.25882 0
    outer loop
      vertex 3.6 0 17.5
      vertex 3.11769 1.8 12.5
      vertex 3.11769 1.8 17.5
    endloop
  endfacet
  facet normal 0.965926 0.25882 0
    outer loop
      vertex 3.11769 1.8 12.5
      vertex 3.6 0 17.5
      vertex 3.6 0 12.5
    endloop
  endfacet
  facet normal 0.25882 0.965926 -0
    outer loop
      vertex 1.8 3.11769 12.5
      vertex 0 3.6 17.5
      vertex 1.8 3.11769 17.5
    endloop
  endfacet
  facet normal 0.25882 0.965926 0
    outer loop
      vertex 0 3.6 17.5
      vertex 1.8 3.11769 12.5
      vertex 0 3.6 12.5
    endloop
  endfacet
  facet normal 0.25882 -0.965926 0
    outer loop
      vertex 0 -3.6 12.5
      vertex 1.8 -3.11769 17.5
      vertex 0 -3.6 17.5
    endloop
  endfacet
  facet normal 0.25882 -0.965926 0
    outer loop
      vertex 1.8 -3.11769 17.5
      vertex 0 -3.6 12.5
      vertex 1.8 -3.11769 12.5
    endloop
  endfacet
  facet normal 0.965926 -0.25882 0
    outer loop
      vertex 3.11769 -1.8 17.5
      vertex 3.6 0 12.5
      vertex 3.6 0 17.5
    endloop
  endfacet
  facet normal 0.965926 -0.25882 0
    outer loop
      vertex 3.6 0 12.5
      vertex 3.11769 -1.8 17.5
      vertex 3.11769 -1.8 12.5
    endloop
  endfacet
  facet normal -0.707107 0.707107 0
    outer loop
      vertex -3.11769 1.8 12.5
      vertex -1.8 3.11769 17.5
      vertex -1.8 3.11769 12.5
    endloop
  endfacet
  facet normal -0.707107 0.707107 0
    outer loop
      vertex -1.8 3.11769 17.5
      vertex -3.11769 1.8 12.5
      vertex -3.11769 1.8 17.5
    endloop
  endfacet
  facet normal -0.25882 0.965926 0
    outer loop
      vertex 0 3.6 12.5
      vertex -1.8 3.11769 17.5
      vertex 0 3.6 17.5
    endloop
  endfacet
  facet normal -0.25882 0.965926 0
    outer loop
      vertex -1.8 3.11769 17.5
      vertex 0 3.6 12.5
      vertex -1.8 3.11769 12.5
    endloop
  endfacet
  facet normal -0.965926 0.25882 0
    outer loop
      vertex -3.6 0 12.5
      vertex -3.11769 1.8 17.5
      vertex -3.11769 1.8 12.5
    endloop
  endfacet
  facet normal -0.965926 0.25882 0
    outer loop
      vertex -3.11769 1.8 17.5
      vertex -3.6 0 12.5
      vertex -3.6 0 17.5
    endloop
  endfacet
  facet normal 0.707107 -0.707107 0
    outer loop
      vertex 1.8 -3.11769 17.5
      vertex 3.11769 -1.8 12.5
      vertex 3.11769 -1.8 17.5
    endloop
  endfacet
  facet normal 0.707107 -0.707107 0
    outer loop
      vertex 3.11769 -1.8 12.5
      vertex 1.8 -3.11769 17.5
      vertex 1.8 -3.11769 12.5
    endloop
  endfacet
  facet normal 0 0 1
    outer loop
      vertex 3.11769 1.8 17.5
      vertex 3.11769 -1.8 17.5
      vertex 3.6 0 17.5
    endloop
  endfacet
  facet normal 0 0 1
    outer loop
      vertex 1.8 3.11769 17.5
      vertex 3.11769 -1.8 17.5
      vertex 3.11769 1.8 17.5
    endloop
  endfacet
  facet normal 0 0 1
    outer loop
      vertex 1.8 3.11769 17.5
      vertex 1.8 -3.11769 17.5
      vertex 3.11769 -1.8 17.5
    endloop
  endfacet
  facet normal 0 0 1
    outer loop
      vertex 0 3.6 17.5
      vertex 1.8 -3.11769 17.5
      vertex 1.8 3.11769 17.5
    endloop
  endfacet
  facet normal 0 0 1
    outer loop
      vertex 0 3.6 17.5
      vertex 0 -3.6 17.5
      vertex 1.8 -3.11769 17.5
    endloop
  endfacet
  facet normal -0 0 1
    outer loop
      vertex -1.8 3.11769 17.5
      vertex 0 -3.6 17.5
      vertex 0 3.6 17.5
    endloop
  endfacet
  facet normal 0 0 1
    outer loop
      vertex -1.8 3.11769 17.5
      vertex -1.8 -3.11769 17.5
      vertex 0 -3.6 17.5
    endloop
  endfacet
  facet normal -0 0 1
    outer loop
      vertex -3.11769 1.8 17.5
      vertex -1.8 -3.11769 17.5
      vertex -1.8 3.11769 17.5
    endloop
  endfacet
  facet normal 0 0 1
    outer loop
      vertex -3.11769 1.8 17.5
      vertex -3.11769 -1.8 17.5
      vertex -1.8 -3.11769 17.5
    endloop
  endfacet
  facet normal 0 -0 1
    outer loop
      vertex -3.11769 -1.8 17.5
      vertex -3.11769 1.8 17.5
      vertex -3.6 0 17.5
    endloop
  endfacet
  facet normal -0.707107 -0.707107 0
    outer loop
      vertex -1.8 -3.11769 12.5
      vertex -3.11769 -1.8 17.5
      vertex -3.11769 -1.8 12.5
    endloop
  endfacet
  facet normal -0.707107 -0.707107 0
    outer loop
      vertex -3.11769 -1.8 17.5
      vertex -1.8 -3.11769 12.5
      vertex -1.8 -3.11769 17.5
    endloop
  endfacet
  facet normal 0 0 -1
    outer loop
      vertex 2.7 0 12.5
      vertex 3.6 0 12.5
      vertex 3.11769 -1.8 12.5
    endloop
  endfacet
  facet normal 0 0 -1
    outer loop
      vertex 3.6 0 12.5
      vertex 2.7 0 12.5
      vertex 3.11769 1.8 12.5
    endloop
  endfacet
  facet normal 0 0 -1
    outer loop
      vertex 3.11769 -1.8 12.5
      vertex 2.06832 -1.73553 12.5
      vertex 2.7 0 12.5
    endloop
  endfacet
  facet normal 0 0 -1
    outer loop
      vertex 1.8 -3.11769 12.5
      vertex 2.06832 -1.73553 12.5
      vertex 3.11769 -1.8 12.5
    endloop
  endfacet
  facet normal 0 0 -1
    outer loop
      vertex 1.8 -3.11769 12.5
      vertex 0.468849 -2.65898 12.5
      vertex 2.06832 -1.73553 12.5
    endloop
  endfacet
  facet normal 0 0 -1
    outer loop
      vertex 0 -3.6 12.5
      vertex 0.468849 -2.65898 12.5
      vertex 1.8 -3.11769 12.5
    endloop
  endfacet
  facet normal 0 0 -1
    outer loop
      vertex 0 -3.6 12.5
      vertex -1.35 -2.33827 12.5
      vertex 0.468849 -2.65898 12.5
    endloop
  endfacet
  facet normal 0 0 -1
    outer loop
      vertex -1.8 -3.11769 12.5
      vertex -1.35 -2.33827 12.5
      vertex 0 -3.6 12.5
    endloop
  endfacet
  facet normal 0 0 -1
    outer loop
      vertex -3.11769 -1.8 12.5
      vertex -1.35 -2.33827 12.5
      vertex -1.8 -3.11769 12.5
    endloop
  endfacet
  facet normal 0 0 -1
    outer loop
      vertex -3.6 0 12.5
      vertex -2.53717 -0.923454 12.5
      vertex -3.11769 -1.8 12.5
    endloop
  endfacet
  facet normal 0 0 -1
    outer loop
      vertex -1.35 -2.33827 12.5
      vertex -3.11769 -1.8 12.5
      vertex -2.53717 -0.923454 12.5
    endloop
  endfacet
  facet normal 0 0 -1
    outer loop
      vertex 2.06832 1.73553 12.5
      vertex 3.11769 1.8 12.5
      vertex 2.7 0 12.5
    endloop
  endfacet
  facet normal 0 0 -1
    outer loop
      vertex 2.06832 1.73553 12.5
      vertex 1.8 3.11769 12.5
      vertex 3.11769 1.8 12.5
    endloop
  endfacet
  facet normal 0 0 -1
    outer loop
      vertex 0.468849 2.65898 12.5
      vertex 1.8 3.11769 12.5
      vertex 2.06832 1.73553 12.5
    endloop
  endfacet
  facet normal 0 0 -1
    outer loop
      vertex 0.468849 2.65898 12.5
      vertex 0 3.6 12.5
      vertex 1.8 3.11769 12.5
    endloop
  endfacet
  facet normal 0 0 -1
    outer loop
      vertex -1.35 2.33827 12.5
      vertex 0 3.6 12.5
      vertex 0.468849 2.65898 12.5
    endloop
  endfacet
  facet normal 0 0 -1
    outer loop
      vertex -1.35 2.33827 12.5
      vertex -1.8 3.11769 12.5
      vertex 0 3.6 12.5
    endloop
  endfacet
  facet normal 0 0 -1
    outer loop
      vertex -3.11769 1.8 12.5
      vertex -1.35 2.33827 12.5
      vertex -2.53717 0.923454 12.5
    endloop
  endfacet
  facet normal -0 0 -1
    outer loop
      vertex -1.35 2.33827 12.5
      vertex -3.11769 1.8 12.5
      vertex -1.8 3.11769 12.5
    endloop
  endfacet
  facet normal 0 0 -1
    outer loop
      vertex -2.53717 -0.923454 12.5
      vertex -3.6 0 12.5
      vertex -2.53717 0.923454 12.5
    endloop
  endfacet
  facet normal -0 0 -1
    outer loop
      vertex -2.53717 0.923454 12.5
      vertex -3.6 0 12.5
      vertex -3.11769 1.8 12.5
    endloop
  endfacet
  facet normal 0 0 -1
    outer loop
      vertex 0.386271 -1.18882 12.5
      vertex 0.386271 1.18882 12.5
      vertex 1.25 0 12.5
    endloop
  endfacet
  facet normal 0 0 -1
    outer loop
      vertex -1.01127 -0.734731 12.5
      vertex 0.386271 1.18882 12.5
      vertex 0.386271 -1.18882 12.5
    endloop
  endfacet
  facet normal 0 0 -1
    outer loop
      vertex 0.386271 1.18882 12.5
      vertex -1.01127 -0.734731 12.5
      vertex -1.01127 0.734731 12.5
    endloop
  endfacet
  facet normal -0.25882 -0.965926 0
    outer loop
      vertex -1.8 -3.11769 12.5
      vertex 0 -3.6 17.5
      vertex -1.8 -3.11769 17.5
    endloop
  endfacet
  facet normal -0.25882 -0.965926 -0
    outer loop
      vertex 0 -3.6 17.5
      vertex -1.8 -3.11769 12.5
      vertex 0 -3.6 12.5
    endloop
  endfacet
  facet normal -0.965926 -0.25882 0
    outer loop
      vertex -3.11769 -1.8 -11.5
      vertex -3.6 0 -6.5
      vertex -3.6 0 -11.5
    endloop
  endfacet
  facet normal -0.965926 -0.25882 0
    outer loop
      vertex -3.6 0 -6.5
      vertex -3.11769 -1.8 -11.5
      vertex -3.11769 -1.8 -6.5
    endloop
  endfacet
  facet normal 0.707107 0.707107 0
    outer loop
      vertex 3.11769 1.8 -6.5
      vertex 1.8 3.11769 -11.5
      vertex 1.8 3.11769 -6.5
    endloop
  endfacet
  facet normal 0.707107 0.707107 0
    outer loop
      vertex 1.8 3.11769 -11.5
      vertex 3.11769 1.8 -6.5
      vertex 3.11769 1.8 -11.5
    endloop
  endfacet
  facet normal 0.965926 0.25882 0
    outer loop
      vertex 3.6 0 -6.5
      vertex 3.11769 1.8 -11.5
      vertex 3.11769 1.8 -6.5
    endloop
  endfacet
  facet normal 0.965926 0.25882 0
    outer loop
      vertex 3.11769 1.8 -11.5
      vertex 3.6 0 -6.5
      vertex 3.6 0 -11.5
    endloop
  endfacet
  facet normal 0.25882 0.965926 -0
    outer loop
      vertex 1.8 3.11769 -11.5
      vertex 0 3.6 -6.5
      vertex 1.8 3.11769 -6.5
    endloop
  endfacet
  facet normal 0.25882 0.965926 0
    outer loop
      vertex 0 3.6 -6.5
      vertex 1.8 3.11769 -11.5
      vertex 0 3.6 -11.5
    endloop
  endfacet
  facet normal 0.25882 -0.965926 0
    outer loop
      vertex 0 -3.6 -11.5
      vertex 1.8 -3.11769 -6.5
      vertex 0 -3.6 -6.5
    endloop
  endfacet
  facet normal 0.25882 -0.965926 0
    outer loop
      vertex 1.8 -3.11769 -6.5
      vertex 0 -3.6 -11.5
      vertex 1.8 -3.11769 -11.5
    endloop
  endfacet
  facet normal 0.965926 -0.25882 0
    outer loop
      vertex 3.11769 -1.8 -6.5
      vertex 3.6 0 -11.5
      vertex 3.6 0 -6.5
    endloop
  endfacet
  facet normal 0.965926 -0.25882 0
    outer loop
      vertex 3.6 0 -11.5
      vertex 3.11769 -1.8 -6.5
      vertex 3.11769 -1.8 -11.5
    endloop
  endfacet
  facet normal -0.707107 0.707107 0
    outer loop
      vertex -3.11769 1.8 -11.5
      vertex -1.8 3.11769 -6.5
      vertex -1.8 3.11769 -11.5
    endloop
  endfacet
  facet normal -0.707107 0.707107 0
    outer loop
      vertex -1.8 3.11769 -6.5
      vertex -3.11769 1.8 -11.5
      vertex -3.11769 1.8 -6.5
    endloop
  endfacet
  facet normal -0.25882 0.965926 0
    outer loop
      vertex 0 3.6 -11.5
      vertex -1.8 3.11769 -6.5
      vertex 0 3.6 -6.5
    endloop
  endfacet
  facet normal -0.25882 0.965926 0
    outer loop
      vertex -1.8 3.11769 -6.5
      vertex 0 3.6 -11.5
      vertex -1.8 3.11769 -11.5
    endloop
  endfacet
  facet normal -0.965926 0.25882 0
    outer loop
      vertex -3.6 0 -11.5
      vertex -3.11769 1.8 -6.5
      vertex -3.11769 1.8 -11.5
    endloop
  endfacet
  facet normal -0.965926 0.25882 0
    outer loop
      vertex -3.11769 1.8 -6.5
      vertex -3.6 0 -11.5
      vertex -3.6 0 -6.5
    endloop
  endfacet
  facet normal 0 0 -1
    outer loop
      vertex 3.11769 -1.8 -11.5
      vertex 3.11769 1.8 -11.5
      vertex 3.6 0 -11.5
    endloop
  endfacet
  facet normal 0 0 -1
    outer loop
      vertex 1.8 -3.11769 -11.5
      vertex 3.11769 1.8 -11.5
      vertex 3.11769 -1.8 -11.5
    endloop
  endfacet
  facet normal 0 0 -1
    outer loop
      vertex 1.8 -3.11769 -11.5
      vertex 1.8 3.11769 -11.5
      vertex 3.11769 1.8 -11.5
    endloop
  endfacet
  facet normal 0 0 -1
    outer loop
      vertex 0 -3.6 -11.5
      vertex 1.8 3.11769 -11.5
      vertex 1.8 -3.11769 -11.5
    endloop
  endfacet
  facet normal 0 0 -1
    outer loop
      vertex 0 -3.6 -11.5
      vertex 0 3.6 -11.5
      vertex 1.8 3.11769 -11.5
    endloop
  endfacet
  facet normal 0 0 -1
    outer loop
      vertex -1.8 -3.11769 -11.5
      vertex 0 3.6 -11.5
      vertex 0 -3.6 -11.5
    endloop
  endfacet
  facet normal 0 0 -1
    outer loop
      vertex -1.8 -3.11769 -11.5
      vertex -1.8 3.11769 -11.5
      vertex 0 3.6 -11.5
    endloop
  endfacet
  facet normal 0 0 -1
    outer loop
      vertex -3.11769 -1.8 -11.5
      vertex -1.8 3.11769 -11.5
      vertex -1.8 -3.11769 -11.5
    endloop
  endfacet
  facet normal 0 0 -1
    outer loop
      vertex -3.11769 -1.8 -11.5
      vertex -3.11769 1.8 -11.5
      vertex -1.8 3.11769 -11.5
    endloop
  endfacet
  facet normal 0 -0 -1
    outer loop
      vertex -3.11769 1.8 -11.5
      vertex -3.11769 -1.8 -11.5
      vertex -3.6 0 -11.5
    endloop
  endfacet
  facet normal 0.707107 -0.707107 0
    outer loop
      vertex 1.8 -3.11769 -6.5
      vertex 3.11769 -1.8 -11.5
      vertex 3.11769 -1.8 -6.5
    endloop
  endfacet
  facet normal 0.707107 -0.707107 0
    outer loop
      vertex 3.11769 -1.8 -11.5
      vertex 1.8 -3.11769 -6.5
      vertex 1.8 -3.11769 -11.5
    endloop
  endfacet
  facet normal 0 0 1
    outer loop
      vertex 2.7 0 -6.5
      vertex 3.6 0 -6.5
      vertex 3.11769 1.8 -6.5
    endloop
  endfacet
  facet normal 0 0 1
    outer loop
      vertex 3.6 0 -6.5
      vertex 2.7 0 -6.5
      vertex 3.11769 -1.8 -6.5
    endloop
  endfacet
  facet normal 0 0 1
    outer loop
      vertex 3.11769 1.8 -6.5
      vertex 2.06832 1.73553 -6.5
      vertex 2.7 0 -6.5
    endloop
  endfacet
  facet normal 0 0 1
    outer loop
      vertex 1.8 3.11769 -6.5
      vertex 2.06832 1.73553 -6.5
      vertex 3.11769 1.8 -6.5
    endloop
  endfacet
  facet normal 0 0 1
    outer loop
      vertex 1.8 3.11769 -6.5
      vertex 0.468849 2.65898 -6.5
      vertex 2.06832 1.73553 -6.5
    endloop
  endfacet
  facet normal 0 0 1
    outer loop
      vertex 0 3.6 -6.5
      vertex 0.468849 2.65898 -6.5
      vertex 1.8 3.11769 -6.5
    endloop
  endfacet
  facet normal 0 0 1
    outer loop
      vertex 0 3.6 -6.5
      vertex -1.35 2.33827 -6.5
      vertex 0.468849 2.65898 -6.5
    endloop
  endfacet
  facet normal -0 0 1
    outer loop
      vertex -1.8 3.11769 -6.5
      vertex -1.35 2.33827 -6.5
      vertex 0 3.6 -6.5
    endloop
  endfacet
  facet normal 0 0 1
    outer loop
      vertex -3.11769 1.8 -6.5
      vertex -1.35 2.33827 -6.5
      vertex -1.8 3.11769 -6.5
    endloop
  endfacet
  facet normal 0 0 1
    outer loop
      vertex -3.6 0 -6.5
      vertex -2.53717 0.923454 -6.5
      vertex -3.11769 1.8 -6.5
    endloop
  endfacet
  facet normal 0 0 1
    outer loop
      vertex -1.35 2.33827 -6.5
      vertex -3.11769 1.8 -6.5
      vertex -2.53717 0.923454 -6.5
    endloop
  endfacet
  facet normal -0 0 1
    outer loop
      vertex 2.06832 -1.73553 -6.5
      vertex 3.11769 -1.8 -6.5
      vertex 2.7 0 -6.5
    endloop
  endfacet
  facet normal 0 0 1
    outer loop
      vertex 2.06832 -1.73553 -6.5
      vertex 1.8 -3.11769 -6.5
      vertex 3.11769 -1.8 -6.5
    endloop
  endfacet
  facet normal -0 0 1
    outer loop
      vertex 0.468849 -2.65898 -6.5
      vertex 1.8 -3.11769 -6.5
      vertex 2.06832 -1.73553 -6.5
    endloop
  endfacet
  facet normal 0 0 1
    outer loop
      vertex 0.468849 -2.65898 -6.5
      vertex 0 -3.6 -6.5
      vertex 1.8 -3.11769 -6.5
    endloop
  endfacet
  facet normal 0 0 1
    outer loop
      vertex -1.35 -2.33827 -6.5
      vertex 0 -3.6 -6.5
      vertex 0.468849 -2.65898 -6.5
    endloop
  endfacet
  facet normal 0 0 1
    outer loop
      vertex -1.35 -2.33827 -6.5
      vertex -1.8 -3.11769 -6.5
      vertex 0 -3.6 -6.5
    endloop
  endfacet
  facet normal -0 0 1
    outer loop
      vertex -3.11769 -1.8 -6.5
      vertex -1.35 -2.33827 -6.5
      vertex -2.53717 -0.923454 -6.5
    endloop
  endfacet
  facet normal 0 0 1
    outer loop
      vertex -1.35 -2.33827 -6.5
      vertex -3.11769 -1.8 -6.5
      vertex -1.8 -3.11769 -6.5
    endloop
  endfacet
  facet normal 0 0 1
    outer loop
      vertex -2.53717 0.923454 -6.5
      vertex -3.6 0 -6.5
      vertex -2.53717 -0.923454 -6.5
    endloop
  endfacet
  facet normal 0 0 1
    outer loop
      vertex -2.53717 -0.923454 -6.5
      vertex -3.6 0 -6.5
      vertex -3.11769 -1.8 -6.5
    endloop
  endfacet
  facet normal 0 0 1
    outer loop
      vertex 0.386271 1.18882 -6.5
      vertex 0.386271 -1.18882 -6.5
      vertex 1.25 0 -6.5
    endloop
  endfacet
  facet normal -0 0 1
    outer loop
      vertex -1.01127 0.734731 -6.5
      vertex 0.386271 -1.18882 -6.5
      vertex 0.386271 1.18882 -6.5
    endloop
  endfacet
  facet normal 0 0 1
    outer loop
      vertex 0.386271 -1.18882 -6.5
      vertex -1.01127 0.734731 -6.5
      vertex -1.01127 -0.734731 -6.5
    endloop
  endfacet
  facet normal -0.707107 -0.707107 0
    outer loop
      vertex -1.8 -3.11769 -11.5
      vertex -3.11769 -1.8 -6.5
      vertex -3.11769 -1.8 -11.5
    endloop
  endfacet
  facet normal -0.707107 -0.707107 0
    outer loop
      vertex -3.11769 -1.8 -6.5
      vertex -1.8 -3.11769 -11.5
      vertex -1.8 -3.11769 -6.5
    endloop
  endfacet
  facet normal -0.25882 -0.965926 0
    outer loop
      vertex -1.8 -3.11769 -11.5
      vertex 0 -3.6 -6.5
      vertex -1.8 -3.11769 -6.5
    endloop
  endfacet
  facet normal -0.25882 -0.965926 -0
    outer loop
      vertex 0 -3.6 -6.5
      vertex -1.8 -3.11769 -11.5
      vertex 0 -3.6 -11.5
    endloop
  endfacet
endsolid OpenSCAD_Model
