solid OpenSCAD_Model
  facet normal 0.986925 0.103734 0.123366
    outer loop
      vertex 17.5 0 0
      vertex 14.6722 3.11868 20
      vertex 15 0 20
    endloop
  endfacet
  facet normal 0.943787 0.306672 0.123367
    outer loop
      vertex 15.987 7.11789 0
      vertex 14.6722 3.11868 20
      vertex 17.1176 3.63845 0
    endloop
  endfacet
  facet normal 0.943795 0.306648 0.123363
    outer loop
      vertex 15.987 7.11789 0
      vertex 13.7032 6.10105 20
      vertex 14.6722 3.11868 20
    endloop
  endfacet
  facet normal 0.986925 0.103726 0.123367
    outer loop
      vertex 17.1176 3.63845 0
      vertex 14.6722 3.11868 20
      vertex 17.5 0 0
    endloop
  endfacet
  facet normal -0.206312 0.970678 0.123368
    outer loop
      vertex -1.82925 17.4041 0
      vertex -5.4078 16.6435 0
      vertex -4.63525 14.2658 20
    endloop
  endfacet
  facet normal 0.986925 -0.103726 0.123367
    outer loop
      vertex 17.5 0 0
      vertex 14.6722 -3.11868 20
      vertex 17.1176 -3.63845 0
    endloop
  endfacet
  facet normal 0.859413 0.496176 0.123363
    outer loop
      vertex 14.1578 10.2862 0
      vertex 12.1353 8.81678 20
      vertex 15.987 7.11789 0
    endloop
  endfacet
  facet normal 0.859413 -0.496176 0.123363
    outer loop
      vertex 15.987 -7.11789 0
      vertex 12.1353 -8.81678 20
      vertex 14.1578 -10.2862 0
    endloop
  endfacet
  facet normal 0.583288 0.802843 0.123363
    outer loop
      vertex 8.75 15.1554 0
      vertex 7.5 12.9904 20
      vertex 10.037 11.1472 20
    endloop
  endfacet
  facet normal -0.859414 -0.496174 0.123363
    outer loop
      vertex -13.7032 -6.10105 20
      vertex -15.987 -7.11789 0
      vertex -12.1353 -8.81678 20
    endloop
  endfacet
  facet normal -0.403612 -0.906576 0.123363
    outer loop
      vertex -7.5 -12.9904 20
      vertex -8.75 -15.1554 0
      vertex -4.63525 -14.2658 20
    endloop
  endfacet
  facet normal 0.403642 -0.906561 0.123368
    outer loop
      vertex 8.75 -15.1554 0
      vertex 4.63525 -14.2658 20
      vertex 5.4078 -16.6435 0
    endloop
  endfacet
  facet normal -0.737471 0.664017 0.123363
    outer loop
      vertex -11.7098 13.005 0
      vertex -14.1578 10.2862 0
      vertex -12.1353 8.81678 20
    endloop
  endfacet
  facet normal -0.583292 -0.80284 0.123362
    outer loop
      vertex -10.037 -11.1472 20
      vertex -11.7098 -13.005 0
      vertex -8.75 -15.1554 0
    endloop
  endfacet
  facet normal -0.859413 -0.496176 0.123363
    outer loop
      vertex -12.1353 -8.81678 20
      vertex -15.987 -7.11789 0
      vertex -14.1578 -10.2862 0
    endloop
  endfacet
  facet normal -0.403642 0.906561 0.123368
    outer loop
      vertex -5.4078 16.6435 0
      vertex -8.75 15.1554 0
      vertex -4.63525 14.2658 20
    endloop
  endfacet
  facet normal 0 -0.992361 0.123365
    outer loop
      vertex -1.82925 -17.4041 0
      vertex 1.56793 -14.9178 20
      vertex -1.56793 -14.9178 20
    endloop
  endfacet
  facet normal 0 -0.992361 0.123365
    outer loop
      vertex 1.56793 -14.9178 20
      vertex -1.82925 -17.4041 0
      vertex 1.82925 -17.4041 0
    endloop
  endfacet
  facet normal -0.737472 0.664016 0.123363
    outer loop
      vertex -11.7098 13.005 0
      vertex -12.1353 8.81678 20
      vertex -10.037 11.1472 20
    endloop
  endfacet
  facet normal -0.986925 -0.103726 0.123367
    outer loop
      vertex -14.6722 -3.11868 20
      vertex -17.5 0 0
      vertex -17.1176 -3.63845 0
    endloop
  endfacet
  facet normal 0.737472 0.664016 0.123363
    outer loop
      vertex 11.7098 13.005 0
      vertex 10.037 11.1472 20
      vertex 12.1353 8.81678 20
    endloop
  endfacet
  facet normal -0.859413 0.496176 0.123363
    outer loop
      vertex -14.1578 10.2862 0
      vertex -15.987 7.11789 0
      vertex -12.1353 8.81678 20
    endloop
  endfacet
  facet normal -0.403642 -0.906561 0.123368
    outer loop
      vertex -4.63525 -14.2658 20
      vertex -8.75 -15.1554 0
      vertex -5.4078 -16.6435 0
    endloop
  endfacet
  facet normal 0.20633 0.970674 0.123365
    outer loop
      vertex 1.82925 17.4041 0
      vertex 1.56793 14.9178 20
      vertex 4.63525 14.2658 20
    endloop
  endfacet
  facet normal 0.403612 -0.906576 0.123363
    outer loop
      vertex 7.5 -12.9904 20
      vertex 4.63525 -14.2658 20
      vertex 8.75 -15.1554 0
    endloop
  endfacet
  facet normal 0.583292 0.80284 0.123362
    outer loop
      vertex 11.7098 13.005 0
      vertex 8.75 15.1554 0
      vertex 10.037 11.1472 20
    endloop
  endfacet
  facet normal 0.986925 -0.103734 0.123366
    outer loop
      vertex 15 0 20
      vertex 14.6722 -3.11868 20
      vertex 17.5 0 0
    endloop
  endfacet
  facet normal -0.403612 0.906576 0.123363
    outer loop
      vertex -4.63525 14.2658 20
      vertex -8.75 15.1554 0
      vertex -7.5 12.9904 20
    endloop
  endfacet
  facet normal 0 0 -1
    outer loop
      vertex 7.5 0 0
      vertex 17.5 0 0
      vertex 17.1176 -3.63845 0
    endloop
  endfacet
  facet normal 0 0 -1
    outer loop
      vertex 7.24444 -1.94114 0
      vertex 17.1176 -3.63845 0
      vertex 15.987 -7.11789 0
    endloop
  endfacet
  facet normal 0 0 -1
    outer loop
      vertex 17.5 0 0
      vertex 7.5 0 0
      vertex 17.1176 3.63845 0
    endloop
  endfacet
  facet normal 0 0 -1
    outer loop
      vertex 6.49519 -3.75 0
      vertex 15.987 -7.11789 0
      vertex 14.1578 -10.2862 0
    endloop
  endfacet
  facet normal 0 0 -1
    outer loop
      vertex 7.24444 1.94114 0
      vertex 17.1176 3.63845 0
      vertex 7.5 0 0
    endloop
  endfacet
  facet normal 0 0 -1
    outer loop
      vertex 5.3033 -5.3033 0
      vertex 14.1578 -10.2862 0
      vertex 11.7098 -13.005 0
    endloop
  endfacet
  facet normal -0 0 -1
    outer loop
      vertex 17.1176 3.63845 0
      vertex 7.24444 1.94114 0
      vertex 15.987 7.11789 0
    endloop
  endfacet
  facet normal 0 0 -1
    outer loop
      vertex 3.75 -6.49519 0
      vertex 11.7098 -13.005 0
      vertex 8.75 -15.1554 0
    endloop
  endfacet
  facet normal 0 0 -1
    outer loop
      vertex 6.49519 3.75 0
      vertex 15.987 7.11789 0
      vertex 7.24444 1.94114 0
    endloop
  endfacet
  facet normal -0 0 -1
    outer loop
      vertex 15.987 7.11789 0
      vertex 6.49519 3.75 0
      vertex 14.1578 10.2862 0
    endloop
  endfacet
  facet normal 0 0 -1
    outer loop
      vertex 17.1176 -3.63845 0
      vertex 7.24444 -1.94114 0
      vertex 7.5 0 0
    endloop
  endfacet
  facet normal 0 0 -1
    outer loop
      vertex 15.987 -7.11789 0
      vertex 6.49519 -3.75 0
      vertex 7.24444 -1.94114 0
    endloop
  endfacet
  facet normal 0 0 -1
    outer loop
      vertex 3.75 -6.49519 0
      vertex 8.75 -15.1554 0
      vertex 5.4078 -16.6435 0
    endloop
  endfacet
  facet normal 0 0 -1
    outer loop
      vertex 14.1578 -10.2862 0
      vertex 5.3033 -5.3033 0
      vertex 6.49519 -3.75 0
    endloop
  endfacet
  facet normal 0 0 -1
    outer loop
      vertex 11.7098 -13.005 0
      vertex 3.75 -6.49519 0
      vertex 5.3033 -5.3033 0
    endloop
  endfacet
  facet normal 0 0 -1
    outer loop
      vertex 5.4078 -16.6435 0
      vertex 1.94114 -7.24444 0
      vertex 3.75 -6.49519 0
    endloop
  endfacet
  facet normal 0 0 -1
    outer loop
      vertex 1.82925 -17.4041 0
      vertex 1.94114 -7.24444 0
      vertex 5.4078 -16.6435 0
    endloop
  endfacet
  facet normal 0 0 -1
    outer loop
      vertex 1.82925 -17.4041 0
      vertex 0 -7.5 0
      vertex 1.94114 -7.24444 0
    endloop
  endfacet
  facet normal 0 0 -1
    outer loop
      vertex -1.82925 -17.4041 0
      vertex 0 -7.5 0
      vertex 1.82925 -17.4041 0
    endloop
  endfacet
  facet normal 0 0 -1
    outer loop
      vertex -1.82925 -17.4041 0
      vertex -1.94114 -7.24444 0
      vertex 0 -7.5 0
    endloop
  endfacet
  facet normal 0 0 -1
    outer loop
      vertex -5.4078 -16.6435 0
      vertex -1.94114 -7.24444 0
      vertex -1.82925 -17.4041 0
    endloop
  endfacet
  facet normal -0 0 -1
    outer loop
      vertex -1.94114 -7.24444 0
      vertex -5.4078 -16.6435 0
      vertex -3.75 -6.49519 0
    endloop
  endfacet
  facet normal 0 0 -1
    outer loop
      vertex -8.75 -15.1554 0
      vertex -3.75 -6.49519 0
      vertex -5.4078 -16.6435 0
    endloop
  endfacet
  facet normal 0 0 -1
    outer loop
      vertex -11.7098 -13.005 0
      vertex -3.75 -6.49519 0
      vertex -8.75 -15.1554 0
    endloop
  endfacet
  facet normal -0 0 -1
    outer loop
      vertex -3.75 -6.49519 0
      vertex -11.7098 -13.005 0
      vertex -5.3033 -5.3033 0
    endloop
  endfacet
  facet normal 0 0 -1
    outer loop
      vertex -14.1578 -10.2862 0
      vertex -5.3033 -5.3033 0
      vertex -11.7098 -13.005 0
    endloop
  endfacet
  facet normal -0 0 -1
    outer loop
      vertex -5.3033 -5.3033 0
      vertex -14.1578 -10.2862 0
      vertex -6.49519 -3.75 0
    endloop
  endfacet
  facet normal 0 0 -1
    outer loop
      vertex 5.3033 5.3033 0
      vertex 14.1578 10.2862 0
      vertex 6.49519 3.75 0
    endloop
  endfacet
  facet normal -0 0 -1
    outer loop
      vertex 14.1578 10.2862 0
      vertex 5.3033 5.3033 0
      vertex 11.7098 13.005 0
    endloop
  endfacet
  facet normal 0 0 -1
    outer loop
      vertex 3.75 6.49519 0
      vertex 11.7098 13.005 0
      vertex 5.3033 5.3033 0
    endloop
  endfacet
  facet normal -0 0 -1
    outer loop
      vertex 11.7098 13.005 0
      vertex 3.75 6.49519 0
      vertex 8.75 15.1554 0
    endloop
  endfacet
  facet normal -0 0 -1
    outer loop
      vertex 8.75 15.1554 0
      vertex 3.75 6.49519 0
      vertex 5.4078 16.6435 0
    endloop
  endfacet
  facet normal 0 0 -1
    outer loop
      vertex 1.94114 7.24444 0
      vertex 5.4078 16.6435 0
      vertex 3.75 6.49519 0
    endloop
  endfacet
  facet normal 0 0 -1
    outer loop
      vertex 1.94114 7.24444 0
      vertex 1.82925 17.4041 0
      vertex 5.4078 16.6435 0
    endloop
  endfacet
  facet normal 0 0 -1
    outer loop
      vertex 0 7.5 0
      vertex 1.82925 17.4041 0
      vertex 1.94114 7.24444 0
    endloop
  endfacet
  facet normal 0 0 -1
    outer loop
      vertex 0 7.5 0
      vertex -1.82925 17.4041 0
      vertex 1.82925 17.4041 0
    endloop
  endfacet
  facet normal 0 0 -1
    outer loop
      vertex -1.94114 7.24444 0
      vertex -1.82925 17.4041 0
      vertex 0 7.5 0
    endloop
  endfacet
  facet normal 0 0 -1
    outer loop
      vertex -5.4078 16.6435 0
      vertex -1.94114 7.24444 0
      vertex -3.75 6.49519 0
    endloop
  endfacet
  facet normal 0 0 -1
    outer loop
      vertex -11.7098 13.005 0
      vertex -3.75 6.49519 0
      vertex -5.3033 5.3033 0
    endloop
  endfacet
  facet normal 0 0 -1
    outer loop
      vertex -1.94114 7.24444 0
      vertex -5.4078 16.6435 0
      vertex -1.82925 17.4041 0
    endloop
  endfacet
  facet normal 0 0 -1
    outer loop
      vertex -14.1578 10.2862 0
      vertex -5.3033 5.3033 0
      vertex -6.49519 3.75 0
    endloop
  endfacet
  facet normal 0 0 -1
    outer loop
      vertex -15.987 7.11789 0
      vertex -6.49519 3.75 0
      vertex -7.24444 1.94114 0
    endloop
  endfacet
  facet normal 0 0 -1
    outer loop
      vertex -17.1176 3.63845 0
      vertex -7.24444 1.94114 0
      vertex -7.5 0 0
    endloop
  endfacet
  facet normal 0 0 -1
    outer loop
      vertex -3.75 6.49519 0
      vertex -8.75 15.1554 0
      vertex -5.4078 16.6435 0
    endloop
  endfacet
  facet normal 0 0 -1
    outer loop
      vertex -15.987 -7.11789 0
      vertex -6.49519 -3.75 0
      vertex -14.1578 -10.2862 0
    endloop
  endfacet
  facet normal -0 0 -1
    outer loop
      vertex -6.49519 -3.75 0
      vertex -15.987 -7.11789 0
      vertex -7.24444 -1.94114 0
    endloop
  endfacet
  facet normal 0 0 -1
    outer loop
      vertex -3.75 6.49519 0
      vertex -11.7098 13.005 0
      vertex -8.75 15.1554 0
    endloop
  endfacet
  facet normal 0 0 -1
    outer loop
      vertex -17.1176 -3.63845 0
      vertex -7.24444 -1.94114 0
      vertex -15.987 -7.11789 0
    endloop
  endfacet
  facet normal 0 0 -1
    outer loop
      vertex -5.3033 5.3033 0
      vertex -14.1578 10.2862 0
      vertex -11.7098 13.005 0
    endloop
  endfacet
  facet normal -0 0 -1
    outer loop
      vertex -7.24444 -1.94114 0
      vertex -17.1176 -3.63845 0
      vertex -7.5 0 0
    endloop
  endfacet
  facet normal 0 0 -1
    outer loop
      vertex -6.49519 3.75 0
      vertex -15.987 7.11789 0
      vertex -14.1578 10.2862 0
    endloop
  endfacet
  facet normal 0 0 -1
    outer loop
      vertex -17.5 0 0
      vertex -7.5 0 0
      vertex -17.1176 -3.63845 0
    endloop
  endfacet
  facet normal 0 0 -1
    outer loop
      vertex -7.24444 1.94114 0
      vertex -17.1176 3.63845 0
      vertex -15.987 7.11789 0
    endloop
  endfacet
  facet normal 0 0 -1
    outer loop
      vertex -7.5 0 0
      vertex -17.5 0 0
      vertex -17.1176 3.63845 0
    endloop
  endfacet
  facet normal 0.737471 -0.664017 0.123363
    outer loop
      vertex 12.1353 -8.81678 20
      vertex 11.7098 -13.005 0
      vertex 14.1578 -10.2862 0
    endloop
  endfacet
  facet normal 0.206312 0.970678 0.123368
    outer loop
      vertex 5.4078 16.6435 0
      vertex 1.82925 17.4041 0
      vertex 4.63525 14.2658 20
    endloop
  endfacet
  facet normal 0.737472 -0.664016 0.123363
    outer loop
      vertex 12.1353 -8.81678 20
      vertex 10.037 -11.1472 20
      vertex 11.7098 -13.005 0
    endloop
  endfacet
  facet normal -0.583292 0.80284 0.123362
    outer loop
      vertex -8.75 15.1554 0
      vertex -11.7098 13.005 0
      vertex -10.037 11.1472 20
    endloop
  endfacet
  facet normal 0.943787 -0.306672 0.123367
    outer loop
      vertex 17.1176 -3.63845 0
      vertex 14.6722 -3.11868 20
      vertex 15.987 -7.11789 0
    endloop
  endfacet
  facet normal -0.943795 -0.306648 0.123363
    outer loop
      vertex -14.6722 -3.11868 20
      vertex -15.987 -7.11789 0
      vertex -13.7032 -6.10105 20
    endloop
  endfacet
  facet normal -0.206312 -0.970678 0.123368
    outer loop
      vertex -4.63525 -14.2658 20
      vertex -5.4078 -16.6435 0
      vertex -1.82925 -17.4041 0
    endloop
  endfacet
  facet normal -0.583288 0.802843 0.123363
    outer loop
      vertex -8.75 15.1554 0
      vertex -10.037 11.1472 20
      vertex -7.5 12.9904 20
    endloop
  endfacet
  facet normal 0.403612 0.906576 0.123363
    outer loop
      vertex 8.75 15.1554 0
      vertex 4.63525 14.2658 20
      vertex 7.5 12.9904 20
    endloop
  endfacet
  facet normal -0.20633 -0.970674 0.123365
    outer loop
      vertex -1.56793 -14.9178 20
      vertex -4.63525 -14.2658 20
      vertex -1.82925 -17.4041 0
    endloop
  endfacet
  facet normal 0.20633 -0.970674 0.123365
    outer loop
      vertex 4.63525 -14.2658 20
      vertex 1.56793 -14.9178 20
      vertex 1.82925 -17.4041 0
    endloop
  endfacet
  facet normal -0.737472 -0.664016 0.123363
    outer loop
      vertex -10.037 -11.1472 20
      vertex -12.1353 -8.81678 20
      vertex -11.7098 -13.005 0
    endloop
  endfacet
  facet normal -0.943787 -0.306672 0.123367
    outer loop
      vertex -14.6722 -3.11868 20
      vertex -17.1176 -3.63845 0
      vertex -15.987 -7.11789 0
    endloop
  endfacet
  facet normal 0.943795 -0.306648 0.123363
    outer loop
      vertex 14.6722 -3.11868 20
      vertex 13.7032 -6.10105 20
      vertex 15.987 -7.11789 0
    endloop
  endfacet
  facet normal -0.20633 0.970674 0.123365
    outer loop
      vertex -1.82925 17.4041 0
      vertex -4.63525 14.2658 20
      vertex -1.56793 14.9178 20
    endloop
  endfacet
  facet normal 0.859414 0.496174 0.123363
    outer loop
      vertex 15.987 7.11789 0
      vertex 12.1353 8.81678 20
      vertex 13.7032 6.10105 20
    endloop
  endfacet
  facet normal -0.737471 -0.664017 0.123363
    outer loop
      vertex -12.1353 -8.81678 20
      vertex -14.1578 -10.2862 0
      vertex -11.7098 -13.005 0
    endloop
  endfacet
  facet normal 0.859414 -0.496174 0.123363
    outer loop
      vertex 13.7032 -6.10105 20
      vertex 12.1353 -8.81678 20
      vertex 15.987 -7.11789 0
    endloop
  endfacet
  facet normal -0.986925 0.103726 0.123367
    outer loop
      vertex -17.1176 3.63845 0
      vertex -17.5 0 0
      vertex -14.6722 3.11868 20
    endloop
  endfacet
  facet normal 0.583292 -0.80284 0.123362
    outer loop
      vertex 10.037 -11.1472 20
      vertex 8.75 -15.1554 0
      vertex 11.7098 -13.005 0
    endloop
  endfacet
  facet normal 0.206312 -0.970678 0.123368
    outer loop
      vertex 4.63525 -14.2658 20
      vertex 1.82925 -17.4041 0
      vertex 5.4078 -16.6435 0
    endloop
  endfacet
  facet normal 0.403642 0.906561 0.123368
    outer loop
      vertex 5.4078 16.6435 0
      vertex 4.63525 14.2658 20
      vertex 8.75 15.1554 0
    endloop
  endfacet
  facet normal 0.737471 0.664017 0.123363
    outer loop
      vertex 14.1578 10.2862 0
      vertex 11.7098 13.005 0
      vertex 12.1353 8.81678 20
    endloop
  endfacet
  facet normal 0.583288 -0.802843 0.123363
    outer loop
      vertex 10.037 -11.1472 20
      vertex 7.5 -12.9904 20
      vertex 8.75 -15.1554 0
    endloop
  endfacet
  facet normal -0.943787 0.306672 0.123367
    outer loop
      vertex -15.987 7.11789 0
      vertex -17.1176 3.63845 0
      vertex -14.6722 3.11868 20
    endloop
  endfacet
  facet normal 0 0.992361 0.123365
    outer loop
      vertex 1.82925 17.4041 0
      vertex -1.56793 14.9178 20
      vertex 1.56793 14.9178 20
    endloop
  endfacet
  facet normal 0 0.992361 0.123365
    outer loop
      vertex -1.56793 14.9178 20
      vertex 1.82925 17.4041 0
      vertex -1.82925 17.4041 0
    endloop
  endfacet
  facet normal -0.583288 -0.802843 0.123363
    outer loop
      vertex -7.5 -12.9904 20
      vertex -10.037 -11.1472 20
      vertex -8.75 -15.1554 0
    endloop
  endfacet
  facet normal -0.943795 0.306648 0.123363
    outer loop
      vertex -13.7032 6.10105 20
      vertex -15.987 7.11789 0
      vertex -14.6722 3.11868 20
    endloop
  endfacet
  facet normal -0.986925 0.103734 0.123366
    outer loop
      vertex -14.6722 3.11868 20
      vertex -17.5 0 0
      vertex -15 0 20
    endloop
  endfacet
  facet normal -0.986925 -0.103734 0.123366
    outer loop
      vertex -15 0 20
      vertex -17.5 0 0
      vertex -14.6722 -3.11868 20
    endloop
  endfacet
  facet normal -0.859414 0.496174 0.123363
    outer loop
      vertex -12.1353 8.81678 20
      vertex -15.987 7.11789 0
      vertex -13.7032 6.10105 20
    endloop
  endfacet
  facet normal 0 0 1
    outer loop
      vertex 14.6722 3.11868 20
      vertex 7.24444 1.94114 20
      vertex 7.5 0 20
    endloop
  endfacet
  facet normal 0 0 1
    outer loop
      vertex 10.037 11.1472 20
      vertex 6.49519 3.75 20
      vertex 7.24444 1.94114 20
    endloop
  endfacet
  facet normal 0 0 1
    outer loop
      vertex 10.037 11.1472 20
      vertex 5.3033 5.3033 20
      vertex 6.49519 3.75 20
    endloop
  endfacet
  facet normal 0 0 1
    outer loop
      vertex 3.75 6.49519 20
      vertex 7.5 12.9904 20
      vertex 4.63525 14.2658 20
    endloop
  endfacet
  facet normal 0 0 1
    outer loop
      vertex 10.037 11.1472 20
      vertex 3.75 6.49519 20
      vertex 5.3033 5.3033 20
    endloop
  endfacet
  facet normal 0 0 1
    outer loop
      vertex 4.63525 14.2658 20
      vertex 1.94114 7.24444 20
      vertex 3.75 6.49519 20
    endloop
  endfacet
  facet normal 0 0 1
    outer loop
      vertex 1.56793 14.9178 20
      vertex 1.94114 7.24444 20
      vertex 4.63525 14.2658 20
    endloop
  endfacet
  facet normal 0 0 1
    outer loop
      vertex 1.56793 14.9178 20
      vertex 0 7.5 20
      vertex 1.94114 7.24444 20
    endloop
  endfacet
  facet normal -0 0 1
    outer loop
      vertex -1.56793 14.9178 20
      vertex 0 7.5 20
      vertex 1.56793 14.9178 20
    endloop
  endfacet
  facet normal 0 0 1
    outer loop
      vertex -1.56793 14.9178 20
      vertex -1.94114 7.24444 20
      vertex 0 7.5 20
    endloop
  endfacet
  facet normal -0 0 1
    outer loop
      vertex -4.63525 14.2658 20
      vertex -1.94114 7.24444 20
      vertex -1.56793 14.9178 20
    endloop
  endfacet
  facet normal 0 0 1
    outer loop
      vertex -1.94114 7.24444 20
      vertex -4.63525 14.2658 20
      vertex -3.75 6.49519 20
    endloop
  endfacet
  facet normal -0 0 1
    outer loop
      vertex -7.5 12.9904 20
      vertex -3.75 6.49519 20
      vertex -4.63525 14.2658 20
    endloop
  endfacet
  facet normal -0 0 1
    outer loop
      vertex -10.037 11.1472 20
      vertex -3.75 6.49519 20
      vertex -7.5 12.9904 20
    endloop
  endfacet
  facet normal 0 0 1
    outer loop
      vertex -3.75 6.49519 20
      vertex -10.037 11.1472 20
      vertex -5.3033 5.3033 20
    endloop
  endfacet
  facet normal -0 0 1
    outer loop
      vertex -12.1353 8.81678 20
      vertex -5.3033 5.3033 20
      vertex -10.037 11.1472 20
    endloop
  endfacet
  facet normal 0 0 1
    outer loop
      vertex -5.3033 5.3033 20
      vertex -12.1353 8.81678 20
      vertex -6.49519 3.75 20
    endloop
  endfacet
  facet normal -0 0 1
    outer loop
      vertex -13.7032 6.10105 20
      vertex -6.49519 3.75 20
      vertex -12.1353 8.81678 20
    endloop
  endfacet
  facet normal 0 0 1
    outer loop
      vertex -6.49519 3.75 20
      vertex -13.7032 6.10105 20
      vertex -7.24444 1.94114 20
    endloop
  endfacet
  facet normal 0 0 1
    outer loop
      vertex -7.5 0 20
      vertex -10.037 -11.1472 20
      vertex -7.5 -12.9904 20
    endloop
  endfacet
  facet normal -0 0 1
    outer loop
      vertex -14.6722 3.11868 20
      vertex -7.24444 1.94114 20
      vertex -13.7032 6.10105 20
    endloop
  endfacet
  facet normal 0 0 1
    outer loop
      vertex -7.5 0 20
      vertex -12.1353 -8.81678 20
      vertex -10.037 -11.1472 20
    endloop
  endfacet
  facet normal 0 0 1
    outer loop
      vertex -7.24444 1.94114 20
      vertex -14.6722 3.11868 20
      vertex -7.5 0 20
    endloop
  endfacet
  facet normal 0 0 1
    outer loop
      vertex -7.5 0 20
      vertex -13.7032 -6.10105 20
      vertex -12.1353 -8.81678 20
    endloop
  endfacet
  facet normal 0 0 1
    outer loop
      vertex -15 0 20
      vertex -7.5 0 20
      vertex -14.6722 3.11868 20
    endloop
  endfacet
  facet normal 0 0 1
    outer loop
      vertex -7.5 0 20
      vertex -14.6722 -3.11868 20
      vertex -13.7032 -6.10105 20
    endloop
  endfacet
  facet normal 0 0 1
    outer loop
      vertex -7.5 0 20
      vertex -15 0 20
      vertex -14.6722 -3.11868 20
    endloop
  endfacet
  facet normal 0 0 1
    outer loop
      vertex 7.5 0 20
      vertex 15 0 20
      vertex 14.6722 3.11868 20
    endloop
  endfacet
  facet normal 0 0 1
    outer loop
      vertex 7.24444 1.94114 20
      vertex 14.6722 3.11868 20
      vertex 13.7032 6.10105 20
    endloop
  endfacet
  facet normal 0 0 1
    outer loop
      vertex 15 0 20
      vertex 7.5 0 20
      vertex 14.6722 -3.11868 20
    endloop
  endfacet
  facet normal 0 0 1
    outer loop
      vertex 7.24444 1.94114 20
      vertex 13.7032 6.10105 20
      vertex 12.1353 8.81678 20
    endloop
  endfacet
  facet normal -0 0 1
    outer loop
      vertex 7.24444 -1.94114 20
      vertex 14.6722 -3.11868 20
      vertex 7.5 0 20
    endloop
  endfacet
  facet normal 0 0 1
    outer loop
      vertex 7.24444 1.94114 20
      vertex 12.1353 8.81678 20
      vertex 10.037 11.1472 20
    endloop
  endfacet
  facet normal 0 0 1
    outer loop
      vertex 14.6722 -3.11868 20
      vertex 7.24444 -1.94114 20
      vertex 13.7032 -6.10105 20
    endloop
  endfacet
  facet normal 0 0 1
    outer loop
      vertex 3.75 6.49519 20
      vertex 10.037 11.1472 20
      vertex 7.5 12.9904 20
    endloop
  endfacet
  facet normal -0 0 1
    outer loop
      vertex 6.49519 -3.75 20
      vertex 13.7032 -6.10105 20
      vertex 7.24444 -1.94114 20
    endloop
  endfacet
  facet normal 0 0 1
    outer loop
      vertex 13.7032 -6.10105 20
      vertex 6.49519 -3.75 20
      vertex 12.1353 -8.81678 20
    endloop
  endfacet
  facet normal -0 0 1
    outer loop
      vertex 5.3033 -5.3033 20
      vertex 12.1353 -8.81678 20
      vertex 6.49519 -3.75 20
    endloop
  endfacet
  facet normal 0 0 1
    outer loop
      vertex 12.1353 -8.81678 20
      vertex 5.3033 -5.3033 20
      vertex 10.037 -11.1472 20
    endloop
  endfacet
  facet normal -0 0 1
    outer loop
      vertex 3.75 -6.49519 20
      vertex 10.037 -11.1472 20
      vertex 5.3033 -5.3033 20
    endloop
  endfacet
  facet normal 0 0 1
    outer loop
      vertex 10.037 -11.1472 20
      vertex 3.75 -6.49519 20
      vertex 7.5 -12.9904 20
    endloop
  endfacet
  facet normal 0 0 1
    outer loop
      vertex 7.5 -12.9904 20
      vertex 3.75 -6.49519 20
      vertex 4.63525 -14.2658 20
    endloop
  endfacet
  facet normal -0 0 1
    outer loop
      vertex 1.94114 -7.24444 20
      vertex 4.63525 -14.2658 20
      vertex 3.75 -6.49519 20
    endloop
  endfacet
  facet normal 0 0 1
    outer loop
      vertex 1.94114 -7.24444 20
      vertex 1.56793 -14.9178 20
      vertex 4.63525 -14.2658 20
    endloop
  endfacet
  facet normal -0 0 1
    outer loop
      vertex 0 -7.5 20
      vertex 1.56793 -14.9178 20
      vertex 1.94114 -7.24444 20
    endloop
  endfacet
  facet normal 0 0 1
    outer loop
      vertex 0 -7.5 20
      vertex -1.56793 -14.9178 20
      vertex 1.56793 -14.9178 20
    endloop
  endfacet
  facet normal 0 0 1
    outer loop
      vertex -1.94114 -7.24444 20
      vertex -1.56793 -14.9178 20
      vertex 0 -7.5 20
    endloop
  endfacet
  facet normal 0 0 1
    outer loop
      vertex -4.63525 -14.2658 20
      vertex -1.94114 -7.24444 20
      vertex -3.75 -6.49519 20
    endloop
  endfacet
  facet normal 0 0 1
    outer loop
      vertex -1.94114 -7.24444 20
      vertex -4.63525 -14.2658 20
      vertex -1.56793 -14.9178 20
    endloop
  endfacet
  facet normal 0 0 1
    outer loop
      vertex -7.5 -12.9904 20
      vertex -3.75 -6.49519 20
      vertex -5.3033 -5.3033 20
    endloop
  endfacet
  facet normal 0 0 1
    outer loop
      vertex -7.5 -12.9904 20
      vertex -5.3033 -5.3033 20
      vertex -6.49519 -3.75 20
    endloop
  endfacet
  facet normal 0 0 1
    outer loop
      vertex -7.5 -12.9904 20
      vertex -6.49519 -3.75 20
      vertex -7.24444 -1.94114 20
    endloop
  endfacet
  facet normal 0 0 1
    outer loop
      vertex -3.75 -6.49519 20
      vertex -7.5 -12.9904 20
      vertex -4.63525 -14.2658 20
    endloop
  endfacet
  facet normal 0 0 1
    outer loop
      vertex -7.5 -12.9904 20
      vertex -7.24444 -1.94114 20
      vertex -7.5 0 20
    endloop
  endfacet
  facet normal -0.92388 -0.382682 0
    outer loop
      vertex 7.24444 1.94114 0
      vertex 6.49519 3.75 20
      vertex 6.49519 3.75 0
    endloop
  endfacet
  facet normal -0.92388 -0.382682 0
    outer loop
      vertex 6.49519 3.75 20
      vertex 7.24444 1.94114 0
      vertex 7.24444 1.94114 20
    endloop
  endfacet
  facet normal -0.991445 -0.130528 0
    outer loop
      vertex 7.5 0 0
      vertex 7.24444 1.94114 20
      vertex 7.24444 1.94114 0
    endloop
  endfacet
  facet normal -0.991445 -0.130528 0
    outer loop
      vertex 7.24444 1.94114 20
      vertex 7.5 0 0
      vertex 7.5 0 20
    endloop
  endfacet
  facet normal -0.793353 -0.608762 0
    outer loop
      vertex 6.49519 3.75 0
      vertex 5.3033 5.3033 20
      vertex 5.3033 5.3033 0
    endloop
  endfacet
  facet normal -0.793353 -0.608762 0
    outer loop
      vertex 5.3033 5.3033 20
      vertex 6.49519 3.75 0
      vertex 6.49519 3.75 20
    endloop
  endfacet
  facet normal 0.793353 -0.608762 0
    outer loop
      vertex -6.49519 3.75 20
      vertex -5.3033 5.3033 0
      vertex -5.3033 5.3033 20
    endloop
  endfacet
  facet normal 0.793353 -0.608762 0
    outer loop
      vertex -5.3033 5.3033 0
      vertex -6.49519 3.75 20
      vertex -6.49519 3.75 0
    endloop
  endfacet
  facet normal 0.608762 -0.793353 0
    outer loop
      vertex -5.3033 5.3033 0
      vertex -3.75 6.49519 20
      vertex -5.3033 5.3033 20
    endloop
  endfacet
  facet normal 0.608762 -0.793353 0
    outer loop
      vertex -3.75 6.49519 20
      vertex -5.3033 5.3033 0
      vertex -3.75 6.49519 0
    endloop
  endfacet
  facet normal -0.382682 0.92388 0
    outer loop
      vertex 3.75 -6.49519 0
      vertex 1.94114 -7.24444 20
      vertex 3.75 -6.49519 20
    endloop
  endfacet
  facet normal -0.382682 0.92388 0
    outer loop
      vertex 1.94114 -7.24444 20
      vertex 3.75 -6.49519 0
      vertex 1.94114 -7.24444 0
    endloop
  endfacet
  facet normal 0.92388 -0.382682 0
    outer loop
      vertex -7.24444 1.94114 20
      vertex -6.49519 3.75 0
      vertex -6.49519 3.75 20
    endloop
  endfacet
  facet normal 0.92388 -0.382682 0
    outer loop
      vertex -6.49519 3.75 0
      vertex -7.24444 1.94114 20
      vertex -7.24444 1.94114 0
    endloop
  endfacet
  facet normal -0.608762 -0.793353 0
    outer loop
      vertex 3.75 6.49519 0
      vertex 5.3033 5.3033 20
      vertex 3.75 6.49519 20
    endloop
  endfacet
  facet normal -0.608762 -0.793353 -0
    outer loop
      vertex 5.3033 5.3033 20
      vertex 3.75 6.49519 0
      vertex 5.3033 5.3033 0
    endloop
  endfacet
  facet normal -0.130528 -0.991445 0
    outer loop
      vertex 0 7.5 0
      vertex 1.94114 7.24444 20
      vertex 0 7.5 20
    endloop
  endfacet
  facet normal -0.130528 -0.991445 -0
    outer loop
      vertex 1.94114 7.24444 20
      vertex 0 7.5 0
      vertex 1.94114 7.24444 0
    endloop
  endfacet
  facet normal 0.382682 0.92388 -0
    outer loop
      vertex -1.94114 -7.24444 0
      vertex -3.75 -6.49519 20
      vertex -1.94114 -7.24444 20
    endloop
  endfacet
  facet normal 0.382682 0.92388 0
    outer loop
      vertex -3.75 -6.49519 20
      vertex -1.94114 -7.24444 0
      vertex -3.75 -6.49519 0
    endloop
  endfacet
  facet normal -0.130528 0.991445 0
    outer loop
      vertex 1.94114 -7.24444 0
      vertex 0 -7.5 20
      vertex 1.94114 -7.24444 20
    endloop
  endfacet
  facet normal -0.130528 0.991445 0
    outer loop
      vertex 0 -7.5 20
      vertex 1.94114 -7.24444 0
      vertex 0 -7.5 0
    endloop
  endfacet
  facet normal -0.793353 0.608762 0
    outer loop
      vertex 5.3033 -5.3033 0
      vertex 6.49519 -3.75 20
      vertex 6.49519 -3.75 0
    endloop
  endfacet
  facet normal -0.793353 0.608762 0
    outer loop
      vertex 6.49519 -3.75 20
      vertex 5.3033 -5.3033 0
      vertex 5.3033 -5.3033 20
    endloop
  endfacet
  facet normal -0.608762 0.793353 0
    outer loop
      vertex 5.3033 -5.3033 0
      vertex 3.75 -6.49519 20
      vertex 5.3033 -5.3033 20
    endloop
  endfacet
  facet normal -0.608762 0.793353 0
    outer loop
      vertex 3.75 -6.49519 20
      vertex 5.3033 -5.3033 0
      vertex 3.75 -6.49519 0
    endloop
  endfacet
  facet normal 0.793353 0.608762 0
    outer loop
      vertex -5.3033 -5.3033 20
      vertex -6.49519 -3.75 0
      vertex -6.49519 -3.75 20
    endloop
  endfacet
  facet normal 0.793353 0.608762 0
    outer loop
      vertex -6.49519 -3.75 0
      vertex -5.3033 -5.3033 20
      vertex -5.3033 -5.3033 0
    endloop
  endfacet
  facet normal -0.991445 0.130528 0
    outer loop
      vertex 7.24444 -1.94114 0
      vertex 7.5 0 20
      vertex 7.5 0 0
    endloop
  endfacet
  facet normal -0.991445 0.130528 0
    outer loop
      vertex 7.5 0 20
      vertex 7.24444 -1.94114 0
      vertex 7.24444 -1.94114 20
    endloop
  endfacet
  facet normal 0.991445 -0.130528 0
    outer loop
      vertex -7.5 0 20
      vertex -7.24444 1.94114 0
      vertex -7.24444 1.94114 20
    endloop
  endfacet
  facet normal 0.991445 -0.130528 0
    outer loop
      vertex -7.24444 1.94114 0
      vertex -7.5 0 20
      vertex -7.5 0 0
    endloop
  endfacet
  facet normal 0.130528 -0.991445 0
    outer loop
      vertex -1.94114 7.24444 0
      vertex 0 7.5 20
      vertex -1.94114 7.24444 20
    endloop
  endfacet
  facet normal 0.130528 -0.991445 0
    outer loop
      vertex 0 7.5 20
      vertex -1.94114 7.24444 0
      vertex 0 7.5 0
    endloop
  endfacet
  facet normal -0.92388 0.382682 0
    outer loop
      vertex 6.49519 -3.75 0
      vertex 7.24444 -1.94114 20
      vertex 7.24444 -1.94114 0
    endloop
  endfacet
  facet normal -0.92388 0.382682 0
    outer loop
      vertex 7.24444 -1.94114 20
      vertex 6.49519 -3.75 0
      vertex 6.49519 -3.75 20
    endloop
  endfacet
  facet normal 0.382682 -0.92388 0
    outer loop
      vertex -3.75 6.49519 0
      vertex -1.94114 7.24444 20
      vertex -3.75 6.49519 20
    endloop
  endfacet
  facet normal 0.382682 -0.92388 0
    outer loop
      vertex -1.94114 7.24444 20
      vertex -3.75 6.49519 0
      vertex -1.94114 7.24444 0
    endloop
  endfacet
  facet normal -0.382682 -0.92388 0
    outer loop
      vertex 1.94114 7.24444 0
      vertex 3.75 6.49519 20
      vertex 1.94114 7.24444 20
    endloop
  endfacet
  facet normal -0.382682 -0.92388 -0
    outer loop
      vertex 3.75 6.49519 20
      vertex 1.94114 7.24444 0
      vertex 3.75 6.49519 0
    endloop
  endfacet
  facet normal 0.130528 0.991445 -0
    outer loop
      vertex 0 -7.5 0
      vertex -1.94114 -7.24444 20
      vertex 0 -7.5 20
    endloop
  endfacet
  facet normal 0.130528 0.991445 0
    outer loop
      vertex -1.94114 -7.24444 20
      vertex 0 -7.5 0
      vertex -1.94114 -7.24444 0
    endloop
  endfacet
  facet normal 0.92388 0.382682 0
    outer loop
      vertex -6.49519 -3.75 20
      vertex -7.24444 -1.94114 0
      vertex -7.24444 -1.94114 20
    endloop
  endfacet
  facet normal 0.92388 0.382682 0
    outer loop
      vertex -7.24444 -1.94114 0
      vertex -6.49519 -3.75 20
      vertex -6.49519 -3.75 0
    endloop
  endfacet
  facet normal 0.991445 0.130528 0
    outer loop
      vertex -7.24444 -1.94114 20
      vertex -7.5 0 0
      vertex -7.5 0 20
    endloop
  endfacet
  facet normal 0.991445 0.130528 0
    outer loop
      vertex -7.5 0 0
      vertex -7.24444 -1.94114 20
      vertex -7.24444 -1.94114 0
    endloop
  endfacet
  facet normal 0.608762 0.793353 -0
    outer loop
      vertex -3.75 -6.49519 0
      vertex -5.3033 -5.3033 20
      vertex -3.75 -6.49519 20
    endloop
  endfacet
  facet normal 0.608762 0.793353 0
    outer loop
      vertex -5.3033 -5.3033 20
      vertex -3.75 -6.49519 0
      vertex -5.3033 -5.3033 0
    endloop
  endfacet
endsolid OpenSCAD_Model
