solid OpenSCAD_Model
  facet normal 1 0 0
    outer loop
      vertex 30 10 42
      vertex 30 0 42
      vertex 30 10 40
    endloop
  endfacet
  facet normal 1 -0 0
    outer loop
      vertex 30 10 40
      vertex 30 30 0
      vertex 30 30 40
    endloop
  endfacet
  facet normal 1 0 0
    outer loop
      vertex 30 0 0
      vertex 30 10 40
      vertex 30 0 42
    endloop
  endfacet
  facet normal 1 0 0
    outer loop
      vertex 30 10 40
      vertex 30 0 0
      vertex 30 30 0
    endloop
  endfacet
  facet normal 0 0 -1
    outer loop
      vertex 27 0 10
      vertex 29 10 10
      vertex 29 0 10
    endloop
  endfacet
  facet normal -0 0 -1
    outer loop
      vertex 29 10 10
      vertex 27 0 10
      vertex 27 10 10
    endloop
  endfacet
  facet normal -0 0 1
    outer loop
      vertex 10 30 10
      vertex 20 20 10
      vertex 20 30 10
    endloop
  endfacet
  facet normal 0 0 1
    outer loop
      vertex 20 20 10
      vertex 10 30 10
      vertex 10 20 10
    endloop
  endfacet
  facet normal -0 0 1
    outer loop
      vertex 10 10 10
      vertex 20 0 10
      vertex 20 10 10
    endloop
  endfacet
  facet normal 0 0 1
    outer loop
      vertex 20 0 10
      vertex 10 10 10
      vertex 10 0 10
    endloop
  endfacet
  facet normal 0 0 -1
    outer loop
      vertex 0 0 0
      vertex 30 30 0
      vertex 30 0 0
    endloop
  endfacet
  facet normal -0 0 -1
    outer loop
      vertex 30 30 0
      vertex 0 0 0
      vertex 0 30 0
    endloop
  endfacet
  facet normal -1 0 0
    outer loop
      vertex 0 0 0
      vertex 0 30 40
      vertex 0 30 0
    endloop
  endfacet
  facet normal -1 -0 0
    outer loop
      vertex 0 30 40
      vertex 0 0 0
      vertex 0 0 40
    endloop
  endfacet
  facet normal 0 1 0
    outer loop
      vertex 30 30 40
      vertex 20 30 30
      vertex 0 30 40
    endloop
  endfacet
  facet normal 0 1 0
    outer loop
      vertex 30 30 40
      vertex 20 30 10
      vertex 20 30 30
    endloop
  endfacet
  facet normal 0 1 0
    outer loop
      vertex 20 30 10
      vertex 30 30 0
      vertex 10 30 10
    endloop
  endfacet
  facet normal 0 1 -0
    outer loop
      vertex 30 30 0
      vertex 20 30 10
      vertex 30 30 40
    endloop
  endfacet
  facet normal 0 1 -0
    outer loop
      vertex 10 30 30
      vertex 0 30 40
      vertex 20 30 30
    endloop
  endfacet
  facet normal 0 1 -0
    outer loop
      vertex 10 30 10
      vertex 0 30 40
      vertex 10 30 30
    endloop
  endfacet
  facet normal 0 1 0
    outer loop
      vertex 10 30 10
      vertex 0 30 0
      vertex 0 30 40
    endloop
  endfacet
  facet normal 0 1 0
    outer loop
      vertex 0 30 0
      vertex 10 30 10
      vertex 30 30 0
    endloop
  endfacet
  facet normal 0 -1 0
    outer loop
      vertex 0 0 40
      vertex 10 0 30
      vertex 26 0 40
    endloop
  endfacet
  facet normal 0 -1 0
    outer loop
      vertex 0 0 40
      vertex 10 0 10
      vertex 10 0 30
    endloop
  endfacet
  facet normal 0 -1 0
    outer loop
      vertex 30 0 0
      vertex 20 0 10
      vertex 10 0 10
    endloop
  endfacet
  facet normal 0 -1 0
    outer loop
      vertex 20 0 10
      vertex 27 0 8.5
      vertex 27 0 10
    endloop
  endfacet
  facet normal 0 -1 0
    outer loop
      vertex 20 0 10
      vertex 30 0 0
      vertex 27 0 8.5
    endloop
  endfacet
  facet normal 0 -1 0
    outer loop
      vertex 30 0 0
      vertex 10 0 10
      vertex 0 0 0
    endloop
  endfacet
  facet normal 0 -1 0
    outer loop
      vertex 0 0 0
      vertex 10 0 10
      vertex 0 0 40
    endloop
  endfacet
  facet normal 0 -1 0
    outer loop
      vertex 26 0 40
      vertex 30 0 42
      vertex 26 0 42
    endloop
  endfacet
  facet normal 0 -1 0
    outer loop
      vertex 20 0 30
      vertex 26 0 40
      vertex 10 0 30
    endloop
  endfacet
  facet normal 0 -1 -0
    outer loop
      vertex 26 0 40
      vertex 20 0 30
      vertex 30 0 42
    endloop
  endfacet
  facet normal 0 -1 0
    outer loop
      vertex 27 0 10
      vertex 20 0 30
      vertex 20 0 10
    endloop
  endfacet
  facet normal 0 -1 0
    outer loop
      vertex 29 0 10
      vertex 20 0 30
      vertex 27 0 10
    endloop
  endfacet
  facet normal 0 -1 0
    outer loop
      vertex 20 0 30
      vertex 29 0 10
      vertex 30 0 42
    endloop
  endfacet
  facet normal 0 -1 0
    outer loop
      vertex 30 0 0
      vertex 29 0 10
      vertex 29 0 8.5
    endloop
  endfacet
  facet normal 0 -1 0
    outer loop
      vertex 29 0 10
      vertex 30 0 0
      vertex 30 0 42
    endloop
  endfacet
  facet normal 0 -1 0
    outer loop
      vertex 27 0 8.5
      vertex 30 0 0
      vertex 29 0 8.5
    endloop
  endfacet
  facet normal -1 0 0
    outer loop
      vertex 29 0 8.5
      vertex 29 10 10
      vertex 29 10 8.5
    endloop
  endfacet
  facet normal -1 -0 0
    outer loop
      vertex 29 10 10
      vertex 29 0 8.5
      vertex 29 0 10
    endloop
  endfacet
  facet normal -0 0 1
    outer loop
      vertex 27 10 8.5
      vertex 29 0 8.5
      vertex 29 10 8.5
    endloop
  endfacet
  facet normal 0 0 1
    outer loop
      vertex 29 0 8.5
      vertex 27 10 8.5
      vertex 27 0 8.5
    endloop
  endfacet
  facet normal 1 -0 0
    outer loop
      vertex 27 0 10
      vertex 27 10 8.5
      vertex 27 10 10
    endloop
  endfacet
  facet normal 1 0 0
    outer loop
      vertex 27 10 8.5
      vertex 27 0 10
      vertex 27 0 8.5
    endloop
  endfacet
  facet normal 0 -1 0
    outer loop
      vertex 27 10 8.5
      vertex 29 10 10
      vertex 27 10 10
    endloop
  endfacet
  facet normal 0 -1 -0
    outer loop
      vertex 29 10 10
      vertex 27 10 8.5
      vertex 29 10 8.5
    endloop
  endfacet
  facet normal -0 0 1
    outer loop
      vertex 10 20 20
      vertex 20 10 20
      vertex 20 20 20
    endloop
  endfacet
  facet normal 0 0 1
    outer loop
      vertex 20 10 20
      vertex 10 20 20
      vertex 10 10 20
    endloop
  endfacet
  facet normal 0 1 -0
    outer loop
      vertex 20 20 18
      vertex 10 20 20
      vertex 20 20 20
    endloop
  endfacet
  facet normal 0 1 0
    outer loop
      vertex 10 20 20
      vertex 20 20 18
      vertex 10 20 18
    endloop
  endfacet
  facet normal 0 1 -0
    outer loop
      vertex 20 20 10
      vertex 10 20 12
      vertex 20 20 12
    endloop
  endfacet
  facet normal 0 1 0
    outer loop
      vertex 10 20 12
      vertex 20 20 10
      vertex 10 20 10
    endloop
  endfacet
  facet normal 0 -1 0
    outer loop
      vertex 10 10 18
      vertex 20 10 20
      vertex 10 10 20
    endloop
  endfacet
  facet normal 0 -1 -0
    outer loop
      vertex 20 10 20
      vertex 10 10 18
      vertex 20 10 18
    endloop
  endfacet
  facet normal 0 -1 0
    outer loop
      vertex 10 10 10
      vertex 20 10 12
      vertex 10 10 12
    endloop
  endfacet
  facet normal 0 -1 -0
    outer loop
      vertex 20 10 12
      vertex 10 10 10
      vertex 20 10 10
    endloop
  endfacet
  facet normal -1 0 0
    outer loop
      vertex 20 0 10
      vertex 20 10 12
      vertex 20 10 10
    endloop
  endfacet
  facet normal -1 -0 0
    outer loop
      vertex 20 10 12
      vertex 20 0 10
      vertex 20 10 18
    endloop
  endfacet
  facet normal -1 -0 0
    outer loop
      vertex 20 10 18
      vertex 20 0 10
      vertex 20 10 20
    endloop
  endfacet
  facet normal -1 0 0
    outer loop
      vertex 20 10 12
      vertex 20 20 18
      vertex 20 20 12
    endloop
  endfacet
  facet normal -1 -0 0
    outer loop
      vertex 20 20 18
      vertex 20 10 12
      vertex 20 10 18
    endloop
  endfacet
  facet normal -1 0 0
    outer loop
      vertex 20 20 12
      vertex 20 30 10
      vertex 20 20 10
    endloop
  endfacet
  facet normal -1 0 0
    outer loop
      vertex 20 20 18
      vertex 20 30 10
      vertex 20 20 12
    endloop
  endfacet
  facet normal -1 0 0
    outer loop
      vertex 20 20 20
      vertex 20 30 10
      vertex 20 20 18
    endloop
  endfacet
  facet normal -1 0 0
    outer loop
      vertex 20 30 10
      vertex 20 20 20
      vertex 20 30 30
    endloop
  endfacet
  facet normal -1 0 0
    outer loop
      vertex 20 10 20
      vertex 20 30 30
      vertex 20 20 20
    endloop
  endfacet
  facet normal -1 0 0
    outer loop
      vertex 20 10 20
      vertex 20 0 30
      vertex 20 30 30
    endloop
  endfacet
  facet normal -1 0 0
    outer loop
      vertex 20 0 30
      vertex 20 10 20
      vertex 20 0 10
    endloop
  endfacet
  facet normal 0 0 -1
    outer loop
      vertex 10 10 18
      vertex 20 20 18
      vertex 20 10 18
    endloop
  endfacet
  facet normal -0 0 -1
    outer loop
      vertex 20 20 18
      vertex 10 10 18
      vertex 10 20 18
    endloop
  endfacet
  facet normal -0 0 1
    outer loop
      vertex 10 20 12
      vertex 20 10 12
      vertex 20 20 12
    endloop
  endfacet
  facet normal 0 0 1
    outer loop
      vertex 20 10 12
      vertex 10 20 12
      vertex 10 10 12
    endloop
  endfacet
  facet normal 1 -0 0
    outer loop
      vertex 10 10 18
      vertex 10 20 12
      vertex 10 20 18
    endloop
  endfacet
  facet normal 1 0 0
    outer loop
      vertex 10 20 12
      vertex 10 10 18
      vertex 10 10 12
    endloop
  endfacet
  facet normal 1 0 0
    outer loop
      vertex 10 30 30
      vertex 10 20 20
      vertex 10 30 10
    endloop
  endfacet
  facet normal 1 0 0
    outer loop
      vertex 10 30 30
      vertex 10 10 20
      vertex 10 20 20
    endloop
  endfacet
  facet normal 1 0 0
    outer loop
      vertex 10 0 10
      vertex 10 10 18
      vertex 10 10 20
    endloop
  endfacet
  facet normal 1 0 0
    outer loop
      vertex 10 10 18
      vertex 10 0 10
      vertex 10 10 12
    endloop
  endfacet
  facet normal 1 -0 0
    outer loop
      vertex 10 0 30
      vertex 10 10 20
      vertex 10 30 30
    endloop
  endfacet
  facet normal 1 0 0
    outer loop
      vertex 10 0 10
      vertex 10 10 20
      vertex 10 0 30
    endloop
  endfacet
  facet normal 1 0 0
    outer loop
      vertex 10 10 12
      vertex 10 0 10
      vertex 10 10 10
    endloop
  endfacet
  facet normal 1 -0 0
    outer loop
      vertex 10 20 18
      vertex 10 30 10
      vertex 10 20 20
    endloop
  endfacet
  facet normal 1 -0 0
    outer loop
      vertex 10 20 12
      vertex 10 30 10
      vertex 10 20 18
    endloop
  endfacet
  facet normal 1 0 0
    outer loop
      vertex 10 30 10
      vertex 10 20 12
      vertex 10 20 10
    endloop
  endfacet
  facet normal 0 0 1
    outer loop
      vertex 30 30 40
      vertex 26 10 40
      vertex 30 10 40
    endloop
  endfacet
  facet normal -0 0 1
    outer loop
      vertex 0 30 40
      vertex 26 10 40
      vertex 30 30 40
    endloop
  endfacet
  facet normal 0 0 1
    outer loop
      vertex 0 0 40
      vertex 26 10 40
      vertex 0 30 40
    endloop
  endfacet
  facet normal 0 0 1
    outer loop
      vertex 26 10 40
      vertex 0 0 40
      vertex 26 0 40
    endloop
  endfacet
  facet normal 0 0 -1
    outer loop
      vertex 10 0 30
      vertex 20 30 30
      vertex 20 0 30
    endloop
  endfacet
  facet normal -0 0 -1
    outer loop
      vertex 20 30 30
      vertex 10 0 30
      vertex 10 30 30
    endloop
  endfacet
  facet normal -0 0 1
    outer loop
      vertex 26 10 42
      vertex 30 0 42
      vertex 30 10 42
    endloop
  endfacet
  facet normal 0 0 1
    outer loop
      vertex 30 0 42
      vertex 26 10 42
      vertex 26 0 42
    endloop
  endfacet
  facet normal -1 0 0
    outer loop
      vertex 26 0 40
      vertex 26 10 42
      vertex 26 10 40
    endloop
  endfacet
  facet normal -1 -0 0
    outer loop
      vertex 26 10 42
      vertex 26 0 40
      vertex 26 0 42
    endloop
  endfacet
  facet normal 0 1 -0
    outer loop
      vertex 30 10 40
      vertex 26 10 42
      vertex 30 10 42
    endloop
  endfacet
  facet normal 0 1 0
    outer loop
      vertex 26 10 42
      vertex 30 10 40
      vertex 26 10 40
    endloop
  endfacet
endsolid OpenSCAD_Model
