solid OpenSCAD_Model
  facet normal 1 -0 0
    outer loop
      vertex 40 0 15
      vertex 40 15 0
      vertex 40 15 15
    endloop
  endfacet
  facet normal 1 0 0
    outer loop
      vertex 40 15 0
      vertex 40 0 15
      vertex 40 0 0
    endloop
  endfacet
  facet normal -0 0 1
    outer loop
      vertex 15 15 15
      vertex 40 0 15
      vertex 40 15 15
    endloop
  endfacet
  facet normal 0 0 1
    outer loop
      vertex 40 0 15
      vertex 15 15 15
      vertex 15 0 15
    endloop
  endfacet
  facet normal 0 0 -1
    outer loop
      vertex 0 0 0
      vertex 40 15 0
      vertex 40 0 0
    endloop
  endfacet
  facet normal -0 0 -1
    outer loop
      vertex 40 15 0
      vertex 0 0 0
      vertex 0 15 0
    endloop
  endfacet
  facet normal -1 0 0
    outer loop
      vertex 0 0 0
      vertex 0 15 15
      vertex 0 15 0
    endloop
  endfacet
  facet normal -1 -0 0
    outer loop
      vertex 0 15 15
      vertex 0 0 0
      vertex 0 15 30
    endloop
  endfacet
  facet normal -1 0 0
    outer loop
      vertex 0 0 50
      vertex 0 15 30
      vertex 0 0 0
    endloop
  endfacet
  facet normal -1 0 0
    outer loop
      vertex 0 15 30
      vertex 0 0 50
      vertex 0 15 50
    endloop
  endfacet
  facet normal -1 0 0
    outer loop
      vertex 0 15 15
      vertex 0 35 30
      vertex 0 35 15
    endloop
  endfacet
  facet normal -1 -0 0
    outer loop
      vertex 0 35 30
      vertex 0 15 15
      vertex 0 15 30
    endloop
  endfacet
  facet normal 0 1 -0
    outer loop
      vertex 40 15 0
      vertex 15 15 15
      vertex 40 15 15
    endloop
  endfacet
  facet normal 0 1 0
    outer loop
      vertex 0 15 0
      vertex 15 15 15
      vertex 40 15 0
    endloop
  endfacet
  facet normal 0 1 0
    outer loop
      vertex 15 15 15
      vertex 0 15 0
      vertex 0 15 15
    endloop
  endfacet
  facet normal 0 1 -0
    outer loop
      vertex 15 15 30
      vertex 0 15 50
      vertex 15 15 50
    endloop
  endfacet
  facet normal 0 1 0
    outer loop
      vertex 0 15 50
      vertex 15 15 30
      vertex 0 15 30
    endloop
  endfacet
  facet normal 0 -1 0
    outer loop
      vertex 0 0 50
      vertex 15 0 15
      vertex 15 0 50
    endloop
  endfacet
  facet normal 0 -1 0
    outer loop
      vertex 0 0 0
      vertex 15 0 15
      vertex 0 0 50
    endloop
  endfacet
  facet normal 0 -1 0
    outer loop
      vertex 40 0 0
      vertex 15 0 15
      vertex 0 0 0
    endloop
  endfacet
  facet normal 0 -1 0
    outer loop
      vertex 15 0 15
      vertex 40 0 0
      vertex 40 0 15
    endloop
  endfacet
  facet normal 1 -0 0
    outer loop
      vertex 15 0 50
      vertex 15 15 30
      vertex 15 15 50
    endloop
  endfacet
  facet normal 1 0 0
    outer loop
      vertex 15 0 15
      vertex 15 15 30
      vertex 15 0 50
    endloop
  endfacet
  facet normal 1 0 0
    outer loop
      vertex 15 15 30
      vertex 15 0 15
      vertex 15 15 15
    endloop
  endfacet
  facet normal 1 -0 0
    outer loop
      vertex 15 15 30
      vertex 15 35 15
      vertex 15 35 30
    endloop
  endfacet
  facet normal 1 0 0
    outer loop
      vertex 15 35 15
      vertex 15 15 30
      vertex 15 15 15
    endloop
  endfacet
  facet normal -0 0 1
    outer loop
      vertex 0 15 50
      vertex 15 0 50
      vertex 15 15 50
    endloop
  endfacet
  facet normal 0 0 1
    outer loop
      vertex 15 0 50
      vertex 0 15 50
      vertex 0 0 50
    endloop
  endfacet
  facet normal 0 0 -1
    outer loop
      vertex 0 15 15
      vertex 15 35 15
      vertex 15 15 15
    endloop
  endfacet
  facet normal -0 0 -1
    outer loop
      vertex 15 35 15
      vertex 0 15 15
      vertex 0 35 15
    endloop
  endfacet
  facet normal -0 0 1
    outer loop
      vertex 0 35 30
      vertex 15 15 30
      vertex 15 35 30
    endloop
  endfacet
  facet normal 0 0 1
    outer loop
      vertex 15 15 30
      vertex 0 35 30
      vertex 0 15 30
    endloop
  endfacet
  facet normal 0 1 -0
    outer loop
      vertex 15 35 15
      vertex 0 35 30
      vertex 15 35 30
    endloop
  endfacet
  facet normal 0 1 0
    outer loop
      vertex 0 35 30
      vertex 15 35 15
      vertex 0 35 15
    endloop
  endfacet
endsolid OpenSCAD_Model
