solid OpenSCAD_Model
  facet normal -0 0 -1
    outer loop
      vertex -5 5 0
      vertex -15 0 0
      vertex -10 10 0
    endloop
  endfacet
  facet normal -0 0 -1
    outer loop
      vertex 0 15 0
      vertex -10 10 0
      vertex -5 20 0
    endloop
  endfacet
  facet normal 0 0 -1
    outer loop
      vertex -15 30 0
      vertex -10 10 0
      vertex -15 0 0
    endloop
  endfacet
  facet normal 0 0 -1
    outer loop
      vertex -5 20 0
      vertex -15 30 0
      vertex 5 25 0
    endloop
  endfacet
  facet normal 0 0 -1
    outer loop
      vertex -10 10 0
      vertex -15 30 0
      vertex -5 20 0
    endloop
  endfacet
  facet normal 0 0 1
    outer loop
      vertex -5 20 5
      vertex -15 30 5
      vertex -10 10 5
    endloop
  endfacet
  facet normal 0 0 1
    outer loop
      vertex -15 30 5
      vertex -5 20 5
      vertex 5 25 5
    endloop
  endfacet
  facet normal 0 0 1
    outer loop
      vertex 0 15 5
      vertex -5 20 5
      vertex -10 10 5
    endloop
  endfacet
  facet normal 0 0 1
    outer loop
      vertex -10 10 5
      vertex -15 0 5
      vertex -5 5 5
    endloop
  endfacet
  facet normal 0 0 1
    outer loop
      vertex -15 0 5
      vertex -10 10 5
      vertex -15 30 5
    endloop
  endfacet
  facet normal 0.707107 0.707107 0
    outer loop
      vertex -5 5 5
      vertex -10 10 0
      vertex -10 10 5
    endloop
  endfacet
  facet normal 0.707107 0.707107 0
    outer loop
      vertex -10 10 0
      vertex -5 5 5
      vertex -5 5 0
    endloop
  endfacet
  facet normal 0.447214 -0.894427 0
    outer loop
      vertex -10 10 0
      vertex 0 15 5
      vertex -10 10 5
    endloop
  endfacet
  facet normal 0.447214 -0.894427 0
    outer loop
      vertex 0 15 5
      vertex -10 10 0
      vertex 0 15 0
    endloop
  endfacet
  facet normal 0.707107 0.707107 0
    outer loop
      vertex 0 15 5
      vertex -5 20 0
      vertex -5 20 5
    endloop
  endfacet
  facet normal 0.707107 0.707107 0
    outer loop
      vertex -5 20 0
      vertex 0 15 5
      vertex 0 15 0
    endloop
  endfacet
  facet normal 0.447214 -0.894427 0
    outer loop
      vertex -5 20 0
      vertex 5 25 5
      vertex -5 20 5
    endloop
  endfacet
  facet normal 0.447214 -0.894427 0
    outer loop
      vertex 5 25 5
      vertex -5 20 0
      vertex 5 25 0
    endloop
  endfacet
  facet normal 0.242536 0.970143 -0
    outer loop
      vertex 5 25 0
      vertex -15 30 5
      vertex 5 25 5
    endloop
  endfacet
  facet normal 0.242536 0.970143 0
    outer loop
      vertex -15 30 5
      vertex 5 25 0
      vertex -15 30 0
    endloop
  endfacet
  facet normal -1 0 0
    outer loop
      vertex -15 0 0
      vertex -15 30 5
      vertex -15 30 0
    endloop
  endfacet
  facet normal -1 -0 0
    outer loop
      vertex -15 30 5
      vertex -15 0 0
      vertex -15 0 5
    endloop
  endfacet
  facet normal 0.447214 -0.894427 0
    outer loop
      vertex -15 0 0
      vertex -5 5 5
      vertex -15 0 5
    endloop
  endfacet
  facet normal 0.447214 -0.894427 0
    outer loop
      vertex -5 5 5
      vertex -15 0 0
      vertex -5 5 0
    endloop
  endfacet
  facet normal 0 0 -1
    outer loop
      vertex 15 -30 0
      vertex 10 -10 0
      vertex 15 0 0
    endloop
  endfacet
  facet normal 0 0 -1
    outer loop
      vertex 15 -30 0
      vertex 5 -20 0
      vertex 10 -10 0
    endloop
  endfacet
  facet normal 0 -0 -1
    outer loop
      vertex 5 -20 0
      vertex 15 -30 0
      vertex -5 -25 0
    endloop
  endfacet
  facet normal 0 0 -1
    outer loop
      vertex 15 0 0
      vertex 10 -10 0
      vertex 5 -5 0
    endloop
  endfacet
  facet normal 0 0 -1
    outer loop
      vertex 10 -10 0
      vertex 5 -20 0
      vertex 0 -15 0
    endloop
  endfacet
  facet normal 0 0 1
    outer loop
      vertex 10 -10 5
      vertex 0 -15 5
      vertex 5 -20 5
    endloop
  endfacet
  facet normal 0 0 1
    outer loop
      vertex 15 0 5
      vertex 10 -10 5
      vertex 15 -30 5
    endloop
  endfacet
  facet normal 0 -0 1
    outer loop
      vertex 10 -10 5
      vertex 15 0 5
      vertex 5 -5 5
    endloop
  endfacet
  facet normal -0 0 1
    outer loop
      vertex 5 -20 5
      vertex 15 -30 5
      vertex 10 -10 5
    endloop
  endfacet
  facet normal 0 0 1
    outer loop
      vertex 15 -30 5
      vertex 5 -20 5
      vertex -5 -25 5
    endloop
  endfacet
  facet normal -0.707107 -0.707107 0
    outer loop
      vertex 10 -10 0
      vertex 5 -5 5
      vertex 5 -5 0
    endloop
  endfacet
  facet normal -0.707107 -0.707107 0
    outer loop
      vertex 5 -5 5
      vertex 10 -10 0
      vertex 10 -10 5
    endloop
  endfacet
  facet normal -0.447214 0.894427 0
    outer loop
      vertex 10 -10 0
      vertex 0 -15 5
      vertex 10 -10 5
    endloop
  endfacet
  facet normal -0.447214 0.894427 0
    outer loop
      vertex 0 -15 5
      vertex 10 -10 0
      vertex 0 -15 0
    endloop
  endfacet
  facet normal -0.707107 -0.707107 0
    outer loop
      vertex 5 -20 0
      vertex 0 -15 5
      vertex 0 -15 0
    endloop
  endfacet
  facet normal -0.707107 -0.707107 0
    outer loop
      vertex 0 -15 5
      vertex 5 -20 0
      vertex 5 -20 5
    endloop
  endfacet
  facet normal -0.447214 0.894427 0
    outer loop
      vertex 5 -20 0
      vertex -5 -25 5
      vertex 5 -20 5
    endloop
  endfacet
  facet normal -0.447214 0.894427 0
    outer loop
      vertex -5 -25 5
      vertex 5 -20 0
      vertex -5 -25 0
    endloop
  endfacet
  facet normal -0.242536 -0.970143 0
    outer loop
      vertex -5 -25 0
      vertex 15 -30 5
      vertex -5 -25 5
    endloop
  endfacet
  facet normal -0.242536 -0.970143 -0
    outer loop
      vertex 15 -30 5
      vertex -5 -25 0
      vertex 15 -30 0
    endloop
  endfacet
  facet normal 1 -0 0
    outer loop
      vertex 15 -30 5
      vertex 15 0 0
      vertex 15 0 5
    endloop
  endfacet
  facet normal 1 0 0
    outer loop
      vertex 15 0 0
      vertex 15 -30 5
      vertex 15 -30 0
    endloop
  endfacet
  facet normal -0.447214 0.894427 0
    outer loop
      vertex 15 0 0
      vertex 5 -5 5
      vertex 15 0 5
    endloop
  endfacet
  facet normal -0.447214 0.894427 0
    outer loop
      vertex 5 -5 5
      vertex 15 0 0
      vertex 5 -5 0
    endloop
  endfacet
  facet normal -0 0 1
    outer loop
      vertex -40 -7.5 -4
      vertex 40 -12.5 -4
      vertex 40 -7.5 -4
    endloop
  endfacet
  facet normal 0 0 1
    outer loop
      vertex 40 -12.5 -4
      vertex -40 -7.5 -4
      vertex -40 -12.5 -4
    endloop
  endfacet
  facet normal 0 0 -1
    outer loop
      vertex -40 -12.5 -6
      vertex 40 -7.5 -6
      vertex 40 -12.5 -6
    endloop
  endfacet
  facet normal -0 0 -1
    outer loop
      vertex 40 -7.5 -6
      vertex -40 -12.5 -6
      vertex -40 -7.5 -6
    endloop
  endfacet
  facet normal -1 0 0
    outer loop
      vertex -40 -12.5 -6
      vertex -40 -7.5 -4
      vertex -40 -7.5 -6
    endloop
  endfacet
  facet normal -1 -0 0
    outer loop
      vertex -40 -7.5 -4
      vertex -40 -12.5 -6
      vertex -40 -12.5 -4
    endloop
  endfacet
  facet normal 0 1 -0
    outer loop
      vertex 40 -7.5 -6
      vertex -40 -7.5 -4
      vertex 40 -7.5 -4
    endloop
  endfacet
  facet normal 0 1 0
    outer loop
      vertex -40 -7.5 -4
      vertex 40 -7.5 -6
      vertex -40 -7.5 -6
    endloop
  endfacet
  facet normal 0 -1 0
    outer loop
      vertex -40 -12.5 -6
      vertex 40 -12.5 -4
      vertex -40 -12.5 -4
    endloop
  endfacet
  facet normal 0 -1 -0
    outer loop
      vertex 40 -12.5 -4
      vertex -40 -12.5 -6
      vertex 40 -12.5 -6
    endloop
  endfacet
  facet normal 1 -0 0
    outer loop
      vertex 40 -12.5 -4
      vertex 40 -7.5 -6
      vertex 40 -7.5 -4
    endloop
  endfacet
  facet normal 1 0 0
    outer loop
      vertex 40 -7.5 -6
      vertex 40 -12.5 -4
      vertex 40 -12.5 -6
    endloop
  endfacet
  facet normal -0 0 1
    outer loop
      vertex -40 12.5 -4
      vertex 40 7.5 -4
      vertex 40 12.5 -4
    endloop
  endfacet
  facet normal 0 0 1
    outer loop
      vertex 40 7.5 -4
      vertex -40 12.5 -4
      vertex -40 7.5 -4
    endloop
  endfacet
  facet normal 0 0 -1
    outer loop
      vertex -40 7.5 -6
      vertex 40 12.5 -6
      vertex 40 7.5 -6
    endloop
  endfacet
  facet normal -0 0 -1
    outer loop
      vertex 40 12.5 -6
      vertex -40 7.5 -6
      vertex -40 12.5 -6
    endloop
  endfacet
  facet normal -1 0 0
    outer loop
      vertex -40 7.5 -6
      vertex -40 12.5 -4
      vertex -40 12.5 -6
    endloop
  endfacet
  facet normal -1 -0 0
    outer loop
      vertex -40 12.5 -4
      vertex -40 7.5 -6
      vertex -40 7.5 -4
    endloop
  endfacet
  facet normal 0 1 -0
    outer loop
      vertex 40 12.5 -6
      vertex -40 12.5 -4
      vertex 40 12.5 -4
    endloop
  endfacet
  facet normal 0 1 0
    outer loop
      vertex -40 12.5 -4
      vertex 40 12.5 -6
      vertex -40 12.5 -6
    endloop
  endfacet
  facet normal 0 -1 0
    outer loop
      vertex -40 7.5 -6
      vertex 40 7.5 -4
      vertex -40 7.5 -4
    endloop
  endfacet
  facet normal 0 -1 -0
    outer loop
      vertex 40 7.5 -4
      vertex -40 7.5 -6
      vertex 40 7.5 -6
    endloop
  endfacet
  facet normal 1 -0 0
    outer loop
      vertex 40 7.5 -4
      vertex 40 12.5 -6
      vertex 40 12.5 -4
    endloop
  endfacet
  facet normal 1 0 0
    outer loop
      vertex 40 12.5 -6
      vertex 40 7.5 -4
      vertex 40 7.5 -6
    endloop
  endfacet
endsolid OpenSCAD_Model
