solid OpenSCAD_Model
  facet normal -0.743147 -0.669129 0
    outer loop
      vertex -6.69131 -7.43145 0
      vertex -8.09017 -5.87785 12.5
      vertex -8.09017 -5.87785 0
    endloop
  endfacet
  facet normal -0.743147 -0.669129 0
    outer loop
      vertex -8.09017 -5.87785 12.5
      vertex -6.69131 -7.43145 0
      vertex -6.69131 -7.43145 12.5
    endloop
  endfacet
  facet normal 0.951056 0.309019 0
    outer loop
      vertex 9.5 2.94541 12.5
      vertex 9.13545 4.06737 0
      vertex 9.13545 4.06737 12.5
    endloop
  endfacet
  facet normal 0.951056 0.309019 0
    outer loop
      vertex 9.13545 4.06737 0
      vertex 9.5 2.94541 12.5
      vertex 9.5 2.94541 0
    endloop
  endfacet
  facet normal 0.866026 0.5 0
    outer loop
      vertex 9.13545 4.06737 12.5
      vertex 8.09017 5.87785 0
      vertex 8.09017 5.87785 12.5
    endloop
  endfacet
  facet normal 0.866026 0.5 0
    outer loop
      vertex 8.09017 5.87785 0
      vertex 9.13545 4.06737 12.5
      vertex 9.13545 4.06737 0
    endloop
  endfacet
  facet normal 0.951056 -0.309019 0
    outer loop
      vertex 9.13545 -4.06737 0
      vertex 9.5 -2.94541 11.3865
      vertex 9.13545 -4.06737 11.5049
    endloop
  endfacet
  facet normal 0.951056 -0.309019 0
    outer loop
      vertex 9.5 -2.94541 11.3865
      vertex 9.13545 -4.06737 0
      vertex 9.5 -2.94541 0
    endloop
  endfacet
  facet normal 0.587783 -0.809019 0
    outer loop
      vertex 5 -8.66025 0
      vertex 6.69131 -7.43145 12.5
      vertex 5 -8.66025 12.5
    endloop
  endfacet
  facet normal 0.587783 -0.809019 0
    outer loop
      vertex 6.69131 -7.43145 12.5
      vertex 5 -8.66025 0
      vertex 6.69131 -7.43145 0
    endloop
  endfacet
  facet normal 0.743147 -0.669129 0
    outer loop
      vertex 6.69131 -7.43145 12.5
      vertex 8.09017 -5.87785 0
      vertex 8.09017 -5.87785 12.5
    endloop
  endfacet
  facet normal 0.743147 -0.669129 0
    outer loop
      vertex 8.09017 -5.87785 0
      vertex 6.69131 -7.43145 12.5
      vertex 6.69131 -7.43145 0
    endloop
  endfacet
  facet normal -0.406738 -0.913545 0
    outer loop
      vertex -5 -8.66025 0
      vertex -3.1139 -9.5 12.5
      vertex -5 -8.66025 12.5
    endloop
  endfacet
  facet normal -0.406738 -0.913545 -0
    outer loop
      vertex -3.1139 -9.5 12.5
      vertex -5 -8.66025 0
      vertex -3.1139 -9.5 0
    endloop
  endfacet
  facet normal 0.406738 0.913545 -0
    outer loop
      vertex 5 8.66025 0
      vertex 3.1139 9.5 12.5
      vertex 5 8.66025 12.5
    endloop
  endfacet
  facet normal 0.406738 0.913545 0
    outer loop
      vertex 3.1139 9.5 12.5
      vertex 5 8.66025 0
      vertex 3.1139 9.5 0
    endloop
  endfacet
  facet normal 0.743147 0.669129 0
    outer loop
      vertex 8.09017 5.87785 12.5
      vertex 6.69131 7.43145 0
      vertex 6.69131 7.43145 12.5
    endloop
  endfacet
  facet normal 0.743147 0.669129 0
    outer loop
      vertex 6.69131 7.43145 0
      vertex 8.09017 5.87785 12.5
      vertex 8.09017 5.87785 0
    endloop
  endfacet
  facet normal -0.587783 -0.809019 0
    outer loop
      vertex -6.69131 -7.43145 0
      vertex -5 -8.66025 12.5
      vertex -6.69131 -7.43145 12.5
    endloop
  endfacet
  facet normal -0.587783 -0.809019 -0
    outer loop
      vertex -5 -8.66025 12.5
      vertex -6.69131 -7.43145 0
      vertex -5 -8.66025 0
    endloop
  endfacet
  facet normal -0.743147 0.669129 0
    outer loop
      vertex -8.09017 5.87785 0
      vertex -6.69131 7.43145 12.5
      vertex -6.69131 7.43145 0
    endloop
  endfacet
  facet normal -0.743147 0.669129 0
    outer loop
      vertex -6.69131 7.43145 12.5
      vertex -8.09017 5.87785 0
      vertex -8.09017 5.87785 12.5
    endloop
  endfacet
  facet normal 0.406738 -0.913545 0
    outer loop
      vertex 3.1139 -9.5 0
      vertex 5 -8.66025 12.5
      vertex 3.1139 -9.5 12.5
    endloop
  endfacet
  facet normal 0.406738 -0.913545 0
    outer loop
      vertex 5 -8.66025 12.5
      vertex 3.1139 -9.5 0
      vertex 5 -8.66025 0
    endloop
  endfacet
  facet normal -0.951056 0.309019 0
    outer loop
      vertex -9.5 2.94541 0
      vertex -9.13545 4.06737 12.5
      vertex -9.13545 4.06737 0
    endloop
  endfacet
  facet normal -0.951056 0.309019 0
    outer loop
      vertex -9.13545 4.06737 12.5
      vertex -9.5 2.94541 0
      vertex -9.5 2.94541 12.5
    endloop
  endfacet
  facet normal 0 0 -1
    outer loop
      vertex 8.09017 -5.87785 0
      vertex 9.5 -2.94541 0
      vertex 9.13545 -4.06737 0
    endloop
  endfacet
  facet normal 0 0 -1
    outer loop
      vertex 6.69131 -7.43145 0
      vertex 9.5 -2.94541 0
      vertex 8.09017 -5.87785 0
    endloop
  endfacet
  facet normal 0 0 -1
    outer loop
      vertex 5 -8.66025 0
      vertex 9.5 -2.94541 0
      vertex 6.69131 -7.43145 0
    endloop
  endfacet
  facet normal 0 0 -1
    outer loop
      vertex 9.5 2.94541 0
      vertex 8.09017 5.87785 0
      vertex 9.13545 4.06737 0
    endloop
  endfacet
  facet normal 0 0 -1
    outer loop
      vertex 3.1139 -9.5 0
      vertex 9.5 -2.94541 0
      vertex 5 -8.66025 0
    endloop
  endfacet
  facet normal 0 0 -1
    outer loop
      vertex 9.5 2.94541 0
      vertex 6.69131 7.43145 0
      vertex 8.09017 5.87785 0
    endloop
  endfacet
  facet normal -0 0 -1
    outer loop
      vertex 9.5 -2.94541 0
      vertex 3.1139 -9.5 0
      vertex 9.5 2.94541 0
    endloop
  endfacet
  facet normal 0 0 -1
    outer loop
      vertex 9.5 2.94541 0
      vertex 5 8.66025 0
      vertex 6.69131 7.43145 0
    endloop
  endfacet
  facet normal 0 0 -1
    outer loop
      vertex 3.1139 9.5 0
      vertex 9.5 2.94541 0
      vertex 3.1139 -9.5 0
    endloop
  endfacet
  facet normal 0 0 -1
    outer loop
      vertex 9.5 2.94541 0
      vertex 3.1139 9.5 0
      vertex 5 8.66025 0
    endloop
  endfacet
  facet normal 0 0 -1
    outer loop
      vertex -3.1139 -9.5 0
      vertex 3.1139 9.5 0
      vertex 3.1139 -9.5 0
    endloop
  endfacet
  facet normal 0 0 -1
    outer loop
      vertex -3.1139 -9.5 0
      vertex -3.1139 9.5 0
      vertex 3.1139 9.5 0
    endloop
  endfacet
  facet normal 0 0 -1
    outer loop
      vertex -9.5 -2.94541 0
      vertex -3.1139 -9.5 0
      vertex -5 -8.66025 0
    endloop
  endfacet
  facet normal 0 0 -1
    outer loop
      vertex -3.1139 -9.5 0
      vertex -9.5 -2.94541 0
      vertex -3.1139 9.5 0
    endloop
  endfacet
  facet normal 0 0 -1
    outer loop
      vertex -9.5 -2.94541 0
      vertex -5 -8.66025 0
      vertex -6.69131 -7.43145 0
    endloop
  endfacet
  facet normal 0 0 -1
    outer loop
      vertex -9.5 2.94541 0
      vertex -3.1139 9.5 0
      vertex -9.5 -2.94541 0
    endloop
  endfacet
  facet normal 0 0 -1
    outer loop
      vertex -9.5 -2.94541 0
      vertex -6.69131 -7.43145 0
      vertex -8.09017 -5.87785 0
    endloop
  endfacet
  facet normal 0 0 -1
    outer loop
      vertex -3.1139 9.5 0
      vertex -9.5 2.94541 0
      vertex -5 8.66025 0
    endloop
  endfacet
  facet normal 0 0 -1
    outer loop
      vertex -9.5 -2.94541 0
      vertex -8.09017 -5.87785 0
      vertex -9.13545 -4.06737 0
    endloop
  endfacet
  facet normal 0 0 -1
    outer loop
      vertex -5 8.66025 0
      vertex -9.5 2.94541 0
      vertex -6.69131 7.43145 0
    endloop
  endfacet
  facet normal 0 0 -1
    outer loop
      vertex -6.69131 7.43145 0
      vertex -9.5 2.94541 0
      vertex -8.09017 5.87785 0
    endloop
  endfacet
  facet normal 0 0 -1
    outer loop
      vertex -8.09017 5.87785 0
      vertex -9.5 2.94541 0
      vertex -9.13545 4.06737 0
    endloop
  endfacet
  facet normal -0.951056 -0.309019 0
    outer loop
      vertex -9.13545 -4.06737 0
      vertex -9.5 -2.94541 12.5
      vertex -9.5 -2.94541 0
    endloop
  endfacet
  facet normal -0.951056 -0.309019 0
    outer loop
      vertex -9.5 -2.94541 12.5
      vertex -9.13545 -4.06737 0
      vertex -9.13545 -4.06737 12.5
    endloop
  endfacet
  facet normal -0.406738 0.913545 0
    outer loop
      vertex -3.1139 9.5 0
      vertex -5 8.66025 12.5
      vertex -3.1139 9.5 12.5
    endloop
  endfacet
  facet normal -0.406738 0.913545 0
    outer loop
      vertex -5 8.66025 12.5
      vertex -3.1139 9.5 0
      vertex -5 8.66025 0
    endloop
  endfacet
  facet normal -0 0 1
    outer loop
      vertex 8.16818 3.779 12.5
      vertex 9.5 2.94541 12.5
      vertex 9.13545 4.06737 12.5
    endloop
  endfacet
  facet normal 0 0 1
    outer loop
      vertex 9.5 2.94541 12.5
      vertex 8.78958 1.93473 12.5
      vertex 9.5 0 12.5
    endloop
  endfacet
  facet normal 0 0 1
    outer loop
      vertex 9.5 0 12.5
      vertex 8.78958 1.93473 12.5
      vertex 9 0 12.5
    endloop
  endfacet
  facet normal 0 0 1
    outer loop
      vertex 9.5 2.94541 12.5
      vertex 8.16818 3.779 12.5
      vertex 8.78958 1.93473 12.5
    endloop
  endfacet
  facet normal 0 0 1
    outer loop
      vertex 8.09017 5.87785 12.5
      vertex 8.16818 3.779 12.5
      vertex 9.13545 4.06737 12.5
    endloop
  endfacet
  facet normal 0 0 1
    outer loop
      vertex 8.09017 5.87785 12.5
      vertex 7.16484 5.44657 12.5
      vertex 8.16818 3.779 12.5
    endloop
  endfacet
  facet normal 0 0 1
    outer loop
      vertex 6.69131 7.43145 12.5
      vertex 7.16484 5.44657 12.5
      vertex 8.09017 5.87785 12.5
    endloop
  endfacet
  facet normal 0 0 1
    outer loop
      vertex 6.69131 7.43145 12.5
      vertex 5.82648 6.85946 12.5
      vertex 7.16484 5.44657 12.5
    endloop
  endfacet
  facet normal 0 0 1
    outer loop
      vertex 5 8.66025 12.5
      vertex 5.82648 6.85946 12.5
      vertex 6.69131 7.43145 12.5
    endloop
  endfacet
  facet normal 0 0 1
    outer loop
      vertex 5 8.66025 12.5
      vertex 4.21568 7.95161 12.5
      vertex 5.82648 6.85946 12.5
    endloop
  endfacet
  facet normal 0 0 1
    outer loop
      vertex 3.1139 9.5 12.5
      vertex 4.21568 7.95161 12.5
      vertex 5 8.66025 12.5
    endloop
  endfacet
  facet normal 0 0 1
    outer loop
      vertex 3.1139 9.5 12.5
      vertex 2.40775 8.67195 12.5
      vertex 4.21568 7.95161 12.5
    endloop
  endfacet
  facet normal 0 0 1
    outer loop
      vertex 3.1139 9.5 12.5
      vertex 0.487249 8.9868 12.5
      vertex 2.40775 8.67195 12.5
    endloop
  endfacet
  facet normal -0 0 1
    outer loop
      vertex -3.1139 9.5 12.5
      vertex 0.487249 8.9868 12.5
      vertex 3.1139 9.5 12.5
    endloop
  endfacet
  facet normal 0 0 1
    outer loop
      vertex 0.487249 8.9868 12.5
      vertex -3.1139 9.5 12.5
      vertex -1.45604 8.88144 12.5
    endloop
  endfacet
  facet normal 0 0 1
    outer loop
      vertex -3.1139 9.5 12.5
      vertex -3.33124 8.36079 12.5
      vertex -1.45604 8.88144 12.5
    endloop
  endfacet
  facet normal -0 0 1
    outer loop
      vertex -5 8.66025 12.5
      vertex -3.33124 8.36079 12.5
      vertex -3.1139 9.5 12.5
    endloop
  endfacet
  facet normal 0 0 1
    outer loop
      vertex -5 8.66025 12.5
      vertex -5.05068 7.4492 12.5
      vertex -3.33124 8.36079 12.5
    endloop
  endfacet
  facet normal 0 0 1
    outer loop
      vertex -6.69131 7.43145 12.5
      vertex -5.05068 7.4492 12.5
      vertex -5 8.66025 12.5
    endloop
  endfacet
  facet normal 0 0 1
    outer loop
      vertex -5.05068 7.4492 12.5
      vertex -6.69131 7.43145 12.5
      vertex -6.53396 6.18929 12.5
    endloop
  endfacet
  facet normal 0 0 1
    outer loop
      vertex -8.09017 5.87785 12.5
      vertex -6.53396 6.18929 12.5
      vertex -6.69131 7.43145 12.5
    endloop
  endfacet
  facet normal 0 0 1
    outer loop
      vertex -6.53396 6.18929 12.5
      vertex -8.09017 5.87785 12.5
      vertex -7.71171 4.63998 12.5
    endloop
  endfacet
  facet normal 0 0 1
    outer loop
      vertex -9.13545 4.06737 12.5
      vertex -7.71171 4.63998 12.5
      vertex -8.09017 5.87785 12.5
    endloop
  endfacet
  facet normal 0 0 1
    outer loop
      vertex -7.71171 4.63998 12.5
      vertex -9.13545 4.06737 12.5
      vertex -8.52888 2.87371 12.5
    endloop
  endfacet
  facet normal 0 0 1
    outer loop
      vertex -8.52888 2.87371 12.5
      vertex -9.5 2.94541 12.5
      vertex -8.94724 0.973071 12.5
    endloop
  endfacet
  facet normal -0 0 1
    outer loop
      vertex -9.5 2.94541 12.5
      vertex -8.52888 2.87371 12.5
      vertex -9.13545 4.06737 12.5
    endloop
  endfacet
  facet normal -0 0 1
    outer loop
      vertex 8.16818 -3.779 12.5
      vertex 8.78647 -4.67182 12.5
      vertex 8.78647 -1.94396 12.5
    endloop
  endfacet
  facet normal 0 0 1
    outer loop
      vertex 7.16484 -5.44657 12.5
      vertex 8.78647 -4.67182 12.5
      vertex 8.16818 -3.779 12.5
    endloop
  endfacet
  facet normal 0 0 1
    outer loop
      vertex 8.78647 -4.67182 12.5
      vertex 7.16484 -5.44657 12.5
      vertex 8.09017 -5.87785 12.5
    endloop
  endfacet
  facet normal 0 0 1
    outer loop
      vertex 7.16484 -5.44657 12.5
      vertex 6.69131 -7.43145 12.5
      vertex 8.09017 -5.87785 12.5
    endloop
  endfacet
  facet normal -0 0 1
    outer loop
      vertex 5.82648 -6.85946 12.5
      vertex 6.69131 -7.43145 12.5
      vertex 7.16484 -5.44657 12.5
    endloop
  endfacet
  facet normal 0 0 1
    outer loop
      vertex 5.82648 -6.85946 12.5
      vertex 5 -8.66025 12.5
      vertex 6.69131 -7.43145 12.5
    endloop
  endfacet
  facet normal -0 0 1
    outer loop
      vertex 4.21568 -7.95161 12.5
      vertex 5 -8.66025 12.5
      vertex 5.82648 -6.85946 12.5
    endloop
  endfacet
  facet normal 0 0 1
    outer loop
      vertex 4.21568 -7.95161 12.5
      vertex 3.1139 -9.5 12.5
      vertex 5 -8.66025 12.5
    endloop
  endfacet
  facet normal -0 0 1
    outer loop
      vertex 2.40775 -8.67195 12.5
      vertex 3.1139 -9.5 12.5
      vertex 4.21568 -7.95161 12.5
    endloop
  endfacet
  facet normal -0 0 1
    outer loop
      vertex 0.487249 -8.9868 12.5
      vertex 3.1139 -9.5 12.5
      vertex 2.40775 -8.67195 12.5
    endloop
  endfacet
  facet normal 0 0 1
    outer loop
      vertex -3.1139 -9.5 12.5
      vertex 0.487249 -8.9868 12.5
      vertex -1.45604 -8.88144 12.5
    endloop
  endfacet
  facet normal 0 0 1
    outer loop
      vertex 0.487249 -8.9868 12.5
      vertex -3.1139 -9.5 12.5
      vertex 3.1139 -9.5 12.5
    endloop
  endfacet
  facet normal 0 0 1
    outer loop
      vertex -3.33124 -8.36079 12.5
      vertex -3.1139 -9.5 12.5
      vertex -1.45604 -8.88144 12.5
    endloop
  endfacet
  facet normal 0 0 1
    outer loop
      vertex -3.33124 -8.36079 12.5
      vertex -5 -8.66025 12.5
      vertex -3.1139 -9.5 12.5
    endloop
  endfacet
  facet normal 0 0 1
    outer loop
      vertex -5.05068 -7.4492 12.5
      vertex -5 -8.66025 12.5
      vertex -3.33124 -8.36079 12.5
    endloop
  endfacet
  facet normal -0 0 1
    outer loop
      vertex -6.69131 -7.43145 12.5
      vertex -5.05068 -7.4492 12.5
      vertex -6.53396 -6.18929 12.5
    endloop
  endfacet
  facet normal 0 0 1
    outer loop
      vertex -5.05068 -7.4492 12.5
      vertex -6.69131 -7.43145 12.5
      vertex -5 -8.66025 12.5
    endloop
  endfacet
  facet normal -0 0 1
    outer loop
      vertex -8.09017 -5.87785 12.5
      vertex -6.53396 -6.18929 12.5
      vertex -7.71171 -4.63998 12.5
    endloop
  endfacet
  facet normal 0 0 1
    outer loop
      vertex -6.53396 -6.18929 12.5
      vertex -8.09017 -5.87785 12.5
      vertex -6.69131 -7.43145 12.5
    endloop
  endfacet
  facet normal -0 0 1
    outer loop
      vertex -9.13545 -4.06737 12.5
      vertex -7.71171 -4.63998 12.5
      vertex -8.52888 -2.87371 12.5
    endloop
  endfacet
  facet normal 0 0 1
    outer loop
      vertex -9.5 -2.94541 12.5
      vertex -8.52888 -2.87371 12.5
      vertex -8.94724 -0.973071 12.5
    endloop
  endfacet
  facet normal 0 0 1
    outer loop
      vertex -7.71171 -4.63998 12.5
      vertex -9.13545 -4.06737 12.5
      vertex -8.09017 -5.87785 12.5
    endloop
  endfacet
  facet normal 0 0 1
    outer loop
      vertex -8.94724 0.973071 12.5
      vertex -9.5 2.94541 12.5
      vertex -8.94724 -0.973071 12.5
    endloop
  endfacet
  facet normal 0 0 1
    outer loop
      vertex -9.5 -2.94541 12.5
      vertex -8.94724 -0.973071 12.5
      vertex -9.5 2.94541 12.5
    endloop
  endfacet
  facet normal 0 0 1
    outer loop
      vertex -8.52888 -2.87371 12.5
      vertex -9.5 -2.94541 12.5
      vertex -9.13545 -4.06737 12.5
    endloop
  endfacet
  facet normal -0.866026 -0.5 0
    outer loop
      vertex -8.09017 -5.87785 0
      vertex -9.13545 -4.06737 12.5
      vertex -9.13545 -4.06737 0
    endloop
  endfacet
  facet normal -0.866026 -0.5 0
    outer loop
      vertex -9.13545 -4.06737 12.5
      vertex -8.09017 -5.87785 0
      vertex -8.09017 -5.87785 12.5
    endloop
  endfacet
  facet normal -0.866026 0.5 0
    outer loop
      vertex -9.13545 4.06737 0
      vertex -8.09017 5.87785 12.5
      vertex -8.09017 5.87785 0
    endloop
  endfacet
  facet normal -0.866026 0.5 0
    outer loop
      vertex -8.09017 5.87785 12.5
      vertex -9.13545 4.06737 0
      vertex -9.13545 4.06737 12.5
    endloop
  endfacet
  facet normal 0.866026 -0.499999 0
    outer loop
      vertex 8.78647 -4.67182 12.5
      vertex 8.09017 -5.87785 12.5
      vertex 8.78647 -4.67182 11.6183
    endloop
  endfacet
  facet normal 0.866025 -0.500001 2.19475e-07
    outer loop
      vertex 8.09017 -5.87785 0
      vertex 9.13545 -4.06737 11.5049
      vertex 8.78647 -4.67182 11.6183
    endloop
  endfacet
  facet normal 0.866026 -0.499999 0
    outer loop
      vertex 8.09017 -5.87785 0
      vertex 8.78647 -4.67182 11.6183
      vertex 8.09017 -5.87785 12.5
    endloop
  endfacet
  facet normal 0.866026 -0.5 0
    outer loop
      vertex 9.13545 -4.06737 11.5049
      vertex 8.09017 -5.87785 0
      vertex 9.13545 -4.06737 0
    endloop
  endfacet
  facet normal 0.587783 0.809019 -0
    outer loop
      vertex 6.69131 7.43145 0
      vertex 5 8.66025 12.5
      vertex 6.69131 7.43145 12.5
    endloop
  endfacet
  facet normal 0.587783 0.809019 0
    outer loop
      vertex 5 8.66025 12.5
      vertex 6.69131 7.43145 0
      vertex 5 8.66025 0
    endloop
  endfacet
  facet normal -0.587783 0.809019 0
    outer loop
      vertex -5 8.66025 0
      vertex -6.69131 7.43145 12.5
      vertex -5 8.66025 12.5
    endloop
  endfacet
  facet normal -0.587783 0.809019 0
    outer loop
      vertex -6.69131 7.43145 12.5
      vertex -5 8.66025 0
      vertex -6.69131 7.43145 0
    endloop
  endfacet
  facet normal 0.947654 0.319298 0
    outer loop
      vertex 8.78958 1.93473 37.5
      vertex 8.16818 3.779 12.5
      vertex 8.16818 3.779 37.5
    endloop
  endfacet
  facet normal 0.947654 0.319298 0
    outer loop
      vertex 8.16818 3.779 12.5
      vertex 8.78958 1.93473 37.5
      vertex 8.78958 1.93473 12.5
    endloop
  endfacet
  facet normal 0.994138 0.108122 -0
    outer loop
      vertex 9 0 36.5489
      vertex 8.78958 1.93473 37.5
      vertex 9 0 37.5
    endloop
  endfacet
  facet normal 0.994138 0.108122 0
    outer loop
      vertex 8.78958 1.93473 37.5
      vertex 9 0 36.5489
      vertex 8.78958 1.93473 12.5
    endloop
  endfacet
  facet normal 0.994138 0.108122 -0
    outer loop
      vertex 9 0 13.4511
      vertex 8.78958 1.93473 12.5
      vertex 9 0 36.5489
    endloop
  endfacet
  facet normal 0.994138 0.108122 0
    outer loop
      vertex 8.78958 1.93473 12.5
      vertex 9 0 13.4511
      vertex 9 0 12.5
    endloop
  endfacet
  facet normal 0.947654 -0.319298 0
    outer loop
      vertex 8.16818 -3.779 37.5
      vertex 8.78647 -1.94396 36.6183
      vertex 8.78647 -1.94396 37.5
    endloop
  endfacet
  facet normal 0.947654 -0.319298 0
    outer loop
      vertex 8.78647 -1.94396 36.6183
      vertex 8.16818 -3.779 37.5
      vertex 8.78647 -1.94396 13.3817
    endloop
  endfacet
  facet normal 0.947654 -0.319298 0
    outer loop
      vertex 8.16818 -3.779 12.5
      vertex 8.78647 -1.94396 13.3817
      vertex 8.16818 -3.779 37.5
    endloop
  endfacet
  facet normal 0.947654 -0.319298 0
    outer loop
      vertex 8.78647 -1.94396 13.3817
      vertex 8.16818 -3.779 12.5
      vertex 8.78647 -1.94396 12.5
    endloop
  endfacet
  facet normal 0.947652 -0.319306 0
    outer loop
      vertex 8.78647 -1.94396 36.6183
      vertex 8.78958 -1.93473 13.3827
      vertex 8.78958 -1.93473 36.6173
    endloop
  endfacet
  facet normal 0.947652 -0.319306 0
    outer loop
      vertex 8.78958 -1.93473 13.3827
      vertex 8.78647 -1.94396 36.6183
      vertex 8.78647 -1.94396 13.3817
    endloop
  endfacet
  facet normal 0.370136 0.928978 -0
    outer loop
      vertex 4.21568 7.95161 12.5
      vertex 2.40775 8.67195 37.5
      vertex 4.21568 7.95161 37.5
    endloop
  endfacet
  facet normal 0.370136 0.928978 0
    outer loop
      vertex 2.40775 8.67195 37.5
      vertex 4.21568 7.95161 12.5
      vertex 2.40775 8.67195 12.5
    endloop
  endfacet
  facet normal -0.976621 0.214969 0
    outer loop
      vertex -8.94724 0.973071 12.5
      vertex -8.52888 2.87371 37.5
      vertex -8.52888 2.87371 12.5
    endloop
  endfacet
  facet normal -0.976621 0.214969 0
    outer loop
      vertex -8.52888 2.87371 37.5
      vertex -8.94724 0.973071 12.5
      vertex -8.94724 0.973071 37.5
    endloop
  endfacet
  facet normal 0.725996 0.687699 0
    outer loop
      vertex 7.16484 5.44657 37.5
      vertex 5.82648 6.85946 12.5
      vertex 5.82648 6.85946 37.5
    endloop
  endfacet
  facet normal 0.725996 0.687699 0
    outer loop
      vertex 5.82648 6.85946 12.5
      vertex 7.16484 5.44657 37.5
      vertex 7.16484 5.44657 12.5
    endloop
  endfacet
  facet normal 0.161782 0.986827 -0
    outer loop
      vertex 2.40775 8.67195 12.5
      vertex 0.487249 8.9868 37.5
      vertex 2.40775 8.67195 37.5
    endloop
  endfacet
  facet normal 0.161782 0.986827 0
    outer loop
      vertex 0.487249 8.9868 37.5
      vertex 2.40775 8.67195 12.5
      vertex 0.487249 8.9868 12.5
    endloop
  endfacet
  facet normal -0.647386 -0.762162 0
    outer loop
      vertex -6.53396 -6.18929 12.5
      vertex -5.05068 -7.4492 37.5
      vertex -6.53396 -6.18929 37.5
    endloop
  endfacet
  facet normal -0.647386 -0.762162 -0
    outer loop
      vertex -5.05068 -7.4492 37.5
      vertex -6.53396 -6.18929 12.5
      vertex -5.05068 -7.4492 12.5
    endloop
  endfacet
  facet normal -0.0541378 -0.998533 0
    outer loop
      vertex -1.45604 -8.88144 12.5
      vertex 0.487249 -8.9868 37.5
      vertex -1.45604 -8.88144 37.5
    endloop
  endfacet
  facet normal -0.0541378 -0.998533 -0
    outer loop
      vertex 0.487249 -8.9868 37.5
      vertex -1.45604 -8.88144 12.5
      vertex 0.487249 -8.9868 12.5
    endloop
  endfacet
  facet normal 0.856858 -0.515553 0
    outer loop
      vertex 7.16484 -5.44657 37.5
      vertex 8.16818 -3.779 12.5
      vertex 8.16818 -3.779 37.5
    endloop
  endfacet
  facet normal 0.856858 -0.515553 0
    outer loop
      vertex 8.16818 -3.779 12.5
      vertex 7.16484 -5.44657 37.5
      vertex 7.16484 -5.44657 12.5
    endloop
  endfacet
  facet normal -0.976621 -0.214969 0
    outer loop
      vertex -8.52888 -2.87371 12.5
      vertex -8.94724 -0.973071 37.5
      vertex -8.94724 -0.973071 12.5
    endloop
  endfacet
  facet normal -0.976621 -0.214969 0
    outer loop
      vertex -8.94724 -0.973071 37.5
      vertex -8.52888 -2.87371 12.5
      vertex -8.52888 -2.87371 37.5
    endloop
  endfacet
  facet normal -0.647386 0.762162 0
    outer loop
      vertex -5.05068 7.4492 12.5
      vertex -6.53396 6.18929 37.5
      vertex -5.05068 7.4492 37.5
    endloop
  endfacet
  facet normal -0.647386 0.762162 0
    outer loop
      vertex -6.53396 6.18929 37.5
      vertex -5.05068 7.4492 12.5
      vertex -6.53396 6.18929 12.5
    endloop
  endfacet
  facet normal 0.561187 -0.827689 0
    outer loop
      vertex 4.21568 -7.95161 12.5
      vertex 5.82648 -6.85946 37.5
      vertex 4.21568 -7.95161 37.5
    endloop
  endfacet
  facet normal 0.561187 -0.827689 0
    outer loop
      vertex 5.82648 -6.85946 37.5
      vertex 4.21568 -7.95161 12.5
      vertex 5.82648 -6.85946 12.5
    endloop
  endfacet
  facet normal -0.907574 -0.419892 0
    outer loop
      vertex -7.71171 -4.63998 12.5
      vertex -8.52888 -2.87371 37.5
      vertex -8.52888 -2.87371 12.5
    endloop
  endfacet
  facet normal -0.907574 -0.419892 0
    outer loop
      vertex -8.52888 -2.87371 37.5
      vertex -7.71171 -4.63998 12.5
      vertex -7.71171 -4.63998 37.5
    endloop
  endfacet
  facet normal 0 0 -1
    outer loop
      vertex 8.78647 -4.67182 37.5
      vertex 8.16818 -3.779 37.5
      vertex 8.78647 -1.94396 37.5
    endloop
  endfacet
  facet normal 0 0 -1
    outer loop
      vertex 7.16484 -5.44657 37.5
      vertex 8.78647 -4.67182 37.5
      vertex 8.09017 -5.87785 37.5
    endloop
  endfacet
  facet normal -0 0 -1
    outer loop
      vertex 8.78647 -4.67182 37.5
      vertex 7.16484 -5.44657 37.5
      vertex 8.16818 -3.779 37.5
    endloop
  endfacet
  facet normal 0 0 -1
    outer loop
      vertex 6.69131 -7.43145 37.5
      vertex 7.16484 -5.44657 37.5
      vertex 8.09017 -5.87785 37.5
    endloop
  endfacet
  facet normal 0 0 -1
    outer loop
      vertex 6.69131 -7.43145 37.5
      vertex 5.82648 -6.85946 37.5
      vertex 7.16484 -5.44657 37.5
    endloop
  endfacet
  facet normal 0 0 -1
    outer loop
      vertex 5 -8.66025 37.5
      vertex 5.82648 -6.85946 37.5
      vertex 6.69131 -7.43145 37.5
    endloop
  endfacet
  facet normal 0 0 -1
    outer loop
      vertex 5 -8.66025 37.5
      vertex 4.21568 -7.95161 37.5
      vertex 5.82648 -6.85946 37.5
    endloop
  endfacet
  facet normal 0 0 -1
    outer loop
      vertex 3.1139 -9.5 37.5
      vertex 4.21568 -7.95161 37.5
      vertex 5 -8.66025 37.5
    endloop
  endfacet
  facet normal 0 0 -1
    outer loop
      vertex 3.1139 -9.5 37.5
      vertex 2.40775 -8.67195 37.5
      vertex 4.21568 -7.95161 37.5
    endloop
  endfacet
  facet normal 0 0 -1
    outer loop
      vertex 3.1139 -9.5 37.5
      vertex 0.487249 -8.9868 37.5
      vertex 2.40775 -8.67195 37.5
    endloop
  endfacet
  facet normal 0 0 -1
    outer loop
      vertex -3.1139 -9.5 37.5
      vertex 0.487249 -8.9868 37.5
      vertex 3.1139 -9.5 37.5
    endloop
  endfacet
  facet normal -0 0 -1
    outer loop
      vertex 0.487249 -8.9868 37.5
      vertex -3.1139 -9.5 37.5
      vertex -1.45604 -8.88144 37.5
    endloop
  endfacet
  facet normal 0 0 -1
    outer loop
      vertex -3.1139 -9.5 37.5
      vertex -3.33124 -8.36079 37.5
      vertex -1.45604 -8.88144 37.5
    endloop
  endfacet
  facet normal 0 0 -1
    outer loop
      vertex -5 -8.66025 37.5
      vertex -3.33124 -8.36079 37.5
      vertex -3.1139 -9.5 37.5
    endloop
  endfacet
  facet normal 0 0 -1
    outer loop
      vertex -5 -8.66025 37.5
      vertex -5.05068 -7.4492 37.5
      vertex -3.33124 -8.36079 37.5
    endloop
  endfacet
  facet normal 0 0 -1
    outer loop
      vertex -6.69131 -7.43145 37.5
      vertex -5.05068 -7.4492 37.5
      vertex -5 -8.66025 37.5
    endloop
  endfacet
  facet normal 0 0 -1
    outer loop
      vertex -5.05068 -7.4492 37.5
      vertex -6.69131 -7.43145 37.5
      vertex -6.53396 -6.18929 37.5
    endloop
  endfacet
  facet normal 0 0 -1
    outer loop
      vertex -8.09017 -5.87785 37.5
      vertex -6.53396 -6.18929 37.5
      vertex -6.69131 -7.43145 37.5
    endloop
  endfacet
  facet normal 0 0 -1
    outer loop
      vertex -6.53396 -6.18929 37.5
      vertex -8.09017 -5.87785 37.5
      vertex -7.71171 -4.63998 37.5
    endloop
  endfacet
  facet normal 0 0 -1
    outer loop
      vertex -9.13545 -4.06737 37.5
      vertex -7.71171 -4.63998 37.5
      vertex -8.09017 -5.87785 37.5
    endloop
  endfacet
  facet normal 0 0 -1
    outer loop
      vertex -7.71171 -4.63998 37.5
      vertex -9.13545 -4.06737 37.5
      vertex -8.52888 -2.87371 37.5
    endloop
  endfacet
  facet normal -0 0 -1
    outer loop
      vertex -8.52888 -2.87371 37.5
      vertex -9.5 -2.94541 37.5
      vertex -8.94724 -0.973071 37.5
    endloop
  endfacet
  facet normal 0 0 -1
    outer loop
      vertex -9.5 -2.94541 37.5
      vertex -8.52888 -2.87371 37.5
      vertex -9.13545 -4.06737 37.5
    endloop
  endfacet
  facet normal 0 0 -1
    outer loop
      vertex 8.78958 1.93473 37.5
      vertex 9.5 2.94541 37.5
      vertex 9.5 0 37.5
    endloop
  endfacet
  facet normal 0 0 -1
    outer loop
      vertex 8.78958 1.93473 37.5
      vertex 9.5 0 37.5
      vertex 9 0 37.5
    endloop
  endfacet
  facet normal 0 0 -1
    outer loop
      vertex 8.16818 3.779 37.5
      vertex 9.5 2.94541 37.5
      vertex 8.78958 1.93473 37.5
    endloop
  endfacet
  facet normal 0 0 -1
    outer loop
      vertex 9.5 2.94541 37.5
      vertex 8.16818 3.779 37.5
      vertex 9.13545 4.06737 37.5
    endloop
  endfacet
  facet normal 0 0 -1
    outer loop
      vertex 8.16818 3.779 37.5
      vertex 8.09017 5.87785 37.5
      vertex 9.13545 4.06737 37.5
    endloop
  endfacet
  facet normal 0 0 -1
    outer loop
      vertex 7.16484 5.44657 37.5
      vertex 8.09017 5.87785 37.5
      vertex 8.16818 3.779 37.5
    endloop
  endfacet
  facet normal 0 0 -1
    outer loop
      vertex 7.16484 5.44657 37.5
      vertex 6.69131 7.43145 37.5
      vertex 8.09017 5.87785 37.5
    endloop
  endfacet
  facet normal 0 0 -1
    outer loop
      vertex 5.82648 6.85946 37.5
      vertex 6.69131 7.43145 37.5
      vertex 7.16484 5.44657 37.5
    endloop
  endfacet
  facet normal 0 0 -1
    outer loop
      vertex 5.82648 6.85946 37.5
      vertex 5 8.66025 37.5
      vertex 6.69131 7.43145 37.5
    endloop
  endfacet
  facet normal 0 0 -1
    outer loop
      vertex 4.21568 7.95161 37.5
      vertex 5 8.66025 37.5
      vertex 5.82648 6.85946 37.5
    endloop
  endfacet
  facet normal 0 0 -1
    outer loop
      vertex 4.21568 7.95161 37.5
      vertex 3.1139 9.5 37.5
      vertex 5 8.66025 37.5
    endloop
  endfacet
  facet normal 0 0 -1
    outer loop
      vertex 2.40775 8.67195 37.5
      vertex 3.1139 9.5 37.5
      vertex 4.21568 7.95161 37.5
    endloop
  endfacet
  facet normal 0 0 -1
    outer loop
      vertex 0.487249 8.9868 37.5
      vertex 3.1139 9.5 37.5
      vertex 2.40775 8.67195 37.5
    endloop
  endfacet
  facet normal 0 0 -1
    outer loop
      vertex -3.1139 9.5 37.5
      vertex 0.487249 8.9868 37.5
      vertex -1.45604 8.88144 37.5
    endloop
  endfacet
  facet normal 0 0 -1
    outer loop
      vertex 0.487249 8.9868 37.5
      vertex -3.1139 9.5 37.5
      vertex 3.1139 9.5 37.5
    endloop
  endfacet
  facet normal 0 0 -1
    outer loop
      vertex -3.33124 8.36079 37.5
      vertex -3.1139 9.5 37.5
      vertex -1.45604 8.88144 37.5
    endloop
  endfacet
  facet normal 0 0 -1
    outer loop
      vertex -3.33124 8.36079 37.5
      vertex -5 8.66025 37.5
      vertex -3.1139 9.5 37.5
    endloop
  endfacet
  facet normal 0 0 -1
    outer loop
      vertex -5.05068 7.4492 37.5
      vertex -5 8.66025 37.5
      vertex -3.33124 8.36079 37.5
    endloop
  endfacet
  facet normal 0 0 -1
    outer loop
      vertex -6.69131 7.43145 37.5
      vertex -5.05068 7.4492 37.5
      vertex -6.53396 6.18929 37.5
    endloop
  endfacet
  facet normal -0 0 -1
    outer loop
      vertex -5.05068 7.4492 37.5
      vertex -6.69131 7.43145 37.5
      vertex -5 8.66025 37.5
    endloop
  endfacet
  facet normal 0 0 -1
    outer loop
      vertex -8.09017 5.87785 37.5
      vertex -6.53396 6.18929 37.5
      vertex -7.71171 4.63998 37.5
    endloop
  endfacet
  facet normal -0 0 -1
    outer loop
      vertex -6.53396 6.18929 37.5
      vertex -8.09017 5.87785 37.5
      vertex -6.69131 7.43145 37.5
    endloop
  endfacet
  facet normal 0 0 -1
    outer loop
      vertex -9.13545 4.06737 37.5
      vertex -7.71171 4.63998 37.5
      vertex -8.52888 2.87371 37.5
    endloop
  endfacet
  facet normal 0 0 -1
    outer loop
      vertex -9.5 2.94541 37.5
      vertex -8.52888 2.87371 37.5
      vertex -8.94724 0.973071 37.5
    endloop
  endfacet
  facet normal -0 0 -1
    outer loop
      vertex -7.71171 4.63998 37.5
      vertex -9.13545 4.06737 37.5
      vertex -8.09017 5.87785 37.5
    endloop
  endfacet
  facet normal -0 0 -1
    outer loop
      vertex -8.94724 -0.973071 37.5
      vertex -9.5 -2.94541 37.5
      vertex -8.94724 0.973071 37.5
    endloop
  endfacet
  facet normal 0 0 -1
    outer loop
      vertex -9.5 2.94541 37.5
      vertex -8.94724 0.973071 37.5
      vertex -9.5 -2.94541 37.5
    endloop
  endfacet
  facet normal 0 0 -1
    outer loop
      vertex -8.52888 2.87371 37.5
      vertex -9.5 2.94541 37.5
      vertex -9.13545 4.06737 37.5
    endloop
  endfacet
  facet normal -0.796094 -0.605173 0
    outer loop
      vertex -6.53396 -6.18929 12.5
      vertex -7.71171 -4.63998 37.5
      vertex -7.71171 -4.63998 12.5
    endloop
  endfacet
  facet normal -0.796094 -0.605173 0
    outer loop
      vertex -7.71171 -4.63998 37.5
      vertex -6.53396 -6.18929 12.5
      vertex -6.53396 -6.18929 37.5
    endloop
  endfacet
  facet normal -0.26753 0.96355 0
    outer loop
      vertex -1.45604 8.88144 12.5
      vertex -3.33124 8.36079 37.5
      vertex -1.45604 8.88144 37.5
    endloop
  endfacet
  facet normal -0.26753 0.96355 0
    outer loop
      vertex -3.33124 8.36079 37.5
      vertex -1.45604 8.88144 12.5
      vertex -3.33124 8.36079 12.5
    endloop
  endfacet
  facet normal 0.994138 -0.108122 0
    outer loop
      vertex 8.78958 -1.93473 36.6173
      vertex 9 0 13.4511
      vertex 9 0 36.5489
    endloop
  endfacet
  facet normal 0.994138 -0.108122 0
    outer loop
      vertex 9 0 13.4511
      vertex 8.78958 -1.93473 36.6173
      vertex 8.78958 -1.93473 13.3827
    endloop
  endfacet
  facet normal -0.468409 0.883512 0
    outer loop
      vertex -3.33124 8.36079 12.5
      vertex -5.05068 7.4492 37.5
      vertex -3.33124 8.36079 37.5
    endloop
  endfacet
  facet normal -0.468409 0.883512 0
    outer loop
      vertex -5.05068 7.4492 37.5
      vertex -3.33124 8.36079 12.5
      vertex -5.05068 7.4492 12.5
    endloop
  endfacet
  facet normal 0.561187 0.827689 -0
    outer loop
      vertex 5.82648 6.85946 12.5
      vertex 4.21568 7.95161 37.5
      vertex 5.82648 6.85946 37.5
    endloop
  endfacet
  facet normal 0.561187 0.827689 0
    outer loop
      vertex 4.21568 7.95161 37.5
      vertex 5.82648 6.85946 12.5
      vertex 4.21568 7.95161 12.5
    endloop
  endfacet
  facet normal -0.26753 -0.96355 0
    outer loop
      vertex -3.33124 -8.36079 12.5
      vertex -1.45604 -8.88144 37.5
      vertex -3.33124 -8.36079 37.5
    endloop
  endfacet
  facet normal -0.26753 -0.96355 -0
    outer loop
      vertex -1.45604 -8.88144 37.5
      vertex -3.33124 -8.36079 12.5
      vertex -1.45604 -8.88144 12.5
    endloop
  endfacet
  facet normal -1 0 0
    outer loop
      vertex -8.94724 -0.973071 12.5
      vertex -8.94724 0.973071 37.5
      vertex -8.94724 0.973071 12.5
    endloop
  endfacet
  facet normal -1 -0 0
    outer loop
      vertex -8.94724 0.973071 37.5
      vertex -8.94724 -0.973071 12.5
      vertex -8.94724 -0.973071 37.5
    endloop
  endfacet
  facet normal -0.468409 -0.883512 0
    outer loop
      vertex -5.05068 -7.4492 12.5
      vertex -3.33124 -8.36079 37.5
      vertex -5.05068 -7.4492 37.5
    endloop
  endfacet
  facet normal -0.468409 -0.883512 -0
    outer loop
      vertex -3.33124 -8.36079 37.5
      vertex -5.05068 -7.4492 12.5
      vertex -3.33124 -8.36079 12.5
    endloop
  endfacet
  facet normal 0.856858 0.515553 0
    outer loop
      vertex 8.16818 3.779 37.5
      vertex 7.16484 5.44657 12.5
      vertex 7.16484 5.44657 37.5
    endloop
  endfacet
  facet normal 0.856858 0.515553 0
    outer loop
      vertex 7.16484 5.44657 12.5
      vertex 8.16818 3.779 37.5
      vertex 8.16818 3.779 12.5
    endloop
  endfacet
  facet normal 0.161782 -0.986827 0
    outer loop
      vertex 0.487249 -8.9868 12.5
      vertex 2.40775 -8.67195 37.5
      vertex 0.487249 -8.9868 37.5
    endloop
  endfacet
  facet normal 0.161782 -0.986827 0
    outer loop
      vertex 2.40775 -8.67195 37.5
      vertex 0.487249 -8.9868 12.5
      vertex 2.40775 -8.67195 12.5
    endloop
  endfacet
  facet normal -0.0541378 0.998533 0
    outer loop
      vertex 0.487249 8.9868 12.5
      vertex -1.45604 8.88144 37.5
      vertex 0.487249 8.9868 37.5
    endloop
  endfacet
  facet normal -0.0541378 0.998533 0
    outer loop
      vertex -1.45604 8.88144 37.5
      vertex 0.487249 8.9868 12.5
      vertex -1.45604 8.88144 12.5
    endloop
  endfacet
  facet normal 0.725996 -0.687699 0
    outer loop
      vertex 5.82648 -6.85946 37.5
      vertex 7.16484 -5.44657 12.5
      vertex 7.16484 -5.44657 37.5
    endloop
  endfacet
  facet normal 0.725996 -0.687699 0
    outer loop
      vertex 7.16484 -5.44657 12.5
      vertex 5.82648 -6.85946 37.5
      vertex 5.82648 -6.85946 12.5
    endloop
  endfacet
  facet normal 0.370136 -0.928978 0
    outer loop
      vertex 2.40775 -8.67195 12.5
      vertex 4.21568 -7.95161 37.5
      vertex 2.40775 -8.67195 37.5
    endloop
  endfacet
  facet normal 0.370136 -0.928978 0
    outer loop
      vertex 4.21568 -7.95161 37.5
      vertex 2.40775 -8.67195 12.5
      vertex 4.21568 -7.95161 12.5
    endloop
  endfacet
  facet normal -0.907574 0.419892 0
    outer loop
      vertex -8.52888 2.87371 12.5
      vertex -7.71171 4.63998 37.5
      vertex -7.71171 4.63998 12.5
    endloop
  endfacet
  facet normal -0.907574 0.419892 0
    outer loop
      vertex -7.71171 4.63998 37.5
      vertex -8.52888 2.87371 12.5
      vertex -8.52888 2.87371 37.5
    endloop
  endfacet
  facet normal -0.796094 0.605173 0
    outer loop
      vertex -7.71171 4.63998 12.5
      vertex -6.53396 6.18929 37.5
      vertex -6.53396 6.18929 12.5
    endloop
  endfacet
  facet normal -0.796094 0.605173 0
    outer loop
      vertex -6.53396 6.18929 37.5
      vertex -7.71171 4.63998 12.5
      vertex -7.71171 4.63998 37.5
    endloop
  endfacet
  facet normal -0.743147 -0.669129 0
    outer loop
      vertex -6.69131 -7.43145 37.5
      vertex -8.09017 -5.87785 50
      vertex -8.09017 -5.87785 37.5
    endloop
  endfacet
  facet normal -0.743147 -0.669129 0
    outer loop
      vertex -8.09017 -5.87785 50
      vertex -6.69131 -7.43145 37.5
      vertex -6.69131 -7.43145 50
    endloop
  endfacet
  facet normal 0.951056 0.309019 0
    outer loop
      vertex 9.5 2.94541 50
      vertex 9.13545 4.06737 37.5
      vertex 9.13545 4.06737 50
    endloop
  endfacet
  facet normal 0.951056 0.309019 0
    outer loop
      vertex 9.13545 4.06737 37.5
      vertex 9.5 2.94541 50
      vertex 9.5 2.94541 37.5
    endloop
  endfacet
  facet normal 0.866026 0.5 0
    outer loop
      vertex 9.13545 4.06737 50
      vertex 8.09017 5.87785 37.5
      vertex 8.09017 5.87785 50
    endloop
  endfacet
  facet normal 0.866026 0.5 0
    outer loop
      vertex 8.09017 5.87785 37.5
      vertex 9.13545 4.06737 50
      vertex 9.13545 4.06737 37.5
    endloop
  endfacet
  facet normal 0.951056 -0.309019 0
    outer loop
      vertex 9.13545 -4.06737 50
      vertex 9.5 -2.94541 38.6135
      vertex 9.5 -2.94541 50
    endloop
  endfacet
  facet normal 0.951056 -0.309019 0
    outer loop
      vertex 9.5 -2.94541 38.6135
      vertex 9.13545 -4.06737 50
      vertex 9.13545 -4.06737 38.4951
    endloop
  endfacet
  facet normal 0.587783 -0.809019 0
    outer loop
      vertex 5 -8.66025 37.5
      vertex 6.69131 -7.43145 50
      vertex 5 -8.66025 50
    endloop
  endfacet
  facet normal 0.587783 -0.809019 0
    outer loop
      vertex 6.69131 -7.43145 50
      vertex 5 -8.66025 37.5
      vertex 6.69131 -7.43145 37.5
    endloop
  endfacet
  facet normal 0.743147 -0.669129 0
    outer loop
      vertex 6.69131 -7.43145 50
      vertex 8.09017 -5.87785 37.5
      vertex 8.09017 -5.87785 50
    endloop
  endfacet
  facet normal 0.743147 -0.669129 0
    outer loop
      vertex 8.09017 -5.87785 37.5
      vertex 6.69131 -7.43145 50
      vertex 6.69131 -7.43145 37.5
    endloop
  endfacet
  facet normal -0.406738 -0.913545 0
    outer loop
      vertex -5 -8.66025 37.5
      vertex -3.1139 -9.5 50
      vertex -5 -8.66025 50
    endloop
  endfacet
  facet normal -0.406738 -0.913545 -0
    outer loop
      vertex -3.1139 -9.5 50
      vertex -5 -8.66025 37.5
      vertex -3.1139 -9.5 37.5
    endloop
  endfacet
  facet normal 0.406738 0.913545 -0
    outer loop
      vertex 5 8.66025 37.5
      vertex 3.1139 9.5 50
      vertex 5 8.66025 50
    endloop
  endfacet
  facet normal 0.406738 0.913545 0
    outer loop
      vertex 3.1139 9.5 50
      vertex 5 8.66025 37.5
      vertex 3.1139 9.5 37.5
    endloop
  endfacet
  facet normal 0.743147 0.669129 0
    outer loop
      vertex 8.09017 5.87785 50
      vertex 6.69131 7.43145 37.5
      vertex 6.69131 7.43145 50
    endloop
  endfacet
  facet normal 0.743147 0.669129 0
    outer loop
      vertex 6.69131 7.43145 37.5
      vertex 8.09017 5.87785 50
      vertex 8.09017 5.87785 37.5
    endloop
  endfacet
  facet normal -0.587783 -0.809019 0
    outer loop
      vertex -6.69131 -7.43145 37.5
      vertex -5 -8.66025 50
      vertex -6.69131 -7.43145 50
    endloop
  endfacet
  facet normal -0.587783 -0.809019 -0
    outer loop
      vertex -5 -8.66025 50
      vertex -6.69131 -7.43145 37.5
      vertex -5 -8.66025 37.5
    endloop
  endfacet
  facet normal -0.743147 0.669129 0
    outer loop
      vertex -8.09017 5.87785 37.5
      vertex -6.69131 7.43145 50
      vertex -6.69131 7.43145 37.5
    endloop
  endfacet
  facet normal -0.743147 0.669129 0
    outer loop
      vertex -6.69131 7.43145 50
      vertex -8.09017 5.87785 37.5
      vertex -8.09017 5.87785 50
    endloop
  endfacet
  facet normal 0.406738 -0.913545 0
    outer loop
      vertex 3.1139 -9.5 37.5
      vertex 5 -8.66025 50
      vertex 3.1139 -9.5 50
    endloop
  endfacet
  facet normal 0.406738 -0.913545 0
    outer loop
      vertex 5 -8.66025 50
      vertex 3.1139 -9.5 37.5
      vertex 5 -8.66025 37.5
    endloop
  endfacet
  facet normal -0.951056 0.309019 0
    outer loop
      vertex -9.5 2.94541 37.5
      vertex -9.13545 4.06737 50
      vertex -9.13545 4.06737 37.5
    endloop
  endfacet
  facet normal -0.951056 0.309019 0
    outer loop
      vertex -9.13545 4.06737 50
      vertex -9.5 2.94541 37.5
      vertex -9.5 2.94541 50
    endloop
  endfacet
  facet normal -0.951056 -0.309019 0
    outer loop
      vertex -9.13545 -4.06737 37.5
      vertex -9.5 -2.94541 50
      vertex -9.5 -2.94541 37.5
    endloop
  endfacet
  facet normal -0.951056 -0.309019 0
    outer loop
      vertex -9.5 -2.94541 50
      vertex -9.13545 -4.06737 37.5
      vertex -9.13545 -4.06737 50
    endloop
  endfacet
  facet normal -0.406738 0.913545 0
    outer loop
      vertex -3.1139 9.5 37.5
      vertex -5 8.66025 50
      vertex -3.1139 9.5 50
    endloop
  endfacet
  facet normal -0.406738 0.913545 0
    outer loop
      vertex -5 8.66025 50
      vertex -3.1139 9.5 37.5
      vertex -5 8.66025 37.5
    endloop
  endfacet
  facet normal 0 0 1
    outer loop
      vertex 2.42705 1.76336 50
      vertex 9.5 2.94541 50
      vertex 9.13545 4.06737 50
    endloop
  endfacet
  facet normal 0 0 1
    outer loop
      vertex 9.5 2.94541 50
      vertex 3 0 50
      vertex 9.5 -2.94541 50
    endloop
  endfacet
  facet normal 0 0 1
    outer loop
      vertex 2.42705 1.76336 50
      vertex 9.13545 4.06737 50
      vertex 8.09017 5.87785 50
    endloop
  endfacet
  facet normal -0 0 1
    outer loop
      vertex 2.42705 -1.76336 50
      vertex 9.5 -2.94541 50
      vertex 3 0 50
    endloop
  endfacet
  facet normal 0 0 1
    outer loop
      vertex 2.42705 1.76336 50
      vertex 8.09017 5.87785 50
      vertex 6.69131 7.43145 50
    endloop
  endfacet
  facet normal 0 0 1
    outer loop
      vertex 9.5 -2.94541 50
      vertex 2.42705 -1.76336 50
      vertex 9.13545 -4.06737 50
    endloop
  endfacet
  facet normal 0 0 1
    outer loop
      vertex 2.42705 1.76336 50
      vertex 6.69131 7.43145 50
      vertex 5 8.66025 50
    endloop
  endfacet
  facet normal 0 0 1
    outer loop
      vertex 9.13545 -4.06737 50
      vertex 2.42705 -1.76336 50
      vertex 8.09017 -5.87785 50
    endloop
  endfacet
  facet normal 0 0 1
    outer loop
      vertex 0.927051 2.85317 50
      vertex 5 8.66025 50
      vertex 3.1139 9.5 50
    endloop
  endfacet
  facet normal 0 0 1
    outer loop
      vertex 8.09017 -5.87785 50
      vertex 2.42705 -1.76336 50
      vertex 6.69131 -7.43145 50
    endloop
  endfacet
  facet normal 0 0 1
    outer loop
      vertex 6.69131 -7.43145 50
      vertex 2.42705 -1.76336 50
      vertex 5 -8.66025 50
    endloop
  endfacet
  facet normal 0 0 1
    outer loop
      vertex 9.5 2.94541 50
      vertex 2.42705 1.76336 50
      vertex 3 0 50
    endloop
  endfacet
  facet normal 0 0 1
    outer loop
      vertex 5 8.66025 50
      vertex 0.927051 2.85317 50
      vertex 2.42705 1.76336 50
    endloop
  endfacet
  facet normal 0 0 1
    outer loop
      vertex 3.1139 9.5 50
      vertex -0.927051 2.85317 50
      vertex 0.927051 2.85317 50
    endloop
  endfacet
  facet normal -0 0 1
    outer loop
      vertex -3.1139 9.5 50
      vertex -0.927051 2.85317 50
      vertex 3.1139 9.5 50
    endloop
  endfacet
  facet normal 0 0 1
    outer loop
      vertex -0.927051 2.85317 50
      vertex -5 8.66025 50
      vertex -2.42705 1.76336 50
    endloop
  endfacet
  facet normal -0 0 1
    outer loop
      vertex -5 8.66025 50
      vertex -0.927051 2.85317 50
      vertex -3.1139 9.5 50
    endloop
  endfacet
  facet normal -0 0 1
    outer loop
      vertex 0.927051 -2.85317 50
      vertex 5 -8.66025 50
      vertex 2.42705 -1.76336 50
    endloop
  endfacet
  facet normal 0 0 1
    outer loop
      vertex 5 -8.66025 50
      vertex 0.927051 -2.85317 50
      vertex 3.1139 -9.5 50
    endloop
  endfacet
  facet normal -0 0 1
    outer loop
      vertex -0.927051 -2.85317 50
      vertex 3.1139 -9.5 50
      vertex 0.927051 -2.85317 50
    endloop
  endfacet
  facet normal 0 0 1
    outer loop
      vertex -5 -8.66025 50
      vertex -0.927051 -2.85317 50
      vertex -2.42705 -1.76336 50
    endloop
  endfacet
  facet normal 0 0 1
    outer loop
      vertex -0.927051 -2.85317 50
      vertex -3.1139 -9.5 50
      vertex 3.1139 -9.5 50
    endloop
  endfacet
  facet normal 0 0 1
    outer loop
      vertex -9.5 -2.94541 50
      vertex -2.42705 -1.76336 50
      vertex -3 0 50
    endloop
  endfacet
  facet normal -0 0 1
    outer loop
      vertex -6.69131 7.43145 50
      vertex -2.42705 1.76336 50
      vertex -5 8.66025 50
    endloop
  endfacet
  facet normal -0 0 1
    outer loop
      vertex -8.09017 5.87785 50
      vertex -2.42705 1.76336 50
      vertex -6.69131 7.43145 50
    endloop
  endfacet
  facet normal 0 0 1
    outer loop
      vertex -9.5 -2.94541 50
      vertex -3 0 50
      vertex -9.5 2.94541 50
    endloop
  endfacet
  facet normal -0 0 1
    outer loop
      vertex -9.13545 4.06737 50
      vertex -2.42705 1.76336 50
      vertex -8.09017 5.87785 50
    endloop
  endfacet
  facet normal 0 0 1
    outer loop
      vertex -2.42705 -1.76336 50
      vertex -9.5 -2.94541 50
      vertex -9.13545 -4.06737 50
    endloop
  endfacet
  facet normal -0 0 1
    outer loop
      vertex -9.5 2.94541 50
      vertex -2.42705 1.76336 50
      vertex -9.13545 4.06737 50
    endloop
  endfacet
  facet normal 0 0 1
    outer loop
      vertex -0.927051 -2.85317 50
      vertex -5 -8.66025 50
      vertex -3.1139 -9.5 50
    endloop
  endfacet
  facet normal 0 0 1
    outer loop
      vertex -2.42705 1.76336 50
      vertex -9.5 2.94541 50
      vertex -3 0 50
    endloop
  endfacet
  facet normal 0 0 1
    outer loop
      vertex -2.42705 -1.76336 50
      vertex -6.69131 -7.43145 50
      vertex -5 -8.66025 50
    endloop
  endfacet
  facet normal 0 0 1
    outer loop
      vertex -2.42705 -1.76336 50
      vertex -8.09017 -5.87785 50
      vertex -6.69131 -7.43145 50
    endloop
  endfacet
  facet normal 0 0 1
    outer loop
      vertex -2.42705 -1.76336 50
      vertex -9.13545 -4.06737 50
      vertex -8.09017 -5.87785 50
    endloop
  endfacet
  facet normal -0.866026 -0.5 0
    outer loop
      vertex -8.09017 -5.87785 37.5
      vertex -9.13545 -4.06737 50
      vertex -9.13545 -4.06737 37.5
    endloop
  endfacet
  facet normal -0.866026 -0.5 0
    outer loop
      vertex -9.13545 -4.06737 50
      vertex -8.09017 -5.87785 37.5
      vertex -8.09017 -5.87785 50
    endloop
  endfacet
  facet normal -0.866026 0.5 0
    outer loop
      vertex -9.13545 4.06737 37.5
      vertex -8.09017 5.87785 50
      vertex -8.09017 5.87785 37.5
    endloop
  endfacet
  facet normal -0.866026 0.5 0
    outer loop
      vertex -8.09017 5.87785 50
      vertex -9.13545 4.06737 37.5
      vertex -9.13545 4.06737 50
    endloop
  endfacet
  facet normal 0.866026 -0.5 0
    outer loop
      vertex 8.09017 -5.87785 50
      vertex 9.13545 -4.06737 38.4951
      vertex 9.13545 -4.06737 50
    endloop
  endfacet
  facet normal 0.866025 -0.500001 -2.19475e-07
    outer loop
      vertex 9.13545 -4.06737 38.4951
      vertex 8.09017 -5.87785 50
      vertex 8.78647 -4.67182 38.3817
    endloop
  endfacet
  facet normal 0.866026 -0.499999 0
    outer loop
      vertex 8.09017 -5.87785 37.5
      vertex 8.78647 -4.67182 38.3817
      vertex 8.09017 -5.87785 50
    endloop
  endfacet
  facet normal 0.866026 -0.499999 0
    outer loop
      vertex 8.78647 -4.67182 38.3817
      vertex 8.09017 -5.87785 37.5
      vertex 8.78647 -4.67182 37.5
    endloop
  endfacet
  facet normal 0.587783 0.809019 -0
    outer loop
      vertex 6.69131 7.43145 37.5
      vertex 5 8.66025 50
      vertex 6.69131 7.43145 50
    endloop
  endfacet
  facet normal 0.587783 0.809019 0
    outer loop
      vertex 5 8.66025 50
      vertex 6.69131 7.43145 37.5
      vertex 5 8.66025 37.5
    endloop
  endfacet
  facet normal -0.587783 0.809019 0
    outer loop
      vertex -5 8.66025 37.5
      vertex -6.69131 7.43145 50
      vertex -5 8.66025 50
    endloop
  endfacet
  facet normal -0.587783 0.809019 0
    outer loop
      vertex -6.69131 7.43145 50
      vertex -5 8.66025 37.5
      vertex -6.69131 7.43145 37.5
    endloop
  endfacet
  facet normal 1 0 0
    outer loop
      vertex 9.5 2.94541 50
      vertex 9.5 0 38.6135
      vertex 9.5 2.94541 37.5
    endloop
  endfacet
  facet normal 1 -0 0
    outer loop
      vertex 9.5 -2.94541 50
      vertex 9.5 0 38.6135
      vertex 9.5 2.94541 50
    endloop
  endfacet
  facet normal 1 0 0
    outer loop
      vertex 9.5 0 38.6135
      vertex 9.5 -2.94541 50
      vertex 9.5 -2.94541 38.6135
    endloop
  endfacet
  facet normal 1 0 0
    outer loop
      vertex 9.5 2.94541 37.5
      vertex 9.5 0 38.6135
      vertex 9.5 0 37.5
    endloop
  endfacet
  facet normal 1 0 0
    outer loop
      vertex 9.5 0 11.3865
      vertex 9.5 2.94541 12.5
      vertex 9.5 0 12.5
    endloop
  endfacet
  facet normal 1 0 0
    outer loop
      vertex 9.5 2.94541 12.5
      vertex 9.5 0 11.3865
      vertex 9.5 2.94541 0
    endloop
  endfacet
  facet normal 1 0 0
    outer loop
      vertex 9.5 -2.94541 0
      vertex 9.5 0 11.3865
      vertex 9.5 -2.94541 11.3865
    endloop
  endfacet
  facet normal 1 0 0
    outer loop
      vertex 9.5 0 11.3865
      vertex 9.5 -2.94541 0
      vertex 9.5 2.94541 0
    endloop
  endfacet
  facet normal 0 1 -0
    outer loop
      vertex 3.1139 9.5 37.5
      vertex -3.1139 9.5 50
      vertex 3.1139 9.5 50
    endloop
  endfacet
  facet normal 0 1 0
    outer loop
      vertex -3.1139 9.5 50
      vertex 3.1139 9.5 37.5
      vertex -3.1139 9.5 37.5
    endloop
  endfacet
  facet normal 0 1 -0
    outer loop
      vertex 3.1139 9.5 0
      vertex -3.1139 9.5 12.5
      vertex 3.1139 9.5 12.5
    endloop
  endfacet
  facet normal 0 1 0
    outer loop
      vertex -3.1139 9.5 12.5
      vertex 3.1139 9.5 0
      vertex -3.1139 9.5 0
    endloop
  endfacet
  facet normal -1 0 0
    outer loop
      vertex -9.5 -2.94541 37.5
      vertex -9.5 2.94541 50
      vertex -9.5 2.94541 37.5
    endloop
  endfacet
  facet normal -1 -0 0
    outer loop
      vertex -9.5 2.94541 50
      vertex -9.5 -2.94541 37.5
      vertex -9.5 -2.94541 50
    endloop
  endfacet
  facet normal -1 0 0
    outer loop
      vertex -9.5 -2.94541 0
      vertex -9.5 2.94541 12.5
      vertex -9.5 2.94541 0
    endloop
  endfacet
  facet normal -1 -0 0
    outer loop
      vertex -9.5 2.94541 12.5
      vertex -9.5 -2.94541 0
      vertex -9.5 -2.94541 12.5
    endloop
  endfacet
  facet normal 0 -1 0
    outer loop
      vertex -3.1139 -9.5 37.5
      vertex 3.1139 -9.5 50
      vertex -3.1139 -9.5 50
    endloop
  endfacet
  facet normal 0 -1 -0
    outer loop
      vertex 3.1139 -9.5 50
      vertex -3.1139 -9.5 37.5
      vertex 3.1139 -9.5 37.5
    endloop
  endfacet
  facet normal 0 -1 0
    outer loop
      vertex -3.1139 -9.5 0
      vertex 3.1139 -9.5 12.5
      vertex -3.1139 -9.5 12.5
    endloop
  endfacet
  facet normal 0 -1 -0
    outer loop
      vertex 3.1139 -9.5 12.5
      vertex -3.1139 -9.5 0
      vertex 3.1139 -9.5 0
    endloop
  endfacet
  facet normal 0.308969 0 0.951072
    outer loop
      vertex 8.78647 0 11.6183
      vertex 9.5 -2.94541 11.3865
      vertex 9.5 0 11.3865
    endloop
  endfacet
  facet normal 0.30893 -1.05232e-05 0.951085
    outer loop
      vertex 9.5 -2.94541 11.3865
      vertex 8.78647 0 11.6183
      vertex 9.13545 -4.06737 11.5049
    endloop
  endfacet
  facet normal 0.30904 0 0.951049
    outer loop
      vertex 9.13545 -4.06737 11.5049
      vertex 8.78647 0 11.6183
      vertex 8.78647 -4.67182 11.6183
    endloop
  endfacet
  facet normal 1 0 0
    outer loop
      vertex 8.78647 -1.94396 12.5
      vertex 8.78647 0 13.3817
      vertex 8.78647 -1.94396 13.3817
    endloop
  endfacet
  facet normal 1 0 0
    outer loop
      vertex 8.78647 0 13.3817
      vertex 8.78647 -1.94396 12.5
      vertex 8.78647 0 11.6183
    endloop
  endfacet
  facet normal 1 0 0
    outer loop
      vertex 8.78647 -4.67182 11.6183
      vertex 8.78647 -1.94396 12.5
      vertex 8.78647 -4.67182 12.5
    endloop
  endfacet
  facet normal 1 0 0
    outer loop
      vertex 8.78647 -1.94396 12.5
      vertex 8.78647 -4.67182 11.6183
      vertex 8.78647 0 11.6183
    endloop
  endfacet
  facet normal 0.306108 0 -0.951997
    outer loop
      vertex 8.78647 0 13.3817
      vertex 8.78958 -1.93473 13.3827
      vertex 8.78647 -1.94396 13.3817
    endloop
  endfacet
  facet normal 0.309097 5.30393e-06 -0.95103
    outer loop
      vertex 8.78958 -1.93473 13.3827
      vertex 8.78647 0 13.3817
      vertex 9 0 13.4511
    endloop
  endfacet
  facet normal 0 1 -0
    outer loop
      vertex 10.4635 0 11.0734
      vertex 9.5 0 12.5
      vertex 11.5 0 12.5
    endloop
  endfacet
  facet normal 0 1 0
    outer loop
      vertex 9.5 0 12.5
      vertex 10.4635 0 11.0734
      vertex 9.5 0 11.3865
    endloop
  endfacet
  facet normal 0 1 0
    outer loop
      vertex 9.5 0 12.5
      vertex 10.4635 0 13.9266
      vertex 11.5 0 12.5
    endloop
  endfacet
  facet normal 0 1 0
    outer loop
      vertex 10.4635 0 13.9266
      vertex 9.5 0 12.5
      vertex 9 0 13.4511
    endloop
  endfacet
  facet normal 0 1 0
    outer loop
      vertex 9 0 13.4511
      vertex 9.5 0 12.5
      vertex 9 0 12.5
    endloop
  endfacet
  facet normal 0 -1 0
    outer loop
      vertex 8.78647 0 13.3817
      vertex 8.78648 0 13.3817
      vertex 9 0 13.4511
    endloop
  endfacet
  facet normal 0 -1 0
    outer loop
      vertex 8.78647 0 13.3817
      vertex 8.78648 0 11.6183
      vertex 8.78648 0 13.3817
    endloop
  endfacet
  facet normal 0 -1 0
    outer loop
      vertex 8.78647 0 11.6183
      vertex 8.78648 0 11.6183
      vertex 8.78647 0 13.3817
    endloop
  endfacet
  facet normal 0 -1 0
    outer loop
      vertex 9.5 0 11.3865
      vertex 8.78648 0 11.6183
      vertex 8.78647 0 11.6183
    endloop
  endfacet
  facet normal 0.309097 5.30393e-06 0.95103
    outer loop
      vertex 8.78647 0 36.6183
      vertex 8.78958 -1.93473 36.6173
      vertex 9 0 36.5489
    endloop
  endfacet
  facet normal 0.306108 0 0.951997
    outer loop
      vertex 8.78958 -1.93473 36.6173
      vertex 8.78647 0 36.6183
      vertex 8.78647 -1.94396 36.6183
    endloop
  endfacet
  facet normal 0.30893 -1.05232e-05 -0.951085
    outer loop
      vertex 8.78647 0 38.3817
      vertex 9.5 -2.94541 38.6135
      vertex 9.13545 -4.06737 38.4951
    endloop
  endfacet
  facet normal 0.30904 0 -0.951049
    outer loop
      vertex 8.78647 0 38.3817
      vertex 9.13545 -4.06737 38.4951
      vertex 8.78647 -4.67182 38.3817
    endloop
  endfacet
  facet normal 0.308969 0 -0.951072
    outer loop
      vertex 9.5 -2.94541 38.6135
      vertex 8.78647 0 38.3817
      vertex 9.5 0 38.6135
    endloop
  endfacet
  facet normal 1 0 0
    outer loop
      vertex 8.78647 0 38.3817
      vertex 8.78647 -1.94396 37.5
      vertex 8.78647 0 36.6183
    endloop
  endfacet
  facet normal 1 -0 0
    outer loop
      vertex 8.78647 -4.67182 38.3817
      vertex 8.78647 -1.94396 37.5
      vertex 8.78647 0 38.3817
    endloop
  endfacet
  facet normal 1 0 0
    outer loop
      vertex 8.78647 -1.94396 37.5
      vertex 8.78647 -4.67182 38.3817
      vertex 8.78647 -4.67182 37.5
    endloop
  endfacet
  facet normal 1 0 0
    outer loop
      vertex 8.78647 0 36.6183
      vertex 8.78647 -1.94396 37.5
      vertex 8.78647 -1.94396 36.6183
    endloop
  endfacet
  facet normal 0 1 0
    outer loop
      vertex 9.5 0 37.5
      vertex 10.4635 0 38.9266
      vertex 11.5 0 37.5
    endloop
  endfacet
  facet normal 0 1 0
    outer loop
      vertex 10.4635 0 38.9266
      vertex 9.5 0 37.5
      vertex 9.5 0 38.6135
    endloop
  endfacet
  facet normal 0 1 -0
    outer loop
      vertex 10.4635 0 36.0734
      vertex 9.5 0 37.5
      vertex 11.5 0 37.5
    endloop
  endfacet
  facet normal -0 1 0
    outer loop
      vertex 9 0 36.5489
      vertex 9.5 0 37.5
      vertex 10.4635 0 36.0734
    endloop
  endfacet
  facet normal 0 1 0
    outer loop
      vertex 9.5 0 37.5
      vertex 9 0 36.5489
      vertex 9 0 37.5
    endloop
  endfacet
  facet normal 0 -1 0
    outer loop
      vertex 8.78647 0 38.3817
      vertex 8.78648 0 38.3817
      vertex 9.5 0 38.6135
    endloop
  endfacet
  facet normal 0 -1 0
    outer loop
      vertex 8.78647 0 38.3817
      vertex 8.78648 0 36.6183
      vertex 8.78648 0 38.3817
    endloop
  endfacet
  facet normal 0 -1 0
    outer loop
      vertex 8.78647 0 36.6183
      vertex 8.78648 0 36.6183
      vertex 8.78647 0 38.3817
    endloop
  endfacet
  facet normal -0 -1 -0
    outer loop
      vertex 8.78648 0 36.6183
      vertex 8.78647 0 36.6183
      vertex 9 0 36.5489
    endloop
  endfacet
  facet normal 0.951057 0.309017 0
    outer loop
      vertex -2.42705 -1.76336 50
      vertex -3 0 25
      vertex -3 0 50
    endloop
  endfacet
  facet normal 0.951057 0.309017 0
    outer loop
      vertex -3 0 25
      vertex -2.42705 -1.76336 50
      vertex -2.42705 -1.76336 25
    endloop
  endfacet
  facet normal -0.587784 -0.809018 0
    outer loop
      vertex 0.927051 2.85317 25
      vertex 2.42705 1.76336 50
      vertex 0.927051 2.85317 50
    endloop
  endfacet
  facet normal -0.587784 -0.809018 -0
    outer loop
      vertex 2.42705 1.76336 50
      vertex 0.927051 2.85317 25
      vertex 2.42705 1.76336 25
    endloop
  endfacet
  facet normal -0.951057 -0.309017 0
    outer loop
      vertex 3 0 25
      vertex 2.42705 1.76336 50
      vertex 2.42705 1.76336 25
    endloop
  endfacet
  facet normal -0.951057 -0.309017 0
    outer loop
      vertex 2.42705 1.76336 50
      vertex 3 0 25
      vertex 3 0 50
    endloop
  endfacet
  facet normal 0 -1 0
    outer loop
      vertex -0.927051 2.85317 25
      vertex 0.927051 2.85317 50
      vertex -0.927051 2.85317 50
    endloop
  endfacet
  facet normal 0 -1 -0
    outer loop
      vertex 0.927051 2.85317 50
      vertex -0.927051 2.85317 25
      vertex 0.927051 2.85317 25
    endloop
  endfacet
  facet normal 0.587784 0.809018 -0
    outer loop
      vertex -0.927051 -2.85317 25
      vertex -2.42705 -1.76336 50
      vertex -0.927051 -2.85317 50
    endloop
  endfacet
  facet normal 0.587784 0.809018 0
    outer loop
      vertex -2.42705 -1.76336 50
      vertex -0.927051 -2.85317 25
      vertex -2.42705 -1.76336 25
    endloop
  endfacet
  facet normal -0.951057 0.309017 0
    outer loop
      vertex 2.42705 -1.76336 25
      vertex 3 0 50
      vertex 3 0 25
    endloop
  endfacet
  facet normal -0.951057 0.309017 0
    outer loop
      vertex 3 0 50
      vertex 2.42705 -1.76336 25
      vertex 2.42705 -1.76336 50
    endloop
  endfacet
  facet normal 0.587784 -0.809018 0
    outer loop
      vertex -2.42705 1.76336 25
      vertex -0.927051 2.85317 50
      vertex -2.42705 1.76336 50
    endloop
  endfacet
  facet normal 0.587784 -0.809018 0
    outer loop
      vertex -0.927051 2.85317 50
      vertex -2.42705 1.76336 25
      vertex -0.927051 2.85317 25
    endloop
  endfacet
  facet normal 0 1 -0
    outer loop
      vertex 0.927051 -2.85317 25
      vertex -0.927051 -2.85317 50
      vertex 0.927051 -2.85317 50
    endloop
  endfacet
  facet normal 0 1 0
    outer loop
      vertex -0.927051 -2.85317 50
      vertex 0.927051 -2.85317 25
      vertex -0.927051 -2.85317 25
    endloop
  endfacet
  facet normal -0.587784 0.809018 0
    outer loop
      vertex 2.42705 -1.76336 25
      vertex 0.927051 -2.85317 50
      vertex 2.42705 -1.76336 50
    endloop
  endfacet
  facet normal -0.587784 0.809018 0
    outer loop
      vertex 0.927051 -2.85317 50
      vertex 2.42705 -1.76336 25
      vertex 0.927051 -2.85317 25
    endloop
  endfacet
  facet normal 0.951057 -0.309017 0
    outer loop
      vertex -3 0 50
      vertex -2.42705 1.76336 25
      vertex -2.42705 1.76336 50
    endloop
  endfacet
  facet normal 0.951057 -0.309017 0
    outer loop
      vertex -2.42705 1.76336 25
      vertex -3 0 50
      vertex -3 0 25
    endloop
  endfacet
  facet normal 0 0 1
    outer loop
      vertex 2.42705 1.76336 25
      vertex 2.42705 -1.76336 25
      vertex 3 0 25
    endloop
  endfacet
  facet normal 0 0 1
    outer loop
      vertex 0.927051 2.85317 25
      vertex 2.42705 -1.76336 25
      vertex 2.42705 1.76336 25
    endloop
  endfacet
  facet normal 0 0 1
    outer loop
      vertex 0.927051 2.85317 25
      vertex 0.927051 -2.85317 25
      vertex 2.42705 -1.76336 25
    endloop
  endfacet
  facet normal -0 0 1
    outer loop
      vertex -0.927051 2.85317 25
      vertex 0.927051 -2.85317 25
      vertex 0.927051 2.85317 25
    endloop
  endfacet
  facet normal 0 0 1
    outer loop
      vertex -0.927051 2.85317 25
      vertex -0.927051 -2.85317 25
      vertex 0.927051 -2.85317 25
    endloop
  endfacet
  facet normal -0 0 1
    outer loop
      vertex -2.42705 1.76336 25
      vertex -0.927051 -2.85317 25
      vertex -0.927051 2.85317 25
    endloop
  endfacet
  facet normal 0 0 1
    outer loop
      vertex -2.42705 1.76336 25
      vertex -2.42705 -1.76336 25
      vertex -0.927051 -2.85317 25
    endloop
  endfacet
  facet normal 0 -0 1
    outer loop
      vertex -2.42705 -1.76336 25
      vertex -2.42705 1.76336 25
      vertex -3 0 25
    endloop
  endfacet
  facet normal -0.309053 0 -0.951045
    outer loop
      vertex 10.4635 -8.5 11.0734
      vertex 9.5 0 11.3865
      vertex 10.4635 0 11.0734
    endloop
  endfacet
  facet normal -0.309019 4.25747e-06 -0.951056
    outer loop
      vertex 8.78648 -8.5 11.6183
      vertex 9.5 0 11.3865
      vertex 10.4635 -8.5 11.0734
    endloop
  endfacet
  facet normal -0.308973 0 -0.951071
    outer loop
      vertex 9.5 0 11.3865
      vertex 8.78648 -8.5 11.6183
      vertex 8.78648 0 11.6183
    endloop
  endfacet
  facet normal -0.309019 0 -0.951056
    outer loop
      vertex 8.78648 -11.5 11.6183
      vertex 10.4635 -10 11.0734
      vertex 10.4635 -11.5 11.0734
    endloop
  endfacet
  facet normal -0.309019 0 -0.951056
    outer loop
      vertex 10.4635 -10 11.0734
      vertex 8.78648 -11.5 11.6183
      vertex 8.78648 -10 11.6183
    endloop
  endfacet
  facet normal -0.309005 0 0.95106
    outer loop
      vertex 9 0 13.4511
      vertex 10.4635 -8.5 13.9266
      vertex 10.4635 0 13.9266
    endloop
  endfacet
  facet normal -0.30911 0 0.951026
    outer loop
      vertex 8.78648 -8.5 13.3817
      vertex 9 0 13.4511
      vertex 8.78648 0 13.3817
    endloop
  endfacet
  facet normal -0.309019 -2.54466e-06 0.951056
    outer loop
      vertex 9 0 13.4511
      vertex 8.78648 -8.5 13.3817
      vertex 10.4635 -8.5 13.9266
    endloop
  endfacet
  facet normal -0.309019 0 0.951056
    outer loop
      vertex 8.78648 -10 13.3817
      vertex 10.4635 -11.5 13.9266
      vertex 10.4635 -10 13.9266
    endloop
  endfacet
  facet normal -0.309019 0 0.951056
    outer loop
      vertex 10.4635 -11.5 13.9266
      vertex 8.78648 -10 13.3817
      vertex 8.78648 -11.5 13.3817
    endloop
  endfacet
  facet normal 0.809013 -0 0.587791
    outer loop
      vertex 10.4635 -8.5 13.9266
      vertex 11.5 0 12.5
      vertex 10.4635 0 13.9266
    endloop
  endfacet
  facet normal 0.809013 0 0.587791
    outer loop
      vertex 11.5 0 12.5
      vertex 10.4635 -8.5 13.9266
      vertex 11.5 -8.5 12.5
    endloop
  endfacet
  facet normal 0.809013 -0 0.587791
    outer loop
      vertex 10.4635 -11.5 13.9266
      vertex 11.5 -10 12.5
      vertex 10.4635 -10 13.9266
    endloop
  endfacet
  facet normal 0.809013 0 0.587791
    outer loop
      vertex 11.5 -10 12.5
      vertex 10.4635 -11.5 13.9266
      vertex 11.5 -11.5 12.5
    endloop
  endfacet
  facet normal -1 0 0
    outer loop
      vertex 8.78648 -8.5 11.6183
      vertex 8.78648 0 13.3817
      vertex 8.78648 0 11.6183
    endloop
  endfacet
  facet normal -1 -0 0
    outer loop
      vertex 8.78648 0 13.3817
      vertex 8.78648 -8.5 11.6183
      vertex 8.78648 -8.5 13.3817
    endloop
  endfacet
  facet normal -1 0 0
    outer loop
      vertex 8.78648 -11.5 11.6183
      vertex 8.78648 -10 13.3817
      vertex 8.78648 -10 11.6183
    endloop
  endfacet
  facet normal -1 -0 0
    outer loop
      vertex 8.78648 -10 13.3817
      vertex 8.78648 -11.5 11.6183
      vertex 8.78648 -11.5 13.3817
    endloop
  endfacet
  facet normal 0.809013 0 -0.587791
    outer loop
      vertex 11.5 -8.5 12.5
      vertex 10.4635 0 11.0734
      vertex 11.5 0 12.5
    endloop
  endfacet
  facet normal 0.809013 0 -0.587791
    outer loop
      vertex 10.4635 0 11.0734
      vertex 11.5 -8.5 12.5
      vertex 10.4635 -8.5 11.0734
    endloop
  endfacet
  facet normal 0.809013 0 -0.587791
    outer loop
      vertex 11.5 -11.5 12.5
      vertex 10.4635 -10 11.0734
      vertex 11.5 -10 12.5
    endloop
  endfacet
  facet normal 0.809013 0 -0.587791
    outer loop
      vertex 10.4635 -10 11.0734
      vertex 11.5 -11.5 12.5
      vertex 10.4635 -11.5 11.0734
    endloop
  endfacet
  facet normal 0 -1 0
    outer loop
      vertex 8.78648 -11.5 13.3817
      vertex 11.5 -11.5 12.5
      vertex 10.4635 -11.5 13.9266
    endloop
  endfacet
  facet normal 0 -1 0
    outer loop
      vertex 8.78648 -11.5 11.6183
      vertex 11.5 -11.5 12.5
      vertex 8.78648 -11.5 13.3817
    endloop
  endfacet
  facet normal 0 -1 0
    outer loop
      vertex 11.5 -11.5 12.5
      vertex 8.78648 -11.5 11.6183
      vertex 10.4635 -11.5 11.0734
    endloop
  endfacet
  facet normal 0 0 -1
    outer loop
      vertex 8.75 -10 10.3349
      vertex 11.25 -8.5 10.3349
      vertex 11.25 -10 10.3349
    endloop
  endfacet
  facet normal -0 0 -1
    outer loop
      vertex 11.25 -8.5 10.3349
      vertex 8.75 -10 10.3349
      vertex 8.75 -8.5 10.3349
    endloop
  endfacet
  facet normal 0.866029 0 -0.499994
    outer loop
      vertex 12.5 -10 12.5
      vertex 11.25 -8.5 10.3349
      vertex 12.5 -8.5 12.5
    endloop
  endfacet
  facet normal 0.866029 0 -0.499994
    outer loop
      vertex 11.25 -8.5 10.3349
      vertex 12.5 -10 12.5
      vertex 11.25 -10 10.3349
    endloop
  endfacet
  facet normal -0 0 1
    outer loop
      vertex 8.75 -8.5 14.6651
      vertex 11.25 -10 14.6651
      vertex 11.25 -8.5 14.6651
    endloop
  endfacet
  facet normal 0 0 1
    outer loop
      vertex 11.25 -10 14.6651
      vertex 8.75 -8.5 14.6651
      vertex 8.75 -10 14.6651
    endloop
  endfacet
  facet normal 0.866029 -0 0.499994
    outer loop
      vertex 11.25 -10 14.6651
      vertex 12.5 -8.5 12.5
      vertex 11.25 -8.5 14.6651
    endloop
  endfacet
  facet normal 0.866029 0 0.499994
    outer loop
      vertex 12.5 -8.5 12.5
      vertex 11.25 -10 14.6651
      vertex 12.5 -10 12.5
    endloop
  endfacet
  facet normal -0.866029 0 0.499994
    outer loop
      vertex 7.5 -10 12.5
      vertex 8.75 -8.5 14.6651
      vertex 7.5 -8.5 12.5
    endloop
  endfacet
  facet normal -0.866029 0 0.499994
    outer loop
      vertex 8.75 -8.5 14.6651
      vertex 7.5 -10 12.5
      vertex 8.75 -10 14.6651
    endloop
  endfacet
  facet normal -0.866029 0 -0.499994
    outer loop
      vertex 8.75 -10 10.3349
      vertex 7.5 -8.5 12.5
      vertex 8.75 -8.5 10.3349
    endloop
  endfacet
  facet normal -0.866029 -0 -0.499994
    outer loop
      vertex 7.5 -8.5 12.5
      vertex 8.75 -10 10.3349
      vertex 7.5 -10 12.5
    endloop
  endfacet
  facet normal 0 -1 0
    outer loop
      vertex 8.75 -10 14.6651
      vertex 10.4635 -10 13.9266
      vertex 11.25 -10 14.6651
    endloop
  endfacet
  facet normal 0 -1 0
    outer loop
      vertex 8.75 -10 14.6651
      vertex 8.78648 -10 13.3817
      vertex 10.4635 -10 13.9266
    endloop
  endfacet
  facet normal 0 -1 0
    outer loop
      vertex 7.5 -10 12.5
      vertex 8.78648 -10 13.3817
      vertex 8.75 -10 14.6651
    endloop
  endfacet
  facet normal 0 -1 0
    outer loop
      vertex 7.5 -10 12.5
      vertex 8.78648 -10 11.6183
      vertex 8.78648 -10 13.3817
    endloop
  endfacet
  facet normal 0 -1 -0
    outer loop
      vertex 8.78648 -10 11.6183
      vertex 8.75 -10 10.3349
      vertex 10.4635 -10 11.0734
    endloop
  endfacet
  facet normal 0 -1 0
    outer loop
      vertex 8.75 -10 10.3349
      vertex 8.78648 -10 11.6183
      vertex 7.5 -10 12.5
    endloop
  endfacet
  facet normal 0 -1 0
    outer loop
      vertex 11.5 -10 12.5
      vertex 11.25 -10 14.6651
      vertex 10.4635 -10 13.9266
    endloop
  endfacet
  facet normal 0 -1 0
    outer loop
      vertex 11.5 -10 12.5
      vertex 12.5 -10 12.5
      vertex 11.25 -10 14.6651
    endloop
  endfacet
  facet normal 0 -1 0
    outer loop
      vertex 11.25 -10 10.3349
      vertex 11.5 -10 12.5
      vertex 10.4635 -10 11.0734
    endloop
  endfacet
  facet normal 0 -1 -0
    outer loop
      vertex 11.5 -10 12.5
      vertex 11.25 -10 10.3349
      vertex 12.5 -10 12.5
    endloop
  endfacet
  facet normal 0 -1 0
    outer loop
      vertex 11.25 -10 10.3349
      vertex 10.4635 -10 11.0734
      vertex 8.75 -10 10.3349
    endloop
  endfacet
  facet normal 0 1 0
    outer loop
      vertex 11.25 -8.5 14.6651
      vertex 10.4635 -8.5 13.9266
      vertex 8.75 -8.5 14.6651
    endloop
  endfacet
  facet normal 0 1 -0
    outer loop
      vertex 11.5 -8.5 12.5
      vertex 11.25 -8.5 14.6651
      vertex 12.5 -8.5 12.5
    endloop
  endfacet
  facet normal 0 1 0
    outer loop
      vertex 11.25 -8.5 14.6651
      vertex 11.5 -8.5 12.5
      vertex 10.4635 -8.5 13.9266
    endloop
  endfacet
  facet normal 0 1 0
    outer loop
      vertex 11.25 -8.5 10.3349
      vertex 11.5 -8.5 12.5
      vertex 12.5 -8.5 12.5
    endloop
  endfacet
  facet normal 0 1 0
    outer loop
      vertex 11.5 -8.5 12.5
      vertex 11.25 -8.5 10.3349
      vertex 10.4635 -8.5 11.0734
    endloop
  endfacet
  facet normal 0 1 -0
    outer loop
      vertex 8.78648 -8.5 13.3817
      vertex 8.75 -8.5 14.6651
      vertex 10.4635 -8.5 13.9266
    endloop
  endfacet
  facet normal 0 1 0
    outer loop
      vertex 8.78648 -8.5 13.3817
      vertex 7.5 -8.5 12.5
      vertex 8.75 -8.5 14.6651
    endloop
  endfacet
  facet normal 0 1 -0
    outer loop
      vertex 8.78648 -8.5 11.6183
      vertex 7.5 -8.5 12.5
      vertex 8.78648 -8.5 13.3817
    endloop
  endfacet
  facet normal 0 1 0
    outer loop
      vertex 8.75 -8.5 10.3349
      vertex 10.4635 -8.5 11.0734
      vertex 11.25 -8.5 10.3349
    endloop
  endfacet
  facet normal 0 1 0
    outer loop
      vertex 8.78648 -8.5 11.6183
      vertex 8.75 -8.5 10.3349
      vertex 7.5 -8.5 12.5
    endloop
  endfacet
  facet normal 0 1 0
    outer loop
      vertex 10.4635 -8.5 11.0734
      vertex 8.75 -8.5 10.3349
      vertex 8.78648 -8.5 11.6183
    endloop
  endfacet
  facet normal -0.309005 0 -0.95106
    outer loop
      vertex 10.4635 -8.5 36.0734
      vertex 9 0 36.5489
      vertex 10.4635 0 36.0734
    endloop
  endfacet
  facet normal -0.309019 -2.54466e-06 -0.951056
    outer loop
      vertex 8.78648 -8.5 36.6183
      vertex 9 0 36.5489
      vertex 10.4635 -8.5 36.0734
    endloop
  endfacet
  facet normal -0.30911 0 -0.951026
    outer loop
      vertex 9 0 36.5489
      vertex 8.78648 -8.5 36.6183
      vertex 8.78648 0 36.6183
    endloop
  endfacet
  facet normal -0.309019 0 -0.951056
    outer loop
      vertex 8.78648 -11.5 36.6183
      vertex 10.4635 -10 36.0734
      vertex 10.4635 -11.5 36.0734
    endloop
  endfacet
  facet normal -0.309019 0 -0.951056
    outer loop
      vertex 10.4635 -10 36.0734
      vertex 8.78648 -11.5 36.6183
      vertex 8.78648 -10 36.6183
    endloop
  endfacet
  facet normal -0.309053 0 0.951045
    outer loop
      vertex 9.5 0 38.6135
      vertex 10.4635 -8.5 38.9266
      vertex 10.4635 0 38.9266
    endloop
  endfacet
  facet normal -0.308973 0 0.951071
    outer loop
      vertex 8.78648 -8.5 38.3817
      vertex 9.5 0 38.6135
      vertex 8.78648 0 38.3817
    endloop
  endfacet
  facet normal -0.309019 4.25747e-06 0.951056
    outer loop
      vertex 9.5 0 38.6135
      vertex 8.78648 -8.5 38.3817
      vertex 10.4635 -8.5 38.9266
    endloop
  endfacet
  facet normal -0.309019 0 0.951056
    outer loop
      vertex 8.78648 -10 38.3817
      vertex 10.4635 -11.5 38.9266
      vertex 10.4635 -10 38.9266
    endloop
  endfacet
  facet normal -0.309019 0 0.951056
    outer loop
      vertex 10.4635 -11.5 38.9266
      vertex 8.78648 -10 38.3817
      vertex 8.78648 -11.5 38.3817
    endloop
  endfacet
  facet normal 0.809013 -0 0.587791
    outer loop
      vertex 10.4635 -8.5 38.9266
      vertex 11.5 0 37.5
      vertex 10.4635 0 38.9266
    endloop
  endfacet
  facet normal 0.809013 0 0.587791
    outer loop
      vertex 11.5 0 37.5
      vertex 10.4635 -8.5 38.9266
      vertex 11.5 -8.5 37.5
    endloop
  endfacet
  facet normal 0.809013 -0 0.587791
    outer loop
      vertex 10.4635 -11.5 38.9266
      vertex 11.5 -10 37.5
      vertex 10.4635 -10 38.9266
    endloop
  endfacet
  facet normal 0.809013 0 0.587791
    outer loop
      vertex 11.5 -10 37.5
      vertex 10.4635 -11.5 38.9266
      vertex 11.5 -11.5 37.5
    endloop
  endfacet
  facet normal -1 0 0
    outer loop
      vertex 8.78648 -8.5 36.6183
      vertex 8.78648 0 38.3817
      vertex 8.78648 0 36.6183
    endloop
  endfacet
  facet normal -1 -0 0
    outer loop
      vertex 8.78648 0 38.3817
      vertex 8.78648 -8.5 36.6183
      vertex 8.78648 -8.5 38.3817
    endloop
  endfacet
  facet normal -1 0 0
    outer loop
      vertex 8.78648 -11.5 36.6183
      vertex 8.78648 -10 38.3817
      vertex 8.78648 -10 36.6183
    endloop
  endfacet
  facet normal -1 -0 0
    outer loop
      vertex 8.78648 -10 38.3817
      vertex 8.78648 -11.5 36.6183
      vertex 8.78648 -11.5 38.3817
    endloop
  endfacet
  facet normal 0.809013 0 -0.587791
    outer loop
      vertex 11.5 -8.5 37.5
      vertex 10.4635 0 36.0734
      vertex 11.5 0 37.5
    endloop
  endfacet
  facet normal 0.809013 0 -0.587791
    outer loop
      vertex 10.4635 0 36.0734
      vertex 11.5 -8.5 37.5
      vertex 10.4635 -8.5 36.0734
    endloop
  endfacet
  facet normal 0.809013 0 -0.587791
    outer loop
      vertex 11.5 -11.5 37.5
      vertex 10.4635 -10 36.0734
      vertex 11.5 -10 37.5
    endloop
  endfacet
  facet normal 0.809013 0 -0.587791
    outer loop
      vertex 10.4635 -10 36.0734
      vertex 11.5 -11.5 37.5
      vertex 10.4635 -11.5 36.0734
    endloop
  endfacet
  facet normal 0 -1 0
    outer loop
      vertex 8.78648 -11.5 38.3817
      vertex 11.5 -11.5 37.5
      vertex 10.4635 -11.5 38.9266
    endloop
  endfacet
  facet normal 0 -1 0
    outer loop
      vertex 8.78648 -11.5 36.6183
      vertex 11.5 -11.5 37.5
      vertex 8.78648 -11.5 38.3817
    endloop
  endfacet
  facet normal 0 -1 0
    outer loop
      vertex 11.5 -11.5 37.5
      vertex 8.78648 -11.5 36.6183
      vertex 10.4635 -11.5 36.0734
    endloop
  endfacet
  facet normal 0 0 -1
    outer loop
      vertex 8.75 -10 35.3349
      vertex 11.25 -8.5 35.3349
      vertex 11.25 -10 35.3349
    endloop
  endfacet
  facet normal -0 0 -1
    outer loop
      vertex 11.25 -8.5 35.3349
      vertex 8.75 -10 35.3349
      vertex 8.75 -8.5 35.3349
    endloop
  endfacet
  facet normal 0.866029 0 -0.499994
    outer loop
      vertex 12.5 -10 37.5
      vertex 11.25 -8.5 35.3349
      vertex 12.5 -8.5 37.5
    endloop
  endfacet
  facet normal 0.866029 0 -0.499994
    outer loop
      vertex 11.25 -8.5 35.3349
      vertex 12.5 -10 37.5
      vertex 11.25 -10 35.3349
    endloop
  endfacet
  facet normal -0 0 1
    outer loop
      vertex 8.75 -8.5 39.6651
      vertex 11.25 -10 39.6651
      vertex 11.25 -8.5 39.6651
    endloop
  endfacet
  facet normal 0 0 1
    outer loop
      vertex 11.25 -10 39.6651
      vertex 8.75 -8.5 39.6651
      vertex 8.75 -10 39.6651
    endloop
  endfacet
  facet normal 0.866029 -0 0.499994
    outer loop
      vertex 11.25 -10 39.6651
      vertex 12.5 -8.5 37.5
      vertex 11.25 -8.5 39.6651
    endloop
  endfacet
  facet normal 0.866029 0 0.499994
    outer loop
      vertex 12.5 -8.5 37.5
      vertex 11.25 -10 39.6651
      vertex 12.5 -10 37.5
    endloop
  endfacet
  facet normal -0.866029 0 0.499994
    outer loop
      vertex 7.5 -10 37.5
      vertex 8.75 -8.5 39.6651
      vertex 7.5 -8.5 37.5
    endloop
  endfacet
  facet normal -0.866029 0 0.499994
    outer loop
      vertex 8.75 -8.5 39.6651
      vertex 7.5 -10 37.5
      vertex 8.75 -10 39.6651
    endloop
  endfacet
  facet normal -0.866029 0 -0.499994
    outer loop
      vertex 8.75 -10 35.3349
      vertex 7.5 -8.5 37.5
      vertex 8.75 -8.5 35.3349
    endloop
  endfacet
  facet normal -0.866029 -0 -0.499994
    outer loop
      vertex 7.5 -8.5 37.5
      vertex 8.75 -10 35.3349
      vertex 7.5 -10 37.5
    endloop
  endfacet
  facet normal 0 -1 0
    outer loop
      vertex 8.75 -10 39.6651
      vertex 10.4635 -10 38.9266
      vertex 11.25 -10 39.6651
    endloop
  endfacet
  facet normal 0 -1 0
    outer loop
      vertex 8.75 -10 39.6651
      vertex 8.78648 -10 38.3817
      vertex 10.4635 -10 38.9266
    endloop
  endfacet
  facet normal 0 -1 0
    outer loop
      vertex 7.5 -10 37.5
      vertex 8.78648 -10 38.3817
      vertex 8.75 -10 39.6651
    endloop
  endfacet
  facet normal 0 -1 0
    outer loop
      vertex 7.5 -10 37.5
      vertex 8.78648 -10 36.6183
      vertex 8.78648 -10 38.3817
    endloop
  endfacet
  facet normal 0 -1 -0
    outer loop
      vertex 8.78648 -10 36.6183
      vertex 8.75 -10 35.3349
      vertex 10.4635 -10 36.0734
    endloop
  endfacet
  facet normal 0 -1 0
    outer loop
      vertex 8.75 -10 35.3349
      vertex 8.78648 -10 36.6183
      vertex 7.5 -10 37.5
    endloop
  endfacet
  facet normal 0 -1 0
    outer loop
      vertex 11.5 -10 37.5
      vertex 11.25 -10 39.6651
      vertex 10.4635 -10 38.9266
    endloop
  endfacet
  facet normal 0 -1 0
    outer loop
      vertex 11.5 -10 37.5
      vertex 12.5 -10 37.5
      vertex 11.25 -10 39.6651
    endloop
  endfacet
  facet normal 0 -1 0
    outer loop
      vertex 11.25 -10 35.3349
      vertex 11.5 -10 37.5
      vertex 10.4635 -10 36.0734
    endloop
  endfacet
  facet normal 0 -1 -0
    outer loop
      vertex 11.5 -10 37.5
      vertex 11.25 -10 35.3349
      vertex 12.5 -10 37.5
    endloop
  endfacet
  facet normal 0 -1 0
    outer loop
      vertex 11.25 -10 35.3349
      vertex 10.4635 -10 36.0734
      vertex 8.75 -10 35.3349
    endloop
  endfacet
  facet normal 0 1 0
    outer loop
      vertex 11.25 -8.5 39.6651
      vertex 10.4635 -8.5 38.9266
      vertex 8.75 -8.5 39.6651
    endloop
  endfacet
  facet normal 0 1 -0
    outer loop
      vertex 11.5 -8.5 37.5
      vertex 11.25 -8.5 39.6651
      vertex 12.5 -8.5 37.5
    endloop
  endfacet
  facet normal 0 1 0
    outer loop
      vertex 11.25 -8.5 39.6651
      vertex 11.5 -8.5 37.5
      vertex 10.4635 -8.5 38.9266
    endloop
  endfacet
  facet normal 0 1 0
    outer loop
      vertex 11.25 -8.5 35.3349
      vertex 11.5 -8.5 37.5
      vertex 12.5 -8.5 37.5
    endloop
  endfacet
  facet normal 0 1 0
    outer loop
      vertex 11.5 -8.5 37.5
      vertex 11.25 -8.5 35.3349
      vertex 10.4635 -8.5 36.0734
    endloop
  endfacet
  facet normal 0 1 -0
    outer loop
      vertex 8.78648 -8.5 38.3817
      vertex 8.75 -8.5 39.6651
      vertex 10.4635 -8.5 38.9266
    endloop
  endfacet
  facet normal 0 1 0
    outer loop
      vertex 8.78648 -8.5 38.3817
      vertex 7.5 -8.5 37.5
      vertex 8.75 -8.5 39.6651
    endloop
  endfacet
  facet normal 0 1 -0
    outer loop
      vertex 8.78648 -8.5 36.6183
      vertex 7.5 -8.5 37.5
      vertex 8.78648 -8.5 38.3817
    endloop
  endfacet
  facet normal 0 1 0
    outer loop
      vertex 8.75 -8.5 35.3349
      vertex 10.4635 -8.5 36.0734
      vertex 11.25 -8.5 35.3349
    endloop
  endfacet
  facet normal 0 1 0
    outer loop
      vertex 8.78648 -8.5 36.6183
      vertex 8.75 -8.5 35.3349
      vertex 7.5 -8.5 37.5
    endloop
  endfacet
  facet normal 0 1 0
    outer loop
      vertex 10.4635 -8.5 36.0734
      vertex 8.75 -8.5 35.3349
      vertex 8.78648 -8.5 36.6183
    endloop
  endfacet
endsolid OpenSCAD_Model
