solid OpenSCAD_Model
  facet normal -0 0 1
    outer loop
      vertex 10 35 10
      vertex 130 15 10
      vertex 130 35 10
    endloop
  endfacet
  facet normal 0 0 1
    outer loop
      vertex 130 15 10
      vertex 10 35 10
      vertex 10 15 10
    endloop
  endfacet
  facet normal 0 0 -1
    outer loop
      vertex 10 15 0
      vertex 130 35 0
      vertex 130 15 0
    endloop
  endfacet
  facet normal -0 0 -1
    outer loop
      vertex 130 35 0
      vertex 10 15 0
      vertex 10 35 0
    endloop
  endfacet
  facet normal 0 -1 0
    outer loop
      vertex 10 15 0
      vertex 130 15 10
      vertex 10 15 10
    endloop
  endfacet
  facet normal 0 -1 -0
    outer loop
      vertex 130 15 10
      vertex 10 15 0
      vertex 130 15 0
    endloop
  endfacet
  facet normal 1 -0 0
    outer loop
      vertex 130 15 10
      vertex 130 35 0
      vertex 130 35 10
    endloop
  endfacet
  facet normal 1 0 0
    outer loop
      vertex 130 35 0
      vertex 130 15 10
      vertex 130 15 0
    endloop
  endfacet
  facet normal 0 1 -0
    outer loop
      vertex 130 35 0
      vertex 10 35 10
      vertex 130 35 10
    endloop
  endfacet
  facet normal 0 1 0
    outer loop
      vertex 10 35 10
      vertex 130 35 0
      vertex 10 35 0
    endloop
  endfacet
  facet normal -1 0 0
    outer loop
      vertex 10 15 0
      vertex 10 35 10
      vertex 10 35 0
    endloop
  endfacet
  facet normal -1 -0 0
    outer loop
      vertex 10 35 10
      vertex 10 15 0
      vertex 10 15 10
    endloop
  endfacet
endsolid OpenSCAD_Model
