solid OpenSCAD_Model
  facet normal 1 -0 0
    outer loop
      vertex 10 0 10
      vertex 10 10 0
      vertex 10 10 10
    endloop
  endfacet
  facet normal 1 0 0
    outer loop
      vertex 10 10 0
      vertex 10 0 10
      vertex 10 0 0
    endloop
  endfacet
  facet normal -0 0 1
    outer loop
      vertex 0 10 10
      vertex 10 0 10
      vertex 10 10 10
    endloop
  endfacet
  facet normal 0 0 1
    outer loop
      vertex 10 0 10
      vertex 0 10 10
      vertex 0 0 10
    endloop
  endfacet
  facet normal 0 0 -1
    outer loop
      vertex 4.53064 1.87665 0
      vertex 10 0 0
      vertex 4.90393 0 0
    endloop
  endfacet
  facet normal 0 0 -1
    outer loop
      vertex 10 0 0
      vertex 4.53064 1.87665 0
      vertex 10 10 0
    endloop
  endfacet
  facet normal 0 0 -1
    outer loop
      vertex 3.4676 3.4676 0
      vertex 10 10 0
      vertex 4.53064 1.87665 0
    endloop
  endfacet
  facet normal 0 0 -1
    outer loop
      vertex 1.87665 4.53064 0
      vertex 10 10 0
      vertex 3.4676 3.4676 0
    endloop
  endfacet
  facet normal 0 0 -1
    outer loop
      vertex 0 10 0
      vertex 1.87665 4.53064 0
      vertex 0 4.90393 0
    endloop
  endfacet
  facet normal 0 0 -1
    outer loop
      vertex 1.87665 4.53064 0
      vertex 0 10 0
      vertex 10 10 0
    endloop
  endfacet
  facet normal -1 0 0
    outer loop
      vertex 0 4.90393 0.975451
      vertex 0 10 0
      vertex 0 4.90393 0
    endloop
  endfacet
  facet normal -1 0 0
    outer loop
      vertex 0 4.15735 2.77785
      vertex 0 10 0
      vertex 0 4.90393 0.975451
    endloop
  endfacet
  facet normal -1 0 0
    outer loop
      vertex 0 10 0
      vertex 0 4.15735 2.77785
      vertex 0 10 10
    endloop
  endfacet
  facet normal -1 0 0
    outer loop
      vertex 0 2.77785 4.15735
      vertex 0 10 10
      vertex 0 4.15735 2.77785
    endloop
  endfacet
  facet normal -1 0 0
    outer loop
      vertex 0 0 10
      vertex 0 2.77785 4.15735
      vertex 0 0.975451 4.90393
    endloop
  endfacet
  facet normal -1 0 0
    outer loop
      vertex 0 0 10
      vertex 0 0.975451 4.90393
      vertex 0 0 4.90393
    endloop
  endfacet
  facet normal -1 0 0
    outer loop
      vertex 0 2.77785 4.15735
      vertex 0 0 10
      vertex 0 10 10
    endloop
  endfacet
  facet normal 0 1 -0
    outer loop
      vertex 10 10 0
      vertex 0 10 10
      vertex 10 10 10
    endloop
  endfacet
  facet normal 0 1 0
    outer loop
      vertex 0 10 10
      vertex 10 10 0
      vertex 0 10 0
    endloop
  endfacet
  facet normal 0 -1 0
    outer loop
      vertex 0.975451 0 4.90393
      vertex 0 0 10
      vertex 0 0 4.90393
    endloop
  endfacet
  facet normal 0 -1 0
    outer loop
      vertex 2.77785 0 4.15735
      vertex 0 0 10
      vertex 0.975451 0 4.90393
    endloop
  endfacet
  facet normal 0 -1 0
    outer loop
      vertex 0 0 10
      vertex 2.77785 0 4.15735
      vertex 10 0 10
    endloop
  endfacet
  facet normal 0 -1 0
    outer loop
      vertex 4.15735 0 2.77785
      vertex 10 0 10
      vertex 2.77785 0 4.15735
    endloop
  endfacet
  facet normal 0 -1 0
    outer loop
      vertex 10 0 0
      vertex 4.15735 0 2.77785
      vertex 4.90393 0 0.975451
    endloop
  endfacet
  facet normal 0 -1 0
    outer loop
      vertex 10 0 0
      vertex 4.90393 0 0.975451
      vertex 4.90393 0 0
    endloop
  endfacet
  facet normal 0 -1 0
    outer loop
      vertex 4.15735 0 2.77785
      vertex 10 0 0
      vertex 10 0 10
    endloop
  endfacet
  facet normal -0.908663 -0.180745 0.376381
    outer loop
      vertex -4.15735 0 2.77785
      vertex -4.90393 0 0.975451
      vertex -4.53064 -1.87665 0.975451
    endloop
  endfacet
  facet normal -0.38158 -0.0759004 0.921214
    outer loop
      vertex -0.975451 0 4.90393
      vertex -2.77785 0 4.15735
      vertex -2.5664 -1.06304 4.15735
    endloop
  endfacet
  facet normal -0.770327 -0.514717 0.37638
    outer loop
      vertex -2.93969 -2.93969 2.77785
      vertex -4.53064 -1.87665 0.975451
      vertex -3.4676 -3.4676 0.975451
    endloop
  endfacet
  facet normal -0.139281 0.700214 0.700214
    outer loop
      vertex 0 4.15735 2.77785
      vertex -1.59095 3.84089 2.77785
      vertex 0 2.77785 4.15735
    endloop
  endfacet
  facet normal -0.216147 0.323488 -0.921214
    outer loop
      vertex -0.689748 0.689748 -4.90393
      vertex -1.96424 1.96424 -4.15735
      vertex -0.373289 0.901199 -4.90393
    endloop
  endfacet
  facet normal -0.139281 0.700214 -0.700214
    outer loop
      vertex 0 2.77785 -4.15735
      vertex -1.59095 3.84089 -2.77785
      vertex 0 4.15735 -2.77785
    endloop
  endfacet
  facet normal -0.139281 -0.700214 -0.700214
    outer loop
      vertex 0 -4.15735 -2.77785
      vertex -1.59095 -3.84089 -2.77785
      vertex 0 -2.77785 -4.15735
    endloop
  endfacet
  facet normal 0.216147 -0.323488 0.921214
    outer loop
      vertex 0.689748 -0.689748 4.90393
      vertex 0.373289 -0.901199 4.90393
      vertex 1.96424 -1.96424 4.15735
    endloop
  endfacet
  facet normal 0.908663 -0.180745 0.376381
    outer loop
      vertex 4.15735 0 2.77785
      vertex 3.84089 -1.59095 2.77785
      vertex 4.53064 -1.87665 0.975451
    endloop
  endfacet
  facet normal -0.980785 -0.195091 0
    outer loop
      vertex -4.53064 -1.87665 -0.975451
      vertex -4.90393 0 0.975451
      vertex -4.90393 0 -0.975451
    endloop
  endfacet
  facet normal -0.980785 -0.195091 0
    outer loop
      vertex -4.90393 0 0.975451
      vertex -4.53064 -1.87665 -0.975451
      vertex -4.53064 -1.87665 0.975451
    endloop
  endfacet
  facet normal -0.908663 -0.180745 0.376381
    outer loop
      vertex -4.15735 0 2.77785
      vertex -4.53064 -1.87665 0.975451
      vertex -3.84089 -1.59095 2.77785
    endloop
  endfacet
  facet normal 0.770327 -0.514717 0.37638
    outer loop
      vertex 4.53064 -1.87665 0.975451
      vertex 2.93969 -2.93969 2.77785
      vertex 3.4676 -3.4676 0.975451
    endloop
  endfacet
  facet normal -0.0759004 0.38158 -0.921214
    outer loop
      vertex 0 0.975451 -4.90393
      vertex -1.06304 2.5664 -4.15735
      vertex 0 2.77785 -4.15735
    endloop
  endfacet
  facet normal 0.980785 0.195091 0
    outer loop
      vertex 4.90393 0 0
      vertex 4.53064 1.87665 -0.975451
      vertex 4.53064 1.87665 0
    endloop
  endfacet
  facet normal 0.980785 0.195091 0
    outer loop
      vertex 4.53064 1.87665 -0.975451
      vertex 4.90393 0 0
      vertex 4.90393 0 -0.975451
    endloop
  endfacet
  facet normal 0.180745 -0.908663 -0.376381
    outer loop
      vertex 1.87665 -4.53064 -0.975451
      vertex 0 -4.90393 -0.975451
      vertex 0 -4.15735 -2.77785
    endloop
  endfacet
  facet normal 0.216147 -0.323488 -0.921214
    outer loop
      vertex 1.96424 -1.96424 -4.15735
      vertex 0.373289 -0.901199 -4.90393
      vertex 0.689748 -0.689748 -4.90393
    endloop
  endfacet
  facet normal 0.593614 -0.396639 0.700214
    outer loop
      vertex 2.5664 -1.06304 4.15735
      vertex 1.96424 -1.96424 4.15735
      vertex 3.84089 -1.59095 2.77785
    endloop
  endfacet
  facet normal -0.908663 0.180745 -0.376381
    outer loop
      vertex -4.15735 0 -2.77785
      vertex -4.90393 0 -0.975451
      vertex -4.53064 1.87665 -0.975451
    endloop
  endfacet
  facet normal -0.593614 -0.396639 0.700214
    outer loop
      vertex -2.5664 -1.06304 4.15735
      vertex -3.84089 -1.59095 2.77785
      vertex -1.96424 -1.96424 4.15735
    endloop
  endfacet
  facet normal -0.0759012 -0.38158 0.921214
    outer loop
      vertex -0.373289 -0.901199 4.90393
      vertex -1.06304 -2.5664 4.15735
      vertex 0 -0.975451 4.90393
    endloop
  endfacet
  facet normal -0.13928 0.700215 -0.700214
    outer loop
      vertex -1.06304 2.5664 -4.15735
      vertex -1.59095 3.84089 -2.77785
      vertex 0 2.77785 -4.15735
    endloop
  endfacet
  facet normal -0.216147 -0.323488 0.921214
    outer loop
      vertex -0.689748 -0.689748 4.90393
      vertex -1.96424 -1.96424 4.15735
      vertex -0.373289 -0.901199 4.90393
    endloop
  endfacet
  facet normal 0.770327 -0.514717 -0.376381
    outer loop
      vertex 4.53064 -1.87665 -0.975451
      vertex 2.93969 -2.93969 -2.77785
      vertex 3.84089 -1.59095 -2.77785
    endloop
  endfacet
  facet normal 0.700214 -0.139281 0.700214
    outer loop
      vertex 4.15735 0 2.77785
      vertex 2.77785 0 4.15735
      vertex 3.84089 -1.59095 2.77785
    endloop
  endfacet
  facet normal -0.38158 -0.0759012 0.921214
    outer loop
      vertex -0.975451 0 4.90393
      vertex -2.5664 -1.06304 4.15735
      vertex -0.901199 -0.373289 4.90393
    endloop
  endfacet
  facet normal 0.908663 -0.180745 -0.376381
    outer loop
      vertex 4.53064 -1.87665 -0.975451
      vertex 3.84089 -1.59095 -2.77785
      vertex 4.15735 0 -2.77785
    endloop
  endfacet
  facet normal -0.700214 -0.139281 -0.700214
    outer loop
      vertex -3.84089 -1.59095 -2.77785
      vertex -4.15735 0 -2.77785
      vertex -2.77785 0 -4.15735
    endloop
  endfacet
  facet normal -0.700214 0.139281 -0.700214
    outer loop
      vertex -2.77785 0 -4.15735
      vertex -4.15735 0 -2.77785
      vertex -3.84089 1.59095 -2.77785
    endloop
  endfacet
  facet normal -0.38158 0.0759004 0.921214
    outer loop
      vertex -2.5664 1.06304 4.15735
      vertex -2.77785 0 4.15735
      vertex -0.975451 0 4.90393
    endloop
  endfacet
  facet normal -0.555571 0.831469 0
    outer loop
      vertex -1.87665 4.53064 -0.975451
      vertex -3.4676 3.4676 0.975451
      vertex -1.87665 4.53064 0.975451
    endloop
  endfacet
  facet normal -0.555571 0.831469 0
    outer loop
      vertex -3.4676 3.4676 0.975451
      vertex -1.87665 4.53064 -0.975451
      vertex -3.4676 3.4676 -0.975451
    endloop
  endfacet
  facet normal 0.770327 0.514717 -0.37638
    outer loop
      vertex 4.53064 1.87665 -0.975451
      vertex 2.93969 2.93969 -2.77785
      vertex 3.4676 3.4676 -0.975451
    endloop
  endfacet
  facet normal -0.180745 0.908663 -0.376381
    outer loop
      vertex -1.59095 3.84089 -2.77785
      vertex -1.87665 4.53064 -0.975451
      vertex 0 4.15735 -2.77785
    endloop
  endfacet
  facet normal -0.831469 0.555571 0
    outer loop
      vertex -4.53064 1.87665 -0.975451
      vertex -3.4676 3.4676 0.975451
      vertex -3.4676 3.4676 -0.975451
    endloop
  endfacet
  facet normal -0.831469 0.555571 0
    outer loop
      vertex -3.4676 3.4676 0.975451
      vertex -4.53064 1.87665 -0.975451
      vertex -4.53064 1.87665 0.975451
    endloop
  endfacet
  facet normal -0.908663 0.180745 0.376381
    outer loop
      vertex -3.84089 1.59095 2.77785
      vertex -4.53064 1.87665 0.975451
      vertex -4.15735 0 2.77785
    endloop
  endfacet
  facet normal -0.13928 0.700215 0.700214
    outer loop
      vertex 0 2.77785 4.15735
      vertex -1.59095 3.84089 2.77785
      vertex -1.06304 2.5664 4.15735
    endloop
  endfacet
  facet normal 0.514717 0.770327 -0.37638
    outer loop
      vertex 2.93969 2.93969 -2.77785
      vertex 1.87665 4.53064 -0.975451
      vertex 3.4676 3.4676 -0.975451
    endloop
  endfacet
  facet normal -0.180745 -0.908663 0.376381
    outer loop
      vertex -1.59095 -3.84089 2.77785
      vertex -1.87665 -4.53064 0.975451
      vertex 0 -4.15735 2.77785
    endloop
  endfacet
  facet normal 0.323488 -0.216147 0.921214
    outer loop
      vertex 2.5664 -1.06304 4.15735
      vertex 0.901199 -0.373289 4.90393
      vertex 1.96424 -1.96424 4.15735
    endloop
  endfacet
  facet normal -0.396639 -0.593614 0.700214
    outer loop
      vertex -1.06304 -2.5664 4.15735
      vertex -1.96424 -1.96424 4.15735
      vertex -1.59095 -3.84089 2.77785
    endloop
  endfacet
  facet normal -0.555571 -0.831469 0
    outer loop
      vertex -3.4676 -3.4676 -0.975451
      vertex -1.87665 -4.53064 0.975451
      vertex -3.4676 -3.4676 0.975451
    endloop
  endfacet
  facet normal -0.555571 -0.831469 -0
    outer loop
      vertex -1.87665 -4.53064 0.975451
      vertex -3.4676 -3.4676 -0.975451
      vertex -1.87665 -4.53064 -0.975451
    endloop
  endfacet
  facet normal 0.700214 0.139281 -0.700214
    outer loop
      vertex 4.15735 0 -2.77785
      vertex 2.77785 0 -4.15735
      vertex 3.84089 1.59095 -2.77785
    endloop
  endfacet
  facet normal 0.980785 -0.195091 0
    outer loop
      vertex 4.53064 -1.87665 0.975451
      vertex 4.90393 0 0
      vertex 4.90393 0 0.975451
    endloop
  endfacet
  facet normal 0.980785 -0.195091 0
    outer loop
      vertex 4.53064 -1.87665 -0.975451
      vertex 4.90393 0 0
      vertex 4.53064 -1.87665 0.975451
    endloop
  endfacet
  facet normal 0.980785 -0.195091 0
    outer loop
      vertex 4.90393 0 0
      vertex 4.53064 -1.87665 -0.975451
      vertex 4.90393 0 -0.975451
    endloop
  endfacet
  facet normal 0.38158 -0.0759012 -0.921214
    outer loop
      vertex 2.5664 -1.06304 -4.15735
      vertex 0.901199 -0.373289 -4.90393
      vertex 0.975451 0 -4.90393
    endloop
  endfacet
  facet normal 0.323488 -0.216147 -0.921214
    outer loop
      vertex 1.96424 -1.96424 -4.15735
      vertex 0.689748 -0.689748 -4.90393
      vertex 0.901199 -0.373289 -4.90393
    endloop
  endfacet
  facet normal 0.770327 -0.514717 -0.37638
    outer loop
      vertex 3.4676 -3.4676 -0.975451
      vertex 2.93969 -2.93969 -2.77785
      vertex 4.53064 -1.87665 -0.975451
    endloop
  endfacet
  facet normal 0.514717 -0.770327 -0.37638
    outer loop
      vertex 3.4676 -3.4676 -0.975451
      vertex 1.87665 -4.53064 -0.975451
      vertex 2.93969 -2.93969 -2.77785
    endloop
  endfacet
  facet normal -0.593614 -0.396639 -0.700214
    outer loop
      vertex -1.96424 -1.96424 -4.15735
      vertex -3.84089 -1.59095 -2.77785
      vertex -2.5664 -1.06304 -4.15735
    endloop
  endfacet
  facet normal 0.0759012 -0.38158 -0.921214
    outer loop
      vertex 1.06304 -2.5664 -4.15735
      vertex 0 -0.975451 -4.90393
      vertex 0.373289 -0.901199 -4.90393
    endloop
  endfacet
  facet normal -0.980785 0.195091 0
    outer loop
      vertex -4.90393 0 -0.975451
      vertex -4.53064 1.87665 0.975451
      vertex -4.53064 1.87665 -0.975451
    endloop
  endfacet
  facet normal -0.980785 0.195091 0
    outer loop
      vertex -4.53064 1.87665 0.975451
      vertex -4.90393 0 -0.975451
      vertex -4.90393 0 0.975451
    endloop
  endfacet
  facet normal -0.180745 -0.908663 -0.376381
    outer loop
      vertex 0 -4.90393 -0.975451
      vertex -1.87665 -4.53064 -0.975451
      vertex 0 -4.15735 -2.77785
    endloop
  endfacet
  facet normal -0.908663 0.180745 0.376381
    outer loop
      vertex -4.53064 1.87665 0.975451
      vertex -4.90393 0 0.975451
      vertex -4.15735 0 2.77785
    endloop
  endfacet
  facet normal -0.700214 0.139281 0.700214
    outer loop
      vertex -3.84089 1.59095 2.77785
      vertex -4.15735 0 2.77785
      vertex -2.77785 0 4.15735
    endloop
  endfacet
  facet normal 0.908663 -0.180745 -0.376381
    outer loop
      vertex 4.53064 -1.87665 -0.975451
      vertex 4.15735 0 -2.77785
      vertex 4.90393 0 -0.975451
    endloop
  endfacet
  facet normal 0.180745 0.908663 -0.376381
    outer loop
      vertex 1.59095 3.84089 -2.77785
      vertex 0 4.15735 -2.77785
      vertex 1.87665 4.53064 -0.975451
    endloop
  endfacet
  facet normal 0.555571 0.831469 -0
    outer loop
      vertex 3.4676 3.4676 -0.975451
      vertex 1.87665 4.53064 0
      vertex 3.4676 3.4676 0
    endloop
  endfacet
  facet normal 0.555571 0.831469 0
    outer loop
      vertex 1.87665 4.53064 0
      vertex 3.4676 3.4676 -0.975451
      vertex 1.87665 4.53064 -0.975451
    endloop
  endfacet
  facet normal -0.514717 0.770327 -0.376381
    outer loop
      vertex -1.59095 3.84089 -2.77785
      vertex -2.93969 2.93969 -2.77785
      vertex -1.87665 4.53064 -0.975451
    endloop
  endfacet
  facet normal -0.770327 0.514717 -0.376381
    outer loop
      vertex -3.84089 1.59095 -2.77785
      vertex -4.53064 1.87665 -0.975451
      vertex -2.93969 2.93969 -2.77785
    endloop
  endfacet
  facet normal 0.514717 0.770327 -0.376381
    outer loop
      vertex 2.93969 2.93969 -2.77785
      vertex 1.59095 3.84089 -2.77785
      vertex 1.87665 4.53064 -0.975451
    endloop
  endfacet
  facet normal -0.180745 0.908663 -0.376381
    outer loop
      vertex 0 4.15735 -2.77785
      vertex -1.87665 4.53064 -0.975451
      vertex 0 4.90393 -0.975451
    endloop
  endfacet
  facet normal 0.770327 -0.514717 0.376381
    outer loop
      vertex 3.84089 -1.59095 2.77785
      vertex 2.93969 -2.93969 2.77785
      vertex 4.53064 -1.87665 0.975451
    endloop
  endfacet
  facet normal 0.216147 -0.323488 0.921214
    outer loop
      vertex 1.96424 -1.96424 4.15735
      vertex 0.373289 -0.901199 4.90393
      vertex 1.06304 -2.5664 4.15735
    endloop
  endfacet
  facet normal 0.700215 -0.13928 0.700214
    outer loop
      vertex 2.77785 0 4.15735
      vertex 2.5664 -1.06304 4.15735
      vertex 3.84089 -1.59095 2.77785
    endloop
  endfacet
  facet normal 0.38158 -0.0759004 0.921214
    outer loop
      vertex 2.77785 0 4.15735
      vertex 0.975451 0 4.90393
      vertex 2.5664 -1.06304 4.15735
    endloop
  endfacet
  facet normal -0.180745 -0.908663 0.376381
    outer loop
      vertex 0 -4.15735 2.77785
      vertex -1.87665 -4.53064 0.975451
      vertex 0 -4.90393 0.975451
    endloop
  endfacet
  facet normal -0.831469 -0.555571 0
    outer loop
      vertex -3.4676 -3.4676 -0.975451
      vertex -4.53064 -1.87665 0.975451
      vertex -4.53064 -1.87665 -0.975451
    endloop
  endfacet
  facet normal -0.831469 -0.555571 0
    outer loop
      vertex -4.53064 -1.87665 0.975451
      vertex -3.4676 -3.4676 -0.975451
      vertex -3.4676 -3.4676 0.975451
    endloop
  endfacet
  facet normal 0.514717 -0.770327 0.37638
    outer loop
      vertex 2.93969 -2.93969 2.77785
      vertex 1.87665 -4.53064 0.975451
      vertex 3.4676 -3.4676 0.975451
    endloop
  endfacet
  facet normal 0.908663 -0.180745 0.376381
    outer loop
      vertex 4.90393 0 0.975451
      vertex 4.15735 0 2.77785
      vertex 4.53064 -1.87665 0.975451
    endloop
  endfacet
  facet normal 0.323488 -0.216147 -0.921214
    outer loop
      vertex 1.96424 -1.96424 -4.15735
      vertex 0.901199 -0.373289 -4.90393
      vertex 2.5664 -1.06304 -4.15735
    endloop
  endfacet
  facet normal 0.700214 -0.139281 -0.700214
    outer loop
      vertex 3.84089 -1.59095 -2.77785
      vertex 2.77785 0 -4.15735
      vertex 4.15735 0 -2.77785
    endloop
  endfacet
  facet normal 0.396641 -0.593614 -0.700213
    outer loop
      vertex 2.93969 -2.93969 -2.77785
      vertex 1.59095 -3.84089 -2.77785
      vertex 1.96424 -1.96424 -4.15735
    endloop
  endfacet
  facet normal 0.908663 0.180745 -0.376381
    outer loop
      vertex 4.90393 0 -0.975451
      vertex 4.15735 0 -2.77785
      vertex 4.53064 1.87665 -0.975451
    endloop
  endfacet
  facet normal -0.195091 -0.980785 0
    outer loop
      vertex -1.87665 -4.53064 -0.975451
      vertex 0 -4.90393 0.975451
      vertex -1.87665 -4.53064 0.975451
    endloop
  endfacet
  facet normal -0.195091 -0.980785 -0
    outer loop
      vertex 0 -4.90393 0.975451
      vertex -1.87665 -4.53064 -0.975451
      vertex 0 -4.90393 -0.975451
    endloop
  endfacet
  facet normal 0.514717 -0.770327 -0.376381
    outer loop
      vertex 1.87665 -4.53064 -0.975451
      vertex 1.59095 -3.84089 -2.77785
      vertex 2.93969 -2.93969 -2.77785
    endloop
  endfacet
  facet normal 0.180745 -0.908663 -0.376381
    outer loop
      vertex 1.87665 -4.53064 -0.975451
      vertex 0 -4.15735 -2.77785
      vertex 1.59095 -3.84089 -2.77785
    endloop
  endfacet
  facet normal 0.831469 -0.555571 0
    outer loop
      vertex 3.4676 -3.4676 0.975451
      vertex 4.53064 -1.87665 -0.975451
      vertex 4.53064 -1.87665 0.975451
    endloop
  endfacet
  facet normal 0.831469 -0.555571 0
    outer loop
      vertex 4.53064 -1.87665 -0.975451
      vertex 3.4676 -3.4676 0.975451
      vertex 3.4676 -3.4676 -0.975451
    endloop
  endfacet
  facet normal 0.396639 -0.593614 -0.700214
    outer loop
      vertex 1.59095 -3.84089 -2.77785
      vertex 1.06304 -2.5664 -4.15735
      vertex 1.96424 -1.96424 -4.15735
    endloop
  endfacet
  facet normal -0.700215 -0.13928 -0.700214
    outer loop
      vertex -2.5664 -1.06304 -4.15735
      vertex -3.84089 -1.59095 -2.77785
      vertex -2.77785 0 -4.15735
    endloop
  endfacet
  facet normal -0.396641 0.593614 -0.700213
    outer loop
      vertex -1.96424 1.96424 -4.15735
      vertex -2.93969 2.93969 -2.77785
      vertex -1.59095 3.84089 -2.77785
    endloop
  endfacet
  facet normal -0.38158 0.0759004 -0.921214
    outer loop
      vertex -0.975451 0 -4.90393
      vertex -2.77785 0 -4.15735
      vertex -2.5664 1.06304 -4.15735
    endloop
  endfacet
  facet normal -0.908663 -0.180745 -0.376381
    outer loop
      vertex -4.53064 -1.87665 -0.975451
      vertex -4.90393 0 -0.975451
      vertex -4.15735 0 -2.77785
    endloop
  endfacet
  facet normal -0.700214 -0.139281 0.700214
    outer loop
      vertex -2.77785 0 4.15735
      vertex -4.15735 0 2.77785
      vertex -3.84089 -1.59095 2.77785
    endloop
  endfacet
  facet normal -0.700215 -0.13928 0.700214
    outer loop
      vertex -2.77785 0 4.15735
      vertex -3.84089 -1.59095 2.77785
      vertex -2.5664 -1.06304 4.15735
    endloop
  endfacet
  facet normal -0.180745 0.908663 0.376381
    outer loop
      vertex 0 4.15735 2.77785
      vertex -1.87665 4.53064 0.975451
      vertex -1.59095 3.84089 2.77785
    endloop
  endfacet
  facet normal -0.770327 0.514717 0.376381
    outer loop
      vertex -2.93969 2.93969 2.77785
      vertex -4.53064 1.87665 0.975451
      vertex -3.84089 1.59095 2.77785
    endloop
  endfacet
  facet normal -0.514717 0.770327 0.376381
    outer loop
      vertex -1.87665 4.53064 0.975451
      vertex -2.93969 2.93969 2.77785
      vertex -1.59095 3.84089 2.77785
    endloop
  endfacet
  facet normal -0.593614 0.396641 0.700213
    outer loop
      vertex -2.93969 2.93969 2.77785
      vertex -3.84089 1.59095 2.77785
      vertex -1.96424 1.96424 4.15735
    endloop
  endfacet
  facet normal -0.396641 0.593614 0.700213
    outer loop
      vertex -1.59095 3.84089 2.77785
      vertex -2.93969 2.93969 2.77785
      vertex -1.96424 1.96424 4.15735
    endloop
  endfacet
  facet normal 0.180745 0.908663 -0.376381
    outer loop
      vertex 1.87665 4.53064 -0.975451
      vertex 0 4.15735 -2.77785
      vertex 0 4.90393 -0.975451
    endloop
  endfacet
  facet normal -0.216147 0.323488 0.921214
    outer loop
      vertex -0.373289 0.901199 4.90393
      vertex -1.96424 1.96424 4.15735
      vertex -0.689748 0.689748 4.90393
    endloop
  endfacet
  facet normal -0.323488 -0.216147 0.921214
    outer loop
      vertex -0.901199 -0.373289 4.90393
      vertex -2.5664 -1.06304 4.15735
      vertex -1.96424 -1.96424 4.15735
    endloop
  endfacet
  facet normal -0.216147 -0.323488 0.921214
    outer loop
      vertex -0.373289 -0.901199 4.90393
      vertex -1.96424 -1.96424 4.15735
      vertex -1.06304 -2.5664 4.15735
    endloop
  endfacet
  facet normal -0.38158 -0.0759004 -0.921214
    outer loop
      vertex -2.5664 -1.06304 -4.15735
      vertex -2.77785 0 -4.15735
      vertex -0.975451 0 -4.90393
    endloop
  endfacet
  facet normal -0.514717 -0.770327 -0.376381
    outer loop
      vertex -1.87665 -4.53064 -0.975451
      vertex -2.93969 -2.93969 -2.77785
      vertex -1.59095 -3.84089 -2.77785
    endloop
  endfacet
  facet normal 0.0759004 -0.38158 -0.921214
    outer loop
      vertex 1.06304 -2.5664 -4.15735
      vertex 0 -2.77785 -4.15735
      vertex 0 -0.975451 -4.90393
    endloop
  endfacet
  facet normal -0.514717 -0.770327 0.37638
    outer loop
      vertex -2.93969 -2.93969 2.77785
      vertex -3.4676 -3.4676 0.975451
      vertex -1.87665 -4.53064 0.975451
    endloop
  endfacet
  facet normal 0.139281 -0.700214 0.700214
    outer loop
      vertex 0 -2.77785 4.15735
      vertex 0 -4.15735 2.77785
      vertex 1.59095 -3.84089 2.77785
    endloop
  endfacet
  facet normal 0.180745 -0.908663 0.376381
    outer loop
      vertex 0 -4.15735 2.77785
      vertex 0 -4.90393 0.975451
      vertex 1.87665 -4.53064 0.975451
    endloop
  endfacet
  facet normal -0.0759012 -0.38158 -0.921214
    outer loop
      vertex 0 -0.975451 -4.90393
      vertex -1.06304 -2.5664 -4.15735
      vertex -0.373289 -0.901199 -4.90393
    endloop
  endfacet
  facet normal -0.0759004 -0.38158 -0.921214
    outer loop
      vertex 0 -2.77785 -4.15735
      vertex -1.06304 -2.5664 -4.15735
      vertex 0 -0.975451 -4.90393
    endloop
  endfacet
  facet normal 0.13928 -0.700215 -0.700214
    outer loop
      vertex 1.59095 -3.84089 -2.77785
      vertex 0 -2.77785 -4.15735
      vertex 1.06304 -2.5664 -4.15735
    endloop
  endfacet
  facet normal 0.139281 -0.700214 -0.700214
    outer loop
      vertex 1.59095 -3.84089 -2.77785
      vertex 0 -4.15735 -2.77785
      vertex 0 -2.77785 -4.15735
    endloop
  endfacet
  facet normal 0.195091 -0.980785 0
    outer loop
      vertex 0 -4.90393 -0.975451
      vertex 1.87665 -4.53064 0.975451
      vertex 0 -4.90393 0.975451
    endloop
  endfacet
  facet normal 0.195091 -0.980785 0
    outer loop
      vertex 1.87665 -4.53064 0.975451
      vertex 0 -4.90393 -0.975451
      vertex 1.87665 -4.53064 -0.975451
    endloop
  endfacet
  facet normal 0.180745 -0.908663 0.376381
    outer loop
      vertex 1.59095 -3.84089 2.77785
      vertex 0 -4.15735 2.77785
      vertex 1.87665 -4.53064 0.975451
    endloop
  endfacet
  facet normal -0.0759012 0.38158 -0.921214
    outer loop
      vertex -0.373289 0.901199 -4.90393
      vertex -1.06304 2.5664 -4.15735
      vertex 0 0.975451 -4.90393
    endloop
  endfacet
  facet normal 0.216147 -0.323488 -0.921214
    outer loop
      vertex 1.06304 -2.5664 -4.15735
      vertex 0.373289 -0.901199 -4.90393
      vertex 1.96424 -1.96424 -4.15735
    endloop
  endfacet
  facet normal -0.396641 -0.593614 -0.700213
    outer loop
      vertex -1.59095 -3.84089 -2.77785
      vertex -2.93969 -2.93969 -2.77785
      vertex -1.96424 -1.96424 -4.15735
    endloop
  endfacet
  facet normal -0.396639 0.593614 -0.700214
    outer loop
      vertex -1.06304 2.5664 -4.15735
      vertex -1.96424 1.96424 -4.15735
      vertex -1.59095 3.84089 -2.77785
    endloop
  endfacet
  facet normal 0.396641 0.593614 -0.700213
    outer loop
      vertex 1.96424 1.96424 -4.15735
      vertex 1.59095 3.84089 -2.77785
      vertex 2.93969 2.93969 -2.77785
    endloop
  endfacet
  facet normal -0.593614 0.396641 -0.700213
    outer loop
      vertex -1.96424 1.96424 -4.15735
      vertex -3.84089 1.59095 -2.77785
      vertex -2.93969 2.93969 -2.77785
    endloop
  endfacet
  facet normal -0.908663 0.180745 -0.376381
    outer loop
      vertex -4.15735 0 -2.77785
      vertex -4.53064 1.87665 -0.975451
      vertex -3.84089 1.59095 -2.77785
    endloop
  endfacet
  facet normal -0.770327 0.514717 -0.37638
    outer loop
      vertex -2.93969 2.93969 -2.77785
      vertex -4.53064 1.87665 -0.975451
      vertex -3.4676 3.4676 -0.975451
    endloop
  endfacet
  facet normal -0.514717 0.770327 -0.37638
    outer loop
      vertex -2.93969 2.93969 -2.77785
      vertex -3.4676 3.4676 -0.975451
      vertex -1.87665 4.53064 -0.975451
    endloop
  endfacet
  facet normal 0.0759012 -0.38158 0.921214
    outer loop
      vertex 0.373289 -0.901199 4.90393
      vertex 0 -0.975451 4.90393
      vertex 1.06304 -2.5664 4.15735
    endloop
  endfacet
  facet normal -0.323488 -0.216147 0.921214
    outer loop
      vertex -0.901199 -0.373289 4.90393
      vertex -1.96424 -1.96424 4.15735
      vertex -0.689748 -0.689748 4.90393
    endloop
  endfacet
  facet normal -0.180745 0.908663 0.376381
    outer loop
      vertex 0 4.90393 0.975451
      vertex -1.87665 4.53064 0.975451
      vertex 0 4.15735 2.77785
    endloop
  endfacet
  facet normal -0.323488 0.216147 0.921214
    outer loop
      vertex -0.689748 0.689748 4.90393
      vertex -1.96424 1.96424 4.15735
      vertex -0.901199 0.373289 4.90393
    endloop
  endfacet
  facet normal -0.396639 0.593614 0.700214
    outer loop
      vertex -1.59095 3.84089 2.77785
      vertex -1.96424 1.96424 4.15735
      vertex -1.06304 2.5664 4.15735
    endloop
  endfacet
  facet normal 0.593614 0.396641 -0.700213
    outer loop
      vertex 3.84089 1.59095 -2.77785
      vertex 1.96424 1.96424 -4.15735
      vertex 2.93969 2.93969 -2.77785
    endloop
  endfacet
  facet normal 0.593614 0.396639 -0.700214
    outer loop
      vertex 2.5664 1.06304 -4.15735
      vertex 1.96424 1.96424 -4.15735
      vertex 3.84089 1.59095 -2.77785
    endloop
  endfacet
  facet normal 0.216147 0.323488 -0.921214
    outer loop
      vertex 1.96424 1.96424 -4.15735
      vertex 0.373289 0.901199 -4.90393
      vertex 1.06304 2.5664 -4.15735
    endloop
  endfacet
  facet normal 0.139281 0.700214 -0.700214
    outer loop
      vertex 1.59095 3.84089 -2.77785
      vertex 0 2.77785 -4.15735
      vertex 0 4.15735 -2.77785
    endloop
  endfacet
  facet normal 0.831469 0.555571 0
    outer loop
      vertex 4.53064 1.87665 0
      vertex 3.4676 3.4676 -0.975451
      vertex 3.4676 3.4676 0
    endloop
  endfacet
  facet normal 0.831469 0.555571 0
    outer loop
      vertex 3.4676 3.4676 -0.975451
      vertex 4.53064 1.87665 0
      vertex 4.53064 1.87665 -0.975451
    endloop
  endfacet
  facet normal 0.514717 -0.770327 0.376381
    outer loop
      vertex 2.93969 -2.93969 2.77785
      vertex 1.59095 -3.84089 2.77785
      vertex 1.87665 -4.53064 0.975451
    endloop
  endfacet
  facet normal -0.139281 -0.700214 0.700214
    outer loop
      vertex 0 -2.77785 4.15735
      vertex -1.59095 -3.84089 2.77785
      vertex 0 -4.15735 2.77785
    endloop
  endfacet
  facet normal 0.323488 -0.216147 0.921214
    outer loop
      vertex 0.901199 -0.373289 4.90393
      vertex 0.689748 -0.689748 4.90393
      vertex 1.96424 -1.96424 4.15735
    endloop
  endfacet
  facet normal 0.396639 -0.593614 0.700214
    outer loop
      vertex 1.96424 -1.96424 4.15735
      vertex 1.06304 -2.5664 4.15735
      vertex 1.59095 -3.84089 2.77785
    endloop
  endfacet
  facet normal 0.38158 -0.0759012 0.921214
    outer loop
      vertex 0.975451 0 4.90393
      vertex 0.901199 -0.373289 4.90393
      vertex 2.5664 -1.06304 4.15735
    endloop
  endfacet
  facet normal -0.514717 -0.770327 -0.37638
    outer loop
      vertex -1.87665 -4.53064 -0.975451
      vertex -3.4676 -3.4676 -0.975451
      vertex -2.93969 -2.93969 -2.77785
    endloop
  endfacet
  facet normal -0.908663 -0.180745 -0.376381
    outer loop
      vertex -3.84089 -1.59095 -2.77785
      vertex -4.53064 -1.87665 -0.975451
      vertex -4.15735 0 -2.77785
    endloop
  endfacet
  facet normal -0.770327 -0.514717 -0.37638
    outer loop
      vertex -3.4676 -3.4676 -0.975451
      vertex -4.53064 -1.87665 -0.975451
      vertex -2.93969 -2.93969 -2.77785
    endloop
  endfacet
  facet normal -0.180745 -0.908663 -0.376381
    outer loop
      vertex 0 -4.15735 -2.77785
      vertex -1.87665 -4.53064 -0.975451
      vertex -1.59095 -3.84089 -2.77785
    endloop
  endfacet
  facet normal -0.593614 -0.396641 0.700213
    outer loop
      vertex -1.96424 -1.96424 4.15735
      vertex -3.84089 -1.59095 2.77785
      vertex -2.93969 -2.93969 2.77785
    endloop
  endfacet
  facet normal -0.770327 -0.514717 0.376381
    outer loop
      vertex -3.84089 -1.59095 2.77785
      vertex -4.53064 -1.87665 0.975451
      vertex -2.93969 -2.93969 2.77785
    endloop
  endfacet
  facet normal 0.396641 -0.593614 0.700213
    outer loop
      vertex 1.96424 -1.96424 4.15735
      vertex 1.59095 -3.84089 2.77785
      vertex 2.93969 -2.93969 2.77785
    endloop
  endfacet
  facet normal 0.593614 -0.396641 0.700213
    outer loop
      vertex 3.84089 -1.59095 2.77785
      vertex 1.96424 -1.96424 4.15735
      vertex 2.93969 -2.93969 2.77785
    endloop
  endfacet
  facet normal -0.323488 0.216147 -0.921214
    outer loop
      vertex -0.901199 0.373289 -4.90393
      vertex -2.5664 1.06304 -4.15735
      vertex -1.96424 1.96424 -4.15735
    endloop
  endfacet
  facet normal 0.593614 -0.396639 -0.700214
    outer loop
      vertex 3.84089 -1.59095 -2.77785
      vertex 1.96424 -1.96424 -4.15735
      vertex 2.5664 -1.06304 -4.15735
    endloop
  endfacet
  facet normal 0.593614 -0.396641 -0.700213
    outer loop
      vertex 2.93969 -2.93969 -2.77785
      vertex 1.96424 -1.96424 -4.15735
      vertex 3.84089 -1.59095 -2.77785
    endloop
  endfacet
  facet normal -0.38158 0.0759012 -0.921214
    outer loop
      vertex -0.975451 0 -4.90393
      vertex -2.5664 1.06304 -4.15735
      vertex -0.901199 0.373289 -4.90393
    endloop
  endfacet
  facet normal -0.323488 -0.216147 -0.921214
    outer loop
      vertex -0.689748 -0.689748 -4.90393
      vertex -1.96424 -1.96424 -4.15735
      vertex -0.901199 -0.373289 -4.90393
    endloop
  endfacet
  facet normal -0.13928 -0.700215 -0.700214
    outer loop
      vertex 0 -2.77785 -4.15735
      vertex -1.59095 -3.84089 -2.77785
      vertex -1.06304 -2.5664 -4.15735
    endloop
  endfacet
  facet normal -0.396639 -0.593614 -0.700214
    outer loop
      vertex -1.59095 -3.84089 -2.77785
      vertex -1.96424 -1.96424 -4.15735
      vertex -1.06304 -2.5664 -4.15735
    endloop
  endfacet
  facet normal 0.555571 -0.831469 0
    outer loop
      vertex 1.87665 -4.53064 -0.975451
      vertex 3.4676 -3.4676 0.975451
      vertex 1.87665 -4.53064 0.975451
    endloop
  endfacet
  facet normal 0.555571 -0.831469 0
    outer loop
      vertex 3.4676 -3.4676 0.975451
      vertex 1.87665 -4.53064 -0.975451
      vertex 3.4676 -3.4676 -0.975451
    endloop
  endfacet
  facet normal -0.323488 0.216147 -0.921214
    outer loop
      vertex -0.901199 0.373289 -4.90393
      vertex -1.96424 1.96424 -4.15735
      vertex -0.689748 0.689748 -4.90393
    endloop
  endfacet
  facet normal -0.216147 -0.323488 -0.921214
    outer loop
      vertex -1.06304 -2.5664 -4.15735
      vertex -1.96424 -1.96424 -4.15735
      vertex -0.373289 -0.901199 -4.90393
    endloop
  endfacet
  facet normal -0.700215 0.13928 -0.700214
    outer loop
      vertex -2.77785 0 -4.15735
      vertex -3.84089 1.59095 -2.77785
      vertex -2.5664 1.06304 -4.15735
    endloop
  endfacet
  facet normal -0.593614 0.396639 -0.700214
    outer loop
      vertex -2.5664 1.06304 -4.15735
      vertex -3.84089 1.59095 -2.77785
      vertex -1.96424 1.96424 -4.15735
    endloop
  endfacet
  facet normal -0.216147 -0.323488 -0.921214
    outer loop
      vertex -0.373289 -0.901199 -4.90393
      vertex -1.96424 -1.96424 -4.15735
      vertex -0.689748 -0.689748 -4.90393
    endloop
  endfacet
  facet normal -0.216147 0.323488 -0.921214
    outer loop
      vertex -0.373289 0.901199 -4.90393
      vertex -1.96424 1.96424 -4.15735
      vertex -1.06304 2.5664 -4.15735
    endloop
  endfacet
  facet normal -0.216147 0.323488 0.921214
    outer loop
      vertex -1.06304 2.5664 4.15735
      vertex -1.96424 1.96424 4.15735
      vertex -0.373289 0.901199 4.90393
    endloop
  endfacet
  facet normal -0.0759004 0.38158 0.921214
    outer loop
      vertex 0 2.77785 4.15735
      vertex -1.06304 2.5664 4.15735
      vertex 0 0.975451 4.90393
    endloop
  endfacet
  facet normal 0.195091 0.980785 -0
    outer loop
      vertex 1.87665 4.53064 -0.975451
      vertex 0 4.90393 0
      vertex 1.87665 4.53064 0
    endloop
  endfacet
  facet normal 0.195091 0.980785 0
    outer loop
      vertex 0 4.90393 0
      vertex 1.87665 4.53064 -0.975451
      vertex 0 4.90393 -0.975451
    endloop
  endfacet
  facet normal -0.195091 0.980785 0
    outer loop
      vertex 0 4.90393 0
      vertex -1.87665 4.53064 0.975451
      vertex 0 4.90393 0.975451
    endloop
  endfacet
  facet normal -0.195091 0.980785 0
    outer loop
      vertex -1.87665 4.53064 -0.975451
      vertex 0 4.90393 0
      vertex 0 4.90393 -0.975451
    endloop
  endfacet
  facet normal -0.195091 0.980785 0
    outer loop
      vertex 0 4.90393 0
      vertex -1.87665 4.53064 -0.975451
      vertex -1.87665 4.53064 0.975451
    endloop
  endfacet
  facet normal -0.514717 0.770327 0.37638
    outer loop
      vertex -1.87665 4.53064 0.975451
      vertex -3.4676 3.4676 0.975451
      vertex -2.93969 2.93969 2.77785
    endloop
  endfacet
  facet normal -0.770327 0.514717 0.37638
    outer loop
      vertex -3.4676 3.4676 0.975451
      vertex -4.53064 1.87665 0.975451
      vertex -2.93969 2.93969 2.77785
    endloop
  endfacet
  facet normal -0.593614 0.396639 0.700214
    outer loop
      vertex -1.96424 1.96424 4.15735
      vertex -3.84089 1.59095 2.77785
      vertex -2.5664 1.06304 4.15735
    endloop
  endfacet
  facet normal -0.700215 0.13928 0.700214
    outer loop
      vertex -2.5664 1.06304 4.15735
      vertex -3.84089 1.59095 2.77785
      vertex -2.77785 0 4.15735
    endloop
  endfacet
  facet normal -0.0759012 0.38158 0.921214
    outer loop
      vertex 0 0.975451 4.90393
      vertex -1.06304 2.5664 4.15735
      vertex -0.373289 0.901199 4.90393
    endloop
  endfacet
  facet normal 0.13928 0.700215 -0.700214
    outer loop
      vertex 1.06304 2.5664 -4.15735
      vertex 0 2.77785 -4.15735
      vertex 1.59095 3.84089 -2.77785
    endloop
  endfacet
  facet normal 0.216147 0.323488 -0.921214
    outer loop
      vertex 0.689748 0.689748 -4.90393
      vertex 0.373289 0.901199 -4.90393
      vertex 1.96424 1.96424 -4.15735
    endloop
  endfacet
  facet normal 0.38158 0.0759004 -0.921214
    outer loop
      vertex 2.77785 0 -4.15735
      vertex 0.975451 0 -4.90393
      vertex 2.5664 1.06304 -4.15735
    endloop
  endfacet
  facet normal 0.700215 0.13928 -0.700214
    outer loop
      vertex 2.77785 0 -4.15735
      vertex 2.5664 1.06304 -4.15735
      vertex 3.84089 1.59095 -2.77785
    endloop
  endfacet
  facet normal 0.770327 0.514717 -0.376381
    outer loop
      vertex 3.84089 1.59095 -2.77785
      vertex 2.93969 2.93969 -2.77785
      vertex 4.53064 1.87665 -0.975451
    endloop
  endfacet
  facet normal 0.908663 0.180745 -0.376381
    outer loop
      vertex 4.15735 0 -2.77785
      vertex 3.84089 1.59095 -2.77785
      vertex 4.53064 1.87665 -0.975451
    endloop
  endfacet
  facet normal 0.13928 -0.700215 0.700214
    outer loop
      vertex 1.06304 -2.5664 4.15735
      vertex 0 -2.77785 4.15735
      vertex 1.59095 -3.84089 2.77785
    endloop
  endfacet
  facet normal 0.0759004 -0.38158 0.921214
    outer loop
      vertex 0 -0.975451 4.90393
      vertex 0 -2.77785 4.15735
      vertex 1.06304 -2.5664 4.15735
    endloop
  endfacet
  facet normal -0.38158 0.0759012 0.921214
    outer loop
      vertex -0.901199 0.373289 4.90393
      vertex -2.5664 1.06304 4.15735
      vertex -0.975451 0 4.90393
    endloop
  endfacet
  facet normal -0.323488 0.216147 0.921214
    outer loop
      vertex -1.96424 1.96424 4.15735
      vertex -2.5664 1.06304 4.15735
      vertex -0.901199 0.373289 4.90393
    endloop
  endfacet
  facet normal -0.770327 -0.514717 -0.376381
    outer loop
      vertex -2.93969 -2.93969 -2.77785
      vertex -4.53064 -1.87665 -0.975451
      vertex -3.84089 -1.59095 -2.77785
    endloop
  endfacet
  facet normal -0.593614 -0.396641 -0.700213
    outer loop
      vertex -2.93969 -2.93969 -2.77785
      vertex -3.84089 -1.59095 -2.77785
      vertex -1.96424 -1.96424 -4.15735
    endloop
  endfacet
  facet normal -0.396641 -0.593614 0.700213
    outer loop
      vertex -1.96424 -1.96424 4.15735
      vertex -2.93969 -2.93969 2.77785
      vertex -1.59095 -3.84089 2.77785
    endloop
  endfacet
  facet normal -0.514717 -0.770327 0.376381
    outer loop
      vertex -1.59095 -3.84089 2.77785
      vertex -2.93969 -2.93969 2.77785
      vertex -1.87665 -4.53064 0.975451
    endloop
  endfacet
  facet normal -0.38158 -0.0759012 -0.921214
    outer loop
      vertex -0.901199 -0.373289 -4.90393
      vertex -2.5664 -1.06304 -4.15735
      vertex -0.975451 0 -4.90393
    endloop
  endfacet
  facet normal -0.323488 -0.216147 -0.921214
    outer loop
      vertex -1.96424 -1.96424 -4.15735
      vertex -2.5664 -1.06304 -4.15735
      vertex -0.901199 -0.373289 -4.90393
    endloop
  endfacet
  facet normal 0 0 -1
    outer loop
      vertex 0.901199 -0.373289 -4.90393
      vertex 0.901199 0.373289 -4.90393
      vertex 0.975451 0 -4.90393
    endloop
  endfacet
  facet normal 0 0 -1
    outer loop
      vertex 0.689748 -0.689748 -4.90393
      vertex 0.901199 0.373289 -4.90393
      vertex 0.901199 -0.373289 -4.90393
    endloop
  endfacet
  facet normal 0 0 -1
    outer loop
      vertex 0.689748 -0.689748 -4.90393
      vertex 0.689748 0.689748 -4.90393
      vertex 0.901199 0.373289 -4.90393
    endloop
  endfacet
  facet normal 0 0 -1
    outer loop
      vertex 0.373289 -0.901199 -4.90393
      vertex 0.689748 0.689748 -4.90393
      vertex 0.689748 -0.689748 -4.90393
    endloop
  endfacet
  facet normal 0 0 -1
    outer loop
      vertex 0.373289 -0.901199 -4.90393
      vertex 0.373289 0.901199 -4.90393
      vertex 0.689748 0.689748 -4.90393
    endloop
  endfacet
  facet normal 0 0 -1
    outer loop
      vertex 0 -0.975451 -4.90393
      vertex 0.373289 0.901199 -4.90393
      vertex 0.373289 -0.901199 -4.90393
    endloop
  endfacet
  facet normal 0 0 -1
    outer loop
      vertex 0 -0.975451 -4.90393
      vertex 0 0.975451 -4.90393
      vertex 0.373289 0.901199 -4.90393
    endloop
  endfacet
  facet normal 0 0 -1
    outer loop
      vertex -0.373289 -0.901199 -4.90393
      vertex 0 0.975451 -4.90393
      vertex 0 -0.975451 -4.90393
    endloop
  endfacet
  facet normal 0 0 -1
    outer loop
      vertex -0.373289 -0.901199 -4.90393
      vertex -0.373289 0.901199 -4.90393
      vertex 0 0.975451 -4.90393
    endloop
  endfacet
  facet normal 0 0 -1
    outer loop
      vertex -0.689748 -0.689748 -4.90393
      vertex -0.373289 0.901199 -4.90393
      vertex -0.373289 -0.901199 -4.90393
    endloop
  endfacet
  facet normal 0 0 -1
    outer loop
      vertex -0.689748 -0.689748 -4.90393
      vertex -0.689748 0.689748 -4.90393
      vertex -0.373289 0.901199 -4.90393
    endloop
  endfacet
  facet normal 0 0 -1
    outer loop
      vertex -0.901199 -0.373289 -4.90393
      vertex -0.689748 0.689748 -4.90393
      vertex -0.689748 -0.689748 -4.90393
    endloop
  endfacet
  facet normal 0 0 -1
    outer loop
      vertex -0.901199 -0.373289 -4.90393
      vertex -0.901199 0.373289 -4.90393
      vertex -0.689748 0.689748 -4.90393
    endloop
  endfacet
  facet normal 0 -0 -1
    outer loop
      vertex -0.901199 0.373289 -4.90393
      vertex -0.901199 -0.373289 -4.90393
      vertex -0.975451 0 -4.90393
    endloop
  endfacet
  facet normal -0 0 1
    outer loop
      vertex -0.373289 0.901199 4.90393
      vertex 0 0 4.90393
      vertex 0 0.975451 4.90393
    endloop
  endfacet
  facet normal -0 0 1
    outer loop
      vertex -0.689748 0.689748 4.90393
      vertex 0 0 4.90393
      vertex -0.373289 0.901199 4.90393
    endloop
  endfacet
  facet normal 0 0 1
    outer loop
      vertex 0 0 4.90393
      vertex -0.373289 -0.901199 4.90393
      vertex 0 -0.975451 4.90393
    endloop
  endfacet
  facet normal -0 0 1
    outer loop
      vertex -0.901199 0.373289 4.90393
      vertex 0 0 4.90393
      vertex -0.689748 0.689748 4.90393
    endloop
  endfacet
  facet normal 0 0 1
    outer loop
      vertex 0 0 4.90393
      vertex -0.689748 -0.689748 4.90393
      vertex -0.373289 -0.901199 4.90393
    endloop
  endfacet
  facet normal 0 0 1
    outer loop
      vertex -0.975451 0 4.90393
      vertex 0 0 4.90393
      vertex -0.901199 0.373289 4.90393
    endloop
  endfacet
  facet normal 0 0 1
    outer loop
      vertex 0 0 4.90393
      vertex -0.901199 -0.373289 4.90393
      vertex -0.689748 -0.689748 4.90393
    endloop
  endfacet
  facet normal 0 0 1
    outer loop
      vertex 0 0 4.90393
      vertex -0.975451 0 4.90393
      vertex -0.901199 -0.373289 4.90393
    endloop
  endfacet
  facet normal -0 0 1
    outer loop
      vertex 0 0 4.90393
      vertex 0.901199 -0.373289 4.90393
      vertex 0.975451 0 4.90393
    endloop
  endfacet
  facet normal 0 0 1
    outer loop
      vertex 0.901199 -0.373289 4.90393
      vertex 0 0 4.90393
      vertex 0.689748 -0.689748 4.90393
    endloop
  endfacet
  facet normal 0 0 1
    outer loop
      vertex 0.689748 -0.689748 4.90393
      vertex 0 0 4.90393
      vertex 0.373289 -0.901199 4.90393
    endloop
  endfacet
  facet normal 0 0 1
    outer loop
      vertex 0.373289 -0.901199 4.90393
      vertex 0 0 4.90393
      vertex 0 -0.975451 4.90393
    endloop
  endfacet
  facet normal 0.396639 0.593614 -0.700214
    outer loop
      vertex 1.96424 1.96424 -4.15735
      vertex 1.06304 2.5664 -4.15735
      vertex 1.59095 3.84089 -2.77785
    endloop
  endfacet
  facet normal 0.0759012 0.38158 -0.921214
    outer loop
      vertex 0.373289 0.901199 -4.90393
      vertex 0 0.975451 -4.90393
      vertex 1.06304 2.5664 -4.15735
    endloop
  endfacet
  facet normal 0.0759004 0.38158 -0.921214
    outer loop
      vertex 1.06304 2.5664 -4.15735
      vertex 0 0.975451 -4.90393
      vertex 0 2.77785 -4.15735
    endloop
  endfacet
  facet normal 0.323488 0.216147 -0.921214
    outer loop
      vertex 2.5664 1.06304 -4.15735
      vertex 0.901199 0.373289 -4.90393
      vertex 1.96424 1.96424 -4.15735
    endloop
  endfacet
  facet normal 0.38158 0.0759012 -0.921214
    outer loop
      vertex 0.975451 0 -4.90393
      vertex 0.901199 0.373289 -4.90393
      vertex 2.5664 1.06304 -4.15735
    endloop
  endfacet
  facet normal 0.700215 -0.13928 -0.700214
    outer loop
      vertex 3.84089 -1.59095 -2.77785
      vertex 2.5664 -1.06304 -4.15735
      vertex 2.77785 0 -4.15735
    endloop
  endfacet
  facet normal 0.38158 -0.0759004 -0.921214
    outer loop
      vertex 2.5664 -1.06304 -4.15735
      vertex 0.975451 0 -4.90393
      vertex 2.77785 0 -4.15735
    endloop
  endfacet
  facet normal -0.13928 -0.700215 0.700214
    outer loop
      vertex -1.06304 -2.5664 4.15735
      vertex -1.59095 -3.84089 2.77785
      vertex 0 -2.77785 4.15735
    endloop
  endfacet
  facet normal -0.0759004 -0.38158 0.921214
    outer loop
      vertex 0 -0.975451 4.90393
      vertex -1.06304 -2.5664 4.15735
      vertex 0 -2.77785 4.15735
    endloop
  endfacet
  facet normal 0.323488 0.216147 -0.921214
    outer loop
      vertex 0.901199 0.373289 -4.90393
      vertex 0.689748 0.689748 -4.90393
      vertex 1.96424 1.96424 -4.15735
    endloop
  endfacet
  facet normal -0.951065 0.308992 0
    outer loop
      vertex 12 0 0
      vertex 12.5729 1.76336 10
      vertex 12.5729 1.76336 0
    endloop
  endfacet
  facet normal -0.951065 0.308992 0
    outer loop
      vertex 12.5729 1.76336 10
      vertex 12 0 0
      vertex 12 0 10
    endloop
  endfacet
  facet normal -0.587784 -0.809018 0
    outer loop
      vertex 12.5729 -1.76336 0
      vertex 14.0729 -2.85317 10
      vertex 12.5729 -1.76336 10
    endloop
  endfacet
  facet normal -0.587784 -0.809018 -0
    outer loop
      vertex 14.0729 -2.85317 10
      vertex 12.5729 -1.76336 0
      vertex 14.0729 -2.85317 0
    endloop
  endfacet
  facet normal 0.587784 0.809018 -0
    outer loop
      vertex 17.4271 1.76336 0
      vertex 15.9271 2.85317 10
      vertex 17.4271 1.76336 10
    endloop
  endfacet
  facet normal 0.587784 0.809018 0
    outer loop
      vertex 15.9271 2.85317 10
      vertex 17.4271 1.76336 0
      vertex 15.9271 2.85317 0
    endloop
  endfacet
  facet normal 0.951065 0.308992 0
    outer loop
      vertex 18 0 10
      vertex 17.4271 1.76336 0
      vertex 17.4271 1.76336 10
    endloop
  endfacet
  facet normal 0.951065 0.308992 0
    outer loop
      vertex 17.4271 1.76336 0
      vertex 18 0 10
      vertex 18 0 0
    endloop
  endfacet
  facet normal 0 1 -0
    outer loop
      vertex 15.9271 2.85317 0
      vertex 14.0729 2.85317 10
      vertex 15.9271 2.85317 10
    endloop
  endfacet
  facet normal 0 1 0
    outer loop
      vertex 14.0729 2.85317 10
      vertex 15.9271 2.85317 0
      vertex 14.0729 2.85317 0
    endloop
  endfacet
  facet normal 0.587784 -0.809018 0
    outer loop
      vertex 15.9271 -2.85317 0
      vertex 17.4271 -1.76336 10
      vertex 15.9271 -2.85317 10
    endloop
  endfacet
  facet normal 0.587784 -0.809018 0
    outer loop
      vertex 17.4271 -1.76336 10
      vertex 15.9271 -2.85317 0
      vertex 17.4271 -1.76336 0
    endloop
  endfacet
  facet normal 0 -1 0
    outer loop
      vertex 14.0729 -2.85317 0
      vertex 15.9271 -2.85317 10
      vertex 14.0729 -2.85317 10
    endloop
  endfacet
  facet normal 0 -1 -0
    outer loop
      vertex 15.9271 -2.85317 10
      vertex 14.0729 -2.85317 0
      vertex 15.9271 -2.85317 0
    endloop
  endfacet
  facet normal -0.587784 0.809018 0
    outer loop
      vertex 14.0729 2.85317 0
      vertex 12.5729 1.76336 10
      vertex 14.0729 2.85317 10
    endloop
  endfacet
  facet normal -0.587784 0.809018 0
    outer loop
      vertex 12.5729 1.76336 10
      vertex 14.0729 2.85317 0
      vertex 12.5729 1.76336 0
    endloop
  endfacet
  facet normal 0.951065 -0.308992 0
    outer loop
      vertex 17.4271 -1.76336 10
      vertex 18 0 0
      vertex 18 0 10
    endloop
  endfacet
  facet normal 0.951065 -0.308992 0
    outer loop
      vertex 18 0 0
      vertex 17.4271 -1.76336 10
      vertex 17.4271 -1.76336 0
    endloop
  endfacet
  facet normal 0 0 -1
    outer loop
      vertex 17.4271 -1.76336 0
      vertex 17.4271 1.76336 0
      vertex 18 0 0
    endloop
  endfacet
  facet normal 0 0 -1
    outer loop
      vertex 15.9271 -2.85317 0
      vertex 17.4271 1.76336 0
      vertex 17.4271 -1.76336 0
    endloop
  endfacet
  facet normal 0 0 -1
    outer loop
      vertex 15.9271 -2.85317 0
      vertex 15.9271 2.85317 0
      vertex 17.4271 1.76336 0
    endloop
  endfacet
  facet normal 0 0 -1
    outer loop
      vertex 14.0729 -2.85317 0
      vertex 15.9271 2.85317 0
      vertex 15.9271 -2.85317 0
    endloop
  endfacet
  facet normal 0 0 -1
    outer loop
      vertex 14.0729 -2.85317 0
      vertex 14.0729 2.85317 0
      vertex 15.9271 2.85317 0
    endloop
  endfacet
  facet normal 0 0 -1
    outer loop
      vertex 12.5729 -1.76336 0
      vertex 14.0729 2.85317 0
      vertex 14.0729 -2.85317 0
    endloop
  endfacet
  facet normal 0 0 -1
    outer loop
      vertex 12.5729 -1.76336 0
      vertex 12.5729 1.76336 0
      vertex 14.0729 2.85317 0
    endloop
  endfacet
  facet normal 0 -0 -1
    outer loop
      vertex 12.5729 1.76336 0
      vertex 12.5729 -1.76336 0
      vertex 12 0 0
    endloop
  endfacet
  facet normal -0.951065 -0.308992 0
    outer loop
      vertex 12.5729 -1.76336 0
      vertex 12 0 10
      vertex 12 0 0
    endloop
  endfacet
  facet normal -0.951065 -0.308992 0
    outer loop
      vertex 12 0 10
      vertex 12.5729 -1.76336 0
      vertex 12.5729 -1.76336 10
    endloop
  endfacet
  facet normal 0 0 1
    outer loop
      vertex 17.4271 1.76336 10
      vertex 17.4271 -1.76336 10
      vertex 18 0 10
    endloop
  endfacet
  facet normal 0 0 1
    outer loop
      vertex 15.9271 2.85317 10
      vertex 17.4271 -1.76336 10
      vertex 17.4271 1.76336 10
    endloop
  endfacet
  facet normal 0 0 1
    outer loop
      vertex 15.9271 2.85317 10
      vertex 15.9271 -2.85317 10
      vertex 17.4271 -1.76336 10
    endloop
  endfacet
  facet normal -0 0 1
    outer loop
      vertex 14.0729 2.85317 10
      vertex 15.9271 -2.85317 10
      vertex 15.9271 2.85317 10
    endloop
  endfacet
  facet normal 0 0 1
    outer loop
      vertex 14.0729 2.85317 10
      vertex 14.0729 -2.85317 10
      vertex 15.9271 -2.85317 10
    endloop
  endfacet
  facet normal -0 0 1
    outer loop
      vertex 12.5729 1.76336 10
      vertex 14.0729 -2.85317 10
      vertex 14.0729 2.85317 10
    endloop
  endfacet
  facet normal 0 0 1
    outer loop
      vertex 12.5729 1.76336 10
      vertex 12.5729 -1.76336 10
      vertex 14.0729 -2.85317 10
    endloop
  endfacet
  facet normal 0 -0 1
    outer loop
      vertex 12.5729 -1.76336 10
      vertex 12.5729 1.76336 10
      vertex 12 0 10
    endloop
  endfacet
endsolid OpenSCAD_Model
