solid OpenSCAD_Model
  facet normal 1 0 0
    outer loop
      vertex 50 30 51.5
      vertex 50 27 48.5
      vertex 50 30 0
    endloop
  endfacet
  facet normal 1 0 0
    outer loop
      vertex 50 30 51.5
      vertex 50 2.5 48.5
      vertex 50 27 48.5
    endloop
  endfacet
  facet normal 1 0 0
    outer loop
      vertex 50 2.5 48.5
      vertex 50 -2.5 48.5
      vertex 50 2.5 45.5
    endloop
  endfacet
  facet normal 1 0 0
    outer loop
      vertex 50 30 51.5
      vertex 50 -2.5 48.5
      vertex 50 2.5 48.5
    endloop
  endfacet
  facet normal 1 -0 0
    outer loop
      vertex 50 -30 51.5
      vertex 50 -2.5 48.5
      vertex 50 30 51.5
    endloop
  endfacet
  facet normal 1 0 0
    outer loop
      vertex 50 -24 48.5
      vertex 50 -27 48.5
      vertex 50 -24 0
    endloop
  endfacet
  facet normal 1 0 0
    outer loop
      vertex 50 -2.5 48.5
      vertex 50 -30 51.5
      vertex 50 -24 48.5
    endloop
  endfacet
  facet normal 1 0 0
    outer loop
      vertex 50 -24 48.5
      vertex 50 -30 51.5
      vertex 50 -27 48.5
    endloop
  endfacet
  facet normal 1 0 0
    outer loop
      vertex 50 -27 48.5
      vertex 50 -30 51.5
      vertex 50 -30 48.5
    endloop
  endfacet
  facet normal 1 0 0
    outer loop
      vertex 50 30 0
      vertex 50 27 48.5
      vertex 50 27 0
    endloop
  endfacet
  facet normal 1 0 0
    outer loop
      vertex 50 2.5 45.5
      vertex 50 -2.5 48.5
      vertex 50 -2.5 45.5
    endloop
  endfacet
  facet normal 1 0 0
    outer loop
      vertex 50 -24 0
      vertex 50 -27 48.5
      vertex 50 -27 0
    endloop
  endfacet
  facet normal -0 0 1
    outer loop
      vertex -50 30 51.5
      vertex 50 -30 51.5
      vertex 50 30 51.5
    endloop
  endfacet
  facet normal 0 0 1
    outer loop
      vertex 50 -30 51.5
      vertex -50 30 51.5
      vertex -50 -30 51.5
    endloop
  endfacet
  facet normal 0 0 -1
    outer loop
      vertex 50 -30 48.5
      vertex 47 -27 48.5
      vertex 50 -27 48.5
    endloop
  endfacet
  facet normal 0 0 -1
    outer loop
      vertex 47 -27 48.5
      vertex -44 -27 48.5
      vertex 47 -24 48.5
    endloop
  endfacet
  facet normal 0 0 -1
    outer loop
      vertex 50 -30 48.5
      vertex -44 -27 48.5
      vertex 47 -27 48.5
    endloop
  endfacet
  facet normal 0 0 -1
    outer loop
      vertex -50 -30 48.5
      vertex -44 -27 48.5
      vertex 50 -30 48.5
    endloop
  endfacet
  facet normal -0 0 -1
    outer loop
      vertex -47 -27 48.5
      vertex -50 -30 48.5
      vertex -47 -24 48.5
    endloop
  endfacet
  facet normal -0 0 -1
    outer loop
      vertex -44 -27 48.5
      vertex -50 -30 48.5
      vertex -47 -27 48.5
    endloop
  endfacet
  facet normal 0 0 -1
    outer loop
      vertex 47 -24 48.5
      vertex 50 -2.5 48.5
      vertex 50 -24 48.5
    endloop
  endfacet
  facet normal 0 0 -1
    outer loop
      vertex -44 -24 48.5
      vertex 47 -24 48.5
      vertex -44 -27 48.5
    endloop
  endfacet
  facet normal 0 0 -1
    outer loop
      vertex 47 -24 48.5
      vertex -44 -24 48.5
      vertex 50 -2.5 48.5
    endloop
  endfacet
  facet normal 0 0 -1
    outer loop
      vertex -50 -2.5 48.5
      vertex -44 -24 48.5
      vertex -47 -24 48.5
    endloop
  endfacet
  facet normal 0 0 -1
    outer loop
      vertex -44 -24 48.5
      vertex -50 -2.5 48.5
      vertex 50 -2.5 48.5
    endloop
  endfacet
  facet normal 0 0 -1
    outer loop
      vertex -50 -2.5 48.5
      vertex -47 -24 48.5
      vertex -50 -30 48.5
    endloop
  endfacet
  facet normal 0 0 -1
    outer loop
      vertex 50 2.5 48.5
      vertex 47 27 48.5
      vertex 50 27 48.5
    endloop
  endfacet
  facet normal 0 0 -1
    outer loop
      vertex 47 27 48.5
      vertex -44 27 48.5
      vertex 47 30 48.5
    endloop
  endfacet
  facet normal 0 0 -1
    outer loop
      vertex 50 2.5 48.5
      vertex -44 27 48.5
      vertex 47 27 48.5
    endloop
  endfacet
  facet normal 0 0 -1
    outer loop
      vertex -50 2.5 48.5
      vertex -44 27 48.5
      vertex 50 2.5 48.5
    endloop
  endfacet
  facet normal -0 0 -1
    outer loop
      vertex -44 27 48.5
      vertex -50 2.5 48.5
      vertex -47 27 48.5
    endloop
  endfacet
  facet normal 0 0 -1
    outer loop
      vertex -50 30 48.5
      vertex -47 27 48.5
      vertex -50 2.5 48.5
    endloop
  endfacet
  facet normal 0 0 -1
    outer loop
      vertex -47 27 48.5
      vertex -50 30 48.5
      vertex -47 30 48.5
    endloop
  endfacet
  facet normal -0 0 -1
    outer loop
      vertex 47 30 48.5
      vertex -44 27 48.5
      vertex -44 30 48.5
    endloop
  endfacet
  facet normal -1 0 0
    outer loop
      vertex -50 2.5 45.5
      vertex -50 -2.5 45.5
      vertex -50 2.5 48.5
    endloop
  endfacet
  facet normal -1 0 0
    outer loop
      vertex -50 2.5 48.5
      vertex -50 30 51.5
      vertex -50 30 48.5
    endloop
  endfacet
  facet normal -1 0 0
    outer loop
      vertex -50 -2.5 48.5
      vertex -50 2.5 48.5
      vertex -50 -2.5 45.5
    endloop
  endfacet
  facet normal -1 0 0
    outer loop
      vertex -50 -2.5 48.5
      vertex -50 30 51.5
      vertex -50 2.5 48.5
    endloop
  endfacet
  facet normal -1 0 0
    outer loop
      vertex -50 -30 51.5
      vertex -50 -2.5 48.5
      vertex -50 -30 48.5
    endloop
  endfacet
  facet normal -1 0 0
    outer loop
      vertex -50 -2.5 48.5
      vertex -50 -30 51.5
      vertex -50 30 51.5
    endloop
  endfacet
  facet normal 0 1 -0
    outer loop
      vertex -44 30 0
      vertex -47 30 48.5
      vertex -44 30 48.5
    endloop
  endfacet
  facet normal 0 1 0
    outer loop
      vertex -47 30 48.5
      vertex -44 30 0
      vertex -47 30 0
    endloop
  endfacet
  facet normal 0 1 0
    outer loop
      vertex -44 30 48.5
      vertex 50 30 51.5
      vertex 47 30 48.5
    endloop
  endfacet
  facet normal 0 1 -0
    outer loop
      vertex 50 30 0
      vertex 47 30 48.5
      vertex 50 30 51.5
    endloop
  endfacet
  facet normal 0 1 0
    outer loop
      vertex 47 30 48.5
      vertex 50 30 0
      vertex 47 30 0
    endloop
  endfacet
  facet normal 0 1 0
    outer loop
      vertex 50 30 51.5
      vertex -44 30 48.5
      vertex -50 30 51.5
    endloop
  endfacet
  facet normal 0 1 -0
    outer loop
      vertex -47 30 48.5
      vertex -50 30 51.5
      vertex -44 30 48.5
    endloop
  endfacet
  facet normal 0 1 0
    outer loop
      vertex -50 30 51.5
      vertex -47 30 48.5
      vertex -50 30 48.5
    endloop
  endfacet
  facet normal 0 -1 0
    outer loop
      vertex -50 -30 48.5
      vertex 50 -30 51.5
      vertex -50 -30 51.5
    endloop
  endfacet
  facet normal 0 -1 -0
    outer loop
      vertex 50 -30 51.5
      vertex -50 -30 48.5
      vertex 50 -30 48.5
    endloop
  endfacet
  facet normal 0 0 -1
    outer loop
      vertex -50 -2.5 45.5
      vertex 50 2.5 45.5
      vertex 50 -2.5 45.5
    endloop
  endfacet
  facet normal -0 0 -1
    outer loop
      vertex 50 2.5 45.5
      vertex -50 -2.5 45.5
      vertex -50 2.5 45.5
    endloop
  endfacet
  facet normal 0 1 -0
    outer loop
      vertex 50 2.5 45.5
      vertex -50 2.5 48.5
      vertex 50 2.5 48.5
    endloop
  endfacet
  facet normal 0 1 0
    outer loop
      vertex -50 2.5 48.5
      vertex 50 2.5 45.5
      vertex -50 2.5 45.5
    endloop
  endfacet
  facet normal 0 -1 0
    outer loop
      vertex -50 -2.5 45.5
      vertex 50 -2.5 48.5
      vertex -50 -2.5 48.5
    endloop
  endfacet
  facet normal 0 -1 -0
    outer loop
      vertex 50 -2.5 48.5
      vertex -50 -2.5 45.5
      vertex 50 -2.5 45.5
    endloop
  endfacet
  facet normal 1 -0 0
    outer loop
      vertex 27 27 26.5
      vertex 27 30 23.5
      vertex 27 30 26.5
    endloop
  endfacet
  facet normal 1 0 0
    outer loop
      vertex 27 30 23.5
      vertex 27 27 26.5
      vertex 27 27 23.5
    endloop
  endfacet
  facet normal -0 0 1
    outer loop
      vertex -27 30 26.5
      vertex 27 27 26.5
      vertex 27 30 26.5
    endloop
  endfacet
  facet normal 0 0 1
    outer loop
      vertex 27 27 26.5
      vertex -27 30 26.5
      vertex -27 27 26.5
    endloop
  endfacet
  facet normal 0 0 -1
    outer loop
      vertex -27 27 23.5
      vertex 27 30 23.5
      vertex 27 27 23.5
    endloop
  endfacet
  facet normal -0 0 -1
    outer loop
      vertex 27 30 23.5
      vertex -27 27 23.5
      vertex -27 30 23.5
    endloop
  endfacet
  facet normal -1 0 0
    outer loop
      vertex -27 27 23.5
      vertex -27 30 26.5
      vertex -27 30 23.5
    endloop
  endfacet
  facet normal -1 -0 0
    outer loop
      vertex -27 30 26.5
      vertex -27 27 23.5
      vertex -27 27 26.5
    endloop
  endfacet
  facet normal 0 1 -0
    outer loop
      vertex 27 30 23.5
      vertex -27 30 26.5
      vertex 27 30 26.5
    endloop
  endfacet
  facet normal 0 1 0
    outer loop
      vertex -27 30 26.5
      vertex 27 30 23.5
      vertex -27 30 23.5
    endloop
  endfacet
  facet normal 0 -1 0
    outer loop
      vertex -27 27 23.5
      vertex 27 27 26.5
      vertex -27 27 26.5
    endloop
  endfacet
  facet normal 0 -1 -0
    outer loop
      vertex 27 27 26.5
      vertex -27 27 23.5
      vertex 27 27 23.5
    endloop
  endfacet
  facet normal 1 -0 0
    outer loop
      vertex 27 -30 26.5
      vertex 27 -27 23.5
      vertex 27 -27 26.5
    endloop
  endfacet
  facet normal 1 0 0
    outer loop
      vertex 27 -27 23.5
      vertex 27 -30 26.5
      vertex 27 -30 23.5
    endloop
  endfacet
  facet normal -0 0 1
    outer loop
      vertex -27 -27 26.5
      vertex 27 -30 26.5
      vertex 27 -27 26.5
    endloop
  endfacet
  facet normal 0 0 1
    outer loop
      vertex 27 -30 26.5
      vertex -27 -27 26.5
      vertex -27 -30 26.5
    endloop
  endfacet
  facet normal 0 0 -1
    outer loop
      vertex -27 -30 23.5
      vertex 27 -27 23.5
      vertex 27 -30 23.5
    endloop
  endfacet
  facet normal -0 0 -1
    outer loop
      vertex 27 -27 23.5
      vertex -27 -30 23.5
      vertex -27 -27 23.5
    endloop
  endfacet
  facet normal -1 0 0
    outer loop
      vertex -27 -30 23.5
      vertex -27 -27 26.5
      vertex -27 -27 23.5
    endloop
  endfacet
  facet normal -1 -0 0
    outer loop
      vertex -27 -27 26.5
      vertex -27 -30 23.5
      vertex -27 -30 26.5
    endloop
  endfacet
  facet normal 0 1 -0
    outer loop
      vertex 27 -27 23.5
      vertex -27 -27 26.5
      vertex 27 -27 26.5
    endloop
  endfacet
  facet normal 0 1 0
    outer loop
      vertex -27 -27 26.5
      vertex 27 -27 23.5
      vertex -27 -27 23.5
    endloop
  endfacet
  facet normal 0 -1 0
    outer loop
      vertex -27 -30 23.5
      vertex 27 -30 26.5
      vertex -27 -30 26.5
    endloop
  endfacet
  facet normal 0 -1 -0
    outer loop
      vertex 27 -30 26.5
      vertex -27 -30 23.5
      vertex 27 -30 23.5
    endloop
  endfacet
  facet normal 1 -0 0
    outer loop
      vertex -44 -27 48.5
      vertex -44 -24 0
      vertex -44 -24 48.5
    endloop
  endfacet
  facet normal 1 0 0
    outer loop
      vertex -44 -24 0
      vertex -44 -27 48.5
      vertex -44 -27 0
    endloop
  endfacet
  facet normal 0 0 -1
    outer loop
      vertex -47 -27 0
      vertex -44 -24 0
      vertex -44 -27 0
    endloop
  endfacet
  facet normal -0 0 -1
    outer loop
      vertex -44 -24 0
      vertex -47 -27 0
      vertex -47 -24 0
    endloop
  endfacet
  facet normal -1 0 0
    outer loop
      vertex -47 -27 0
      vertex -47 -24 48.5
      vertex -47 -24 0
    endloop
  endfacet
  facet normal -1 -0 0
    outer loop
      vertex -47 -24 48.5
      vertex -47 -27 0
      vertex -47 -27 48.5
    endloop
  endfacet
  facet normal 0 1 -0
    outer loop
      vertex -44 -24 0
      vertex -47 -24 48.5
      vertex -44 -24 48.5
    endloop
  endfacet
  facet normal 0 1 0
    outer loop
      vertex -47 -24 48.5
      vertex -44 -24 0
      vertex -47 -24 0
    endloop
  endfacet
  facet normal 0 -1 0
    outer loop
      vertex -47 -27 0
      vertex -44 -27 48.5
      vertex -47 -27 48.5
    endloop
  endfacet
  facet normal 0 -1 -0
    outer loop
      vertex -44 -27 48.5
      vertex -47 -27 0
      vertex -44 -27 0
    endloop
  endfacet
  facet normal 0 0 -1
    outer loop
      vertex 47 -27 0
      vertex 50 -24 0
      vertex 50 -27 0
    endloop
  endfacet
  facet normal -0 0 -1
    outer loop
      vertex 50 -24 0
      vertex 47 -27 0
      vertex 47 -24 0
    endloop
  endfacet
  facet normal -1 0 0
    outer loop
      vertex 47 -27 0
      vertex 47 -24 48.5
      vertex 47 -24 0
    endloop
  endfacet
  facet normal -1 -0 0
    outer loop
      vertex 47 -24 48.5
      vertex 47 -27 0
      vertex 47 -27 48.5
    endloop
  endfacet
  facet normal 0 1 -0
    outer loop
      vertex 50 -24 0
      vertex 47 -24 48.5
      vertex 50 -24 48.5
    endloop
  endfacet
  facet normal 0 1 0
    outer loop
      vertex 47 -24 48.5
      vertex 50 -24 0
      vertex 47 -24 0
    endloop
  endfacet
  facet normal 0 -1 0
    outer loop
      vertex 47 -27 0
      vertex 50 -27 48.5
      vertex 47 -27 48.5
    endloop
  endfacet
  facet normal 0 -1 -0
    outer loop
      vertex 50 -27 48.5
      vertex 47 -27 0
      vertex 50 -27 0
    endloop
  endfacet
  facet normal 1 -0 0
    outer loop
      vertex -44 27 48.5
      vertex -44 30 0
      vertex -44 30 48.5
    endloop
  endfacet
  facet normal 1 0 0
    outer loop
      vertex -44 30 0
      vertex -44 27 48.5
      vertex -44 27 0
    endloop
  endfacet
  facet normal 0 0 -1
    outer loop
      vertex -47 27 0
      vertex -44 30 0
      vertex -44 27 0
    endloop
  endfacet
  facet normal -0 0 -1
    outer loop
      vertex -44 30 0
      vertex -47 27 0
      vertex -47 30 0
    endloop
  endfacet
  facet normal -1 0 0
    outer loop
      vertex -47 27 0
      vertex -47 30 48.5
      vertex -47 30 0
    endloop
  endfacet
  facet normal -1 -0 0
    outer loop
      vertex -47 30 48.5
      vertex -47 27 0
      vertex -47 27 48.5
    endloop
  endfacet
  facet normal 0 -1 0
    outer loop
      vertex -47 27 0
      vertex -44 27 48.5
      vertex -47 27 48.5
    endloop
  endfacet
  facet normal 0 -1 -0
    outer loop
      vertex -44 27 48.5
      vertex -47 27 0
      vertex -44 27 0
    endloop
  endfacet
  facet normal 0 0 -1
    outer loop
      vertex 47 27 0
      vertex 50 30 0
      vertex 50 27 0
    endloop
  endfacet
  facet normal -0 0 -1
    outer loop
      vertex 50 30 0
      vertex 47 27 0
      vertex 47 30 0
    endloop
  endfacet
  facet normal -1 0 0
    outer loop
      vertex 47 27 0
      vertex 47 30 48.5
      vertex 47 30 0
    endloop
  endfacet
  facet normal -1 -0 0
    outer loop
      vertex 47 30 48.5
      vertex 47 27 0
      vertex 47 27 48.5
    endloop
  endfacet
  facet normal 0 -1 0
    outer loop
      vertex 47 27 0
      vertex 50 27 48.5
      vertex 47 27 48.5
    endloop
  endfacet
  facet normal 0 -1 -0
    outer loop
      vertex 50 27 48.5
      vertex 47 27 0
      vertex 50 27 0
    endloop
  endfacet
endsolid OpenSCAD_Model
