solid OpenSCAD_Model
  facet normal 1 0 0
    outer loop
      vertex -5 15 30
      vertex -5 -15 30
      vertex -5 15 10
    endloop
  endfacet
  facet normal 1 -0 0
    outer loop
      vertex -5 15 10
      vertex -5 20 -10
      vertex -5 20 10
    endloop
  endfacet
  facet normal 1 0 0
    outer loop
      vertex -5 -15 10
      vertex -5 15 10
      vertex -5 -15 30
    endloop
  endfacet
  facet normal 1 0 0
    outer loop
      vertex -5 15 10
      vertex -5 -15 10
      vertex -5 20 -10
    endloop
  endfacet
  facet normal 1 0 0
    outer loop
      vertex -5 -20 -10
      vertex -5 -15 10
      vertex -5 -20 10
    endloop
  endfacet
  facet normal 1 0 0
    outer loop
      vertex -5 -15 10
      vertex -5 -20 -10
      vertex -5 20 -10
    endloop
  endfacet
  facet normal 0 0 1
    outer loop
      vertex -5 20 10
      vertex -45 15 10
      vertex -5 15 10
    endloop
  endfacet
  facet normal 0 0 1
    outer loop
      vertex -45 15 10
      vertex -65 20 10
      vertex -45 -15 10
    endloop
  endfacet
  facet normal -0 0 1
    outer loop
      vertex -65 20 10
      vertex -45 15 10
      vertex -5 20 10
    endloop
  endfacet
  facet normal -0 0 1
    outer loop
      vertex -45 -15 10
      vertex -5 -20 10
      vertex -5 -15 10
    endloop
  endfacet
  facet normal 0 0 1
    outer loop
      vertex -45 -15 10
      vertex -65 -20 10
      vertex -5 -20 10
    endloop
  endfacet
  facet normal 0 0 1
    outer loop
      vertex -65 -20 10
      vertex -45 -15 10
      vertex -65 20 10
    endloop
  endfacet
  facet normal 0 0 -1
    outer loop
      vertex -65 -20 -10
      vertex -5 20 -10
      vertex -5 -20 -10
    endloop
  endfacet
  facet normal -0 0 -1
    outer loop
      vertex -5 20 -10
      vertex -65 -20 -10
      vertex -65 20 -10
    endloop
  endfacet
  facet normal -1 0 0
    outer loop
      vertex -65 -20 -10
      vertex -65 20 10
      vertex -65 20 -10
    endloop
  endfacet
  facet normal -1 -0 0
    outer loop
      vertex -65 20 10
      vertex -65 -20 -10
      vertex -65 -20 10
    endloop
  endfacet
  facet normal 0 1 -0
    outer loop
      vertex -5 20 -10
      vertex -65 20 10
      vertex -5 20 10
    endloop
  endfacet
  facet normal 0 1 0
    outer loop
      vertex -65 20 10
      vertex -5 20 -10
      vertex -65 20 -10
    endloop
  endfacet
  facet normal 0 -1 0
    outer loop
      vertex -65 -20 -10
      vertex -5 -20 10
      vertex -65 -20 10
    endloop
  endfacet
  facet normal 0 -1 -0
    outer loop
      vertex -5 -20 10
      vertex -65 -20 -10
      vertex -5 -20 -10
    endloop
  endfacet
  facet normal 1 -0 0
    outer loop
      vertex 65 -20 10
      vertex 65 20 -10
      vertex 65 20 10
    endloop
  endfacet
  facet normal 1 0 0
    outer loop
      vertex 65 20 -10
      vertex 65 -20 10
      vertex 65 -20 -10
    endloop
  endfacet
  facet normal 0 0 1
    outer loop
      vertex 65 20 10
      vertex 45 15 10
      vertex 65 -20 10
    endloop
  endfacet
  facet normal -0 0 1
    outer loop
      vertex 5 20 10
      vertex 45 15 10
      vertex 65 20 10
    endloop
  endfacet
  facet normal 0 0 1
    outer loop
      vertex 45 15 10
      vertex 5 20 10
      vertex 5 15 10
    endloop
  endfacet
  facet normal -0 0 1
    outer loop
      vertex 45 -15 10
      vertex 65 -20 10
      vertex 45 15 10
    endloop
  endfacet
  facet normal 0 0 1
    outer loop
      vertex 5 -20 10
      vertex 45 -15 10
      vertex 5 -15 10
    endloop
  endfacet
  facet normal 0 0 1
    outer loop
      vertex 45 -15 10
      vertex 5 -20 10
      vertex 65 -20 10
    endloop
  endfacet
  facet normal 0 0 -1
    outer loop
      vertex 5 -20 -10
      vertex 65 20 -10
      vertex 65 -20 -10
    endloop
  endfacet
  facet normal -0 0 -1
    outer loop
      vertex 65 20 -10
      vertex 5 -20 -10
      vertex 5 20 -10
    endloop
  endfacet
  facet normal -1 0 0
    outer loop
      vertex 5 20 -10
      vertex 5 15 10
      vertex 5 20 10
    endloop
  endfacet
  facet normal -1 0 0
    outer loop
      vertex 5 15 10
      vertex 5 -15 10
      vertex 5 15 30
    endloop
  endfacet
  facet normal -1 0 0
    outer loop
      vertex 5 20 -10
      vertex 5 -15 10
      vertex 5 15 10
    endloop
  endfacet
  facet normal -1 0 0
    outer loop
      vertex 5 -20 -10
      vertex 5 -15 10
      vertex 5 20 -10
    endloop
  endfacet
  facet normal -1 -0 0
    outer loop
      vertex 5 -15 10
      vertex 5 -20 -10
      vertex 5 -20 10
    endloop
  endfacet
  facet normal -1 -0 0
    outer loop
      vertex 5 15 30
      vertex 5 -15 10
      vertex 5 -15 30
    endloop
  endfacet
  facet normal 0 1 -0
    outer loop
      vertex 65 20 -10
      vertex 5 20 10
      vertex 65 20 10
    endloop
  endfacet
  facet normal 0 1 0
    outer loop
      vertex 5 20 10
      vertex 65 20 -10
      vertex 5 20 -10
    endloop
  endfacet
  facet normal 0 -1 0
    outer loop
      vertex 5 -20 -10
      vertex 65 -20 10
      vertex 5 -20 10
    endloop
  endfacet
  facet normal 0 -1 -0
    outer loop
      vertex 65 -20 10
      vertex 5 -20 -10
      vertex 65 -20 -10
    endloop
  endfacet
  facet normal -0 0 1
    outer loop
      vertex -45 15 30
      vertex -5 -15 30
      vertex -5 15 30
    endloop
  endfacet
  facet normal 0 0 1
    outer loop
      vertex -5 -15 30
      vertex -45 15 30
      vertex -45 -15 30
    endloop
  endfacet
  facet normal -1 0 0
    outer loop
      vertex -45 -15 10
      vertex -45 15 30
      vertex -45 15 10
    endloop
  endfacet
  facet normal -1 -0 0
    outer loop
      vertex -45 15 30
      vertex -45 -15 10
      vertex -45 -15 30
    endloop
  endfacet
  facet normal 0 1 -0
    outer loop
      vertex -5 15 10
      vertex -45 15 30
      vertex -5 15 30
    endloop
  endfacet
  facet normal 0 1 0
    outer loop
      vertex -45 15 30
      vertex -5 15 10
      vertex -45 15 10
    endloop
  endfacet
  facet normal 0 -1 0
    outer loop
      vertex -45 -15 10
      vertex -5 -15 30
      vertex -45 -15 30
    endloop
  endfacet
  facet normal 0 -1 -0
    outer loop
      vertex -5 -15 30
      vertex -45 -15 10
      vertex -5 -15 10
    endloop
  endfacet
  facet normal 1 -0 0
    outer loop
      vertex 45 -15 30
      vertex 45 15 10
      vertex 45 15 30
    endloop
  endfacet
  facet normal 1 0 0
    outer loop
      vertex 45 15 10
      vertex 45 -15 30
      vertex 45 -15 10
    endloop
  endfacet
  facet normal -0 0 1
    outer loop
      vertex 5 15 30
      vertex 45 -15 30
      vertex 45 15 30
    endloop
  endfacet
  facet normal 0 0 1
    outer loop
      vertex 45 -15 30
      vertex 5 15 30
      vertex 5 -15 30
    endloop
  endfacet
  facet normal 0 1 -0
    outer loop
      vertex 45 15 10
      vertex 5 15 30
      vertex 45 15 30
    endloop
  endfacet
  facet normal 0 1 0
    outer loop
      vertex 5 15 30
      vertex 45 15 10
      vertex 5 15 10
    endloop
  endfacet
  facet normal 0 -1 0
    outer loop
      vertex 5 -15 10
      vertex 45 -15 30
      vertex 5 -15 30
    endloop
  endfacet
  facet normal 0 -1 -0
    outer loop
      vertex 45 -15 30
      vertex 5 -15 10
      vertex 45 -15 10
    endloop
  endfacet
endsolid OpenSCAD_Model
