solid OpenSCAD_Model
  facet normal -0.92388 -0.382682 0
    outer loop
      vertex -1.76777 -1.76777 5
      vertex -2.5 0 55
      vertex -2.5 0 5
    endloop
  endfacet
  facet normal -0.92388 -0.382682 0
    outer loop
      vertex -2.5 0 55
      vertex -1.76777 -1.76777 5
      vertex -1.76777 -1.76777 55
    endloop
  endfacet
  facet normal 0.382682 0.92388 -0
    outer loop
      vertex 1.76777 1.76777 5
      vertex 0 2.5 55
      vertex 1.76777 1.76777 55
    endloop
  endfacet
  facet normal 0.382682 0.92388 0
    outer loop
      vertex 0 2.5 55
      vertex 1.76777 1.76777 5
      vertex 0 2.5 5
    endloop
  endfacet
  facet normal 0.92388 0.382682 0
    outer loop
      vertex 2.5 0 55
      vertex 1.76777 1.76777 5
      vertex 1.76777 1.76777 55
    endloop
  endfacet
  facet normal 0.92388 0.382682 0
    outer loop
      vertex 1.76777 1.76777 5
      vertex 2.5 0 55
      vertex 2.5 0 5
    endloop
  endfacet
  facet normal 0.92388 -0.382682 0
    outer loop
      vertex 1.76777 -1.76777 55
      vertex 2.5 0 5
      vertex 2.5 0 55
    endloop
  endfacet
  facet normal 0.92388 -0.382682 0
    outer loop
      vertex 2.5 0 5
      vertex 1.76777 -1.76777 55
      vertex 1.76777 -1.76777 5
    endloop
  endfacet
  facet normal -0.382682 -0.92388 0
    outer loop
      vertex -1.76777 -1.76777 5
      vertex 0 -2.5 55
      vertex -1.76777 -1.76777 55
    endloop
  endfacet
  facet normal -0.382682 -0.92388 -0
    outer loop
      vertex 0 -2.5 55
      vertex -1.76777 -1.76777 5
      vertex 0 -2.5 5
    endloop
  endfacet
  facet normal -0.382682 0.92388 0
    outer loop
      vertex 0 2.5 5
      vertex -1.76777 1.76777 55
      vertex 0 2.5 55
    endloop
  endfacet
  facet normal -0.382682 0.92388 0
    outer loop
      vertex -1.76777 1.76777 55
      vertex 0 2.5 5
      vertex -1.76777 1.76777 5
    endloop
  endfacet
  facet normal -0.92388 0.382682 0
    outer loop
      vertex -2.5 0 5
      vertex -1.76777 1.76777 55
      vertex -1.76777 1.76777 5
    endloop
  endfacet
  facet normal -0.92388 0.382682 0
    outer loop
      vertex -1.76777 1.76777 55
      vertex -2.5 0 5
      vertex -2.5 0 55
    endloop
  endfacet
  facet normal 0.382682 -0.92388 0
    outer loop
      vertex 0 -2.5 5
      vertex 1.76777 -1.76777 55
      vertex 0 -2.5 55
    endloop
  endfacet
  facet normal 0.382682 -0.92388 0
    outer loop
      vertex 1.76777 -1.76777 55
      vertex 0 -2.5 5
      vertex 1.76777 -1.76777 5
    endloop
  endfacet
  facet normal 0 0 1
    outer loop
      vertex 1.76777 1.76777 55
      vertex 1.76777 -1.76777 55
      vertex 2.5 0 55
    endloop
  endfacet
  facet normal 0 0 1
    outer loop
      vertex 0 2.5 55
      vertex 1.76777 -1.76777 55
      vertex 1.76777 1.76777 55
    endloop
  endfacet
  facet normal 0 0 1
    outer loop
      vertex 0 2.5 55
      vertex 0 -2.5 55
      vertex 1.76777 -1.76777 55
    endloop
  endfacet
  facet normal -0 0 1
    outer loop
      vertex -1.76777 1.76777 55
      vertex 0 -2.5 55
      vertex 0 2.5 55
    endloop
  endfacet
  facet normal 0 0 1
    outer loop
      vertex -1.76777 1.76777 55
      vertex -1.76777 -1.76777 55
      vertex 0 -2.5 55
    endloop
  endfacet
  facet normal 0 -0 1
    outer loop
      vertex -1.76777 -1.76777 55
      vertex -1.76777 1.76777 55
      vertex -2.5 0 55
    endloop
  endfacet
  facet normal 0 0 -1
    outer loop
      vertex 1.76777 -1.76777 5
      vertex 1.76777 1.76777 5
      vertex 2.5 0 5
    endloop
  endfacet
  facet normal 0 0 -1
    outer loop
      vertex 0 -2.5 5
      vertex 1.76777 1.76777 5
      vertex 1.76777 -1.76777 5
    endloop
  endfacet
  facet normal 0 0 -1
    outer loop
      vertex 0 -2.5 5
      vertex 0 2.5 5
      vertex 1.76777 1.76777 5
    endloop
  endfacet
  facet normal 0 0 -1
    outer loop
      vertex -1.76777 -1.76777 5
      vertex 0 2.5 5
      vertex 0 -2.5 5
    endloop
  endfacet
  facet normal 0 0 -1
    outer loop
      vertex -1.76777 -1.76777 5
      vertex -1.76777 1.76777 5
      vertex 0 2.5 5
    endloop
  endfacet
  facet normal 0 -0 -1
    outer loop
      vertex -1.76777 1.76777 5
      vertex -1.76777 -1.76777 5
      vertex -2.5 0 5
    endloop
  endfacet
  facet normal 0.382676 0.923883 -0
    outer loop
      vertex 11.7678 1.76777 5
      vertex 10 2.5 55
      vertex 11.7678 1.76777 55
    endloop
  endfacet
  facet normal 0.382676 0.923883 0
    outer loop
      vertex 10 2.5 55
      vertex 11.7678 1.76777 5
      vertex 10 2.5 5
    endloop
  endfacet
  facet normal 0.923886 0.382668 0
    outer loop
      vertex 12.5 0 55
      vertex 11.7678 1.76777 5
      vertex 11.7678 1.76777 55
    endloop
  endfacet
  facet normal 0.923886 0.382668 0
    outer loop
      vertex 11.7678 1.76777 5
      vertex 12.5 0 55
      vertex 12.5 0 5
    endloop
  endfacet
  facet normal -0.382682 0.92388 0
    outer loop
      vertex 10 2.5 5
      vertex 8.23223 1.76777 55
      vertex 10 2.5 55
    endloop
  endfacet
  facet normal -0.382682 0.92388 0
    outer loop
      vertex 8.23223 1.76777 55
      vertex 10 2.5 5
      vertex 8.23223 1.76777 5
    endloop
  endfacet
  facet normal 0 0 1
    outer loop
      vertex 11.7678 1.76777 55
      vertex 11.7678 -1.76777 55
      vertex 12.5 0 55
    endloop
  endfacet
  facet normal 0 0 1
    outer loop
      vertex 10 2.5 55
      vertex 11.7678 -1.76777 55
      vertex 11.7678 1.76777 55
    endloop
  endfacet
  facet normal 0 0 1
    outer loop
      vertex 10 2.5 55
      vertex 10 -2.5 55
      vertex 11.7678 -1.76777 55
    endloop
  endfacet
  facet normal -0 0 1
    outer loop
      vertex 8.23223 1.76777 55
      vertex 10 -2.5 55
      vertex 10 2.5 55
    endloop
  endfacet
  facet normal 0 0 1
    outer loop
      vertex 8.23223 1.76777 55
      vertex 8.23223 -1.76777 55
      vertex 10 -2.5 55
    endloop
  endfacet
  facet normal 0 -0 1
    outer loop
      vertex 8.23223 -1.76777 55
      vertex 8.23223 1.76777 55
      vertex 7.5 0 55
    endloop
  endfacet
  facet normal 0.923886 -0.382668 0
    outer loop
      vertex 11.7678 -1.76777 55
      vertex 12.5 0 5
      vertex 12.5 0 55
    endloop
  endfacet
  facet normal 0.923886 -0.382668 0
    outer loop
      vertex 12.5 0 5
      vertex 11.7678 -1.76777 55
      vertex 11.7678 -1.76777 5
    endloop
  endfacet
  facet normal -0.92388 0.382682 0
    outer loop
      vertex 7.5 0 5
      vertex 8.23223 1.76777 55
      vertex 8.23223 1.76777 5
    endloop
  endfacet
  facet normal -0.92388 0.382682 0
    outer loop
      vertex 8.23223 1.76777 55
      vertex 7.5 0 5
      vertex 7.5 0 55
    endloop
  endfacet
  facet normal -0.382682 -0.92388 0
    outer loop
      vertex 8.23223 -1.76777 5
      vertex 10 -2.5 55
      vertex 8.23223 -1.76777 55
    endloop
  endfacet
  facet normal -0.382682 -0.92388 -0
    outer loop
      vertex 10 -2.5 55
      vertex 8.23223 -1.76777 5
      vertex 10 -2.5 5
    endloop
  endfacet
  facet normal 0 0 -1
    outer loop
      vertex 11.7678 -1.76777 5
      vertex 11.7678 1.76777 5
      vertex 12.5 0 5
    endloop
  endfacet
  facet normal 0 0 -1
    outer loop
      vertex 10 -2.5 5
      vertex 11.7678 1.76777 5
      vertex 11.7678 -1.76777 5
    endloop
  endfacet
  facet normal 0 0 -1
    outer loop
      vertex 10 -2.5 5
      vertex 10 2.5 5
      vertex 11.7678 1.76777 5
    endloop
  endfacet
  facet normal 0 0 -1
    outer loop
      vertex 8.23223 -1.76777 5
      vertex 10 2.5 5
      vertex 10 -2.5 5
    endloop
  endfacet
  facet normal 0 0 -1
    outer loop
      vertex 8.23223 -1.76777 5
      vertex 8.23223 1.76777 5
      vertex 10 2.5 5
    endloop
  endfacet
  facet normal 0 -0 -1
    outer loop
      vertex 8.23223 1.76777 5
      vertex 8.23223 -1.76777 5
      vertex 7.5 0 5
    endloop
  endfacet
  facet normal 0.382676 -0.923883 0
    outer loop
      vertex 10 -2.5 5
      vertex 11.7678 -1.76777 55
      vertex 10 -2.5 55
    endloop
  endfacet
  facet normal 0.382676 -0.923883 0
    outer loop
      vertex 11.7678 -1.76777 55
      vertex 10 -2.5 5
      vertex 11.7678 -1.76777 5
    endloop
  endfacet
  facet normal -0.92388 -0.382682 0
    outer loop
      vertex 8.23223 -1.76777 5
      vertex 7.5 0 55
      vertex 7.5 0 5
    endloop
  endfacet
  facet normal -0.92388 -0.382682 0
    outer loop
      vertex 7.5 0 55
      vertex 8.23223 -1.76777 5
      vertex 8.23223 -1.76777 55
    endloop
  endfacet
  facet normal 0.382682 0.92388 -0
    outer loop
      vertex 6.76777 1.76777 0
      vertex 5 2.5 100
      vertex 6.76777 1.76777 100
    endloop
  endfacet
  facet normal 0.382682 0.92388 0
    outer loop
      vertex 5 2.5 100
      vertex 6.76777 1.76777 0
      vertex 5 2.5 0
    endloop
  endfacet
  facet normal 0.92388 0.382682 -0
    outer loop
      vertex 7.5 0 55
      vertex 6.76777 1.76777 100
      vertex 7.5 0 100
    endloop
  endfacet
  facet normal 0.92388 0.382682 0
    outer loop
      vertex 6.76777 1.76777 100
      vertex 7.5 0 55
      vertex 6.76777 1.76777 0
    endloop
  endfacet
  facet normal 0.92388 0.382682 -0
    outer loop
      vertex 7.5 0 5
      vertex 6.76777 1.76777 0
      vertex 7.5 0 55
    endloop
  endfacet
  facet normal 0.92388 0.382682 0
    outer loop
      vertex 6.76777 1.76777 0
      vertex 7.5 0 5
      vertex 7.5 0 0
    endloop
  endfacet
  facet normal -0.382682 0.92388 0
    outer loop
      vertex 5 2.5 0
      vertex 3.23223 1.76777 100
      vertex 5 2.5 100
    endloop
  endfacet
  facet normal -0.382682 0.92388 0
    outer loop
      vertex 3.23223 1.76777 100
      vertex 5 2.5 0
      vertex 3.23223 1.76777 0
    endloop
  endfacet
  facet normal 0 0 1
    outer loop
      vertex 6.76777 1.76777 100
      vertex 6.76777 -1.76777 100
      vertex 7.5 0 100
    endloop
  endfacet
  facet normal 0 0 1
    outer loop
      vertex 5 2.5 100
      vertex 6.76777 -1.76777 100
      vertex 6.76777 1.76777 100
    endloop
  endfacet
  facet normal 0 0 1
    outer loop
      vertex 5 2.5 100
      vertex 5 -2.5 100
      vertex 6.76777 -1.76777 100
    endloop
  endfacet
  facet normal -0 0 1
    outer loop
      vertex 3.23223 1.76777 100
      vertex 5 -2.5 100
      vertex 5 2.5 100
    endloop
  endfacet
  facet normal 0 0 1
    outer loop
      vertex 3.23223 1.76777 100
      vertex 3.23223 -1.76777 100
      vertex 5 -2.5 100
    endloop
  endfacet
  facet normal 0 -0 1
    outer loop
      vertex 3.23223 -1.76777 100
      vertex 3.23223 1.76777 100
      vertex 2.5 0 100
    endloop
  endfacet
  facet normal 0.92388 -0.382682 0
    outer loop
      vertex 6.76777 -1.76777 100
      vertex 7.5 0 55
      vertex 7.5 0 100
    endloop
  endfacet
  facet normal 0.92388 -0.382682 0
    outer loop
      vertex 6.76777 -1.76777 0
      vertex 7.5 0 55
      vertex 6.76777 -1.76777 100
    endloop
  endfacet
  facet normal 0.92388 -0.382682 0
    outer loop
      vertex 7.5 0 55
      vertex 6.76777 -1.76777 0
      vertex 7.5 0 5
    endloop
  endfacet
  facet normal 0.92388 -0.382682 0
    outer loop
      vertex 7.5 0 5
      vertex 6.76777 -1.76777 0
      vertex 7.5 0 0
    endloop
  endfacet
  facet normal -0.92388 0.382682 0
    outer loop
      vertex 2.5 0 5
      vertex 3.23223 1.76777 0
      vertex 2.5 0 0
    endloop
  endfacet
  facet normal -0.92388 0.382682 0
    outer loop
      vertex 2.5 0 55
      vertex 3.23223 1.76777 0
      vertex 2.5 0 5
    endloop
  endfacet
  facet normal -0.92388 0.382682 0
    outer loop
      vertex 3.23223 1.76777 0
      vertex 2.5 0 55
      vertex 3.23223 1.76777 100
    endloop
  endfacet
  facet normal -0.92388 0.382682 0
    outer loop
      vertex 3.23223 1.76777 100
      vertex 2.5 0 55
      vertex 2.5 0 100
    endloop
  endfacet
  facet normal -0.382682 -0.92388 0
    outer loop
      vertex 3.23223 -1.76777 0
      vertex 5 -2.5 100
      vertex 3.23223 -1.76777 100
    endloop
  endfacet
  facet normal -0.382682 -0.92388 -0
    outer loop
      vertex 5 -2.5 100
      vertex 3.23223 -1.76777 0
      vertex 5 -2.5 0
    endloop
  endfacet
  facet normal 0 0 -1
    outer loop
      vertex 6.76777 -1.76777 0
      vertex 6.76777 1.76777 0
      vertex 7.5 0 0
    endloop
  endfacet
  facet normal 0 0 -1
    outer loop
      vertex 5 -2.5 0
      vertex 6.76777 1.76777 0
      vertex 6.76777 -1.76777 0
    endloop
  endfacet
  facet normal 0 0 -1
    outer loop
      vertex 5 -2.5 0
      vertex 5 2.5 0
      vertex 6.76777 1.76777 0
    endloop
  endfacet
  facet normal 0 0 -1
    outer loop
      vertex 3.23223 -1.76777 0
      vertex 5 2.5 0
      vertex 5 -2.5 0
    endloop
  endfacet
  facet normal 0 0 -1
    outer loop
      vertex 3.23223 -1.76777 0
      vertex 3.23223 1.76777 0
      vertex 5 2.5 0
    endloop
  endfacet
  facet normal 0 -0 -1
    outer loop
      vertex 3.23223 1.76777 0
      vertex 3.23223 -1.76777 0
      vertex 2.5 0 0
    endloop
  endfacet
  facet normal 0.382682 -0.92388 0
    outer loop
      vertex 5 -2.5 0
      vertex 6.76777 -1.76777 100
      vertex 5 -2.5 100
    endloop
  endfacet
  facet normal 0.382682 -0.92388 0
    outer loop
      vertex 6.76777 -1.76777 100
      vertex 5 -2.5 0
      vertex 6.76777 -1.76777 0
    endloop
  endfacet
  facet normal -0.92388 -0.382682 0
    outer loop
      vertex 3.23223 -1.76777 0
      vertex 2.5 0 5
      vertex 2.5 0 0
    endloop
  endfacet
  facet normal -0.92388 -0.382682 0
    outer loop
      vertex 2.5 0 5
      vertex 3.23223 -1.76777 0
      vertex 2.5 0 55
    endloop
  endfacet
  facet normal -0.92388 -0.382682 -0
    outer loop
      vertex 3.23223 -1.76777 100
      vertex 2.5 0 55
      vertex 3.23223 -1.76777 0
    endloop
  endfacet
  facet normal -0.92388 -0.382682 0
    outer loop
      vertex 2.5 0 55
      vertex 3.23223 -1.76777 100
      vertex 2.5 0 100
    endloop
  endfacet
endsolid OpenSCAD_Model
