solid OpenSCAD_Model
  facet normal 1 -0 0
    outer loop
      vertex 25 -15 10
      vertex 25 15 -10
      vertex 25 15 10
    endloop
  endfacet
  facet normal 1 0 0
    outer loop
      vertex 25 15 -10
      vertex 25 -15 10
      vertex 25 -15 -10
    endloop
  endfacet
  facet normal 0 0 -1
    outer loop
      vertex -25 -15 10
      vertex -30 -15 10
      vertex -25 15 10
    endloop
  endfacet
  facet normal 0 0 -1
    outer loop
      vertex 25 15 10
      vertex 30 -15 10
      vertex 25 -15 10
    endloop
  endfacet
  facet normal 0 0 -1
    outer loop
      vertex 30 -15 10
      vertex 25 15 10
      vertex 30 25 10
    endloop
  endfacet
  facet normal 0 0 -1
    outer loop
      vertex -25 15 10
      vertex 30 25 10
      vertex 25 15 10
    endloop
  endfacet
  facet normal 0 0 -1
    outer loop
      vertex -25 15 10
      vertex -30 25 10
      vertex 30 25 10
    endloop
  endfacet
  facet normal 0 0 -1
    outer loop
      vertex -30 25 10
      vertex -25 15 10
      vertex -30 -15 10
    endloop
  endfacet
  facet normal 0 0 -1
    outer loop
      vertex -25 -15 -10
      vertex 25 15 -10
      vertex 25 -15 -10
    endloop
  endfacet
  facet normal -0 0 -1
    outer loop
      vertex 25 15 -10
      vertex -25 -15 -10
      vertex -25 15 -10
    endloop
  endfacet
  facet normal -1 0 0
    outer loop
      vertex -25 -15 -10
      vertex -25 15 10
      vertex -25 15 -10
    endloop
  endfacet
  facet normal -1 -0 0
    outer loop
      vertex -25 15 10
      vertex -25 -15 -10
      vertex -25 -15 10
    endloop
  endfacet
  facet normal 0 1 -0
    outer loop
      vertex 25 15 -10
      vertex -25 15 10
      vertex 25 15 10
    endloop
  endfacet
  facet normal 0 1 0
    outer loop
      vertex -25 15 10
      vertex 25 15 -10
      vertex -25 15 -10
    endloop
  endfacet
  facet normal 0 -1 0
    outer loop
      vertex -25 -15 -10
      vertex 25 -15 10
      vertex -25 -15 10
    endloop
  endfacet
  facet normal 0 -1 -0
    outer loop
      vertex 25 -15 10
      vertex -25 -15 -10
      vertex 25 -15 -10
    endloop
  endfacet
  facet normal 0 -1 0
    outer loop
      vertex -25 -15 10
      vertex -30 -15 12
      vertex -30 -15 10
    endloop
  endfacet
  facet normal 0 -1 0
    outer loop
      vertex -30 -15 12
      vertex -25 -15 10
      vertex 30 -15 12
    endloop
  endfacet
  facet normal 0 -1 0
    outer loop
      vertex 25 -15 10
      vertex 30 -15 12
      vertex -25 -15 10
    endloop
  endfacet
  facet normal 0 -1 -0
    outer loop
      vertex 30 -15 12
      vertex 25 -15 10
      vertex 30 -15 10
    endloop
  endfacet
  facet normal 1 -0 0
    outer loop
      vertex 30 -15 12
      vertex 30 25 10
      vertex 30 25 12
    endloop
  endfacet
  facet normal 1 0 0
    outer loop
      vertex 30 25 10
      vertex 30 -15 12
      vertex 30 -15 10
    endloop
  endfacet
  facet normal -0 0 1
    outer loop
      vertex -30 25 12
      vertex 30 -15 12
      vertex 30 25 12
    endloop
  endfacet
  facet normal 0 0 1
    outer loop
      vertex 30 -15 12
      vertex -30 25 12
      vertex -30 -15 12
    endloop
  endfacet
  facet normal -1 0 0
    outer loop
      vertex -30 -15 10
      vertex -30 25 12
      vertex -30 25 10
    endloop
  endfacet
  facet normal -1 -0 0
    outer loop
      vertex -30 25 12
      vertex -30 -15 10
      vertex -30 -15 12
    endloop
  endfacet
  facet normal 0 1 -0
    outer loop
      vertex 30 25 10
      vertex -30 25 12
      vertex 30 25 12
    endloop
  endfacet
  facet normal 0 1 0
    outer loop
      vertex -30 25 12
      vertex 30 25 10
      vertex -30 25 10
    endloop
  endfacet
  facet normal -1 0 0
    outer loop
      vertex 24 -14 -7
      vertex 24 14 11
      vertex 24 14 -7
    endloop
  endfacet
  facet normal -1 -0 0
    outer loop
      vertex 24 14 11
      vertex 24 -14 -7
      vertex 24 -14 11
    endloop
  endfacet
  facet normal 0 0 -1
    outer loop
      vertex -24 -14 11
      vertex 24 14 11
      vertex 24 -14 11
    endloop
  endfacet
  facet normal -0 0 -1
    outer loop
      vertex 24 14 11
      vertex -24 -14 11
      vertex -24 14 11
    endloop
  endfacet
  facet normal -0 0 1
    outer loop
      vertex -24 14 -7
      vertex 24 -14 -7
      vertex 24 14 -7
    endloop
  endfacet
  facet normal 0 0 1
    outer loop
      vertex 24 -14 -7
      vertex -24 14 -7
      vertex -24 -14 -7
    endloop
  endfacet
  facet normal 1 -0 0
    outer loop
      vertex -24 -14 11
      vertex -24 14 -7
      vertex -24 14 11
    endloop
  endfacet
  facet normal 1 0 0
    outer loop
      vertex -24 14 -7
      vertex -24 -14 11
      vertex -24 -14 -7
    endloop
  endfacet
  facet normal 0 -1 0
    outer loop
      vertex -24 14 -7
      vertex 24 14 11
      vertex -24 14 11
    endloop
  endfacet
  facet normal 0 -1 -0
    outer loop
      vertex 24 14 11
      vertex -24 14 -7
      vertex 24 14 -7
    endloop
  endfacet
  facet normal 0 1 -0
    outer loop
      vertex 24 -14 -7
      vertex -24 -14 11
      vertex 24 -14 11
    endloop
  endfacet
  facet normal 0 1 0
    outer loop
      vertex -24 -14 11
      vertex 24 -14 -7
      vertex -24 -14 -7
    endloop
  endfacet
endsolid OpenSCAD_Model
