solid OpenSCAD_Model
  facet normal 0.707107 0.707107 0
    outer loop
      vertex 3.2909 1.9 18.5
      vertex 1.9 3.2909 12.5
      vertex 1.9 3.2909 18.5
    endloop
  endfacet
  facet normal 0.707107 0.707107 0
    outer loop
      vertex 1.9 3.2909 12.5
      vertex 3.2909 1.9 18.5
      vertex 3.2909 1.9 12.5
    endloop
  endfacet
  facet normal 0.965926 0.258817 0
    outer loop
      vertex 3.8 0 18.5
      vertex 3.2909 1.9 12.5
      vertex 3.2909 1.9 18.5
    endloop
  endfacet
  facet normal 0.965926 0.258817 0
    outer loop
      vertex 3.2909 1.9 12.5
      vertex 3.8 0 18.5
      vertex 3.8 0 12.5
    endloop
  endfacet
  facet normal 0.258817 0.965926 -0
    outer loop
      vertex 1.9 3.2909 12.5
      vertex 0 3.8 18.5
      vertex 1.9 3.2909 18.5
    endloop
  endfacet
  facet normal 0.258817 0.965926 0
    outer loop
      vertex 0 3.8 18.5
      vertex 1.9 3.2909 12.5
      vertex 0 3.8 12.5
    endloop
  endfacet
  facet normal 0 0 -1
    outer loop
      vertex 3 0 12.5
      vertex 3.8 0 12.5
      vertex 3.2909 -1.9 12.5
    endloop
  endfacet
  facet normal 0 0 -1
    outer loop
      vertex 3.8 0 12.5
      vertex 3 0 12.5
      vertex 3.2909 1.9 12.5
    endloop
  endfacet
  facet normal 0 0 -1
    outer loop
      vertex 3.2909 -1.9 12.5
      vertex 2.42705 -1.76336 12.5
      vertex 3 0 12.5
    endloop
  endfacet
  facet normal 0 0 -1
    outer loop
      vertex 1.9 -3.2909 12.5
      vertex 2.42705 -1.76336 12.5
      vertex 3.2909 -1.9 12.5
    endloop
  endfacet
  facet normal 0 0 -1
    outer loop
      vertex 1.9 -3.2909 12.5
      vertex 0.927051 -2.85317 12.5
      vertex 2.42705 -1.76336 12.5
    endloop
  endfacet
  facet normal 0 0 -1
    outer loop
      vertex 0 -3.8 12.5
      vertex 0.927051 -2.85317 12.5
      vertex 1.9 -3.2909 12.5
    endloop
  endfacet
  facet normal 0 0 -1
    outer loop
      vertex 0 -3.8 12.5
      vertex -0.927051 -2.85317 12.5
      vertex 0.927051 -2.85317 12.5
    endloop
  endfacet
  facet normal 0 0 -1
    outer loop
      vertex -1.9 -3.2909 12.5
      vertex -0.927051 -2.85317 12.5
      vertex 0 -3.8 12.5
    endloop
  endfacet
  facet normal 0 0 -1
    outer loop
      vertex -1.9 -3.2909 12.5
      vertex -2.42705 -1.76336 12.5
      vertex -0.927051 -2.85317 12.5
    endloop
  endfacet
  facet normal -0 0 -1
    outer loop
      vertex -2.42705 -1.76336 12.5
      vertex -3.2909 -1.9 12.5
      vertex -3 0 12.5
    endloop
  endfacet
  facet normal 0 0 -1
    outer loop
      vertex -3.2909 -1.9 12.5
      vertex -2.42705 -1.76336 12.5
      vertex -1.9 -3.2909 12.5
    endloop
  endfacet
  facet normal 0 0 -1
    outer loop
      vertex 2.42705 1.76336 12.5
      vertex 3.2909 1.9 12.5
      vertex 3 0 12.5
    endloop
  endfacet
  facet normal 0 0 -1
    outer loop
      vertex 2.42705 1.76336 12.5
      vertex 1.9 3.2909 12.5
      vertex 3.2909 1.9 12.5
    endloop
  endfacet
  facet normal 0 0 -1
    outer loop
      vertex 0.927051 2.85317 12.5
      vertex 1.9 3.2909 12.5
      vertex 2.42705 1.76336 12.5
    endloop
  endfacet
  facet normal 0 0 -1
    outer loop
      vertex 0.927051 2.85317 12.5
      vertex 0 3.8 12.5
      vertex 1.9 3.2909 12.5
    endloop
  endfacet
  facet normal 0 0 -1
    outer loop
      vertex -0.927051 2.85317 12.5
      vertex 0 3.8 12.5
      vertex 0.927051 2.85317 12.5
    endloop
  endfacet
  facet normal 0 0 -1
    outer loop
      vertex -0.927051 2.85317 12.5
      vertex -1.9 3.2909 12.5
      vertex 0 3.8 12.5
    endloop
  endfacet
  facet normal 0 0 -1
    outer loop
      vertex -2.42705 1.76336 12.5
      vertex -1.9 3.2909 12.5
      vertex -0.927051 2.85317 12.5
    endloop
  endfacet
  facet normal 0 0 -1
    outer loop
      vertex -2.42705 1.76336 12.5
      vertex -3.2909 1.9 12.5
      vertex -1.9 3.2909 12.5
    endloop
  endfacet
  facet normal 0 0 -1
    outer loop
      vertex -3 0 12.5
      vertex -3.2909 1.9 12.5
      vertex -2.42705 1.76336 12.5
    endloop
  endfacet
  facet normal 0 0 -1
    outer loop
      vertex -3.8 0 12.5
      vertex -3 0 12.5
      vertex -3.2909 -1.9 12.5
    endloop
  endfacet
  facet normal 0 0 -1
    outer loop
      vertex -3 0 12.5
      vertex -3.8 0 12.5
      vertex -3.2909 1.9 12.5
    endloop
  endfacet
  facet normal 0 0 -1
    outer loop
      vertex 0.463525 -1.42658 12.5
      vertex 0.463525 1.42658 12.5
      vertex 1.5 0 12.5
    endloop
  endfacet
  facet normal 0 0 -1
    outer loop
      vertex -1.21352 -0.881678 12.5
      vertex 0.463525 1.42658 12.5
      vertex 0.463525 -1.42658 12.5
    endloop
  endfacet
  facet normal 0 0 -1
    outer loop
      vertex 0.463525 1.42658 12.5
      vertex -1.21352 -0.881678 12.5
      vertex -1.21352 0.881678 12.5
    endloop
  endfacet
  facet normal -0 0 1
    outer loop
      vertex 2 0.275277 18.5
      vertex 3.8 0 18.5
      vertex 3.2909 1.9 18.5
    endloop
  endfacet
  facet normal 0 0 1
    outer loop
      vertex 2 -0.275277 18.5
      vertex 3.8 0 18.5
      vertex 2 0.275277 18.5
    endloop
  endfacet
  facet normal 0 0 1
    outer loop
      vertex 1.9 3.2909 18.5
      vertex 2 0.275277 18.5
      vertex 3.2909 1.9 18.5
    endloop
  endfacet
  facet normal 0 0 1
    outer loop
      vertex 0 3.8 18.5
      vertex 2 0.275277 18.5
      vertex 1.9 3.2909 18.5
    endloop
  endfacet
  facet normal 0 0 1
    outer loop
      vertex -2 0.275277 18.5
      vertex 0 3.8 18.5
      vertex -1.9 3.2909 18.5
    endloop
  endfacet
  facet normal 0 0 1
    outer loop
      vertex 0 3.8 18.5
      vertex -2 0.275277 18.5
      vertex 2 0.275277 18.5
    endloop
  endfacet
  facet normal 0 0 1
    outer loop
      vertex -3.8 0 18.5
      vertex -2 0.275277 18.5
      vertex -3.2909 1.9 18.5
    endloop
  endfacet
  facet normal -0 0 1
    outer loop
      vertex -3.2909 1.9 18.5
      vertex -2 0.275277 18.5
      vertex -1.9 3.2909 18.5
    endloop
  endfacet
  facet normal 0 0 1
    outer loop
      vertex 3.8 0 18.5
      vertex 2 -0.275277 18.5
      vertex 3.2909 -1.9 18.5
    endloop
  endfacet
  facet normal 0 0 1
    outer loop
      vertex 2 -0.275277 18.5
      vertex 1.9 -3.2909 18.5
      vertex 3.2909 -1.9 18.5
    endloop
  endfacet
  facet normal 0 0 1
    outer loop
      vertex 2 -0.275277 18.5
      vertex 0 -3.8 18.5
      vertex 1.9 -3.2909 18.5
    endloop
  endfacet
  facet normal -0 0 1
    outer loop
      vertex -2 -0.275277 18.5
      vertex 0 -3.8 18.5
      vertex 2 -0.275277 18.5
    endloop
  endfacet
  facet normal 0 0 1
    outer loop
      vertex 0 -3.8 18.5
      vertex -2 -0.275277 18.5
      vertex -1.9 -3.2909 18.5
    endloop
  endfacet
  facet normal 0 0 1
    outer loop
      vertex -2 0.275277 18.5
      vertex -3.8 0 18.5
      vertex -2 -0.275277 18.5
    endloop
  endfacet
  facet normal 0 0 1
    outer loop
      vertex -2 -0.275277 18.5
      vertex -3.2909 -1.9 18.5
      vertex -1.9 -3.2909 18.5
    endloop
  endfacet
  facet normal 0 0 1
    outer loop
      vertex -2 -0.275277 18.5
      vertex -3.8 0 18.5
      vertex -3.2909 -1.9 18.5
    endloop
  endfacet
  facet normal 0.965926 -0.258817 0
    outer loop
      vertex 3.2909 -1.9 18.5
      vertex 3.8 0 12.5
      vertex 3.8 0 18.5
    endloop
  endfacet
  facet normal 0.965926 -0.258817 0
    outer loop
      vertex 3.8 0 12.5
      vertex 3.2909 -1.9 18.5
      vertex 3.2909 -1.9 12.5
    endloop
  endfacet
  facet normal -0.707107 0.707107 0
    outer loop
      vertex -3.2909 1.9 12.5
      vertex -1.9 3.2909 18.5
      vertex -1.9 3.2909 12.5
    endloop
  endfacet
  facet normal -0.707107 0.707107 0
    outer loop
      vertex -1.9 3.2909 18.5
      vertex -3.2909 1.9 12.5
      vertex -3.2909 1.9 18.5
    endloop
  endfacet
  facet normal -0.258817 -0.965926 0
    outer loop
      vertex -1.9 -3.2909 12.5
      vertex 0 -3.8 18.5
      vertex -1.9 -3.2909 18.5
    endloop
  endfacet
  facet normal -0.258817 -0.965926 -0
    outer loop
      vertex 0 -3.8 18.5
      vertex -1.9 -3.2909 12.5
      vertex 0 -3.8 12.5
    endloop
  endfacet
  facet normal -0.965926 0.258817 0
    outer loop
      vertex -3.8 0 12.5
      vertex -3.2909 1.9 18.5
      vertex -3.2909 1.9 12.5
    endloop
  endfacet
  facet normal -0.965926 0.258817 0
    outer loop
      vertex -3.2909 1.9 18.5
      vertex -3.8 0 12.5
      vertex -3.8 0 18.5
    endloop
  endfacet
  facet normal 0.707107 -0.707107 0
    outer loop
      vertex 1.9 -3.2909 18.5
      vertex 3.2909 -1.9 12.5
      vertex 3.2909 -1.9 18.5
    endloop
  endfacet
  facet normal 0.707107 -0.707107 0
    outer loop
      vertex 3.2909 -1.9 12.5
      vertex 1.9 -3.2909 18.5
      vertex 1.9 -3.2909 12.5
    endloop
  endfacet
  facet normal -0.258817 0.965926 0
    outer loop
      vertex 0 3.8 12.5
      vertex -1.9 3.2909 18.5
      vertex 0 3.8 18.5
    endloop
  endfacet
  facet normal -0.258817 0.965926 0
    outer loop
      vertex -1.9 3.2909 18.5
      vertex 0 3.8 12.5
      vertex -1.9 3.2909 12.5
    endloop
  endfacet
  facet normal 0.258817 -0.965926 0
    outer loop
      vertex 0 -3.8 12.5
      vertex 1.9 -3.2909 18.5
      vertex 0 -3.8 18.5
    endloop
  endfacet
  facet normal 0.258817 -0.965926 0
    outer loop
      vertex 1.9 -3.2909 18.5
      vertex 0 -3.8 12.5
      vertex 1.9 -3.2909 12.5
    endloop
  endfacet
  facet normal -0.707107 -0.707107 0
    outer loop
      vertex -1.9 -3.2909 12.5
      vertex -3.2909 -1.9 18.5
      vertex -3.2909 -1.9 12.5
    endloop
  endfacet
  facet normal -0.707107 -0.707107 0
    outer loop
      vertex -3.2909 -1.9 18.5
      vertex -1.9 -3.2909 12.5
      vertex -1.9 -3.2909 18.5
    endloop
  endfacet
  facet normal -0.965926 -0.258817 0
    outer loop
      vertex -3.2909 -1.9 12.5
      vertex -3.8 0 18.5
      vertex -3.8 0 12.5
    endloop
  endfacet
  facet normal -0.965926 -0.258817 0
    outer loop
      vertex -3.8 0 18.5
      vertex -3.2909 -1.9 12.5
      vertex -3.2909 -1.9 18.5
    endloop
  endfacet
  facet normal 0 0.587803 -0.809004
    outer loop
      vertex -2 0.275277 18.5
      vertex 2 0.665739 18.7837
      vertex 2 0.275277 18.5
    endloop
  endfacet
  facet normal 0 0.587803 -0.809004
    outer loop
      vertex 2 0.665739 18.7837
      vertex -2 0.275277 18.5
      vertex -2 0.665739 18.7837
    endloop
  endfacet
  facet normal 0 0.951054 0.309026
    outer loop
      vertex 2 0.665739 18.7837
      vertex -2 0.411449 19.5663
      vertex 2 0.411449 19.5663
    endloop
  endfacet
  facet normal 0 0.951054 0.309026
    outer loop
      vertex -2 0.411449 19.5663
      vertex 2 0.665739 18.7837
      vertex -2 0.665739 18.7837
    endloop
  endfacet
  facet normal -0 0 1
    outer loop
      vertex -2 0.411449 19.5663
      vertex 2 -0.411449 19.5663
      vertex 2 0.411449 19.5663
    endloop
  endfacet
  facet normal 0 0 1
    outer loop
      vertex 2 -0.411449 19.5663
      vertex -2 0.411449 19.5663
      vertex -2 -0.411449 19.5663
    endloop
  endfacet
  facet normal 0 -0.951054 0.309026
    outer loop
      vertex -2 -0.665739 18.7837
      vertex 2 -0.411449 19.5663
      vertex -2 -0.411449 19.5663
    endloop
  endfacet
  facet normal 0 -0.951054 0.309026
    outer loop
      vertex 2 -0.411449 19.5663
      vertex -2 -0.665739 18.7837
      vertex 2 -0.665739 18.7837
    endloop
  endfacet
  facet normal -1 0 0
    outer loop
      vertex -2 0.275277 18.5
      vertex -2 0.411449 19.5663
      vertex -2 0.665739 18.7837
    endloop
  endfacet
  facet normal -1 0 0
    outer loop
      vertex -2 -0.275277 18.5
      vertex -2 0.411449 19.5663
      vertex -2 0.275277 18.5
    endloop
  endfacet
  facet normal -1 0 0
    outer loop
      vertex -2 -0.275277 18.5
      vertex -2 -0.411449 19.5663
      vertex -2 0.411449 19.5663
    endloop
  endfacet
  facet normal -1 0 -0
    outer loop
      vertex -2 -0.411449 19.5663
      vertex -2 -0.275277 18.5
      vertex -2 -0.665739 18.7837
    endloop
  endfacet
  facet normal 1 0 0
    outer loop
      vertex 2 0.411449 19.5663
      vertex 2 0.275277 18.5
      vertex 2 0.665739 18.7837
    endloop
  endfacet
  facet normal 1 0 0
    outer loop
      vertex 2 0.411449 19.5663
      vertex 2 -0.275277 18.5
      vertex 2 0.275277 18.5
    endloop
  endfacet
  facet normal 1 -0 0
    outer loop
      vertex 2 -0.411449 19.5663
      vertex 2 -0.275277 18.5
      vertex 2 0.411449 19.5663
    endloop
  endfacet
  facet normal 1 0 0
    outer loop
      vertex 2 -0.275277 18.5
      vertex 2 -0.411449 19.5663
      vertex 2 -0.665739 18.7837
    endloop
  endfacet
  facet normal 0 -0.587803 -0.809004
    outer loop
      vertex -2 -0.665739 18.7837
      vertex 2 -0.275277 18.5
      vertex 2 -0.665739 18.7837
    endloop
  endfacet
  facet normal -0 -0.587803 -0.809004
    outer loop
      vertex 2 -0.275277 18.5
      vertex -2 -0.665739 18.7837
      vertex -2 -0.275277 18.5
    endloop
  endfacet
  facet normal -0.951057 -0.309017 0
    outer loop
      vertex -2.42705 -1.76336 6
      vertex -3 0 12.5
      vertex -3 0 6
    endloop
  endfacet
  facet normal -0.951057 -0.309017 0
    outer loop
      vertex -3 0 12.5
      vertex -2.42705 -1.76336 6
      vertex -2.42705 -1.76336 12.5
    endloop
  endfacet
  facet normal 0.587784 0.809018 -0
    outer loop
      vertex 2.42705 1.76336 6
      vertex 0.927051 2.85317 12.5
      vertex 2.42705 1.76336 12.5
    endloop
  endfacet
  facet normal 0.587784 0.809018 0
    outer loop
      vertex 0.927051 2.85317 12.5
      vertex 2.42705 1.76336 6
      vertex 0.927051 2.85317 6
    endloop
  endfacet
  facet normal 0.951057 0.309017 0
    outer loop
      vertex 3 0 12.5
      vertex 2.42705 1.76336 6
      vertex 2.42705 1.76336 12.5
    endloop
  endfacet
  facet normal 0.951057 0.309017 0
    outer loop
      vertex 2.42705 1.76336 6
      vertex 3 0 12.5
      vertex 3 0 6
    endloop
  endfacet
  facet normal 0 1 -0
    outer loop
      vertex 0.927051 2.85317 6
      vertex -0.927051 2.85317 12.5
      vertex 0.927051 2.85317 12.5
    endloop
  endfacet
  facet normal 0 1 0
    outer loop
      vertex -0.927051 2.85317 12.5
      vertex 0.927051 2.85317 6
      vertex -0.927051 2.85317 6
    endloop
  endfacet
  facet normal -0.587784 -0.809018 0
    outer loop
      vertex -2.42705 -1.76336 6
      vertex -0.927051 -2.85317 12.5
      vertex -2.42705 -1.76336 12.5
    endloop
  endfacet
  facet normal -0.587784 -0.809018 -0
    outer loop
      vertex -0.927051 -2.85317 12.5
      vertex -2.42705 -1.76336 6
      vertex -0.927051 -2.85317 6
    endloop
  endfacet
  facet normal 0.951057 -0.309017 0
    outer loop
      vertex 2.42705 -1.76336 12.5
      vertex 3 0 6
      vertex 3 0 12.5
    endloop
  endfacet
  facet normal 0.951057 -0.309017 0
    outer loop
      vertex 3 0 6
      vertex 2.42705 -1.76336 12.5
      vertex 2.42705 -1.76336 6
    endloop
  endfacet
  facet normal -0.587784 0.809018 0
    outer loop
      vertex -0.927051 2.85317 6
      vertex -2.42705 1.76336 12.5
      vertex -0.927051 2.85317 12.5
    endloop
  endfacet
  facet normal -0.587784 0.809018 0
    outer loop
      vertex -2.42705 1.76336 12.5
      vertex -0.927051 2.85317 6
      vertex -2.42705 1.76336 6
    endloop
  endfacet
  facet normal 0 -1 0
    outer loop
      vertex -0.927051 -2.85317 6
      vertex 0.927051 -2.85317 12.5
      vertex -0.927051 -2.85317 12.5
    endloop
  endfacet
  facet normal 0 -1 -0
    outer loop
      vertex 0.927051 -2.85317 12.5
      vertex -0.927051 -2.85317 6
      vertex 0.927051 -2.85317 6
    endloop
  endfacet
  facet normal 0.587784 -0.809018 0
    outer loop
      vertex 0.927051 -2.85317 6
      vertex 2.42705 -1.76336 12.5
      vertex 0.927051 -2.85317 12.5
    endloop
  endfacet
  facet normal 0.587784 -0.809018 0
    outer loop
      vertex 2.42705 -1.76336 12.5
      vertex 0.927051 -2.85317 6
      vertex 2.42705 -1.76336 6
    endloop
  endfacet
  facet normal -0.951057 0.309017 0
    outer loop
      vertex -3 0 6
      vertex -2.42705 1.76336 12.5
      vertex -2.42705 1.76336 6
    endloop
  endfacet
  facet normal -0.951057 0.309017 0
    outer loop
      vertex -2.42705 1.76336 12.5
      vertex -3 0 6
      vertex -3 0 12.5
    endloop
  endfacet
  facet normal 0 0 -1
    outer loop
      vertex 2.35 0 6
      vertex 3 0 6
      vertex 2.42705 -1.76336 6
    endloop
  endfacet
  facet normal 0 0 -1
    outer loop
      vertex 3 0 6
      vertex 2.35 0 6
      vertex 2.42705 1.76336 6
    endloop
  endfacet
  facet normal 0 0 -1
    outer loop
      vertex 2.42705 -1.76336 6
      vertex 1.6617 -1.6617 6
      vertex 2.35 0 6
    endloop
  endfacet
  facet normal 0 0 -1
    outer loop
      vertex 0.927051 -2.85317 6
      vertex 1.6617 -1.6617 6
      vertex 2.42705 -1.76336 6
    endloop
  endfacet
  facet normal 0 0 -1
    outer loop
      vertex 0.927051 -2.85317 6
      vertex 0 -2.35 6
      vertex 1.6617 -1.6617 6
    endloop
  endfacet
  facet normal 0 0 -1
    outer loop
      vertex -0.927051 -2.85317 6
      vertex 0 -2.35 6
      vertex 0.927051 -2.85317 6
    endloop
  endfacet
  facet normal 0 0 -1
    outer loop
      vertex -0.927051 -2.85317 6
      vertex -1.6617 -1.6617 6
      vertex 0 -2.35 6
    endloop
  endfacet
  facet normal -0 0 -1
    outer loop
      vertex -1.6617 -1.6617 6
      vertex -2.42705 -1.76336 6
      vertex -2.35 0 6
    endloop
  endfacet
  facet normal 0 0 -1
    outer loop
      vertex -2.42705 -1.76336 6
      vertex -1.6617 -1.6617 6
      vertex -0.927051 -2.85317 6
    endloop
  endfacet
  facet normal 0 0 -1
    outer loop
      vertex 1.6617 1.6617 6
      vertex 2.42705 1.76336 6
      vertex 2.35 0 6
    endloop
  endfacet
  facet normal 0 0 -1
    outer loop
      vertex 1.6617 1.6617 6
      vertex 0.927051 2.85317 6
      vertex 2.42705 1.76336 6
    endloop
  endfacet
  facet normal 0 0 -1
    outer loop
      vertex 0 2.35 6
      vertex 0.927051 2.85317 6
      vertex 1.6617 1.6617 6
    endloop
  endfacet
  facet normal 0 0 -1
    outer loop
      vertex 0 2.35 6
      vertex -0.927051 2.85317 6
      vertex 0.927051 2.85317 6
    endloop
  endfacet
  facet normal 0 0 -1
    outer loop
      vertex -1.6617 1.6617 6
      vertex -0.927051 2.85317 6
      vertex 0 2.35 6
    endloop
  endfacet
  facet normal 0 0 -1
    outer loop
      vertex -1.6617 1.6617 6
      vertex -2.42705 1.76336 6
      vertex -0.927051 2.85317 6
    endloop
  endfacet
  facet normal 0 0 -1
    outer loop
      vertex -2.35 0 6
      vertex -2.42705 1.76336 6
      vertex -1.6617 1.6617 6
    endloop
  endfacet
  facet normal 0 0 -1
    outer loop
      vertex -3 0 6
      vertex -2.35 0 6
      vertex -2.42705 -1.76336 6
    endloop
  endfacet
  facet normal 0 0 -1
    outer loop
      vertex -2.35 0 6
      vertex -3 0 6
      vertex -2.42705 1.76336 6
    endloop
  endfacet
  facet normal 0 0 1
    outer loop
      vertex 0.463525 1.42658 6
      vertex 0.463525 -1.42658 6
      vertex 1.5 0 6
    endloop
  endfacet
  facet normal -0 0 1
    outer loop
      vertex -1.21352 0.881678 6
      vertex 0.463525 -1.42658 6
      vertex 0.463525 1.42658 6
    endloop
  endfacet
  facet normal 0 0 1
    outer loop
      vertex 0.463525 -1.42658 6
      vertex -1.21352 0.881678 6
      vertex -1.21352 -0.881678 6
    endloop
  endfacet
  facet normal 0.309015 0.951057 -0
    outer loop
      vertex 0.463525 -1.42658 6
      vertex -1.21352 -0.881678 12.5
      vertex 0.463525 -1.42658 12.5
    endloop
  endfacet
  facet normal 0.309015 0.951057 0
    outer loop
      vertex -1.21352 -0.881678 12.5
      vertex 0.463525 -1.42658 6
      vertex -1.21352 -0.881678 6
    endloop
  endfacet
  facet normal 0.309015 -0.951057 0
    outer loop
      vertex -1.21352 0.881678 6
      vertex 0.463525 1.42658 12.5
      vertex -1.21352 0.881678 12.5
    endloop
  endfacet
  facet normal 0.309015 -0.951057 0
    outer loop
      vertex 0.463525 1.42658 12.5
      vertex -1.21352 0.881678 6
      vertex 0.463525 1.42658 6
    endloop
  endfacet
  facet normal -0.809016 -0.587787 0
    outer loop
      vertex 1.5 0 6
      vertex 0.463525 1.42658 12.5
      vertex 0.463525 1.42658 6
    endloop
  endfacet
  facet normal -0.809016 -0.587787 0
    outer loop
      vertex 0.463525 1.42658 12.5
      vertex 1.5 0 6
      vertex 1.5 0 12.5
    endloop
  endfacet
  facet normal 1 -0 0
    outer loop
      vertex -1.21352 -0.881678 12.5
      vertex -1.21352 0.881678 6
      vertex -1.21352 0.881678 12.5
    endloop
  endfacet
  facet normal 1 0 0
    outer loop
      vertex -1.21352 0.881678 6
      vertex -1.21352 -0.881678 12.5
      vertex -1.21352 -0.881678 6
    endloop
  endfacet
  facet normal -0.809016 0.587787 0
    outer loop
      vertex 0.463525 -1.42658 6
      vertex 1.5 0 12.5
      vertex 1.5 0 6
    endloop
  endfacet
  facet normal -0.809016 0.587787 0
    outer loop
      vertex 1.5 0 12.5
      vertex 0.463525 -1.42658 6
      vertex 0.463525 -1.42658 12.5
    endloop
  endfacet
  facet normal -0.923879 -0.382684 0
    outer loop
      vertex -1.6617 -1.6617 -2
      vertex -2.09907 -0.605798 1.69014
      vertex -2.09907 -0.605798 -2
    endloop
  endfacet
  facet normal -0.923868 -0.382711 8.99561e-06
    outer loop
      vertex -2.09907 -0.605798 1.69014
      vertex -1.6617 -1.6617 -2
      vertex -2.05454 -0.713292 1.76824
    endloop
  endfacet
  facet normal -0.92388 -0.382682 -0
    outer loop
      vertex -1.6617 -1.6617 6
      vertex -1.99728 -0.851534 3.4
      vertex -1.6617 -1.6617 -2
    endloop
  endfacet
  facet normal -0.923881 -0.382679 -5.11495e-07
    outer loop
      vertex -2.05454 -0.713292 1.76824
      vertex -1.6617 -1.6617 -2
      vertex -1.99728 -0.851534 3.4
    endloop
  endfacet
  facet normal -0.923882 -0.382678 0
    outer loop
      vertex -2.35 0 2.60676
      vertex -2.20086 -0.360062 3.4
      vertex -2.35 0 3.5
    endloop
  endfacet
  facet normal -0.923881 -0.382681 -1.56601e-06
    outer loop
      vertex -2.1674 -0.440839 2.60676
      vertex -2.20086 -0.360062 3.4
      vertex -2.35 0 2.60676
    endloop
  endfacet
  facet normal -0.923874 -0.382696 -2.19776e-06
    outer loop
      vertex -1.99728 -0.851534 3.4
      vertex -2.1674 -0.440839 2.60676
      vertex -2.05454 -0.713292 1.76824
    endloop
  endfacet
  facet normal -0.923876 -0.382692 -1.69345e-07
    outer loop
      vertex -2.1674 -0.440839 2.60676
      vertex -1.99728 -0.851534 3.4
      vertex -2.20086 -0.360062 3.4
    endloop
  endfacet
  facet normal -0.923882 -0.382678 0
    outer loop
      vertex -2.35 0 3.5
      vertex -2.20086 -0.360062 3.4
      vertex -2.20086 -0.360062 3.5
    endloop
  endfacet
  facet normal -0.923878 -0.382686 0
    outer loop
      vertex -1.99728 -0.851534 4.6
      vertex -2.35 0 6
      vertex -2.35 0 4.6
    endloop
  endfacet
  facet normal -0.923879 -0.382684 -1.57733e-06
    outer loop
      vertex -1.99728 -0.851534 4.6
      vertex -1.6617 -1.6617 6
      vertex -2.35 0 6
    endloop
  endfacet
  facet normal -0.92388 -0.382682 0
    outer loop
      vertex -1.99728 -0.851534 3.4
      vertex -1.6617 -1.6617 6
      vertex -1.99728 -0.851534 4.6
    endloop
  endfacet
  facet normal -0.923882 -0.382678 0
    outer loop
      vertex -2.20086 -0.360062 0.5
      vertex -2.35 0 1.25
      vertex -2.35 0 0.5
    endloop
  endfacet
  facet normal -0.923882 -0.382678 0
    outer loop
      vertex -2.35 0 1.25
      vertex -2.20086 -0.360062 0.5
      vertex -2.20086 -0.360062 1.5116
    endloop
  endfacet
  facet normal 0.382684 0.923879 -0
    outer loop
      vertex 1.6617 1.6617 -2
      vertex 0 2.35 6
      vertex 1.6617 1.6617 6
    endloop
  endfacet
  facet normal 0.382684 0.923879 0
    outer loop
      vertex 0 2.35 6
      vertex 1.6617 1.6617 -2
      vertex 0 2.35 -2
    endloop
  endfacet
  facet normal 0.923876 0.382693 0
    outer loop
      vertex 2.35 0 3.5
      vertex 2.1532 0.475104 3.4
      vertex 2.1532 0.475104 3.5
    endloop
  endfacet
  facet normal 0.923876 0.382693 -0
    outer loop
      vertex 2.35 0 2.60676
      vertex 2.1532 0.475104 3.4
      vertex 2.35 0 3.5
    endloop
  endfacet
  facet normal 0.923881 0.382681 8.25569e-06
    outer loop
      vertex 2.1532 0.475104 3.4
      vertex 2.35 0 2.60676
      vertex 2.1674 0.440839 2.60676
    endloop
  endfacet
  facet normal 0.923846 0.382765 -1.18732e-05
    outer loop
      vertex 1.99793 0.849977 3.4
      vertex 2.07557 0.662541 2
      vertex 2.05454 0.713292 1.76824
    endloop
  endfacet
  facet normal 0.923881 0.38268 1.51485e-06
    outer loop
      vertex 2.1674 0.440839 2.60676
      vertex 2.07557 0.662541 2
      vertex 1.99793 0.849977 3.4
    endloop
  endfacet
  facet normal 0.923886 0.382668 8.91701e-06
    outer loop
      vertex 2.1674 0.440839 2.60676
      vertex 1.99793 0.849977 3.4
      vertex 2.1532 0.475104 3.4
    endloop
  endfacet
  facet normal 0.923882 0.382677 4.55808e-07
    outer loop
      vertex 2.07557 0.662541 2
      vertex 2.1674 0.440839 2.60676
      vertex 2.08574 0.637988 2
    endloop
  endfacet
  facet normal 0.923878 0.382687 -0
    outer loop
      vertex 1.99793 0.849977 3.4
      vertex 1.6617 1.6617 6
      vertex 1.99793 0.849977 4.6
    endloop
  endfacet
  facet normal 0.923879 0.382684 1.76728e-06
    outer loop
      vertex 2.35 0 6
      vertex 1.99793 0.849977 4.6
      vertex 1.6617 1.6617 6
    endloop
  endfacet
  facet normal 0.92388 0.382682 0
    outer loop
      vertex 1.99793 0.849977 4.6
      vertex 2.35 0 6
      vertex 2.35 0 4.6
    endloop
  endfacet
  facet normal 0.923878 0.382687 0
    outer loop
      vertex 1.6617 1.6617 6
      vertex 1.99793 0.849977 3.4
      vertex 1.6617 1.6617 -2
    endloop
  endfacet
  facet normal 0.923884 0.382672 -2.66891e-06
    outer loop
      vertex 2.05454 0.713292 1.76824
      vertex 1.6617 1.6617 -2
      vertex 1.99793 0.849977 3.4
    endloop
  endfacet
  facet normal 0.923835 0.382791 3.26612e-05
    outer loop
      vertex 2.07557 0.662541 1.73137
      vertex 1.6617 1.6617 -2
      vertex 2.05454 0.713292 1.76824
    endloop
  endfacet
  facet normal 0.923878 0.382687 0
    outer loop
      vertex 1.6617 1.6617 -2
      vertex 2.07557 0.662541 1.73137
      vertex 2.07557 0.662541 -2
    endloop
  endfacet
  facet normal 0.923826 0.382812 0
    outer loop
      vertex 2.05454 0.713292 1.76824
      vertex 2.07557 0.662541 2
      vertex 2.07557 0.662541 1.92443
    endloop
  endfacet
  facet normal 0.923876 0.382693 0
    outer loop
      vertex 2.35 0 1.25
      vertex 2.1532 0.475104 0.5
      vertex 2.1532 0.475104 1.59518
    endloop
  endfacet
  facet normal 0.923876 0.382693 0
    outer loop
      vertex 2.1532 0.475104 0.5
      vertex 2.35 0 1.25
      vertex 2.35 0 0.5
    endloop
  endfacet
  facet normal 0.92388 -0.382682 0
    outer loop
      vertex 2.35 0 6
      vertex 1.99793 -0.849977 4.6
      vertex 2.35 0 4.6
    endloop
  endfacet
  facet normal 0.923878 -0.382687 0
    outer loop
      vertex 1.99793 -0.849977 4.6
      vertex 1.6617 -1.6617 6
      vertex 1.99793 -0.849977 3.4
    endloop
  endfacet
  facet normal 0.923879 -0.382684 1.76728e-06
    outer loop
      vertex 1.6617 -1.6617 6
      vertex 1.99793 -0.849977 4.6
      vertex 2.35 0 6
    endloop
  endfacet
  facet normal 0.923876 -0.382693 0
    outer loop
      vertex 2.1532 -0.475104 3.4
      vertex 2.35 0 2.60676
      vertex 2.35 0 3.5
    endloop
  endfacet
  facet normal 0.923876 -0.382693 0
    outer loop
      vertex 2.1532 -0.475104 3.4
      vertex 2.35 0 3.5
      vertex 2.1532 -0.475104 3.5
    endloop
  endfacet
  facet normal 0.923881 -0.382681 8.25569e-06
    outer loop
      vertex 2.35 0 2.60676
      vertex 2.1532 -0.475104 3.4
      vertex 2.1674 -0.440839 2.60676
    endloop
  endfacet
  facet normal 0.923886 -0.382668 8.91701e-06
    outer loop
      vertex 1.99793 -0.849977 3.4
      vertex 2.1674 -0.440839 2.60676
      vertex 2.1532 -0.475104 3.4
    endloop
  endfacet
  facet normal 0.923882 -0.382677 4.55808e-07
    outer loop
      vertex 2.1674 -0.440839 2.60676
      vertex 2.07557 -0.662541 2
      vertex 2.08574 -0.637988 2
    endloop
  endfacet
  facet normal 0.923826 -0.382812 0
    outer loop
      vertex 2.07557 -0.662541 2
      vertex 2.05454 -0.713292 1.76824
      vertex 2.07557 -0.662541 1.92443
    endloop
  endfacet
  facet normal 0.923881 -0.38268 1.51485e-06
    outer loop
      vertex 2.1674 -0.440839 2.60676
      vertex 1.99793 -0.849977 3.4
      vertex 2.07557 -0.662541 2
    endloop
  endfacet
  facet normal 0.923846 -0.382765 -1.18732e-05
    outer loop
      vertex 2.07557 -0.662541 2
      vertex 1.99793 -0.849977 3.4
      vertex 2.05454 -0.713292 1.76824
    endloop
  endfacet
  facet normal 0.923835 -0.382791 3.26612e-05
    outer loop
      vertex 1.6617 -1.6617 -2
      vertex 2.07557 -0.662541 1.73137
      vertex 2.05454 -0.713292 1.76824
    endloop
  endfacet
  facet normal 0.923884 -0.382672 -2.66891e-06
    outer loop
      vertex 1.6617 -1.6617 -2
      vertex 2.05454 -0.713292 1.76824
      vertex 1.99793 -0.849977 3.4
    endloop
  endfacet
  facet normal 0.923878 -0.382687 0
    outer loop
      vertex 1.6617 -1.6617 -2
      vertex 1.99793 -0.849977 3.4
      vertex 1.6617 -1.6617 6
    endloop
  endfacet
  facet normal 0.923878 -0.382687 0
    outer loop
      vertex 2.07557 -0.662541 1.73137
      vertex 1.6617 -1.6617 -2
      vertex 2.07557 -0.662541 -2
    endloop
  endfacet
  facet normal 0.923876 -0.382693 0
    outer loop
      vertex 2.1532 -0.475104 0.5
      vertex 2.35 0 1.25
      vertex 2.1532 -0.475104 1.59518
    endloop
  endfacet
  facet normal 0.923876 -0.382693 0
    outer loop
      vertex 2.35 0 1.25
      vertex 2.1532 -0.475104 0.5
      vertex 2.35 0 0.5
    endloop
  endfacet
  facet normal -0.382684 -0.923879 0
    outer loop
      vertex -1.6617 -1.6617 -2
      vertex 0 -2.35 6
      vertex -1.6617 -1.6617 6
    endloop
  endfacet
  facet normal -0.382684 -0.923879 -0
    outer loop
      vertex 0 -2.35 6
      vertex -1.6617 -1.6617 -2
      vertex 0 -2.35 -2
    endloop
  endfacet
  facet normal -0.382684 0.923879 0
    outer loop
      vertex 0 2.35 -2
      vertex -1.6617 1.6617 6
      vertex 0 2.35 6
    endloop
  endfacet
  facet normal -0.382684 0.923879 0
    outer loop
      vertex -1.6617 1.6617 6
      vertex 0 2.35 -2
      vertex -1.6617 1.6617 -2
    endloop
  endfacet
  facet normal -0.92388 0.382682 0
    outer loop
      vertex -1.6617 1.6617 -2
      vertex -1.99728 0.851534 3.4
      vertex -1.6617 1.6617 6
    endloop
  endfacet
  facet normal -0.923881 0.382679 -5.11495e-07
    outer loop
      vertex -1.6617 1.6617 -2
      vertex -2.05454 0.713292 1.76824
      vertex -1.99728 0.851534 3.4
    endloop
  endfacet
  facet normal -0.923879 0.382684 0
    outer loop
      vertex -2.09907 0.605798 1.69014
      vertex -1.6617 1.6617 -2
      vertex -2.09907 0.605798 -2
    endloop
  endfacet
  facet normal -0.923868 0.382711 8.99561e-06
    outer loop
      vertex -1.6617 1.6617 -2
      vertex -2.09907 0.605798 1.69014
      vertex -2.05454 0.713292 1.76824
    endloop
  endfacet
  facet normal -0.92388 0.382682 0
    outer loop
      vertex -1.99728 0.851534 4.6
      vertex -1.6617 1.6617 6
      vertex -1.99728 0.851534 3.4
    endloop
  endfacet
  facet normal -0.923878 0.382686 0
    outer loop
      vertex -2.35 0 6
      vertex -1.99728 0.851534 4.6
      vertex -2.35 0 4.6
    endloop
  endfacet
  facet normal -0.923879 0.382684 -1.57733e-06
    outer loop
      vertex -1.99728 0.851534 4.6
      vertex -2.35 0 6
      vertex -1.6617 1.6617 6
    endloop
  endfacet
  facet normal -0.923874 0.382696 -2.19776e-06
    outer loop
      vertex -2.1674 0.440839 2.60676
      vertex -1.99728 0.851534 3.4
      vertex -2.05454 0.713292 1.76824
    endloop
  endfacet
  facet normal -0.923876 0.382692 -1.69345e-07
    outer loop
      vertex -2.1674 0.440839 2.60676
      vertex -2.20086 0.360062 3.4
      vertex -1.99728 0.851534 3.4
    endloop
  endfacet
  facet normal -0.923881 0.382681 -1.56601e-06
    outer loop
      vertex -2.35 0 2.60676
      vertex -2.20086 0.360062 3.4
      vertex -2.1674 0.440839 2.60676
    endloop
  endfacet
  facet normal -0.923882 0.382678 0
    outer loop
      vertex -2.35 0 3.5
      vertex -2.20086 0.360062 3.4
      vertex -2.35 0 2.60676
    endloop
  endfacet
  facet normal -0.923882 0.382678 0
    outer loop
      vertex -2.20086 0.360062 3.4
      vertex -2.35 0 3.5
      vertex -2.20086 0.360062 3.5
    endloop
  endfacet
  facet normal -0.923882 0.382678 0
    outer loop
      vertex -2.35 0 1.25
      vertex -2.20086 0.360062 0.5
      vertex -2.35 0 0.5
    endloop
  endfacet
  facet normal -0.923882 0.382678 0
    outer loop
      vertex -2.20086 0.360062 0.5
      vertex -2.35 0 1.25
      vertex -2.20086 0.360062 1.5116
    endloop
  endfacet
  facet normal 0.382684 -0.923879 0
    outer loop
      vertex 0 -2.35 -2
      vertex 1.6617 -1.6617 6
      vertex 0 -2.35 6
    endloop
  endfacet
  facet normal 0.382684 -0.923879 0
    outer loop
      vertex 1.6617 -1.6617 6
      vertex 0 -2.35 -2
      vertex 1.6617 -1.6617 -2
    endloop
  endfacet
  facet normal -0 0 1
    outer loop
      vertex 2.23176 0.713292 -2
      vertex 3 0 -2
      vertex 2.42705 1.76336 -2
    endloop
  endfacet
  facet normal 0 0 1
    outer loop
      vertex 3 0 -2
      vertex 2.23176 0.713292 -2
      vertex 2.75 0 -2
    endloop
  endfacet
  facet normal -0 0 1
    outer loop
      vertex 1.6617 1.6617 -2
      vertex 2.23176 0.713292 -2
      vertex 2.42705 1.76336 -2
    endloop
  endfacet
  facet normal 0 0 1
    outer loop
      vertex 2.23176 0.713292 -2
      vertex 1.6617 1.6617 -2
      vertex 2.07557 0.662541 -2
    endloop
  endfacet
  facet normal 0 0 1
    outer loop
      vertex 0.927051 2.85317 -2
      vertex 1.6617 1.6617 -2
      vertex 2.42705 1.76336 -2
    endloop
  endfacet
  facet normal 0 0 1
    outer loop
      vertex 0.927051 2.85317 -2
      vertex 0 2.35 -2
      vertex 1.6617 1.6617 -2
    endloop
  endfacet
  facet normal -0 0 1
    outer loop
      vertex -0.927051 2.85317 -2
      vertex 0 2.35 -2
      vertex 0.927051 2.85317 -2
    endloop
  endfacet
  facet normal 0 0 1
    outer loop
      vertex -0.927051 2.85317 -2
      vertex -1.6617 1.6617 -2
      vertex 0 2.35 -2
    endloop
  endfacet
  facet normal -0 0 1
    outer loop
      vertex -2.42705 1.76336 -2
      vertex -1.6617 1.6617 -2
      vertex -0.927051 2.85317 -2
    endloop
  endfacet
  facet normal 0 0 1
    outer loop
      vertex -2.42705 1.76336 -2
      vertex -2.09907 0.605798 -2
      vertex -1.6617 1.6617 -2
    endloop
  endfacet
  facet normal 0 0 1
    outer loop
      vertex -2.42705 1.76336 -2
      vertex -2.60676 0.440839 -2
      vertex -2.09907 0.605798 -2
    endloop
  endfacet
  facet normal 0 0 1
    outer loop
      vertex -2.60676 0.440839 -2
      vertex -3 0 -2
      vertex -2.60676 -0.440839 -2
    endloop
  endfacet
  facet normal 0 0 1
    outer loop
      vertex -3 0 -2
      vertex -2.60676 0.440839 -2
      vertex -2.42705 1.76336 -2
    endloop
  endfacet
  facet normal 0 0 1
    outer loop
      vertex 2.23176 -0.713292 -2
      vertex 3 0 -2
      vertex 2.75 0 -2
    endloop
  endfacet
  facet normal 0 0 1
    outer loop
      vertex 3 0 -2
      vertex 2.23176 -0.713292 -2
      vertex 2.42705 -1.76336 -2
    endloop
  endfacet
  facet normal 0 0 1
    outer loop
      vertex 1.6617 -1.6617 -2
      vertex 2.23176 -0.713292 -2
      vertex 2.07557 -0.662541 -2
    endloop
  endfacet
  facet normal 0 0 1
    outer loop
      vertex 2.23176 -0.713292 -2
      vertex 1.6617 -1.6617 -2
      vertex 2.42705 -1.76336 -2
    endloop
  endfacet
  facet normal 0 0 1
    outer loop
      vertex 1.6617 -1.6617 -2
      vertex 0.927051 -2.85317 -2
      vertex 2.42705 -1.76336 -2
    endloop
  endfacet
  facet normal -0 0 1
    outer loop
      vertex 0 -2.35 -2
      vertex 0.927051 -2.85317 -2
      vertex 1.6617 -1.6617 -2
    endloop
  endfacet
  facet normal 0 0 1
    outer loop
      vertex 0 -2.35 -2
      vertex -0.927051 -2.85317 -2
      vertex 0.927051 -2.85317 -2
    endloop
  endfacet
  facet normal 0 0 1
    outer loop
      vertex -1.6617 -1.6617 -2
      vertex -0.927051 -2.85317 -2
      vertex 0 -2.35 -2
    endloop
  endfacet
  facet normal 0 0 1
    outer loop
      vertex -1.6617 -1.6617 -2
      vertex -2.42705 -1.76336 -2
      vertex -0.927051 -2.85317 -2
    endloop
  endfacet
  facet normal 0 0 1
    outer loop
      vertex -2.09907 -0.605798 -2
      vertex -2.42705 -1.76336 -2
      vertex -1.6617 -1.6617 -2
    endloop
  endfacet
  facet normal 0 0 1
    outer loop
      vertex -2.60676 -0.440839 -2
      vertex -2.42705 -1.76336 -2
      vertex -2.09907 -0.605798 -2
    endloop
  endfacet
  facet normal 0 0 1
    outer loop
      vertex -2.42705 -1.76336 -2
      vertex -2.60676 -0.440839 -2
      vertex -3 0 -2
    endloop
  endfacet
  facet normal 0 0 -1
    outer loop
      vertex 0.463525 -1.42658 -2
      vertex 0.463525 1.42658 -2
      vertex 1.5 0 -2
    endloop
  endfacet
  facet normal 0 0 -1
    outer loop
      vertex -1.21352 -0.881678 -2
      vertex 0.463525 1.42658 -2
      vertex 0.463525 -1.42658 -2
    endloop
  endfacet
  facet normal 0 0 -1
    outer loop
      vertex 0.463525 1.42658 -2
      vertex -1.21352 -0.881678 -2
      vertex -1.21352 0.881678 -2
    endloop
  endfacet
  facet normal 1.17905e-06 -0.587783 0.809018
    outer loop
      vertex -2.20086 0.360062 1.5116
      vertex -1.5 0 1.25
      vertex -1.84549 0.475528 1.59549
    endloop
  endfacet
  facet normal 0 -0.587785 0.809017
    outer loop
      vertex -1.5 0 1.25
      vertex -2.20086 0.360062 1.5116
      vertex -2.35 0 1.25
    endloop
  endfacet
  facet normal 0 -0.58779 0.809013
    outer loop
      vertex -1.76824 0.713292 1.76824
      vertex -2.05454 0.713292 1.76824
      vertex -2.09907 0.605798 1.69014
    endloop
  endfacet
  facet normal -1.68502e-05 -0.587761 0.809035
    outer loop
      vertex 2.05454 0.713292 1.76824
      vertex 1.39324 0.440839 1.57029
      vertex 2.07557 0.662541 1.73137
    endloop
  endfacet
  facet normal 0 -0.587787 0.809015
    outer loop
      vertex 1.39324 0.440839 1.57029
      vertex -1.25 0 1.25
      vertex 1.39324 0 1.25
    endloop
  endfacet
  facet normal 0 -0.587788 0.809015
    outer loop
      vertex -1.76824 0.713292 1.76824
      vertex 1.39324 0.440839 1.57029
      vertex 2.05454 0.713292 1.76824
    endloop
  endfacet
  facet normal 4.15939e-08 -0.587787 0.809015
    outer loop
      vertex 1.39324 0.440839 1.57029
      vertex -1.76824 0.713292 1.76824
      vertex -1.25 0 1.25
    endloop
  endfacet
  facet normal 1.63699e-05 -0.587794 0.80901
    outer loop
      vertex 1.59549 0 1.25
      vertex 2.1532 0.475104 1.59518
      vertex 1.59549 0.293892 1.46353
    endloop
  endfacet
  facet normal 0 -0.587782 0.80902
    outer loop
      vertex 2.1532 0.475104 1.59518
      vertex 1.59549 0 1.25
      vertex 2.35 0 1.25
    endloop
  endfacet
  facet normal 0 -0.951056 -0.309019
    outer loop
      vertex 2.05454 0.713292 1.76824
      vertex 2 0.637988 2
      vertex -1.71353 0.637988 2
    endloop
  endfacet
  facet normal -0 -0.951056 -0.309019
    outer loop
      vertex 2.05454 0.713292 1.76824
      vertex -1.71353 0.637988 2
      vertex -1.76824 0.713292 1.76824
    endloop
  endfacet
  facet normal -2.27244e-05 -0.951054 -0.309024
    outer loop
      vertex 2 0.637988 2
      vertex 2.05454 0.713292 1.76824
      vertex 2.07557 0.662541 1.92443
    endloop
  endfacet
  facet normal -0 -0.951056 -0.309018
    outer loop
      vertex -1.71353 0.637988 2
      vertex -2.1674 0.440839 2.60676
      vertex -2 0.637988 2
    endloop
  endfacet
  facet normal -2.68293e-06 -0.951056 -0.309019
    outer loop
      vertex -2.05454 0.713292 1.76824
      vertex -2 0.637988 2
      vertex -2.1674 0.440839 2.60676
    endloop
  endfacet
  facet normal 0 -0.951056 -0.309019
    outer loop
      vertex -2 0.637988 2
      vertex -2.05454 0.713292 1.76824
      vertex -1.76824 0.713292 1.76824
    endloop
  endfacet
  facet normal 0 -0.951056 -0.309018
    outer loop
      vertex -2.1674 0.440839 2.60676
      vertex -1.71353 0.637988 2
      vertex 2.1674 0.440839 2.60676
    endloop
  endfacet
  facet normal -0 -0.951056 -0.309018
    outer loop
      vertex 2 0.637988 2
      vertex 2.1674 0.440839 2.60676
      vertex -1.71353 0.637988 2
    endloop
  endfacet
  facet normal 0 -0.951056 -0.309018
    outer loop
      vertex 2.1674 0.440839 2.60676
      vertex 2 0.637988 2
      vertex 2.08574 0.637988 2
    endloop
  endfacet
  facet normal 0 0 -1
    outer loop
      vertex 2.1674 -0.440839 2.60676
      vertex 2.1674 0.440839 2.60676
      vertex 2.35 0 2.60676
    endloop
  endfacet
  facet normal 0 0 -1
    outer loop
      vertex -2.1674 -0.440839 2.60676
      vertex 2.1674 0.440839 2.60676
      vertex 2.1674 -0.440839 2.60676
    endloop
  endfacet
  facet normal 0 0 -1
    outer loop
      vertex -2.1674 -0.440839 2.60676
      vertex -2.1674 0.440839 2.60676
      vertex 2.1674 0.440839 2.60676
    endloop
  endfacet
  facet normal 0 -0 -1
    outer loop
      vertex -2.1674 0.440839 2.60676
      vertex -2.1674 -0.440839 2.60676
      vertex -2.35 0 2.60676
    endloop
  endfacet
  facet normal -2.27244e-05 0.951054 -0.309024
    outer loop
      vertex 2.05454 -0.713292 1.76824
      vertex 2 -0.637988 2
      vertex 2.07557 -0.662541 1.92443
    endloop
  endfacet
  facet normal 0 0.951056 -0.309019
    outer loop
      vertex 2 -0.637988 2
      vertex 2.05454 -0.713292 1.76824
      vertex -1.71353 -0.637988 2
    endloop
  endfacet
  facet normal 0 0.951056 -0.309019
    outer loop
      vertex -1.71353 -0.637988 2
      vertex 2.05454 -0.713292 1.76824
      vertex -1.76824 -0.713292 1.76824
    endloop
  endfacet
  facet normal 0 0.951056 -0.309018
    outer loop
      vertex 2 -0.637988 2
      vertex 2.1674 -0.440839 2.60676
      vertex 2.08574 -0.637988 2
    endloop
  endfacet
  facet normal 0 0.951056 -0.309018
    outer loop
      vertex -1.71353 -0.637988 2
      vertex 2.1674 -0.440839 2.60676
      vertex 2 -0.637988 2
    endloop
  endfacet
  facet normal 0 0.951056 -0.309018
    outer loop
      vertex 2.1674 -0.440839 2.60676
      vertex -1.71353 -0.637988 2
      vertex -2.1674 -0.440839 2.60676
    endloop
  endfacet
  facet normal 0 0.951056 -0.309018
    outer loop
      vertex -2 -0.637988 2
      vertex -2.1674 -0.440839 2.60676
      vertex -1.71353 -0.637988 2
    endloop
  endfacet
  facet normal -2.68293e-06 0.951056 -0.309019
    outer loop
      vertex -2 -0.637988 2
      vertex -2.05454 -0.713292 1.76824
      vertex -2.1674 -0.440839 2.60676
    endloop
  endfacet
  facet normal 0 0.951056 -0.309019
    outer loop
      vertex -2.05454 -0.713292 1.76824
      vertex -2 -0.637988 2
      vertex -1.76824 -0.713292 1.76824
    endloop
  endfacet
  facet normal 1.17905e-06 0.587783 0.809018
    outer loop
      vertex -1.5 0 1.25
      vertex -2.20086 -0.360062 1.5116
      vertex -1.84549 -0.475528 1.59549
    endloop
  endfacet
  facet normal 0 0.587785 0.809017
    outer loop
      vertex -2.20086 -0.360062 1.5116
      vertex -1.5 0 1.25
      vertex -2.35 0 1.25
    endloop
  endfacet
  facet normal -0 0.58779 0.809013
    outer loop
      vertex -2.05454 -0.713292 1.76824
      vertex -1.76824 -0.713292 1.76824
      vertex -2.09907 -0.605798 1.69014
    endloop
  endfacet
  facet normal 0 0.587787 0.809015
    outer loop
      vertex 1.39324 0 1.25
      vertex -1.25 0 1.25
      vertex 1.39324 -0.440839 1.57029
    endloop
  endfacet
  facet normal -1.68502e-05 0.587761 0.809035
    outer loop
      vertex 1.39324 -0.440839 1.57029
      vertex 2.05454 -0.713292 1.76824
      vertex 2.07557 -0.662541 1.73137
    endloop
  endfacet
  facet normal 4.15939e-08 0.587787 0.809015
    outer loop
      vertex -1.76824 -0.713292 1.76824
      vertex 1.39324 -0.440839 1.57029
      vertex -1.25 0 1.25
    endloop
  endfacet
  facet normal 0 0.587788 0.809015
    outer loop
      vertex 1.39324 -0.440839 1.57029
      vertex -1.76824 -0.713292 1.76824
      vertex 2.05454 -0.713292 1.76824
    endloop
  endfacet
  facet normal -0 0.587782 0.80902
    outer loop
      vertex 1.59549 0 1.25
      vertex 2.1532 -0.475104 1.59518
      vertex 2.35 0 1.25
    endloop
  endfacet
  facet normal 1.63699e-05 0.587794 0.80901
    outer loop
      vertex 2.1532 -0.475104 1.59518
      vertex 1.59549 0 1.25
      vertex 1.59549 -0.293892 1.46353
    endloop
  endfacet
  facet normal -0.309018 -0.951056 0
    outer loop
      vertex 1.39324 -0.440839 1.57029
      vertex 2 -0.637988 2
      vertex 1.39324 -0.440839 2
    endloop
  endfacet
  facet normal -0.309004 -0.951061 0
    outer loop
      vertex 2 -0.637988 2
      vertex 2.07557 -0.662541 1.73137
      vertex 2.07557 -0.662541 1.92443
    endloop
  endfacet
  facet normal -0.309016 -0.951057 -3.75451e-06
    outer loop
      vertex 2 -0.637988 2
      vertex 1.39324 -0.440839 1.57029
      vertex 2.07557 -0.662541 1.73137
    endloop
  endfacet
  facet normal -0.309027 -0.951053 0
    outer loop
      vertex 2.07557 -0.662541 1.92443
      vertex 2.23176 -0.713292 2
      vertex 2.07557 -0.662541 2
    endloop
  endfacet
  facet normal -0.309027 -0.951053 0
    outer loop
      vertex 2.07557 -0.662541 1.73137
      vertex 2.23176 -0.713292 2
      vertex 2.07557 -0.662541 1.92443
    endloop
  endfacet
  facet normal -0.309027 -0.951053 0
    outer loop
      vertex 2.23176 -0.713292 -2
      vertex 2.07557 -0.662541 1.73137
      vertex 2.07557 -0.662541 -2
    endloop
  endfacet
  facet normal -0.309027 -0.951053 0
    outer loop
      vertex 2.07557 -0.662541 1.73137
      vertex 2.23176 -0.713292 -2
      vertex 2.23176 -0.713292 2
    endloop
  endfacet
  facet normal -0.309027 0.951053 0
    outer loop
      vertex 2.23176 0.713292 2
      vertex 2.07557 0.662541 1.92443
      vertex 2.07557 0.662541 2
    endloop
  endfacet
  facet normal -0.309027 0.951053 0
    outer loop
      vertex 2.23176 0.713292 2
      vertex 2.07557 0.662541 1.73137
      vertex 2.07557 0.662541 1.92443
    endloop
  endfacet
  facet normal -0.309027 0.951053 0
    outer loop
      vertex 2.23176 0.713292 -2
      vertex 2.07557 0.662541 1.73137
      vertex 2.23176 0.713292 2
    endloop
  endfacet
  facet normal -0.309027 0.951053 0
    outer loop
      vertex 2.07557 0.662541 1.73137
      vertex 2.23176 0.713292 -2
      vertex 2.07557 0.662541 -2
    endloop
  endfacet
  facet normal -0.309004 0.951061 0
    outer loop
      vertex 2.07557 0.662541 1.73137
      vertex 2 0.637988 2
      vertex 2.07557 0.662541 1.92443
    endloop
  endfacet
  facet normal -0.309016 0.951057 -3.75451e-06
    outer loop
      vertex 1.39324 0.440839 1.57029
      vertex 2 0.637988 2
      vertex 2.07557 0.662541 1.73137
    endloop
  endfacet
  facet normal -0.309018 0.951056 0
    outer loop
      vertex 2 0.637988 2
      vertex 1.39324 0.440839 1.57029
      vertex 1.39324 0.440839 2
    endloop
  endfacet
  facet normal 0.809015 0.587787 0
    outer loop
      vertex 2.75 0 2
      vertex 2.23176 0.713292 -2
      vertex 2.23176 0.713292 2
    endloop
  endfacet
  facet normal 0.809015 0.587787 0
    outer loop
      vertex 2.23176 0.713292 -2
      vertex 2.75 0 2
      vertex 2.75 0 -2
    endloop
  endfacet
  facet normal -1 0 0
    outer loop
      vertex 1.39324 -0.440839 1.57029
      vertex 1.39324 0.440839 1.57029
      vertex 1.39324 0 1.25
    endloop
  endfacet
  facet normal -1 0 0
    outer loop
      vertex 1.39324 0.440839 1.57029
      vertex 1.39324 -0.440839 1.57029
      vertex 1.39324 0.440839 2
    endloop
  endfacet
  facet normal -1 -0 0
    outer loop
      vertex 1.39324 0.440839 2
      vertex 1.39324 -0.440839 1.57029
      vertex 1.39324 -0.440839 2
    endloop
  endfacet
  facet normal 0 0 1
    outer loop
      vertex 2.15451 -0.475528 2
      vertex 2 -0.637988 2
      vertex 2.08574 -0.637988 2
    endloop
  endfacet
  facet normal 0 0 1
    outer loop
      vertex 1.59549 -0.293892 2
      vertex 2 -0.637988 2
      vertex 2.15451 -0.475528 2
    endloop
  endfacet
  facet normal 0 0 1
    outer loop
      vertex 1.59549 -0.293892 2
      vertex 1.39324 -0.440839 2
      vertex 2 -0.637988 2
    endloop
  endfacet
  facet normal 0 0 1
    outer loop
      vertex 1.39324 -0.440839 2
      vertex 1.59549 -0.293892 2
      vertex 1.39324 0.440839 2
    endloop
  endfacet
  facet normal 0 0 1
    outer loop
      vertex 2.23176 0.713292 2
      vertex 2.5 0 2
      vertex 2.75 0 2
    endloop
  endfacet
  facet normal 0 0 1
    outer loop
      vertex 2.23176 0.713292 2
      vertex 2.15451 0.475528 2
      vertex 2.5 0 2
    endloop
  endfacet
  facet normal 0 0 1
    outer loop
      vertex 2.23176 0.713292 2
      vertex 2.08574 0.637988 2
      vertex 2.15451 0.475528 2
    endloop
  endfacet
  facet normal 0 -0 1
    outer loop
      vertex 2.08574 0.637988 2
      vertex 2.23176 0.713292 2
      vertex 2.07557 0.662541 2
    endloop
  endfacet
  facet normal -0 0 1
    outer loop
      vertex 2.5 0 2
      vertex 2.23176 -0.713292 2
      vertex 2.75 0 2
    endloop
  endfacet
  facet normal -0 0 1
    outer loop
      vertex 2.15451 -0.475528 2
      vertex 2.23176 -0.713292 2
      vertex 2.5 0 2
    endloop
  endfacet
  facet normal -0 0 1
    outer loop
      vertex 2.08574 -0.637988 2
      vertex 2.23176 -0.713292 2
      vertex 2.15451 -0.475528 2
    endloop
  endfacet
  facet normal 0 0 1
    outer loop
      vertex 2.23176 -0.713292 2
      vertex 2.08574 -0.637988 2
      vertex 2.07557 -0.662541 2
    endloop
  endfacet
  facet normal -0 0 1
    outer loop
      vertex 2 0.637988 2
      vertex 2.15451 0.475528 2
      vertex 2.08574 0.637988 2
    endloop
  endfacet
  facet normal 0 0 1
    outer loop
      vertex 2 0.637988 2
      vertex 1.59549 0.293892 2
      vertex 2.15451 0.475528 2
    endloop
  endfacet
  facet normal 0 0 1
    outer loop
      vertex 1.59549 0.293892 2
      vertex 1.39324 0.440839 2
      vertex 1.59549 -0.293892 2
    endloop
  endfacet
  facet normal -0 0 1
    outer loop
      vertex 1.39324 0.440839 2
      vertex 1.59549 0.293892 2
      vertex 2 0.637988 2
    endloop
  endfacet
  facet normal 0.809015 -0.587787 0
    outer loop
      vertex 2.23176 -0.713292 2
      vertex 2.75 0 -2
      vertex 2.75 0 2
    endloop
  endfacet
  facet normal 0.809015 -0.587787 0
    outer loop
      vertex 2.75 0 -2
      vertex 2.23176 -0.713292 2
      vertex 2.23176 -0.713292 -2
    endloop
  endfacet
  facet normal -0.309016 -0.951057 0
    outer loop
      vertex 1.99793 -0.849977 3.4
      vertex 2.30902 -0.951056 4.6
      vertex 1.99793 -0.849977 4.6
    endloop
  endfacet
  facet normal -0.309016 -0.951057 -0
    outer loop
      vertex 2.30902 -0.951056 4.6
      vertex 1.99793 -0.849977 3.4
      vertex 2.30902 -0.951056 3.4
    endloop
  endfacet
  facet normal -0.309016 0.951057 0
    outer loop
      vertex 2.30902 0.951056 3.4
      vertex 1.99793 0.849977 4.6
      vertex 2.30902 0.951056 4.6
    endloop
  endfacet
  facet normal -0.309016 0.951057 0
    outer loop
      vertex 1.99793 0.849977 4.6
      vertex 2.30902 0.951056 3.4
      vertex 1.99793 0.849977 3.4
    endloop
  endfacet
  facet normal 0.809018 0.587784 0
    outer loop
      vertex 3 0 4.6
      vertex 2.30902 0.951056 3.4
      vertex 2.30902 0.951056 4.6
    endloop
  endfacet
  facet normal 0.809018 0.587784 0
    outer loop
      vertex 2.30902 0.951056 3.4
      vertex 3 0 4.6
      vertex 3 0 3.4
    endloop
  endfacet
  facet normal 0 0 1
    outer loop
      vertex 2.30902 0.951056 4.6
      vertex 2.35 0 4.6
      vertex 3 0 4.6
    endloop
  endfacet
  facet normal 0 0 1
    outer loop
      vertex 2.35 0 4.6
      vertex 2.30902 0.951056 4.6
      vertex 1.99793 0.849977 4.6
    endloop
  endfacet
  facet normal -0 0 1
    outer loop
      vertex 2.35 0 4.6
      vertex 2.30902 -0.951056 4.6
      vertex 3 0 4.6
    endloop
  endfacet
  facet normal 0 -0 1
    outer loop
      vertex 2.30902 -0.951056 4.6
      vertex 2.35 0 4.6
      vertex 1.99793 -0.849977 4.6
    endloop
  endfacet
  facet normal 0.809018 -0.587784 0
    outer loop
      vertex 2.30902 -0.951056 4.6
      vertex 3 0 3.4
      vertex 3 0 4.6
    endloop
  endfacet
  facet normal 0.809018 -0.587784 0
    outer loop
      vertex 3 0 3.4
      vertex 2.30902 -0.951056 4.6
      vertex 2.30902 -0.951056 3.4
    endloop
  endfacet
  facet normal 0 0 -1
    outer loop
      vertex 2.30902 -0.951056 3.4
      vertex 2.5 0 3.4
      vertex 3 0 3.4
    endloop
  endfacet
  facet normal 0 0 -1
    outer loop
      vertex 2.30902 -0.951056 3.4
      vertex 2.15451 -0.475528 3.4
      vertex 2.5 0 3.4
    endloop
  endfacet
  facet normal 0 0 -1
    outer loop
      vertex 1.99793 -0.849977 3.4
      vertex 2.15451 -0.475528 3.4
      vertex 2.30902 -0.951056 3.4
    endloop
  endfacet
  facet normal -0 0 -1
    outer loop
      vertex 2.15451 -0.475528 3.4
      vertex 1.99793 -0.849977 3.4
      vertex 2.1532 -0.475104 3.4
    endloop
  endfacet
  facet normal 0 0 -1
    outer loop
      vertex 2.5 0 3.4
      vertex 2.30902 0.951056 3.4
      vertex 3 0 3.4
    endloop
  endfacet
  facet normal 0 0 -1
    outer loop
      vertex 2.15451 0.475528 3.4
      vertex 2.30902 0.951056 3.4
      vertex 2.5 0 3.4
    endloop
  endfacet
  facet normal 0 0 -1
    outer loop
      vertex 1.99793 0.849977 3.4
      vertex 2.15451 0.475528 3.4
      vertex 2.1532 0.475104 3.4
    endloop
  endfacet
  facet normal 0 0 -1
    outer loop
      vertex 2.15451 0.475528 3.4
      vertex 1.99793 0.849977 3.4
      vertex 2.30902 0.951056 3.4
    endloop
  endfacet
  facet normal 0.307936 0.951407 -0
    outer loop
      vertex 2.15451 -0.475528 3.4
      vertex 2.1532 -0.475104 3.5
      vertex 2.15451 -0.475528 3.5
    endloop
  endfacet
  facet normal 0.307936 0.951407 0
    outer loop
      vertex 2.1532 -0.475104 3.5
      vertex 2.15451 -0.475528 3.4
      vertex 2.1532 -0.475104 3.4
    endloop
  endfacet
  facet normal 0.309016 0.951057 -3.86084e-06
    outer loop
      vertex 2.15451 -0.475528 2
      vertex 2.1532 -0.475104 1.59518
      vertex 1.59549 -0.293892 2
    endloop
  endfacet
  facet normal 0.307936 0.951407 -0
    outer loop
      vertex 2.15451 -0.475528 0.5
      vertex 2.1532 -0.475104 1.59518
      vertex 2.15451 -0.475528 2
    endloop
  endfacet
  facet normal 0.307936 0.951407 0
    outer loop
      vertex 2.1532 -0.475104 1.59518
      vertex 2.15451 -0.475528 0.5
      vertex 2.1532 -0.475104 0.5
    endloop
  endfacet
  facet normal 0.309019 0.951056 0
    outer loop
      vertex 1.59549 -0.293892 2
      vertex 2.1532 -0.475104 1.59518
      vertex 1.59549 -0.293892 1.46353
    endloop
  endfacet
  facet normal 0.309016 -0.951057 -3.86084e-06
    outer loop
      vertex 1.59549 0.293892 2
      vertex 2.1532 0.475104 1.59518
      vertex 2.15451 0.475528 2
    endloop
  endfacet
  facet normal 0.309019 -0.951056 0
    outer loop
      vertex 2.1532 0.475104 1.59518
      vertex 1.59549 0.293892 2
      vertex 1.59549 0.293892 1.46353
    endloop
  endfacet
  facet normal 0.307936 -0.951407 0
    outer loop
      vertex 2.15451 0.475528 0.5
      vertex 2.1532 0.475104 1.59518
      vertex 2.1532 0.475104 0.5
    endloop
  endfacet
  facet normal 0.307936 -0.951407 0
    outer loop
      vertex 2.1532 0.475104 1.59518
      vertex 2.15451 0.475528 0.5
      vertex 2.15451 0.475528 2
    endloop
  endfacet
  facet normal 0.307936 -0.951407 0
    outer loop
      vertex 2.1532 0.475104 3.4
      vertex 2.15451 0.475528 3.5
      vertex 2.1532 0.475104 3.5
    endloop
  endfacet
  facet normal 0.307936 -0.951407 0
    outer loop
      vertex 2.15451 0.475528 3.5
      vertex 2.1532 0.475104 3.4
      vertex 2.15451 0.475528 3.4
    endloop
  endfacet
  facet normal -0.809018 -0.587784 0
    outer loop
      vertex 2.5 0 0.5
      vertex 2.15451 0.475528 2
      vertex 2.15451 0.475528 0.5
    endloop
  endfacet
  facet normal -0.809018 -0.587784 0
    outer loop
      vertex 2.15451 0.475528 2
      vertex 2.5 0 0.5
      vertex 2.5 0 2
    endloop
  endfacet
  facet normal -0.809018 -0.587784 0
    outer loop
      vertex 2.5 0 3.4
      vertex 2.15451 0.475528 3.5
      vertex 2.15451 0.475528 3.4
    endloop
  endfacet
  facet normal -0.809018 -0.587784 0
    outer loop
      vertex 2.15451 0.475528 3.5
      vertex 2.5 0 3.4
      vertex 2.5 0 3.5
    endloop
  endfacet
  facet normal 1 0 0
    outer loop
      vertex 1.59549 -0.293892 1.46353
      vertex 1.59549 0.293892 1.46353
      vertex 1.59549 0.293892 2
    endloop
  endfacet
  facet normal 1 0 0
    outer loop
      vertex 1.59549 -0.293892 1.46353
      vertex 1.59549 0.293892 2
      vertex 1.59549 -0.293892 2
    endloop
  endfacet
  facet normal 1 0 0
    outer loop
      vertex 1.59549 0.293892 1.46353
      vertex 1.59549 -0.293892 1.46353
      vertex 1.59549 0 1.25
    endloop
  endfacet
  facet normal 0 0 -1
    outer loop
      vertex 2.15451 -0.475528 3.5
      vertex 2.35 0 3.5
      vertex 2.5 0 3.5
    endloop
  endfacet
  facet normal 0 0 -1
    outer loop
      vertex 2.35 0 3.5
      vertex 2.15451 -0.475528 3.5
      vertex 2.1532 -0.475104 3.5
    endloop
  endfacet
  facet normal 0 0 -1
    outer loop
      vertex 2.35 0 3.5
      vertex 2.15451 0.475528 3.5
      vertex 2.5 0 3.5
    endloop
  endfacet
  facet normal 0 -0 -1
    outer loop
      vertex 2.15451 0.475528 3.5
      vertex 2.35 0 3.5
      vertex 2.1532 0.475104 3.5
    endloop
  endfacet
  facet normal -0.809018 0.587784 0
    outer loop
      vertex 2.15451 -0.475528 0.5
      vertex 2.5 0 2
      vertex 2.5 0 0.5
    endloop
  endfacet
  facet normal -0.809018 0.587784 0
    outer loop
      vertex 2.5 0 2
      vertex 2.15451 -0.475528 0.5
      vertex 2.15451 -0.475528 2
    endloop
  endfacet
  facet normal -0.809018 0.587784 0
    outer loop
      vertex 2.15451 -0.475528 3.4
      vertex 2.5 0 3.5
      vertex 2.5 0 3.4
    endloop
  endfacet
  facet normal -0.809018 0.587784 0
    outer loop
      vertex 2.5 0 3.5
      vertex 2.15451 -0.475528 3.4
      vertex 2.15451 -0.475528 3.5
    endloop
  endfacet
  facet normal 0 0 1
    outer loop
      vertex 2.15451 0.475528 0.5
      vertex 2.35 0 0.5
      vertex 2.5 0 0.5
    endloop
  endfacet
  facet normal 0 0 1
    outer loop
      vertex 2.35 0 0.5
      vertex 2.15451 0.475528 0.5
      vertex 2.1532 0.475104 0.5
    endloop
  endfacet
  facet normal -0 0 1
    outer loop
      vertex 2.35 0 0.5
      vertex 2.15451 -0.475528 0.5
      vertex 2.5 0 0.5
    endloop
  endfacet
  facet normal 0 -0 1
    outer loop
      vertex 2.15451 -0.475528 0.5
      vertex 2.35 0 0.5
      vertex 2.1532 -0.475104 0.5
    endloop
  endfacet
  facet normal -0.309018 -0.951056 -2.6795e-07
    outer loop
      vertex -2.09907 -0.605798 1.69014
      vertex -2 -0.637988 2
      vertex -2.60676 -0.440839 2
    endloop
  endfacet
  facet normal -0.309019 -0.951056 1.29251e-07
    outer loop
      vertex -2 -0.637988 2
      vertex -2.09907 -0.605798 1.69014
      vertex -1.76824 -0.713292 1.76824
    endloop
  endfacet
  facet normal -0.309018 -0.951056 0
    outer loop
      vertex -2.60676 -0.440839 -2
      vertex -2.09907 -0.605798 1.69014
      vertex -2.60676 -0.440839 2
    endloop
  endfacet
  facet normal -0.309018 -0.951056 -0
    outer loop
      vertex -2.09907 -0.605798 1.69014
      vertex -2.60676 -0.440839 -2
      vertex -2.09907 -0.605798 -2
    endloop
  endfacet
  facet normal -0.309019 0.951056 1.29251e-07
    outer loop
      vertex -2.09907 0.605798 1.69014
      vertex -2 0.637988 2
      vertex -1.76824 0.713292 1.76824
    endloop
  endfacet
  facet normal -0.309018 0.951056 -2.6795e-07
    outer loop
      vertex -2 0.637988 2
      vertex -2.09907 0.605798 1.69014
      vertex -2.60676 0.440839 2
    endloop
  endfacet
  facet normal -0.309018 0.951056 0
    outer loop
      vertex -2.60676 0.440839 -2
      vertex -2.09907 0.605798 1.69014
      vertex -2.09907 0.605798 -2
    endloop
  endfacet
  facet normal -0.309018 0.951056 0
    outer loop
      vertex -2.09907 0.605798 1.69014
      vertex -2.60676 0.440839 -2
      vertex -2.60676 0.440839 2
    endloop
  endfacet
  facet normal 0.809014 0.587789 7.32982e-06
    outer loop
      vertex -1.25 0 2
      vertex -1.76824 0.713292 1.76824
      vertex -1.71353 0.637988 2
    endloop
  endfacet
  facet normal 0.809015 0.587787 0
    outer loop
      vertex -1.76824 0.713292 1.76824
      vertex -1.25 0 2
      vertex -1.25 0 1.25
    endloop
  endfacet
  facet normal -1 0 0
    outer loop
      vertex -2.60676 -0.440839 -2
      vertex -2.60676 0.440839 2
      vertex -2.60676 0.440839 -2
    endloop
  endfacet
  facet normal -1 -0 0
    outer loop
      vertex -2.60676 0.440839 2
      vertex -2.60676 -0.440839 -2
      vertex -2.60676 -0.440839 2
    endloop
  endfacet
  facet normal 0 0 1
    outer loop
      vertex -1.71353 0.637988 2
      vertex -1.5 0 2
      vertex -1.25 0 2
    endloop
  endfacet
  facet normal 0 0 1
    outer loop
      vertex -1.71353 0.637988 2
      vertex -1.84549 0.475528 2
      vertex -1.5 0 2
    endloop
  endfacet
  facet normal -0 0 1
    outer loop
      vertex -2 0.637988 2
      vertex -1.84549 0.475528 2
      vertex -1.71353 0.637988 2
    endloop
  endfacet
  facet normal 0 0 1
    outer loop
      vertex -2 0.637988 2
      vertex -2.40451 0.293892 2
      vertex -1.84549 0.475528 2
    endloop
  endfacet
  facet normal 0 0 1
    outer loop
      vertex -2.40451 0.293892 2
      vertex -2.60676 0.440839 2
      vertex -2.40451 -0.293892 2
    endloop
  endfacet
  facet normal -0 0 1
    outer loop
      vertex -2.60676 0.440839 2
      vertex -2.40451 0.293892 2
      vertex -2 0.637988 2
    endloop
  endfacet
  facet normal -0 0 1
    outer loop
      vertex -1.5 0 2
      vertex -1.71353 -0.637988 2
      vertex -1.25 0 2
    endloop
  endfacet
  facet normal -0 0 1
    outer loop
      vertex -1.84549 -0.475528 2
      vertex -1.71353 -0.637988 2
      vertex -1.5 0 2
    endloop
  endfacet
  facet normal 0 0 1
    outer loop
      vertex -1.84549 -0.475528 2
      vertex -2 -0.637988 2
      vertex -1.71353 -0.637988 2
    endloop
  endfacet
  facet normal 0 0 1
    outer loop
      vertex -2.40451 -0.293892 2
      vertex -2 -0.637988 2
      vertex -1.84549 -0.475528 2
    endloop
  endfacet
  facet normal 0 0 1
    outer loop
      vertex -2.40451 -0.293892 2
      vertex -2.60676 -0.440839 2
      vertex -2 -0.637988 2
    endloop
  endfacet
  facet normal 0 0 1
    outer loop
      vertex -2.60676 -0.440839 2
      vertex -2.40451 -0.293892 2
      vertex -2.60676 0.440839 2
    endloop
  endfacet
  facet normal 0.809014 -0.587789 7.32982e-06
    outer loop
      vertex -1.76824 -0.713292 1.76824
      vertex -1.25 0 2
      vertex -1.71353 -0.637988 2
    endloop
  endfacet
  facet normal 0.809015 -0.587787 0
    outer loop
      vertex -1.25 0 2
      vertex -1.76824 -0.713292 1.76824
      vertex -1.25 0 1.25
    endloop
  endfacet
  facet normal -0.309016 -0.951057 0
    outer loop
      vertex -2.80902 -0.587785 3.4
      vertex -1.99728 -0.851534 4.6
      vertex -2.80902 -0.587785 4.6
    endloop
  endfacet
  facet normal -0.309016 -0.951057 -0
    outer loop
      vertex -1.99728 -0.851534 4.6
      vertex -2.80902 -0.587785 3.4
      vertex -1.99728 -0.851534 3.4
    endloop
  endfacet
  facet normal -0.309016 0.951057 0
    outer loop
      vertex -1.99728 0.851534 3.4
      vertex -2.80902 0.587785 4.6
      vertex -1.99728 0.851534 4.6
    endloop
  endfacet
  facet normal -0.309016 0.951057 0
    outer loop
      vertex -2.80902 0.587785 4.6
      vertex -1.99728 0.851534 3.4
      vertex -2.80902 0.587785 3.4
    endloop
  endfacet
  facet normal -1 0 0
    outer loop
      vertex -2.80902 -0.587785 3.4
      vertex -2.80902 0.587785 4.6
      vertex -2.80902 0.587785 3.4
    endloop
  endfacet
  facet normal -1 -0 0
    outer loop
      vertex -2.80902 0.587785 4.6
      vertex -2.80902 -0.587785 3.4
      vertex -2.80902 -0.587785 4.6
    endloop
  endfacet
  facet normal 0 0 1
    outer loop
      vertex -1.99728 0.851534 4.6
      vertex -2.80902 0.587785 4.6
      vertex -2.35 0 4.6
    endloop
  endfacet
  facet normal 0 0 1
    outer loop
      vertex -2.80902 -0.587785 4.6
      vertex -2.35 0 4.6
      vertex -2.80902 0.587785 4.6
    endloop
  endfacet
  facet normal 0 0 1
    outer loop
      vertex -2.35 0 4.6
      vertex -2.80902 -0.587785 4.6
      vertex -1.99728 -0.851534 4.6
    endloop
  endfacet
  facet normal 0 0 -1
    outer loop
      vertex -2.80902 -0.587785 3.4
      vertex -2.20086 -0.360062 3.4
      vertex -1.99728 -0.851534 3.4
    endloop
  endfacet
  facet normal -0 0 -1
    outer loop
      vertex -2.40451 -0.293892 3.4
      vertex -2.80902 -0.587785 3.4
      vertex -2.40451 0.293892 3.4
    endloop
  endfacet
  facet normal -0 0 -1
    outer loop
      vertex -2.20086 -0.360062 3.4
      vertex -2.80902 -0.587785 3.4
      vertex -2.40451 -0.293892 3.4
    endloop
  endfacet
  facet normal 0 0 -1
    outer loop
      vertex -2.80902 0.587785 3.4
      vertex -2.20086 0.360062 3.4
      vertex -2.40451 0.293892 3.4
    endloop
  endfacet
  facet normal 0 0 -1
    outer loop
      vertex -2.20086 0.360062 3.4
      vertex -2.80902 0.587785 3.4
      vertex -1.99728 0.851534 3.4
    endloop
  endfacet
  facet normal 0 0 -1
    outer loop
      vertex -2.80902 0.587785 3.4
      vertex -2.40451 0.293892 3.4
      vertex -2.80902 -0.587785 3.4
    endloop
  endfacet
  facet normal 0.309017 0.951056 -0
    outer loop
      vertex -2.20086 -0.360062 3.4
      vertex -2.40451 -0.293892 3.5
      vertex -2.20086 -0.360062 3.5
    endloop
  endfacet
  facet normal 0.309017 0.951056 0
    outer loop
      vertex -2.40451 -0.293892 3.5
      vertex -2.20086 -0.360062 3.4
      vertex -2.40451 -0.293892 3.4
    endloop
  endfacet
  facet normal 0.309015 0.951057 0
    outer loop
      vertex -2.20086 -0.360062 1.5116
      vertex -1.84549 -0.475528 2
      vertex -1.84549 -0.475528 1.59549
    endloop
  endfacet
  facet normal 0.309016 0.951057 -6.33979e-07
    outer loop
      vertex -1.84549 -0.475528 2
      vertex -2.20086 -0.360062 1.5116
      vertex -2.40451 -0.293892 2
    endloop
  endfacet
  facet normal 0.309017 0.951056 0
    outer loop
      vertex -2.40451 -0.293892 0.5
      vertex -2.20086 -0.360062 1.5116
      vertex -2.20086 -0.360062 0.5
    endloop
  endfacet
  facet normal 0.309017 0.951056 0
    outer loop
      vertex -2.20086 -0.360062 1.5116
      vertex -2.40451 -0.293892 0.5
      vertex -2.40451 -0.293892 2
    endloop
  endfacet
  facet normal 0.309016 -0.951057 -6.33979e-07
    outer loop
      vertex -2.20086 0.360062 1.5116
      vertex -1.84549 0.475528 2
      vertex -2.40451 0.293892 2
    endloop
  endfacet
  facet normal 0.309015 -0.951057 0
    outer loop
      vertex -1.84549 0.475528 2
      vertex -2.20086 0.360062 1.5116
      vertex -1.84549 0.475528 1.59549
    endloop
  endfacet
  facet normal 0.309017 -0.951056 0
    outer loop
      vertex -2.40451 0.293892 0.5
      vertex -2.20086 0.360062 1.5116
      vertex -2.40451 0.293892 2
    endloop
  endfacet
  facet normal 0.309017 -0.951056 0
    outer loop
      vertex -2.20086 0.360062 1.5116
      vertex -2.40451 0.293892 0.5
      vertex -2.20086 0.360062 0.5
    endloop
  endfacet
  facet normal 0.309017 -0.951056 0
    outer loop
      vertex -2.40451 0.293892 3.4
      vertex -2.20086 0.360062 3.5
      vertex -2.40451 0.293892 3.5
    endloop
  endfacet
  facet normal 0.309017 -0.951056 0
    outer loop
      vertex -2.20086 0.360062 3.5
      vertex -2.40451 0.293892 3.4
      vertex -2.20086 0.360062 3.4
    endloop
  endfacet
  facet normal -0.809018 -0.587784 -0
    outer loop
      vertex -1.5 0 2
      vertex -1.84549 0.475528 1.59549
      vertex -1.5 0 1.25
    endloop
  endfacet
  facet normal -0.809018 -0.587784 0
    outer loop
      vertex -1.84549 0.475528 1.59549
      vertex -1.5 0 2
      vertex -1.84549 0.475528 2
    endloop
  endfacet
  facet normal 1 -0 0
    outer loop
      vertex -2.40451 -0.293892 3.5
      vertex -2.40451 0.293892 3.4
      vertex -2.40451 0.293892 3.5
    endloop
  endfacet
  facet normal 1 0 0
    outer loop
      vertex -2.40451 0.293892 3.4
      vertex -2.40451 -0.293892 3.5
      vertex -2.40451 -0.293892 3.4
    endloop
  endfacet
  facet normal 1 -0 0
    outer loop
      vertex -2.40451 -0.293892 2
      vertex -2.40451 0.293892 0.5
      vertex -2.40451 0.293892 2
    endloop
  endfacet
  facet normal 1 0 0
    outer loop
      vertex -2.40451 0.293892 0.5
      vertex -2.40451 -0.293892 2
      vertex -2.40451 -0.293892 0.5
    endloop
  endfacet
  facet normal 0 0 -1
    outer loop
      vertex -2.20086 -0.360062 3.5
      vertex -2.40451 -0.293892 3.5
      vertex -2.35 0 3.5
    endloop
  endfacet
  facet normal 0 0 -1
    outer loop
      vertex -2.35 0 3.5
      vertex -2.40451 0.293892 3.5
      vertex -2.20086 0.360062 3.5
    endloop
  endfacet
  facet normal 0 0 -1
    outer loop
      vertex -2.40451 0.293892 3.5
      vertex -2.35 0 3.5
      vertex -2.40451 -0.293892 3.5
    endloop
  endfacet
  facet normal -0.809018 0.587784 0
    outer loop
      vertex -1.84549 -0.475528 1.59549
      vertex -1.5 0 2
      vertex -1.5 0 1.25
    endloop
  endfacet
  facet normal -0.809018 0.587784 0
    outer loop
      vertex -1.5 0 2
      vertex -1.84549 -0.475528 1.59549
      vertex -1.84549 -0.475528 2
    endloop
  endfacet
  facet normal 0 0 1
    outer loop
      vertex -2.20086 0.360062 0.5
      vertex -2.40451 0.293892 0.5
      vertex -2.35 0 0.5
    endloop
  endfacet
  facet normal 0 0 1
    outer loop
      vertex -2.35 0 0.5
      vertex -2.40451 -0.293892 0.5
      vertex -2.20086 -0.360062 0.5
    endloop
  endfacet
  facet normal 0 0 1
    outer loop
      vertex -2.40451 -0.293892 0.5
      vertex -2.35 0 0.5
      vertex -2.40451 0.293892 0.5
    endloop
  endfacet
  facet normal -0.951057 -0.309017 0
    outer loop
      vertex -2.42705 -1.76336 -7.5
      vertex -3 0 -2
      vertex -3 0 -7.5
    endloop
  endfacet
  facet normal -0.951057 -0.309017 0
    outer loop
      vertex -3 0 -2
      vertex -2.42705 -1.76336 -7.5
      vertex -2.42705 -1.76336 -2
    endloop
  endfacet
  facet normal 0.587784 0.809018 -0
    outer loop
      vertex 2.42705 1.76336 -7.5
      vertex 0.927051 2.85317 -2
      vertex 2.42705 1.76336 -2
    endloop
  endfacet
  facet normal 0.587784 0.809018 0
    outer loop
      vertex 0.927051 2.85317 -2
      vertex 2.42705 1.76336 -7.5
      vertex 0.927051 2.85317 -7.5
    endloop
  endfacet
  facet normal 0.951057 0.309017 0
    outer loop
      vertex 3 0 -2
      vertex 2.42705 1.76336 -7.5
      vertex 2.42705 1.76336 -2
    endloop
  endfacet
  facet normal 0.951057 0.309017 0
    outer loop
      vertex 2.42705 1.76336 -7.5
      vertex 3 0 -2
      vertex 3 0 -7.5
    endloop
  endfacet
  facet normal 0 1 -0
    outer loop
      vertex 0.927051 2.85317 -7.5
      vertex -0.927051 2.85317 -2
      vertex 0.927051 2.85317 -2
    endloop
  endfacet
  facet normal 0 1 0
    outer loop
      vertex -0.927051 2.85317 -2
      vertex 0.927051 2.85317 -7.5
      vertex -0.927051 2.85317 -7.5
    endloop
  endfacet
  facet normal -0.587784 -0.809018 0
    outer loop
      vertex -2.42705 -1.76336 -7.5
      vertex -0.927051 -2.85317 -2
      vertex -2.42705 -1.76336 -2
    endloop
  endfacet
  facet normal -0.587784 -0.809018 -0
    outer loop
      vertex -0.927051 -2.85317 -2
      vertex -2.42705 -1.76336 -7.5
      vertex -0.927051 -2.85317 -7.5
    endloop
  endfacet
  facet normal 0.951057 -0.309017 0
    outer loop
      vertex 2.42705 -1.76336 -2
      vertex 3 0 -7.5
      vertex 3 0 -2
    endloop
  endfacet
  facet normal 0.951057 -0.309017 0
    outer loop
      vertex 3 0 -7.5
      vertex 2.42705 -1.76336 -2
      vertex 2.42705 -1.76336 -7.5
    endloop
  endfacet
  facet normal -0.587784 0.809018 0
    outer loop
      vertex -0.927051 2.85317 -7.5
      vertex -2.42705 1.76336 -2
      vertex -0.927051 2.85317 -2
    endloop
  endfacet
  facet normal -0.587784 0.809018 0
    outer loop
      vertex -2.42705 1.76336 -2
      vertex -0.927051 2.85317 -7.5
      vertex -2.42705 1.76336 -7.5
    endloop
  endfacet
  facet normal 0 -1 0
    outer loop
      vertex -0.927051 -2.85317 -7.5
      vertex 0.927051 -2.85317 -2
      vertex -0.927051 -2.85317 -2
    endloop
  endfacet
  facet normal 0 -1 -0
    outer loop
      vertex 0.927051 -2.85317 -2
      vertex -0.927051 -2.85317 -7.5
      vertex 0.927051 -2.85317 -7.5
    endloop
  endfacet
  facet normal 0.587784 -0.809018 0
    outer loop
      vertex 0.927051 -2.85317 -7.5
      vertex 2.42705 -1.76336 -2
      vertex 0.927051 -2.85317 -2
    endloop
  endfacet
  facet normal 0.587784 -0.809018 0
    outer loop
      vertex 2.42705 -1.76336 -2
      vertex 0.927051 -2.85317 -7.5
      vertex 2.42705 -1.76336 -7.5
    endloop
  endfacet
  facet normal -0.951057 0.309017 0
    outer loop
      vertex -3 0 -7.5
      vertex -2.42705 1.76336 -2
      vertex -2.42705 1.76336 -7.5
    endloop
  endfacet
  facet normal -0.951057 0.309017 0
    outer loop
      vertex -2.42705 1.76336 -2
      vertex -3 0 -7.5
      vertex -3 0 -2
    endloop
  endfacet
  facet normal 0.309015 0.951057 -0
    outer loop
      vertex 0.463525 -1.42658 -7.5
      vertex -1.21352 -0.881678 -2
      vertex 0.463525 -1.42658 -2
    endloop
  endfacet
  facet normal 0.309015 0.951057 0
    outer loop
      vertex -1.21352 -0.881678 -2
      vertex 0.463525 -1.42658 -7.5
      vertex -1.21352 -0.881678 -7.5
    endloop
  endfacet
  facet normal 0.309015 -0.951057 0
    outer loop
      vertex -1.21352 0.881678 -7.5
      vertex 0.463525 1.42658 -2
      vertex -1.21352 0.881678 -2
    endloop
  endfacet
  facet normal 0.309015 -0.951057 0
    outer loop
      vertex 0.463525 1.42658 -2
      vertex -1.21352 0.881678 -7.5
      vertex 0.463525 1.42658 -7.5
    endloop
  endfacet
  facet normal -0.809016 -0.587787 -3.59111e-06
    outer loop
      vertex 1.20106 0.411449 -6.43369
      vertex 0.463525 1.42658 -7.5
      vertex 1.01631 0.665739 -7.21631
    endloop
  endfacet
  facet normal -0.809016 -0.587787 -3.58325e-06
    outer loop
      vertex 1.01631 0.665739 -7.21631
      vertex 0.463525 1.42658 -7.5
      vertex 1.3 0.275277 -7.5
    endloop
  endfacet
  facet normal -0.809017 -0.587785 0
    outer loop
      vertex 0.463525 1.42658 -7.5
      vertex 1.20106 0.411449 -6.43369
      vertex 0.463525 1.42658 -2
    endloop
  endfacet
  facet normal -0.809013 -0.587791 -0
    outer loop
      vertex 1.5 0 -2
      vertex 1.20106 0.411449 -6.43369
      vertex 1.5 0 -6.43369
    endloop
  endfacet
  facet normal -0.809016 -0.587787 6.68051e-07
    outer loop
      vertex 1.20106 0.411449 -6.43369
      vertex 1.5 0 -2
      vertex 0.463525 1.42658 -2
    endloop
  endfacet
  facet normal 1 -0 0
    outer loop
      vertex -1.21352 0.411449 -6.43369
      vertex -1.21352 0.881678 -7.5
      vertex -1.21352 0.881678 -2
    endloop
  endfacet
  facet normal 1 0 0
    outer loop
      vertex -1.21352 0.881678 -7.5
      vertex -1.21352 0.411449 -6.43369
      vertex -1.21352 0.665739 -7.21631
    endloop
  endfacet
  facet normal 1 0 0
    outer loop
      vertex -1.21352 0.881678 -2
      vertex -1.21352 -0.411449 -6.43369
      vertex -1.21352 0.411449 -6.43369
    endloop
  endfacet
  facet normal 1 -0 0
    outer loop
      vertex -1.21352 -0.881678 -2
      vertex -1.21352 -0.411449 -6.43369
      vertex -1.21352 0.881678 -2
    endloop
  endfacet
  facet normal 1 0 0
    outer loop
      vertex -1.21352 -0.881678 -7.5
      vertex -1.21352 -0.411449 -6.43369
      vertex -1.21352 -0.881678 -2
    endloop
  endfacet
  facet normal 1 0 0
    outer loop
      vertex -1.21352 0.881678 -7.5
      vertex -1.21352 0.665739 -7.21631
      vertex -1.21352 0.275277 -7.5
    endloop
  endfacet
  facet normal 1 0 0
    outer loop
      vertex -1.21352 -0.665739 -7.21631
      vertex -1.21352 -0.881678 -7.5
      vertex -1.21352 -0.275277 -7.5
    endloop
  endfacet
  facet normal 1 0 0
    outer loop
      vertex -1.21352 -0.411449 -6.43369
      vertex -1.21352 -0.881678 -7.5
      vertex -1.21352 -0.665739 -7.21631
    endloop
  endfacet
  facet normal -0.809016 0.587787 -3.58325e-06
    outer loop
      vertex 1.3 -0.275277 -7.5
      vertex 0.463525 -1.42658 -7.5
      vertex 1.01631 -0.665739 -7.21631
    endloop
  endfacet
  facet normal -0.809013 0.587791 0
    outer loop
      vertex 1.20106 -0.411449 -6.43369
      vertex 1.5 0 -2
      vertex 1.5 0 -6.43369
    endloop
  endfacet
  facet normal -0.809016 0.587787 -3.59111e-06
    outer loop
      vertex 0.463525 -1.42658 -7.5
      vertex 1.20106 -0.411449 -6.43369
      vertex 1.01631 -0.665739 -7.21631
    endloop
  endfacet
  facet normal -0.809017 0.587785 0
    outer loop
      vertex 1.20106 -0.411449 -6.43369
      vertex 0.463525 -1.42658 -7.5
      vertex 0.463525 -1.42658 -2
    endloop
  endfacet
  facet normal -0.809016 0.587787 6.68051e-07
    outer loop
      vertex 1.20106 -0.411449 -6.43369
      vertex 0.463525 -1.42658 -2
      vertex 1.5 0 -2
    endloop
  endfacet
  facet normal 0.707107 0.707107 0
    outer loop
      vertex 3.2909 1.9 -7.5
      vertex 1.9 3.2909 -13.5
      vertex 1.9 3.2909 -7.5
    endloop
  endfacet
  facet normal 0.707107 0.707107 0
    outer loop
      vertex 1.9 3.2909 -13.5
      vertex 3.2909 1.9 -7.5
      vertex 3.2909 1.9 -13.5
    endloop
  endfacet
  facet normal 0.965926 0.258817 0
    outer loop
      vertex 3.8 0 -7.5
      vertex 3.2909 1.9 -13.5
      vertex 3.2909 1.9 -7.5
    endloop
  endfacet
  facet normal 0.965926 0.258817 0
    outer loop
      vertex 3.2909 1.9 -13.5
      vertex 3.8 0 -7.5
      vertex 3.8 0 -13.5
    endloop
  endfacet
  facet normal 0.258817 0.965926 -0
    outer loop
      vertex 1.9 3.2909 -13.5
      vertex 0 3.8 -7.5
      vertex 1.9 3.2909 -7.5
    endloop
  endfacet
  facet normal 0.258817 0.965926 0
    outer loop
      vertex 0 3.8 -7.5
      vertex 1.9 3.2909 -13.5
      vertex 0 3.8 -13.5
    endloop
  endfacet
  facet normal 0 0 -1
    outer loop
      vertex 3.2909 -1.9 -13.5
      vertex 3.2909 1.9 -13.5
      vertex 3.8 0 -13.5
    endloop
  endfacet
  facet normal 0 0 -1
    outer loop
      vertex 1.9 -3.2909 -13.5
      vertex 3.2909 1.9 -13.5
      vertex 3.2909 -1.9 -13.5
    endloop
  endfacet
  facet normal 0 0 -1
    outer loop
      vertex 1.9 -3.2909 -13.5
      vertex 1.9 3.2909 -13.5
      vertex 3.2909 1.9 -13.5
    endloop
  endfacet
  facet normal 0 0 -1
    outer loop
      vertex 0 -3.8 -13.5
      vertex 1.9 3.2909 -13.5
      vertex 1.9 -3.2909 -13.5
    endloop
  endfacet
  facet normal 0 0 -1
    outer loop
      vertex 0 -3.8 -13.5
      vertex 0 3.8 -13.5
      vertex 1.9 3.2909 -13.5
    endloop
  endfacet
  facet normal 0 0 -1
    outer loop
      vertex -1.9 -3.2909 -13.5
      vertex 0 3.8 -13.5
      vertex 0 -3.8 -13.5
    endloop
  endfacet
  facet normal 0 0 -1
    outer loop
      vertex -1.9 -3.2909 -13.5
      vertex -1.9 3.2909 -13.5
      vertex 0 3.8 -13.5
    endloop
  endfacet
  facet normal 0 0 -1
    outer loop
      vertex -3.2909 -1.9 -13.5
      vertex -1.9 3.2909 -13.5
      vertex -1.9 -3.2909 -13.5
    endloop
  endfacet
  facet normal 0 0 -1
    outer loop
      vertex -3.2909 -1.9 -13.5
      vertex -3.2909 1.9 -13.5
      vertex -1.9 3.2909 -13.5
    endloop
  endfacet
  facet normal 0 -0 -1
    outer loop
      vertex -3.2909 1.9 -13.5
      vertex -3.2909 -1.9 -13.5
      vertex -3.8 0 -13.5
    endloop
  endfacet
  facet normal 0 0 1
    outer loop
      vertex 3 0 -7.5
      vertex 3.8 0 -7.5
      vertex 3.2909 1.9 -7.5
    endloop
  endfacet
  facet normal 0 0 1
    outer loop
      vertex 3.8 0 -7.5
      vertex 3 0 -7.5
      vertex 3.2909 -1.9 -7.5
    endloop
  endfacet
  facet normal 0 0 1
    outer loop
      vertex 3.2909 1.9 -7.5
      vertex 2.42705 1.76336 -7.5
      vertex 3 0 -7.5
    endloop
  endfacet
  facet normal 0 0 1
    outer loop
      vertex 1.9 3.2909 -7.5
      vertex 2.42705 1.76336 -7.5
      vertex 3.2909 1.9 -7.5
    endloop
  endfacet
  facet normal 0 0 1
    outer loop
      vertex 1.9 3.2909 -7.5
      vertex 0.927051 2.85317 -7.5
      vertex 2.42705 1.76336 -7.5
    endloop
  endfacet
  facet normal 0 0 1
    outer loop
      vertex 0 3.8 -7.5
      vertex 0.927051 2.85317 -7.5
      vertex 1.9 3.2909 -7.5
    endloop
  endfacet
  facet normal 0 0 1
    outer loop
      vertex 0 3.8 -7.5
      vertex -0.927051 2.85317 -7.5
      vertex 0.927051 2.85317 -7.5
    endloop
  endfacet
  facet normal -0 0 1
    outer loop
      vertex -1.9 3.2909 -7.5
      vertex -0.927051 2.85317 -7.5
      vertex 0 3.8 -7.5
    endloop
  endfacet
  facet normal 0 0 1
    outer loop
      vertex -1.9 3.2909 -7.5
      vertex -2.42705 1.76336 -7.5
      vertex -0.927051 2.85317 -7.5
    endloop
  endfacet
  facet normal 0 0 1
    outer loop
      vertex -2.42705 1.76336 -7.5
      vertex -3.2909 1.9 -7.5
      vertex -3 0 -7.5
    endloop
  endfacet
  facet normal -0 0 1
    outer loop
      vertex -3.2909 1.9 -7.5
      vertex -2.42705 1.76336 -7.5
      vertex -1.9 3.2909 -7.5
    endloop
  endfacet
  facet normal -0 0 1
    outer loop
      vertex 2.42705 -1.76336 -7.5
      vertex 3.2909 -1.9 -7.5
      vertex 3 0 -7.5
    endloop
  endfacet
  facet normal 0 0 1
    outer loop
      vertex 2.42705 -1.76336 -7.5
      vertex 1.9 -3.2909 -7.5
      vertex 3.2909 -1.9 -7.5
    endloop
  endfacet
  facet normal -0 0 1
    outer loop
      vertex 0.927051 -2.85317 -7.5
      vertex 1.9 -3.2909 -7.5
      vertex 2.42705 -1.76336 -7.5
    endloop
  endfacet
  facet normal 0 0 1
    outer loop
      vertex 0.927051 -2.85317 -7.5
      vertex 0 -3.8 -7.5
      vertex 1.9 -3.2909 -7.5
    endloop
  endfacet
  facet normal -0 0 1
    outer loop
      vertex -0.927051 -2.85317 -7.5
      vertex 0 -3.8 -7.5
      vertex 0.927051 -2.85317 -7.5
    endloop
  endfacet
  facet normal 0 0 1
    outer loop
      vertex -0.927051 -2.85317 -7.5
      vertex -1.9 -3.2909 -7.5
      vertex 0 -3.8 -7.5
    endloop
  endfacet
  facet normal 0 0 1
    outer loop
      vertex -2.42705 -1.76336 -7.5
      vertex -1.9 -3.2909 -7.5
      vertex -0.927051 -2.85317 -7.5
    endloop
  endfacet
  facet normal 0 0 1
    outer loop
      vertex -2.42705 -1.76336 -7.5
      vertex -3.2909 -1.9 -7.5
      vertex -1.9 -3.2909 -7.5
    endloop
  endfacet
  facet normal 0 0 1
    outer loop
      vertex -3 0 -7.5
      vertex -3.2909 -1.9 -7.5
      vertex -2.42705 -1.76336 -7.5
    endloop
  endfacet
  facet normal 0 0 1
    outer loop
      vertex -3.8 0 -7.5
      vertex -3 0 -7.5
      vertex -3.2909 1.9 -7.5
    endloop
  endfacet
  facet normal 0 0 1
    outer loop
      vertex -3 0 -7.5
      vertex -3.8 0 -7.5
      vertex -3.2909 -1.9 -7.5
    endloop
  endfacet
  facet normal -0 0 1
    outer loop
      vertex -1.21352 -0.275277 -7.5
      vertex 0.463525 -1.42658 -7.5
      vertex 1.3 -0.275277 -7.5
    endloop
  endfacet
  facet normal 0 0 1
    outer loop
      vertex 0.463525 -1.42658 -7.5
      vertex -1.21352 -0.275277 -7.5
      vertex -1.21352 -0.881678 -7.5
    endloop
  endfacet
  facet normal 0 0 1
    outer loop
      vertex -1.21352 0.275277 -7.5
      vertex 0.463525 1.42658 -7.5
      vertex -1.21352 0.881678 -7.5
    endloop
  endfacet
  facet normal 0 0 1
    outer loop
      vertex 0.463525 1.42658 -7.5
      vertex -1.21352 0.275277 -7.5
      vertex 1.3 0.275277 -7.5
    endloop
  endfacet
  facet normal 0.965926 -0.258817 0
    outer loop
      vertex 3.2909 -1.9 -7.5
      vertex 3.8 0 -13.5
      vertex 3.8 0 -7.5
    endloop
  endfacet
  facet normal 0.965926 -0.258817 0
    outer loop
      vertex 3.8 0 -13.5
      vertex 3.2909 -1.9 -7.5
      vertex 3.2909 -1.9 -13.5
    endloop
  endfacet
  facet normal -0.707107 0.707107 0
    outer loop
      vertex -3.2909 1.9 -13.5
      vertex -1.9 3.2909 -7.5
      vertex -1.9 3.2909 -13.5
    endloop
  endfacet
  facet normal -0.707107 0.707107 0
    outer loop
      vertex -1.9 3.2909 -7.5
      vertex -3.2909 1.9 -13.5
      vertex -3.2909 1.9 -7.5
    endloop
  endfacet
  facet normal -0.258817 -0.965926 0
    outer loop
      vertex -1.9 -3.2909 -13.5
      vertex 0 -3.8 -7.5
      vertex -1.9 -3.2909 -7.5
    endloop
  endfacet
  facet normal -0.258817 -0.965926 -0
    outer loop
      vertex 0 -3.8 -7.5
      vertex -1.9 -3.2909 -13.5
      vertex 0 -3.8 -13.5
    endloop
  endfacet
  facet normal -0.965926 0.258817 0
    outer loop
      vertex -3.8 0 -13.5
      vertex -3.2909 1.9 -7.5
      vertex -3.2909 1.9 -13.5
    endloop
  endfacet
  facet normal -0.965926 0.258817 0
    outer loop
      vertex -3.2909 1.9 -7.5
      vertex -3.8 0 -13.5
      vertex -3.8 0 -7.5
    endloop
  endfacet
  facet normal 0.707107 -0.707107 0
    outer loop
      vertex 1.9 -3.2909 -7.5
      vertex 3.2909 -1.9 -13.5
      vertex 3.2909 -1.9 -7.5
    endloop
  endfacet
  facet normal 0.707107 -0.707107 0
    outer loop
      vertex 3.2909 -1.9 -13.5
      vertex 1.9 -3.2909 -7.5
      vertex 1.9 -3.2909 -13.5
    endloop
  endfacet
  facet normal -0.258817 0.965926 0
    outer loop
      vertex 0 3.8 -13.5
      vertex -1.9 3.2909 -7.5
      vertex 0 3.8 -7.5
    endloop
  endfacet
  facet normal -0.258817 0.965926 0
    outer loop
      vertex -1.9 3.2909 -7.5
      vertex 0 3.8 -13.5
      vertex -1.9 3.2909 -13.5
    endloop
  endfacet
  facet normal 0.258817 -0.965926 0
    outer loop
      vertex 0 -3.8 -13.5
      vertex 1.9 -3.2909 -7.5
      vertex 0 -3.8 -7.5
    endloop
  endfacet
  facet normal 0.258817 -0.965926 0
    outer loop
      vertex 1.9 -3.2909 -7.5
      vertex 0 -3.8 -13.5
      vertex 1.9 -3.2909 -13.5
    endloop
  endfacet
  facet normal -0.707107 -0.707107 0
    outer loop
      vertex -1.9 -3.2909 -13.5
      vertex -3.2909 -1.9 -7.5
      vertex -3.2909 -1.9 -13.5
    endloop
  endfacet
  facet normal -0.707107 -0.707107 0
    outer loop
      vertex -3.2909 -1.9 -7.5
      vertex -1.9 -3.2909 -13.5
      vertex -1.9 -3.2909 -7.5
    endloop
  endfacet
  facet normal -0.965926 -0.258817 0
    outer loop
      vertex -3.2909 -1.9 -13.5
      vertex -3.8 0 -7.5
      vertex -3.8 0 -13.5
    endloop
  endfacet
  facet normal -0.965926 -0.258817 0
    outer loop
      vertex -3.8 0 -7.5
      vertex -3.2909 -1.9 -13.5
      vertex -3.2909 -1.9 -7.5
    endloop
  endfacet
  facet normal 0 0.587789 -0.809014
    outer loop
      vertex -1.21352 0.275277 -7.5
      vertex 1.01631 0.665739 -7.21631
      vertex 1.3 0.275277 -7.5
    endloop
  endfacet
  facet normal 0 0.587789 -0.809014
    outer loop
      vertex 1.01631 0.665739 -7.21631
      vertex -1.21352 0.275277 -7.5
      vertex -1.21352 0.665739 -7.21631
    endloop
  endfacet
  facet normal 0 0.951056 0.309018
    outer loop
      vertex 1.01631 0.665739 -7.21631
      vertex -1.21352 0.411449 -6.43369
      vertex 1.20106 0.411449 -6.43369
    endloop
  endfacet
  facet normal 0 0.951056 0.309018
    outer loop
      vertex -1.21352 0.411449 -6.43369
      vertex 1.01631 0.665739 -7.21631
      vertex -1.21352 0.665739 -7.21631
    endloop
  endfacet
  facet normal 0 0 1
    outer loop
      vertex 1.20106 0.411449 -6.43369
      vertex 1.20106 -0.411449 -6.43369
      vertex 1.5 0 -6.43369
    endloop
  endfacet
  facet normal -0 0 1
    outer loop
      vertex -1.21352 0.411449 -6.43369
      vertex 1.20106 -0.411449 -6.43369
      vertex 1.20106 0.411449 -6.43369
    endloop
  endfacet
  facet normal 0 0 1
    outer loop
      vertex 1.20106 -0.411449 -6.43369
      vertex -1.21352 0.411449 -6.43369
      vertex -1.21352 -0.411449 -6.43369
    endloop
  endfacet
  facet normal 0 -0.951056 0.309018
    outer loop
      vertex 1.01631 -0.665739 -7.21631
      vertex -1.21352 -0.411449 -6.43369
      vertex -1.21352 -0.665739 -7.21631
    endloop
  endfacet
  facet normal 0 -0.951056 0.309018
    outer loop
      vertex -1.21352 -0.411449 -6.43369
      vertex 1.01631 -0.665739 -7.21631
      vertex 1.20106 -0.411449 -6.43369
    endloop
  endfacet
  facet normal 0 -0.587789 -0.809014
    outer loop
      vertex -1.21352 -0.275277 -7.5
      vertex 1.01631 -0.665739 -7.21631
      vertex -1.21352 -0.665739 -7.21631
    endloop
  endfacet
  facet normal 0 -0.587789 -0.809014
    outer loop
      vertex 1.01631 -0.665739 -7.21631
      vertex -1.21352 -0.275277 -7.5
      vertex 1.3 -0.275277 -7.5
    endloop
  endfacet
endsolid OpenSCAD_Model
