solid OpenSCAD_Model
  facet normal 1 -0 0
    outer loop
      vertex 25 -25 27.5
      vertex 25 25 22.5
      vertex 25 25 27.5
    endloop
  endfacet
  facet normal 1 0 0
    outer loop
      vertex 25 25 22.5
      vertex 25 -25 27.5
      vertex 25 -25 22.5
    endloop
  endfacet
  facet normal -0 0 1
    outer loop
      vertex -25 25 27.5
      vertex 25 -25 27.5
      vertex 25 25 27.5
    endloop
  endfacet
  facet normal 0 0 1
    outer loop
      vertex 25 -25 27.5
      vertex -25 25 27.5
      vertex -25 -25 27.5
    endloop
  endfacet
  facet normal 0 0 -1
    outer loop
      vertex -25 -25 22.5
      vertex 25 25 22.5
      vertex 25 -25 22.5
    endloop
  endfacet
  facet normal -0 0 -1
    outer loop
      vertex 25 25 22.5
      vertex -25 -25 22.5
      vertex -25 25 22.5
    endloop
  endfacet
  facet normal -1 0 0
    outer loop
      vertex -25 -25 22.5
      vertex -25 25 27.5
      vertex -25 25 22.5
    endloop
  endfacet
  facet normal -1 -0 0
    outer loop
      vertex -25 25 27.5
      vertex -25 -25 22.5
      vertex -25 -25 27.5
    endloop
  endfacet
  facet normal 0 1 -0
    outer loop
      vertex 25 25 22.5
      vertex -25 25 27.5
      vertex 25 25 27.5
    endloop
  endfacet
  facet normal 0 1 0
    outer loop
      vertex -25 25 27.5
      vertex 25 25 22.5
      vertex -25 25 22.5
    endloop
  endfacet
  facet normal 0 -1 0
    outer loop
      vertex -25 -25 22.5
      vertex 25 -25 27.5
      vertex -25 -25 27.5
    endloop
  endfacet
  facet normal 0 -1 -0
    outer loop
      vertex 25 -25 27.5
      vertex -25 -25 22.5
      vertex 25 -25 22.5
    endloop
  endfacet
  facet normal 1 -0 0
    outer loop
      vertex 25 -25 17.5
      vertex 25 25 12.5
      vertex 25 25 17.5
    endloop
  endfacet
  facet normal 1 0 0
    outer loop
      vertex 25 25 12.5
      vertex 25 -25 17.5
      vertex 25 -25 12.5
    endloop
  endfacet
  facet normal -0 0 1
    outer loop
      vertex -25 25 17.5
      vertex 25 -25 17.5
      vertex 25 25 17.5
    endloop
  endfacet
  facet normal 0 0 1
    outer loop
      vertex 25 -25 17.5
      vertex -25 25 17.5
      vertex -25 -25 17.5
    endloop
  endfacet
  facet normal 0 0 -1
    outer loop
      vertex -25 -25 12.5
      vertex 25 25 12.5
      vertex 25 -25 12.5
    endloop
  endfacet
  facet normal -0 0 -1
    outer loop
      vertex 25 25 12.5
      vertex -25 -25 12.5
      vertex -25 25 12.5
    endloop
  endfacet
  facet normal -1 0 0
    outer loop
      vertex -25 -25 12.5
      vertex -25 25 17.5
      vertex -25 25 12.5
    endloop
  endfacet
  facet normal -1 -0 0
    outer loop
      vertex -25 25 17.5
      vertex -25 -25 12.5
      vertex -25 -25 17.5
    endloop
  endfacet
  facet normal 0 1 -0
    outer loop
      vertex 25 25 12.5
      vertex -25 25 17.5
      vertex 25 25 17.5
    endloop
  endfacet
  facet normal 0 1 0
    outer loop
      vertex -25 25 17.5
      vertex 25 25 12.5
      vertex -25 25 12.5
    endloop
  endfacet
  facet normal 0 -1 0
    outer loop
      vertex -25 -25 12.5
      vertex 25 -25 17.5
      vertex -25 -25 17.5
    endloop
  endfacet
  facet normal 0 -1 -0
    outer loop
      vertex 25 -25 17.5
      vertex -25 -25 12.5
      vertex 25 -25 12.5
    endloop
  endfacet
  facet normal 1 -0 0
    outer loop
      vertex 25 -25 7.5
      vertex 25 25 2.5
      vertex 25 25 7.5
    endloop
  endfacet
  facet normal 1 0 0
    outer loop
      vertex 25 25 2.5
      vertex 25 -25 7.5
      vertex 25 -25 2.5
    endloop
  endfacet
  facet normal -0 0 1
    outer loop
      vertex -25 25 7.5
      vertex 25 -25 7.5
      vertex 25 25 7.5
    endloop
  endfacet
  facet normal 0 0 1
    outer loop
      vertex 25 -25 7.5
      vertex -25 25 7.5
      vertex -25 -25 7.5
    endloop
  endfacet
  facet normal 0 0 -1
    outer loop
      vertex -25 -25 2.5
      vertex 25 25 2.5
      vertex 25 -25 2.5
    endloop
  endfacet
  facet normal -0 0 -1
    outer loop
      vertex 25 25 2.5
      vertex -25 -25 2.5
      vertex -25 25 2.5
    endloop
  endfacet
  facet normal -1 0 0
    outer loop
      vertex -25 -25 2.5
      vertex -25 25 7.5
      vertex -25 25 2.5
    endloop
  endfacet
  facet normal -1 -0 0
    outer loop
      vertex -25 25 7.5
      vertex -25 -25 2.5
      vertex -25 -25 7.5
    endloop
  endfacet
  facet normal 0 1 -0
    outer loop
      vertex 25 25 2.5
      vertex -25 25 7.5
      vertex 25 25 7.5
    endloop
  endfacet
  facet normal 0 1 0
    outer loop
      vertex -25 25 7.5
      vertex 25 25 2.5
      vertex -25 25 2.5
    endloop
  endfacet
  facet normal 0 -1 0
    outer loop
      vertex -25 -25 2.5
      vertex 25 -25 7.5
      vertex -25 -25 7.5
    endloop
  endfacet
  facet normal 0 -1 -0
    outer loop
      vertex 25 -25 7.5
      vertex -25 -25 2.5
      vertex 25 -25 2.5
    endloop
  endfacet
  facet normal 1 -0 0
    outer loop
      vertex 25 -25 -2.5
      vertex 25 25 -7.5
      vertex 25 25 -2.5
    endloop
  endfacet
  facet normal 1 0 0
    outer loop
      vertex 25 25 -7.5
      vertex 25 -25 -2.5
      vertex 25 -25 -7.5
    endloop
  endfacet
  facet normal -0 0 1
    outer loop
      vertex -25 25 -2.5
      vertex 25 -25 -2.5
      vertex 25 25 -2.5
    endloop
  endfacet
  facet normal 0 0 1
    outer loop
      vertex 25 -25 -2.5
      vertex -25 25 -2.5
      vertex -25 -25 -2.5
    endloop
  endfacet
  facet normal 0 0 -1
    outer loop
      vertex -25 -25 -7.5
      vertex 25 25 -7.5
      vertex 25 -25 -7.5
    endloop
  endfacet
  facet normal -0 0 -1
    outer loop
      vertex 25 25 -7.5
      vertex -25 -25 -7.5
      vertex -25 25 -7.5
    endloop
  endfacet
  facet normal -1 0 0
    outer loop
      vertex -25 -25 -7.5
      vertex -25 25 -2.5
      vertex -25 25 -7.5
    endloop
  endfacet
  facet normal -1 -0 0
    outer loop
      vertex -25 25 -2.5
      vertex -25 -25 -7.5
      vertex -25 -25 -2.5
    endloop
  endfacet
  facet normal 0 1 -0
    outer loop
      vertex 25 25 -7.5
      vertex -25 25 -2.5
      vertex 25 25 -2.5
    endloop
  endfacet
  facet normal 0 1 0
    outer loop
      vertex -25 25 -2.5
      vertex 25 25 -7.5
      vertex -25 25 -7.5
    endloop
  endfacet
  facet normal 0 -1 0
    outer loop
      vertex -25 -25 -7.5
      vertex 25 -25 -2.5
      vertex -25 -25 -2.5
    endloop
  endfacet
  facet normal 0 -1 -0
    outer loop
      vertex 25 -25 -2.5
      vertex -25 -25 -7.5
      vertex 25 -25 -7.5
    endloop
  endfacet
  facet normal 1 -0 0
    outer loop
      vertex 25 -25 -12.5
      vertex 25 25 -17.5
      vertex 25 25 -12.5
    endloop
  endfacet
  facet normal 1 0 0
    outer loop
      vertex 25 25 -17.5
      vertex 25 -25 -12.5
      vertex 25 -25 -17.5
    endloop
  endfacet
  facet normal -0 0 1
    outer loop
      vertex -25 25 -12.5
      vertex 25 -25 -12.5
      vertex 25 25 -12.5
    endloop
  endfacet
  facet normal 0 0 1
    outer loop
      vertex 25 -25 -12.5
      vertex -25 25 -12.5
      vertex -25 -25 -12.5
    endloop
  endfacet
  facet normal 0 0 -1
    outer loop
      vertex -25 -25 -17.5
      vertex 25 25 -17.5
      vertex 25 -25 -17.5
    endloop
  endfacet
  facet normal -0 0 -1
    outer loop
      vertex 25 25 -17.5
      vertex -25 -25 -17.5
      vertex -25 25 -17.5
    endloop
  endfacet
  facet normal -1 0 0
    outer loop
      vertex -25 -25 -17.5
      vertex -25 25 -12.5
      vertex -25 25 -17.5
    endloop
  endfacet
  facet normal -1 -0 0
    outer loop
      vertex -25 25 -12.5
      vertex -25 -25 -17.5
      vertex -25 -25 -12.5
    endloop
  endfacet
  facet normal 0 1 -0
    outer loop
      vertex 25 25 -17.5
      vertex -25 25 -12.5
      vertex 25 25 -12.5
    endloop
  endfacet
  facet normal 0 1 0
    outer loop
      vertex -25 25 -12.5
      vertex 25 25 -17.5
      vertex -25 25 -17.5
    endloop
  endfacet
  facet normal 0 -1 0
    outer loop
      vertex -25 -25 -17.5
      vertex 25 -25 -12.5
      vertex -25 -25 -12.5
    endloop
  endfacet
  facet normal 0 -1 -0
    outer loop
      vertex 25 -25 -12.5
      vertex -25 -25 -17.5
      vertex 25 -25 -17.5
    endloop
  endfacet
  facet normal 1 -0 0
    outer loop
      vertex 25 -25 -22.5
      vertex 25 25 -27.5
      vertex 25 25 -22.5
    endloop
  endfacet
  facet normal 1 0 0
    outer loop
      vertex 25 25 -27.5
      vertex 25 -25 -22.5
      vertex 25 -25 -27.5
    endloop
  endfacet
  facet normal -0 0 1
    outer loop
      vertex -25 25 -22.5
      vertex 25 -25 -22.5
      vertex 25 25 -22.5
    endloop
  endfacet
  facet normal 0 0 1
    outer loop
      vertex 25 -25 -22.5
      vertex -25 25 -22.5
      vertex -25 -25 -22.5
    endloop
  endfacet
  facet normal 0 0 -1
    outer loop
      vertex -25 -25 -27.5
      vertex 25 25 -27.5
      vertex 25 -25 -27.5
    endloop
  endfacet
  facet normal -0 0 -1
    outer loop
      vertex 25 25 -27.5
      vertex -25 -25 -27.5
      vertex -25 25 -27.5
    endloop
  endfacet
  facet normal -1 0 0
    outer loop
      vertex -25 -25 -27.5
      vertex -25 25 -22.5
      vertex -25 25 -27.5
    endloop
  endfacet
  facet normal -1 -0 0
    outer loop
      vertex -25 25 -22.5
      vertex -25 -25 -27.5
      vertex -25 -25 -22.5
    endloop
  endfacet
  facet normal 0 1 -0
    outer loop
      vertex 25 25 -27.5
      vertex -25 25 -22.5
      vertex 25 25 -22.5
    endloop
  endfacet
  facet normal 0 1 0
    outer loop
      vertex -25 25 -22.5
      vertex 25 25 -27.5
      vertex -25 25 -27.5
    endloop
  endfacet
  facet normal 0 -1 0
    outer loop
      vertex -25 -25 -27.5
      vertex 25 -25 -22.5
      vertex -25 -25 -22.5
    endloop
  endfacet
  facet normal 0 -1 -0
    outer loop
      vertex 25 -25 -22.5
      vertex -25 -25 -27.5
      vertex 25 -25 -27.5
    endloop
  endfacet
endsolid OpenSCAD_Model
