solid OpenSCAD_Model
  facet normal 0 0 1
    outer loop
      vertex 66.5685 99.8528 15
      vertex 10 15 15
      vertex 80.7107 85.7107 15
    endloop
  endfacet
  facet normal 0 -0 1
    outer loop
      vertex 10 15 15
      vertex 66.5685 99.8528 15
      vertex -4.14214 29.1421 15
    endloop
  endfacet
  facet normal 0 0 -1
    outer loop
      vertex 10 15 5
      vertex 66.5685 99.8528 5
      vertex 80.7107 85.7107 5
    endloop
  endfacet
  facet normal 0 0 -1
    outer loop
      vertex 66.5685 99.8528 5
      vertex 10 15 5
      vertex -4.14214 29.1421 5
    endloop
  endfacet
  facet normal 0.707107 -0.707107 0
    outer loop
      vertex 10 15 15
      vertex 80.7107 85.7107 5
      vertex 80.7107 85.7107 15
    endloop
  endfacet
  facet normal 0.707107 -0.707107 0
    outer loop
      vertex 80.7107 85.7107 5
      vertex 10 15 15
      vertex 10 15 5
    endloop
  endfacet
  facet normal 0.707104 0.707109 0
    outer loop
      vertex 80.7107 85.7107 15
      vertex 66.5685 99.8528 5
      vertex 66.5685 99.8528 15
    endloop
  endfacet
  facet normal 0.707104 0.707109 0
    outer loop
      vertex 66.5685 99.8528 5
      vertex 80.7107 85.7107 15
      vertex 80.7107 85.7107 5
    endloop
  endfacet
  facet normal -0.707107 0.707106 0
    outer loop
      vertex -4.14214 29.1421 5
      vertex 66.5685 99.8528 15
      vertex 66.5685 99.8528 5
    endloop
  endfacet
  facet normal -0.707107 0.707106 0
    outer loop
      vertex 66.5685 99.8528 15
      vertex -4.14214 29.1421 5
      vertex -4.14214 29.1421 15
    endloop
  endfacet
  facet normal -0.707106 -0.707108 0
    outer loop
      vertex 10 15 5
      vertex -4.14214 29.1421 15
      vertex -4.14214 29.1421 5
    endloop
  endfacet
  facet normal -0.707106 -0.707108 0
    outer loop
      vertex -4.14214 29.1421 15
      vertex 10 15 5
      vertex 10 15 15
    endloop
  endfacet
endsolid OpenSCAD_Model
