solid OpenSCAD_Model
  facet normal 1 -0 0
    outer loop
      vertex 15 -7.5 50
      vertex 15 7.5 -25
      vertex 15 7.5 50
    endloop
  endfacet
  facet normal 1 0 0
    outer loop
      vertex 15 7.5 -25
      vertex 15 -7.5 50
      vertex 15 -7.5 -25
    endloop
  endfacet
  facet normal -1 0 0
    outer loop
      vertex -15 -7.5 -25
      vertex -15 7.5 50
      vertex -15 7.5 -25
    endloop
  endfacet
  facet normal -1 -0 0
    outer loop
      vertex -15 7.5 50
      vertex -15 -7.5 -25
      vertex -15 -7.5 50
    endloop
  endfacet
  facet normal 0 0 -1
    outer loop
      vertex -15 -7.5 -25
      vertex 15 7.5 -25
      vertex 15 -7.5 -25
    endloop
  endfacet
  facet normal -0 0 -1
    outer loop
      vertex 15 7.5 -25
      vertex -15 -7.5 -25
      vertex -15 7.5 -25
    endloop
  endfacet
  facet normal 0 1 -0
    outer loop
      vertex 15 7.5 -25
      vertex -15 7.5 50
      vertex 15 7.5 50
    endloop
  endfacet
  facet normal 0 1 0
    outer loop
      vertex -15 7.5 50
      vertex 15 7.5 -25
      vertex -15 7.5 -25
    endloop
  endfacet
  facet normal 0 -1 0
    outer loop
      vertex -15 -7.5 -25
      vertex 15 -7.5 50
      vertex -15 -7.5 50
    endloop
  endfacet
  facet normal 0 -1 -0
    outer loop
      vertex 15 -7.5 50
      vertex -15 -7.5 -25
      vertex 15 -7.5 -25
    endloop
  endfacet
  facet normal -0 0 1
    outer loop
      vertex -15 7.5 50
      vertex 15 -7.5 50
      vertex 15 7.5 50
    endloop
  endfacet
  facet normal 0 0 1
    outer loop
      vertex 15 -7.5 50
      vertex -15 7.5 50
      vertex -15 -7.5 50
    endloop
  endfacet
endsolid OpenSCAD_Model
