solid OpenSCAD_Model
  facet normal 1 0 0
    outer loop
      vertex 80 18 10
      vertex 80 0 10
      vertex 80 18 2
    endloop
  endfacet
  facet normal 1 -0 0
    outer loop
      vertex 80 18 2
      vertex 80 20 0
      vertex 80 20 2
    endloop
  endfacet
  facet normal 1 0 0
    outer loop
      vertex 80 0 0
      vertex 80 18 2
      vertex 80 0 10
    endloop
  endfacet
  facet normal 1 0 0
    outer loop
      vertex 80 18 2
      vertex 80 0 0
      vertex 80 20 0
    endloop
  endfacet
  facet normal 0 0 1
    outer loop
      vertex 80 20 2
      vertex 78 18 2
      vertex 80 18 2
    endloop
  endfacet
  facet normal 0 0 1
    outer loop
      vertex 72 4 2
      vertex 78 18 2
      vertex 72 16 2
    endloop
  endfacet
  facet normal 0 0 1
    outer loop
      vertex 80 20 2
      vertex 72 16 2
      vertex 78 18 2
    endloop
  endfacet
  facet normal 0 0 1
    outer loop
      vertex 80 20 2
      vertex 8 16 2
      vertex 72 16 2
    endloop
  endfacet
  facet normal 0 0 1
    outer loop
      vertex 8 16 2
      vertex 2 18 2
      vertex 8 4 2
    endloop
  endfacet
  facet normal -0 0 1
    outer loop
      vertex 0 20 2
      vertex 8 16 2
      vertex 80 20 2
    endloop
  endfacet
  facet normal 0 0 1
    outer loop
      vertex 8 16 2
      vertex 0 20 2
      vertex 2 18 2
    endloop
  endfacet
  facet normal 0 0 1
    outer loop
      vertex 2 18 2
      vertex 0 20 2
      vertex 0 18 2
    endloop
  endfacet
  facet normal 0 0 1
    outer loop
      vertex 78 18 2
      vertex 72 4 2
      vertex 78 0 2
    endloop
  endfacet
  facet normal 0 0 1
    outer loop
      vertex 70 0 2
      vertex 72 4 2
      vertex 70 4 2
    endloop
  endfacet
  facet normal 0 0 1
    outer loop
      vertex 72 4 2
      vertex 70 0 2
      vertex 78 0 2
    endloop
  endfacet
  facet normal -0 0 1
    outer loop
      vertex 8 4 2
      vertex 10 0 2
      vertex 10 4 2
    endloop
  endfacet
  facet normal 0 0 1
    outer loop
      vertex 8 4 2
      vertex 2 0 2
      vertex 10 0 2
    endloop
  endfacet
  facet normal 0 0 1
    outer loop
      vertex 2 0 2
      vertex 8 4 2
      vertex 2 18 2
    endloop
  endfacet
  facet normal -0 0 1
    outer loop
      vertex 20 4 2
      vertex 60 0 2
      vertex 60 4 2
    endloop
  endfacet
  facet normal 0 0 1
    outer loop
      vertex 60 0 2
      vertex 20 4 2
      vertex 20 0 2
    endloop
  endfacet
  facet normal 0 0 -1
    outer loop
      vertex 10 0 0
      vertex 0 0 0
      vertex 10 10 0
    endloop
  endfacet
  facet normal 0 0 -1
    outer loop
      vertex 60 0 0
      vertex 20 0 0
      vertex 60 10 0
    endloop
  endfacet
  facet normal 0 0 -1
    outer loop
      vertex 70 10 0
      vertex 80 0 0
      vertex 70 0 0
    endloop
  endfacet
  facet normal 0 0 -1
    outer loop
      vertex 80 0 0
      vertex 70 10 0
      vertex 80 20 0
    endloop
  endfacet
  facet normal 0 0 -1
    outer loop
      vertex 60 10 0
      vertex 80 20 0
      vertex 70 10 0
    endloop
  endfacet
  facet normal 0 0 -1
    outer loop
      vertex 20 10 0
      vertex 60 10 0
      vertex 20 0 0
    endloop
  endfacet
  facet normal 0 0 -1
    outer loop
      vertex 60 10 0
      vertex 20 10 0
      vertex 80 20 0
    endloop
  endfacet
  facet normal 0 0 -1
    outer loop
      vertex 0 20 0
      vertex 20 10 0
      vertex 10 10 0
    endloop
  endfacet
  facet normal 0 0 -1
    outer loop
      vertex 20 10 0
      vertex 0 20 0
      vertex 80 20 0
    endloop
  endfacet
  facet normal 0 0 -1
    outer loop
      vertex 0 20 0
      vertex 10 10 0
      vertex 0 0 0
    endloop
  endfacet
  facet normal -1 0 0
    outer loop
      vertex 0 20 0
      vertex 0 18 2
      vertex 0 20 2
    endloop
  endfacet
  facet normal -1 0 0
    outer loop
      vertex 0 0 0
      vertex 0 18 2
      vertex 0 20 0
    endloop
  endfacet
  facet normal -1 0 0
    outer loop
      vertex 0 0 10
      vertex 0 18 2
      vertex 0 0 0
    endloop
  endfacet
  facet normal -1 0 0
    outer loop
      vertex 0 18 2
      vertex 0 0 10
      vertex 0 18 10
    endloop
  endfacet
  facet normal 0 1 -0
    outer loop
      vertex 80 20 0
      vertex 0 20 2
      vertex 80 20 2
    endloop
  endfacet
  facet normal 0 1 0
    outer loop
      vertex 0 20 2
      vertex 80 20 0
      vertex 0 20 0
    endloop
  endfacet
  facet normal 0 -1 0
    outer loop
      vertex 70 0 2
      vertex 70 0 0
      vertex 78 0 2
    endloop
  endfacet
  facet normal 0 -1 0
    outer loop
      vertex 78 0 2
      vertex 80 0 10
      vertex 78 0 10
    endloop
  endfacet
  facet normal 0 -1 0
    outer loop
      vertex 78 0 2
      vertex 80 0 0
      vertex 80 0 10
    endloop
  endfacet
  facet normal 0 -1 0
    outer loop
      vertex 80 0 0
      vertex 78 0 2
      vertex 70 0 0
    endloop
  endfacet
  facet normal 0 -1 0
    outer loop
      vertex 0 0 10
      vertex 2 0 2
      vertex 2 0 10
    endloop
  endfacet
  facet normal 0 -1 0
    outer loop
      vertex 0 0 0
      vertex 2 0 2
      vertex 0 0 10
    endloop
  endfacet
  facet normal 0 -1 0
    outer loop
      vertex 10 0 0
      vertex 2 0 2
      vertex 0 0 0
    endloop
  endfacet
  facet normal 0 -1 0
    outer loop
      vertex 2 0 2
      vertex 10 0 0
      vertex 10 0 2
    endloop
  endfacet
  facet normal 0 -1 0
    outer loop
      vertex 20 0 0
      vertex 60 0 2
      vertex 20 0 2
    endloop
  endfacet
  facet normal 0 -1 -0
    outer loop
      vertex 60 0 2
      vertex 20 0 0
      vertex 60 0 0
    endloop
  endfacet
  facet normal 1 -0 0
    outer loop
      vertex 2 0 10
      vertex 2 18 2
      vertex 2 18 10
    endloop
  endfacet
  facet normal 1 0 0
    outer loop
      vertex 2 18 2
      vertex 2 0 10
      vertex 2 0 2
    endloop
  endfacet
  facet normal -0 0 1
    outer loop
      vertex 0 18 10
      vertex 2 0 10
      vertex 2 18 10
    endloop
  endfacet
  facet normal 0 0 1
    outer loop
      vertex 2 0 10
      vertex 0 18 10
      vertex 0 0 10
    endloop
  endfacet
  facet normal 0 1 -0
    outer loop
      vertex 2 18 2
      vertex 0 18 10
      vertex 2 18 10
    endloop
  endfacet
  facet normal 0 1 0
    outer loop
      vertex 0 18 10
      vertex 2 18 2
      vertex 0 18 2
    endloop
  endfacet
  facet normal -0 0 1
    outer loop
      vertex 78 18 10
      vertex 80 0 10
      vertex 80 18 10
    endloop
  endfacet
  facet normal 0 0 1
    outer loop
      vertex 80 0 10
      vertex 78 18 10
      vertex 78 0 10
    endloop
  endfacet
  facet normal -1 0 0
    outer loop
      vertex 78 0 2
      vertex 78 18 10
      vertex 78 18 2
    endloop
  endfacet
  facet normal -1 -0 0
    outer loop
      vertex 78 18 10
      vertex 78 0 2
      vertex 78 0 10
    endloop
  endfacet
  facet normal 0 1 -0
    outer loop
      vertex 80 18 2
      vertex 78 18 10
      vertex 80 18 10
    endloop
  endfacet
  facet normal 0 1 0
    outer loop
      vertex 78 18 10
      vertex 80 18 2
      vertex 78 18 2
    endloop
  endfacet
  facet normal -1 0 0
    outer loop
      vertex 72 4 0.0999994
      vertex 72 16 2
      vertex 72 16 0.0999994
    endloop
  endfacet
  facet normal -1 -0 0
    outer loop
      vertex 72 16 2
      vertex 72 4 0.0999994
      vertex 72 4 2
    endloop
  endfacet
  facet normal 0 0 1
    outer loop
      vertex 72 16 0.0999994
      vertex 70 10 0.0999994
      vertex 72 4 0.0999994
    endloop
  endfacet
  facet normal 0 0 1
    outer loop
      vertex 72 16 0.0999994
      vertex 60 10 0.0999994
      vertex 70 10 0.0999994
    endloop
  endfacet
  facet normal 0 0 1
    outer loop
      vertex 60 10 0.0999994
      vertex 20 10 0.0999994
      vertex 60 4 0.0999994
    endloop
  endfacet
  facet normal 0 0 1
    outer loop
      vertex 72 16 0.0999994
      vertex 20 10 0.0999994
      vertex 60 10 0.0999994
    endloop
  endfacet
  facet normal -0 0 1
    outer loop
      vertex 8 16 0.0999994
      vertex 20 10 0.0999994
      vertex 72 16 0.0999994
    endloop
  endfacet
  facet normal 0 0 1
    outer loop
      vertex 20 10 0.0999994
      vertex 8 16 0.0999994
      vertex 10 10 0.0999994
    endloop
  endfacet
  facet normal 0 0 1
    outer loop
      vertex 8 4 0.0999994
      vertex 10 10 0.0999994
      vertex 8 16 0.0999994
    endloop
  endfacet
  facet normal 0 0 1
    outer loop
      vertex 10 10 0.0999994
      vertex 8 4 0.0999994
      vertex 10 4 0.0999994
    endloop
  endfacet
  facet normal 0 0 1
    outer loop
      vertex 72 4 0.0999994
      vertex 70 10 0.0999994
      vertex 70 4 0.0999994
    endloop
  endfacet
  facet normal 0 0 1
    outer loop
      vertex 60 4 0.0999994
      vertex 20 10 0.0999994
      vertex 20 4 0.0999994
    endloop
  endfacet
  facet normal 1 -0 0
    outer loop
      vertex 8 4 2
      vertex 8 16 0.0999994
      vertex 8 16 2
    endloop
  endfacet
  facet normal 1 0 0
    outer loop
      vertex 8 16 0.0999994
      vertex 8 4 2
      vertex 8 4 0.0999994
    endloop
  endfacet
  facet normal 0 -1 0
    outer loop
      vertex 8 16 0.0999994
      vertex 72 16 2
      vertex 8 16 2
    endloop
  endfacet
  facet normal 0 -1 -0
    outer loop
      vertex 72 16 2
      vertex 8 16 0.0999994
      vertex 72 16 0.0999994
    endloop
  endfacet
  facet normal 0 1 -0
    outer loop
      vertex 72 4 0.0999994
      vertex 70 4 2
      vertex 72 4 2
    endloop
  endfacet
  facet normal 0 1 0
    outer loop
      vertex 70 4 2
      vertex 72 4 0.0999994
      vertex 70 4 0.0999994
    endloop
  endfacet
  facet normal 0 1 -0
    outer loop
      vertex 10 4 0.0999994
      vertex 8 4 2
      vertex 10 4 2
    endloop
  endfacet
  facet normal 0 1 0
    outer loop
      vertex 8 4 2
      vertex 10 4 0.0999994
      vertex 8 4 0.0999994
    endloop
  endfacet
  facet normal 0 1 -0
    outer loop
      vertex 60 4 0.0999994
      vertex 20 4 2
      vertex 60 4 2
    endloop
  endfacet
  facet normal 0 1 0
    outer loop
      vertex 20 4 2
      vertex 60 4 0.0999994
      vertex 20 4 0.0999994
    endloop
  endfacet
  facet normal 1 0 0
    outer loop
      vertex 20 10 4.92893
      vertex 20 4 2
      vertex 20 10 0.0999994
    endloop
  endfacet
  facet normal 1 0 0
    outer loop
      vertex 20 10 4.92893
      vertex 20 0 2
      vertex 20 4 2
    endloop
  endfacet
  facet normal 1 0 0
    outer loop
      vertex 20 0 2
      vertex 20 -20 4.92893
      vertex 20 0 0
    endloop
  endfacet
  facet normal 1 -0 0
    outer loop
      vertex 20 -20 4.92893
      vertex 20 0 2
      vertex 20 10 4.92893
    endloop
  endfacet
  facet normal 1 0 0
    outer loop
      vertex 20 10 0.0999994
      vertex 20 4 2
      vertex 20 4 0.0999994
    endloop
  endfacet
  facet normal 1 -0 0
    outer loop
      vertex 20 0 0
      vertex 20 10 -3
      vertex 20 10 0
    endloop
  endfacet
  facet normal 1 0 0
    outer loop
      vertex 20 -20 -3
      vertex 20 0 0
      vertex 20 -20 4.92893
    endloop
  endfacet
  facet normal 1 0 0
    outer loop
      vertex 20 0 0
      vertex 20 -20 -3
      vertex 20 10 -3
    endloop
  endfacet
  facet normal 0 0 -1
    outer loop
      vertex 10 -20 -3
      vertex 20 10 -3
      vertex 20 -20 -3
    endloop
  endfacet
  facet normal -0 0 -1
    outer loop
      vertex 20 10 -3
      vertex 10 -20 -3
      vertex 10 10 -3
    endloop
  endfacet
  facet normal -1 0 0
    outer loop
      vertex 10 10 -3
      vertex 10 0 0
      vertex 10 10 0
    endloop
  endfacet
  facet normal -1 -0 0
    outer loop
      vertex 10 0 0
      vertex 10 -20 -3
      vertex 10 0 2
    endloop
  endfacet
  facet normal -1 0 0
    outer loop
      vertex 10 -20 -3
      vertex 10 0 0
      vertex 10 10 -3
    endloop
  endfacet
  facet normal -1 0 0
    outer loop
      vertex 10 4 2
      vertex 10 10 0.0999994
      vertex 10 4 0.0999994
    endloop
  endfacet
  facet normal -1 0 0
    outer loop
      vertex 10 10 0.0999994
      vertex 10 4 2
      vertex 10 10 4.92893
    endloop
  endfacet
  facet normal -1 0 0
    outer loop
      vertex 10 0 2
      vertex 10 10 4.92893
      vertex 10 4 2
    endloop
  endfacet
  facet normal -1 0 0
    outer loop
      vertex 10 -20 4.92893
      vertex 10 0 2
      vertex 10 -20 -3
    endloop
  endfacet
  facet normal -1 0 0
    outer loop
      vertex 10 0 2
      vertex 10 -20 4.92893
      vertex 10 10 4.92893
    endloop
  endfacet
  facet normal 0 1 -0
    outer loop
      vertex 20 10 -3
      vertex 10 10 0
      vertex 20 10 0
    endloop
  endfacet
  facet normal 0 1 0
    outer loop
      vertex 10 10 0
      vertex 20 10 -3
      vertex 10 10 -3
    endloop
  endfacet
  facet normal 0 1 -0
    outer loop
      vertex 20 10 4.92893
      vertex 17.0711 10 12
      vertex 22.0711 10 7
    endloop
  endfacet
  facet normal 0 1 0
    outer loop
      vertex 17.0711 10 12
      vertex 20 10 4.92893
      vertex 12.9289 10 12
    endloop
  endfacet
  facet normal 0 1 0
    outer loop
      vertex 10 10 4.92893
      vertex 12.9289 10 12
      vertex 20 10 4.92893
    endloop
  endfacet
  facet normal 0 1 0
    outer loop
      vertex 12.9289 10 12
      vertex 10 10 4.92893
      vertex 7.92893 10 7
    endloop
  endfacet
  facet normal 0 1 -0
    outer loop
      vertex 20 10 0.0999994
      vertex 10 10 4.92893
      vertex 20 10 4.92893
    endloop
  endfacet
  facet normal 0 1 0
    outer loop
      vertex 10 10 4.92893
      vertex 20 10 0.0999994
      vertex 10 10 0.0999994
    endloop
  endfacet
  facet normal 0 -1 0
    outer loop
      vertex 10 -20 4.92893
      vertex 15 -20 14.0711
      vertex 7.92893 -20 7
    endloop
  endfacet
  facet normal 0 -1 0
    outer loop
      vertex 20 -20 4.92893
      vertex 15 -20 14.0711
      vertex 10 -20 4.92893
    endloop
  endfacet
  facet normal 0 -1 0
    outer loop
      vertex 15 -20 14.0711
      vertex 20 -20 4.92893
      vertex 22.0711 -20 7
    endloop
  endfacet
  facet normal 0 -1 0
    outer loop
      vertex 10 -20 -3
      vertex 20 -20 4.92893
      vertex 10 -20 4.92893
    endloop
  endfacet
  facet normal 0 -1 -0
    outer loop
      vertex 20 -20 4.92893
      vertex 10 -20 -3
      vertex 20 -20 -3
    endloop
  endfacet
  facet normal -0.707107 0 -0.707107
    outer loop
      vertex 10 -20 4.92893
      vertex 7.92893 10 7
      vertex 10 10 4.92893
    endloop
  endfacet
  facet normal -0.707107 -0 -0.707107
    outer loop
      vertex 7.92893 10 7
      vertex 10 -20 4.92893
      vertex 7.92893 -20 7
    endloop
  endfacet
  facet normal -0.707109 0 0.707105
    outer loop
      vertex 7.92893 10 7
      vertex 12.9289 5 12
      vertex 12.9289 10 12
    endloop
  endfacet
  facet normal -0.707107 0 0.707107
    outer loop
      vertex 12.9289 5 12
      vertex 13.0289 1 12.1
      vertex 14.9289 5 14
    endloop
  endfacet
  facet normal -0.707109 -1.08786e-07 0.707105
    outer loop
      vertex 7.92893 10 7
      vertex 13.0289 1 12.1
      vertex 12.9289 5 12
    endloop
  endfacet
  facet normal -0.707109 0 0.707105
    outer loop
      vertex 7.92893 10 7
      vertex 13.0289 -5 12.1
      vertex 13.0289 1 12.1
    endloop
  endfacet
  facet normal -0.707109 0 0.707105
    outer loop
      vertex 7.92893 -20 7
      vertex 13.0289 -5 12.1
      vertex 7.92893 10 7
    endloop
  endfacet
  facet normal -0.707108 -3.94219e-07 0.707105
    outer loop
      vertex 15 -20 14.0711
      vertex 13.0289 -5 12.1
      vertex 7.92893 -20 7
    endloop
  endfacet
  facet normal -0.707107 0 0.707107
    outer loop
      vertex 13.0289 -5 12.1
      vertex 15 -20 14.0711
      vertex 15 -5 14.0711
    endloop
  endfacet
  facet normal -0.707107 0 0.707107
    outer loop
      vertex 14.9289 5 14
      vertex 15 9 14.0711
      vertex 14.9289 9 14
    endloop
  endfacet
  facet normal -0.707107 0 0.707107
    outer loop
      vertex 14.9289 5 14
      vertex 15 1 14.0711
      vertex 15 9 14.0711
    endloop
  endfacet
  facet normal -0.707107 0 0.707107
    outer loop
      vertex 15 1 14.0711
      vertex 14.9289 5 14
      vertex 13.0289 1 12.1
    endloop
  endfacet
  facet normal 0.707102 0 -0.707112
    outer loop
      vertex 22.0711 -20 7
      vertex 20 10 4.92893
      vertex 22.0711 10 7
    endloop
  endfacet
  facet normal 0.707102 0 -0.707112
    outer loop
      vertex 20 10 4.92893
      vertex 22.0711 -20 7
      vertex 20 -20 4.92893
    endloop
  endfacet
  facet normal 0.707107 0 0.707107
    outer loop
      vertex 15 -5 14.0711
      vertex 15 -20 14.0711
      vertex 16.9711 -5 12.1
    endloop
  endfacet
  facet normal 0.707107 0 0.707107
    outer loop
      vertex 15 9 14.0711
      vertex 15.0711 5 14
      vertex 15.0711 9 14
    endloop
  endfacet
  facet normal 0.707107 0 0.707107
    outer loop
      vertex 16.9711 1 12.1
      vertex 15.0711 5 14
      vertex 15 1 14.0711
    endloop
  endfacet
  facet normal 0.707107 -0 0.707107
    outer loop
      vertex 15 1 14.0711
      vertex 15.0711 5 14
      vertex 15 9 14.0711
    endloop
  endfacet
  facet normal 0.707107 -0 0.707107
    outer loop
      vertex 17.0711 5 12
      vertex 22.0711 10 7
      vertex 17.0711 10 12
    endloop
  endfacet
  facet normal 0.707107 -3.14018e-16 0.707107
    outer loop
      vertex 15.0711 5 14
      vertex 16.9711 1 12.1
      vertex 17.0711 5 12
    endloop
  endfacet
  facet normal 0.707107 -3.2207e-16 0.707107
    outer loop
      vertex 17.0711 5 12
      vertex 16.9711 1 12.1
      vertex 22.0711 10 7
    endloop
  endfacet
  facet normal 0.707107 -0 0.707107
    outer loop
      vertex 16.9711 -5 12.1
      vertex 22.0711 10 7
      vertex 16.9711 1 12.1
    endloop
  endfacet
  facet normal 0.707107 0 0.707107
    outer loop
      vertex 22.0711 -20 7
      vertex 16.9711 -5 12.1
      vertex 15 -20 14.0711
    endloop
  endfacet
  facet normal 0.707107 0 0.707107
    outer loop
      vertex 16.9711 -5 12.1
      vertex 22.0711 -20 7
      vertex 22.0711 10 7
    endloop
  endfacet
  facet normal -0 0 1
    outer loop
      vertex 13.0289 1 12.1
      vertex 16.9711 -5 12.1
      vertex 16.9711 1 12.1
    endloop
  endfacet
  facet normal 0 0 1
    outer loop
      vertex 16.9711 -5 12.1
      vertex 13.0289 1 12.1
      vertex 13.0289 -5 12.1
    endloop
  endfacet
  facet normal 0 -1 0
    outer loop
      vertex 16.9711 1 12.1
      vertex 15 1 14.0711
      vertex 13.0289 1 12.1
    endloop
  endfacet
  facet normal 0 1 0
    outer loop
      vertex 15 -5 14.0711
      vertex 16.9711 -5 12.1
      vertex 13.0289 -5 12.1
    endloop
  endfacet
  facet normal 1 0 0
    outer loop
      vertex 70 10 4.92893
      vertex 70 4 2
      vertex 70 10 0.0999994
    endloop
  endfacet
  facet normal 1 0 0
    outer loop
      vertex 70 10 4.92893
      vertex 70 0 2
      vertex 70 4 2
    endloop
  endfacet
  facet normal 1 0 0
    outer loop
      vertex 70 0 2
      vertex 70 -20 4.92893
      vertex 70 0 0
    endloop
  endfacet
  facet normal 1 -0 0
    outer loop
      vertex 70 -20 4.92893
      vertex 70 0 2
      vertex 70 10 4.92893
    endloop
  endfacet
  facet normal 1 0 0
    outer loop
      vertex 70 10 0.0999994
      vertex 70 4 2
      vertex 70 4 0.0999994
    endloop
  endfacet
  facet normal 1 -0 0
    outer loop
      vertex 70 0 0
      vertex 70 10 -3
      vertex 70 10 0
    endloop
  endfacet
  facet normal 1 0 0
    outer loop
      vertex 70 -20 -3
      vertex 70 0 0
      vertex 70 -20 4.92893
    endloop
  endfacet
  facet normal 1 0 0
    outer loop
      vertex 70 0 0
      vertex 70 -20 -3
      vertex 70 10 -3
    endloop
  endfacet
  facet normal 0 0 -1
    outer loop
      vertex 60 -20 -3
      vertex 70 10 -3
      vertex 70 -20 -3
    endloop
  endfacet
  facet normal -0 0 -1
    outer loop
      vertex 70 10 -3
      vertex 60 -20 -3
      vertex 60 10 -3
    endloop
  endfacet
  facet normal -1 0 0
    outer loop
      vertex 60 10 -3
      vertex 60 0 0
      vertex 60 10 0
    endloop
  endfacet
  facet normal -1 -0 0
    outer loop
      vertex 60 0 0
      vertex 60 -20 -3
      vertex 60 0 2
    endloop
  endfacet
  facet normal -1 0 0
    outer loop
      vertex 60 -20 -3
      vertex 60 0 0
      vertex 60 10 -3
    endloop
  endfacet
  facet normal -1 0 0
    outer loop
      vertex 60 4 2
      vertex 60 10 0.0999994
      vertex 60 4 0.0999994
    endloop
  endfacet
  facet normal -1 0 0
    outer loop
      vertex 60 10 0.0999994
      vertex 60 4 2
      vertex 60 10 4.92893
    endloop
  endfacet
  facet normal -1 0 0
    outer loop
      vertex 60 0 2
      vertex 60 10 4.92893
      vertex 60 4 2
    endloop
  endfacet
  facet normal -1 0 0
    outer loop
      vertex 60 -20 4.92893
      vertex 60 0 2
      vertex 60 -20 -3
    endloop
  endfacet
  facet normal -1 0 0
    outer loop
      vertex 60 0 2
      vertex 60 -20 4.92893
      vertex 60 10 4.92893
    endloop
  endfacet
  facet normal 0 1 -0
    outer loop
      vertex 70 10 -3
      vertex 60 10 0
      vertex 70 10 0
    endloop
  endfacet
  facet normal 0 1 0
    outer loop
      vertex 60 10 0
      vertex 70 10 -3
      vertex 60 10 -3
    endloop
  endfacet
  facet normal 0 1 -0
    outer loop
      vertex 70 10 4.92893
      vertex 67.0711 10 12
      vertex 72.0711 10 7
    endloop
  endfacet
  facet normal 0 1 0
    outer loop
      vertex 67.0711 10 12
      vertex 70 10 4.92893
      vertex 62.9289 10 12
    endloop
  endfacet
  facet normal 0 1 0
    outer loop
      vertex 60 10 4.92893
      vertex 62.9289 10 12
      vertex 70 10 4.92893
    endloop
  endfacet
  facet normal 0 1 0
    outer loop
      vertex 62.9289 10 12
      vertex 60 10 4.92893
      vertex 57.9289 10 7
    endloop
  endfacet
  facet normal 0 1 -0
    outer loop
      vertex 70 10 0.0999994
      vertex 60 10 4.92893
      vertex 70 10 4.92893
    endloop
  endfacet
  facet normal 0 1 0
    outer loop
      vertex 60 10 4.92893
      vertex 70 10 0.0999994
      vertex 60 10 0.0999994
    endloop
  endfacet
  facet normal 0 -1 0
    outer loop
      vertex 60 -20 4.92893
      vertex 65 -20 14.0711
      vertex 57.9289 -20 7
    endloop
  endfacet
  facet normal 0 -1 0
    outer loop
      vertex 70 -20 4.92893
      vertex 65 -20 14.0711
      vertex 60 -20 4.92893
    endloop
  endfacet
  facet normal 0 -1 0
    outer loop
      vertex 65 -20 14.0711
      vertex 70 -20 4.92893
      vertex 72.0711 -20 7
    endloop
  endfacet
  facet normal 0 -1 0
    outer loop
      vertex 60 -20 -3
      vertex 70 -20 4.92893
      vertex 60 -20 4.92893
    endloop
  endfacet
  facet normal 0 -1 -0
    outer loop
      vertex 70 -20 4.92893
      vertex 60 -20 -3
      vertex 70 -20 -3
    endloop
  endfacet
  facet normal -0.707102 0 -0.707112
    outer loop
      vertex 60 -20 4.92893
      vertex 57.9289 10 7
      vertex 60 10 4.92893
    endloop
  endfacet
  facet normal -0.707102 -0 -0.707112
    outer loop
      vertex 57.9289 10 7
      vertex 60 -20 4.92893
      vertex 57.9289 -20 7
    endloop
  endfacet
  facet normal -0.707107 0 0.707107
    outer loop
      vertex 57.9289 10 7
      vertex 62.9289 5 12
      vertex 62.9289 10 12
    endloop
  endfacet
  facet normal -0.707107 -3.14018e-16 0.707107
    outer loop
      vertex 62.9289 5 12
      vertex 63.0289 1 12.1
      vertex 64.9289 5 14
    endloop
  endfacet
  facet normal -0.707107 -2.57656e-16 0.707107
    outer loop
      vertex 57.9289 10 7
      vertex 63.0289 1 12.1
      vertex 62.9289 5 12
    endloop
  endfacet
  facet normal -0.707107 0 0.707107
    outer loop
      vertex 57.9289 10 7
      vertex 63.0289 -5 12.1
      vertex 63.0289 1 12.1
    endloop
  endfacet
  facet normal -0.707107 0 0.707107
    outer loop
      vertex 57.9289 -20 7
      vertex 63.0289 -5 12.1
      vertex 57.9289 10 7
    endloop
  endfacet
  facet normal -0.707107 2.36847e-17 0.707107
    outer loop
      vertex 65 -20 14.0711
      vertex 63.0289 -5 12.1
      vertex 57.9289 -20 7
    endloop
  endfacet
  facet normal -0.707107 0 0.707107
    outer loop
      vertex 63.0289 -5 12.1
      vertex 65 -20 14.0711
      vertex 65 -5 14.0711
    endloop
  endfacet
  facet normal -0.707107 0 0.707107
    outer loop
      vertex 64.9289 5 14
      vertex 65 9 14.0711
      vertex 64.9289 9 14
    endloop
  endfacet
  facet normal -0.707107 0 0.707107
    outer loop
      vertex 64.9289 5 14
      vertex 65 1 14.0711
      vertex 65 9 14.0711
    endloop
  endfacet
  facet normal -0.707107 -3.13644e-16 0.707107
    outer loop
      vertex 65 1 14.0711
      vertex 64.9289 5 14
      vertex 63.0289 1 12.1
    endloop
  endfacet
  facet normal 0.707102 0 -0.707112
    outer loop
      vertex 72.0711 -20 7
      vertex 70 10 4.92893
      vertex 72.0711 10 7
    endloop
  endfacet
  facet normal 0.707102 0 -0.707112
    outer loop
      vertex 70 10 4.92893
      vertex 72.0711 -20 7
      vertex 70 -20 4.92893
    endloop
  endfacet
  facet normal 0.707107 0 0.707107
    outer loop
      vertex 65 -5 14.0711
      vertex 65 -20 14.0711
      vertex 66.9711 -5 12.1
    endloop
  endfacet
  facet normal 0.707107 0 0.707107
    outer loop
      vertex 65 9 14.0711
      vertex 65.0711 5 14
      vertex 65.0711 9 14
    endloop
  endfacet
  facet normal 0.707107 -2.78795e-16 0.707107
    outer loop
      vertex 66.9711 1 12.1
      vertex 65.0711 5 14
      vertex 65 1 14.0711
    endloop
  endfacet
  facet normal 0.707107 -0 0.707107
    outer loop
      vertex 65 1 14.0711
      vertex 65.0711 5 14
      vertex 65 9 14.0711
    endloop
  endfacet
  facet normal 0.707107 -0 0.707107
    outer loop
      vertex 67.0711 5 12
      vertex 72.0711 10 7
      vertex 67.0711 10 12
    endloop
  endfacet
  facet normal 0.707107 9.42055e-16 0.707107
    outer loop
      vertex 65.0711 5 14
      vertex 66.9711 1 12.1
      vertex 67.0711 5 12
    endloop
  endfacet
  facet normal 0.707107 9.66211e-16 0.707107
    outer loop
      vertex 67.0711 5 12
      vertex 66.9711 1 12.1
      vertex 72.0711 10 7
    endloop
  endfacet
  facet normal 0.707107 -0 0.707107
    outer loop
      vertex 66.9711 -5 12.1
      vertex 72.0711 10 7
      vertex 66.9711 1 12.1
    endloop
  endfacet
  facet normal 0.707107 -3.31585e-16 0.707107
    outer loop
      vertex 72.0711 -20 7
      vertex 66.9711 -5 12.1
      vertex 65 -20 14.0711
    endloop
  endfacet
  facet normal 0.707107 0 0.707107
    outer loop
      vertex 66.9711 -5 12.1
      vertex 72.0711 -20 7
      vertex 72.0711 10 7
    endloop
  endfacet
  facet normal -0 0 1
    outer loop
      vertex 63.0289 1 12.1
      vertex 66.9711 -5 12.1
      vertex 66.9711 1 12.1
    endloop
  endfacet
  facet normal 0 0 1
    outer loop
      vertex 66.9711 -5 12.1
      vertex 63.0289 1 12.1
      vertex 63.0289 -5 12.1
    endloop
  endfacet
  facet normal 0 -1 0
    outer loop
      vertex 66.9711 1 12.1
      vertex 65 1 14.0711
      vertex 63.0289 1 12.1
    endloop
  endfacet
  facet normal 0 1 0
    outer loop
      vertex 65 -5 14.0711
      vertex 66.9711 -5 12.1
      vertex 63.0289 -5 12.1
    endloop
  endfacet
  facet normal 1 -0 0
    outer loop
      vertex 75 5 14
      vertex 75 25 12
      vertex 75 25 14
    endloop
  endfacet
  facet normal 1 0 0
    outer loop
      vertex 75 25 12
      vertex 75 5 14
      vertex 75 5 12
    endloop
  endfacet
  facet normal 0 0 1
    outer loop
      vertex 70 9 14
      vertex 75 25 14
      vertex 70 23 14
    endloop
  endfacet
  facet normal 0 0 1
    outer loop
      vertex 75 25 14
      vertex 10 23 14
      vertex 70 23 14
    endloop
  endfacet
  facet normal 0 0 1
    outer loop
      vertex 10 23 14
      vertex 5 25 14
      vertex 10 9 14
    endloop
  endfacet
  facet normal -0 0 1
    outer loop
      vertex 5 25 14
      vertex 10 23 14
      vertex 75 25 14
    endloop
  endfacet
  facet normal 0 0 1
    outer loop
      vertex 75 25 14
      vertex 70 9 14
      vertex 75 5 14
    endloop
  endfacet
  facet normal 0 0 1
    outer loop
      vertex 65.0711 5 14
      vertex 70 9 14
      vertex 65.0711 9 14
    endloop
  endfacet
  facet normal 0 0 1
    outer loop
      vertex 70 9 14
      vertex 65.0711 5 14
      vertex 75 5 14
    endloop
  endfacet
  facet normal -0 0 1
    outer loop
      vertex 10 9 14
      vertex 14.9289 5 14
      vertex 14.9289 9 14
    endloop
  endfacet
  facet normal 0 0 1
    outer loop
      vertex 10 9 14
      vertex 5 5 14
      vertex 14.9289 5 14
    endloop
  endfacet
  facet normal 0 0 1
    outer loop
      vertex 5 5 14
      vertex 10 9 14
      vertex 5 25 14
    endloop
  endfacet
  facet normal -0 0 1
    outer loop
      vertex 15.0711 9 14
      vertex 64.9289 5 14
      vertex 64.9289 9 14
    endloop
  endfacet
  facet normal 0 0 1
    outer loop
      vertex 64.9289 5 14
      vertex 15.0711 9 14
      vertex 15.0711 5 14
    endloop
  endfacet
  facet normal 0 0 -1
    outer loop
      vertex 12.9289 5 12
      vertex 5 5 12
      vertex 12.9289 10 12
    endloop
  endfacet
  facet normal 0 0 -1
    outer loop
      vertex 62.9289 5 12
      vertex 17.0711 5 12
      vertex 62.9289 10 12
    endloop
  endfacet
  facet normal 0 0 -1
    outer loop
      vertex 67.0711 10 12
      vertex 75 5 12
      vertex 67.0711 5 12
    endloop
  endfacet
  facet normal 0 0 -1
    outer loop
      vertex 75 5 12
      vertex 67.0711 10 12
      vertex 75 25 12
    endloop
  endfacet
  facet normal 0 0 -1
    outer loop
      vertex 62.9289 10 12
      vertex 75 25 12
      vertex 67.0711 10 12
    endloop
  endfacet
  facet normal 0 0 -1
    outer loop
      vertex 17.0711 10 12
      vertex 62.9289 10 12
      vertex 17.0711 5 12
    endloop
  endfacet
  facet normal 0 0 -1
    outer loop
      vertex 62.9289 10 12
      vertex 17.0711 10 12
      vertex 75 25 12
    endloop
  endfacet
  facet normal 0 0 -1
    outer loop
      vertex 5 25 12
      vertex 17.0711 10 12
      vertex 12.9289 10 12
    endloop
  endfacet
  facet normal 0 0 -1
    outer loop
      vertex 17.0711 10 12
      vertex 5 25 12
      vertex 75 25 12
    endloop
  endfacet
  facet normal 0 0 -1
    outer loop
      vertex 5 25 12
      vertex 12.9289 10 12
      vertex 5 5 12
    endloop
  endfacet
  facet normal -1 0 0
    outer loop
      vertex 5 5 12
      vertex 5 25 14
      vertex 5 25 12
    endloop
  endfacet
  facet normal -1 -0 0
    outer loop
      vertex 5 25 14
      vertex 5 5 12
      vertex 5 5 14
    endloop
  endfacet
  facet normal 0 1 -0
    outer loop
      vertex 75 25 12
      vertex 5 25 14
      vertex 75 25 14
    endloop
  endfacet
  facet normal 0 1 0
    outer loop
      vertex 5 25 14
      vertex 75 25 12
      vertex 5 25 12
    endloop
  endfacet
  facet normal 0 -1 0
    outer loop
      vertex 12.9289 5 12
      vertex 5 5 14
      vertex 5 5 12
    endloop
  endfacet
  facet normal 0 -1 0
    outer loop
      vertex 5 5 14
      vertex 12.9289 5 12
      vertex 14.9289 5 14
    endloop
  endfacet
  facet normal 0 -1 0
    outer loop
      vertex 67.0711 5 12
      vertex 75 5 14
      vertex 65.0711 5 14
    endloop
  endfacet
  facet normal 0 -1 -0
    outer loop
      vertex 75 5 14
      vertex 67.0711 5 12
      vertex 75 5 12
    endloop
  endfacet
  facet normal 0 -1 0
    outer loop
      vertex 17.0711 5 12
      vertex 64.9289 5 14
      vertex 15.0711 5 14
    endloop
  endfacet
  facet normal 0 -1 0
    outer loop
      vertex 64.9289 5 14
      vertex 17.0711 5 12
      vertex 62.9289 5 12
    endloop
  endfacet
  facet normal 1 -0 0
    outer loop
      vertex 70 9 14.2
      vertex 70 23 14
      vertex 70 23 14.2
    endloop
  endfacet
  facet normal 1 0 0
    outer loop
      vertex 70 23 14
      vertex 70 9 14.2
      vertex 70 9 14
    endloop
  endfacet
  facet normal -0 0 1
    outer loop
      vertex 10 23 14.2
      vertex 70 9 14.2
      vertex 70 23 14.2
    endloop
  endfacet
  facet normal 0 0 1
    outer loop
      vertex 70 9 14.2
      vertex 10 23 14.2
      vertex 10 9 14.2
    endloop
  endfacet
  facet normal -1 0 0
    outer loop
      vertex 10 9 14
      vertex 10 23 14.2
      vertex 10 23 14
    endloop
  endfacet
  facet normal -1 -0 0
    outer loop
      vertex 10 23 14.2
      vertex 10 9 14
      vertex 10 9 14.2
    endloop
  endfacet
  facet normal 0 1 -0
    outer loop
      vertex 70 23 14
      vertex 10 23 14.2
      vertex 70 23 14.2
    endloop
  endfacet
  facet normal 0 1 0
    outer loop
      vertex 10 23 14.2
      vertex 70 23 14
      vertex 10 23 14
    endloop
  endfacet
  facet normal 0 -1 0
    outer loop
      vertex 15.0711 9 14
      vertex 65 9 14.0711
      vertex 15 9 14.0711
    endloop
  endfacet
  facet normal 0 -1 0
    outer loop
      vertex 65 9 14.0711
      vertex 15.0711 9 14
      vertex 64.9289 9 14
    endloop
  endfacet
  facet normal 0 -1 0
    outer loop
      vertex 10 9 14.2
      vertex 15 9 14.0711
      vertex 70 9 14.2
    endloop
  endfacet
  facet normal 0 -1 0
    outer loop
      vertex 14.9289 9 14
      vertex 10 9 14.2
      vertex 10 9 14
    endloop
  endfacet
  facet normal 0 -1 0
    outer loop
      vertex 10 9 14.2
      vertex 14.9289 9 14
      vertex 15 9 14.0711
    endloop
  endfacet
  facet normal 0 -1 0
    outer loop
      vertex 65 9 14.0711
      vertex 70 9 14.2
      vertex 15 9 14.0711
    endloop
  endfacet
  facet normal 0 -1 0
    outer loop
      vertex 65.0711 9 14
      vertex 70 9 14.2
      vertex 65 9 14.0711
    endloop
  endfacet
  facet normal 0 -1 -0
    outer loop
      vertex 70 9 14.2
      vertex 65.0711 9 14
      vertex 70 9 14
    endloop
  endfacet
endsolid OpenSCAD_Model
