solid OpenSCAD_Model
  facet normal 1 -0 0
    outer loop
      vertex 30 -15 20
      vertex 30 15 -20
      vertex 30 15 20
    endloop
  endfacet
  facet normal 1 0 0
    outer loop
      vertex 30 15 -20
      vertex 30 -15 20
      vertex 30 -15 -20
    endloop
  endfacet
  facet normal 0 0 1
    outer loop
      vertex 30 15 20
      vertex 28 13 20
      vertex 30 -15 20
    endloop
  endfacet
  facet normal -0 0 1
    outer loop
      vertex 10 15 20
      vertex 28 13 20
      vertex 30 15 20
    endloop
  endfacet
  facet normal 0 0 1
    outer loop
      vertex 28 13 20
      vertex 10 15 20
      vertex 10 13 20
    endloop
  endfacet
  facet normal -0 0 1
    outer loop
      vertex 28 -13 20
      vertex 30 -15 20
      vertex 28 13 20
    endloop
  endfacet
  facet normal 0 0 1
    outer loop
      vertex 10 -15 20
      vertex 28 -13 20
      vertex 10 -13 20
    endloop
  endfacet
  facet normal 0 0 1
    outer loop
      vertex 28 -13 20
      vertex 10 -15 20
      vertex 30 -15 20
    endloop
  endfacet
  facet normal 0 0 -1
    outer loop
      vertex 30 -15 -20
      vertex 28 -13 -20
      vertex 30 15 -20
    endloop
  endfacet
  facet normal 0 0 -1
    outer loop
      vertex 30 -15 -20
      vertex -28 -13 -20
      vertex 28 -13 -20
    endloop
  endfacet
  facet normal -0 0 -1
    outer loop
      vertex -28 -13 -20
      vertex -30 -15 -20
      vertex -28 13 -20
    endloop
  endfacet
  facet normal 0 0 -1
    outer loop
      vertex -30 -15 -20
      vertex -28 -13 -20
      vertex 30 -15 -20
    endloop
  endfacet
  facet normal 0 0 -1
    outer loop
      vertex 28 13 -20
      vertex 30 15 -20
      vertex 28 -13 -20
    endloop
  endfacet
  facet normal 0 0 -1
    outer loop
      vertex -28 13 -20
      vertex 30 15 -20
      vertex 28 13 -20
    endloop
  endfacet
  facet normal 0 0 -1
    outer loop
      vertex -28 13 -20
      vertex -30 15 -20
      vertex 30 15 -20
    endloop
  endfacet
  facet normal 0 0 -1
    outer loop
      vertex -30 15 -20
      vertex -28 13 -20
      vertex -30 -15 -20
    endloop
  endfacet
  facet normal -1 0 0
    outer loop
      vertex -30 -15 -20
      vertex -30 15 20
      vertex -30 15 -20
    endloop
  endfacet
  facet normal -1 -0 0
    outer loop
      vertex -30 15 20
      vertex -30 -15 -20
      vertex -30 -15 20
    endloop
  endfacet
  facet normal 0 1 0
    outer loop
      vertex 30 15 20
      vertex 10 15 0
      vertex 10 15 20
    endloop
  endfacet
  facet normal 0 1 0
    outer loop
      vertex -30 15 -20
      vertex 10 15 0
      vertex 30 15 -20
    endloop
  endfacet
  facet normal 0 1 -0
    outer loop
      vertex 30 15 -20
      vertex 10 15 0
      vertex 30 15 20
    endloop
  endfacet
  facet normal 0 1 -0
    outer loop
      vertex -28.5 15 0
      vertex -30 15 20
      vertex -28.5 15 20
    endloop
  endfacet
  facet normal 0 1 0
    outer loop
      vertex -28.5 15 0
      vertex -30 15 -20
      vertex -30 15 20
    endloop
  endfacet
  facet normal 0 1 0
    outer loop
      vertex 10 15 0
      vertex -30 15 -20
      vertex -28.5 15 0
    endloop
  endfacet
  facet normal 0 -1 0
    outer loop
      vertex -30 -15 20
      vertex -28.5 -15 0
      vertex -28.5 -15 20
    endloop
  endfacet
  facet normal 0 -1 -0
    outer loop
      vertex -28.5 -15 0
      vertex -30 -15 -20
      vertex 10 -15 0
    endloop
  endfacet
  facet normal 0 -1 0
    outer loop
      vertex -30 -15 -20
      vertex -28.5 -15 0
      vertex -30 -15 20
    endloop
  endfacet
  facet normal 0 -1 0
    outer loop
      vertex 10 -15 0
      vertex 30 -15 20
      vertex 10 -15 20
    endloop
  endfacet
  facet normal 0 -1 0
    outer loop
      vertex 10 -15 0
      vertex 30 -15 -20
      vertex 30 -15 20
    endloop
  endfacet
  facet normal 0 -1 0
    outer loop
      vertex 30 -15 -20
      vertex 10 -15 0
      vertex -30 -15 -20
    endloop
  endfacet
  facet normal -1 0 0
    outer loop
      vertex 28 -13 11.5
      vertex 28 13 20
      vertex 28 13 11.5
    endloop
  endfacet
  facet normal -1 -0 0
    outer loop
      vertex 28 13 20
      vertex 28 -13 11.5
      vertex 28 -13 20
    endloop
  endfacet
  facet normal -1 0 0
    outer loop
      vertex 28 -13 -20
      vertex 28 13 -11.5
      vertex 28 13 -20
    endloop
  endfacet
  facet normal -1 -0 0
    outer loop
      vertex 28 13 -11.5
      vertex 28 -13 -20
      vertex 28 -13 -11.5
    endloop
  endfacet
  facet normal -1 0 0
    outer loop
      vertex 28 -13 -8.5
      vertex 28 13 8.5
      vertex 28 13 -8.5
    endloop
  endfacet
  facet normal -1 -0 0
    outer loop
      vertex 28 13 8.5
      vertex 28 -13 -8.5
      vertex 28 -13 8.5
    endloop
  endfacet
  facet normal 1 -0 0
    outer loop
      vertex -28 -13 -11.5
      vertex -28 13 -20
      vertex -28 13 -11.5
    endloop
  endfacet
  facet normal 1 0 0
    outer loop
      vertex -28 13 -20
      vertex -28 -13 -11.5
      vertex -28 -13 -20
    endloop
  endfacet
  facet normal 1 -0 0
    outer loop
      vertex -28 -13 0
      vertex -28 13 -8.5
      vertex -28 13 0
    endloop
  endfacet
  facet normal 1 0 0
    outer loop
      vertex -28 13 -8.5
      vertex -28 -13 0
      vertex -28 -13 -8.5
    endloop
  endfacet
  facet normal 0 -1 0
    outer loop
      vertex 10 13 11.5
      vertex 28 13 20
      vertex 10 13 20
    endloop
  endfacet
  facet normal 0 -1 -0
    outer loop
      vertex 28 13 20
      vertex 10 13 11.5
      vertex 28 13 11.5
    endloop
  endfacet
  facet normal 0 -1 0
    outer loop
      vertex -28 13 -20
      vertex 28 13 -11.5
      vertex -28 13 -11.5
    endloop
  endfacet
  facet normal 0 -1 -0
    outer loop
      vertex 28 13 -11.5
      vertex -28 13 -20
      vertex 28 13 -20
    endloop
  endfacet
  facet normal 0 -1 0
    outer loop
      vertex -28 13 0
      vertex -28 13 -8.5
      vertex 10 13 0
    endloop
  endfacet
  facet normal 0 -1 0
    outer loop
      vertex 10 13 0
      vertex 28 13 8.5
      vertex 10 13 8.5
    endloop
  endfacet
  facet normal 0 -1 0
    outer loop
      vertex 10 13 0
      vertex 28 13 -8.5
      vertex 28 13 8.5
    endloop
  endfacet
  facet normal 0 -1 0
    outer loop
      vertex 28 13 -8.5
      vertex 10 13 0
      vertex -28 13 -8.5
    endloop
  endfacet
  facet normal 0 1 -0
    outer loop
      vertex 10 13 8.5
      vertex -28 13 11.5
      vertex 10 13 11.5
    endloop
  endfacet
  facet normal 0 1 0
    outer loop
      vertex -28 13 11.5
      vertex 10 13 8.5
      vertex -28 13 8.5
    endloop
  endfacet
  facet normal 0 1 -0
    outer loop
      vertex 28 -13 11.5
      vertex 10 -13 20
      vertex 28 -13 20
    endloop
  endfacet
  facet normal 0 1 0
    outer loop
      vertex 10 -13 20
      vertex 28 -13 11.5
      vertex 10 -13 11.5
    endloop
  endfacet
  facet normal 0 1 -0
    outer loop
      vertex 28 -13 -20
      vertex -28 -13 -11.5
      vertex 28 -13 -11.5
    endloop
  endfacet
  facet normal 0 1 0
    outer loop
      vertex -28 -13 -11.5
      vertex 28 -13 -20
      vertex -28 -13 -20
    endloop
  endfacet
  facet normal 0 1 0
    outer loop
      vertex 28 -13 8.5
      vertex 10 -13 0
      vertex 10 -13 8.5
    endloop
  endfacet
  facet normal 0 1 -0
    outer loop
      vertex 28 -13 -8.5
      vertex 10 -13 0
      vertex 28 -13 8.5
    endloop
  endfacet
  facet normal 0 1 0
    outer loop
      vertex -28 -13 -8.5
      vertex 10 -13 0
      vertex 28 -13 -8.5
    endloop
  endfacet
  facet normal 0 1 0
    outer loop
      vertex 10 -13 0
      vertex -28 -13 -8.5
      vertex -28 -13 0
    endloop
  endfacet
  facet normal 0 -1 0
    outer loop
      vertex -28 -13 8.5
      vertex 10 -13 11.5
      vertex -28 -13 11.5
    endloop
  endfacet
  facet normal 0 -1 -0
    outer loop
      vertex 10 -13 11.5
      vertex -28 -13 8.5
      vertex 10 -13 8.5
    endloop
  endfacet
  facet normal -1 0 0
    outer loop
      vertex 10 13 8.5
      vertex 10 15 0
      vertex 10 13 0
    endloop
  endfacet
  facet normal -1 0 0
    outer loop
      vertex 10 15 0
      vertex 10 13 8.5
      vertex 10 15 20
    endloop
  endfacet
  facet normal -1 0 0
    outer loop
      vertex 10 13 11.5
      vertex 10 15 20
      vertex 10 13 8.5
    endloop
  endfacet
  facet normal -1 -0 0
    outer loop
      vertex 10 15 20
      vertex 10 13 11.5
      vertex 10 13 20
    endloop
  endfacet
  facet normal -1 0 0
    outer loop
      vertex 10 -15 0
      vertex 10 -13 8.5
      vertex 10 -13 0
    endloop
  endfacet
  facet normal -1 -0 0
    outer loop
      vertex 10 -13 8.5
      vertex 10 -15 0
      vertex 10 -13 11.5
    endloop
  endfacet
  facet normal -1 0 0
    outer loop
      vertex 10 -15 20
      vertex 10 -13 11.5
      vertex 10 -15 0
    endloop
  endfacet
  facet normal -1 0 0
    outer loop
      vertex 10 -13 11.5
      vertex 10 -15 20
      vertex 10 -13 20
    endloop
  endfacet
  facet normal 0 0 1
    outer loop
      vertex 10 15 0
      vertex -28 13 0
      vertex 10 13 0
    endloop
  endfacet
  facet normal 0 0 1
    outer loop
      vertex -28 13 0
      vertex -28.5 15 0
      vertex -28 -13 0
    endloop
  endfacet
  facet normal -0 0 1
    outer loop
      vertex -28.5 15 0
      vertex -28 13 0
      vertex 10 15 0
    endloop
  endfacet
  facet normal -0 0 1
    outer loop
      vertex -28 -13 0
      vertex 10 -15 0
      vertex 10 -13 0
    endloop
  endfacet
  facet normal 0 0 1
    outer loop
      vertex -28 -13 0
      vertex -28.5 -15 0
      vertex 10 -15 0
    endloop
  endfacet
  facet normal 0 0 1
    outer loop
      vertex -28.5 -15 0
      vertex -28 -13 0
      vertex -28.5 15 0
    endloop
  endfacet
  facet normal -0 0 1
    outer loop
      vertex -28 13 -8.5
      vertex 28 -13 -8.5
      vertex 28 13 -8.5
    endloop
  endfacet
  facet normal 0 0 1
    outer loop
      vertex 28 -13 -8.5
      vertex -28 13 -8.5
      vertex -28 -13 -8.5
    endloop
  endfacet
  facet normal 0 0 -1
    outer loop
      vertex -28 -13 -11.5
      vertex 28 13 -11.5
      vertex 28 -13 -11.5
    endloop
  endfacet
  facet normal -0 0 -1
    outer loop
      vertex 28 13 -11.5
      vertex -28 -13 -11.5
      vertex -28 13 -11.5
    endloop
  endfacet
  facet normal -0 0 1
    outer loop
      vertex 10 13 11.5
      vertex 28 -13 11.5
      vertex 28 13 11.5
    endloop
  endfacet
  facet normal 0 0 1
    outer loop
      vertex 10 13 11.5
      vertex 10 -13 11.5
      vertex 28 -13 11.5
    endloop
  endfacet
  facet normal -0 0 1
    outer loop
      vertex -28 13 11.5
      vertex 10 -13 11.5
      vertex 10 13 11.5
    endloop
  endfacet
  facet normal 0 0 1
    outer loop
      vertex 10 -13 11.5
      vertex -28 13 11.5
      vertex -28 -13 11.5
    endloop
  endfacet
  facet normal 0 0 -1
    outer loop
      vertex 10 -13 8.5
      vertex 28 13 8.5
      vertex 28 -13 8.5
    endloop
  endfacet
  facet normal 0 0 -1
    outer loop
      vertex 10 -13 8.5
      vertex 10 13 8.5
      vertex 28 13 8.5
    endloop
  endfacet
  facet normal 0 0 -1
    outer loop
      vertex -28 -13 8.5
      vertex 10 13 8.5
      vertex 10 -13 8.5
    endloop
  endfacet
  facet normal -0 0 -1
    outer loop
      vertex 10 13 8.5
      vertex -28 -13 8.5
      vertex -28 13 8.5
    endloop
  endfacet
  facet normal -1 0 0
    outer loop
      vertex -28 -13 8.5
      vertex -28 13 11.5
      vertex -28 13 8.5
    endloop
  endfacet
  facet normal -1 -0 0
    outer loop
      vertex -28 13 11.5
      vertex -28 -13 8.5
      vertex -28 -13 11.5
    endloop
  endfacet
  facet normal 1 -0 0
    outer loop
      vertex -28.5 -15 20
      vertex -28.5 15 0
      vertex -28.5 15 20
    endloop
  endfacet
  facet normal 1 0 0
    outer loop
      vertex -28.5 15 0
      vertex -28.5 -15 20
      vertex -28.5 -15 0
    endloop
  endfacet
  facet normal -0 0 1
    outer loop
      vertex -30 15 20
      vertex -28.5 -15 20
      vertex -28.5 15 20
    endloop
  endfacet
  facet normal 0 0 1
    outer loop
      vertex -28.5 -15 20
      vertex -30 15 20
      vertex -30 -15 20
    endloop
  endfacet
endsolid OpenSCAD_Model
