solid OpenSCAD_Model
  facet normal 1 -0 0
    outer loop
      vertex 9 -9 40
      vertex 9 9 20
      vertex 9 9 40
    endloop
  endfacet
  facet normal 1 0 0
    outer loop
      vertex 9 9 20
      vertex 9 -9 40
      vertex 9 -9 20
    endloop
  endfacet
  facet normal -0 0 1
    outer loop
      vertex -9 9 40
      vertex 9 -9 40
      vertex 9 9 40
    endloop
  endfacet
  facet normal 0 0 1
    outer loop
      vertex 9 -9 40
      vertex -9 9 40
      vertex -9 -9 40
    endloop
  endfacet
  facet normal -1 0 0
    outer loop
      vertex -9 -9 20
      vertex -9 9 40
      vertex -9 9 20
    endloop
  endfacet
  facet normal -1 -0 0
    outer loop
      vertex -9 9 40
      vertex -9 -9 20
      vertex -9 -9 40
    endloop
  endfacet
  facet normal 0 1 -0
    outer loop
      vertex 9 9 20
      vertex -9 9 40
      vertex 9 9 40
    endloop
  endfacet
  facet normal 0 1 0
    outer loop
      vertex -9 9 40
      vertex 9 9 20
      vertex -9 9 20
    endloop
  endfacet
  facet normal 0 -1 0
    outer loop
      vertex -9 -9 20
      vertex 9 -9 40
      vertex -9 -9 40
    endloop
  endfacet
  facet normal 0 -1 -0
    outer loop
      vertex 9 -9 40
      vertex -9 -9 20
      vertex 9 -9 20
    endloop
  endfacet
  facet normal 0 0 1
    outer loop
      vertex 10 10 20
      vertex 9 9 20
      vertex 10 -10 20
    endloop
  endfacet
  facet normal 0 0 1
    outer loop
      vertex 10 10 20
      vertex -9 9 20
      vertex 9 9 20
    endloop
  endfacet
  facet normal 0 0 1
    outer loop
      vertex -9 9 20
      vertex -10 10 20
      vertex -9 -9 20
    endloop
  endfacet
  facet normal -0 0 1
    outer loop
      vertex -10 10 20
      vertex -9 9 20
      vertex 10 10 20
    endloop
  endfacet
  facet normal -0 0 1
    outer loop
      vertex 9 -9 20
      vertex 10 -10 20
      vertex 9 9 20
    endloop
  endfacet
  facet normal -0 0 1
    outer loop
      vertex -9 -9 20
      vertex 10 -10 20
      vertex 9 -9 20
    endloop
  endfacet
  facet normal 0 0 1
    outer loop
      vertex -9 -9 20
      vertex -10 -10 20
      vertex 10 -10 20
    endloop
  endfacet
  facet normal 0 0 1
    outer loop
      vertex -10 -10 20
      vertex -9 -9 20
      vertex -10 10 20
    endloop
  endfacet
  facet normal 1 -0 0
    outer loop
      vertex 10 -10 20
      vertex 10 10 -20
      vertex 10 10 20
    endloop
  endfacet
  facet normal 1 0 0
    outer loop
      vertex 10 10 -20
      vertex 10 -10 20
      vertex 10 -10 -20
    endloop
  endfacet
  facet normal 0 0 -1
    outer loop
      vertex 10 -10 -20
      vertex 9 -9 -20
      vertex 10 10 -20
    endloop
  endfacet
  facet normal 0 0 -1
    outer loop
      vertex 10 -10 -20
      vertex -9 -9 -20
      vertex 9 -9 -20
    endloop
  endfacet
  facet normal -0 0 -1
    outer loop
      vertex -9 -9 -20
      vertex -10 -10 -20
      vertex -9 9 -20
    endloop
  endfacet
  facet normal 0 0 -1
    outer loop
      vertex -10 -10 -20
      vertex -9 -9 -20
      vertex 10 -10 -20
    endloop
  endfacet
  facet normal 0 0 -1
    outer loop
      vertex 9 9 -20
      vertex 10 10 -20
      vertex 9 -9 -20
    endloop
  endfacet
  facet normal 0 0 -1
    outer loop
      vertex -9 9 -20
      vertex 10 10 -20
      vertex 9 9 -20
    endloop
  endfacet
  facet normal 0 0 -1
    outer loop
      vertex -9 9 -20
      vertex -10 10 -20
      vertex 10 10 -20
    endloop
  endfacet
  facet normal 0 0 -1
    outer loop
      vertex -10 10 -20
      vertex -9 9 -20
      vertex -10 -10 -20
    endloop
  endfacet
  facet normal -1 0 0
    outer loop
      vertex -10 -10 -20
      vertex -10 10 20
      vertex -10 10 -20
    endloop
  endfacet
  facet normal -1 -0 0
    outer loop
      vertex -10 10 20
      vertex -10 -10 -20
      vertex -10 -10 20
    endloop
  endfacet
  facet normal 0 1 -0
    outer loop
      vertex 10 10 -20
      vertex -10 10 20
      vertex 10 10 20
    endloop
  endfacet
  facet normal 0 1 0
    outer loop
      vertex -10 10 20
      vertex 10 10 -20
      vertex -10 10 -20
    endloop
  endfacet
  facet normal 0 -1 0
    outer loop
      vertex -10 -10 -20
      vertex 10 -10 20
      vertex -10 -10 20
    endloop
  endfacet
  facet normal 0 -1 -0
    outer loop
      vertex 10 -10 20
      vertex -10 -10 -20
      vertex 10 -10 -20
    endloop
  endfacet
  facet normal 1 -0 0
    outer loop
      vertex 9 -9 -20
      vertex 9 9 -40
      vertex 9 9 -20
    endloop
  endfacet
  facet normal 1 0 0
    outer loop
      vertex 9 9 -40
      vertex 9 -9 -20
      vertex 9 -9 -40
    endloop
  endfacet
  facet normal -1 0 0
    outer loop
      vertex -9 -9 -40
      vertex -9 9 -20
      vertex -9 9 -40
    endloop
  endfacet
  facet normal -1 -0 0
    outer loop
      vertex -9 9 -20
      vertex -9 -9 -40
      vertex -9 -9 -20
    endloop
  endfacet
  facet normal 0 1 -0
    outer loop
      vertex 9 9 -40
      vertex -9 9 -20
      vertex 9 9 -20
    endloop
  endfacet
  facet normal 0 1 0
    outer loop
      vertex -9 9 -20
      vertex 9 9 -40
      vertex -9 9 -40
    endloop
  endfacet
  facet normal 0 -1 0
    outer loop
      vertex -9 -9 -40
      vertex 9 -9 -20
      vertex -9 -9 -20
    endloop
  endfacet
  facet normal 0 -1 -0
    outer loop
      vertex 9 -9 -20
      vertex -9 -9 -40
      vertex 9 -9 -40
    endloop
  endfacet
  facet normal 0 0 -1
    outer loop
      vertex -9 -9 -40
      vertex 9 9 -40
      vertex 9 -9 -40
    endloop
  endfacet
  facet normal -0 0 -1
    outer loop
      vertex 9 9 -40
      vertex -9 -9 -40
      vertex -9 9 -40
    endloop
  endfacet
endsolid OpenSCAD_Model
