solid OpenSCAD_Model
  facet normal 0.999712 0 -0.0240191
    outer loop
      vertex 8.79871 -0.578511 50
      vertex 8.19806 0.867767 25
      vertex 8.79871 0.578511 50
    endloop
  endfacet
  facet normal 0.999712 0 -0.0240191
    outer loop
      vertex 8.19806 0.867767 25
      vertex 8.79871 -0.578511 50
      vertex 8.19806 -0.867767 25
    endloop
  endfacet
  facet normal -0.222446 -0.974649 -0.0240188
    outer loop
      vertex 9.86055 1.32677 47.4534
      vertex 9.86731 1.26247 50
      vertex 9.70331 1.2999 50
    endloop
  endfacet
  facet normal 0.62331 0.781606 -0.0240192
    outer loop
      vertex 9.70331 -1.2999 50
      vertex 9.55496 -1.94986 25
      vertex 8.19806 -0.867767 25
    endloop
  endfacet
  facet normal -0.222454 -0.974647 -0.0240192
    outer loop
      vertex 9.55496 1.94986 25
      vertex 9.86055 1.32677 47.4534
      vertex 9.70331 1.2999 50
    endloop
  endfacet
  facet normal -0.222465 -0.974645 -0.024019
    outer loop
      vertex 9.86055 1.32677 47.4534
      vertex 9.55496 1.94986 25
      vertex 9.80096 1.89371 25
    endloop
  endfacet
  facet normal 0 0 -1
    outer loop
      vertex -1.90236 -9.76304 25
      vertex -3.09017 -9.51056 25
      vertex -1.94986 -9.55496 25
    endloop
  endfacet
  facet normal 0 0 -1
    outer loop
      vertex 9.78148 -2.07912 25
      vertex 9.55496 -1.94986 25
      vertex 9.80096 -1.89371 25
    endloop
  endfacet
  facet normal 0 0 -1
    outer loop
      vertex 9.13545 -4.06737 25
      vertex 9.55496 -1.94986 25
      vertex 9.78148 -2.07912 25
    endloop
  endfacet
  facet normal 0 0 -1
    outer loop
      vertex 7.24444 -1.94114 25
      vertex 9.55496 -1.94986 25
      vertex 9.13545 -4.06737 25
    endloop
  endfacet
  facet normal 0 0 -1
    outer loop
      vertex 9.55496 -1.94986 25
      vertex 7.24444 -1.94114 25
      vertex 8.19806 -0.867767 25
    endloop
  endfacet
  facet normal 0 0 -1
    outer loop
      vertex 7.24444 -1.94114 25
      vertex 9.13545 -4.06737 25
      vertex 8.09017 -5.87785 25
    endloop
  endfacet
  facet normal 0 0 -1
    outer loop
      vertex 9.55496 1.94986 25
      vertex 9.78148 2.07912 25
      vertex 9.80096 1.89371 25
    endloop
  endfacet
  facet normal 0 0 -1
    outer loop
      vertex 9.55496 1.94986 25
      vertex 9.13545 4.06737 25
      vertex 9.78148 2.07912 25
    endloop
  endfacet
  facet normal 0 0 -1
    outer loop
      vertex 7.24444 1.94114 25
      vertex 9.55496 1.94986 25
      vertex 8.19806 0.867767 25
    endloop
  endfacet
  facet normal -0 0 -1
    outer loop
      vertex 9.55496 1.94986 25
      vertex 7.24444 1.94114 25
      vertex 9.13545 4.06737 25
    endloop
  endfacet
  facet normal 0 -0 -1
    outer loop
      vertex 7.5 0 25
      vertex 8.19806 -0.867767 25
      vertex 7.24444 -1.94114 25
    endloop
  endfacet
  facet normal 0 0 -1
    outer loop
      vertex 7.24444 1.94114 25
      vertex 8.19806 0.867767 25
      vertex 7.5 0 25
    endloop
  endfacet
  facet normal 0 0 -1
    outer loop
      vertex 8.19806 -0.867767 25
      vertex 7.5 0 25
      vertex 8.19806 0.867767 25
    endloop
  endfacet
  facet normal 0 0 -1
    outer loop
      vertex 5.3033 -5.3033 25
      vertex 8.09017 -5.87785 25
      vertex 6.69131 -7.43145 25
    endloop
  endfacet
  facet normal 0 0 -1
    outer loop
      vertex 8.09017 -5.87785 25
      vertex 6.49519 -3.75 25
      vertex 7.24444 -1.94114 25
    endloop
  endfacet
  facet normal 0 0 -1
    outer loop
      vertex 8.09017 -5.87785 25
      vertex 5.3033 -5.3033 25
      vertex 6.49519 -3.75 25
    endloop
  endfacet
  facet normal 0 0 -1
    outer loop
      vertex 3.75 -6.49519 25
      vertex 6.69131 -7.43145 25
      vertex 5 -8.66025 25
    endloop
  endfacet
  facet normal 0 0 -1
    outer loop
      vertex 6.69131 -7.43145 25
      vertex 3.75 -6.49519 25
      vertex 5.3033 -5.3033 25
    endloop
  endfacet
  facet normal 0 0 -1
    outer loop
      vertex 3.09017 -9.51056 25
      vertex 3.75 -6.49519 25
      vertex 5 -8.66025 25
    endloop
  endfacet
  facet normal 0 0 -1
    outer loop
      vertex 1.94114 -7.24444 25
      vertex 3.09017 -9.51056 25
      vertex 1.94986 -9.55496 25
    endloop
  endfacet
  facet normal 0 0 -1
    outer loop
      vertex 3.09017 -9.51056 25
      vertex 1.94114 -7.24444 25
      vertex 3.75 -6.49519 25
    endloop
  endfacet
  facet normal 0 0 -1
    outer loop
      vertex 0.867767 -8.19806 25
      vertex 1.94114 -7.24444 25
      vertex 1.94986 -9.55496 25
    endloop
  endfacet
  facet normal 0 0 -1
    outer loop
      vertex 0.867767 -8.19806 25
      vertex 0 -7.5 25
      vertex 1.94114 -7.24444 25
    endloop
  endfacet
  facet normal 0 0 -1
    outer loop
      vertex -0.867767 -8.19806 25
      vertex 0 -7.5 25
      vertex 0.867767 -8.19806 25
    endloop
  endfacet
  facet normal 0 0 -1
    outer loop
      vertex -0.867767 -8.19806 25
      vertex -1.94114 -7.24444 25
      vertex 0 -7.5 25
    endloop
  endfacet
  facet normal 0 0 -1
    outer loop
      vertex -1.94986 -9.55496 25
      vertex -1.94114 -7.24444 25
      vertex -0.867767 -8.19806 25
    endloop
  endfacet
  facet normal 0 0 -1
    outer loop
      vertex -3.09017 -9.51056 25
      vertex -1.94114 -7.24444 25
      vertex -1.94986 -9.55496 25
    endloop
  endfacet
  facet normal 0 0 -1
    outer loop
      vertex -3.09017 -9.51056 25
      vertex -3.75 -6.49519 25
      vertex -1.94114 -7.24444 25
    endloop
  endfacet
  facet normal 0 0 -1
    outer loop
      vertex -5 -8.66025 25
      vertex -3.75 -6.49519 25
      vertex -3.09017 -9.51056 25
    endloop
  endfacet
  facet normal 0 0 -1
    outer loop
      vertex -6.69131 -7.43145 25
      vertex -3.75 -6.49519 25
      vertex -5 -8.66025 25
    endloop
  endfacet
  facet normal -0 0 -1
    outer loop
      vertex -3.75 -6.49519 25
      vertex -6.69131 -7.43145 25
      vertex -5.3033 -5.3033 25
    endloop
  endfacet
  facet normal 0 0 -1
    outer loop
      vertex -8.09017 -5.87785 25
      vertex -5.3033 -5.3033 25
      vertex -6.69131 -7.43145 25
    endloop
  endfacet
  facet normal -0 0 -1
    outer loop
      vertex -5.3033 -5.3033 25
      vertex -8.09017 -5.87785 25
      vertex -6.49519 -3.75 25
    endloop
  endfacet
  facet normal 0 0 -1
    outer loop
      vertex -9.13545 -4.06737 25
      vertex -6.49519 -3.75 25
      vertex -8.09017 -5.87785 25
    endloop
  endfacet
  facet normal -0 0 -1
    outer loop
      vertex -6.49519 -3.75 25
      vertex -9.13545 -4.06737 25
      vertex -7.24444 -1.94114 25
    endloop
  endfacet
  facet normal 0 0 -1
    outer loop
      vertex 3.09017 -9.51056 25
      vertex 1.90236 -9.76304 25
      vertex 1.94986 -9.55496 25
    endloop
  endfacet
  facet normal 0 0 -1
    outer loop
      vertex 6.49519 3.75 25
      vertex 9.13545 4.06737 25
      vertex 7.24444 1.94114 25
    endloop
  endfacet
  facet normal -0 0 -1
    outer loop
      vertex 9.13545 4.06737 25
      vertex 6.49519 3.75 25
      vertex 8.09017 5.87785 25
    endloop
  endfacet
  facet normal 0 0 -1
    outer loop
      vertex 5.3033 5.3033 25
      vertex 8.09017 5.87785 25
      vertex 6.49519 3.75 25
    endloop
  endfacet
  facet normal -0 0 -1
    outer loop
      vertex 8.09017 5.87785 25
      vertex 5.3033 5.3033 25
      vertex 6.69131 7.43145 25
    endloop
  endfacet
  facet normal 0 0 -1
    outer loop
      vertex 3.75 6.49519 25
      vertex 6.69131 7.43145 25
      vertex 5.3033 5.3033 25
    endloop
  endfacet
  facet normal -0 0 -1
    outer loop
      vertex 6.69131 7.43145 25
      vertex 3.75 6.49519 25
      vertex 5 8.66025 25
    endloop
  endfacet
  facet normal 0 0 -1
    outer loop
      vertex 3.75 6.49519 25
      vertex 3.09017 9.51056 25
      vertex 5 8.66025 25
    endloop
  endfacet
  facet normal 0 0 -1
    outer loop
      vertex 1.94114 7.24444 25
      vertex 3.09017 9.51056 25
      vertex 3.75 6.49519 25
    endloop
  endfacet
  facet normal -0 0 -1
    outer loop
      vertex 3.09017 9.51056 25
      vertex 1.94114 7.24444 25
      vertex 1.94986 9.55496 25
    endloop
  endfacet
  facet normal 0 0 -1
    outer loop
      vertex 1.94114 7.24444 25
      vertex 0.867767 8.19806 25
      vertex 1.94986 9.55496 25
    endloop
  endfacet
  facet normal 0 0 -1
    outer loop
      vertex 0 7.5 25
      vertex 0.867767 8.19806 25
      vertex 1.94114 7.24444 25
    endloop
  endfacet
  facet normal 0 0 -1
    outer loop
      vertex 0 7.5 25
      vertex -0.867767 8.19806 25
      vertex 0.867767 8.19806 25
    endloop
  endfacet
  facet normal 0 0 -1
    outer loop
      vertex -1.94114 7.24444 25
      vertex -0.867767 8.19806 25
      vertex 0 7.5 25
    endloop
  endfacet
  facet normal 0 0 -1
    outer loop
      vertex -1.94114 7.24444 25
      vertex -1.94986 9.55496 25
      vertex -0.867767 8.19806 25
    endloop
  endfacet
  facet normal 0 0 -1
    outer loop
      vertex -1.94114 7.24444 25
      vertex -3.09017 9.51056 25
      vertex -1.94986 9.55496 25
    endloop
  endfacet
  facet normal 0 0 -1
    outer loop
      vertex -3.75 6.49519 25
      vertex -3.09017 9.51056 25
      vertex -1.94114 7.24444 25
    endloop
  endfacet
  facet normal 0 0 -1
    outer loop
      vertex -3.75 6.49519 25
      vertex -5 8.66025 25
      vertex -3.09017 9.51056 25
    endloop
  endfacet
  facet normal 0 0 -1
    outer loop
      vertex -6.69131 7.43145 25
      vertex -3.75 6.49519 25
      vertex -5.3033 5.3033 25
    endloop
  endfacet
  facet normal 0 0 -1
    outer loop
      vertex -8.09017 5.87785 25
      vertex -5.3033 5.3033 25
      vertex -6.49519 3.75 25
    endloop
  endfacet
  facet normal 0 0 -1
    outer loop
      vertex -3.75 6.49519 25
      vertex -6.69131 7.43145 25
      vertex -5 8.66025 25
    endloop
  endfacet
  facet normal 0 0 -1
    outer loop
      vertex -9.13545 4.06737 25
      vertex -6.49519 3.75 25
      vertex -7.24444 1.94114 25
    endloop
  endfacet
  facet normal 0 0 -1
    outer loop
      vertex -8.19806 0.867767 25
      vertex -7.24444 1.94114 25
      vertex -7.5 0 25
    endloop
  endfacet
  facet normal 0 0 -1
    outer loop
      vertex -5.3033 5.3033 25
      vertex -8.09017 5.87785 25
      vertex -6.69131 7.43145 25
    endloop
  endfacet
  facet normal 0 0 -1
    outer loop
      vertex -7.24444 -1.94114 25
      vertex -8.19806 -0.867767 25
      vertex -7.5 0 25
    endloop
  endfacet
  facet normal 0 0 -1
    outer loop
      vertex -8.19806 0.867767 25
      vertex -7.5 0 25
      vertex -8.19806 -0.867767 25
    endloop
  endfacet
  facet normal 0 0 -1
    outer loop
      vertex -9.55496 -1.94986 25
      vertex -7.24444 -1.94114 25
      vertex -9.13545 -4.06737 25
    endloop
  endfacet
  facet normal -0 0 -1
    outer loop
      vertex -7.24444 -1.94114 25
      vertex -9.55496 -1.94986 25
      vertex -8.19806 -0.867767 25
    endloop
  endfacet
  facet normal 0 0 -1
    outer loop
      vertex -9.78148 -2.07912 25
      vertex -9.55496 -1.94986 25
      vertex -9.13545 -4.06737 25
    endloop
  endfacet
  facet normal -0 0 -1
    outer loop
      vertex -9.55496 -1.94986 25
      vertex -9.78148 -2.07912 25
      vertex -9.80096 -1.89371 25
    endloop
  endfacet
  facet normal 0 0 -1
    outer loop
      vertex 3.09017 9.51056 25
      vertex 1.94986 9.55496 25
      vertex 1.90236 9.76304 25
    endloop
  endfacet
  facet normal 0 0 -1
    outer loop
      vertex -9.55496 1.94986 25
      vertex -7.24444 1.94114 25
      vertex -8.19806 0.867767 25
    endloop
  endfacet
  facet normal 0 0 -1
    outer loop
      vertex -6.49519 3.75 25
      vertex -9.13545 4.06737 25
      vertex -8.09017 5.87785 25
    endloop
  endfacet
  facet normal 0 0 -1
    outer loop
      vertex -7.24444 1.94114 25
      vertex -9.55496 1.94986 25
      vertex -9.13545 4.06737 25
    endloop
  endfacet
  facet normal 0 0 -1
    outer loop
      vertex -9.55496 1.94986 25
      vertex -9.78148 2.07912 25
      vertex -9.13545 4.06737 25
    endloop
  endfacet
  facet normal 0 -0 -1
    outer loop
      vertex -9.78148 2.07912 25
      vertex -9.55496 1.94986 25
      vertex -9.80096 1.89371 25
    endloop
  endfacet
  facet normal 0 0 -1
    outer loop
      vertex -1.90236 9.76304 25
      vertex -1.94986 9.55496 25
      vertex -3.09017 9.51056 25
    endloop
  endfacet
  facet normal 0.623307 0.781608 -0.024019
    outer loop
      vertex 8.79871 -0.578511 50
      vertex 9.70331 -1.2999 50
      vertex 8.19806 -0.867767 25
    endloop
  endfacet
  facet normal 0.623307 -0.781608 -0.024019
    outer loop
      vertex 9.70331 1.2999 50
      vertex 8.79871 0.578511 50
      vertex 8.19806 0.867767 25
    endloop
  endfacet
  facet normal -0.222465 0.974645 -0.024019
    outer loop
      vertex 9.55496 -1.94986 25
      vertex 9.86055 -1.32677 47.4534
      vertex 9.80096 -1.89371 25
    endloop
  endfacet
  facet normal -0.222454 0.974647 -0.0240192
    outer loop
      vertex 9.86055 -1.32677 47.4534
      vertex 9.55496 -1.94986 25
      vertex 9.70331 -1.2999 50
    endloop
  endfacet
  facet normal 0 0 1
    outer loop
      vertex -0.578511 8.79871 50
      vertex -8.79871 0.578511 50
      vertex -0.578511 -8.79871 50
    endloop
  endfacet
  facet normal 0 0 1
    outer loop
      vertex -3.09017 9.51056 50
      vertex -1.2999 9.70331 50
      vertex -1.25486 9.90067 50
    endloop
  endfacet
  facet normal 0 0 1
    outer loop
      vertex 0.578511 -8.79871 50
      vertex 8.79871 -0.578511 50
      vertex 0.578511 8.79871 50
    endloop
  endfacet
  facet normal 0 0 1
    outer loop
      vertex 8.79871 -0.578511 50
      vertex 0.578511 -8.79871 50
      vertex 1.2999 -9.70331 50
    endloop
  endfacet
  facet normal -0 0 1
    outer loop
      vertex -0.578511 8.79871 50
      vertex 0.578511 -8.79871 50
      vertex 0.578511 8.79871 50
    endloop
  endfacet
  facet normal 0 0 1
    outer loop
      vertex -0.578511 8.79871 50
      vertex -0.578511 -8.79871 50
      vertex 0.578511 -8.79871 50
    endloop
  endfacet
  facet normal -0 0 1
    outer loop
      vertex -3.09017 9.51056 50
      vertex -0.578511 8.79871 50
      vertex -1.2999 9.70331 50
    endloop
  endfacet
  facet normal 0 0 1
    outer loop
      vertex -8.79871 0.578511 50
      vertex -0.578511 8.79871 50
      vertex -3.09017 9.51056 50
    endloop
  endfacet
  facet normal 0 0 1
    outer loop
      vertex 5 -8.66025 50
      vertex 1.2999 -9.70331 50
      vertex 3.09017 -9.51056 50
    endloop
  endfacet
  facet normal 0 0 1
    outer loop
      vertex 3.09017 -9.51056 50
      vertex 1.2999 -9.70331 50
      vertex 1.25486 -9.90067 50
    endloop
  endfacet
  facet normal 0 0 1
    outer loop
      vertex 9.78148 2.07912 50
      vertex 9.70331 1.2999 50
      vertex 9.86731 1.26247 50
    endloop
  endfacet
  facet normal 0 0 1
    outer loop
      vertex 8.79871 0.578511 50
      vertex 9.78148 2.07912 50
      vertex 9.13545 4.06737 50
    endloop
  endfacet
  facet normal 0 0 1
    outer loop
      vertex 9.78148 2.07912 50
      vertex 8.79871 0.578511 50
      vertex 9.70331 1.2999 50
    endloop
  endfacet
  facet normal 0 0 1
    outer loop
      vertex 6.69131 7.43145 50
      vertex 8.79871 0.578511 50
      vertex 8.09017 5.87785 50
    endloop
  endfacet
  facet normal 0 0 1
    outer loop
      vertex 8.09017 5.87785 50
      vertex 8.79871 0.578511 50
      vertex 9.13545 4.06737 50
    endloop
  endfacet
  facet normal -0 0 1
    outer loop
      vertex 9.70331 -1.2999 50
      vertex 9.78148 -2.07912 50
      vertex 9.86731 -1.26247 50
    endloop
  endfacet
  facet normal 0 0 1
    outer loop
      vertex 8.79871 -0.578511 50
      vertex 9.78148 -2.07912 50
      vertex 9.70331 -1.2999 50
    endloop
  endfacet
  facet normal 0 0 1
    outer loop
      vertex 9.78148 -2.07912 50
      vertex 8.79871 -0.578511 50
      vertex 9.13545 -4.06737 50
    endloop
  endfacet
  facet normal 0 0 1
    outer loop
      vertex 0.578511 8.79871 50
      vertex 6.69131 7.43145 50
      vertex 5 8.66025 50
    endloop
  endfacet
  facet normal 0 0 1
    outer loop
      vertex 8.79871 0.578511 50
      vertex 0.578511 8.79871 50
      vertex 8.79871 -0.578511 50
    endloop
  endfacet
  facet normal 0 0 1
    outer loop
      vertex 3.09017 9.51056 50
      vertex 0.578511 8.79871 50
      vertex 5 8.66025 50
    endloop
  endfacet
  facet normal 0 0 1
    outer loop
      vertex 8.79871 -0.578511 50
      vertex 8.09017 -5.87785 50
      vertex 9.13545 -4.06737 50
    endloop
  endfacet
  facet normal 0 0 1
    outer loop
      vertex 6.69131 7.43145 50
      vertex 0.578511 8.79871 50
      vertex 8.79871 0.578511 50
    endloop
  endfacet
  facet normal 0 0 1
    outer loop
      vertex 8.79871 -0.578511 50
      vertex 6.69131 -7.43145 50
      vertex 8.09017 -5.87785 50
    endloop
  endfacet
  facet normal 0 0 1
    outer loop
      vertex 0.578511 8.79871 50
      vertex 3.09017 9.51056 50
      vertex 1.2999 9.70331 50
    endloop
  endfacet
  facet normal 0 0 1
    outer loop
      vertex 8.79871 -0.578511 50
      vertex 5 -8.66025 50
      vertex 6.69131 -7.43145 50
    endloop
  endfacet
  facet normal 0 0 1
    outer loop
      vertex 1.2999 -9.70331 50
      vertex 5 -8.66025 50
      vertex 8.79871 -0.578511 50
    endloop
  endfacet
  facet normal -0 -0 1
    outer loop
      vertex 1.2999 9.70331 50
      vertex 3.09017 9.51056 50
      vertex 1.25486 9.90067 50
    endloop
  endfacet
  facet normal 0 0 1
    outer loop
      vertex -1.2999 -9.70331 50
      vertex -3.09017 -9.51056 50
      vertex -1.25486 -9.90067 50
    endloop
  endfacet
  facet normal -0 0 1
    outer loop
      vertex -8.79871 -0.578511 50
      vertex -0.578511 -8.79871 50
      vertex -8.79871 0.578511 50
    endloop
  endfacet
  facet normal 0 0 1
    outer loop
      vertex -8.79871 0.578511 50
      vertex -3.09017 9.51056 50
      vertex -5 8.66025 50
    endloop
  endfacet
  facet normal -0 -0 1
    outer loop
      vertex -6.69131 -7.43145 50
      vertex -0.578511 -8.79871 50
      vertex -8.79871 -0.578511 50
    endloop
  endfacet
  facet normal 0 0 1
    outer loop
      vertex -8.79871 0.578511 50
      vertex -5 8.66025 50
      vertex -6.69131 7.43145 50
    endloop
  endfacet
  facet normal 0 -0 1
    outer loop
      vertex -3.09017 -9.51056 50
      vertex -0.578511 -8.79871 50
      vertex -5 -8.66025 50
    endloop
  endfacet
  facet normal 0 0 1
    outer loop
      vertex -8.79871 0.578511 50
      vertex -6.69131 7.43145 50
      vertex -8.09017 5.87785 50
    endloop
  endfacet
  facet normal 0 0 1
    outer loop
      vertex -0.578511 -8.79871 50
      vertex -3.09017 -9.51056 50
      vertex -1.2999 -9.70331 50
    endloop
  endfacet
  facet normal 0 0 1
    outer loop
      vertex -0.578511 -8.79871 50
      vertex -6.69131 -7.43145 50
      vertex -5 -8.66025 50
    endloop
  endfacet
  facet normal -0 0 1
    outer loop
      vertex -9.13545 4.06737 50
      vertex -8.79871 0.578511 50
      vertex -8.09017 5.87785 50
    endloop
  endfacet
  facet normal -0 0 1
    outer loop
      vertex -9.78148 2.07912 50
      vertex -8.79871 0.578511 50
      vertex -9.13545 4.06737 50
    endloop
  endfacet
  facet normal 0 0 1
    outer loop
      vertex -8.79871 0.578511 50
      vertex -9.78148 2.07912 50
      vertex -9.70331 1.2999 50
    endloop
  endfacet
  facet normal 0 0 1
    outer loop
      vertex -9.70331 1.2999 50
      vertex -9.78148 2.07912 50
      vertex -9.86731 1.26247 50
    endloop
  endfacet
  facet normal 0 0 1
    outer loop
      vertex -6.69131 -7.43145 50
      vertex -8.79871 -0.578511 50
      vertex -8.09017 -5.87785 50
    endloop
  endfacet
  facet normal 0 0 1
    outer loop
      vertex -8.79871 -0.578511 50
      vertex -9.13545 -4.06737 50
      vertex -8.09017 -5.87785 50
    endloop
  endfacet
  facet normal 0 0 1
    outer loop
      vertex -9.78148 -2.07912 50
      vertex -8.79871 -0.578511 50
      vertex -9.70331 -1.2999 50
    endloop
  endfacet
  facet normal 0 0 1
    outer loop
      vertex -8.79871 -0.578511 50
      vertex -9.78148 -2.07912 50
      vertex -9.13545 -4.06737 50
    endloop
  endfacet
  facet normal 0 -0 1
    outer loop
      vertex -9.78148 -2.07912 50
      vertex -9.70331 -1.2999 50
      vertex -9.86731 -1.26247 50
    endloop
  endfacet
  facet normal 0.62331 -0.781606 -0.0240192
    outer loop
      vertex 9.55496 1.94986 25
      vertex 9.70331 1.2999 50
      vertex 8.19806 0.867767 25
    endloop
  endfacet
  facet normal -0.222446 0.974649 -0.0240188
    outer loop
      vertex 9.86731 -1.26247 50
      vertex 9.86055 -1.32677 47.4534
      vertex 9.70331 -1.2999 50
    endloop
  endfacet
  facet normal 0 0.999712 -0.0240191
    outer loop
      vertex 0.867767 8.19806 25
      vertex -0.578511 8.79871 50
      vertex 0.578511 8.79871 50
    endloop
  endfacet
  facet normal 0 0.999712 -0.0240191
    outer loop
      vertex -0.578511 8.79871 50
      vertex 0.867767 8.19806 25
      vertex -0.867767 8.19806 25
    endloop
  endfacet
  facet normal 0.974653 -0.222428 -0.0240199
    outer loop
      vertex -1.25486 9.90067 50
      vertex -1.2999 9.70331 50
      vertex -1.33087 9.88452 47.0653
    endloop
  endfacet
  facet normal -0.781606 0.62331 -0.0240192
    outer loop
      vertex 1.2999 9.70331 50
      vertex 1.94986 9.55496 25
      vertex 0.867767 8.19806 25
    endloop
  endfacet
  facet normal 0.974654 -0.222423 -0.0240196
    outer loop
      vertex -1.94986 9.55496 25
      vertex -1.33087 9.88452 47.0653
      vertex -1.2999 9.70331 50
    endloop
  endfacet
  facet normal 0.974639 -0.222488 -0.0240182
    outer loop
      vertex -1.33087 9.88452 47.0653
      vertex -1.94986 9.55496 25
      vertex -1.90236 9.76304 25
    endloop
  endfacet
  facet normal -0.781608 0.623307 -0.024019
    outer loop
      vertex 1.2999 9.70331 50
      vertex 0.867767 8.19806 25
      vertex 0.578511 8.79871 50
    endloop
  endfacet
  facet normal 0.781608 0.623307 -0.024019
    outer loop
      vertex -0.578511 8.79871 50
      vertex -0.867767 8.19806 25
      vertex -1.2999 9.70331 50
    endloop
  endfacet
  facet normal -0.974639 -0.222488 -0.0240182
    outer loop
      vertex 1.94986 9.55496 25
      vertex 1.33087 9.88452 47.0653
      vertex 1.90236 9.76304 25
    endloop
  endfacet
  facet normal -0.974654 -0.222423 -0.0240196
    outer loop
      vertex 1.33087 9.88452 47.0653
      vertex 1.94986 9.55496 25
      vertex 1.2999 9.70331 50
    endloop
  endfacet
  facet normal 0.781606 0.62331 -0.0240192
    outer loop
      vertex -1.2999 9.70331 50
      vertex -0.867767 8.19806 25
      vertex -1.94986 9.55496 25
    endloop
  endfacet
  facet normal -0.974653 -0.222428 -0.0240199
    outer loop
      vertex 1.33087 9.88452 47.0653
      vertex 1.2999 9.70331 50
      vertex 1.25486 9.90067 50
    endloop
  endfacet
  facet normal -0.999712 0 -0.0240191
    outer loop
      vertex -8.19806 0.867767 25
      vertex -8.79871 -0.578511 50
      vertex -8.79871 0.578511 50
    endloop
  endfacet
  facet normal -0.999712 0 -0.0240191
    outer loop
      vertex -8.79871 -0.578511 50
      vertex -8.19806 0.867767 25
      vertex -8.19806 -0.867767 25
    endloop
  endfacet
  facet normal 0.222446 0.974649 -0.0240188
    outer loop
      vertex -9.70331 -1.2999 50
      vertex -9.86055 -1.32677 47.4534
      vertex -9.86731 -1.26247 50
    endloop
  endfacet
  facet normal -0.62331 -0.781606 -0.0240192
    outer loop
      vertex -9.55496 1.94986 25
      vertex -8.19806 0.867767 25
      vertex -9.70331 1.2999 50
    endloop
  endfacet
  facet normal 0.222454 0.974647 -0.0240192
    outer loop
      vertex -9.55496 -1.94986 25
      vertex -9.86055 -1.32677 47.4534
      vertex -9.70331 -1.2999 50
    endloop
  endfacet
  facet normal 0.222465 0.974645 -0.024019
    outer loop
      vertex -9.86055 -1.32677 47.4534
      vertex -9.55496 -1.94986 25
      vertex -9.80096 -1.89371 25
    endloop
  endfacet
  facet normal -0.623307 -0.781608 -0.024019
    outer loop
      vertex -8.19806 0.867767 25
      vertex -8.79871 0.578511 50
      vertex -9.70331 1.2999 50
    endloop
  endfacet
  facet normal -0.623307 0.781608 -0.024019
    outer loop
      vertex -8.79871 -0.578511 50
      vertex -8.19806 -0.867767 25
      vertex -9.70331 -1.2999 50
    endloop
  endfacet
  facet normal 0.222465 -0.974645 -0.024019
    outer loop
      vertex -9.55496 1.94986 25
      vertex -9.86055 1.32677 47.4534
      vertex -9.80096 1.89371 25
    endloop
  endfacet
  facet normal 0.222454 -0.974647 -0.0240192
    outer loop
      vertex -9.86055 1.32677 47.4534
      vertex -9.55496 1.94986 25
      vertex -9.70331 1.2999 50
    endloop
  endfacet
  facet normal -0.62331 0.781606 -0.0240192
    outer loop
      vertex -8.19806 -0.867767 25
      vertex -9.55496 -1.94986 25
      vertex -9.70331 -1.2999 50
    endloop
  endfacet
  facet normal 0.222446 -0.974649 -0.0240188
    outer loop
      vertex -9.86055 1.32677 47.4534
      vertex -9.70331 1.2999 50
      vertex -9.86731 1.26247 50
    endloop
  endfacet
  facet normal 0 -0.999712 -0.0240191
    outer loop
      vertex -0.867767 -8.19806 25
      vertex 0.578511 -8.79871 50
      vertex -0.578511 -8.79871 50
    endloop
  endfacet
  facet normal 0 -0.999712 -0.0240191
    outer loop
      vertex 0.578511 -8.79871 50
      vertex -0.867767 -8.19806 25
      vertex 0.867767 -8.19806 25
    endloop
  endfacet
  facet normal -0.974653 0.222428 -0.0240199
    outer loop
      vertex 1.2999 -9.70331 50
      vertex 1.33087 -9.88452 47.0653
      vertex 1.25486 -9.90067 50
    endloop
  endfacet
  facet normal 0.781606 -0.62331 -0.0240192
    outer loop
      vertex -0.867767 -8.19806 25
      vertex -1.2999 -9.70331 50
      vertex -1.94986 -9.55496 25
    endloop
  endfacet
  facet normal -0.974639 0.222488 -0.0240182
    outer loop
      vertex 1.33087 -9.88452 47.0653
      vertex 1.94986 -9.55496 25
      vertex 1.90236 -9.76304 25
    endloop
  endfacet
  facet normal -0.974654 0.222423 -0.0240196
    outer loop
      vertex 1.94986 -9.55496 25
      vertex 1.33087 -9.88452 47.0653
      vertex 1.2999 -9.70331 50
    endloop
  endfacet
  facet normal 0.781608 -0.623307 -0.024019
    outer loop
      vertex -0.867767 -8.19806 25
      vertex -0.578511 -8.79871 50
      vertex -1.2999 -9.70331 50
    endloop
  endfacet
  facet normal -0.781608 -0.623307 -0.024019
    outer loop
      vertex 0.867767 -8.19806 25
      vertex 1.2999 -9.70331 50
      vertex 0.578511 -8.79871 50
    endloop
  endfacet
  facet normal 0.974654 0.222423 -0.0240196
    outer loop
      vertex -1.33087 -9.88452 47.0653
      vertex -1.94986 -9.55496 25
      vertex -1.2999 -9.70331 50
    endloop
  endfacet
  facet normal 0.974639 0.222488 -0.0240182
    outer loop
      vertex -1.94986 -9.55496 25
      vertex -1.33087 -9.88452 47.0653
      vertex -1.90236 -9.76304 25
    endloop
  endfacet
  facet normal -0.781606 -0.62331 -0.0240192
    outer loop
      vertex 1.94986 -9.55496 25
      vertex 1.2999 -9.70331 50
      vertex 0.867767 -8.19806 25
    endloop
  endfacet
  facet normal 0.974653 0.222428 -0.0240199
    outer loop
      vertex -1.2999 -9.70331 50
      vertex -1.25486 -9.90067 50
      vertex -1.33087 -9.88452 47.0653
    endloop
  endfacet
  facet normal -0.743147 -0.669129 0
    outer loop
      vertex -6.69131 -7.43145 25
      vertex -8.09017 -5.87785 50
      vertex -8.09017 -5.87785 25
    endloop
  endfacet
  facet normal -0.743147 -0.669129 0
    outer loop
      vertex -8.09017 -5.87785 50
      vertex -6.69131 -7.43145 25
      vertex -6.69131 -7.43145 50
    endloop
  endfacet
  facet normal 0.951055 0.309021 0
    outer loop
      vertex 9.78148 2.07912 50
      vertex 9.13545 4.06737 25
      vertex 9.13545 4.06737 50
    endloop
  endfacet
  facet normal 0.951055 0.309021 0
    outer loop
      vertex 9.13545 4.06737 25
      vertex 9.78148 2.07912 50
      vertex 9.78148 2.07912 25
    endloop
  endfacet
  facet normal 0.994523 0.104522 0
    outer loop
      vertex 9.86055 1.32677 47.4534
      vertex 9.78148 2.07912 25
      vertex 9.78148 2.07912 50
    endloop
  endfacet
  facet normal 0.994526 0.104489 -1.09668e-06
    outer loop
      vertex 9.78148 2.07912 25
      vertex 9.86055 1.32677 47.4534
      vertex 9.80096 1.89371 25
    endloop
  endfacet
  facet normal 0.994522 0.104524 -8.05782e-07
    outer loop
      vertex 9.86055 1.32677 47.4534
      vertex 9.78148 2.07912 50
      vertex 9.86731 1.26247 50
    endloop
  endfacet
  facet normal 0.866026 0.5 0
    outer loop
      vertex 9.13545 4.06737 50
      vertex 8.09017 5.87785 25
      vertex 8.09017 5.87785 50
    endloop
  endfacet
  facet normal 0.866026 0.5 0
    outer loop
      vertex 8.09017 5.87785 25
      vertex 9.13545 4.06737 50
      vertex 9.13545 4.06737 25
    endloop
  endfacet
  facet normal 0.951055 -0.309021 0
    outer loop
      vertex 9.13545 -4.06737 50
      vertex 9.78148 -2.07912 25
      vertex 9.78148 -2.07912 50
    endloop
  endfacet
  facet normal 0.951055 -0.309021 0
    outer loop
      vertex 9.78148 -2.07912 25
      vertex 9.13545 -4.06737 50
      vertex 9.13545 -4.06737 25
    endloop
  endfacet
  facet normal 0.587783 -0.809019 0
    outer loop
      vertex 5 -8.66025 25
      vertex 6.69131 -7.43145 50
      vertex 5 -8.66025 50
    endloop
  endfacet
  facet normal 0.587783 -0.809019 0
    outer loop
      vertex 6.69131 -7.43145 50
      vertex 5 -8.66025 25
      vertex 6.69131 -7.43145 25
    endloop
  endfacet
  facet normal 0.743147 -0.669129 0
    outer loop
      vertex 6.69131 -7.43145 50
      vertex 8.09017 -5.87785 25
      vertex 8.09017 -5.87785 50
    endloop
  endfacet
  facet normal 0.743147 -0.669129 0
    outer loop
      vertex 8.09017 -5.87785 25
      vertex 6.69131 -7.43145 50
      vertex 6.69131 -7.43145 25
    endloop
  endfacet
  facet normal 0.994522 -0.104524 -8.05782e-07
    outer loop
      vertex 9.78148 -2.07912 50
      vertex 9.86055 -1.32677 47.4534
      vertex 9.86731 -1.26247 50
    endloop
  endfacet
  facet normal 0.994523 -0.104522 0
    outer loop
      vertex 9.78148 -2.07912 25
      vertex 9.86055 -1.32677 47.4534
      vertex 9.78148 -2.07912 50
    endloop
  endfacet
  facet normal 0.994526 -0.104489 -1.09668e-06
    outer loop
      vertex 9.86055 -1.32677 47.4534
      vertex 9.78148 -2.07912 25
      vertex 9.80096 -1.89371 25
    endloop
  endfacet
  facet normal -0.406736 -0.913546 0
    outer loop
      vertex -5 -8.66025 25
      vertex -3.09017 -9.51056 50
      vertex -5 -8.66025 50
    endloop
  endfacet
  facet normal -0.406736 -0.913546 -0
    outer loop
      vertex -3.09017 -9.51056 50
      vertex -5 -8.66025 25
      vertex -3.09017 -9.51056 25
    endloop
  endfacet
  facet normal 0.406736 0.913546 -0
    outer loop
      vertex 5 8.66025 25
      vertex 3.09017 9.51056 50
      vertex 5 8.66025 50
    endloop
  endfacet
  facet normal 0.406736 0.913546 0
    outer loop
      vertex 3.09017 9.51056 50
      vertex 5 8.66025 25
      vertex 3.09017 9.51056 25
    endloop
  endfacet
  facet normal 0.743147 0.669129 0
    outer loop
      vertex 8.09017 5.87785 50
      vertex 6.69131 7.43145 25
      vertex 6.69131 7.43145 50
    endloop
  endfacet
  facet normal 0.743147 0.669129 0
    outer loop
      vertex 6.69131 7.43145 25
      vertex 8.09017 5.87785 50
      vertex 8.09017 5.87785 25
    endloop
  endfacet
  facet normal -0.587783 -0.809019 0
    outer loop
      vertex -6.69131 -7.43145 25
      vertex -5 -8.66025 50
      vertex -6.69131 -7.43145 50
    endloop
  endfacet
  facet normal -0.587783 -0.809019 -0
    outer loop
      vertex -5 -8.66025 50
      vertex -6.69131 -7.43145 25
      vertex -5 -8.66025 25
    endloop
  endfacet
  facet normal -0.743147 0.669129 0
    outer loop
      vertex -8.09017 5.87785 25
      vertex -6.69131 7.43145 50
      vertex -6.69131 7.43145 25
    endloop
  endfacet
  facet normal -0.743147 0.669129 0
    outer loop
      vertex -6.69131 7.43145 50
      vertex -8.09017 5.87785 25
      vertex -8.09017 5.87785 50
    endloop
  endfacet
  facet normal 0.406736 -0.913546 0
    outer loop
      vertex 3.09017 -9.51056 25
      vertex 5 -8.66025 50
      vertex 3.09017 -9.51056 50
    endloop
  endfacet
  facet normal 0.406736 -0.913546 0
    outer loop
      vertex 5 -8.66025 50
      vertex 3.09017 -9.51056 25
      vertex 5 -8.66025 25
    endloop
  endfacet
  facet normal 0.207913 -0.978147 2.18011e-06
    outer loop
      vertex 1.33087 -9.88452 47.0653
      vertex 3.09017 -9.51056 50
      vertex 1.25486 -9.90067 50
    endloop
  endfacet
  facet normal 0.207914 -0.978147 -2.00172e-07
    outer loop
      vertex 3.09017 -9.51056 25
      vertex 1.33087 -9.88452 47.0653
      vertex 1.90236 -9.76304 25
    endloop
  endfacet
  facet normal 0.207917 -0.978147 0
    outer loop
      vertex 1.33087 -9.88452 47.0653
      vertex 3.09017 -9.51056 25
      vertex 3.09017 -9.51056 50
    endloop
  endfacet
  facet normal -0.951055 0.309021 0
    outer loop
      vertex -9.78148 2.07912 25
      vertex -9.13545 4.06737 50
      vertex -9.13545 4.06737 25
    endloop
  endfacet
  facet normal -0.951055 0.309021 0
    outer loop
      vertex -9.13545 4.06737 50
      vertex -9.78148 2.07912 25
      vertex -9.78148 2.07912 50
    endloop
  endfacet
  facet normal -0.951055 -0.309021 0
    outer loop
      vertex -9.13545 -4.06737 25
      vertex -9.78148 -2.07912 50
      vertex -9.78148 -2.07912 25
    endloop
  endfacet
  facet normal -0.951055 -0.309021 0
    outer loop
      vertex -9.78148 -2.07912 50
      vertex -9.13545 -4.06737 25
      vertex -9.13545 -4.06737 50
    endloop
  endfacet
  facet normal -0.406736 0.913546 0
    outer loop
      vertex -3.09017 9.51056 25
      vertex -5 8.66025 50
      vertex -3.09017 9.51056 50
    endloop
  endfacet
  facet normal -0.406736 0.913546 0
    outer loop
      vertex -5 8.66025 50
      vertex -3.09017 9.51056 25
      vertex -5 8.66025 25
    endloop
  endfacet
  facet normal -0.207913 -0.978147 2.18011e-06
    outer loop
      vertex -3.09017 -9.51056 50
      vertex -1.33087 -9.88452 47.0653
      vertex -1.25486 -9.90067 50
    endloop
  endfacet
  facet normal -0.207917 -0.978147 0
    outer loop
      vertex -3.09017 -9.51056 25
      vertex -1.33087 -9.88452 47.0653
      vertex -3.09017 -9.51056 50
    endloop
  endfacet
  facet normal -0.207914 -0.978147 -2.00172e-07
    outer loop
      vertex -1.33087 -9.88452 47.0653
      vertex -3.09017 -9.51056 25
      vertex -1.90236 -9.76304 25
    endloop
  endfacet
  facet normal 0.207913 0.978147 2.18011e-06
    outer loop
      vertex 3.09017 9.51056 50
      vertex 1.33087 9.88452 47.0653
      vertex 1.25486 9.90067 50
    endloop
  endfacet
  facet normal 0.207917 0.978147 -0
    outer loop
      vertex 3.09017 9.51056 25
      vertex 1.33087 9.88452 47.0653
      vertex 3.09017 9.51056 50
    endloop
  endfacet
  facet normal 0.207914 0.978147 -2.00172e-07
    outer loop
      vertex 1.33087 9.88452 47.0653
      vertex 3.09017 9.51056 25
      vertex 1.90236 9.76304 25
    endloop
  endfacet
  facet normal -0.994526 -0.104489 -1.09668e-06
    outer loop
      vertex -9.78148 -2.07912 25
      vertex -9.86055 -1.32677 47.4534
      vertex -9.80096 -1.89371 25
    endloop
  endfacet
  facet normal -0.994523 -0.104522 -0
    outer loop
      vertex -9.78148 -2.07912 50
      vertex -9.86055 -1.32677 47.4534
      vertex -9.78148 -2.07912 25
    endloop
  endfacet
  facet normal -0.994522 -0.104524 -8.05782e-07
    outer loop
      vertex -9.86055 -1.32677 47.4534
      vertex -9.78148 -2.07912 50
      vertex -9.86731 -1.26247 50
    endloop
  endfacet
  facet normal -0.866026 -0.5 0
    outer loop
      vertex -8.09017 -5.87785 25
      vertex -9.13545 -4.06737 50
      vertex -9.13545 -4.06737 25
    endloop
  endfacet
  facet normal -0.866026 -0.5 0
    outer loop
      vertex -9.13545 -4.06737 50
      vertex -8.09017 -5.87785 25
      vertex -8.09017 -5.87785 50
    endloop
  endfacet
  facet normal -0.866026 0.5 0
    outer loop
      vertex -9.13545 4.06737 25
      vertex -8.09017 5.87785 50
      vertex -8.09017 5.87785 25
    endloop
  endfacet
  facet normal -0.866026 0.5 0
    outer loop
      vertex -8.09017 5.87785 50
      vertex -9.13545 4.06737 25
      vertex -9.13545 4.06737 50
    endloop
  endfacet
  facet normal 0.866026 -0.5 0
    outer loop
      vertex 8.09017 -5.87785 50
      vertex 9.13545 -4.06737 25
      vertex 9.13545 -4.06737 50
    endloop
  endfacet
  facet normal 0.866026 -0.5 0
    outer loop
      vertex 9.13545 -4.06737 25
      vertex 8.09017 -5.87785 50
      vertex 8.09017 -5.87785 25
    endloop
  endfacet
  facet normal 0.587783 0.809019 -0
    outer loop
      vertex 6.69131 7.43145 25
      vertex 5 8.66025 50
      vertex 6.69131 7.43145 50
    endloop
  endfacet
  facet normal 0.587783 0.809019 0
    outer loop
      vertex 5 8.66025 50
      vertex 6.69131 7.43145 25
      vertex 5 8.66025 25
    endloop
  endfacet
  facet normal -0.587783 0.809019 0
    outer loop
      vertex -5 8.66025 25
      vertex -6.69131 7.43145 50
      vertex -5 8.66025 50
    endloop
  endfacet
  facet normal -0.587783 0.809019 0
    outer loop
      vertex -6.69131 7.43145 50
      vertex -5 8.66025 25
      vertex -6.69131 7.43145 25
    endloop
  endfacet
  facet normal -0.207913 0.978147 2.18011e-06
    outer loop
      vertex -1.33087 9.88452 47.0653
      vertex -3.09017 9.51056 50
      vertex -1.25486 9.90067 50
    endloop
  endfacet
  facet normal -0.207914 0.978147 -2.00172e-07
    outer loop
      vertex -3.09017 9.51056 25
      vertex -1.33087 9.88452 47.0653
      vertex -1.90236 9.76304 25
    endloop
  endfacet
  facet normal -0.207917 0.978147 0
    outer loop
      vertex -1.33087 9.88452 47.0653
      vertex -3.09017 9.51056 25
      vertex -3.09017 9.51056 50
    endloop
  endfacet
  facet normal -0.994526 0.104489 -1.09668e-06
    outer loop
      vertex -9.86055 1.32677 47.4534
      vertex -9.78148 2.07912 25
      vertex -9.80096 1.89371 25
    endloop
  endfacet
  facet normal -0.994523 0.104522 0
    outer loop
      vertex -9.78148 2.07912 25
      vertex -9.86055 1.32677 47.4534
      vertex -9.78148 2.07912 50
    endloop
  endfacet
  facet normal -0.994522 0.104524 -8.05782e-07
    outer loop
      vertex -9.78148 2.07912 50
      vertex -9.86055 1.32677 47.4534
      vertex -9.86731 1.26247 50
    endloop
  endfacet
  facet normal 0.999712 0 -0.0240191
    outer loop
      vertex 8.79871 -0.578511 -25
      vertex 8.19806 0.867767 -50
      vertex 8.79871 0.578511 -25
    endloop
  endfacet
  facet normal 0.999712 0 -0.0240191
    outer loop
      vertex 8.19806 0.867767 -50
      vertex 8.79871 -0.578511 -25
      vertex 8.19806 -0.867767 -50
    endloop
  endfacet
  facet normal -0.222446 -0.974649 -0.0240188
    outer loop
      vertex 9.86055 1.32677 -27.5466
      vertex 9.86731 1.26247 -25
      vertex 9.70331 1.2999 -25
    endloop
  endfacet
  facet normal 0.62331 0.781606 -0.0240192
    outer loop
      vertex 9.70331 -1.2999 -25
      vertex 9.55496 -1.94986 -50
      vertex 8.19806 -0.867767 -50
    endloop
  endfacet
  facet normal -0.222454 -0.974647 -0.0240192
    outer loop
      vertex 9.55496 1.94986 -50
      vertex 9.86055 1.32677 -27.5466
      vertex 9.70331 1.2999 -25
    endloop
  endfacet
  facet normal -0.222465 -0.974645 -0.024019
    outer loop
      vertex 9.86055 1.32677 -27.5466
      vertex 9.55496 1.94986 -50
      vertex 9.80096 1.89371 -50
    endloop
  endfacet
  facet normal 0 0 -1
    outer loop
      vertex -0.867767 -8.19806 -50
      vertex -8.19806 -0.867767 -50
      vertex -0.867767 8.19806 -50
    endloop
  endfacet
  facet normal 0 0 -1
    outer loop
      vertex -3.09017 -9.51056 -50
      vertex -1.94986 -9.55496 -50
      vertex -1.90236 -9.76304 -50
    endloop
  endfacet
  facet normal 0 0 -1
    outer loop
      vertex 0.867767 8.19806 -50
      vertex 8.19806 0.867767 -50
      vertex 0.867767 -8.19806 -50
    endloop
  endfacet
  facet normal 0 0 -1
    outer loop
      vertex 8.19806 0.867767 -50
      vertex 0.867767 8.19806 -50
      vertex 1.94986 9.55496 -50
    endloop
  endfacet
  facet normal 0 0 -1
    outer loop
      vertex -0.867767 -8.19806 -50
      vertex 0.867767 8.19806 -50
      vertex 0.867767 -8.19806 -50
    endloop
  endfacet
  facet normal 0 0 -1
    outer loop
      vertex -0.867767 -8.19806 -50
      vertex -0.867767 8.19806 -50
      vertex 0.867767 8.19806 -50
    endloop
  endfacet
  facet normal 0 0 -1
    outer loop
      vertex -3.09017 -9.51056 -50
      vertex -0.867767 -8.19806 -50
      vertex -1.94986 -9.55496 -50
    endloop
  endfacet
  facet normal 0 0 -1
    outer loop
      vertex -8.19806 -0.867767 -50
      vertex -0.867767 -8.19806 -50
      vertex -3.09017 -9.51056 -50
    endloop
  endfacet
  facet normal 0 0 -1
    outer loop
      vertex 5 8.66025 -50
      vertex 1.94986 9.55496 -50
      vertex 3.09017 9.51056 -50
    endloop
  endfacet
  facet normal 0 0 -1
    outer loop
      vertex 3.09017 9.51056 -50
      vertex 1.94986 9.55496 -50
      vertex 1.90236 9.76304 -50
    endloop
  endfacet
  facet normal 0 0 -1
    outer loop
      vertex 9.78148 -2.07912 -50
      vertex 9.55496 -1.94986 -50
      vertex 9.80096 -1.89371 -50
    endloop
  endfacet
  facet normal 0 0 -1
    outer loop
      vertex 9.13545 -4.06737 -50
      vertex 9.55496 -1.94986 -50
      vertex 9.78148 -2.07912 -50
    endloop
  endfacet
  facet normal 0 0 -1
    outer loop
      vertex 9.13545 -4.06737 -50
      vertex 8.19806 -0.867767 -50
      vertex 9.55496 -1.94986 -50
    endloop
  endfacet
  facet normal 0 0 -1
    outer loop
      vertex 6.69131 -7.43145 -50
      vertex 8.19806 -0.867767 -50
      vertex 8.09017 -5.87785 -50
    endloop
  endfacet
  facet normal 0 0 -1
    outer loop
      vertex 8.09017 -5.87785 -50
      vertex 8.19806 -0.867767 -50
      vertex 9.13545 -4.06737 -50
    endloop
  endfacet
  facet normal 0 0 -1
    outer loop
      vertex 9.55496 1.94986 -50
      vertex 9.78148 2.07912 -50
      vertex 9.80096 1.89371 -50
    endloop
  endfacet
  facet normal 0 0 -1
    outer loop
      vertex 9.55496 1.94986 -50
      vertex 9.13545 4.06737 -50
      vertex 9.78148 2.07912 -50
    endloop
  endfacet
  facet normal 0 0 -1
    outer loop
      vertex 8.19806 0.867767 -50
      vertex 9.13545 4.06737 -50
      vertex 9.55496 1.94986 -50
    endloop
  endfacet
  facet normal 0 0 -1
    outer loop
      vertex 8.19806 0.867767 -50
      vertex 8.09017 5.87785 -50
      vertex 9.13545 4.06737 -50
    endloop
  endfacet
  facet normal 0 0 -1
    outer loop
      vertex 0.867767 -8.19806 -50
      vertex 6.69131 -7.43145 -50
      vertex 5 -8.66025 -50
    endloop
  endfacet
  facet normal 0 0 -1
    outer loop
      vertex 3.09017 -9.51056 -50
      vertex 0.867767 -8.19806 -50
      vertex 5 -8.66025 -50
    endloop
  endfacet
  facet normal -0 0 -1
    outer loop
      vertex 8.19806 -0.867767 -50
      vertex 0.867767 -8.19806 -50
      vertex 8.19806 0.867767 -50
    endloop
  endfacet
  facet normal -0 0 -1
    outer loop
      vertex 6.69131 -7.43145 -50
      vertex 0.867767 -8.19806 -50
      vertex 8.19806 -0.867767 -50
    endloop
  endfacet
  facet normal 0 0 -1
    outer loop
      vertex 8.19806 0.867767 -50
      vertex 6.69131 7.43145 -50
      vertex 8.09017 5.87785 -50
    endloop
  endfacet
  facet normal 0 0 -1
    outer loop
      vertex 0.867767 -8.19806 -50
      vertex 3.09017 -9.51056 -50
      vertex 1.94986 -9.55496 -50
    endloop
  endfacet
  facet normal 0 0 -1
    outer loop
      vertex 8.19806 0.867767 -50
      vertex 5 8.66025 -50
      vertex 6.69131 7.43145 -50
    endloop
  endfacet
  facet normal 0 0 -1
    outer loop
      vertex 1.94986 9.55496 -50
      vertex 5 8.66025 -50
      vertex 8.19806 0.867767 -50
    endloop
  endfacet
  facet normal 0 -0 -1
    outer loop
      vertex 1.94986 -9.55496 -50
      vertex 3.09017 -9.51056 -50
      vertex 1.90236 -9.76304 -50
    endloop
  endfacet
  facet normal -0 0 -1
    outer loop
      vertex -1.94986 9.55496 -50
      vertex -3.09017 9.51056 -50
      vertex -1.90236 9.76304 -50
    endloop
  endfacet
  facet normal 0 0 -1
    outer loop
      vertex -8.19806 0.867767 -50
      vertex -0.867767 8.19806 -50
      vertex -8.19806 -0.867767 -50
    endloop
  endfacet
  facet normal 0 0 -1
    outer loop
      vertex -8.19806 -0.867767 -50
      vertex -3.09017 -9.51056 -50
      vertex -5 -8.66025 -50
    endloop
  endfacet
  facet normal 0 -0 -1
    outer loop
      vertex -6.69131 7.43145 -50
      vertex -0.867767 8.19806 -50
      vertex -8.19806 0.867767 -50
    endloop
  endfacet
  facet normal 0 0 -1
    outer loop
      vertex -8.19806 -0.867767 -50
      vertex -5 -8.66025 -50
      vertex -6.69131 -7.43145 -50
    endloop
  endfacet
  facet normal 0 -0 -1
    outer loop
      vertex -3.09017 9.51056 -50
      vertex -0.867767 8.19806 -50
      vertex -5 8.66025 -50
    endloop
  endfacet
  facet normal 0 0 -1
    outer loop
      vertex -8.19806 -0.867767 -50
      vertex -6.69131 -7.43145 -50
      vertex -8.09017 -5.87785 -50
    endloop
  endfacet
  facet normal 0 0 -1
    outer loop
      vertex -0.867767 8.19806 -50
      vertex -3.09017 9.51056 -50
      vertex -1.94986 9.55496 -50
    endloop
  endfacet
  facet normal -0 0 -1
    outer loop
      vertex -0.867767 8.19806 -50
      vertex -6.69131 7.43145 -50
      vertex -5 8.66025 -50
    endloop
  endfacet
  facet normal 0 0 -1
    outer loop
      vertex -9.13545 -4.06737 -50
      vertex -8.19806 -0.867767 -50
      vertex -8.09017 -5.87785 -50
    endloop
  endfacet
  facet normal 0 0 -1
    outer loop
      vertex -9.13545 -4.06737 -50
      vertex -9.55496 -1.94986 -50
      vertex -8.19806 -0.867767 -50
    endloop
  endfacet
  facet normal 0 0 -1
    outer loop
      vertex -9.78148 -2.07912 -50
      vertex -9.55496 -1.94986 -50
      vertex -9.13545 -4.06737 -50
    endloop
  endfacet
  facet normal -0 0 -1
    outer loop
      vertex -9.55496 -1.94986 -50
      vertex -9.78148 -2.07912 -50
      vertex -9.80096 -1.89371 -50
    endloop
  endfacet
  facet normal 0 0 -1
    outer loop
      vertex -6.69131 7.43145 -50
      vertex -8.19806 0.867767 -50
      vertex -8.09017 5.87785 -50
    endloop
  endfacet
  facet normal 0 0 -1
    outer loop
      vertex -8.19806 0.867767 -50
      vertex -9.13545 4.06737 -50
      vertex -8.09017 5.87785 -50
    endloop
  endfacet
  facet normal 0 0 -1
    outer loop
      vertex -9.55496 1.94986 -50
      vertex -9.13545 4.06737 -50
      vertex -8.19806 0.867767 -50
    endloop
  endfacet
  facet normal 0 0 -1
    outer loop
      vertex -9.55496 1.94986 -50
      vertex -9.78148 2.07912 -50
      vertex -9.13545 4.06737 -50
    endloop
  endfacet
  facet normal 0 -0 -1
    outer loop
      vertex -9.78148 2.07912 -50
      vertex -9.55496 1.94986 -50
      vertex -9.80096 1.89371 -50
    endloop
  endfacet
  facet normal 0.623307 0.781608 -0.024019
    outer loop
      vertex 8.79871 -0.578511 -25
      vertex 9.70331 -1.2999 -25
      vertex 8.19806 -0.867767 -50
    endloop
  endfacet
  facet normal 0.623307 -0.781608 -0.024019
    outer loop
      vertex 9.70331 1.2999 -25
      vertex 8.79871 0.578511 -25
      vertex 8.19806 0.867767 -50
    endloop
  endfacet
  facet normal -0.222465 0.974645 -0.024019
    outer loop
      vertex 9.55496 -1.94986 -50
      vertex 9.86055 -1.32677 -27.5466
      vertex 9.80096 -1.89371 -50
    endloop
  endfacet
  facet normal -0.222454 0.974647 -0.0240192
    outer loop
      vertex 9.86055 -1.32677 -27.5466
      vertex 9.55496 -1.94986 -50
      vertex 9.70331 -1.2999 -25
    endloop
  endfacet
  facet normal 0 0 1
    outer loop
      vertex -3.09017 9.51056 -25
      vertex -1.2999 9.70331 -25
      vertex -1.25486 9.90067 -25
    endloop
  endfacet
  facet normal 0 0 1
    outer loop
      vertex -1.2999 9.70331 -25
      vertex -3.09017 9.51056 -25
      vertex -1.94114 7.24444 -25
    endloop
  endfacet
  facet normal 0 0 1
    outer loop
      vertex -3.09017 9.51056 -25
      vertex -3.75 6.49519 -25
      vertex -1.94114 7.24444 -25
    endloop
  endfacet
  facet normal -0 0 1
    outer loop
      vertex -5 8.66025 -25
      vertex -3.75 6.49519 -25
      vertex -3.09017 9.51056 -25
    endloop
  endfacet
  facet normal -0 0 1
    outer loop
      vertex -6.69131 7.43145 -25
      vertex -3.75 6.49519 -25
      vertex -5 8.66025 -25
    endloop
  endfacet
  facet normal 0 0 1
    outer loop
      vertex -3.75 6.49519 -25
      vertex -6.69131 7.43145 -25
      vertex -5.3033 5.3033 -25
    endloop
  endfacet
  facet normal -0 0 1
    outer loop
      vertex -8.09017 5.87785 -25
      vertex -5.3033 5.3033 -25
      vertex -6.69131 7.43145 -25
    endloop
  endfacet
  facet normal 0 0 1
    outer loop
      vertex -5.3033 5.3033 -25
      vertex -8.09017 5.87785 -25
      vertex -6.49519 3.75 -25
    endloop
  endfacet
  facet normal -0 0 1
    outer loop
      vertex -9.13545 4.06737 -25
      vertex -6.49519 3.75 -25
      vertex -8.09017 5.87785 -25
    endloop
  endfacet
  facet normal 0 0 1
    outer loop
      vertex -6.49519 3.75 -25
      vertex -9.13545 4.06737 -25
      vertex -7.24444 1.94114 -25
    endloop
  endfacet
  facet normal 0 0 1
    outer loop
      vertex 1.94114 -7.24444 -25
      vertex 0.578511 -8.79871 -25
      vertex 1.2999 -9.70331 -25
    endloop
  endfacet
  facet normal -0 0 1
    outer loop
      vertex 0 -7.5 -25
      vertex 0.578511 -8.79871 -25
      vertex 1.94114 -7.24444 -25
    endloop
  endfacet
  facet normal 0 0 1
    outer loop
      vertex 0 -7.5 -25
      vertex -0.578511 -8.79871 -25
      vertex 0.578511 -8.79871 -25
    endloop
  endfacet
  facet normal 0 0 1
    outer loop
      vertex -1.94114 -7.24444 -25
      vertex -0.578511 -8.79871 -25
      vertex 0 -7.5 -25
    endloop
  endfacet
  facet normal 0 0 1
    outer loop
      vertex -0.578511 -8.79871 -25
      vertex -1.94114 -7.24444 -25
      vertex -1.2999 -9.70331 -25
    endloop
  endfacet
  facet normal -0 0 1
    outer loop
      vertex 6.49519 -3.75 -25
      vertex 9.13545 -4.06737 -25
      vertex 7.24444 -1.94114 -25
    endloop
  endfacet
  facet normal 0 0 1
    outer loop
      vertex 9.13545 -4.06737 -25
      vertex 6.49519 -3.75 -25
      vertex 8.09017 -5.87785 -25
    endloop
  endfacet
  facet normal -0 0 1
    outer loop
      vertex 5.3033 -5.3033 -25
      vertex 8.09017 -5.87785 -25
      vertex 6.49519 -3.75 -25
    endloop
  endfacet
  facet normal 0 0 1
    outer loop
      vertex 8.09017 -5.87785 -25
      vertex 5.3033 -5.3033 -25
      vertex 6.69131 -7.43145 -25
    endloop
  endfacet
  facet normal -0 0 1
    outer loop
      vertex 3.75 -6.49519 -25
      vertex 6.69131 -7.43145 -25
      vertex 5.3033 -5.3033 -25
    endloop
  endfacet
  facet normal 0 0 1
    outer loop
      vertex 6.69131 -7.43145 -25
      vertex 3.75 -6.49519 -25
      vertex 5 -8.66025 -25
    endloop
  endfacet
  facet normal 0 0 1
    outer loop
      vertex 3.75 -6.49519 -25
      vertex 3.09017 -9.51056 -25
      vertex 5 -8.66025 -25
    endloop
  endfacet
  facet normal -0 0 1
    outer loop
      vertex 1.94114 -7.24444 -25
      vertex 3.09017 -9.51056 -25
      vertex 3.75 -6.49519 -25
    endloop
  endfacet
  facet normal 0 0 1
    outer loop
      vertex 1.2999 -9.70331 -25
      vertex 3.09017 -9.51056 -25
      vertex 1.94114 -7.24444 -25
    endloop
  endfacet
  facet normal 0 0 1
    outer loop
      vertex 3.09017 -9.51056 -25
      vertex 1.2999 -9.70331 -25
      vertex 1.25486 -9.90067 -25
    endloop
  endfacet
  facet normal -0 0 1
    outer loop
      vertex 0.578511 8.79871 -25
      vertex 1.94114 7.24444 -25
      vertex 1.2999 9.70331 -25
    endloop
  endfacet
  facet normal 0 0 1
    outer loop
      vertex 0.578511 8.79871 -25
      vertex 0 7.5 -25
      vertex 1.94114 7.24444 -25
    endloop
  endfacet
  facet normal -0 0 1
    outer loop
      vertex -0.578511 8.79871 -25
      vertex 0 7.5 -25
      vertex 0.578511 8.79871 -25
    endloop
  endfacet
  facet normal 0 0 1
    outer loop
      vertex -1.94114 7.24444 -25
      vertex -0.578511 8.79871 -25
      vertex -1.2999 9.70331 -25
    endloop
  endfacet
  facet normal 0 0 1
    outer loop
      vertex -0.578511 8.79871 -25
      vertex -1.94114 7.24444 -25
      vertex 0 7.5 -25
    endloop
  endfacet
  facet normal 0 0 1
    outer loop
      vertex 9.78148 2.07912 -25
      vertex 9.70331 1.2999 -25
      vertex 9.86731 1.26247 -25
    endloop
  endfacet
  facet normal 0 0 1
    outer loop
      vertex 7.24444 1.94114 -25
      vertex 9.78148 2.07912 -25
      vertex 9.13545 4.06737 -25
    endloop
  endfacet
  facet normal 0 -0 1
    outer loop
      vertex 8.79871 0.578511 -25
      vertex 9.78148 2.07912 -25
      vertex 7.24444 1.94114 -25
    endloop
  endfacet
  facet normal 0 0 1
    outer loop
      vertex 9.78148 2.07912 -25
      vertex 8.79871 0.578511 -25
      vertex 9.70331 1.2999 -25
    endloop
  endfacet
  facet normal 0 0 1
    outer loop
      vertex 7.24444 1.94114 -25
      vertex 9.13545 4.06737 -25
      vertex 8.09017 5.87785 -25
    endloop
  endfacet
  facet normal -0 0 1
    outer loop
      vertex 9.70331 -1.2999 -25
      vertex 9.78148 -2.07912 -25
      vertex 9.86731 -1.26247 -25
    endloop
  endfacet
  facet normal 0 0 1
    outer loop
      vertex 8.79871 -0.578511 -25
      vertex 9.78148 -2.07912 -25
      vertex 9.70331 -1.2999 -25
    endloop
  endfacet
  facet normal -0 0 1
    outer loop
      vertex 7.24444 -1.94114 -25
      vertex 9.78148 -2.07912 -25
      vertex 8.79871 -0.578511 -25
    endloop
  endfacet
  facet normal 0 -0 1
    outer loop
      vertex 7.5 0 -25
      vertex 8.79871 0.578511 -25
      vertex 7.24444 1.94114 -25
    endloop
  endfacet
  facet normal 0 0 1
    outer loop
      vertex 7.24444 -1.94114 -25
      vertex 8.79871 -0.578511 -25
      vertex 7.5 0 -25
    endloop
  endfacet
  facet normal 0 0 1
    outer loop
      vertex 9.78148 -2.07912 -25
      vertex 7.24444 -1.94114 -25
      vertex 9.13545 -4.06737 -25
    endloop
  endfacet
  facet normal 0 0 1
    outer loop
      vertex 8.79871 0.578511 -25
      vertex 7.5 0 -25
      vertex 8.79871 -0.578511 -25
    endloop
  endfacet
  facet normal 0 0 1
    outer loop
      vertex 5.3033 5.3033 -25
      vertex 8.09017 5.87785 -25
      vertex 6.69131 7.43145 -25
    endloop
  endfacet
  facet normal 0 0 1
    outer loop
      vertex 8.09017 5.87785 -25
      vertex 6.49519 3.75 -25
      vertex 7.24444 1.94114 -25
    endloop
  endfacet
  facet normal 0 0 1
    outer loop
      vertex 8.09017 5.87785 -25
      vertex 5.3033 5.3033 -25
      vertex 6.49519 3.75 -25
    endloop
  endfacet
  facet normal 0 0 1
    outer loop
      vertex 3.75 6.49519 -25
      vertex 6.69131 7.43145 -25
      vertex 5 8.66025 -25
    endloop
  endfacet
  facet normal 0 0 1
    outer loop
      vertex 6.69131 7.43145 -25
      vertex 3.75 6.49519 -25
      vertex 5.3033 5.3033 -25
    endloop
  endfacet
  facet normal 0 0 1
    outer loop
      vertex 3.09017 9.51056 -25
      vertex 3.75 6.49519 -25
      vertex 5 8.66025 -25
    endloop
  endfacet
  facet normal 0 0 1
    outer loop
      vertex 3.09017 9.51056 -25
      vertex 1.94114 7.24444 -25
      vertex 3.75 6.49519 -25
    endloop
  endfacet
  facet normal 0 0 1
    outer loop
      vertex 3.09017 9.51056 -25
      vertex 1.2999 9.70331 -25
      vertex 1.94114 7.24444 -25
    endloop
  endfacet
  facet normal -0 -0 1
    outer loop
      vertex 1.2999 9.70331 -25
      vertex 3.09017 9.51056 -25
      vertex 1.25486 9.90067 -25
    endloop
  endfacet
  facet normal -0 0 1
    outer loop
      vertex -3.09017 -9.51056 -25
      vertex -1.2999 -9.70331 -25
      vertex -1.94114 -7.24444 -25
    endloop
  endfacet
  facet normal 0 0 1
    outer loop
      vertex -1.2999 -9.70331 -25
      vertex -3.09017 -9.51056 -25
      vertex -1.25486 -9.90067 -25
    endloop
  endfacet
  facet normal 0 0 1
    outer loop
      vertex -3.75 -6.49519 -25
      vertex -3.09017 -9.51056 -25
      vertex -1.94114 -7.24444 -25
    endloop
  endfacet
  facet normal 0 0 1
    outer loop
      vertex -3.75 -6.49519 -25
      vertex -5 -8.66025 -25
      vertex -3.09017 -9.51056 -25
    endloop
  endfacet
  facet normal 0 0 1
    outer loop
      vertex -6.69131 -7.43145 -25
      vertex -3.75 -6.49519 -25
      vertex -5.3033 -5.3033 -25
    endloop
  endfacet
  facet normal 0 0 1
    outer loop
      vertex -8.09017 -5.87785 -25
      vertex -5.3033 -5.3033 -25
      vertex -6.49519 -3.75 -25
    endloop
  endfacet
  facet normal 0 0 1
    outer loop
      vertex -3.75 -6.49519 -25
      vertex -6.69131 -7.43145 -25
      vertex -5 -8.66025 -25
    endloop
  endfacet
  facet normal 0 0 1
    outer loop
      vertex -9.13545 -4.06737 -25
      vertex -6.49519 -3.75 -25
      vertex -7.24444 -1.94114 -25
    endloop
  endfacet
  facet normal -0 0 1
    outer loop
      vertex -8.79871 -0.578511 -25
      vertex -7.24444 -1.94114 -25
      vertex -7.5 0 -25
    endloop
  endfacet
  facet normal 0 0 1
    outer loop
      vertex -5.3033 -5.3033 -25
      vertex -8.09017 -5.87785 -25
      vertex -6.69131 -7.43145 -25
    endloop
  endfacet
  facet normal -0 0 1
    outer loop
      vertex -9.78148 2.07912 -25
      vertex -7.24444 1.94114 -25
      vertex -9.13545 4.06737 -25
    endloop
  endfacet
  facet normal 0 0 1
    outer loop
      vertex -8.79871 -0.578511 -25
      vertex -7.5 0 -25
      vertex -8.79871 0.578511 -25
    endloop
  endfacet
  facet normal 0 0 1
    outer loop
      vertex -7.24444 1.94114 -25
      vertex -8.79871 0.578511 -25
      vertex -7.5 0 -25
    endloop
  endfacet
  facet normal 0 0 1
    outer loop
      vertex -7.24444 1.94114 -25
      vertex -9.78148 2.07912 -25
      vertex -8.79871 0.578511 -25
    endloop
  endfacet
  facet normal 0 0 1
    outer loop
      vertex -8.79871 0.578511 -25
      vertex -9.78148 2.07912 -25
      vertex -9.70331 1.2999 -25
    endloop
  endfacet
  facet normal 0 0 1
    outer loop
      vertex -9.70331 1.2999 -25
      vertex -9.78148 2.07912 -25
      vertex -9.86731 1.26247 -25
    endloop
  endfacet
  facet normal 0 0 1
    outer loop
      vertex -9.78148 -2.07912 -25
      vertex -7.24444 -1.94114 -25
      vertex -8.79871 -0.578511 -25
    endloop
  endfacet
  facet normal 0 0 1
    outer loop
      vertex -6.49519 -3.75 -25
      vertex -9.13545 -4.06737 -25
      vertex -8.09017 -5.87785 -25
    endloop
  endfacet
  facet normal 0 0 1
    outer loop
      vertex -9.78148 -2.07912 -25
      vertex -8.79871 -0.578511 -25
      vertex -9.70331 -1.2999 -25
    endloop
  endfacet
  facet normal 0 0 1
    outer loop
      vertex -7.24444 -1.94114 -25
      vertex -9.78148 -2.07912 -25
      vertex -9.13545 -4.06737 -25
    endloop
  endfacet
  facet normal 0 -0 1
    outer loop
      vertex -9.78148 -2.07912 -25
      vertex -9.70331 -1.2999 -25
      vertex -9.86731 -1.26247 -25
    endloop
  endfacet
  facet normal 0.62331 -0.781606 -0.0240192
    outer loop
      vertex 9.55496 1.94986 -50
      vertex 9.70331 1.2999 -25
      vertex 8.19806 0.867767 -50
    endloop
  endfacet
  facet normal -0.222446 0.974649 -0.0240188
    outer loop
      vertex 9.86731 -1.26247 -25
      vertex 9.86055 -1.32677 -27.5466
      vertex 9.70331 -1.2999 -25
    endloop
  endfacet
  facet normal 0 0.999712 -0.0240191
    outer loop
      vertex 0.867767 8.19806 -50
      vertex -0.578511 8.79871 -25
      vertex 0.578511 8.79871 -25
    endloop
  endfacet
  facet normal 0 0.999712 -0.0240191
    outer loop
      vertex -0.578511 8.79871 -25
      vertex 0.867767 8.19806 -50
      vertex -0.867767 8.19806 -50
    endloop
  endfacet
  facet normal 0.974653 -0.222428 -0.0240199
    outer loop
      vertex -1.25486 9.90067 -25
      vertex -1.2999 9.70331 -25
      vertex -1.33087 9.88452 -27.9347
    endloop
  endfacet
  facet normal -0.781606 0.62331 -0.0240192
    outer loop
      vertex 1.2999 9.70331 -25
      vertex 1.94986 9.55496 -50
      vertex 0.867767 8.19806 -50
    endloop
  endfacet
  facet normal 0.974654 -0.222423 -0.0240196
    outer loop
      vertex -1.94986 9.55496 -50
      vertex -1.33087 9.88452 -27.9347
      vertex -1.2999 9.70331 -25
    endloop
  endfacet
  facet normal 0.974639 -0.222488 -0.0240182
    outer loop
      vertex -1.33087 9.88452 -27.9347
      vertex -1.94986 9.55496 -50
      vertex -1.90236 9.76304 -50
    endloop
  endfacet
  facet normal -0.781608 0.623307 -0.024019
    outer loop
      vertex 1.2999 9.70331 -25
      vertex 0.867767 8.19806 -50
      vertex 0.578511 8.79871 -25
    endloop
  endfacet
  facet normal 0.781608 0.623307 -0.024019
    outer loop
      vertex -0.578511 8.79871 -25
      vertex -0.867767 8.19806 -50
      vertex -1.2999 9.70331 -25
    endloop
  endfacet
  facet normal -0.974639 -0.222488 -0.0240182
    outer loop
      vertex 1.94986 9.55496 -50
      vertex 1.33087 9.88452 -27.9347
      vertex 1.90236 9.76304 -50
    endloop
  endfacet
  facet normal -0.974654 -0.222423 -0.0240196
    outer loop
      vertex 1.33087 9.88452 -27.9347
      vertex 1.94986 9.55496 -50
      vertex 1.2999 9.70331 -25
    endloop
  endfacet
  facet normal 0.781606 0.62331 -0.0240192
    outer loop
      vertex -1.2999 9.70331 -25
      vertex -0.867767 8.19806 -50
      vertex -1.94986 9.55496 -50
    endloop
  endfacet
  facet normal -0.974653 -0.222428 -0.0240199
    outer loop
      vertex 1.33087 9.88452 -27.9347
      vertex 1.2999 9.70331 -25
      vertex 1.25486 9.90067 -25
    endloop
  endfacet
  facet normal -0.999712 0 -0.0240191
    outer loop
      vertex -8.19806 0.867767 -50
      vertex -8.79871 -0.578511 -25
      vertex -8.79871 0.578511 -25
    endloop
  endfacet
  facet normal -0.999712 0 -0.0240191
    outer loop
      vertex -8.79871 -0.578511 -25
      vertex -8.19806 0.867767 -50
      vertex -8.19806 -0.867767 -50
    endloop
  endfacet
  facet normal 0.222446 0.974649 -0.0240188
    outer loop
      vertex -9.70331 -1.2999 -25
      vertex -9.86055 -1.32677 -27.5466
      vertex -9.86731 -1.26247 -25
    endloop
  endfacet
  facet normal -0.62331 -0.781606 -0.0240192
    outer loop
      vertex -9.55496 1.94986 -50
      vertex -8.19806 0.867767 -50
      vertex -9.70331 1.2999 -25
    endloop
  endfacet
  facet normal 0.222454 0.974647 -0.0240192
    outer loop
      vertex -9.55496 -1.94986 -50
      vertex -9.86055 -1.32677 -27.5466
      vertex -9.70331 -1.2999 -25
    endloop
  endfacet
  facet normal 0.222465 0.974645 -0.024019
    outer loop
      vertex -9.86055 -1.32677 -27.5466
      vertex -9.55496 -1.94986 -50
      vertex -9.80096 -1.89371 -50
    endloop
  endfacet
  facet normal -0.623307 -0.781608 -0.024019
    outer loop
      vertex -8.19806 0.867767 -50
      vertex -8.79871 0.578511 -25
      vertex -9.70331 1.2999 -25
    endloop
  endfacet
  facet normal -0.623307 0.781608 -0.024019
    outer loop
      vertex -8.79871 -0.578511 -25
      vertex -8.19806 -0.867767 -50
      vertex -9.70331 -1.2999 -25
    endloop
  endfacet
  facet normal 0.222465 -0.974645 -0.024019
    outer loop
      vertex -9.55496 1.94986 -50
      vertex -9.86055 1.32677 -27.5466
      vertex -9.80096 1.89371 -50
    endloop
  endfacet
  facet normal 0.222454 -0.974647 -0.0240192
    outer loop
      vertex -9.86055 1.32677 -27.5466
      vertex -9.55496 1.94986 -50
      vertex -9.70331 1.2999 -25
    endloop
  endfacet
  facet normal -0.62331 0.781606 -0.0240192
    outer loop
      vertex -8.19806 -0.867767 -50
      vertex -9.55496 -1.94986 -50
      vertex -9.70331 -1.2999 -25
    endloop
  endfacet
  facet normal 0.222446 -0.974649 -0.0240188
    outer loop
      vertex -9.86055 1.32677 -27.5466
      vertex -9.70331 1.2999 -25
      vertex -9.86731 1.26247 -25
    endloop
  endfacet
  facet normal 0 -0.999712 -0.0240191
    outer loop
      vertex -0.867767 -8.19806 -50
      vertex 0.578511 -8.79871 -25
      vertex -0.578511 -8.79871 -25
    endloop
  endfacet
  facet normal 0 -0.999712 -0.0240191
    outer loop
      vertex 0.578511 -8.79871 -25
      vertex -0.867767 -8.19806 -50
      vertex 0.867767 -8.19806 -50
    endloop
  endfacet
  facet normal -0.974653 0.222428 -0.0240199
    outer loop
      vertex 1.2999 -9.70331 -25
      vertex 1.33087 -9.88452 -27.9347
      vertex 1.25486 -9.90067 -25
    endloop
  endfacet
  facet normal 0.781606 -0.62331 -0.0240192
    outer loop
      vertex -0.867767 -8.19806 -50
      vertex -1.2999 -9.70331 -25
      vertex -1.94986 -9.55496 -50
    endloop
  endfacet
  facet normal -0.974639 0.222488 -0.0240182
    outer loop
      vertex 1.33087 -9.88452 -27.9347
      vertex 1.94986 -9.55496 -50
      vertex 1.90236 -9.76304 -50
    endloop
  endfacet
  facet normal -0.974654 0.222423 -0.0240196
    outer loop
      vertex 1.94986 -9.55496 -50
      vertex 1.33087 -9.88452 -27.9347
      vertex 1.2999 -9.70331 -25
    endloop
  endfacet
  facet normal 0.781608 -0.623307 -0.024019
    outer loop
      vertex -0.867767 -8.19806 -50
      vertex -0.578511 -8.79871 -25
      vertex -1.2999 -9.70331 -25
    endloop
  endfacet
  facet normal -0.781608 -0.623307 -0.024019
    outer loop
      vertex 0.867767 -8.19806 -50
      vertex 1.2999 -9.70331 -25
      vertex 0.578511 -8.79871 -25
    endloop
  endfacet
  facet normal 0.974654 0.222423 -0.0240196
    outer loop
      vertex -1.33087 -9.88452 -27.9347
      vertex -1.94986 -9.55496 -50
      vertex -1.2999 -9.70331 -25
    endloop
  endfacet
  facet normal 0.974639 0.222488 -0.0240182
    outer loop
      vertex -1.94986 -9.55496 -50
      vertex -1.33087 -9.88452 -27.9347
      vertex -1.90236 -9.76304 -50
    endloop
  endfacet
  facet normal -0.781606 -0.62331 -0.0240192
    outer loop
      vertex 1.94986 -9.55496 -50
      vertex 1.2999 -9.70331 -25
      vertex 0.867767 -8.19806 -50
    endloop
  endfacet
  facet normal 0.974653 0.222428 -0.0240199
    outer loop
      vertex -1.2999 -9.70331 -25
      vertex -1.25486 -9.90067 -25
      vertex -1.33087 -9.88452 -27.9347
    endloop
  endfacet
  facet normal -0.743147 -0.669129 0
    outer loop
      vertex -6.69131 -7.43145 -50
      vertex -8.09017 -5.87785 -25
      vertex -8.09017 -5.87785 -50
    endloop
  endfacet
  facet normal -0.743147 -0.669129 0
    outer loop
      vertex -8.09017 -5.87785 -25
      vertex -6.69131 -7.43145 -50
      vertex -6.69131 -7.43145 -25
    endloop
  endfacet
  facet normal 0.951055 0.309021 0
    outer loop
      vertex 9.78148 2.07912 -25
      vertex 9.13545 4.06737 -50
      vertex 9.13545 4.06737 -25
    endloop
  endfacet
  facet normal 0.951055 0.309021 0
    outer loop
      vertex 9.13545 4.06737 -50
      vertex 9.78148 2.07912 -25
      vertex 9.78148 2.07912 -50
    endloop
  endfacet
  facet normal 0.994523 0.104522 0
    outer loop
      vertex 9.86055 1.32677 -27.5466
      vertex 9.78148 2.07912 -50
      vertex 9.78148 2.07912 -25
    endloop
  endfacet
  facet normal 0.994526 0.104489 -1.09668e-06
    outer loop
      vertex 9.78148 2.07912 -50
      vertex 9.86055 1.32677 -27.5466
      vertex 9.80096 1.89371 -50
    endloop
  endfacet
  facet normal 0.994522 0.104524 -8.05782e-07
    outer loop
      vertex 9.86055 1.32677 -27.5466
      vertex 9.78148 2.07912 -25
      vertex 9.86731 1.26247 -25
    endloop
  endfacet
  facet normal 0.866026 0.5 0
    outer loop
      vertex 9.13545 4.06737 -25
      vertex 8.09017 5.87785 -50
      vertex 8.09017 5.87785 -25
    endloop
  endfacet
  facet normal 0.866026 0.5 0
    outer loop
      vertex 8.09017 5.87785 -50
      vertex 9.13545 4.06737 -25
      vertex 9.13545 4.06737 -50
    endloop
  endfacet
  facet normal 0.951055 -0.309021 0
    outer loop
      vertex 9.13545 -4.06737 -25
      vertex 9.78148 -2.07912 -50
      vertex 9.78148 -2.07912 -25
    endloop
  endfacet
  facet normal 0.951055 -0.309021 0
    outer loop
      vertex 9.78148 -2.07912 -50
      vertex 9.13545 -4.06737 -25
      vertex 9.13545 -4.06737 -50
    endloop
  endfacet
  facet normal 0.587783 -0.809019 0
    outer loop
      vertex 5 -8.66025 -50
      vertex 6.69131 -7.43145 -25
      vertex 5 -8.66025 -25
    endloop
  endfacet
  facet normal 0.587783 -0.809019 0
    outer loop
      vertex 6.69131 -7.43145 -25
      vertex 5 -8.66025 -50
      vertex 6.69131 -7.43145 -50
    endloop
  endfacet
  facet normal 0.743147 -0.669129 0
    outer loop
      vertex 6.69131 -7.43145 -25
      vertex 8.09017 -5.87785 -50
      vertex 8.09017 -5.87785 -25
    endloop
  endfacet
  facet normal 0.743147 -0.669129 0
    outer loop
      vertex 8.09017 -5.87785 -50
      vertex 6.69131 -7.43145 -25
      vertex 6.69131 -7.43145 -50
    endloop
  endfacet
  facet normal 0.994522 -0.104524 -8.05782e-07
    outer loop
      vertex 9.78148 -2.07912 -25
      vertex 9.86055 -1.32677 -27.5466
      vertex 9.86731 -1.26247 -25
    endloop
  endfacet
  facet normal 0.994523 -0.104522 0
    outer loop
      vertex 9.78148 -2.07912 -50
      vertex 9.86055 -1.32677 -27.5466
      vertex 9.78148 -2.07912 -25
    endloop
  endfacet
  facet normal 0.994526 -0.104489 -1.09668e-06
    outer loop
      vertex 9.86055 -1.32677 -27.5466
      vertex 9.78148 -2.07912 -50
      vertex 9.80096 -1.89371 -50
    endloop
  endfacet
  facet normal -0.406736 -0.913546 0
    outer loop
      vertex -5 -8.66025 -50
      vertex -3.09017 -9.51056 -25
      vertex -5 -8.66025 -25
    endloop
  endfacet
  facet normal -0.406736 -0.913546 -0
    outer loop
      vertex -3.09017 -9.51056 -25
      vertex -5 -8.66025 -50
      vertex -3.09017 -9.51056 -50
    endloop
  endfacet
  facet normal 0.406736 0.913546 -0
    outer loop
      vertex 5 8.66025 -50
      vertex 3.09017 9.51056 -25
      vertex 5 8.66025 -25
    endloop
  endfacet
  facet normal 0.406736 0.913546 0
    outer loop
      vertex 3.09017 9.51056 -25
      vertex 5 8.66025 -50
      vertex 3.09017 9.51056 -50
    endloop
  endfacet
  facet normal 0.743147 0.669129 0
    outer loop
      vertex 8.09017 5.87785 -25
      vertex 6.69131 7.43145 -50
      vertex 6.69131 7.43145 -25
    endloop
  endfacet
  facet normal 0.743147 0.669129 0
    outer loop
      vertex 6.69131 7.43145 -50
      vertex 8.09017 5.87785 -25
      vertex 8.09017 5.87785 -50
    endloop
  endfacet
  facet normal -0.587783 -0.809019 0
    outer loop
      vertex -6.69131 -7.43145 -50
      vertex -5 -8.66025 -25
      vertex -6.69131 -7.43145 -25
    endloop
  endfacet
  facet normal -0.587783 -0.809019 -0
    outer loop
      vertex -5 -8.66025 -25
      vertex -6.69131 -7.43145 -50
      vertex -5 -8.66025 -50
    endloop
  endfacet
  facet normal -0.743147 0.669129 0
    outer loop
      vertex -8.09017 5.87785 -50
      vertex -6.69131 7.43145 -25
      vertex -6.69131 7.43145 -50
    endloop
  endfacet
  facet normal -0.743147 0.669129 0
    outer loop
      vertex -6.69131 7.43145 -25
      vertex -8.09017 5.87785 -50
      vertex -8.09017 5.87785 -25
    endloop
  endfacet
  facet normal 0.406736 -0.913546 0
    outer loop
      vertex 3.09017 -9.51056 -50
      vertex 5 -8.66025 -25
      vertex 3.09017 -9.51056 -25
    endloop
  endfacet
  facet normal 0.406736 -0.913546 0
    outer loop
      vertex 5 -8.66025 -25
      vertex 3.09017 -9.51056 -50
      vertex 5 -8.66025 -50
    endloop
  endfacet
  facet normal 0.207913 -0.978147 2.18011e-06
    outer loop
      vertex 1.33087 -9.88452 -27.9347
      vertex 3.09017 -9.51056 -25
      vertex 1.25486 -9.90067 -25
    endloop
  endfacet
  facet normal 0.207914 -0.978147 -2.00172e-07
    outer loop
      vertex 3.09017 -9.51056 -50
      vertex 1.33087 -9.88452 -27.9347
      vertex 1.90236 -9.76304 -50
    endloop
  endfacet
  facet normal 0.207917 -0.978147 0
    outer loop
      vertex 1.33087 -9.88452 -27.9347
      vertex 3.09017 -9.51056 -50
      vertex 3.09017 -9.51056 -25
    endloop
  endfacet
  facet normal -0.951055 0.309021 0
    outer loop
      vertex -9.78148 2.07912 -50
      vertex -9.13545 4.06737 -25
      vertex -9.13545 4.06737 -50
    endloop
  endfacet
  facet normal -0.951055 0.309021 0
    outer loop
      vertex -9.13545 4.06737 -25
      vertex -9.78148 2.07912 -50
      vertex -9.78148 2.07912 -25
    endloop
  endfacet
  facet normal -0.951055 -0.309021 0
    outer loop
      vertex -9.13545 -4.06737 -50
      vertex -9.78148 -2.07912 -25
      vertex -9.78148 -2.07912 -50
    endloop
  endfacet
  facet normal -0.951055 -0.309021 0
    outer loop
      vertex -9.78148 -2.07912 -25
      vertex -9.13545 -4.06737 -50
      vertex -9.13545 -4.06737 -25
    endloop
  endfacet
  facet normal -0.406736 0.913546 0
    outer loop
      vertex -3.09017 9.51056 -50
      vertex -5 8.66025 -25
      vertex -3.09017 9.51056 -25
    endloop
  endfacet
  facet normal -0.406736 0.913546 0
    outer loop
      vertex -5 8.66025 -25
      vertex -3.09017 9.51056 -50
      vertex -5 8.66025 -50
    endloop
  endfacet
  facet normal -0.207913 -0.978147 2.18011e-06
    outer loop
      vertex -3.09017 -9.51056 -25
      vertex -1.33087 -9.88452 -27.9347
      vertex -1.25486 -9.90067 -25
    endloop
  endfacet
  facet normal -0.207917 -0.978147 0
    outer loop
      vertex -3.09017 -9.51056 -50
      vertex -1.33087 -9.88452 -27.9347
      vertex -3.09017 -9.51056 -25
    endloop
  endfacet
  facet normal -0.207914 -0.978147 -2.00172e-07
    outer loop
      vertex -1.33087 -9.88452 -27.9347
      vertex -3.09017 -9.51056 -50
      vertex -1.90236 -9.76304 -50
    endloop
  endfacet
  facet normal 0.207913 0.978147 2.18011e-06
    outer loop
      vertex 3.09017 9.51056 -25
      vertex 1.33087 9.88452 -27.9347
      vertex 1.25486 9.90067 -25
    endloop
  endfacet
  facet normal 0.207917 0.978147 -0
    outer loop
      vertex 3.09017 9.51056 -50
      vertex 1.33087 9.88452 -27.9347
      vertex 3.09017 9.51056 -25
    endloop
  endfacet
  facet normal 0.207914 0.978147 -2.00172e-07
    outer loop
      vertex 1.33087 9.88452 -27.9347
      vertex 3.09017 9.51056 -50
      vertex 1.90236 9.76304 -50
    endloop
  endfacet
  facet normal -0.994526 -0.104489 -1.09668e-06
    outer loop
      vertex -9.78148 -2.07912 -50
      vertex -9.86055 -1.32677 -27.5466
      vertex -9.80096 -1.89371 -50
    endloop
  endfacet
  facet normal -0.994523 -0.104522 -0
    outer loop
      vertex -9.78148 -2.07912 -25
      vertex -9.86055 -1.32677 -27.5466
      vertex -9.78148 -2.07912 -50
    endloop
  endfacet
  facet normal -0.994522 -0.104524 -8.05782e-07
    outer loop
      vertex -9.86055 -1.32677 -27.5466
      vertex -9.78148 -2.07912 -25
      vertex -9.86731 -1.26247 -25
    endloop
  endfacet
  facet normal -0.866026 -0.5 0
    outer loop
      vertex -8.09017 -5.87785 -50
      vertex -9.13545 -4.06737 -25
      vertex -9.13545 -4.06737 -50
    endloop
  endfacet
  facet normal -0.866026 -0.5 0
    outer loop
      vertex -9.13545 -4.06737 -25
      vertex -8.09017 -5.87785 -50
      vertex -8.09017 -5.87785 -25
    endloop
  endfacet
  facet normal -0.866026 0.5 0
    outer loop
      vertex -9.13545 4.06737 -50
      vertex -8.09017 5.87785 -25
      vertex -8.09017 5.87785 -50
    endloop
  endfacet
  facet normal -0.866026 0.5 0
    outer loop
      vertex -8.09017 5.87785 -25
      vertex -9.13545 4.06737 -50
      vertex -9.13545 4.06737 -25
    endloop
  endfacet
  facet normal 0.866026 -0.5 0
    outer loop
      vertex 8.09017 -5.87785 -25
      vertex 9.13545 -4.06737 -50
      vertex 9.13545 -4.06737 -25
    endloop
  endfacet
  facet normal 0.866026 -0.5 0
    outer loop
      vertex 9.13545 -4.06737 -50
      vertex 8.09017 -5.87785 -25
      vertex 8.09017 -5.87785 -50
    endloop
  endfacet
  facet normal 0.587783 0.809019 -0
    outer loop
      vertex 6.69131 7.43145 -50
      vertex 5 8.66025 -25
      vertex 6.69131 7.43145 -25
    endloop
  endfacet
  facet normal 0.587783 0.809019 0
    outer loop
      vertex 5 8.66025 -25
      vertex 6.69131 7.43145 -50
      vertex 5 8.66025 -50
    endloop
  endfacet
  facet normal -0.587783 0.809019 0
    outer loop
      vertex -5 8.66025 -50
      vertex -6.69131 7.43145 -25
      vertex -5 8.66025 -25
    endloop
  endfacet
  facet normal -0.587783 0.809019 0
    outer loop
      vertex -6.69131 7.43145 -25
      vertex -5 8.66025 -50
      vertex -6.69131 7.43145 -50
    endloop
  endfacet
  facet normal -0.207913 0.978147 2.18011e-06
    outer loop
      vertex -1.33087 9.88452 -27.9347
      vertex -3.09017 9.51056 -25
      vertex -1.25486 9.90067 -25
    endloop
  endfacet
  facet normal -0.207914 0.978147 -2.00172e-07
    outer loop
      vertex -3.09017 9.51056 -50
      vertex -1.33087 9.88452 -27.9347
      vertex -1.90236 9.76304 -50
    endloop
  endfacet
  facet normal -0.207917 0.978147 0
    outer loop
      vertex -1.33087 9.88452 -27.9347
      vertex -3.09017 9.51056 -50
      vertex -3.09017 9.51056 -25
    endloop
  endfacet
  facet normal -0.994526 0.104489 -1.09668e-06
    outer loop
      vertex -9.86055 1.32677 -27.5466
      vertex -9.78148 2.07912 -50
      vertex -9.80096 1.89371 -50
    endloop
  endfacet
  facet normal -0.994523 0.104522 0
    outer loop
      vertex -9.78148 2.07912 -50
      vertex -9.86055 1.32677 -27.5466
      vertex -9.78148 2.07912 -25
    endloop
  endfacet
  facet normal -0.994522 0.104524 -8.05782e-07
    outer loop
      vertex -9.78148 2.07912 -25
      vertex -9.86055 1.32677 -27.5466
      vertex -9.86731 1.26247 -25
    endloop
  endfacet
  facet normal 0.92388 0.382682 0
    outer loop
      vertex 7.24444 1.94114 25
      vertex 6.49519 3.75 -25
      vertex 6.49519 3.75 25
    endloop
  endfacet
  facet normal 0.92388 0.382682 0
    outer loop
      vertex 6.49519 3.75 -25
      vertex 7.24444 1.94114 25
      vertex 7.24444 1.94114 -25
    endloop
  endfacet
  facet normal 0.991445 0.130528 0
    outer loop
      vertex 7.5 0 25
      vertex 7.24444 1.94114 -25
      vertex 7.24444 1.94114 25
    endloop
  endfacet
  facet normal 0.991445 0.130528 0
    outer loop
      vertex 7.24444 1.94114 -25
      vertex 7.5 0 25
      vertex 7.5 0 -25
    endloop
  endfacet
  facet normal 0.793353 0.608762 0
    outer loop
      vertex 6.49519 3.75 25
      vertex 5.3033 5.3033 -25
      vertex 5.3033 5.3033 25
    endloop
  endfacet
  facet normal 0.793353 0.608762 0
    outer loop
      vertex 5.3033 5.3033 -25
      vertex 6.49519 3.75 25
      vertex 6.49519 3.75 -25
    endloop
  endfacet
  facet normal -0.793353 0.608762 0
    outer loop
      vertex -6.49519 3.75 -25
      vertex -5.3033 5.3033 25
      vertex -5.3033 5.3033 -25
    endloop
  endfacet
  facet normal -0.793353 0.608762 0
    outer loop
      vertex -5.3033 5.3033 25
      vertex -6.49519 3.75 -25
      vertex -6.49519 3.75 25
    endloop
  endfacet
  facet normal -0.608762 0.793353 0
    outer loop
      vertex -3.75 6.49519 -25
      vertex -5.3033 5.3033 25
      vertex -3.75 6.49519 25
    endloop
  endfacet
  facet normal -0.608762 0.793353 0
    outer loop
      vertex -5.3033 5.3033 25
      vertex -3.75 6.49519 -25
      vertex -5.3033 5.3033 -25
    endloop
  endfacet
  facet normal 0.382682 -0.92388 0
    outer loop
      vertex 1.94114 -7.24444 -25
      vertex 3.75 -6.49519 25
      vertex 1.94114 -7.24444 25
    endloop
  endfacet
  facet normal 0.382682 -0.92388 0
    outer loop
      vertex 3.75 -6.49519 25
      vertex 1.94114 -7.24444 -25
      vertex 3.75 -6.49519 -25
    endloop
  endfacet
  facet normal -0.92388 0.382682 0
    outer loop
      vertex -7.24444 1.94114 -25
      vertex -6.49519 3.75 25
      vertex -6.49519 3.75 -25
    endloop
  endfacet
  facet normal -0.92388 0.382682 0
    outer loop
      vertex -6.49519 3.75 25
      vertex -7.24444 1.94114 -25
      vertex -7.24444 1.94114 25
    endloop
  endfacet
  facet normal 0.608762 0.793353 -0
    outer loop
      vertex 5.3033 5.3033 -25
      vertex 3.75 6.49519 25
      vertex 5.3033 5.3033 25
    endloop
  endfacet
  facet normal 0.608762 0.793353 0
    outer loop
      vertex 3.75 6.49519 25
      vertex 5.3033 5.3033 -25
      vertex 3.75 6.49519 -25
    endloop
  endfacet
  facet normal 0.130528 0.991445 -0
    outer loop
      vertex 1.94114 7.24444 -25
      vertex 0 7.5 25
      vertex 1.94114 7.24444 25
    endloop
  endfacet
  facet normal 0.130528 0.991445 0
    outer loop
      vertex 0 7.5 25
      vertex 1.94114 7.24444 -25
      vertex 0 7.5 -25
    endloop
  endfacet
  facet normal 0.130528 -0.991445 0
    outer loop
      vertex 0 -7.5 -25
      vertex 1.94114 -7.24444 25
      vertex 0 -7.5 25
    endloop
  endfacet
  facet normal 0.130528 -0.991445 0
    outer loop
      vertex 1.94114 -7.24444 25
      vertex 0 -7.5 -25
      vertex 1.94114 -7.24444 -25
    endloop
  endfacet
  facet normal 0.793353 -0.608762 0
    outer loop
      vertex 5.3033 -5.3033 25
      vertex 6.49519 -3.75 -25
      vertex 6.49519 -3.75 25
    endloop
  endfacet
  facet normal 0.793353 -0.608762 0
    outer loop
      vertex 6.49519 -3.75 -25
      vertex 5.3033 -5.3033 25
      vertex 5.3033 -5.3033 -25
    endloop
  endfacet
  facet normal 0.608762 -0.793353 0
    outer loop
      vertex 3.75 -6.49519 -25
      vertex 5.3033 -5.3033 25
      vertex 3.75 -6.49519 25
    endloop
  endfacet
  facet normal 0.608762 -0.793353 0
    outer loop
      vertex 5.3033 -5.3033 25
      vertex 3.75 -6.49519 -25
      vertex 5.3033 -5.3033 -25
    endloop
  endfacet
  facet normal -0.793353 -0.608762 0
    outer loop
      vertex -5.3033 -5.3033 -25
      vertex -6.49519 -3.75 25
      vertex -6.49519 -3.75 -25
    endloop
  endfacet
  facet normal -0.793353 -0.608762 0
    outer loop
      vertex -6.49519 -3.75 25
      vertex -5.3033 -5.3033 -25
      vertex -5.3033 -5.3033 25
    endloop
  endfacet
  facet normal 0.991445 -0.130528 0
    outer loop
      vertex 7.24444 -1.94114 25
      vertex 7.5 0 -25
      vertex 7.5 0 25
    endloop
  endfacet
  facet normal 0.991445 -0.130528 0
    outer loop
      vertex 7.5 0 -25
      vertex 7.24444 -1.94114 25
      vertex 7.24444 -1.94114 -25
    endloop
  endfacet
  facet normal -0.991445 0.130528 0
    outer loop
      vertex -7.5 0 -25
      vertex -7.24444 1.94114 25
      vertex -7.24444 1.94114 -25
    endloop
  endfacet
  facet normal -0.991445 0.130528 0
    outer loop
      vertex -7.24444 1.94114 25
      vertex -7.5 0 -25
      vertex -7.5 0 25
    endloop
  endfacet
  facet normal -0.130528 0.991445 0
    outer loop
      vertex 0 7.5 -25
      vertex -1.94114 7.24444 25
      vertex 0 7.5 25
    endloop
  endfacet
  facet normal -0.130528 0.991445 0
    outer loop
      vertex -1.94114 7.24444 25
      vertex 0 7.5 -25
      vertex -1.94114 7.24444 -25
    endloop
  endfacet
  facet normal 0.92388 -0.382682 0
    outer loop
      vertex 6.49519 -3.75 25
      vertex 7.24444 -1.94114 -25
      vertex 7.24444 -1.94114 25
    endloop
  endfacet
  facet normal 0.92388 -0.382682 0
    outer loop
      vertex 7.24444 -1.94114 -25
      vertex 6.49519 -3.75 25
      vertex 6.49519 -3.75 -25
    endloop
  endfacet
  facet normal -0.382682 0.92388 0
    outer loop
      vertex -1.94114 7.24444 -25
      vertex -3.75 6.49519 25
      vertex -1.94114 7.24444 25
    endloop
  endfacet
  facet normal -0.382682 0.92388 0
    outer loop
      vertex -3.75 6.49519 25
      vertex -1.94114 7.24444 -25
      vertex -3.75 6.49519 -25
    endloop
  endfacet
  facet normal 0.382682 0.92388 -0
    outer loop
      vertex 3.75 6.49519 -25
      vertex 1.94114 7.24444 25
      vertex 3.75 6.49519 25
    endloop
  endfacet
  facet normal 0.382682 0.92388 0
    outer loop
      vertex 1.94114 7.24444 25
      vertex 3.75 6.49519 -25
      vertex 1.94114 7.24444 -25
    endloop
  endfacet
  facet normal -0.130528 -0.991445 0
    outer loop
      vertex -1.94114 -7.24444 -25
      vertex 0 -7.5 25
      vertex -1.94114 -7.24444 25
    endloop
  endfacet
  facet normal -0.130528 -0.991445 -0
    outer loop
      vertex 0 -7.5 25
      vertex -1.94114 -7.24444 -25
      vertex 0 -7.5 -25
    endloop
  endfacet
  facet normal -0.92388 -0.382682 0
    outer loop
      vertex -6.49519 -3.75 -25
      vertex -7.24444 -1.94114 25
      vertex -7.24444 -1.94114 -25
    endloop
  endfacet
  facet normal -0.92388 -0.382682 0
    outer loop
      vertex -7.24444 -1.94114 25
      vertex -6.49519 -3.75 -25
      vertex -6.49519 -3.75 25
    endloop
  endfacet
  facet normal -0.991445 -0.130528 0
    outer loop
      vertex -7.24444 -1.94114 -25
      vertex -7.5 0 25
      vertex -7.5 0 -25
    endloop
  endfacet
  facet normal -0.991445 -0.130528 0
    outer loop
      vertex -7.5 0 25
      vertex -7.24444 -1.94114 -25
      vertex -7.24444 -1.94114 25
    endloop
  endfacet
  facet normal -0.608762 -0.793353 0
    outer loop
      vertex -5.3033 -5.3033 -25
      vertex -3.75 -6.49519 25
      vertex -5.3033 -5.3033 25
    endloop
  endfacet
  facet normal -0.608762 -0.793353 -0
    outer loop
      vertex -3.75 -6.49519 25
      vertex -5.3033 -5.3033 -25
      vertex -3.75 -6.49519 -25
    endloop
  endfacet
  facet normal -0.382682 -0.92388 0
    outer loop
      vertex -3.75 -6.49519 -25
      vertex -1.94114 -7.24444 25
      vertex -3.75 -6.49519 25
    endloop
  endfacet
  facet normal -0.382682 -0.92388 -0
    outer loop
      vertex -1.94114 -7.24444 25
      vertex -3.75 -6.49519 -25
      vertex -1.94114 -7.24444 -25
    endloop
  endfacet
endsolid OpenSCAD_Model
