solid OpenSCAD_Model
  facet normal 1 -0 0
    outer loop
      vertex 90 0 42
      vertex 90 50 40
      vertex 90 50 42
    endloop
  endfacet
  facet normal 1 0 0
    outer loop
      vertex 90 50 40
      vertex 90 0 42
      vertex 90 0 40
    endloop
  endfacet
  facet normal -0 0 1
    outer loop
      vertex 0 50 42
      vertex 90 0 42
      vertex 90 50 42
    endloop
  endfacet
  facet normal 0 0 1
    outer loop
      vertex 90 0 42
      vertex 0 50 42
      vertex 0 0 42
    endloop
  endfacet
  facet normal 0 0 -1
    outer loop
      vertex 0 0.850651 40
      vertex 5 24 40
      vertex 0.309016 0.951056 40
    endloop
  endfacet
  facet normal 0 0 -1
    outer loop
      vertex 5 24 40
      vertex 0.309016 47.0489 40
      vertex 1 48 40
    endloop
  endfacet
  facet normal 0 0 -1
    outer loop
      vertex 0 47.1493 40
      vertex 5 24 40
      vertex 0 0.850651 40
    endloop
  endfacet
  facet normal 0 0 -1
    outer loop
      vertex 5 24 40
      vertex 0 47.1493 40
      vertex 0.309016 47.0489 40
    endloop
  endfacet
  facet normal 0 0 -1
    outer loop
      vertex 1 0 40
      vertex 87.191 0.587785 40
      vertex 87.191 0 40
    endloop
  endfacet
  facet normal 0 0 -1
    outer loop
      vertex 87.191 0.587785 40
      vertex 85 24 40
      vertex 87.191 47.4122 40
    endloop
  endfacet
  facet normal 0 0 -1
    outer loop
      vertex 85 26 40
      vertex 87.191 47.4122 40
      vertex 85 24 40
    endloop
  endfacet
  facet normal 0 0 -1
    outer loop
      vertex 87.191 0.587785 40
      vertex 5 24 40
      vertex 85 24 40
    endloop
  endfacet
  facet normal 0 0 -1
    outer loop
      vertex 0.309016 0.951056 40
      vertex 5 24 40
      vertex 1 0 40
    endloop
  endfacet
  facet normal -0 0 -1
    outer loop
      vertex 87.191 0.587785 40
      vertex 1 0 40
      vertex 5 24 40
    endloop
  endfacet
  facet normal 0 0 -1
    outer loop
      vertex 88.309 47.0489 40
      vertex 90 0 40
      vertex 88.309 0.951056 40
    endloop
  endfacet
  facet normal 0 0 -1
    outer loop
      vertex 90 0 40
      vertex 88.309 47.0489 40
      vertex 89 48 40
    endloop
  endfacet
  facet normal 0 0 -1
    outer loop
      vertex 87.191 0.587785 40
      vertex 88.309 47.0489 40
      vertex 88.309 0.951056 40
    endloop
  endfacet
  facet normal -0 0 -1
    outer loop
      vertex 88.309 47.0489 40
      vertex 87.191 0.587785 40
      vertex 87.191 47.4122 40
    endloop
  endfacet
  facet normal 0 0 -1
    outer loop
      vertex 88.309 0.951056 40
      vertex 90 0 40
      vertex 89 0 40
    endloop
  endfacet
  facet normal 0 0 -1
    outer loop
      vertex 90 0 40
      vertex 89 48 40
      vertex 90 50 40
    endloop
  endfacet
  facet normal 0 0 -1
    outer loop
      vertex 88.309 48.9511 40
      vertex 90 50 40
      vertex 89 48 40
    endloop
  endfacet
  facet normal 0 0 -1
    outer loop
      vertex 87.191 48.5878 40
      vertex 90 50 40
      vertex 88.309 48.9511 40
    endloop
  endfacet
  facet normal 0 0 -1
    outer loop
      vertex 5 26 40
      vertex 87.191 47.4122 40
      vertex 85 26 40
    endloop
  endfacet
  facet normal 0 0 -1
    outer loop
      vertex 1 48 40
      vertex 87.191 47.4122 40
      vertex 5 26 40
    endloop
  endfacet
  facet normal 0 0 -1
    outer loop
      vertex 87.191 47.4122 40
      vertex 1 48 40
      vertex 87.191 48.5878 40
    endloop
  endfacet
  facet normal 0 0 -1
    outer loop
      vertex 5 24 40
      vertex 1 48 40
      vertex 5 26 40
    endloop
  endfacet
  facet normal 0 0 -1
    outer loop
      vertex 0 50 40
      vertex 87.191 48.5878 40
      vertex 1 48 40
    endloop
  endfacet
  facet normal 0 0 -1
    outer loop
      vertex 0 50 40
      vertex 1 48 40
      vertex 0.309016 48.9511 40
    endloop
  endfacet
  facet normal 0 0 -1
    outer loop
      vertex 87.191 48.5878 40
      vertex 0 50 40
      vertex 90 50 40
    endloop
  endfacet
  facet normal 0 0 -1
    outer loop
      vertex 0 50 40
      vertex 0.309016 48.9511 40
      vertex 0 48.8507 40
    endloop
  endfacet
  facet normal 0 0 1
    outer loop
      vertex 0 0.850651 40
      vertex -0.809016 0.587785 40
      vertex 0 0 40
    endloop
  endfacet
  facet normal -0 0 1
    outer loop
      vertex 0 0 40
      vertex 0.309016 -0.951056 40
      vertex 1 0 40
    endloop
  endfacet
  facet normal 0 0 1
    outer loop
      vertex -0.809016 -0.587785 40
      vertex 0 0 40
      vertex -0.809016 0.587785 40
    endloop
  endfacet
  facet normal 0 0 1
    outer loop
      vertex 0 0 40
      vertex -0.809016 -0.587785 40
      vertex 0.309016 -0.951056 40
    endloop
  endfacet
  facet normal -0 0 1
    outer loop
      vertex -0.809016 48.5878 40
      vertex 0 47.1493 40
      vertex 0 48.8507 40
    endloop
  endfacet
  facet normal 0 0 1
    outer loop
      vertex 0 47.1493 40
      vertex -0.809016 48.5878 40
      vertex -0.809016 47.4122 40
    endloop
  endfacet
  facet normal -0 0 1
    outer loop
      vertex 87.191 0 40
      vertex 88.309 -0.951056 40
      vertex 89 0 40
    endloop
  endfacet
  facet normal 0 0 1
    outer loop
      vertex 88.309 -0.951056 40
      vertex 87.191 0 40
      vertex 87.191 -0.587785 40
    endloop
  endfacet
  facet normal -1 0 0
    outer loop
      vertex 0 48.8507 40
      vertex 0 50 42
      vertex 0 50 40
    endloop
  endfacet
  facet normal -1 0 0
    outer loop
      vertex 0 47.1493 40
      vertex 0 50 42
      vertex 0 48.8507 40
    endloop
  endfacet
  facet normal -1 0 0
    outer loop
      vertex 0 0 42
      vertex 0 47.1493 40
      vertex 0 0.850651 40
    endloop
  endfacet
  facet normal -1 0 0
    outer loop
      vertex 0 0 42
      vertex 0 0.850651 40
      vertex 0 0 40
    endloop
  endfacet
  facet normal -1 0 0
    outer loop
      vertex 0 47.1493 40
      vertex 0 0 42
      vertex 0 50 42
    endloop
  endfacet
  facet normal 0 1 -0
    outer loop
      vertex 90 50 40
      vertex 0 50 42
      vertex 90 50 42
    endloop
  endfacet
  facet normal 0 1 0
    outer loop
      vertex 0 50 42
      vertex 90 50 40
      vertex 0 50 40
    endloop
  endfacet
  facet normal 0 -1 0
    outer loop
      vertex 1 0 40
      vertex 0 0 42
      vertex 0 0 40
    endloop
  endfacet
  facet normal 0 -1 0
    outer loop
      vertex 87.191 0 40
      vertex 0 0 42
      vertex 1 0 40
    endloop
  endfacet
  facet normal 0 -1 0
    outer loop
      vertex 0 0 42
      vertex 87.191 0 40
      vertex 90 0 42
    endloop
  endfacet
  facet normal 0 -1 0
    outer loop
      vertex 89 0 40
      vertex 90 0 42
      vertex 87.191 0 40
    endloop
  endfacet
  facet normal 0 -1 -0
    outer loop
      vertex 90 0 42
      vertex 89 0 40
      vertex 90 0 40
    endloop
  endfacet
  facet normal 1 -0 0
    outer loop
      vertex 85 24 40
      vertex 85 26 38
      vertex 85 26 40
    endloop
  endfacet
  facet normal 1 0 0
    outer loop
      vertex 85 26 38
      vertex 85 24 40
      vertex 85 24 38
    endloop
  endfacet
  facet normal 0 0 -1
    outer loop
      vertex 5 24 38
      vertex 85 26 38
      vertex 85 24 38
    endloop
  endfacet
  facet normal -0 0 -1
    outer loop
      vertex 85 26 38
      vertex 5 24 38
      vertex 5 26 38
    endloop
  endfacet
  facet normal -1 0 0
    outer loop
      vertex 5 24 38
      vertex 5 26 40
      vertex 5 26 38
    endloop
  endfacet
  facet normal -1 -0 0
    outer loop
      vertex 5 26 40
      vertex 5 24 38
      vertex 5 24 40
    endloop
  endfacet
  facet normal 0 1 -0
    outer loop
      vertex 85 26 38
      vertex 5 26 40
      vertex 85 26 40
    endloop
  endfacet
  facet normal 0 1 0
    outer loop
      vertex 5 26 40
      vertex 85 26 38
      vertex 5 26 38
    endloop
  endfacet
  facet normal 0 -1 0
    outer loop
      vertex 5 24 38
      vertex 85 24 40
      vertex 5 24 40
    endloop
  endfacet
  facet normal 0 -1 -0
    outer loop
      vertex 85 24 40
      vertex 5 24 38
      vertex 85 24 38
    endloop
  endfacet
  facet normal 1 -0 0
    outer loop
      vertex 85 -24 40
      vertex 85 -22 38
      vertex 85 -22 40
    endloop
  endfacet
  facet normal 1 0 0
    outer loop
      vertex 85 -22 38
      vertex 85 -24 40
      vertex 85 -24 38
    endloop
  endfacet
  facet normal -0 0 1
    outer loop
      vertex 5 -22 40
      vertex 85 -24 40
      vertex 85 -22 40
    endloop
  endfacet
  facet normal 0 0 1
    outer loop
      vertex 85 -24 40
      vertex 5 -22 40
      vertex 5 -24 40
    endloop
  endfacet
  facet normal 0 0 -1
    outer loop
      vertex 5 -24 38
      vertex 85 -22 38
      vertex 85 -24 38
    endloop
  endfacet
  facet normal -0 0 -1
    outer loop
      vertex 85 -22 38
      vertex 5 -24 38
      vertex 5 -22 38
    endloop
  endfacet
  facet normal -1 0 0
    outer loop
      vertex 5 -24 38
      vertex 5 -22 40
      vertex 5 -22 38
    endloop
  endfacet
  facet normal -1 -0 0
    outer loop
      vertex 5 -22 40
      vertex 5 -24 38
      vertex 5 -24 40
    endloop
  endfacet
  facet normal 0 1 -0
    outer loop
      vertex 85 -22 38
      vertex 5 -22 40
      vertex 85 -22 40
    endloop
  endfacet
  facet normal 0 1 0
    outer loop
      vertex 5 -22 40
      vertex 85 -22 38
      vertex 5 -22 38
    endloop
  endfacet
  facet normal 0 -1 0
    outer loop
      vertex 5 -24 38
      vertex 85 -24 40
      vertex 5 -24 40
    endloop
  endfacet
  facet normal 0 -1 -0
    outer loop
      vertex 85 -24 40
      vertex 5 -24 38
      vertex 85 -24 38
    endloop
  endfacet
  facet normal -0.309017 -0.951056 0
    outer loop
      vertex -0.809016 -0.587785 0
      vertex 0.309016 -0.951056 40
      vertex -0.809016 -0.587785 40
    endloop
  endfacet
  facet normal -0.309017 -0.951056 -0
    outer loop
      vertex 0.309016 -0.951056 40
      vertex -0.809016 -0.587785 0
      vertex 0.309016 -0.951056 0
    endloop
  endfacet
  facet normal -0.309016 0.951057 0
    outer loop
      vertex 0.309016 0.951056 0
      vertex 0 0.850651 40
      vertex 0.309016 0.951056 40
    endloop
  endfacet
  facet normal -0.309018 0.951056 -1.61164e-08
    outer loop
      vertex 0 0.850651 40
      vertex 0.309016 0.951056 0
      vertex -0.809016 0.587785 40
    endloop
  endfacet
  facet normal -0.309017 0.951056 0
    outer loop
      vertex -0.809016 0.587785 40
      vertex 0.309016 0.951056 0
      vertex -0.809016 0.587785 0
    endloop
  endfacet
  facet normal 0.809016 0.587786 0
    outer loop
      vertex 1 0 40
      vertex 0.309016 0.951056 0
      vertex 0.309016 0.951056 40
    endloop
  endfacet
  facet normal 0.809016 0.587786 0
    outer loop
      vertex 0.309016 0.951056 0
      vertex 1 0 40
      vertex 1 0 0
    endloop
  endfacet
  facet normal -1 0 0
    outer loop
      vertex -0.809016 -0.587785 0
      vertex -0.809016 0.587785 40
      vertex -0.809016 0.587785 0
    endloop
  endfacet
  facet normal -1 -0 0
    outer loop
      vertex -0.809016 0.587785 40
      vertex -0.809016 -0.587785 0
      vertex -0.809016 -0.587785 40
    endloop
  endfacet
  facet normal 0.809016 -0.587786 0
    outer loop
      vertex 0.309016 -0.951056 40
      vertex 1 0 0
      vertex 1 0 40
    endloop
  endfacet
  facet normal 0.809016 -0.587786 0
    outer loop
      vertex 1 0 0
      vertex 0.309016 -0.951056 40
      vertex 0.309016 -0.951056 0
    endloop
  endfacet
  facet normal 0 0 -1
    outer loop
      vertex 0.309016 -0.951056 0
      vertex 0.309016 0.951056 0
      vertex 1 0 0
    endloop
  endfacet
  facet normal 0 0 -1
    outer loop
      vertex -0.809016 -0.587785 0
      vertex 0.309016 0.951056 0
      vertex 0.309016 -0.951056 0
    endloop
  endfacet
  facet normal 0 0 -1
    outer loop
      vertex 0.309016 0.951056 0
      vertex -0.809016 -0.587785 0
      vertex -0.809016 0.587785 0
    endloop
  endfacet
  facet normal -0.309025 -0.951054 0
    outer loop
      vertex 87.191 -0.587785 0
      vertex 88.309 -0.951056 40
      vertex 87.191 -0.587785 40
    endloop
  endfacet
  facet normal -0.309025 -0.951054 -0
    outer loop
      vertex 88.309 -0.951056 40
      vertex 87.191 -0.587785 0
      vertex 88.309 -0.951056 0
    endloop
  endfacet
  facet normal -0.309025 0.951054 0
    outer loop
      vertex 88.309 0.951056 0
      vertex 87.191 0.587785 40
      vertex 88.309 0.951056 40
    endloop
  endfacet
  facet normal -0.309025 0.951054 0
    outer loop
      vertex 87.191 0.587785 40
      vertex 88.309 0.951056 0
      vertex 87.191 0.587785 0
    endloop
  endfacet
  facet normal 0.80901 0.587795 0
    outer loop
      vertex 89 0 40
      vertex 88.309 0.951056 0
      vertex 88.309 0.951056 40
    endloop
  endfacet
  facet normal 0.80901 0.587795 0
    outer loop
      vertex 88.309 0.951056 0
      vertex 89 0 40
      vertex 89 0 0
    endloop
  endfacet
  facet normal -1 0 0
    outer loop
      vertex 87.191 0.587785 0
      vertex 87.191 0 40
      vertex 87.191 0.587785 40
    endloop
  endfacet
  facet normal -1 0 0
    outer loop
      vertex 87.191 -0.587785 0
      vertex 87.191 0 40
      vertex 87.191 0.587785 0
    endloop
  endfacet
  facet normal -1 -0 0
    outer loop
      vertex 87.191 0 40
      vertex 87.191 -0.587785 0
      vertex 87.191 -0.587785 40
    endloop
  endfacet
  facet normal 0.80901 -0.587795 0
    outer loop
      vertex 88.309 -0.951056 40
      vertex 89 0 0
      vertex 89 0 40
    endloop
  endfacet
  facet normal 0.80901 -0.587795 0
    outer loop
      vertex 89 0 0
      vertex 88.309 -0.951056 40
      vertex 88.309 -0.951056 0
    endloop
  endfacet
  facet normal 0 0 -1
    outer loop
      vertex 88.309 -0.951056 0
      vertex 88.309 0.951056 0
      vertex 89 0 0
    endloop
  endfacet
  facet normal 0 0 -1
    outer loop
      vertex 87.191 -0.587785 0
      vertex 88.309 0.951056 0
      vertex 88.309 -0.951056 0
    endloop
  endfacet
  facet normal 0 0 -1
    outer loop
      vertex 88.309 0.951056 0
      vertex 87.191 -0.587785 0
      vertex 87.191 0.587785 0
    endloop
  endfacet
  facet normal -0.309054 -0.951045 0
    outer loop
      vertex -0.809016 47.4122 0
      vertex 0 47.1493 40
      vertex -0.809016 47.4122 40
    endloop
  endfacet
  facet normal -0.30904 -0.951049 -3.21119e-07
    outer loop
      vertex 0.309016 47.0489 0
      vertex 0 47.1493 40
      vertex -0.809016 47.4122 0
    endloop
  endfacet
  facet normal -0.309002 -0.951061 0
    outer loop
      vertex 0 47.1493 40
      vertex 0.309016 47.0489 0
      vertex 0.309016 47.0489 40
    endloop
  endfacet
  facet normal -0.309002 0.951061 0
    outer loop
      vertex 0.309016 48.9511 0
      vertex 0 48.8507 40
      vertex 0.309016 48.9511 40
    endloop
  endfacet
  facet normal -0.309054 0.951045 -4.43773e-07
    outer loop
      vertex 0 48.8507 40
      vertex 0.309016 48.9511 0
      vertex -0.809016 48.5878 40
    endloop
  endfacet
  facet normal -0.30904 0.951049 0
    outer loop
      vertex -0.809016 48.5878 40
      vertex 0.309016 48.9511 0
      vertex -0.809016 48.5878 0
    endloop
  endfacet
  facet normal 0.809029 0.587768 0
    outer loop
      vertex 1 48 40
      vertex 0.309016 48.9511 0
      vertex 0.309016 48.9511 40
    endloop
  endfacet
  facet normal 0.809029 0.587768 0
    outer loop
      vertex 0.309016 48.9511 0
      vertex 1 48 40
      vertex 1 48 0
    endloop
  endfacet
  facet normal -1 0 0
    outer loop
      vertex -0.809016 47.4122 0
      vertex -0.809016 48.5878 40
      vertex -0.809016 48.5878 0
    endloop
  endfacet
  facet normal -1 -0 0
    outer loop
      vertex -0.809016 48.5878 40
      vertex -0.809016 47.4122 0
      vertex -0.809016 47.4122 40
    endloop
  endfacet
  facet normal 0.809029 -0.587768 0
    outer loop
      vertex 0.309016 47.0489 40
      vertex 1 48 0
      vertex 1 48 40
    endloop
  endfacet
  facet normal 0.809029 -0.587768 0
    outer loop
      vertex 1 48 0
      vertex 0.309016 47.0489 40
      vertex 0.309016 47.0489 0
    endloop
  endfacet
  facet normal 0 0 -1
    outer loop
      vertex 0.309016 47.0489 0
      vertex 0.309016 48.9511 0
      vertex 1 48 0
    endloop
  endfacet
  facet normal 0 0 -1
    outer loop
      vertex -0.809016 47.4122 0
      vertex 0.309016 48.9511 0
      vertex 0.309016 47.0489 0
    endloop
  endfacet
  facet normal 0 0 -1
    outer loop
      vertex 0.309016 48.9511 0
      vertex -0.809016 47.4122 0
      vertex -0.809016 48.5878 0
    endloop
  endfacet
  facet normal -0.309048 -0.951047 0
    outer loop
      vertex 87.191 47.4122 0
      vertex 88.309 47.0489 40
      vertex 87.191 47.4122 40
    endloop
  endfacet
  facet normal -0.309048 -0.951047 -0
    outer loop
      vertex 88.309 47.0489 40
      vertex 87.191 47.4122 0
      vertex 88.309 47.0489 0
    endloop
  endfacet
  facet normal -0.309048 0.951047 0
    outer loop
      vertex 88.309 48.9511 0
      vertex 87.191 48.5878 40
      vertex 88.309 48.9511 40
    endloop
  endfacet
  facet normal -0.309048 0.951047 0
    outer loop
      vertex 87.191 48.5878 40
      vertex 88.309 48.9511 0
      vertex 87.191 48.5878 0
    endloop
  endfacet
  facet normal 0.809023 0.587777 0
    outer loop
      vertex 89 48 40
      vertex 88.309 48.9511 0
      vertex 88.309 48.9511 40
    endloop
  endfacet
  facet normal 0.809023 0.587777 0
    outer loop
      vertex 88.309 48.9511 0
      vertex 89 48 40
      vertex 89 48 0
    endloop
  endfacet
  facet normal -1 0 0
    outer loop
      vertex 87.191 47.4122 0
      vertex 87.191 48.5878 40
      vertex 87.191 48.5878 0
    endloop
  endfacet
  facet normal -1 -0 0
    outer loop
      vertex 87.191 48.5878 40
      vertex 87.191 47.4122 0
      vertex 87.191 47.4122 40
    endloop
  endfacet
  facet normal 0.809023 -0.587777 0
    outer loop
      vertex 88.309 47.0489 40
      vertex 89 48 0
      vertex 89 48 40
    endloop
  endfacet
  facet normal 0.809023 -0.587777 0
    outer loop
      vertex 89 48 0
      vertex 88.309 47.0489 40
      vertex 88.309 47.0489 0
    endloop
  endfacet
  facet normal 0 0 -1
    outer loop
      vertex 88.309 47.0489 0
      vertex 88.309 48.9511 0
      vertex 89 48 0
    endloop
  endfacet
  facet normal 0 0 -1
    outer loop
      vertex 87.191 47.4122 0
      vertex 88.309 48.9511 0
      vertex 88.309 47.0489 0
    endloop
  endfacet
  facet normal 0 0 -1
    outer loop
      vertex 88.309 48.9511 0
      vertex 87.191 47.4122 0
      vertex 87.191 48.5878 0
    endloop
  endfacet
endsolid OpenSCAD_Model
