solid OpenSCAD_Model
  facet normal 1 -0 0
    outer loop
      vertex 15 -6 2.5
      vertex 15 6 -2.5
      vertex 15 6 2.5
    endloop
  endfacet
  facet normal 1 0 0
    outer loop
      vertex 15 6 -2.5
      vertex 15 -6 2.5
      vertex 15 -6 -2.5
    endloop
  endfacet
  facet normal 0 0 1
    outer loop
      vertex 15 6 2.5
      vertex 14.5 1.53884 2.5
      vertex 15 -6 2.5
    endloop
  endfacet
  facet normal 0 0 1
    outer loop
      vertex 15 6 2.5
      vertex 9.5 1.53884 2.5
      vertex 14.5 1.53884 2.5
    endloop
  endfacet
  facet normal 0 0 1
    outer loop
      vertex 9.5 1.53884 2.5
      vertex -9.5 1.53884 2.5
      vertex 9.5 -1.53884 2.5
    endloop
  endfacet
  facet normal 0 0 1
    outer loop
      vertex 15 6 2.5
      vertex -9.5 1.53884 2.5
      vertex 9.5 1.53884 2.5
    endloop
  endfacet
  facet normal -0 0 1
    outer loop
      vertex -15 6 2.5
      vertex -9.5 1.53884 2.5
      vertex 15 6 2.5
    endloop
  endfacet
  facet normal 0 0 1
    outer loop
      vertex -14.5 1.53884 2.5
      vertex -15 6 2.5
      vertex -14.5 -1.53884 2.5
    endloop
  endfacet
  facet normal 0 0 1
    outer loop
      vertex -9.5 1.53884 2.5
      vertex -15 6 2.5
      vertex -14.5 1.53884 2.5
    endloop
  endfacet
  facet normal -0 0 1
    outer loop
      vertex 14.5 -1.53884 2.5
      vertex 15 -6 2.5
      vertex 14.5 1.53884 2.5
    endloop
  endfacet
  facet normal -0 0 1
    outer loop
      vertex 9.5 -1.53884 2.5
      vertex 15 -6 2.5
      vertex 14.5 -1.53884 2.5
    endloop
  endfacet
  facet normal 0 0 1
    outer loop
      vertex -9.5 -1.53884 2.5
      vertex 9.5 -1.53884 2.5
      vertex -9.5 1.53884 2.5
    endloop
  endfacet
  facet normal 0 0 1
    outer loop
      vertex 9.5 -1.53884 2.5
      vertex -9.5 -1.53884 2.5
      vertex 15 -6 2.5
    endloop
  endfacet
  facet normal 0 0 1
    outer loop
      vertex -15 -6 2.5
      vertex -9.5 -1.53884 2.5
      vertex -14.5 -1.53884 2.5
    endloop
  endfacet
  facet normal 0 0 1
    outer loop
      vertex -9.5 -1.53884 2.5
      vertex -15 -6 2.5
      vertex 15 -6 2.5
    endloop
  endfacet
  facet normal 0 0 1
    outer loop
      vertex -15 -6 2.5
      vertex -14.5 -1.53884 2.5
      vertex -15 6 2.5
    endloop
  endfacet
  facet normal 0 0 -1
    outer loop
      vertex 15 -6 -2.5
      vertex 14.5 -1.53884 -2.5
      vertex 15 6 -2.5
    endloop
  endfacet
  facet normal 0 0 -1
    outer loop
      vertex 15 -6 -2.5
      vertex 9.5 -1.53884 -2.5
      vertex 14.5 -1.53884 -2.5
    endloop
  endfacet
  facet normal 0 0 -1
    outer loop
      vertex 9.5 -1.53884 -2.5
      vertex -9.5 -1.53884 -2.5
      vertex 9.5 1.53884 -2.5
    endloop
  endfacet
  facet normal 0 0 -1
    outer loop
      vertex 15 -6 -2.5
      vertex -9.5 -1.53884 -2.5
      vertex 9.5 -1.53884 -2.5
    endloop
  endfacet
  facet normal 0 0 -1
    outer loop
      vertex -15 -6 -2.5
      vertex -9.5 -1.53884 -2.5
      vertex 15 -6 -2.5
    endloop
  endfacet
  facet normal -0 0 -1
    outer loop
      vertex -14.5 -1.53884 -2.5
      vertex -15 -6 -2.5
      vertex -14.5 1.53884 -2.5
    endloop
  endfacet
  facet normal -0 0 -1
    outer loop
      vertex -9.5 -1.53884 -2.5
      vertex -15 -6 -2.5
      vertex -14.5 -1.53884 -2.5
    endloop
  endfacet
  facet normal 0 0 -1
    outer loop
      vertex 14.5 1.53884 -2.5
      vertex 15 6 -2.5
      vertex 14.5 -1.53884 -2.5
    endloop
  endfacet
  facet normal 0 0 -1
    outer loop
      vertex 9.5 1.53884 -2.5
      vertex 15 6 -2.5
      vertex 14.5 1.53884 -2.5
    endloop
  endfacet
  facet normal 0 0 -1
    outer loop
      vertex -9.5 1.53884 -2.5
      vertex 9.5 1.53884 -2.5
      vertex -9.5 -1.53884 -2.5
    endloop
  endfacet
  facet normal 0 0 -1
    outer loop
      vertex 9.5 1.53884 -2.5
      vertex -9.5 1.53884 -2.5
      vertex 15 6 -2.5
    endloop
  endfacet
  facet normal 0 0 -1
    outer loop
      vertex -15 6 -2.5
      vertex -9.5 1.53884 -2.5
      vertex -14.5 1.53884 -2.5
    endloop
  endfacet
  facet normal 0 0 -1
    outer loop
      vertex -9.5 1.53884 -2.5
      vertex -15 6 -2.5
      vertex 15 6 -2.5
    endloop
  endfacet
  facet normal 0 0 -1
    outer loop
      vertex -15 6 -2.5
      vertex -14.5 1.53884 -2.5
      vertex -15 -6 -2.5
    endloop
  endfacet
  facet normal -1 0 0
    outer loop
      vertex -15 -6 -2.5
      vertex -15 6 2.5
      vertex -15 6 -2.5
    endloop
  endfacet
  facet normal -1 -0 0
    outer loop
      vertex -15 6 2.5
      vertex -15 -6 -2.5
      vertex -15 -6 2.5
    endloop
  endfacet
  facet normal 0 1 -0
    outer loop
      vertex 15 6 -2.5
      vertex -15 6 2.5
      vertex 15 6 2.5
    endloop
  endfacet
  facet normal 0 1 0
    outer loop
      vertex -15 6 2.5
      vertex 15 6 -2.5
      vertex -15 6 -2.5
    endloop
  endfacet
  facet normal 0 -1 0
    outer loop
      vertex -15 -6 -2.5
      vertex 15 -6 2.5
      vertex -15 -6 2.5
    endloop
  endfacet
  facet normal 0 -1 -0
    outer loop
      vertex 15 -6 2.5
      vertex -15 -6 -2.5
      vertex 15 -6 -2.5
    endloop
  endfacet
  facet normal 0 0.809018 -0.587784
    outer loop
      vertex 14.5 -2.85317 0.927051
      vertex 9.5 -1.76336 2.42705
      vertex 14.5 -1.76336 2.42705
    endloop
  endfacet
  facet normal 0 0.809018 -0.587784
    outer loop
      vertex 9.5 -1.76336 2.42705
      vertex 14.5 -2.85317 0.927051
      vertex 9.5 -2.85317 0.927051
    endloop
  endfacet
  facet normal 0 0.309013 -0.951058
    outer loop
      vertex 9.5 -1.76336 2.42705
      vertex 14.5 -1.53884 2.5
      vertex 14.5 -1.76336 2.42705
    endloop
  endfacet
  facet normal 0 0.309013 -0.951058
    outer loop
      vertex 14.5 -1.53884 2.5
      vertex 9.5 -1.76336 2.42705
      vertex 9.5 -1.53884 2.5
    endloop
  endfacet
  facet normal 0 -1 0
    outer loop
      vertex 9.5 2.85317 -0.927051
      vertex 14.5 2.85317 0.927051
      vertex 9.5 2.85317 0.927051
    endloop
  endfacet
  facet normal 0 -1 -0
    outer loop
      vertex 14.5 2.85317 0.927051
      vertex 9.5 2.85317 -0.927051
      vertex 14.5 2.85317 -0.927051
    endloop
  endfacet
  facet normal 0 -0.309013 0.951058
    outer loop
      vertex 9.5 1.76336 -2.42705
      vertex 14.5 1.53884 -2.5
      vertex 14.5 1.76336 -2.42705
    endloop
  endfacet
  facet normal 0 -0.309013 0.951058
    outer loop
      vertex 14.5 1.53884 -2.5
      vertex 9.5 1.76336 -2.42705
      vertex 9.5 1.53884 -2.5
    endloop
  endfacet
  facet normal -0 0.309013 0.951058
    outer loop
      vertex 9.5 -1.53884 -2.5
      vertex 14.5 -1.76336 -2.42705
      vertex 14.5 -1.53884 -2.5
    endloop
  endfacet
  facet normal 0 0.309013 0.951058
    outer loop
      vertex 14.5 -1.76336 -2.42705
      vertex 9.5 -1.53884 -2.5
      vertex 9.5 -1.76336 -2.42705
    endloop
  endfacet
  facet normal 0 -0.809018 -0.587784
    outer loop
      vertex 9.5 2.85317 0.927051
      vertex 14.5 1.76336 2.42705
      vertex 9.5 1.76336 2.42705
    endloop
  endfacet
  facet normal 0 -0.809018 -0.587784
    outer loop
      vertex 14.5 1.76336 2.42705
      vertex 9.5 2.85317 0.927051
      vertex 14.5 2.85317 0.927051
    endloop
  endfacet
  facet normal -1 0 0
    outer loop
      vertex 14.5 1.53884 -2.5
      vertex 14.5 2.85317 -0.927051
      vertex 14.5 1.76336 -2.42705
    endloop
  endfacet
  facet normal -1 -0 0
    outer loop
      vertex 14.5 2.85317 -0.927051
      vertex 14.5 1.53884 -2.5
      vertex 14.5 2.85317 0.927051
    endloop
  endfacet
  facet normal -1 0 0
    outer loop
      vertex 14.5 1.53884 2.5
      vertex 14.5 2.85317 0.927051
      vertex 14.5 1.53884 -2.5
    endloop
  endfacet
  facet normal -1 0 0
    outer loop
      vertex 14.5 2.85317 0.927051
      vertex 14.5 1.53884 2.5
      vertex 14.5 1.76336 2.42705
    endloop
  endfacet
  facet normal -1 0 0
    outer loop
      vertex 14.5 -1.53884 -2.5
      vertex 14.5 1.53884 2.5
      vertex 14.5 1.53884 -2.5
    endloop
  endfacet
  facet normal -1 0 0
    outer loop
      vertex 14.5 -1.53884 -2.5
      vertex 14.5 -1.53884 2.5
      vertex 14.5 1.53884 2.5
    endloop
  endfacet
  facet normal -1 0 0
    outer loop
      vertex 14.5 -2.85317 -0.927051
      vertex 14.5 -1.53884 -2.5
      vertex 14.5 -1.76336 -2.42705
    endloop
  endfacet
  facet normal -1 0 0
    outer loop
      vertex 14.5 -1.53884 -2.5
      vertex 14.5 -2.85317 -0.927051
      vertex 14.5 -1.53884 2.5
    endloop
  endfacet
  facet normal -1 0 0
    outer loop
      vertex 14.5 -2.85317 0.927051
      vertex 14.5 -1.53884 2.5
      vertex 14.5 -2.85317 -0.927051
    endloop
  endfacet
  facet normal -1 0 0
    outer loop
      vertex 14.5 -1.53884 2.5
      vertex 14.5 -2.85317 0.927051
      vertex 14.5 -1.76336 2.42705
    endloop
  endfacet
  facet normal 0 -0.809018 0.587784
    outer loop
      vertex 9.5 1.76336 -2.42705
      vertex 14.5 2.85317 -0.927051
      vertex 9.5 2.85317 -0.927051
    endloop
  endfacet
  facet normal 0 -0.809018 0.587784
    outer loop
      vertex 14.5 2.85317 -0.927051
      vertex 9.5 1.76336 -2.42705
      vertex 14.5 1.76336 -2.42705
    endloop
  endfacet
  facet normal 0 1 -0
    outer loop
      vertex 14.5 -2.85317 -0.927051
      vertex 9.5 -2.85317 0.927051
      vertex 14.5 -2.85317 0.927051
    endloop
  endfacet
  facet normal 0 1 0
    outer loop
      vertex 9.5 -2.85317 0.927051
      vertex 14.5 -2.85317 -0.927051
      vertex 9.5 -2.85317 -0.927051
    endloop
  endfacet
  facet normal 1 0 0
    outer loop
      vertex 9.5 1.53884 2.5
      vertex 9.5 2.85317 0.927051
      vertex 9.5 1.76336 2.42705
    endloop
  endfacet
  facet normal 1 0 0
    outer loop
      vertex 9.5 2.85317 0.927051
      vertex 9.5 1.53884 2.5
      vertex 9.5 2.85317 -0.927051
    endloop
  endfacet
  facet normal 1 0 0
    outer loop
      vertex 9.5 1.53884 -2.5
      vertex 9.5 2.85317 -0.927051
      vertex 9.5 1.53884 2.5
    endloop
  endfacet
  facet normal 1 0 0
    outer loop
      vertex 9.5 2.85317 -0.927051
      vertex 9.5 1.53884 -2.5
      vertex 9.5 1.76336 -2.42705
    endloop
  endfacet
  facet normal 1 -0 0
    outer loop
      vertex 9.5 -1.53884 2.5
      vertex 9.5 1.53884 -2.5
      vertex 9.5 1.53884 2.5
    endloop
  endfacet
  facet normal 1 0 0
    outer loop
      vertex 9.5 -1.53884 2.5
      vertex 9.5 -1.53884 -2.5
      vertex 9.5 1.53884 -2.5
    endloop
  endfacet
  facet normal 1 0 0
    outer loop
      vertex 9.5 -2.85317 0.927051
      vertex 9.5 -1.53884 2.5
      vertex 9.5 -1.76336 2.42705
    endloop
  endfacet
  facet normal 1 0 0
    outer loop
      vertex 9.5 -1.53884 2.5
      vertex 9.5 -2.85317 0.927051
      vertex 9.5 -1.53884 -2.5
    endloop
  endfacet
  facet normal 1 -0 0
    outer loop
      vertex 9.5 -2.85317 -0.927051
      vertex 9.5 -1.53884 -2.5
      vertex 9.5 -2.85317 0.927051
    endloop
  endfacet
  facet normal 1 0 0
    outer loop
      vertex 9.5 -1.53884 -2.5
      vertex 9.5 -2.85317 -0.927051
      vertex 9.5 -1.76336 -2.42705
    endloop
  endfacet
  facet normal 0 0.809018 0.587784
    outer loop
      vertex 14.5 -1.76336 -2.42705
      vertex 9.5 -2.85317 -0.927051
      vertex 14.5 -2.85317 -0.927051
    endloop
  endfacet
  facet normal 0 0.809018 0.587784
    outer loop
      vertex 9.5 -2.85317 -0.927051
      vertex 14.5 -1.76336 -2.42705
      vertex 9.5 -1.76336 -2.42705
    endloop
  endfacet
  facet normal 0 -0.309013 -0.951058
    outer loop
      vertex 9.5 1.53884 2.5
      vertex 14.5 1.76336 2.42705
      vertex 14.5 1.53884 2.5
    endloop
  endfacet
  facet normal -0 -0.309013 -0.951058
    outer loop
      vertex 14.5 1.76336 2.42705
      vertex 9.5 1.53884 2.5
      vertex 9.5 1.76336 2.42705
    endloop
  endfacet
  facet normal 0 0.809018 -0.587784
    outer loop
      vertex -9.5 -2.85317 0.927051
      vertex -14.5 -1.76336 2.42705
      vertex -9.5 -1.76336 2.42705
    endloop
  endfacet
  facet normal 0 0.809018 -0.587784
    outer loop
      vertex -14.5 -1.76336 2.42705
      vertex -9.5 -2.85317 0.927051
      vertex -14.5 -2.85317 0.927051
    endloop
  endfacet
  facet normal 0 0.309013 -0.951058
    outer loop
      vertex -14.5 -1.76336 2.42705
      vertex -9.5 -1.53884 2.5
      vertex -9.5 -1.76336 2.42705
    endloop
  endfacet
  facet normal 0 0.309013 -0.951058
    outer loop
      vertex -9.5 -1.53884 2.5
      vertex -14.5 -1.76336 2.42705
      vertex -14.5 -1.53884 2.5
    endloop
  endfacet
  facet normal 0 -1 0
    outer loop
      vertex -14.5 2.85317 -0.927051
      vertex -9.5 2.85317 0.927051
      vertex -14.5 2.85317 0.927051
    endloop
  endfacet
  facet normal 0 -1 -0
    outer loop
      vertex -9.5 2.85317 0.927051
      vertex -14.5 2.85317 -0.927051
      vertex -9.5 2.85317 -0.927051
    endloop
  endfacet
  facet normal 0 -0.309013 0.951058
    outer loop
      vertex -14.5 1.76336 -2.42705
      vertex -9.5 1.53884 -2.5
      vertex -9.5 1.76336 -2.42705
    endloop
  endfacet
  facet normal 0 -0.309013 0.951058
    outer loop
      vertex -9.5 1.53884 -2.5
      vertex -14.5 1.76336 -2.42705
      vertex -14.5 1.53884 -2.5
    endloop
  endfacet
  facet normal 0 0.809018 0.587784
    outer loop
      vertex -9.5 -1.76336 -2.42705
      vertex -14.5 -2.85317 -0.927051
      vertex -9.5 -2.85317 -0.927051
    endloop
  endfacet
  facet normal 0 0.809018 0.587784
    outer loop
      vertex -14.5 -2.85317 -0.927051
      vertex -9.5 -1.76336 -2.42705
      vertex -14.5 -1.76336 -2.42705
    endloop
  endfacet
  facet normal -0 0.309013 0.951058
    outer loop
      vertex -14.5 -1.53884 -2.5
      vertex -9.5 -1.76336 -2.42705
      vertex -9.5 -1.53884 -2.5
    endloop
  endfacet
  facet normal 0 0.309013 0.951058
    outer loop
      vertex -9.5 -1.76336 -2.42705
      vertex -14.5 -1.53884 -2.5
      vertex -14.5 -1.76336 -2.42705
    endloop
  endfacet
  facet normal 0 -0.809018 -0.587784
    outer loop
      vertex -14.5 2.85317 0.927051
      vertex -9.5 1.76336 2.42705
      vertex -14.5 1.76336 2.42705
    endloop
  endfacet
  facet normal 0 -0.809018 -0.587784
    outer loop
      vertex -9.5 1.76336 2.42705
      vertex -14.5 2.85317 0.927051
      vertex -9.5 2.85317 0.927051
    endloop
  endfacet
  facet normal -1 0 0
    outer loop
      vertex -9.5 1.53884 -2.5
      vertex -9.5 2.85317 -0.927051
      vertex -9.5 1.76336 -2.42705
    endloop
  endfacet
  facet normal -1 -0 0
    outer loop
      vertex -9.5 2.85317 -0.927051
      vertex -9.5 1.53884 -2.5
      vertex -9.5 2.85317 0.927051
    endloop
  endfacet
  facet normal -1 0 0
    outer loop
      vertex -9.5 1.53884 2.5
      vertex -9.5 2.85317 0.927051
      vertex -9.5 1.53884 -2.5
    endloop
  endfacet
  facet normal -1 0 0
    outer loop
      vertex -9.5 2.85317 0.927051
      vertex -9.5 1.53884 2.5
      vertex -9.5 1.76336 2.42705
    endloop
  endfacet
  facet normal -1 0 0
    outer loop
      vertex -9.5 -1.53884 -2.5
      vertex -9.5 1.53884 2.5
      vertex -9.5 1.53884 -2.5
    endloop
  endfacet
  facet normal -1 0 0
    outer loop
      vertex -9.5 -1.53884 -2.5
      vertex -9.5 -1.53884 2.5
      vertex -9.5 1.53884 2.5
    endloop
  endfacet
  facet normal -1 0 0
    outer loop
      vertex -9.5 -2.85317 -0.927051
      vertex -9.5 -1.53884 -2.5
      vertex -9.5 -1.76336 -2.42705
    endloop
  endfacet
  facet normal -1 0 0
    outer loop
      vertex -9.5 -1.53884 -2.5
      vertex -9.5 -2.85317 -0.927051
      vertex -9.5 -1.53884 2.5
    endloop
  endfacet
  facet normal -1 0 0
    outer loop
      vertex -9.5 -2.85317 0.927051
      vertex -9.5 -1.53884 2.5
      vertex -9.5 -2.85317 -0.927051
    endloop
  endfacet
  facet normal -1 0 0
    outer loop
      vertex -9.5 -1.53884 2.5
      vertex -9.5 -2.85317 0.927051
      vertex -9.5 -1.76336 2.42705
    endloop
  endfacet
  facet normal 0 -0.809018 0.587784
    outer loop
      vertex -14.5 1.76336 -2.42705
      vertex -9.5 2.85317 -0.927051
      vertex -14.5 2.85317 -0.927051
    endloop
  endfacet
  facet normal 0 -0.809018 0.587784
    outer loop
      vertex -9.5 2.85317 -0.927051
      vertex -14.5 1.76336 -2.42705
      vertex -9.5 1.76336 -2.42705
    endloop
  endfacet
  facet normal 0 1 -0
    outer loop
      vertex -9.5 -2.85317 -0.927051
      vertex -14.5 -2.85317 0.927051
      vertex -9.5 -2.85317 0.927051
    endloop
  endfacet
  facet normal 0 1 0
    outer loop
      vertex -14.5 -2.85317 0.927051
      vertex -9.5 -2.85317 -0.927051
      vertex -14.5 -2.85317 -0.927051
    endloop
  endfacet
  facet normal 1 0 0
    outer loop
      vertex -14.5 1.53884 2.5
      vertex -14.5 2.85317 0.927051
      vertex -14.5 1.76336 2.42705
    endloop
  endfacet
  facet normal 1 0 0
    outer loop
      vertex -14.5 2.85317 0.927051
      vertex -14.5 1.53884 2.5
      vertex -14.5 2.85317 -0.927051
    endloop
  endfacet
  facet normal 1 0 0
    outer loop
      vertex -14.5 1.53884 -2.5
      vertex -14.5 2.85317 -0.927051
      vertex -14.5 1.53884 2.5
    endloop
  endfacet
  facet normal 1 0 0
    outer loop
      vertex -14.5 2.85317 -0.927051
      vertex -14.5 1.53884 -2.5
      vertex -14.5 1.76336 -2.42705
    endloop
  endfacet
  facet normal 1 -0 0
    outer loop
      vertex -14.5 -1.53884 2.5
      vertex -14.5 1.53884 -2.5
      vertex -14.5 1.53884 2.5
    endloop
  endfacet
  facet normal 1 0 0
    outer loop
      vertex -14.5 -1.53884 2.5
      vertex -14.5 -1.53884 -2.5
      vertex -14.5 1.53884 -2.5
    endloop
  endfacet
  facet normal 1 0 0
    outer loop
      vertex -14.5 -2.85317 0.927051
      vertex -14.5 -1.53884 2.5
      vertex -14.5 -1.76336 2.42705
    endloop
  endfacet
  facet normal 1 0 0
    outer loop
      vertex -14.5 -1.53884 2.5
      vertex -14.5 -2.85317 0.927051
      vertex -14.5 -1.53884 -2.5
    endloop
  endfacet
  facet normal 1 -0 0
    outer loop
      vertex -14.5 -2.85317 -0.927051
      vertex -14.5 -1.53884 -2.5
      vertex -14.5 -2.85317 0.927051
    endloop
  endfacet
  facet normal 1 0 0
    outer loop
      vertex -14.5 -1.53884 -2.5
      vertex -14.5 -2.85317 -0.927051
      vertex -14.5 -1.76336 -2.42705
    endloop
  endfacet
  facet normal 0 -0.309013 -0.951058
    outer loop
      vertex -14.5 1.53884 2.5
      vertex -9.5 1.76336 2.42705
      vertex -9.5 1.53884 2.5
    endloop
  endfacet
  facet normal -0 -0.309013 -0.951058
    outer loop
      vertex -9.5 1.76336 2.42705
      vertex -14.5 1.53884 2.5
      vertex -14.5 1.76336 2.42705
    endloop
  endfacet
endsolid OpenSCAD_Model
