solid OpenSCAD_Model
  facet normal 0 -1 0
    outer loop
      vertex -3 -5.19615 0
      vertex 3 -5.19615 5
      vertex -3 -5.19615 5
    endloop
  endfacet
  facet normal 0 -1 -0
    outer loop
      vertex 3 -5.19615 5
      vertex -3 -5.19615 0
      vertex 3 -5.19615 0
    endloop
  endfacet
  facet normal 0.866025 -0.5 0
    outer loop
      vertex 3 -5.19615 5
      vertex 6 0 0
      vertex 6 0 5
    endloop
  endfacet
  facet normal 0.866025 -0.5 0
    outer loop
      vertex 6 0 0
      vertex 3 -5.19615 5
      vertex 3 -5.19615 0
    endloop
  endfacet
  facet normal 0 1 -0
    outer loop
      vertex 3 5.19615 0
      vertex -3 5.19615 5
      vertex 3 5.19615 5
    endloop
  endfacet
  facet normal 0 1 0
    outer loop
      vertex -3 5.19615 5
      vertex 3 5.19615 0
      vertex -3 5.19615 0
    endloop
  endfacet
  facet normal 0.866025 0.5 0
    outer loop
      vertex 6 0 5
      vertex 3 5.19615 0
      vertex 3 5.19615 5
    endloop
  endfacet
  facet normal 0.866025 0.5 0
    outer loop
      vertex 3 5.19615 0
      vertex 6 0 5
      vertex 6 0 0
    endloop
  endfacet
  facet normal -0.866025 0.5 0
    outer loop
      vertex -6 0 0
      vertex -3 5.19615 5
      vertex -3 5.19615 0
    endloop
  endfacet
  facet normal -0.866025 0.5 0
    outer loop
      vertex -3 5.19615 5
      vertex -6 0 0
      vertex -6 0 5
    endloop
  endfacet
  facet normal -0.866025 -0.5 0
    outer loop
      vertex -3 -5.19615 0
      vertex -6 0 5
      vertex -6 0 0
    endloop
  endfacet
  facet normal -0.866025 -0.5 0
    outer loop
      vertex -6 0 5
      vertex -3 -5.19615 0
      vertex -3 -5.19615 5
    endloop
  endfacet
  facet normal 0 0 1
    outer loop
      vertex 6 0 5
      vertex 2.99408 0.188371 5
      vertex 3 0 5
    endloop
  endfacet
  facet normal 0 0 1
    outer loop
      vertex 6 0 5
      vertex 2.97634 0.375999 5
      vertex 2.99408 0.188371 5
    endloop
  endfacet
  facet normal 0 0 1
    outer loop
      vertex 6 0 5
      vertex 2.94686 0.562143 5
      vertex 2.97634 0.375999 5
    endloop
  endfacet
  facet normal 0 0 1
    outer loop
      vertex 6 0 5
      vertex 2.90575 0.746069 5
      vertex 2.94686 0.562143 5
    endloop
  endfacet
  facet normal 0 0 1
    outer loop
      vertex 6 0 5
      vertex 2.85317 0.927051 5
      vertex 2.90575 0.746069 5
    endloop
  endfacet
  facet normal 0 0 1
    outer loop
      vertex 6 0 5
      vertex 2.78933 1.10437 5
      vertex 2.85317 0.927051 5
    endloop
  endfacet
  facet normal 0 0 1
    outer loop
      vertex 6 0 5
      vertex 2.71448 1.27734 5
      vertex 2.78933 1.10437 5
    endloop
  endfacet
  facet normal 0 0 1
    outer loop
      vertex 6 0 5
      vertex 2.62892 1.44526 5
      vertex 2.71448 1.27734 5
    endloop
  endfacet
  facet normal 0 0 1
    outer loop
      vertex 3 5.19615 5
      vertex 2.53298 1.60748 5
      vertex 2.62892 1.44526 5
    endloop
  endfacet
  facet normal 0 0 1
    outer loop
      vertex 3 5.19615 5
      vertex 2.42705 1.76336 5
      vertex 2.53298 1.60748 5
    endloop
  endfacet
  facet normal 0 0 1
    outer loop
      vertex 3 5.19615 5
      vertex 2.31154 1.91227 5
      vertex 2.42705 1.76336 5
    endloop
  endfacet
  facet normal 0 0 1
    outer loop
      vertex 3 5.19615 5
      vertex 2.18691 2.05364 5
      vertex 2.31154 1.91227 5
    endloop
  endfacet
  facet normal 0 0 1
    outer loop
      vertex 3 5.19615 5
      vertex 2.05364 2.18691 5
      vertex 2.18691 2.05364 5
    endloop
  endfacet
  facet normal 0 0 1
    outer loop
      vertex 3 5.19615 5
      vertex 1.91227 2.31154 5
      vertex 2.05364 2.18691 5
    endloop
  endfacet
  facet normal 0 0 1
    outer loop
      vertex 3 5.19615 5
      vertex 1.76336 2.42705 5
      vertex 1.91227 2.31154 5
    endloop
  endfacet
  facet normal 0 0 1
    outer loop
      vertex 3 5.19615 5
      vertex 1.60748 2.53298 5
      vertex 1.76336 2.42705 5
    endloop
  endfacet
  facet normal 0 0 1
    outer loop
      vertex 3 5.19615 5
      vertex 1.44526 2.62892 5
      vertex 1.60748 2.53298 5
    endloop
  endfacet
  facet normal 0 0 1
    outer loop
      vertex 3 5.19615 5
      vertex 1.27734 2.71448 5
      vertex 1.44526 2.62892 5
    endloop
  endfacet
  facet normal 0 0 1
    outer loop
      vertex 3 5.19615 5
      vertex 1.10437 2.78933 5
      vertex 1.27734 2.71448 5
    endloop
  endfacet
  facet normal 0 0 1
    outer loop
      vertex 3 5.19615 5
      vertex 0.927051 2.85317 5
      vertex 1.10437 2.78933 5
    endloop
  endfacet
  facet normal 0 0 1
    outer loop
      vertex 3 5.19615 5
      vertex 0.746069 2.90575 5
      vertex 0.927051 2.85317 5
    endloop
  endfacet
  facet normal 0 0 1
    outer loop
      vertex 3 5.19615 5
      vertex 0.562143 2.94686 5
      vertex 0.746069 2.90575 5
    endloop
  endfacet
  facet normal 0 0 1
    outer loop
      vertex 3 5.19615 5
      vertex 0.375999 2.97634 5
      vertex 0.562143 2.94686 5
    endloop
  endfacet
  facet normal 0 0 1
    outer loop
      vertex 3 5.19615 5
      vertex 0.188371 2.99408 5
      vertex 0.375999 2.97634 5
    endloop
  endfacet
  facet normal 0 0 1
    outer loop
      vertex 3 5.19615 5
      vertex 0 3 5
      vertex 0.188371 2.99408 5
    endloop
  endfacet
  facet normal -0 0 1
    outer loop
      vertex -3 5.19615 5
      vertex 0 3 5
      vertex 3 5.19615 5
    endloop
  endfacet
  facet normal 0 0 1
    outer loop
      vertex 0 3 5
      vertex -3 5.19615 5
      vertex -0.188371 2.99408 5
    endloop
  endfacet
  facet normal 0 0 1
    outer loop
      vertex -0.188371 2.99408 5
      vertex -3 5.19615 5
      vertex -0.375999 2.97634 5
    endloop
  endfacet
  facet normal 0 0 1
    outer loop
      vertex -0.375999 2.97634 5
      vertex -3 5.19615 5
      vertex -0.562143 2.94686 5
    endloop
  endfacet
  facet normal 0 0 1
    outer loop
      vertex -0.562143 2.94686 5
      vertex -3 5.19615 5
      vertex -0.746069 2.90575 5
    endloop
  endfacet
  facet normal 0 0 1
    outer loop
      vertex -0.746069 2.90575 5
      vertex -3 5.19615 5
      vertex -0.927051 2.85317 5
    endloop
  endfacet
  facet normal 0 0 1
    outer loop
      vertex -0.927051 2.85317 5
      vertex -3 5.19615 5
      vertex -1.10437 2.78933 5
    endloop
  endfacet
  facet normal 0 0 1
    outer loop
      vertex -1.10437 2.78933 5
      vertex -3 5.19615 5
      vertex -1.27734 2.71448 5
    endloop
  endfacet
  facet normal 0 0 1
    outer loop
      vertex -1.27734 2.71448 5
      vertex -3 5.19615 5
      vertex -1.44526 2.62892 5
    endloop
  endfacet
  facet normal 0 0 1
    outer loop
      vertex -3 5.19615 5
      vertex -1.60748 2.53298 5
      vertex -1.44526 2.62892 5
    endloop
  endfacet
  facet normal 0 0 1
    outer loop
      vertex -3 5.19615 5
      vertex -1.76336 2.42705 5
      vertex -1.60748 2.53298 5
    endloop
  endfacet
  facet normal 0 0 1
    outer loop
      vertex -3 5.19615 5
      vertex -1.91227 2.31154 5
      vertex -1.76336 2.42705 5
    endloop
  endfacet
  facet normal 0 0 1
    outer loop
      vertex -3 5.19615 5
      vertex -2.05364 2.18691 5
      vertex -1.91227 2.31154 5
    endloop
  endfacet
  facet normal 0 0 1
    outer loop
      vertex -3 5.19615 5
      vertex -2.18691 2.05364 5
      vertex -2.05364 2.18691 5
    endloop
  endfacet
  facet normal 0 0 1
    outer loop
      vertex -3 5.19615 5
      vertex -2.31154 1.91227 5
      vertex -2.18691 2.05364 5
    endloop
  endfacet
  facet normal 0 0 1
    outer loop
      vertex -3 5.19615 5
      vertex -2.42705 1.76336 5
      vertex -2.31154 1.91227 5
    endloop
  endfacet
  facet normal 0 0 1
    outer loop
      vertex -3 5.19615 5
      vertex -2.53298 1.60748 5
      vertex -2.42705 1.76336 5
    endloop
  endfacet
  facet normal 0 0 1
    outer loop
      vertex -3 5.19615 5
      vertex -2.62892 1.44526 5
      vertex -2.53298 1.60748 5
    endloop
  endfacet
  facet normal 0 0 1
    outer loop
      vertex -6 0 5
      vertex -2.62892 1.44526 5
      vertex -3 5.19615 5
    endloop
  endfacet
  facet normal 0 0 1
    outer loop
      vertex -2.62892 1.44526 5
      vertex -6 0 5
      vertex -2.71448 1.27734 5
    endloop
  endfacet
  facet normal 0 0 1
    outer loop
      vertex -2.71448 1.27734 5
      vertex -6 0 5
      vertex -2.78933 1.10437 5
    endloop
  endfacet
  facet normal 0 0 1
    outer loop
      vertex -2.78933 1.10437 5
      vertex -6 0 5
      vertex -2.85317 0.927051 5
    endloop
  endfacet
  facet normal 0 0 1
    outer loop
      vertex -2.85317 0.927051 5
      vertex -6 0 5
      vertex -2.90575 0.746069 5
    endloop
  endfacet
  facet normal 0 0 1
    outer loop
      vertex -2.90575 0.746069 5
      vertex -6 0 5
      vertex -2.94686 0.562143 5
    endloop
  endfacet
  facet normal 0 0 1
    outer loop
      vertex -2.94686 0.562143 5
      vertex -6 0 5
      vertex -2.97634 0.375999 5
    endloop
  endfacet
  facet normal 0 0 1
    outer loop
      vertex -2.97634 0.375999 5
      vertex -6 0 5
      vertex -2.99408 0.188371 5
    endloop
  endfacet
  facet normal 0 0 1
    outer loop
      vertex -2.99408 0.188371 5
      vertex -6 0 5
      vertex -3 0 5
    endloop
  endfacet
  facet normal 0 0 1
    outer loop
      vertex -3 0 5
      vertex -6 0 5
      vertex -3 -5.19615 5
    endloop
  endfacet
  facet normal -0 0 1
    outer loop
      vertex 2.62892 1.44526 5
      vertex 6 0 5
      vertex 3 5.19615 5
    endloop
  endfacet
  facet normal 0 0 1
    outer loop
      vertex 2.99408 -0.188371 5
      vertex 6 0 5
      vertex 3 0 5
    endloop
  endfacet
  facet normal 0 0 1
    outer loop
      vertex 2.97634 -0.375999 5
      vertex 6 0 5
      vertex 2.99408 -0.188371 5
    endloop
  endfacet
  facet normal 0 0 1
    outer loop
      vertex 2.94686 -0.562143 5
      vertex 6 0 5
      vertex 2.97634 -0.375999 5
    endloop
  endfacet
  facet normal 0 0 1
    outer loop
      vertex 2.90575 -0.746069 5
      vertex 6 0 5
      vertex 2.94686 -0.562143 5
    endloop
  endfacet
  facet normal 0 0 1
    outer loop
      vertex 2.85317 -0.927051 5
      vertex 6 0 5
      vertex 2.90575 -0.746069 5
    endloop
  endfacet
  facet normal 0 0 1
    outer loop
      vertex 2.78933 -1.10437 5
      vertex 6 0 5
      vertex 2.85317 -0.927051 5
    endloop
  endfacet
  facet normal 0 0 1
    outer loop
      vertex 2.71448 -1.27734 5
      vertex 6 0 5
      vertex 2.78933 -1.10437 5
    endloop
  endfacet
  facet normal 0 0 1
    outer loop
      vertex 2.62892 -1.44526 5
      vertex 6 0 5
      vertex 2.71448 -1.27734 5
    endloop
  endfacet
  facet normal 0 0 1
    outer loop
      vertex 6 0 5
      vertex 2.62892 -1.44526 5
      vertex 3 -5.19615 5
    endloop
  endfacet
  facet normal -0 0 1
    outer loop
      vertex 2.53298 -1.60748 5
      vertex 3 -5.19615 5
      vertex 2.62892 -1.44526 5
    endloop
  endfacet
  facet normal -0 0 1
    outer loop
      vertex 2.42705 -1.76336 5
      vertex 3 -5.19615 5
      vertex 2.53298 -1.60748 5
    endloop
  endfacet
  facet normal -0 0 1
    outer loop
      vertex 2.31154 -1.91227 5
      vertex 3 -5.19615 5
      vertex 2.42705 -1.76336 5
    endloop
  endfacet
  facet normal -0 0 1
    outer loop
      vertex 2.18691 -2.05364 5
      vertex 3 -5.19615 5
      vertex 2.31154 -1.91227 5
    endloop
  endfacet
  facet normal -0 0 1
    outer loop
      vertex 2.05364 -2.18691 5
      vertex 3 -5.19615 5
      vertex 2.18691 -2.05364 5
    endloop
  endfacet
  facet normal -0 0 1
    outer loop
      vertex 1.91227 -2.31154 5
      vertex 3 -5.19615 5
      vertex 2.05364 -2.18691 5
    endloop
  endfacet
  facet normal -0 0 1
    outer loop
      vertex 1.76336 -2.42705 5
      vertex 3 -5.19615 5
      vertex 1.91227 -2.31154 5
    endloop
  endfacet
  facet normal -0 0 1
    outer loop
      vertex 1.60748 -2.53298 5
      vertex 3 -5.19615 5
      vertex 1.76336 -2.42705 5
    endloop
  endfacet
  facet normal -0 0 1
    outer loop
      vertex 1.44526 -2.62892 5
      vertex 3 -5.19615 5
      vertex 1.60748 -2.53298 5
    endloop
  endfacet
  facet normal -0 0 1
    outer loop
      vertex 1.27734 -2.71448 5
      vertex 3 -5.19615 5
      vertex 1.44526 -2.62892 5
    endloop
  endfacet
  facet normal -0 0 1
    outer loop
      vertex 1.10437 -2.78933 5
      vertex 3 -5.19615 5
      vertex 1.27734 -2.71448 5
    endloop
  endfacet
  facet normal -0 0 1
    outer loop
      vertex 0.927051 -2.85317 5
      vertex 3 -5.19615 5
      vertex 1.10437 -2.78933 5
    endloop
  endfacet
  facet normal -0 0 1
    outer loop
      vertex 0.746069 -2.90575 5
      vertex 3 -5.19615 5
      vertex 0.927051 -2.85317 5
    endloop
  endfacet
  facet normal -0 0 1
    outer loop
      vertex 0.562143 -2.94686 5
      vertex 3 -5.19615 5
      vertex 0.746069 -2.90575 5
    endloop
  endfacet
  facet normal -0 0 1
    outer loop
      vertex 0.375999 -2.97634 5
      vertex 3 -5.19615 5
      vertex 0.562143 -2.94686 5
    endloop
  endfacet
  facet normal -0 0 1
    outer loop
      vertex 0.188371 -2.99408 5
      vertex 3 -5.19615 5
      vertex 0.375999 -2.97634 5
    endloop
  endfacet
  facet normal -0 0 1
    outer loop
      vertex 0 -3 5
      vertex 3 -5.19615 5
      vertex 0.188371 -2.99408 5
    endloop
  endfacet
  facet normal 0 0 1
    outer loop
      vertex -3 -5.19615 5
      vertex 0 -3 5
      vertex -0.188371 -2.99408 5
    endloop
  endfacet
  facet normal 0 0 1
    outer loop
      vertex -3 -5.19615 5
      vertex -0.188371 -2.99408 5
      vertex -0.375999 -2.97634 5
    endloop
  endfacet
  facet normal 0 0 1
    outer loop
      vertex -3 -5.19615 5
      vertex -0.375999 -2.97634 5
      vertex -0.562143 -2.94686 5
    endloop
  endfacet
  facet normal 0 0 1
    outer loop
      vertex -3 -5.19615 5
      vertex -0.562143 -2.94686 5
      vertex -0.746069 -2.90575 5
    endloop
  endfacet
  facet normal 0 0 1
    outer loop
      vertex -3 -5.19615 5
      vertex -0.746069 -2.90575 5
      vertex -0.927051 -2.85317 5
    endloop
  endfacet
  facet normal 0 0 1
    outer loop
      vertex -3 -5.19615 5
      vertex -0.927051 -2.85317 5
      vertex -1.10437 -2.78933 5
    endloop
  endfacet
  facet normal 0 0 1
    outer loop
      vertex -3 -5.19615 5
      vertex -1.10437 -2.78933 5
      vertex -1.27734 -2.71448 5
    endloop
  endfacet
  facet normal 0 0 1
    outer loop
      vertex -3 -5.19615 5
      vertex -1.27734 -2.71448 5
      vertex -1.44526 -2.62892 5
    endloop
  endfacet
  facet normal 0 0 1
    outer loop
      vertex 0 -3 5
      vertex -3 -5.19615 5
      vertex 3 -5.19615 5
    endloop
  endfacet
  facet normal 0 0 1
    outer loop
      vertex -1.60748 -2.53298 5
      vertex -3 -5.19615 5
      vertex -1.44526 -2.62892 5
    endloop
  endfacet
  facet normal 0 0 1
    outer loop
      vertex -1.76336 -2.42705 5
      vertex -3 -5.19615 5
      vertex -1.60748 -2.53298 5
    endloop
  endfacet
  facet normal 0 0 1
    outer loop
      vertex -1.91227 -2.31154 5
      vertex -3 -5.19615 5
      vertex -1.76336 -2.42705 5
    endloop
  endfacet
  facet normal 0 0 1
    outer loop
      vertex -2.05364 -2.18691 5
      vertex -3 -5.19615 5
      vertex -1.91227 -2.31154 5
    endloop
  endfacet
  facet normal 0 0 1
    outer loop
      vertex -2.18691 -2.05364 5
      vertex -3 -5.19615 5
      vertex -2.05364 -2.18691 5
    endloop
  endfacet
  facet normal 0 0 1
    outer loop
      vertex -2.31154 -1.91227 5
      vertex -3 -5.19615 5
      vertex -2.18691 -2.05364 5
    endloop
  endfacet
  facet normal 0 0 1
    outer loop
      vertex -2.42705 -1.76336 5
      vertex -3 -5.19615 5
      vertex -2.31154 -1.91227 5
    endloop
  endfacet
  facet normal 0 0 1
    outer loop
      vertex -2.53298 -1.60748 5
      vertex -3 -5.19615 5
      vertex -2.42705 -1.76336 5
    endloop
  endfacet
  facet normal 0 0 1
    outer loop
      vertex -2.62892 -1.44526 5
      vertex -3 -5.19615 5
      vertex -2.53298 -1.60748 5
    endloop
  endfacet
  facet normal 0 0 1
    outer loop
      vertex -2.71448 -1.27734 5
      vertex -3 -5.19615 5
      vertex -2.62892 -1.44526 5
    endloop
  endfacet
  facet normal 0 0 1
    outer loop
      vertex -2.78933 -1.10437 5
      vertex -3 -5.19615 5
      vertex -2.71448 -1.27734 5
    endloop
  endfacet
  facet normal 0 0 1
    outer loop
      vertex -2.85317 -0.927051 5
      vertex -3 -5.19615 5
      vertex -2.78933 -1.10437 5
    endloop
  endfacet
  facet normal 0 0 1
    outer loop
      vertex -2.90575 -0.746069 5
      vertex -3 -5.19615 5
      vertex -2.85317 -0.927051 5
    endloop
  endfacet
  facet normal 0 0 1
    outer loop
      vertex -2.94686 -0.562143 5
      vertex -3 -5.19615 5
      vertex -2.90575 -0.746069 5
    endloop
  endfacet
  facet normal 0 0 1
    outer loop
      vertex -2.97634 -0.375999 5
      vertex -3 -5.19615 5
      vertex -2.94686 -0.562143 5
    endloop
  endfacet
  facet normal 0 0 1
    outer loop
      vertex -2.99408 -0.188371 5
      vertex -3 -5.19615 5
      vertex -2.97634 -0.375999 5
    endloop
  endfacet
  facet normal 0 0 1
    outer loop
      vertex -3 -5.19615 5
      vertex -2.99408 -0.188371 5
      vertex -3 0 5
    endloop
  endfacet
  facet normal -0 0 -1
    outer loop
      vertex 6 0 0
      vertex 2.99408 -0.188371 0
      vertex 3 0 0
    endloop
  endfacet
  facet normal 0 0 -1
    outer loop
      vertex 6 0 0
      vertex 2.97634 -0.375999 0
      vertex 2.99408 -0.188371 0
    endloop
  endfacet
  facet normal 0 0 -1
    outer loop
      vertex 6 0 0
      vertex 2.94686 -0.562143 0
      vertex 2.97634 -0.375999 0
    endloop
  endfacet
  facet normal 0 0 -1
    outer loop
      vertex 6 0 0
      vertex 2.90575 -0.746069 0
      vertex 2.94686 -0.562143 0
    endloop
  endfacet
  facet normal 0 0 -1
    outer loop
      vertex 6 0 0
      vertex 2.85317 -0.927051 0
      vertex 2.90575 -0.746069 0
    endloop
  endfacet
  facet normal 0 0 -1
    outer loop
      vertex 6 0 0
      vertex 2.78933 -1.10437 0
      vertex 2.85317 -0.927051 0
    endloop
  endfacet
  facet normal 0 0 -1
    outer loop
      vertex 6 0 0
      vertex 2.71448 -1.27734 0
      vertex 2.78933 -1.10437 0
    endloop
  endfacet
  facet normal 0 0 -1
    outer loop
      vertex 6 0 0
      vertex 2.62892 -1.44526 0
      vertex 2.71448 -1.27734 0
    endloop
  endfacet
  facet normal 0 0 -1
    outer loop
      vertex 3 -5.19615 0
      vertex 2.53298 -1.60748 0
      vertex 2.62892 -1.44526 0
    endloop
  endfacet
  facet normal 0 0 -1
    outer loop
      vertex 3 -5.19615 0
      vertex 2.42705 -1.76336 0
      vertex 2.53298 -1.60748 0
    endloop
  endfacet
  facet normal 0 0 -1
    outer loop
      vertex 3 -5.19615 0
      vertex 2.31154 -1.91227 0
      vertex 2.42705 -1.76336 0
    endloop
  endfacet
  facet normal 0 0 -1
    outer loop
      vertex 3 -5.19615 0
      vertex 2.18691 -2.05364 0
      vertex 2.31154 -1.91227 0
    endloop
  endfacet
  facet normal 0 0 -1
    outer loop
      vertex 3 -5.19615 0
      vertex 2.05364 -2.18691 0
      vertex 2.18691 -2.05364 0
    endloop
  endfacet
  facet normal 0 0 -1
    outer loop
      vertex 3 -5.19615 0
      vertex 1.91227 -2.31154 0
      vertex 2.05364 -2.18691 0
    endloop
  endfacet
  facet normal 0 0 -1
    outer loop
      vertex 3 -5.19615 0
      vertex 1.76336 -2.42705 0
      vertex 1.91227 -2.31154 0
    endloop
  endfacet
  facet normal 0 0 -1
    outer loop
      vertex 3 -5.19615 0
      vertex 1.60748 -2.53298 0
      vertex 1.76336 -2.42705 0
    endloop
  endfacet
  facet normal 0 0 -1
    outer loop
      vertex 3 -5.19615 0
      vertex 1.44526 -2.62892 0
      vertex 1.60748 -2.53298 0
    endloop
  endfacet
  facet normal 0 0 -1
    outer loop
      vertex 3 -5.19615 0
      vertex 1.27734 -2.71448 0
      vertex 1.44526 -2.62892 0
    endloop
  endfacet
  facet normal 0 0 -1
    outer loop
      vertex 3 -5.19615 0
      vertex 1.10437 -2.78933 0
      vertex 1.27734 -2.71448 0
    endloop
  endfacet
  facet normal 0 0 -1
    outer loop
      vertex 3 -5.19615 0
      vertex 0.927051 -2.85317 0
      vertex 1.10437 -2.78933 0
    endloop
  endfacet
  facet normal 0 0 -1
    outer loop
      vertex 3 -5.19615 0
      vertex 0.746069 -2.90575 0
      vertex 0.927051 -2.85317 0
    endloop
  endfacet
  facet normal 0 0 -1
    outer loop
      vertex 3 -5.19615 0
      vertex 0.562143 -2.94686 0
      vertex 0.746069 -2.90575 0
    endloop
  endfacet
  facet normal 0 0 -1
    outer loop
      vertex 3 -5.19615 0
      vertex 0.375999 -2.97634 0
      vertex 0.562143 -2.94686 0
    endloop
  endfacet
  facet normal 0 0 -1
    outer loop
      vertex 3 -5.19615 0
      vertex 0.188371 -2.99408 0
      vertex 0.375999 -2.97634 0
    endloop
  endfacet
  facet normal 0 0 -1
    outer loop
      vertex 3 -5.19615 0
      vertex 0 -3 0
      vertex 0.188371 -2.99408 0
    endloop
  endfacet
  facet normal 0 0 -1
    outer loop
      vertex -3 -5.19615 0
      vertex 0 -3 0
      vertex 3 -5.19615 0
    endloop
  endfacet
  facet normal -0 0 -1
    outer loop
      vertex 0 -3 0
      vertex -3 -5.19615 0
      vertex -0.188371 -2.99408 0
    endloop
  endfacet
  facet normal -0 0 -1
    outer loop
      vertex -0.188371 -2.99408 0
      vertex -3 -5.19615 0
      vertex -0.375999 -2.97634 0
    endloop
  endfacet
  facet normal -0 0 -1
    outer loop
      vertex -0.375999 -2.97634 0
      vertex -3 -5.19615 0
      vertex -0.562143 -2.94686 0
    endloop
  endfacet
  facet normal -0 0 -1
    outer loop
      vertex -0.562143 -2.94686 0
      vertex -3 -5.19615 0
      vertex -0.746069 -2.90575 0
    endloop
  endfacet
  facet normal -0 0 -1
    outer loop
      vertex -0.746069 -2.90575 0
      vertex -3 -5.19615 0
      vertex -0.927051 -2.85317 0
    endloop
  endfacet
  facet normal -0 0 -1
    outer loop
      vertex -0.927051 -2.85317 0
      vertex -3 -5.19615 0
      vertex -1.10437 -2.78933 0
    endloop
  endfacet
  facet normal -0 0 -1
    outer loop
      vertex -1.10437 -2.78933 0
      vertex -3 -5.19615 0
      vertex -1.27734 -2.71448 0
    endloop
  endfacet
  facet normal -0 0 -1
    outer loop
      vertex -1.27734 -2.71448 0
      vertex -3 -5.19615 0
      vertex -1.44526 -2.62892 0
    endloop
  endfacet
  facet normal 0 0 -1
    outer loop
      vertex -3 -5.19615 0
      vertex -1.60748 -2.53298 0
      vertex -1.44526 -2.62892 0
    endloop
  endfacet
  facet normal 0 0 -1
    outer loop
      vertex -3 -5.19615 0
      vertex -1.76336 -2.42705 0
      vertex -1.60748 -2.53298 0
    endloop
  endfacet
  facet normal 0 0 -1
    outer loop
      vertex -3 -5.19615 0
      vertex -1.91227 -2.31154 0
      vertex -1.76336 -2.42705 0
    endloop
  endfacet
  facet normal 0 0 -1
    outer loop
      vertex -3 -5.19615 0
      vertex -2.05364 -2.18691 0
      vertex -1.91227 -2.31154 0
    endloop
  endfacet
  facet normal 0 0 -1
    outer loop
      vertex -3 -5.19615 0
      vertex -2.18691 -2.05364 0
      vertex -2.05364 -2.18691 0
    endloop
  endfacet
  facet normal 0 0 -1
    outer loop
      vertex -3 -5.19615 0
      vertex -2.31154 -1.91227 0
      vertex -2.18691 -2.05364 0
    endloop
  endfacet
  facet normal 0 0 -1
    outer loop
      vertex -3 -5.19615 0
      vertex -2.42705 -1.76336 0
      vertex -2.31154 -1.91227 0
    endloop
  endfacet
  facet normal 0 0 -1
    outer loop
      vertex -3 -5.19615 0
      vertex -2.53298 -1.60748 0
      vertex -2.42705 -1.76336 0
    endloop
  endfacet
  facet normal 0 0 -1
    outer loop
      vertex -3 -5.19615 0
      vertex -2.62892 -1.44526 0
      vertex -2.53298 -1.60748 0
    endloop
  endfacet
  facet normal 0 0 -1
    outer loop
      vertex -6 0 0
      vertex -2.62892 -1.44526 0
      vertex -3 -5.19615 0
    endloop
  endfacet
  facet normal 0 0 -1
    outer loop
      vertex -2.62892 -1.44526 0
      vertex -6 0 0
      vertex -2.71448 -1.27734 0
    endloop
  endfacet
  facet normal 0 0 -1
    outer loop
      vertex -2.71448 -1.27734 0
      vertex -6 0 0
      vertex -2.78933 -1.10437 0
    endloop
  endfacet
  facet normal 0 0 -1
    outer loop
      vertex -2.78933 -1.10437 0
      vertex -6 0 0
      vertex -2.85317 -0.927051 0
    endloop
  endfacet
  facet normal 0 0 -1
    outer loop
      vertex -2.85317 -0.927051 0
      vertex -6 0 0
      vertex -2.90575 -0.746069 0
    endloop
  endfacet
  facet normal 0 0 -1
    outer loop
      vertex -2.90575 -0.746069 0
      vertex -6 0 0
      vertex -2.94686 -0.562143 0
    endloop
  endfacet
  facet normal 0 0 -1
    outer loop
      vertex -2.94686 -0.562143 0
      vertex -6 0 0
      vertex -2.97634 -0.375999 0
    endloop
  endfacet
  facet normal 0 0 -1
    outer loop
      vertex -2.97634 -0.375999 0
      vertex -6 0 0
      vertex -2.99408 -0.188371 0
    endloop
  endfacet
  facet normal 0 0 -1
    outer loop
      vertex -2.99408 -0.188371 0
      vertex -6 0 0
      vertex -3 0 0
    endloop
  endfacet
  facet normal 0 0 -1
    outer loop
      vertex -3 0 0
      vertex -6 0 0
      vertex -3 5.19615 0
    endloop
  endfacet
  facet normal 0 0 -1
    outer loop
      vertex 2.62892 -1.44526 0
      vertex 6 0 0
      vertex 3 -5.19615 0
    endloop
  endfacet
  facet normal 0 0 -1
    outer loop
      vertex 2.99408 0.188371 0
      vertex 6 0 0
      vertex 3 0 0
    endloop
  endfacet
  facet normal 0 0 -1
    outer loop
      vertex 2.97634 0.375999 0
      vertex 6 0 0
      vertex 2.99408 0.188371 0
    endloop
  endfacet
  facet normal 0 0 -1
    outer loop
      vertex 2.94686 0.562143 0
      vertex 6 0 0
      vertex 2.97634 0.375999 0
    endloop
  endfacet
  facet normal 0 0 -1
    outer loop
      vertex 2.90575 0.746069 0
      vertex 6 0 0
      vertex 2.94686 0.562143 0
    endloop
  endfacet
  facet normal 0 0 -1
    outer loop
      vertex 2.85317 0.927051 0
      vertex 6 0 0
      vertex 2.90575 0.746069 0
    endloop
  endfacet
  facet normal 0 0 -1
    outer loop
      vertex 2.78933 1.10437 0
      vertex 6 0 0
      vertex 2.85317 0.927051 0
    endloop
  endfacet
  facet normal 0 0 -1
    outer loop
      vertex 2.71448 1.27734 0
      vertex 6 0 0
      vertex 2.78933 1.10437 0
    endloop
  endfacet
  facet normal 0 0 -1
    outer loop
      vertex 2.62892 1.44526 0
      vertex 6 0 0
      vertex 2.71448 1.27734 0
    endloop
  endfacet
  facet normal 0 0 -1
    outer loop
      vertex 6 0 0
      vertex 2.62892 1.44526 0
      vertex 3 5.19615 0
    endloop
  endfacet
  facet normal 0 0 -1
    outer loop
      vertex 2.53298 1.60748 0
      vertex 3 5.19615 0
      vertex 2.62892 1.44526 0
    endloop
  endfacet
  facet normal 0 0 -1
    outer loop
      vertex 2.42705 1.76336 0
      vertex 3 5.19615 0
      vertex 2.53298 1.60748 0
    endloop
  endfacet
  facet normal 0 0 -1
    outer loop
      vertex 2.31154 1.91227 0
      vertex 3 5.19615 0
      vertex 2.42705 1.76336 0
    endloop
  endfacet
  facet normal 0 0 -1
    outer loop
      vertex 2.18691 2.05364 0
      vertex 3 5.19615 0
      vertex 2.31154 1.91227 0
    endloop
  endfacet
  facet normal 0 0 -1
    outer loop
      vertex 2.05364 2.18691 0
      vertex 3 5.19615 0
      vertex 2.18691 2.05364 0
    endloop
  endfacet
  facet normal 0 0 -1
    outer loop
      vertex 1.91227 2.31154 0
      vertex 3 5.19615 0
      vertex 2.05364 2.18691 0
    endloop
  endfacet
  facet normal 0 0 -1
    outer loop
      vertex 1.76336 2.42705 0
      vertex 3 5.19615 0
      vertex 1.91227 2.31154 0
    endloop
  endfacet
  facet normal 0 0 -1
    outer loop
      vertex 1.60748 2.53298 0
      vertex 3 5.19615 0
      vertex 1.76336 2.42705 0
    endloop
  endfacet
  facet normal 0 0 -1
    outer loop
      vertex 1.44526 2.62892 0
      vertex 3 5.19615 0
      vertex 1.60748 2.53298 0
    endloop
  endfacet
  facet normal 0 0 -1
    outer loop
      vertex 1.27734 2.71448 0
      vertex 3 5.19615 0
      vertex 1.44526 2.62892 0
    endloop
  endfacet
  facet normal 0 0 -1
    outer loop
      vertex 1.10437 2.78933 0
      vertex 3 5.19615 0
      vertex 1.27734 2.71448 0
    endloop
  endfacet
  facet normal 0 0 -1
    outer loop
      vertex 0.927051 2.85317 0
      vertex 3 5.19615 0
      vertex 1.10437 2.78933 0
    endloop
  endfacet
  facet normal 0 0 -1
    outer loop
      vertex 0.746069 2.90575 0
      vertex 3 5.19615 0
      vertex 0.927051 2.85317 0
    endloop
  endfacet
  facet normal 0 0 -1
    outer loop
      vertex 0.562143 2.94686 0
      vertex 3 5.19615 0
      vertex 0.746069 2.90575 0
    endloop
  endfacet
  facet normal 0 0 -1
    outer loop
      vertex 0.375999 2.97634 0
      vertex 3 5.19615 0
      vertex 0.562143 2.94686 0
    endloop
  endfacet
  facet normal 0 0 -1
    outer loop
      vertex 0.188371 2.99408 0
      vertex 3 5.19615 0
      vertex 0.375999 2.97634 0
    endloop
  endfacet
  facet normal 0 0 -1
    outer loop
      vertex 0 3 0
      vertex 3 5.19615 0
      vertex 0.188371 2.99408 0
    endloop
  endfacet
  facet normal 0 0 -1
    outer loop
      vertex -3 5.19615 0
      vertex 0 3 0
      vertex -0.188371 2.99408 0
    endloop
  endfacet
  facet normal 0 0 -1
    outer loop
      vertex -3 5.19615 0
      vertex -0.188371 2.99408 0
      vertex -0.375999 2.97634 0
    endloop
  endfacet
  facet normal 0 0 -1
    outer loop
      vertex -3 5.19615 0
      vertex -0.375999 2.97634 0
      vertex -0.562143 2.94686 0
    endloop
  endfacet
  facet normal 0 0 -1
    outer loop
      vertex -3 5.19615 0
      vertex -0.562143 2.94686 0
      vertex -0.746069 2.90575 0
    endloop
  endfacet
  facet normal 0 0 -1
    outer loop
      vertex -3 5.19615 0
      vertex -0.746069 2.90575 0
      vertex -0.927051 2.85317 0
    endloop
  endfacet
  facet normal 0 0 -1
    outer loop
      vertex -3 5.19615 0
      vertex -0.927051 2.85317 0
      vertex -1.10437 2.78933 0
    endloop
  endfacet
  facet normal 0 0 -1
    outer loop
      vertex -3 5.19615 0
      vertex -1.10437 2.78933 0
      vertex -1.27734 2.71448 0
    endloop
  endfacet
  facet normal 0 0 -1
    outer loop
      vertex -3 5.19615 0
      vertex -1.27734 2.71448 0
      vertex -1.44526 2.62892 0
    endloop
  endfacet
  facet normal 0 0 -1
    outer loop
      vertex 0 3 0
      vertex -3 5.19615 0
      vertex 3 5.19615 0
    endloop
  endfacet
  facet normal 0 0 -1
    outer loop
      vertex -1.60748 2.53298 0
      vertex -3 5.19615 0
      vertex -1.44526 2.62892 0
    endloop
  endfacet
  facet normal 0 0 -1
    outer loop
      vertex -1.76336 2.42705 0
      vertex -3 5.19615 0
      vertex -1.60748 2.53298 0
    endloop
  endfacet
  facet normal 0 0 -1
    outer loop
      vertex -1.91227 2.31154 0
      vertex -3 5.19615 0
      vertex -1.76336 2.42705 0
    endloop
  endfacet
  facet normal 0 0 -1
    outer loop
      vertex -2.05364 2.18691 0
      vertex -3 5.19615 0
      vertex -1.91227 2.31154 0
    endloop
  endfacet
  facet normal 0 0 -1
    outer loop
      vertex -2.18691 2.05364 0
      vertex -3 5.19615 0
      vertex -2.05364 2.18691 0
    endloop
  endfacet
  facet normal 0 0 -1
    outer loop
      vertex -2.31154 1.91227 0
      vertex -3 5.19615 0
      vertex -2.18691 2.05364 0
    endloop
  endfacet
  facet normal 0 0 -1
    outer loop
      vertex -2.42705 1.76336 0
      vertex -3 5.19615 0
      vertex -2.31154 1.91227 0
    endloop
  endfacet
  facet normal 0 0 -1
    outer loop
      vertex -2.53298 1.60748 0
      vertex -3 5.19615 0
      vertex -2.42705 1.76336 0
    endloop
  endfacet
  facet normal 0 0 -1
    outer loop
      vertex -2.62892 1.44526 0
      vertex -3 5.19615 0
      vertex -2.53298 1.60748 0
    endloop
  endfacet
  facet normal 0 0 -1
    outer loop
      vertex -2.71448 1.27734 0
      vertex -3 5.19615 0
      vertex -2.62892 1.44526 0
    endloop
  endfacet
  facet normal 0 0 -1
    outer loop
      vertex -2.78933 1.10437 0
      vertex -3 5.19615 0
      vertex -2.71448 1.27734 0
    endloop
  endfacet
  facet normal 0 0 -1
    outer loop
      vertex -2.85317 0.927051 0
      vertex -3 5.19615 0
      vertex -2.78933 1.10437 0
    endloop
  endfacet
  facet normal 0 0 -1
    outer loop
      vertex -2.90575 0.746069 0
      vertex -3 5.19615 0
      vertex -2.85317 0.927051 0
    endloop
  endfacet
  facet normal 0 0 -1
    outer loop
      vertex -2.94686 0.562143 0
      vertex -3 5.19615 0
      vertex -2.90575 0.746069 0
    endloop
  endfacet
  facet normal 0 0 -1
    outer loop
      vertex -2.97634 0.375999 0
      vertex -3 5.19615 0
      vertex -2.94686 0.562143 0
    endloop
  endfacet
  facet normal 0 0 -1
    outer loop
      vertex -2.99408 0.188371 0
      vertex -3 5.19615 0
      vertex -2.97634 0.375999 0
    endloop
  endfacet
  facet normal 0 0 -1
    outer loop
      vertex -3 5.19615 0
      vertex -2.99408 0.188371 0
      vertex -3 0 0
    endloop
  endfacet
  facet normal -0.99556 -0.094129 0
    outer loop
      vertex 2.99408 0.188371 0
      vertex 2.97634 0.375999 5
      vertex 2.97634 0.375999 0
    endloop
  endfacet
  facet normal -0.99556 -0.094129 0
    outer loop
      vertex 2.97634 0.375999 5
      vertex 2.99408 0.188371 0
      vertex 2.99408 0.188371 5
    endloop
  endfacet
  facet normal -0.999507 -0.0314118 0
    outer loop
      vertex 3 0 0
      vertex 2.99408 0.188371 5
      vertex 2.99408 0.188371 0
    endloop
  endfacet
  facet normal -0.999507 -0.0314118 0
    outer loop
      vertex 2.99408 0.188371 5
      vertex 3 0 0
      vertex 3 0 5
    endloop
  endfacet
  facet normal -0.98769 -0.156422 0
    outer loop
      vertex 2.97634 0.375999 0
      vertex 2.94686 0.562143 5
      vertex 2.94686 0.562143 0
    endloop
  endfacet
  facet normal -0.98769 -0.156422 0
    outer loop
      vertex 2.94686 0.562143 5
      vertex 2.97634 0.375999 0
      vertex 2.97634 0.375999 5
    endloop
  endfacet
  facet normal -0.453993 0.891005 0
    outer loop
      vertex 1.44526 -2.62892 0
      vertex 1.27734 -2.71448 5
      vertex 1.44526 -2.62892 5
    endloop
  endfacet
  facet normal -0.453993 0.891005 0
    outer loop
      vertex 1.27734 -2.71448 5
      vertex 1.44526 -2.62892 0
      vertex 1.27734 -2.71448 0
    endloop
  endfacet
  facet normal 0.661299 -0.750123 0
    outer loop
      vertex -2.05364 2.18691 0
      vertex -1.91227 2.31154 5
      vertex -2.05364 2.18691 5
    endloop
  endfacet
  facet normal 0.661299 -0.750123 0
    outer loop
      vertex -1.91227 2.31154 5
      vertex -2.05364 2.18691 0
      vertex -1.91227 2.31154 0
    endloop
  endfacet
  facet normal -0.338744 -0.940879 0
    outer loop
      vertex 0.927051 2.85317 0
      vertex 1.10437 2.78933 5
      vertex 0.927051 2.85317 5
    endloop
  endfacet
  facet normal -0.338744 -0.940879 -0
    outer loop
      vertex 1.10437 2.78933 5
      vertex 0.927051 2.85317 0
      vertex 1.10437 2.78933 0
    endloop
  endfacet
  facet normal -0.750123 0.661299 0
    outer loop
      vertex 2.18691 -2.05364 0
      vertex 2.31154 -1.91227 5
      vertex 2.31154 -1.91227 0
    endloop
  endfacet
  facet normal -0.750123 0.661299 0
    outer loop
      vertex 2.31154 -1.91227 5
      vertex 2.18691 -2.05364 0
      vertex 2.18691 -2.05364 5
    endloop
  endfacet
  facet normal 0.218131 -0.975919 0
    outer loop
      vertex -0.746069 2.90575 0
      vertex -0.562143 2.94686 5
      vertex -0.746069 2.90575 5
    endloop
  endfacet
  facet normal 0.218131 -0.975919 0
    outer loop
      vertex -0.562143 2.94686 5
      vertex -0.746069 2.90575 0
      vertex -0.562143 2.94686 0
    endloop
  endfacet
  facet normal -0.790146 -0.612919 0
    outer loop
      vertex 2.42705 1.76336 0
      vertex 2.31154 1.91227 5
      vertex 2.31154 1.91227 0
    endloop
  endfacet
  facet normal -0.790146 -0.612919 0
    outer loop
      vertex 2.31154 1.91227 5
      vertex 2.42705 1.76336 0
      vertex 2.42705 1.76336 5
    endloop
  endfacet
  facet normal -0.860734 -0.509055 0
    outer loop
      vertex 2.62892 1.44526 0
      vertex 2.53298 1.60748 5
      vertex 2.53298 1.60748 0
    endloop
  endfacet
  facet normal -0.860734 -0.509055 0
    outer loop
      vertex 2.53298 1.60748 5
      vertex 2.62892 1.44526 0
      vertex 2.62892 1.44526 5
    endloop
  endfacet
  facet normal -0.0314118 -0.999507 0
    outer loop
      vertex 0 3 0
      vertex 0.188371 2.99408 5
      vertex 0 3 5
    endloop
  endfacet
  facet normal -0.0314118 -0.999507 -0
    outer loop
      vertex 0.188371 2.99408 5
      vertex 0 3 0
      vertex 0.188371 2.99408 0
    endloop
  endfacet
  facet normal 0.0314118 0.999507 -0
    outer loop
      vertex 0 -3 0
      vertex -0.188371 -2.99408 5
      vertex 0 -3 5
    endloop
  endfacet
  facet normal 0.0314118 0.999507 0
    outer loop
      vertex -0.188371 -2.99408 5
      vertex 0 -3 0
      vertex -0.188371 -2.99408 0
    endloop
  endfacet
  facet normal 0.940879 0.338744 0
    outer loop
      vertex -2.78933 -1.10437 5
      vertex -2.85317 -0.927051 0
      vertex -2.85317 -0.927051 5
    endloop
  endfacet
  facet normal 0.940879 0.338744 0
    outer loop
      vertex -2.85317 -0.927051 0
      vertex -2.78933 -1.10437 5
      vertex -2.78933 -1.10437 0
    endloop
  endfacet
  facet normal -0.827095 0.562062 0
    outer loop
      vertex 2.42705 -1.76336 0
      vertex 2.53298 -1.60748 5
      vertex 2.53298 -1.60748 0
    endloop
  endfacet
  facet normal -0.827095 0.562062 0
    outer loop
      vertex 2.53298 -1.60748 5
      vertex 2.42705 -1.76336 0
      vertex 2.42705 -1.76336 5
    endloop
  endfacet
  facet normal 0.790146 -0.612919 0
    outer loop
      vertex -2.42705 1.76336 5
      vertex -2.31154 1.91227 0
      vertex -2.31154 1.91227 5
    endloop
  endfacet
  facet normal 0.790146 -0.612919 0
    outer loop
      vertex -2.31154 1.91227 0
      vertex -2.42705 1.76336 5
      vertex -2.42705 1.76336 0
    endloop
  endfacet
  facet normal -0.917756 0.397144 0
    outer loop
      vertex 2.71448 -1.27734 0
      vertex 2.78933 -1.10437 5
      vertex 2.78933 -1.10437 0
    endloop
  endfacet
  facet normal -0.917756 0.397144 0
    outer loop
      vertex 2.78933 -1.10437 5
      vertex 2.71448 -1.27734 0
      vertex 2.71448 -1.27734 5
    endloop
  endfacet
  facet normal 0.27899 -0.960294 0
    outer loop
      vertex -0.927051 2.85317 0
      vertex -0.746069 2.90575 5
      vertex -0.927051 2.85317 5
    endloop
  endfacet
  facet normal 0.27899 -0.960294 0
    outer loop
      vertex -0.746069 2.90575 5
      vertex -0.927051 2.85317 0
      vertex -0.746069 2.90575 0
    endloop
  endfacet
  facet normal 0.661299 0.750123 -0
    outer loop
      vertex -1.91227 -2.31154 0
      vertex -2.05364 -2.18691 5
      vertex -1.91227 -2.31154 5
    endloop
  endfacet
  facet normal 0.661299 0.750123 0
    outer loop
      vertex -2.05364 -2.18691 5
      vertex -1.91227 -2.31154 0
      vertex -2.05364 -2.18691 0
    endloop
  endfacet
  facet normal 0.453993 -0.891005 0
    outer loop
      vertex -1.44526 2.62892 0
      vertex -1.27734 2.71448 5
      vertex -1.44526 2.62892 5
    endloop
  endfacet
  facet normal 0.453993 -0.891005 0
    outer loop
      vertex -1.27734 2.71448 5
      vertex -1.44526 2.62892 0
      vertex -1.27734 2.71448 0
    endloop
  endfacet
  facet normal -0.960294 -0.27899 0
    outer loop
      vertex 2.90575 0.746069 0
      vertex 2.85317 0.927051 5
      vertex 2.85317 0.927051 0
    endloop
  endfacet
  facet normal -0.960294 -0.27899 0
    outer loop
      vertex 2.85317 0.927051 5
      vertex 2.90575 0.746069 0
      vertex 2.90575 0.746069 5
    endloop
  endfacet
  facet normal -0.453993 -0.891005 0
    outer loop
      vertex 1.27734 2.71448 0
      vertex 1.44526 2.62892 5
      vertex 1.27734 2.71448 5
    endloop
  endfacet
  facet normal -0.453993 -0.891005 -0
    outer loop
      vertex 1.44526 2.62892 5
      vertex 1.27734 2.71448 0
      vertex 1.44526 2.62892 0
    endloop
  endfacet
  facet normal -0.509055 -0.860734 0
    outer loop
      vertex 1.44526 2.62892 0
      vertex 1.60748 2.53298 5
      vertex 1.44526 2.62892 5
    endloop
  endfacet
  facet normal -0.509055 -0.860734 -0
    outer loop
      vertex 1.60748 2.53298 5
      vertex 1.44526 2.62892 0
      vertex 1.60748 2.53298 0
    endloop
  endfacet
  facet normal 0.218131 0.975919 -0
    outer loop
      vertex -0.562143 -2.94686 0
      vertex -0.746069 -2.90575 5
      vertex -0.562143 -2.94686 5
    endloop
  endfacet
  facet normal 0.218131 0.975919 0
    outer loop
      vertex -0.746069 -2.90575 5
      vertex -0.562143 -2.94686 0
      vertex -0.746069 -2.90575 0
    endloop
  endfacet
  facet normal -0.960294 0.27899 0
    outer loop
      vertex 2.85317 -0.927051 0
      vertex 2.90575 -0.746069 5
      vertex 2.90575 -0.746069 0
    endloop
  endfacet
  facet normal -0.960294 0.27899 0
    outer loop
      vertex 2.90575 -0.746069 5
      vertex 2.85317 -0.927051 0
      vertex 2.85317 -0.927051 5
    endloop
  endfacet
  facet normal 0.397144 -0.917756 0
    outer loop
      vertex -1.27734 2.71448 0
      vertex -1.10437 2.78933 5
      vertex -1.27734 2.71448 5
    endloop
  endfacet
  facet normal 0.397144 -0.917756 0
    outer loop
      vertex -1.10437 2.78933 5
      vertex -1.27734 2.71448 0
      vertex -1.10437 2.78933 0
    endloop
  endfacet
  facet normal 0.917756 -0.397144 0
    outer loop
      vertex -2.78933 1.10437 5
      vertex -2.71448 1.27734 0
      vertex -2.71448 1.27734 5
    endloop
  endfacet
  facet normal 0.917756 -0.397144 0
    outer loop
      vertex -2.71448 1.27734 0
      vertex -2.78933 1.10437 5
      vertex -2.78933 1.10437 0
    endloop
  endfacet
  facet normal -0.27899 -0.960294 0
    outer loop
      vertex 0.746069 2.90575 0
      vertex 0.927051 2.85317 5
      vertex 0.746069 2.90575 5
    endloop
  endfacet
  facet normal -0.27899 -0.960294 -0
    outer loop
      vertex 0.927051 2.85317 5
      vertex 0.746069 2.90575 0
      vertex 0.927051 2.85317 0
    endloop
  endfacet
  facet normal -0.975919 -0.218131 0
    outer loop
      vertex 2.94686 0.562143 0
      vertex 2.90575 0.746069 5
      vertex 2.90575 0.746069 0
    endloop
  endfacet
  facet normal -0.975919 -0.218131 0
    outer loop
      vertex 2.90575 0.746069 5
      vertex 2.94686 0.562143 0
      vertex 2.94686 0.562143 5
    endloop
  endfacet
  facet normal -0.750123 -0.661299 0
    outer loop
      vertex 2.31154 1.91227 0
      vertex 2.18691 2.05364 5
      vertex 2.18691 2.05364 0
    endloop
  endfacet
  facet normal -0.750123 -0.661299 0
    outer loop
      vertex 2.18691 2.05364 5
      vertex 2.31154 1.91227 0
      vertex 2.31154 1.91227 5
    endloop
  endfacet
  facet normal -0.707107 -0.707107 0
    outer loop
      vertex 2.18691 2.05364 0
      vertex 2.05364 2.18691 5
      vertex 2.05364 2.18691 0
    endloop
  endfacet
  facet normal -0.707107 -0.707107 0
    outer loop
      vertex 2.05364 2.18691 5
      vertex 2.18691 2.05364 0
      vertex 2.18691 2.05364 5
    endloop
  endfacet
  facet normal 0.094129 0.99556 -0
    outer loop
      vertex -0.188371 -2.99408 0
      vertex -0.375999 -2.97634 5
      vertex -0.188371 -2.99408 5
    endloop
  endfacet
  facet normal 0.094129 0.99556 0
    outer loop
      vertex -0.375999 -2.97634 5
      vertex -0.188371 -2.99408 0
      vertex -0.375999 -2.97634 0
    endloop
  endfacet
  facet normal -0.891005 -0.453993 0
    outer loop
      vertex 2.71448 1.27734 0
      vertex 2.62892 1.44526 5
      vertex 2.62892 1.44526 0
    endloop
  endfacet
  facet normal -0.891005 -0.453993 0
    outer loop
      vertex 2.62892 1.44526 5
      vertex 2.71448 1.27734 0
      vertex 2.71448 1.27734 5
    endloop
  endfacet
  facet normal -0.27899 0.960294 0
    outer loop
      vertex 0.927051 -2.85317 0
      vertex 0.746069 -2.90575 5
      vertex 0.927051 -2.85317 5
    endloop
  endfacet
  facet normal -0.27899 0.960294 0
    outer loop
      vertex 0.746069 -2.90575 5
      vertex 0.927051 -2.85317 0
      vertex 0.746069 -2.90575 0
    endloop
  endfacet
  facet normal -0.509055 0.860734 0
    outer loop
      vertex 1.60748 -2.53298 0
      vertex 1.44526 -2.62892 5
      vertex 1.60748 -2.53298 5
    endloop
  endfacet
  facet normal -0.509055 0.860734 0
    outer loop
      vertex 1.44526 -2.62892 5
      vertex 1.60748 -2.53298 0
      vertex 1.44526 -2.62892 0
    endloop
  endfacet
  facet normal 0.0314118 -0.999507 0
    outer loop
      vertex -0.188371 2.99408 0
      vertex 0 3 5
      vertex -0.188371 2.99408 5
    endloop
  endfacet
  facet normal 0.0314118 -0.999507 0
    outer loop
      vertex 0 3 5
      vertex -0.188371 2.99408 0
      vertex 0 3 0
    endloop
  endfacet
  facet normal -0.156422 0.98769 0
    outer loop
      vertex 0.562143 -2.94686 0
      vertex 0.375999 -2.97634 5
      vertex 0.562143 -2.94686 5
    endloop
  endfacet
  facet normal -0.156422 0.98769 0
    outer loop
      vertex 0.375999 -2.97634 5
      vertex 0.562143 -2.94686 0
      vertex 0.375999 -2.97634 0
    endloop
  endfacet
  facet normal -0.661299 0.750123 0
    outer loop
      vertex 2.05364 -2.18691 0
      vertex 1.91227 -2.31154 5
      vertex 2.05364 -2.18691 5
    endloop
  endfacet
  facet normal -0.661299 0.750123 0
    outer loop
      vertex 1.91227 -2.31154 5
      vertex 2.05364 -2.18691 0
      vertex 1.91227 -2.31154 0
    endloop
  endfacet
  facet normal -0.094129 0.99556 0
    outer loop
      vertex 0.375999 -2.97634 0
      vertex 0.188371 -2.99408 5
      vertex 0.375999 -2.97634 5
    endloop
  endfacet
  facet normal -0.094129 0.99556 0
    outer loop
      vertex 0.188371 -2.99408 5
      vertex 0.375999 -2.97634 0
      vertex 0.188371 -2.99408 0
    endloop
  endfacet
  facet normal -0.661299 -0.750123 0
    outer loop
      vertex 1.91227 2.31154 0
      vertex 2.05364 2.18691 5
      vertex 1.91227 2.31154 5
    endloop
  endfacet
  facet normal -0.661299 -0.750123 -0
    outer loop
      vertex 2.05364 2.18691 5
      vertex 1.91227 2.31154 0
      vertex 2.05364 2.18691 0
    endloop
  endfacet
  facet normal -0.562062 -0.827095 0
    outer loop
      vertex 1.60748 2.53298 0
      vertex 1.76336 2.42705 5
      vertex 1.60748 2.53298 5
    endloop
  endfacet
  facet normal -0.562062 -0.827095 -0
    outer loop
      vertex 1.76336 2.42705 5
      vertex 1.60748 2.53298 0
      vertex 1.76336 2.42705 0
    endloop
  endfacet
  facet normal -0.827095 -0.562062 0
    outer loop
      vertex 2.53298 1.60748 0
      vertex 2.42705 1.76336 5
      vertex 2.42705 1.76336 0
    endloop
  endfacet
  facet normal -0.827095 -0.562062 0
    outer loop
      vertex 2.42705 1.76336 5
      vertex 2.53298 1.60748 0
      vertex 2.53298 1.60748 5
    endloop
  endfacet
  facet normal 0.338744 -0.940879 0
    outer loop
      vertex -1.10437 2.78933 0
      vertex -0.927051 2.85317 5
      vertex -1.10437 2.78933 5
    endloop
  endfacet
  facet normal 0.338744 -0.940879 0
    outer loop
      vertex -0.927051 2.85317 5
      vertex -1.10437 2.78933 0
      vertex -0.927051 2.85317 0
    endloop
  endfacet
  facet normal 0.960294 0.27899 0
    outer loop
      vertex -2.85317 -0.927051 5
      vertex -2.90575 -0.746069 0
      vertex -2.90575 -0.746069 5
    endloop
  endfacet
  facet normal 0.960294 0.27899 0
    outer loop
      vertex -2.90575 -0.746069 0
      vertex -2.85317 -0.927051 5
      vertex -2.85317 -0.927051 0
    endloop
  endfacet
  facet normal 0.860734 -0.509055 0
    outer loop
      vertex -2.62892 1.44526 5
      vertex -2.53298 1.60748 0
      vertex -2.53298 1.60748 5
    endloop
  endfacet
  facet normal 0.860734 -0.509055 0
    outer loop
      vertex -2.53298 1.60748 0
      vertex -2.62892 1.44526 5
      vertex -2.62892 1.44526 0
    endloop
  endfacet
  facet normal 0.612919 0.790146 -0
    outer loop
      vertex -1.76336 -2.42705 0
      vertex -1.91227 -2.31154 5
      vertex -1.76336 -2.42705 5
    endloop
  endfacet
  facet normal 0.612919 0.790146 0
    outer loop
      vertex -1.91227 -2.31154 5
      vertex -1.76336 -2.42705 0
      vertex -1.91227 -2.31154 0
    endloop
  endfacet
  facet normal -0.790146 0.612919 0
    outer loop
      vertex 2.31154 -1.91227 0
      vertex 2.42705 -1.76336 5
      vertex 2.42705 -1.76336 0
    endloop
  endfacet
  facet normal -0.790146 0.612919 0
    outer loop
      vertex 2.42705 -1.76336 5
      vertex 2.31154 -1.91227 0
      vertex 2.31154 -1.91227 5
    endloop
  endfacet
  facet normal 0.453993 0.891005 -0
    outer loop
      vertex -1.27734 -2.71448 0
      vertex -1.44526 -2.62892 5
      vertex -1.27734 -2.71448 5
    endloop
  endfacet
  facet normal 0.453993 0.891005 0
    outer loop
      vertex -1.44526 -2.62892 5
      vertex -1.27734 -2.71448 0
      vertex -1.44526 -2.62892 0
    endloop
  endfacet
  facet normal 0.827095 0.562062 0
    outer loop
      vertex -2.42705 -1.76336 5
      vertex -2.53298 -1.60748 0
      vertex -2.53298 -1.60748 5
    endloop
  endfacet
  facet normal 0.827095 0.562062 0
    outer loop
      vertex -2.53298 -1.60748 0
      vertex -2.42705 -1.76336 5
      vertex -2.42705 -1.76336 0
    endloop
  endfacet
  facet normal -0.940879 -0.338744 0
    outer loop
      vertex 2.85317 0.927051 0
      vertex 2.78933 1.10437 5
      vertex 2.78933 1.10437 0
    endloop
  endfacet
  facet normal -0.940879 -0.338744 0
    outer loop
      vertex 2.78933 1.10437 5
      vertex 2.85317 0.927051 0
      vertex 2.85317 0.927051 5
    endloop
  endfacet
  facet normal -0.218131 0.975919 0
    outer loop
      vertex 0.746069 -2.90575 0
      vertex 0.562143 -2.94686 5
      vertex 0.746069 -2.90575 5
    endloop
  endfacet
  facet normal -0.218131 0.975919 0
    outer loop
      vertex 0.562143 -2.94686 5
      vertex 0.746069 -2.90575 0
      vertex 0.562143 -2.94686 0
    endloop
  endfacet
  facet normal -0.917756 -0.397144 0
    outer loop
      vertex 2.78933 1.10437 0
      vertex 2.71448 1.27734 5
      vertex 2.71448 1.27734 0
    endloop
  endfacet
  facet normal -0.917756 -0.397144 0
    outer loop
      vertex 2.71448 1.27734 5
      vertex 2.78933 1.10437 0
      vertex 2.78933 1.10437 5
    endloop
  endfacet
  facet normal 0.750123 0.661299 0
    outer loop
      vertex -2.18691 -2.05364 5
      vertex -2.31154 -1.91227 0
      vertex -2.31154 -1.91227 5
    endloop
  endfacet
  facet normal 0.750123 0.661299 0
    outer loop
      vertex -2.31154 -1.91227 0
      vertex -2.18691 -2.05364 5
      vertex -2.18691 -2.05364 0
    endloop
  endfacet
  facet normal 0.98769 -0.156422 0
    outer loop
      vertex -2.97634 0.375999 5
      vertex -2.94686 0.562143 0
      vertex -2.94686 0.562143 5
    endloop
  endfacet
  facet normal 0.98769 -0.156422 0
    outer loop
      vertex -2.94686 0.562143 0
      vertex -2.97634 0.375999 5
      vertex -2.97634 0.375999 0
    endloop
  endfacet
  facet normal 0.975919 0.218131 0
    outer loop
      vertex -2.90575 -0.746069 5
      vertex -2.94686 -0.562143 0
      vertex -2.94686 -0.562143 5
    endloop
  endfacet
  facet normal 0.975919 0.218131 0
    outer loop
      vertex -2.94686 -0.562143 0
      vertex -2.90575 -0.746069 5
      vertex -2.90575 -0.746069 0
    endloop
  endfacet
  facet normal -0.99556 0.094129 0
    outer loop
      vertex 2.97634 -0.375999 0
      vertex 2.99408 -0.188371 5
      vertex 2.99408 -0.188371 0
    endloop
  endfacet
  facet normal -0.99556 0.094129 0
    outer loop
      vertex 2.99408 -0.188371 5
      vertex 2.97634 -0.375999 0
      vertex 2.97634 -0.375999 5
    endloop
  endfacet
  facet normal 0.960294 -0.27899 0
    outer loop
      vertex -2.90575 0.746069 5
      vertex -2.85317 0.927051 0
      vertex -2.85317 0.927051 5
    endloop
  endfacet
  facet normal 0.960294 -0.27899 0
    outer loop
      vertex -2.85317 0.927051 0
      vertex -2.90575 0.746069 5
      vertex -2.90575 0.746069 0
    endloop
  endfacet
  facet normal 0.509055 -0.860734 0
    outer loop
      vertex -1.60748 2.53298 0
      vertex -1.44526 2.62892 5
      vertex -1.60748 2.53298 5
    endloop
  endfacet
  facet normal 0.509055 -0.860734 0
    outer loop
      vertex -1.44526 2.62892 5
      vertex -1.60748 2.53298 0
      vertex -1.44526 2.62892 0
    endloop
  endfacet
  facet normal 0.156422 -0.98769 0
    outer loop
      vertex -0.562143 2.94686 0
      vertex -0.375999 2.97634 5
      vertex -0.562143 2.94686 5
    endloop
  endfacet
  facet normal 0.156422 -0.98769 0
    outer loop
      vertex -0.375999 2.97634 5
      vertex -0.562143 2.94686 0
      vertex -0.375999 2.97634 0
    endloop
  endfacet
  facet normal 0.999507 0.0314118 0
    outer loop
      vertex -2.99408 -0.188371 5
      vertex -3 0 0
      vertex -3 0 5
    endloop
  endfacet
  facet normal 0.999507 0.0314118 0
    outer loop
      vertex -3 0 0
      vertex -2.99408 -0.188371 5
      vertex -2.99408 -0.188371 0
    endloop
  endfacet
  facet normal -0.0314118 0.999507 0
    outer loop
      vertex 0.188371 -2.99408 0
      vertex 0 -3 5
      vertex 0.188371 -2.99408 5
    endloop
  endfacet
  facet normal -0.0314118 0.999507 0
    outer loop
      vertex 0 -3 5
      vertex 0.188371 -2.99408 0
      vertex 0 -3 0
    endloop
  endfacet
  facet normal 0.562062 -0.827095 0
    outer loop
      vertex -1.76336 2.42705 0
      vertex -1.60748 2.53298 5
      vertex -1.76336 2.42705 5
    endloop
  endfacet
  facet normal 0.562062 -0.827095 0
    outer loop
      vertex -1.60748 2.53298 5
      vertex -1.76336 2.42705 0
      vertex -1.60748 2.53298 0
    endloop
  endfacet
  facet normal 0.860734 0.509055 0
    outer loop
      vertex -2.53298 -1.60748 5
      vertex -2.62892 -1.44526 0
      vertex -2.62892 -1.44526 5
    endloop
  endfacet
  facet normal 0.860734 0.509055 0
    outer loop
      vertex -2.62892 -1.44526 0
      vertex -2.53298 -1.60748 5
      vertex -2.53298 -1.60748 0
    endloop
  endfacet
  facet normal -0.397144 -0.917756 0
    outer loop
      vertex 1.10437 2.78933 0
      vertex 1.27734 2.71448 5
      vertex 1.10437 2.78933 5
    endloop
  endfacet
  facet normal -0.397144 -0.917756 -0
    outer loop
      vertex 1.27734 2.71448 5
      vertex 1.10437 2.78933 0
      vertex 1.27734 2.71448 0
    endloop
  endfacet
  facet normal 0.094129 -0.99556 0
    outer loop
      vertex -0.375999 2.97634 0
      vertex -0.188371 2.99408 5
      vertex -0.375999 2.97634 5
    endloop
  endfacet
  facet normal 0.094129 -0.99556 0
    outer loop
      vertex -0.188371 2.99408 5
      vertex -0.375999 2.97634 0
      vertex -0.188371 2.99408 0
    endloop
  endfacet
  facet normal -0.975919 0.218131 0
    outer loop
      vertex 2.90575 -0.746069 0
      vertex 2.94686 -0.562143 5
      vertex 2.94686 -0.562143 0
    endloop
  endfacet
  facet normal -0.975919 0.218131 0
    outer loop
      vertex 2.94686 -0.562143 5
      vertex 2.90575 -0.746069 0
      vertex 2.90575 -0.746069 5
    endloop
  endfacet
  facet normal -0.891005 0.453993 0
    outer loop
      vertex 2.62892 -1.44526 0
      vertex 2.71448 -1.27734 5
      vertex 2.71448 -1.27734 0
    endloop
  endfacet
  facet normal -0.891005 0.453993 0
    outer loop
      vertex 2.71448 -1.27734 5
      vertex 2.62892 -1.44526 0
      vertex 2.62892 -1.44526 5
    endloop
  endfacet
  facet normal -0.612919 -0.790146 0
    outer loop
      vertex 1.76336 2.42705 0
      vertex 1.91227 2.31154 5
      vertex 1.76336 2.42705 5
    endloop
  endfacet
  facet normal -0.612919 -0.790146 -0
    outer loop
      vertex 1.91227 2.31154 5
      vertex 1.76336 2.42705 0
      vertex 1.91227 2.31154 0
    endloop
  endfacet
  facet normal -0.999507 0.0314118 0
    outer loop
      vertex 2.99408 -0.188371 0
      vertex 3 0 5
      vertex 3 0 0
    endloop
  endfacet
  facet normal -0.999507 0.0314118 0
    outer loop
      vertex 3 0 5
      vertex 2.99408 -0.188371 0
      vertex 2.99408 -0.188371 5
    endloop
  endfacet
  facet normal 0.509055 0.860734 -0
    outer loop
      vertex -1.44526 -2.62892 0
      vertex -1.60748 -2.53298 5
      vertex -1.44526 -2.62892 5
    endloop
  endfacet
  facet normal 0.509055 0.860734 0
    outer loop
      vertex -1.60748 -2.53298 5
      vertex -1.44526 -2.62892 0
      vertex -1.60748 -2.53298 0
    endloop
  endfacet
  facet normal 0.156422 0.98769 -0
    outer loop
      vertex -0.375999 -2.97634 0
      vertex -0.562143 -2.94686 5
      vertex -0.375999 -2.97634 5
    endloop
  endfacet
  facet normal 0.156422 0.98769 0
    outer loop
      vertex -0.562143 -2.94686 5
      vertex -0.375999 -2.97634 0
      vertex -0.562143 -2.94686 0
    endloop
  endfacet
  facet normal 0.940879 -0.338744 0
    outer loop
      vertex -2.85317 0.927051 5
      vertex -2.78933 1.10437 0
      vertex -2.78933 1.10437 5
    endloop
  endfacet
  facet normal 0.940879 -0.338744 0
    outer loop
      vertex -2.78933 1.10437 0
      vertex -2.85317 0.927051 5
      vertex -2.85317 0.927051 0
    endloop
  endfacet
  facet normal 0.999507 -0.0314118 0
    outer loop
      vertex -3 0 5
      vertex -2.99408 0.188371 0
      vertex -2.99408 0.188371 5
    endloop
  endfacet
  facet normal 0.999507 -0.0314118 0
    outer loop
      vertex -2.99408 0.188371 0
      vertex -3 0 5
      vertex -3 0 0
    endloop
  endfacet
  facet normal 0.99556 0.094129 0
    outer loop
      vertex -2.97634 -0.375999 5
      vertex -2.99408 -0.188371 0
      vertex -2.99408 -0.188371 5
    endloop
  endfacet
  facet normal 0.99556 0.094129 0
    outer loop
      vertex -2.99408 -0.188371 0
      vertex -2.97634 -0.375999 5
      vertex -2.97634 -0.375999 0
    endloop
  endfacet
  facet normal -0.338744 0.940879 0
    outer loop
      vertex 1.10437 -2.78933 0
      vertex 0.927051 -2.85317 5
      vertex 1.10437 -2.78933 5
    endloop
  endfacet
  facet normal -0.338744 0.940879 0
    outer loop
      vertex 0.927051 -2.85317 5
      vertex 1.10437 -2.78933 0
      vertex 0.927051 -2.85317 0
    endloop
  endfacet
  facet normal 0.975919 -0.218131 0
    outer loop
      vertex -2.94686 0.562143 5
      vertex -2.90575 0.746069 0
      vertex -2.90575 0.746069 5
    endloop
  endfacet
  facet normal 0.975919 -0.218131 0
    outer loop
      vertex -2.90575 0.746069 0
      vertex -2.94686 0.562143 5
      vertex -2.94686 0.562143 0
    endloop
  endfacet
  facet normal 0.98769 0.156422 0
    outer loop
      vertex -2.94686 -0.562143 5
      vertex -2.97634 -0.375999 0
      vertex -2.97634 -0.375999 5
    endloop
  endfacet
  facet normal 0.98769 0.156422 0
    outer loop
      vertex -2.97634 -0.375999 0
      vertex -2.94686 -0.562143 5
      vertex -2.94686 -0.562143 0
    endloop
  endfacet
  facet normal 0.891005 -0.453993 0
    outer loop
      vertex -2.71448 1.27734 5
      vertex -2.62892 1.44526 0
      vertex -2.62892 1.44526 5
    endloop
  endfacet
  facet normal 0.891005 -0.453993 0
    outer loop
      vertex -2.62892 1.44526 0
      vertex -2.71448 1.27734 5
      vertex -2.71448 1.27734 0
    endloop
  endfacet
  facet normal -0.707107 0.707107 0
    outer loop
      vertex 2.05364 -2.18691 0
      vertex 2.18691 -2.05364 5
      vertex 2.18691 -2.05364 0
    endloop
  endfacet
  facet normal -0.707107 0.707107 0
    outer loop
      vertex 2.18691 -2.05364 5
      vertex 2.05364 -2.18691 0
      vertex 2.05364 -2.18691 5
    endloop
  endfacet
  facet normal -0.98769 0.156422 0
    outer loop
      vertex 2.94686 -0.562143 0
      vertex 2.97634 -0.375999 5
      vertex 2.97634 -0.375999 0
    endloop
  endfacet
  facet normal -0.98769 0.156422 0
    outer loop
      vertex 2.97634 -0.375999 5
      vertex 2.94686 -0.562143 0
      vertex 2.94686 -0.562143 5
    endloop
  endfacet
  facet normal 0.750123 -0.661299 0
    outer loop
      vertex -2.31154 1.91227 5
      vertex -2.18691 2.05364 0
      vertex -2.18691 2.05364 5
    endloop
  endfacet
  facet normal 0.750123 -0.661299 0
    outer loop
      vertex -2.18691 2.05364 0
      vertex -2.31154 1.91227 5
      vertex -2.31154 1.91227 0
    endloop
  endfacet
  facet normal 0.27899 0.960294 -0
    outer loop
      vertex -0.746069 -2.90575 0
      vertex -0.927051 -2.85317 5
      vertex -0.746069 -2.90575 5
    endloop
  endfacet
  facet normal 0.27899 0.960294 0
    outer loop
      vertex -0.927051 -2.85317 5
      vertex -0.746069 -2.90575 0
      vertex -0.927051 -2.85317 0
    endloop
  endfacet
  facet normal -0.156422 -0.98769 0
    outer loop
      vertex 0.375999 2.97634 0
      vertex 0.562143 2.94686 5
      vertex 0.375999 2.97634 5
    endloop
  endfacet
  facet normal -0.156422 -0.98769 -0
    outer loop
      vertex 0.562143 2.94686 5
      vertex 0.375999 2.97634 0
      vertex 0.562143 2.94686 0
    endloop
  endfacet
  facet normal -0.860734 0.509055 0
    outer loop
      vertex 2.53298 -1.60748 0
      vertex 2.62892 -1.44526 5
      vertex 2.62892 -1.44526 0
    endloop
  endfacet
  facet normal -0.860734 0.509055 0
    outer loop
      vertex 2.62892 -1.44526 5
      vertex 2.53298 -1.60748 0
      vertex 2.53298 -1.60748 5
    endloop
  endfacet
  facet normal -0.562062 0.827095 0
    outer loop
      vertex 1.76336 -2.42705 0
      vertex 1.60748 -2.53298 5
      vertex 1.76336 -2.42705 5
    endloop
  endfacet
  facet normal -0.562062 0.827095 0
    outer loop
      vertex 1.60748 -2.53298 5
      vertex 1.76336 -2.42705 0
      vertex 1.60748 -2.53298 0
    endloop
  endfacet
  facet normal -0.612919 0.790146 0
    outer loop
      vertex 1.91227 -2.31154 0
      vertex 1.76336 -2.42705 5
      vertex 1.91227 -2.31154 5
    endloop
  endfacet
  facet normal -0.612919 0.790146 0
    outer loop
      vertex 1.76336 -2.42705 5
      vertex 1.91227 -2.31154 0
      vertex 1.76336 -2.42705 0
    endloop
  endfacet
  facet normal -0.094129 -0.99556 0
    outer loop
      vertex 0.188371 2.99408 0
      vertex 0.375999 2.97634 5
      vertex 0.188371 2.99408 5
    endloop
  endfacet
  facet normal -0.094129 -0.99556 -0
    outer loop
      vertex 0.375999 2.97634 5
      vertex 0.188371 2.99408 0
      vertex 0.375999 2.97634 0
    endloop
  endfacet
  facet normal 0.790146 0.612919 0
    outer loop
      vertex -2.31154 -1.91227 5
      vertex -2.42705 -1.76336 0
      vertex -2.42705 -1.76336 5
    endloop
  endfacet
  facet normal 0.790146 0.612919 0
    outer loop
      vertex -2.42705 -1.76336 0
      vertex -2.31154 -1.91227 5
      vertex -2.31154 -1.91227 0
    endloop
  endfacet
  facet normal 0.827095 -0.562062 0
    outer loop
      vertex -2.53298 1.60748 5
      vertex -2.42705 1.76336 0
      vertex -2.42705 1.76336 5
    endloop
  endfacet
  facet normal 0.827095 -0.562062 0
    outer loop
      vertex -2.42705 1.76336 0
      vertex -2.53298 1.60748 5
      vertex -2.53298 1.60748 0
    endloop
  endfacet
  facet normal 0.891005 0.453993 0
    outer loop
      vertex -2.62892 -1.44526 5
      vertex -2.71448 -1.27734 0
      vertex -2.71448 -1.27734 5
    endloop
  endfacet
  facet normal 0.891005 0.453993 0
    outer loop
      vertex -2.71448 -1.27734 0
      vertex -2.62892 -1.44526 5
      vertex -2.62892 -1.44526 0
    endloop
  endfacet
  facet normal 0.612919 -0.790146 0
    outer loop
      vertex -1.91227 2.31154 0
      vertex -1.76336 2.42705 5
      vertex -1.91227 2.31154 5
    endloop
  endfacet
  facet normal 0.612919 -0.790146 0
    outer loop
      vertex -1.76336 2.42705 5
      vertex -1.91227 2.31154 0
      vertex -1.76336 2.42705 0
    endloop
  endfacet
  facet normal 0.917756 0.397144 0
    outer loop
      vertex -2.71448 -1.27734 5
      vertex -2.78933 -1.10437 0
      vertex -2.78933 -1.10437 5
    endloop
  endfacet
  facet normal 0.917756 0.397144 0
    outer loop
      vertex -2.78933 -1.10437 0
      vertex -2.71448 -1.27734 5
      vertex -2.71448 -1.27734 0
    endloop
  endfacet
  facet normal -0.397144 0.917756 0
    outer loop
      vertex 1.27734 -2.71448 0
      vertex 1.10437 -2.78933 5
      vertex 1.27734 -2.71448 5
    endloop
  endfacet
  facet normal -0.397144 0.917756 0
    outer loop
      vertex 1.10437 -2.78933 5
      vertex 1.27734 -2.71448 0
      vertex 1.10437 -2.78933 0
    endloop
  endfacet
  facet normal 0.707107 -0.707107 0
    outer loop
      vertex -2.18691 2.05364 5
      vertex -2.05364 2.18691 0
      vertex -2.05364 2.18691 5
    endloop
  endfacet
  facet normal 0.707107 -0.707107 0
    outer loop
      vertex -2.05364 2.18691 0
      vertex -2.18691 2.05364 5
      vertex -2.18691 2.05364 0
    endloop
  endfacet
  facet normal 0.99556 -0.094129 0
    outer loop
      vertex -2.99408 0.188371 5
      vertex -2.97634 0.375999 0
      vertex -2.97634 0.375999 5
    endloop
  endfacet
  facet normal 0.99556 -0.094129 0
    outer loop
      vertex -2.97634 0.375999 0
      vertex -2.99408 0.188371 5
      vertex -2.99408 0.188371 0
    endloop
  endfacet
  facet normal 0.397144 0.917756 -0
    outer loop
      vertex -1.10437 -2.78933 0
      vertex -1.27734 -2.71448 5
      vertex -1.10437 -2.78933 5
    endloop
  endfacet
  facet normal 0.397144 0.917756 0
    outer loop
      vertex -1.27734 -2.71448 5
      vertex -1.10437 -2.78933 0
      vertex -1.27734 -2.71448 0
    endloop
  endfacet
  facet normal 0.338744 0.940879 -0
    outer loop
      vertex -0.927051 -2.85317 0
      vertex -1.10437 -2.78933 5
      vertex -0.927051 -2.85317 5
    endloop
  endfacet
  facet normal 0.338744 0.940879 0
    outer loop
      vertex -1.10437 -2.78933 5
      vertex -0.927051 -2.85317 0
      vertex -1.10437 -2.78933 0
    endloop
  endfacet
  facet normal -0.940879 0.338744 0
    outer loop
      vertex 2.78933 -1.10437 0
      vertex 2.85317 -0.927051 5
      vertex 2.85317 -0.927051 0
    endloop
  endfacet
  facet normal -0.940879 0.338744 0
    outer loop
      vertex 2.85317 -0.927051 5
      vertex 2.78933 -1.10437 0
      vertex 2.78933 -1.10437 5
    endloop
  endfacet
  facet normal 0.562062 0.827095 -0
    outer loop
      vertex -1.60748 -2.53298 0
      vertex -1.76336 -2.42705 5
      vertex -1.60748 -2.53298 5
    endloop
  endfacet
  facet normal 0.562062 0.827095 0
    outer loop
      vertex -1.76336 -2.42705 5
      vertex -1.60748 -2.53298 0
      vertex -1.76336 -2.42705 0
    endloop
  endfacet
  facet normal -0.218131 -0.975919 0
    outer loop
      vertex 0.562143 2.94686 0
      vertex 0.746069 2.90575 5
      vertex 0.562143 2.94686 5
    endloop
  endfacet
  facet normal -0.218131 -0.975919 -0
    outer loop
      vertex 0.746069 2.90575 5
      vertex 0.562143 2.94686 0
      vertex 0.746069 2.90575 0
    endloop
  endfacet
  facet normal 0.707107 0.707107 0
    outer loop
      vertex -2.05364 -2.18691 5
      vertex -2.18691 -2.05364 0
      vertex -2.18691 -2.05364 5
    endloop
  endfacet
  facet normal 0.707107 0.707107 0
    outer loop
      vertex -2.18691 -2.05364 0
      vertex -2.05364 -2.18691 5
      vertex -2.05364 -2.18691 0
    endloop
  endfacet
endsolid OpenSCAD_Model
