solid OpenSCAD_Model
  facet normal 1 -0 0
    outer loop
      vertex 25 -25 1
      vertex 25 25 -1
      vertex 25 25 1
    endloop
  endfacet
  facet normal 1 0 0
    outer loop
      vertex 25 25 -1
      vertex 25 -25 1
      vertex 25 -25 -1
    endloop
  endfacet
  facet normal -0 0 1
    outer loop
      vertex -25 25 1
      vertex 25 -25 1
      vertex 25 25 1
    endloop
  endfacet
  facet normal 0 0 1
    outer loop
      vertex 25 -25 1
      vertex -25 25 1
      vertex -25 -25 1
    endloop
  endfacet
  facet normal 0 0 -1
    outer loop
      vertex 25 -25 -1
      vertex 2.5 0 -1
      vertex 25 25 -1
    endloop
  endfacet
  facet normal 0 0 -1
    outer loop
      vertex 25 -25 -1
      vertex 1.76777 -1.76777 -1
      vertex 2.5 0 -1
    endloop
  endfacet
  facet normal 0 0 -1
    outer loop
      vertex 25 -25 -1
      vertex 0 -2.5 -1
      vertex 1.76777 -1.76777 -1
    endloop
  endfacet
  facet normal 0 0 -1
    outer loop
      vertex -25 -25 -1
      vertex 0 -2.5 -1
      vertex 25 -25 -1
    endloop
  endfacet
  facet normal -0 0 -1
    outer loop
      vertex -1.76777 -1.76777 -1
      vertex -25 -25 -1
      vertex -2.5 0 -1
    endloop
  endfacet
  facet normal -0 0 -1
    outer loop
      vertex 0 -2.5 -1
      vertex -25 -25 -1
      vertex -1.76777 -1.76777 -1
    endloop
  endfacet
  facet normal 0 0 -1
    outer loop
      vertex 1.76777 1.76777 -1
      vertex 25 25 -1
      vertex 2.5 0 -1
    endloop
  endfacet
  facet normal 0 0 -1
    outer loop
      vertex 0 2.5 -1
      vertex 25 25 -1
      vertex 1.76777 1.76777 -1
    endloop
  endfacet
  facet normal 0 0 -1
    outer loop
      vertex -25 25 -1
      vertex 0 2.5 -1
      vertex -1.76777 1.76777 -1
    endloop
  endfacet
  facet normal 0 0 -1
    outer loop
      vertex -25 25 -1
      vertex -2.5 0 -1
      vertex -25 -25 -1
    endloop
  endfacet
  facet normal 0 0 -1
    outer loop
      vertex 0 2.5 -1
      vertex -25 25 -1
      vertex 25 25 -1
    endloop
  endfacet
  facet normal 0 0 -1
    outer loop
      vertex -2.5 0 -1
      vertex -25 25 -1
      vertex -1.76777 1.76777 -1
    endloop
  endfacet
  facet normal -1 0 0
    outer loop
      vertex -25 -25 -1
      vertex -25 25 1
      vertex -25 25 -1
    endloop
  endfacet
  facet normal -1 -0 0
    outer loop
      vertex -25 25 1
      vertex -25 -25 -1
      vertex -25 -25 1
    endloop
  endfacet
  facet normal 0 1 -0
    outer loop
      vertex 25 25 -1
      vertex -25 25 1
      vertex 25 25 1
    endloop
  endfacet
  facet normal 0 1 0
    outer loop
      vertex -25 25 1
      vertex 25 25 -1
      vertex -25 25 -1
    endloop
  endfacet
  facet normal 0 -1 0
    outer loop
      vertex -25 -25 -1
      vertex 25 -25 1
      vertex -25 -25 1
    endloop
  endfacet
  facet normal 0 -1 -0
    outer loop
      vertex 25 -25 1
      vertex -25 -25 -1
      vertex 25 -25 -1
    endloop
  endfacet
  facet normal 0.92388 0.382682 0
    outer loop
      vertex -1.76777 -1.76777 0
      vertex -2.5 0 -1
      vertex -2.5 0 0
    endloop
  endfacet
  facet normal 0.92388 0.382682 0
    outer loop
      vertex -2.5 0 -1
      vertex -1.76777 -1.76777 0
      vertex -1.76777 -1.76777 -1
    endloop
  endfacet
  facet normal -0.382682 -0.92388 0
    outer loop
      vertex 0 2.5 -1
      vertex 1.76777 1.76777 0
      vertex 0 2.5 0
    endloop
  endfacet
  facet normal -0.382682 -0.92388 -0
    outer loop
      vertex 1.76777 1.76777 0
      vertex 0 2.5 -1
      vertex 1.76777 1.76777 -1
    endloop
  endfacet
  facet normal -0.92388 -0.382682 0
    outer loop
      vertex 2.5 0 -1
      vertex 1.76777 1.76777 0
      vertex 1.76777 1.76777 -1
    endloop
  endfacet
  facet normal -0.92388 -0.382682 0
    outer loop
      vertex 1.76777 1.76777 0
      vertex 2.5 0 -1
      vertex 2.5 0 0
    endloop
  endfacet
  facet normal -0.92388 0.382682 0
    outer loop
      vertex 1.76777 -1.76777 -1
      vertex 2.5 0 0
      vertex 2.5 0 -1
    endloop
  endfacet
  facet normal -0.92388 0.382682 0
    outer loop
      vertex 2.5 0 0
      vertex 1.76777 -1.76777 -1
      vertex 1.76777 -1.76777 0
    endloop
  endfacet
  facet normal 0.382682 0.92388 -0
    outer loop
      vertex 0 -2.5 -1
      vertex -1.76777 -1.76777 0
      vertex 0 -2.5 0
    endloop
  endfacet
  facet normal 0.382682 0.92388 0
    outer loop
      vertex -1.76777 -1.76777 0
      vertex 0 -2.5 -1
      vertex -1.76777 -1.76777 -1
    endloop
  endfacet
  facet normal 0.92388 -0.382682 0
    outer loop
      vertex -2.5 0 0
      vertex -1.76777 1.76777 -1
      vertex -1.76777 1.76777 0
    endloop
  endfacet
  facet normal 0.92388 -0.382682 0
    outer loop
      vertex -1.76777 1.76777 -1
      vertex -2.5 0 0
      vertex -2.5 0 -1
    endloop
  endfacet
  facet normal -0.382682 0.92388 0
    outer loop
      vertex 1.76777 -1.76777 -1
      vertex 0 -2.5 0
      vertex 1.76777 -1.76777 0
    endloop
  endfacet
  facet normal -0.382682 0.92388 0
    outer loop
      vertex 0 -2.5 0
      vertex 1.76777 -1.76777 -1
      vertex 0 -2.5 -1
    endloop
  endfacet
  facet normal 0 0 -1
    outer loop
      vertex 1.76777 -1.76777 0
      vertex 1.76777 1.76777 0
      vertex 2.5 0 0
    endloop
  endfacet
  facet normal 0 0 -1
    outer loop
      vertex 0 -2.5 0
      vertex 1.76777 1.76777 0
      vertex 1.76777 -1.76777 0
    endloop
  endfacet
  facet normal 0 0 -1
    outer loop
      vertex 0 -2.5 0
      vertex 0 2.5 0
      vertex 1.76777 1.76777 0
    endloop
  endfacet
  facet normal 0 0 -1
    outer loop
      vertex -1.76777 -1.76777 0
      vertex 0 2.5 0
      vertex 0 -2.5 0
    endloop
  endfacet
  facet normal 0 0 -1
    outer loop
      vertex -1.76777 -1.76777 0
      vertex -1.76777 1.76777 0
      vertex 0 2.5 0
    endloop
  endfacet
  facet normal 0 -0 -1
    outer loop
      vertex -1.76777 1.76777 0
      vertex -1.76777 -1.76777 0
      vertex -2.5 0 0
    endloop
  endfacet
  facet normal 0.382682 -0.92388 0
    outer loop
      vertex -1.76777 1.76777 -1
      vertex 0 2.5 0
      vertex -1.76777 1.76777 0
    endloop
  endfacet
  facet normal 0.382682 -0.92388 0
    outer loop
      vertex 0 2.5 0
      vertex -1.76777 1.76777 -1
      vertex 0 2.5 -1
    endloop
  endfacet
  facet normal 1 -0 0
    outer loop
      vertex 25 -25 -3.2
      vertex 25 25 -5.2
      vertex 25 25 -3.2
    endloop
  endfacet
  facet normal 1 0 0
    outer loop
      vertex 25 25 -5.2
      vertex 25 -25 -3.2
      vertex 25 -25 -5.2
    endloop
  endfacet
  facet normal -0 0 1
    outer loop
      vertex -25 25 -3.2
      vertex 25 -25 -3.2
      vertex 25 25 -3.2
    endloop
  endfacet
  facet normal 0 0 1
    outer loop
      vertex 25 -25 -3.2
      vertex -25 25 -3.2
      vertex -25 -25 -3.2
    endloop
  endfacet
  facet normal 0 0 -1
    outer loop
      vertex 25 -25 -5.2
      vertex 2.5 0 -5.2
      vertex 25 25 -5.2
    endloop
  endfacet
  facet normal 0 0 -1
    outer loop
      vertex 25 -25 -5.2
      vertex 1.76777 -1.76777 -5.2
      vertex 2.5 0 -5.2
    endloop
  endfacet
  facet normal 0 0 -1
    outer loop
      vertex 25 -25 -5.2
      vertex 0 -2.5 -5.2
      vertex 1.76777 -1.76777 -5.2
    endloop
  endfacet
  facet normal 0 0 -1
    outer loop
      vertex -25 -25 -5.2
      vertex 0 -2.5 -5.2
      vertex 25 -25 -5.2
    endloop
  endfacet
  facet normal -0 0 -1
    outer loop
      vertex -1.76777 -1.76777 -5.2
      vertex -25 -25 -5.2
      vertex -2.5 0 -5.2
    endloop
  endfacet
  facet normal -0 0 -1
    outer loop
      vertex 0 -2.5 -5.2
      vertex -25 -25 -5.2
      vertex -1.76777 -1.76777 -5.2
    endloop
  endfacet
  facet normal 0 0 -1
    outer loop
      vertex 1.76777 1.76777 -5.2
      vertex 25 25 -5.2
      vertex 2.5 0 -5.2
    endloop
  endfacet
  facet normal 0 0 -1
    outer loop
      vertex 0 2.5 -5.2
      vertex 25 25 -5.2
      vertex 1.76777 1.76777 -5.2
    endloop
  endfacet
  facet normal 0 0 -1
    outer loop
      vertex -25 25 -5.2
      vertex 0 2.5 -5.2
      vertex -1.76777 1.76777 -5.2
    endloop
  endfacet
  facet normal 0 0 -1
    outer loop
      vertex -25 25 -5.2
      vertex -2.5 0 -5.2
      vertex -25 -25 -5.2
    endloop
  endfacet
  facet normal 0 0 -1
    outer loop
      vertex 0 2.5 -5.2
      vertex -25 25 -5.2
      vertex 25 25 -5.2
    endloop
  endfacet
  facet normal 0 0 -1
    outer loop
      vertex -2.5 0 -5.2
      vertex -25 25 -5.2
      vertex -1.76777 1.76777 -5.2
    endloop
  endfacet
  facet normal -1 0 0
    outer loop
      vertex -25 -25 -5.2
      vertex -25 25 -3.2
      vertex -25 25 -5.2
    endloop
  endfacet
  facet normal -1 -0 0
    outer loop
      vertex -25 25 -3.2
      vertex -25 -25 -5.2
      vertex -25 -25 -3.2
    endloop
  endfacet
  facet normal 0 1 -0
    outer loop
      vertex 25 25 -5.2
      vertex -25 25 -3.2
      vertex 25 25 -3.2
    endloop
  endfacet
  facet normal 0 1 0
    outer loop
      vertex -25 25 -3.2
      vertex 25 25 -5.2
      vertex -25 25 -5.2
    endloop
  endfacet
  facet normal 0 -1 0
    outer loop
      vertex -25 -25 -5.2
      vertex 25 -25 -3.2
      vertex -25 -25 -3.2
    endloop
  endfacet
  facet normal 0 -1 -0
    outer loop
      vertex 25 -25 -3.2
      vertex -25 -25 -5.2
      vertex 25 -25 -5.2
    endloop
  endfacet
  facet normal 0.92388 0.382682 0
    outer loop
      vertex -1.76777 -1.76777 -4.2
      vertex -2.5 0 -5.2
      vertex -2.5 0 -4.2
    endloop
  endfacet
  facet normal 0.92388 0.382682 0
    outer loop
      vertex -2.5 0 -5.2
      vertex -1.76777 -1.76777 -4.2
      vertex -1.76777 -1.76777 -5.2
    endloop
  endfacet
  facet normal -0.382682 -0.92388 0
    outer loop
      vertex 0 2.5 -5.2
      vertex 1.76777 1.76777 -4.2
      vertex 0 2.5 -4.2
    endloop
  endfacet
  facet normal -0.382682 -0.92388 -0
    outer loop
      vertex 1.76777 1.76777 -4.2
      vertex 0 2.5 -5.2
      vertex 1.76777 1.76777 -5.2
    endloop
  endfacet
  facet normal -0.92388 -0.382682 0
    outer loop
      vertex 2.5 0 -5.2
      vertex 1.76777 1.76777 -4.2
      vertex 1.76777 1.76777 -5.2
    endloop
  endfacet
  facet normal -0.92388 -0.382682 0
    outer loop
      vertex 1.76777 1.76777 -4.2
      vertex 2.5 0 -5.2
      vertex 2.5 0 -4.2
    endloop
  endfacet
  facet normal -0.92388 0.382682 0
    outer loop
      vertex 1.76777 -1.76777 -5.2
      vertex 2.5 0 -4.2
      vertex 2.5 0 -5.2
    endloop
  endfacet
  facet normal -0.92388 0.382682 0
    outer loop
      vertex 2.5 0 -4.2
      vertex 1.76777 -1.76777 -5.2
      vertex 1.76777 -1.76777 -4.2
    endloop
  endfacet
  facet normal 0.382682 0.92388 -0
    outer loop
      vertex 0 -2.5 -5.2
      vertex -1.76777 -1.76777 -4.2
      vertex 0 -2.5 -4.2
    endloop
  endfacet
  facet normal 0.382682 0.92388 0
    outer loop
      vertex -1.76777 -1.76777 -4.2
      vertex 0 -2.5 -5.2
      vertex -1.76777 -1.76777 -5.2
    endloop
  endfacet
  facet normal 0.92388 -0.382682 0
    outer loop
      vertex -2.5 0 -4.2
      vertex -1.76777 1.76777 -5.2
      vertex -1.76777 1.76777 -4.2
    endloop
  endfacet
  facet normal 0.92388 -0.382682 0
    outer loop
      vertex -1.76777 1.76777 -5.2
      vertex -2.5 0 -4.2
      vertex -2.5 0 -5.2
    endloop
  endfacet
  facet normal -0.382682 0.92388 0
    outer loop
      vertex 1.76777 -1.76777 -5.2
      vertex 0 -2.5 -4.2
      vertex 1.76777 -1.76777 -4.2
    endloop
  endfacet
  facet normal -0.382682 0.92388 0
    outer loop
      vertex 0 -2.5 -4.2
      vertex 1.76777 -1.76777 -5.2
      vertex 0 -2.5 -5.2
    endloop
  endfacet
  facet normal 0 0 -1
    outer loop
      vertex 1.76777 -1.76777 -4.2
      vertex 1.76777 1.76777 -4.2
      vertex 2.5 0 -4.2
    endloop
  endfacet
  facet normal 0 0 -1
    outer loop
      vertex 0 -2.5 -4.2
      vertex 1.76777 1.76777 -4.2
      vertex 1.76777 -1.76777 -4.2
    endloop
  endfacet
  facet normal 0 0 -1
    outer loop
      vertex 0 -2.5 -4.2
      vertex 0 2.5 -4.2
      vertex 1.76777 1.76777 -4.2
    endloop
  endfacet
  facet normal 0 0 -1
    outer loop
      vertex -1.76777 -1.76777 -4.2
      vertex 0 2.5 -4.2
      vertex 0 -2.5 -4.2
    endloop
  endfacet
  facet normal 0 0 -1
    outer loop
      vertex -1.76777 -1.76777 -4.2
      vertex -1.76777 1.76777 -4.2
      vertex 0 2.5 -4.2
    endloop
  endfacet
  facet normal 0 -0 -1
    outer loop
      vertex -1.76777 1.76777 -4.2
      vertex -1.76777 -1.76777 -4.2
      vertex -2.5 0 -4.2
    endloop
  endfacet
  facet normal 0.382682 -0.92388 0
    outer loop
      vertex -1.76777 1.76777 -5.2
      vertex 0 2.5 -4.2
      vertex -1.76777 1.76777 -4.2
    endloop
  endfacet
  facet normal 0.382682 -0.92388 0
    outer loop
      vertex 0 2.5 -4.2
      vertex -1.76777 1.76777 -5.2
      vertex 0 2.5 -5.2
    endloop
  endfacet
  facet normal 1 -0 0
    outer loop
      vertex 25 -25 -7.4
      vertex 25 25 -9.4
      vertex 25 25 -7.4
    endloop
  endfacet
  facet normal 1 0 0
    outer loop
      vertex 25 25 -9.4
      vertex 25 -25 -7.4
      vertex 25 -25 -9.4
    endloop
  endfacet
  facet normal -0 0 1
    outer loop
      vertex -25 25 -7.4
      vertex 25 -25 -7.4
      vertex 25 25 -7.4
    endloop
  endfacet
  facet normal 0 0 1
    outer loop
      vertex 25 -25 -7.4
      vertex -25 25 -7.4
      vertex -25 -25 -7.4
    endloop
  endfacet
  facet normal 0 0 -1
    outer loop
      vertex 25 -25 -9.4
      vertex 2.5 0 -9.4
      vertex 25 25 -9.4
    endloop
  endfacet
  facet normal 0 0 -1
    outer loop
      vertex 25 -25 -9.4
      vertex 1.76777 -1.76777 -9.4
      vertex 2.5 0 -9.4
    endloop
  endfacet
  facet normal 0 0 -1
    outer loop
      vertex 25 -25 -9.4
      vertex 0 -2.5 -9.4
      vertex 1.76777 -1.76777 -9.4
    endloop
  endfacet
  facet normal 0 0 -1
    outer loop
      vertex -25 -25 -9.4
      vertex 0 -2.5 -9.4
      vertex 25 -25 -9.4
    endloop
  endfacet
  facet normal -0 0 -1
    outer loop
      vertex -1.76777 -1.76777 -9.4
      vertex -25 -25 -9.4
      vertex -2.5 0 -9.4
    endloop
  endfacet
  facet normal -0 0 -1
    outer loop
      vertex 0 -2.5 -9.4
      vertex -25 -25 -9.4
      vertex -1.76777 -1.76777 -9.4
    endloop
  endfacet
  facet normal 0 0 -1
    outer loop
      vertex 1.76777 1.76777 -9.4
      vertex 25 25 -9.4
      vertex 2.5 0 -9.4
    endloop
  endfacet
  facet normal 0 0 -1
    outer loop
      vertex 0 2.5 -9.4
      vertex 25 25 -9.4
      vertex 1.76777 1.76777 -9.4
    endloop
  endfacet
  facet normal 0 0 -1
    outer loop
      vertex -25 25 -9.4
      vertex 0 2.5 -9.4
      vertex -1.76777 1.76777 -9.4
    endloop
  endfacet
  facet normal 0 0 -1
    outer loop
      vertex -25 25 -9.4
      vertex -2.5 0 -9.4
      vertex -25 -25 -9.4
    endloop
  endfacet
  facet normal 0 0 -1
    outer loop
      vertex 0 2.5 -9.4
      vertex -25 25 -9.4
      vertex 25 25 -9.4
    endloop
  endfacet
  facet normal 0 0 -1
    outer loop
      vertex -2.5 0 -9.4
      vertex -25 25 -9.4
      vertex -1.76777 1.76777 -9.4
    endloop
  endfacet
  facet normal -1 0 0
    outer loop
      vertex -25 -25 -9.4
      vertex -25 25 -7.4
      vertex -25 25 -9.4
    endloop
  endfacet
  facet normal -1 -0 0
    outer loop
      vertex -25 25 -7.4
      vertex -25 -25 -9.4
      vertex -25 -25 -7.4
    endloop
  endfacet
  facet normal 0 1 -0
    outer loop
      vertex 25 25 -9.4
      vertex -25 25 -7.4
      vertex 25 25 -7.4
    endloop
  endfacet
  facet normal 0 1 0
    outer loop
      vertex -25 25 -7.4
      vertex 25 25 -9.4
      vertex -25 25 -9.4
    endloop
  endfacet
  facet normal 0 -1 0
    outer loop
      vertex -25 -25 -9.4
      vertex 25 -25 -7.4
      vertex -25 -25 -7.4
    endloop
  endfacet
  facet normal 0 -1 -0
    outer loop
      vertex 25 -25 -7.4
      vertex -25 -25 -9.4
      vertex 25 -25 -9.4
    endloop
  endfacet
  facet normal 0.92388 0.382682 0
    outer loop
      vertex -1.76777 -1.76777 -8.4
      vertex -2.5 0 -9.4
      vertex -2.5 0 -8.4
    endloop
  endfacet
  facet normal 0.92388 0.382682 0
    outer loop
      vertex -2.5 0 -9.4
      vertex -1.76777 -1.76777 -8.4
      vertex -1.76777 -1.76777 -9.4
    endloop
  endfacet
  facet normal -0.382682 -0.92388 0
    outer loop
      vertex 0 2.5 -9.4
      vertex 1.76777 1.76777 -8.4
      vertex 0 2.5 -8.4
    endloop
  endfacet
  facet normal -0.382682 -0.92388 -0
    outer loop
      vertex 1.76777 1.76777 -8.4
      vertex 0 2.5 -9.4
      vertex 1.76777 1.76777 -9.4
    endloop
  endfacet
  facet normal -0.92388 -0.382682 0
    outer loop
      vertex 2.5 0 -9.4
      vertex 1.76777 1.76777 -8.4
      vertex 1.76777 1.76777 -9.4
    endloop
  endfacet
  facet normal -0.92388 -0.382682 0
    outer loop
      vertex 1.76777 1.76777 -8.4
      vertex 2.5 0 -9.4
      vertex 2.5 0 -8.4
    endloop
  endfacet
  facet normal -0.92388 0.382682 0
    outer loop
      vertex 1.76777 -1.76777 -9.4
      vertex 2.5 0 -8.4
      vertex 2.5 0 -9.4
    endloop
  endfacet
  facet normal -0.92388 0.382682 0
    outer loop
      vertex 2.5 0 -8.4
      vertex 1.76777 -1.76777 -9.4
      vertex 1.76777 -1.76777 -8.4
    endloop
  endfacet
  facet normal 0.382682 0.92388 -0
    outer loop
      vertex 0 -2.5 -9.4
      vertex -1.76777 -1.76777 -8.4
      vertex 0 -2.5 -8.4
    endloop
  endfacet
  facet normal 0.382682 0.92388 0
    outer loop
      vertex -1.76777 -1.76777 -8.4
      vertex 0 -2.5 -9.4
      vertex -1.76777 -1.76777 -9.4
    endloop
  endfacet
  facet normal 0.92388 -0.382682 0
    outer loop
      vertex -2.5 0 -8.4
      vertex -1.76777 1.76777 -9.4
      vertex -1.76777 1.76777 -8.4
    endloop
  endfacet
  facet normal 0.92388 -0.382682 0
    outer loop
      vertex -1.76777 1.76777 -9.4
      vertex -2.5 0 -8.4
      vertex -2.5 0 -9.4
    endloop
  endfacet
  facet normal -0.382682 0.92388 0
    outer loop
      vertex 1.76777 -1.76777 -9.4
      vertex 0 -2.5 -8.4
      vertex 1.76777 -1.76777 -8.4
    endloop
  endfacet
  facet normal -0.382682 0.92388 0
    outer loop
      vertex 0 -2.5 -8.4
      vertex 1.76777 -1.76777 -9.4
      vertex 0 -2.5 -9.4
    endloop
  endfacet
  facet normal 0 0 -1
    outer loop
      vertex 1.76777 -1.76777 -8.4
      vertex 1.76777 1.76777 -8.4
      vertex 2.5 0 -8.4
    endloop
  endfacet
  facet normal 0 0 -1
    outer loop
      vertex 0 -2.5 -8.4
      vertex 1.76777 1.76777 -8.4
      vertex 1.76777 -1.76777 -8.4
    endloop
  endfacet
  facet normal 0 0 -1
    outer loop
      vertex 0 -2.5 -8.4
      vertex 0 2.5 -8.4
      vertex 1.76777 1.76777 -8.4
    endloop
  endfacet
  facet normal 0 0 -1
    outer loop
      vertex -1.76777 -1.76777 -8.4
      vertex 0 2.5 -8.4
      vertex 0 -2.5 -8.4
    endloop
  endfacet
  facet normal 0 0 -1
    outer loop
      vertex -1.76777 -1.76777 -8.4
      vertex -1.76777 1.76777 -8.4
      vertex 0 2.5 -8.4
    endloop
  endfacet
  facet normal 0 -0 -1
    outer loop
      vertex -1.76777 1.76777 -8.4
      vertex -1.76777 -1.76777 -8.4
      vertex -2.5 0 -8.4
    endloop
  endfacet
  facet normal 0.382682 -0.92388 0
    outer loop
      vertex -1.76777 1.76777 -9.4
      vertex 0 2.5 -8.4
      vertex -1.76777 1.76777 -8.4
    endloop
  endfacet
  facet normal 0.382682 -0.92388 0
    outer loop
      vertex 0 2.5 -8.4
      vertex -1.76777 1.76777 -9.4
      vertex 0 2.5 -9.4
    endloop
  endfacet
  facet normal 1 -0 0
    outer loop
      vertex 25 -25 -11.6
      vertex 25 25 -13.6
      vertex 25 25 -11.6
    endloop
  endfacet
  facet normal 1 0 0
    outer loop
      vertex 25 25 -13.6
      vertex 25 -25 -11.6
      vertex 25 -25 -13.6
    endloop
  endfacet
  facet normal -0 0 1
    outer loop
      vertex -25 25 -11.6
      vertex 25 -25 -11.6
      vertex 25 25 -11.6
    endloop
  endfacet
  facet normal 0 0 1
    outer loop
      vertex 25 -25 -11.6
      vertex -25 25 -11.6
      vertex -25 -25 -11.6
    endloop
  endfacet
  facet normal 0 0 -1
    outer loop
      vertex 25 -25 -13.6
      vertex 2.5 0 -13.6
      vertex 25 25 -13.6
    endloop
  endfacet
  facet normal 0 0 -1
    outer loop
      vertex 25 -25 -13.6
      vertex 1.76777 -1.76777 -13.6
      vertex 2.5 0 -13.6
    endloop
  endfacet
  facet normal 0 0 -1
    outer loop
      vertex 25 -25 -13.6
      vertex 0 -2.5 -13.6
      vertex 1.76777 -1.76777 -13.6
    endloop
  endfacet
  facet normal 0 0 -1
    outer loop
      vertex -25 -25 -13.6
      vertex 0 -2.5 -13.6
      vertex 25 -25 -13.6
    endloop
  endfacet
  facet normal -0 0 -1
    outer loop
      vertex -1.76777 -1.76777 -13.6
      vertex -25 -25 -13.6
      vertex -2.5 0 -13.6
    endloop
  endfacet
  facet normal -0 0 -1
    outer loop
      vertex 0 -2.5 -13.6
      vertex -25 -25 -13.6
      vertex -1.76777 -1.76777 -13.6
    endloop
  endfacet
  facet normal 0 0 -1
    outer loop
      vertex 1.76777 1.76777 -13.6
      vertex 25 25 -13.6
      vertex 2.5 0 -13.6
    endloop
  endfacet
  facet normal 0 0 -1
    outer loop
      vertex 0 2.5 -13.6
      vertex 25 25 -13.6
      vertex 1.76777 1.76777 -13.6
    endloop
  endfacet
  facet normal 0 0 -1
    outer loop
      vertex -25 25 -13.6
      vertex 0 2.5 -13.6
      vertex -1.76777 1.76777 -13.6
    endloop
  endfacet
  facet normal 0 0 -1
    outer loop
      vertex -25 25 -13.6
      vertex -2.5 0 -13.6
      vertex -25 -25 -13.6
    endloop
  endfacet
  facet normal 0 0 -1
    outer loop
      vertex 0 2.5 -13.6
      vertex -25 25 -13.6
      vertex 25 25 -13.6
    endloop
  endfacet
  facet normal 0 0 -1
    outer loop
      vertex -2.5 0 -13.6
      vertex -25 25 -13.6
      vertex -1.76777 1.76777 -13.6
    endloop
  endfacet
  facet normal -1 0 0
    outer loop
      vertex -25 -25 -13.6
      vertex -25 25 -11.6
      vertex -25 25 -13.6
    endloop
  endfacet
  facet normal -1 -0 0
    outer loop
      vertex -25 25 -11.6
      vertex -25 -25 -13.6
      vertex -25 -25 -11.6
    endloop
  endfacet
  facet normal 0 1 -0
    outer loop
      vertex 25 25 -13.6
      vertex -25 25 -11.6
      vertex 25 25 -11.6
    endloop
  endfacet
  facet normal 0 1 0
    outer loop
      vertex -25 25 -11.6
      vertex 25 25 -13.6
      vertex -25 25 -13.6
    endloop
  endfacet
  facet normal 0 -1 0
    outer loop
      vertex -25 -25 -13.6
      vertex 25 -25 -11.6
      vertex -25 -25 -11.6
    endloop
  endfacet
  facet normal 0 -1 -0
    outer loop
      vertex 25 -25 -11.6
      vertex -25 -25 -13.6
      vertex 25 -25 -13.6
    endloop
  endfacet
  facet normal 0.92388 0.382682 0
    outer loop
      vertex -1.76777 -1.76777 -12.6
      vertex -2.5 0 -13.6
      vertex -2.5 0 -12.6
    endloop
  endfacet
  facet normal 0.92388 0.382682 0
    outer loop
      vertex -2.5 0 -13.6
      vertex -1.76777 -1.76777 -12.6
      vertex -1.76777 -1.76777 -13.6
    endloop
  endfacet
  facet normal -0.382682 -0.92388 0
    outer loop
      vertex 0 2.5 -13.6
      vertex 1.76777 1.76777 -12.6
      vertex 0 2.5 -12.6
    endloop
  endfacet
  facet normal -0.382682 -0.92388 -0
    outer loop
      vertex 1.76777 1.76777 -12.6
      vertex 0 2.5 -13.6
      vertex 1.76777 1.76777 -13.6
    endloop
  endfacet
  facet normal -0.92388 -0.382682 0
    outer loop
      vertex 2.5 0 -13.6
      vertex 1.76777 1.76777 -12.6
      vertex 1.76777 1.76777 -13.6
    endloop
  endfacet
  facet normal -0.92388 -0.382682 0
    outer loop
      vertex 1.76777 1.76777 -12.6
      vertex 2.5 0 -13.6
      vertex 2.5 0 -12.6
    endloop
  endfacet
  facet normal -0.92388 0.382682 0
    outer loop
      vertex 1.76777 -1.76777 -13.6
      vertex 2.5 0 -12.6
      vertex 2.5 0 -13.6
    endloop
  endfacet
  facet normal -0.92388 0.382682 0
    outer loop
      vertex 2.5 0 -12.6
      vertex 1.76777 -1.76777 -13.6
      vertex 1.76777 -1.76777 -12.6
    endloop
  endfacet
  facet normal 0.382682 0.92388 -0
    outer loop
      vertex 0 -2.5 -13.6
      vertex -1.76777 -1.76777 -12.6
      vertex 0 -2.5 -12.6
    endloop
  endfacet
  facet normal 0.382682 0.92388 0
    outer loop
      vertex -1.76777 -1.76777 -12.6
      vertex 0 -2.5 -13.6
      vertex -1.76777 -1.76777 -13.6
    endloop
  endfacet
  facet normal 0.92388 -0.382682 0
    outer loop
      vertex -2.5 0 -12.6
      vertex -1.76777 1.76777 -13.6
      vertex -1.76777 1.76777 -12.6
    endloop
  endfacet
  facet normal 0.92388 -0.382682 0
    outer loop
      vertex -1.76777 1.76777 -13.6
      vertex -2.5 0 -12.6
      vertex -2.5 0 -13.6
    endloop
  endfacet
  facet normal -0.382682 0.92388 0
    outer loop
      vertex 1.76777 -1.76777 -13.6
      vertex 0 -2.5 -12.6
      vertex 1.76777 -1.76777 -12.6
    endloop
  endfacet
  facet normal -0.382682 0.92388 0
    outer loop
      vertex 0 -2.5 -12.6
      vertex 1.76777 -1.76777 -13.6
      vertex 0 -2.5 -13.6
    endloop
  endfacet
  facet normal 0 0 -1
    outer loop
      vertex 1.76777 -1.76777 -12.6
      vertex 1.76777 1.76777 -12.6
      vertex 2.5 0 -12.6
    endloop
  endfacet
  facet normal 0 0 -1
    outer loop
      vertex 0 -2.5 -12.6
      vertex 1.76777 1.76777 -12.6
      vertex 1.76777 -1.76777 -12.6
    endloop
  endfacet
  facet normal 0 0 -1
    outer loop
      vertex 0 -2.5 -12.6
      vertex 0 2.5 -12.6
      vertex 1.76777 1.76777 -12.6
    endloop
  endfacet
  facet normal 0 0 -1
    outer loop
      vertex -1.76777 -1.76777 -12.6
      vertex 0 2.5 -12.6
      vertex 0 -2.5 -12.6
    endloop
  endfacet
  facet normal 0 0 -1
    outer loop
      vertex -1.76777 -1.76777 -12.6
      vertex -1.76777 1.76777 -12.6
      vertex 0 2.5 -12.6
    endloop
  endfacet
  facet normal 0 -0 -1
    outer loop
      vertex -1.76777 1.76777 -12.6
      vertex -1.76777 -1.76777 -12.6
      vertex -2.5 0 -12.6
    endloop
  endfacet
  facet normal 0.382682 -0.92388 0
    outer loop
      vertex -1.76777 1.76777 -13.6
      vertex 0 2.5 -12.6
      vertex -1.76777 1.76777 -12.6
    endloop
  endfacet
  facet normal 0.382682 -0.92388 0
    outer loop
      vertex 0 2.5 -12.6
      vertex -1.76777 1.76777 -13.6
      vertex 0 2.5 -13.6
    endloop
  endfacet
  facet normal 1 -0 0
    outer loop
      vertex 25 -25 -15.8
      vertex 25 25 -17.8
      vertex 25 25 -15.8
    endloop
  endfacet
  facet normal 1 0 0
    outer loop
      vertex 25 25 -17.8
      vertex 25 -25 -15.8
      vertex 25 -25 -17.8
    endloop
  endfacet
  facet normal -0 0 1
    outer loop
      vertex -25 25 -15.8
      vertex 25 -25 -15.8
      vertex 25 25 -15.8
    endloop
  endfacet
  facet normal 0 0 1
    outer loop
      vertex 25 -25 -15.8
      vertex -25 25 -15.8
      vertex -25 -25 -15.8
    endloop
  endfacet
  facet normal 0 0 -1
    outer loop
      vertex 25 -25 -17.8
      vertex 2.5 0 -17.8
      vertex 25 25 -17.8
    endloop
  endfacet
  facet normal 0 0 -1
    outer loop
      vertex 25 -25 -17.8
      vertex 1.76777 -1.76777 -17.8
      vertex 2.5 0 -17.8
    endloop
  endfacet
  facet normal 0 0 -1
    outer loop
      vertex 25 -25 -17.8
      vertex 0 -2.5 -17.8
      vertex 1.76777 -1.76777 -17.8
    endloop
  endfacet
  facet normal 0 0 -1
    outer loop
      vertex -25 -25 -17.8
      vertex 0 -2.5 -17.8
      vertex 25 -25 -17.8
    endloop
  endfacet
  facet normal -0 0 -1
    outer loop
      vertex -1.76777 -1.76777 -17.8
      vertex -25 -25 -17.8
      vertex -2.5 0 -17.8
    endloop
  endfacet
  facet normal -0 0 -1
    outer loop
      vertex 0 -2.5 -17.8
      vertex -25 -25 -17.8
      vertex -1.76777 -1.76777 -17.8
    endloop
  endfacet
  facet normal 0 0 -1
    outer loop
      vertex 1.76777 1.76777 -17.8
      vertex 25 25 -17.8
      vertex 2.5 0 -17.8
    endloop
  endfacet
  facet normal 0 0 -1
    outer loop
      vertex 0 2.5 -17.8
      vertex 25 25 -17.8
      vertex 1.76777 1.76777 -17.8
    endloop
  endfacet
  facet normal 0 0 -1
    outer loop
      vertex -25 25 -17.8
      vertex 0 2.5 -17.8
      vertex -1.76777 1.76777 -17.8
    endloop
  endfacet
  facet normal 0 0 -1
    outer loop
      vertex -25 25 -17.8
      vertex -2.5 0 -17.8
      vertex -25 -25 -17.8
    endloop
  endfacet
  facet normal 0 0 -1
    outer loop
      vertex 0 2.5 -17.8
      vertex -25 25 -17.8
      vertex 25 25 -17.8
    endloop
  endfacet
  facet normal 0 0 -1
    outer loop
      vertex -2.5 0 -17.8
      vertex -25 25 -17.8
      vertex -1.76777 1.76777 -17.8
    endloop
  endfacet
  facet normal -1 0 0
    outer loop
      vertex -25 -25 -17.8
      vertex -25 25 -15.8
      vertex -25 25 -17.8
    endloop
  endfacet
  facet normal -1 -0 0
    outer loop
      vertex -25 25 -15.8
      vertex -25 -25 -17.8
      vertex -25 -25 -15.8
    endloop
  endfacet
  facet normal 0 1 -0
    outer loop
      vertex 25 25 -17.8
      vertex -25 25 -15.8
      vertex 25 25 -15.8
    endloop
  endfacet
  facet normal 0 1 0
    outer loop
      vertex -25 25 -15.8
      vertex 25 25 -17.8
      vertex -25 25 -17.8
    endloop
  endfacet
  facet normal 0 -1 0
    outer loop
      vertex -25 -25 -17.8
      vertex 25 -25 -15.8
      vertex -25 -25 -15.8
    endloop
  endfacet
  facet normal 0 -1 -0
    outer loop
      vertex 25 -25 -15.8
      vertex -25 -25 -17.8
      vertex 25 -25 -17.8
    endloop
  endfacet
  facet normal 0.92388 0.382682 0
    outer loop
      vertex -1.76777 -1.76777 -16.8
      vertex -2.5 0 -17.8
      vertex -2.5 0 -16.8
    endloop
  endfacet
  facet normal 0.92388 0.382682 0
    outer loop
      vertex -2.5 0 -17.8
      vertex -1.76777 -1.76777 -16.8
      vertex -1.76777 -1.76777 -17.8
    endloop
  endfacet
  facet normal -0.382682 -0.92388 0
    outer loop
      vertex 0 2.5 -17.8
      vertex 1.76777 1.76777 -16.8
      vertex 0 2.5 -16.8
    endloop
  endfacet
  facet normal -0.382682 -0.92388 -0
    outer loop
      vertex 1.76777 1.76777 -16.8
      vertex 0 2.5 -17.8
      vertex 1.76777 1.76777 -17.8
    endloop
  endfacet
  facet normal -0.92388 -0.382682 0
    outer loop
      vertex 2.5 0 -17.8
      vertex 1.76777 1.76777 -16.8
      vertex 1.76777 1.76777 -17.8
    endloop
  endfacet
  facet normal -0.92388 -0.382682 0
    outer loop
      vertex 1.76777 1.76777 -16.8
      vertex 2.5 0 -17.8
      vertex 2.5 0 -16.8
    endloop
  endfacet
  facet normal -0.92388 0.382682 0
    outer loop
      vertex 1.76777 -1.76777 -17.8
      vertex 2.5 0 -16.8
      vertex 2.5 0 -17.8
    endloop
  endfacet
  facet normal -0.92388 0.382682 0
    outer loop
      vertex 2.5 0 -16.8
      vertex 1.76777 -1.76777 -17.8
      vertex 1.76777 -1.76777 -16.8
    endloop
  endfacet
  facet normal 0.382682 0.92388 -0
    outer loop
      vertex 0 -2.5 -17.8
      vertex -1.76777 -1.76777 -16.8
      vertex 0 -2.5 -16.8
    endloop
  endfacet
  facet normal 0.382682 0.92388 0
    outer loop
      vertex -1.76777 -1.76777 -16.8
      vertex 0 -2.5 -17.8
      vertex -1.76777 -1.76777 -17.8
    endloop
  endfacet
  facet normal 0.92388 -0.382682 0
    outer loop
      vertex -2.5 0 -16.8
      vertex -1.76777 1.76777 -17.8
      vertex -1.76777 1.76777 -16.8
    endloop
  endfacet
  facet normal 0.92388 -0.382682 0
    outer loop
      vertex -1.76777 1.76777 -17.8
      vertex -2.5 0 -16.8
      vertex -2.5 0 -17.8
    endloop
  endfacet
  facet normal -0.382682 0.92388 0
    outer loop
      vertex 1.76777 -1.76777 -17.8
      vertex 0 -2.5 -16.8
      vertex 1.76777 -1.76777 -16.8
    endloop
  endfacet
  facet normal -0.382682 0.92388 0
    outer loop
      vertex 0 -2.5 -16.8
      vertex 1.76777 -1.76777 -17.8
      vertex 0 -2.5 -17.8
    endloop
  endfacet
  facet normal 0 0 -1
    outer loop
      vertex 1.76777 -1.76777 -16.8
      vertex 1.76777 1.76777 -16.8
      vertex 2.5 0 -16.8
    endloop
  endfacet
  facet normal 0 0 -1
    outer loop
      vertex 0 -2.5 -16.8
      vertex 1.76777 1.76777 -16.8
      vertex 1.76777 -1.76777 -16.8
    endloop
  endfacet
  facet normal 0 0 -1
    outer loop
      vertex 0 -2.5 -16.8
      vertex 0 2.5 -16.8
      vertex 1.76777 1.76777 -16.8
    endloop
  endfacet
  facet normal 0 0 -1
    outer loop
      vertex -1.76777 -1.76777 -16.8
      vertex 0 2.5 -16.8
      vertex 0 -2.5 -16.8
    endloop
  endfacet
  facet normal 0 0 -1
    outer loop
      vertex -1.76777 -1.76777 -16.8
      vertex -1.76777 1.76777 -16.8
      vertex 0 2.5 -16.8
    endloop
  endfacet
  facet normal 0 -0 -1
    outer loop
      vertex -1.76777 1.76777 -16.8
      vertex -1.76777 -1.76777 -16.8
      vertex -2.5 0 -16.8
    endloop
  endfacet
  facet normal 0.382682 -0.92388 0
    outer loop
      vertex -1.76777 1.76777 -17.8
      vertex 0 2.5 -16.8
      vertex -1.76777 1.76777 -16.8
    endloop
  endfacet
  facet normal 0.382682 -0.92388 0
    outer loop
      vertex 0 2.5 -16.8
      vertex -1.76777 1.76777 -17.8
      vertex 0 2.5 -17.8
    endloop
  endfacet
  facet normal 1 -0 0
    outer loop
      vertex 25 -25 -20
      vertex 25 25 -22
      vertex 25 25 -20
    endloop
  endfacet
  facet normal 1 0 0
    outer loop
      vertex 25 25 -22
      vertex 25 -25 -20
      vertex 25 -25 -22
    endloop
  endfacet
  facet normal -0 0 1
    outer loop
      vertex -25 25 -20
      vertex 25 -25 -20
      vertex 25 25 -20
    endloop
  endfacet
  facet normal 0 0 1
    outer loop
      vertex 25 -25 -20
      vertex -25 25 -20
      vertex -25 -25 -20
    endloop
  endfacet
  facet normal 0 0 -1
    outer loop
      vertex 25 -25 -22
      vertex 2.5 0 -22
      vertex 25 25 -22
    endloop
  endfacet
  facet normal 0 0 -1
    outer loop
      vertex 25 -25 -22
      vertex 1.76777 -1.76777 -22
      vertex 2.5 0 -22
    endloop
  endfacet
  facet normal 0 0 -1
    outer loop
      vertex 25 -25 -22
      vertex 0 -2.5 -22
      vertex 1.76777 -1.76777 -22
    endloop
  endfacet
  facet normal 0 0 -1
    outer loop
      vertex -25 -25 -22
      vertex 0 -2.5 -22
      vertex 25 -25 -22
    endloop
  endfacet
  facet normal -0 0 -1
    outer loop
      vertex -1.76777 -1.76777 -22
      vertex -25 -25 -22
      vertex -2.5 0 -22
    endloop
  endfacet
  facet normal -0 0 -1
    outer loop
      vertex 0 -2.5 -22
      vertex -25 -25 -22
      vertex -1.76777 -1.76777 -22
    endloop
  endfacet
  facet normal 0 0 -1
    outer loop
      vertex 1.76777 1.76777 -22
      vertex 25 25 -22
      vertex 2.5 0 -22
    endloop
  endfacet
  facet normal 0 0 -1
    outer loop
      vertex 0 2.5 -22
      vertex 25 25 -22
      vertex 1.76777 1.76777 -22
    endloop
  endfacet
  facet normal 0 0 -1
    outer loop
      vertex -25 25 -22
      vertex 0 2.5 -22
      vertex -1.76777 1.76777 -22
    endloop
  endfacet
  facet normal 0 0 -1
    outer loop
      vertex -25 25 -22
      vertex -2.5 0 -22
      vertex -25 -25 -22
    endloop
  endfacet
  facet normal 0 0 -1
    outer loop
      vertex 0 2.5 -22
      vertex -25 25 -22
      vertex 25 25 -22
    endloop
  endfacet
  facet normal 0 0 -1
    outer loop
      vertex -2.5 0 -22
      vertex -25 25 -22
      vertex -1.76777 1.76777 -22
    endloop
  endfacet
  facet normal -1 0 0
    outer loop
      vertex -25 -25 -22
      vertex -25 25 -20
      vertex -25 25 -22
    endloop
  endfacet
  facet normal -1 -0 0
    outer loop
      vertex -25 25 -20
      vertex -25 -25 -22
      vertex -25 -25 -20
    endloop
  endfacet
  facet normal 0 1 -0
    outer loop
      vertex 25 25 -22
      vertex -25 25 -20
      vertex 25 25 -20
    endloop
  endfacet
  facet normal 0 1 0
    outer loop
      vertex -25 25 -20
      vertex 25 25 -22
      vertex -25 25 -22
    endloop
  endfacet
  facet normal 0 -1 0
    outer loop
      vertex -25 -25 -22
      vertex 25 -25 -20
      vertex -25 -25 -20
    endloop
  endfacet
  facet normal 0 -1 -0
    outer loop
      vertex 25 -25 -20
      vertex -25 -25 -22
      vertex 25 -25 -22
    endloop
  endfacet
  facet normal 0.92388 0.382682 0
    outer loop
      vertex -1.76777 -1.76777 -21
      vertex -2.5 0 -22
      vertex -2.5 0 -21
    endloop
  endfacet
  facet normal 0.92388 0.382682 0
    outer loop
      vertex -2.5 0 -22
      vertex -1.76777 -1.76777 -21
      vertex -1.76777 -1.76777 -22
    endloop
  endfacet
  facet normal -0.382682 -0.92388 0
    outer loop
      vertex 0 2.5 -22
      vertex 1.76777 1.76777 -21
      vertex 0 2.5 -21
    endloop
  endfacet
  facet normal -0.382682 -0.92388 -0
    outer loop
      vertex 1.76777 1.76777 -21
      vertex 0 2.5 -22
      vertex 1.76777 1.76777 -22
    endloop
  endfacet
  facet normal -0.92388 -0.382682 0
    outer loop
      vertex 2.5 0 -22
      vertex 1.76777 1.76777 -21
      vertex 1.76777 1.76777 -22
    endloop
  endfacet
  facet normal -0.92388 -0.382682 0
    outer loop
      vertex 1.76777 1.76777 -21
      vertex 2.5 0 -22
      vertex 2.5 0 -21
    endloop
  endfacet
  facet normal -0.92388 0.382682 0
    outer loop
      vertex 1.76777 -1.76777 -22
      vertex 2.5 0 -21
      vertex 2.5 0 -22
    endloop
  endfacet
  facet normal -0.92388 0.382682 0
    outer loop
      vertex 2.5 0 -21
      vertex 1.76777 -1.76777 -22
      vertex 1.76777 -1.76777 -21
    endloop
  endfacet
  facet normal 0.382682 0.92388 -0
    outer loop
      vertex 0 -2.5 -22
      vertex -1.76777 -1.76777 -21
      vertex 0 -2.5 -21
    endloop
  endfacet
  facet normal 0.382682 0.92388 0
    outer loop
      vertex -1.76777 -1.76777 -21
      vertex 0 -2.5 -22
      vertex -1.76777 -1.76777 -22
    endloop
  endfacet
  facet normal 0.92388 -0.382682 0
    outer loop
      vertex -2.5 0 -21
      vertex -1.76777 1.76777 -22
      vertex -1.76777 1.76777 -21
    endloop
  endfacet
  facet normal 0.92388 -0.382682 0
    outer loop
      vertex -1.76777 1.76777 -22
      vertex -2.5 0 -21
      vertex -2.5 0 -22
    endloop
  endfacet
  facet normal -0.382682 0.92388 0
    outer loop
      vertex 1.76777 -1.76777 -22
      vertex 0 -2.5 -21
      vertex 1.76777 -1.76777 -21
    endloop
  endfacet
  facet normal -0.382682 0.92388 0
    outer loop
      vertex 0 -2.5 -21
      vertex 1.76777 -1.76777 -22
      vertex 0 -2.5 -22
    endloop
  endfacet
  facet normal 0 0 -1
    outer loop
      vertex 1.76777 -1.76777 -21
      vertex 1.76777 1.76777 -21
      vertex 2.5 0 -21
    endloop
  endfacet
  facet normal 0 0 -1
    outer loop
      vertex 0 -2.5 -21
      vertex 1.76777 1.76777 -21
      vertex 1.76777 -1.76777 -21
    endloop
  endfacet
  facet normal 0 0 -1
    outer loop
      vertex 0 -2.5 -21
      vertex 0 2.5 -21
      vertex 1.76777 1.76777 -21
    endloop
  endfacet
  facet normal 0 0 -1
    outer loop
      vertex -1.76777 -1.76777 -21
      vertex 0 2.5 -21
      vertex 0 -2.5 -21
    endloop
  endfacet
  facet normal 0 0 -1
    outer loop
      vertex -1.76777 -1.76777 -21
      vertex -1.76777 1.76777 -21
      vertex 0 2.5 -21
    endloop
  endfacet
  facet normal 0 -0 -1
    outer loop
      vertex -1.76777 1.76777 -21
      vertex -1.76777 -1.76777 -21
      vertex -2.5 0 -21
    endloop
  endfacet
  facet normal 0.382682 -0.92388 0
    outer loop
      vertex -1.76777 1.76777 -22
      vertex 0 2.5 -21
      vertex -1.76777 1.76777 -21
    endloop
  endfacet
  facet normal 0.382682 -0.92388 0
    outer loop
      vertex 0 2.5 -21
      vertex -1.76777 1.76777 -22
      vertex 0 2.5 -22
    endloop
  endfacet
endsolid OpenSCAD_Model
