solid OpenSCAD_Model
  facet normal -0.743147 0.669128 0
    outer loop
      vertex -14.1578 10.2862 0
      vertex -11.7098 13.005 20
      vertex -11.7098 13.005 0
    endloop
  endfacet
  facet normal -0.743147 0.669128 0
    outer loop
      vertex -11.7098 13.005 20
      vertex -14.1578 10.2862 0
      vertex -14.1578 10.2862 20
    endloop
  endfacet
  facet normal 0.951052 0.309032 0
    outer loop
      vertex 17.1176 3.63845 20
      vertex 15.987 7.11789 0
      vertex 15.987 7.11789 20
    endloop
  endfacet
  facet normal 0.951052 0.309032 0
    outer loop
      vertex 15.987 7.11789 0
      vertex 17.1176 3.63845 20
      vertex 17.1176 3.63845 0
    endloop
  endfacet
  facet normal 0.994522 0.104524 0
    outer loop
      vertex 17.5 0 20
      vertex 17.1176 3.63845 0
      vertex 17.1176 3.63845 20
    endloop
  endfacet
  facet normal 0.994522 0.104524 0
    outer loop
      vertex 17.1176 3.63845 0
      vertex 17.5 0 20
      vertex 17.5 0 0
    endloop
  endfacet
  facet normal 0.866028 0.499995 0
    outer loop
      vertex 15.987 7.11789 20
      vertex 14.1578 10.2862 0
      vertex 14.1578 10.2862 20
    endloop
  endfacet
  facet normal 0.866028 0.499995 0
    outer loop
      vertex 14.1578 10.2862 0
      vertex 15.987 7.11789 20
      vertex 15.987 7.11789 0
    endloop
  endfacet
  facet normal 0.951052 -0.309032 0
    outer loop
      vertex 15.987 -7.11789 20
      vertex 17.1176 -3.63845 0
      vertex 17.1176 -3.63845 20
    endloop
  endfacet
  facet normal 0.951052 -0.309032 0
    outer loop
      vertex 17.1176 -3.63845 0
      vertex 15.987 -7.11789 20
      vertex 15.987 -7.11789 0
    endloop
  endfacet
  facet normal -0.866028 -0.499995 0
    outer loop
      vertex -14.1578 -10.2862 0
      vertex -15.987 -7.11789 20
      vertex -15.987 -7.11789 0
    endloop
  endfacet
  facet normal -0.866028 -0.499995 0
    outer loop
      vertex -15.987 -7.11789 20
      vertex -14.1578 -10.2862 0
      vertex -14.1578 -10.2862 20
    endloop
  endfacet
  facet normal 0.994522 -0.104524 0
    outer loop
      vertex 17.1176 -3.63845 20
      vertex 17.5 0 0
      vertex 17.5 0 20
    endloop
  endfacet
  facet normal 0.994522 -0.104524 0
    outer loop
      vertex 17.5 0 0
      vertex 17.1176 -3.63845 20
      vertex 17.1176 -3.63845 0
    endloop
  endfacet
  facet normal -0.587782 0.80902 0
    outer loop
      vertex -8.75 15.1554 0
      vertex -11.7098 13.005 20
      vertex -8.75 15.1554 20
    endloop
  endfacet
  facet normal -0.587782 0.80902 0
    outer loop
      vertex -11.7098 13.005 20
      vertex -8.75 15.1554 0
      vertex -11.7098 13.005 0
    endloop
  endfacet
  facet normal 0.743147 0.669128 0
    outer loop
      vertex 14.1578 10.2862 20
      vertex 11.7098 13.005 0
      vertex 11.7098 13.005 20
    endloop
  endfacet
  facet normal 0.743147 0.669128 0
    outer loop
      vertex 11.7098 13.005 0
      vertex 14.1578 10.2862 20
      vertex 14.1578 10.2862 0
    endloop
  endfacet
  facet normal 0.40675 0.91354 -0
    outer loop
      vertex 8.75 15.1554 0
      vertex 5.4078 16.6435 20
      vertex 8.75 15.1554 20
    endloop
  endfacet
  facet normal 0.40675 0.91354 0
    outer loop
      vertex 5.4078 16.6435 20
      vertex 8.75 15.1554 0
      vertex 5.4078 16.6435 0
    endloop
  endfacet
  facet normal 0.743147 -0.669128 0
    outer loop
      vertex 11.7098 -13.005 20
      vertex 14.1578 -10.2862 0
      vertex 14.1578 -10.2862 20
    endloop
  endfacet
  facet normal 0.743147 -0.669128 0
    outer loop
      vertex 14.1578 -10.2862 0
      vertex 11.7098 -13.005 20
      vertex 11.7098 -13.005 0
    endloop
  endfacet
  facet normal -0.2079 -0.97815 0
    outer loop
      vertex -5.4078 -16.6435 0
      vertex -1.82925 -17.4041 20
      vertex -5.4078 -16.6435 20
    endloop
  endfacet
  facet normal -0.2079 -0.97815 -0
    outer loop
      vertex -1.82925 -17.4041 20
      vertex -5.4078 -16.6435 0
      vertex -1.82925 -17.4041 0
    endloop
  endfacet
  facet normal 0.866028 -0.499995 0
    outer loop
      vertex 14.1578 -10.2862 20
      vertex 15.987 -7.11789 0
      vertex 15.987 -7.11789 20
    endloop
  endfacet
  facet normal 0.866028 -0.499995 0
    outer loop
      vertex 15.987 -7.11789 0
      vertex 14.1578 -10.2862 20
      vertex 14.1578 -10.2862 0
    endloop
  endfacet
  facet normal -0.40675 -0.91354 0
    outer loop
      vertex -8.75 -15.1554 0
      vertex -5.4078 -16.6435 20
      vertex -8.75 -15.1554 20
    endloop
  endfacet
  facet normal -0.40675 -0.91354 -0
    outer loop
      vertex -5.4078 -16.6435 20
      vertex -8.75 -15.1554 0
      vertex -5.4078 -16.6435 0
    endloop
  endfacet
  facet normal -0.40675 0.91354 0
    outer loop
      vertex -5.4078 16.6435 0
      vertex -8.75 15.1554 20
      vertex -5.4078 16.6435 20
    endloop
  endfacet
  facet normal -0.40675 0.91354 0
    outer loop
      vertex -8.75 15.1554 20
      vertex -5.4078 16.6435 0
      vertex -8.75 15.1554 0
    endloop
  endfacet
  facet normal -0.951052 0.309032 0
    outer loop
      vertex -17.1176 3.63845 0
      vertex -15.987 7.11789 20
      vertex -15.987 7.11789 0
    endloop
  endfacet
  facet normal -0.951052 0.309032 0
    outer loop
      vertex -15.987 7.11789 20
      vertex -17.1176 3.63845 0
      vertex -17.1176 3.63845 20
    endloop
  endfacet
  facet normal 0.2079 -0.97815 0
    outer loop
      vertex 1.82925 -17.4041 0
      vertex 5.4078 -16.6435 20
      vertex 1.82925 -17.4041 20
    endloop
  endfacet
  facet normal 0.2079 -0.97815 0
    outer loop
      vertex 5.4078 -16.6435 20
      vertex 1.82925 -17.4041 0
      vertex 5.4078 -16.6435 0
    endloop
  endfacet
  facet normal 0.2079 0.97815 -0
    outer loop
      vertex 5.4078 16.6435 0
      vertex 1.82925 17.4041 20
      vertex 5.4078 16.6435 20
    endloop
  endfacet
  facet normal 0.2079 0.97815 0
    outer loop
      vertex 1.82925 17.4041 20
      vertex 5.4078 16.6435 0
      vertex 1.82925 17.4041 0
    endloop
  endfacet
  facet normal 0.40675 -0.91354 0
    outer loop
      vertex 5.4078 -16.6435 0
      vertex 8.75 -15.1554 20
      vertex 5.4078 -16.6435 20
    endloop
  endfacet
  facet normal 0.40675 -0.91354 0
    outer loop
      vertex 8.75 -15.1554 20
      vertex 5.4078 -16.6435 0
      vertex 8.75 -15.1554 0
    endloop
  endfacet
  facet normal -0.951052 -0.309032 0
    outer loop
      vertex -15.987 -7.11789 0
      vertex -17.1176 -3.63845 20
      vertex -17.1176 -3.63845 0
    endloop
  endfacet
  facet normal -0.951052 -0.309032 0
    outer loop
      vertex -17.1176 -3.63845 20
      vertex -15.987 -7.11789 0
      vertex -15.987 -7.11789 20
    endloop
  endfacet
  facet normal -0.994522 0.104524 0
    outer loop
      vertex -17.5 0 0
      vertex -17.1176 3.63845 20
      vertex -17.1176 3.63845 0
    endloop
  endfacet
  facet normal -0.994522 0.104524 0
    outer loop
      vertex -17.1176 3.63845 20
      vertex -17.5 0 0
      vertex -17.5 0 20
    endloop
  endfacet
  facet normal -0.2079 0.97815 0
    outer loop
      vertex -1.82925 17.4041 0
      vertex -5.4078 16.6435 20
      vertex -1.82925 17.4041 20
    endloop
  endfacet
  facet normal -0.2079 0.97815 0
    outer loop
      vertex -5.4078 16.6435 20
      vertex -1.82925 17.4041 0
      vertex -5.4078 16.6435 0
    endloop
  endfacet
  facet normal 0.587782 0.80902 -0
    outer loop
      vertex 11.7098 13.005 0
      vertex 8.75 15.1554 20
      vertex 11.7098 13.005 20
    endloop
  endfacet
  facet normal 0.587782 0.80902 0
    outer loop
      vertex 8.75 15.1554 20
      vertex 11.7098 13.005 0
      vertex 8.75 15.1554 0
    endloop
  endfacet
  facet normal 0 0 1
    outer loop
      vertex 7.5 0 20
      vertex 17.5 0 20
      vertex 17.1176 3.63845 20
    endloop
  endfacet
  facet normal 0 0 1
    outer loop
      vertex 7.24444 1.94114 20
      vertex 17.1176 3.63845 20
      vertex 15.987 7.11789 20
    endloop
  endfacet
  facet normal 0 0 1
    outer loop
      vertex 17.5 0 20
      vertex 7.5 0 20
      vertex 17.1176 -3.63845 20
    endloop
  endfacet
  facet normal 0 0 1
    outer loop
      vertex 6.49519 3.75 20
      vertex 15.987 7.11789 20
      vertex 14.1578 10.2862 20
    endloop
  endfacet
  facet normal -0 0 1
    outer loop
      vertex 7.24444 -1.94114 20
      vertex 17.1176 -3.63845 20
      vertex 7.5 0 20
    endloop
  endfacet
  facet normal 0 0 1
    outer loop
      vertex 5.3033 5.3033 20
      vertex 14.1578 10.2862 20
      vertex 11.7098 13.005 20
    endloop
  endfacet
  facet normal 0 0 1
    outer loop
      vertex 17.1176 -3.63845 20
      vertex 7.24444 -1.94114 20
      vertex 15.987 -7.11789 20
    endloop
  endfacet
  facet normal 0 0 1
    outer loop
      vertex 3.75 6.49519 20
      vertex 11.7098 13.005 20
      vertex 8.75 15.1554 20
    endloop
  endfacet
  facet normal -0 0 1
    outer loop
      vertex 6.49519 -3.75 20
      vertex 15.987 -7.11789 20
      vertex 7.24444 -1.94114 20
    endloop
  endfacet
  facet normal 0 0 1
    outer loop
      vertex 15.987 -7.11789 20
      vertex 6.49519 -3.75 20
      vertex 14.1578 -10.2862 20
    endloop
  endfacet
  facet normal 0 0 1
    outer loop
      vertex 17.1176 3.63845 20
      vertex 7.24444 1.94114 20
      vertex 7.5 0 20
    endloop
  endfacet
  facet normal 0 0 1
    outer loop
      vertex 15.987 7.11789 20
      vertex 6.49519 3.75 20
      vertex 7.24444 1.94114 20
    endloop
  endfacet
  facet normal 0 0 1
    outer loop
      vertex 3.75 6.49519 20
      vertex 8.75 15.1554 20
      vertex 5.4078 16.6435 20
    endloop
  endfacet
  facet normal 0 0 1
    outer loop
      vertex 14.1578 10.2862 20
      vertex 5.3033 5.3033 20
      vertex 6.49519 3.75 20
    endloop
  endfacet
  facet normal 0 0 1
    outer loop
      vertex 11.7098 13.005 20
      vertex 3.75 6.49519 20
      vertex 5.3033 5.3033 20
    endloop
  endfacet
  facet normal 0 0 1
    outer loop
      vertex 5.4078 16.6435 20
      vertex 1.94114 7.24444 20
      vertex 3.75 6.49519 20
    endloop
  endfacet
  facet normal 0 0 1
    outer loop
      vertex 1.82925 17.4041 20
      vertex 1.94114 7.24444 20
      vertex 5.4078 16.6435 20
    endloop
  endfacet
  facet normal 0 0 1
    outer loop
      vertex 1.82925 17.4041 20
      vertex 0 7.5 20
      vertex 1.94114 7.24444 20
    endloop
  endfacet
  facet normal -0 0 1
    outer loop
      vertex -1.82925 17.4041 20
      vertex 0 7.5 20
      vertex 1.82925 17.4041 20
    endloop
  endfacet
  facet normal 0 0 1
    outer loop
      vertex -1.82925 17.4041 20
      vertex -1.94114 7.24444 20
      vertex 0 7.5 20
    endloop
  endfacet
  facet normal -0 0 1
    outer loop
      vertex -5.4078 16.6435 20
      vertex -1.94114 7.24444 20
      vertex -1.82925 17.4041 20
    endloop
  endfacet
  facet normal 0 0 1
    outer loop
      vertex -1.94114 7.24444 20
      vertex -5.4078 16.6435 20
      vertex -3.75 6.49519 20
    endloop
  endfacet
  facet normal -0 0 1
    outer loop
      vertex -8.75 15.1554 20
      vertex -3.75 6.49519 20
      vertex -5.4078 16.6435 20
    endloop
  endfacet
  facet normal -0 0 1
    outer loop
      vertex -11.7098 13.005 20
      vertex -3.75 6.49519 20
      vertex -8.75 15.1554 20
    endloop
  endfacet
  facet normal 0 0 1
    outer loop
      vertex -3.75 6.49519 20
      vertex -11.7098 13.005 20
      vertex -5.3033 5.3033 20
    endloop
  endfacet
  facet normal -0 0 1
    outer loop
      vertex -14.1578 10.2862 20
      vertex -5.3033 5.3033 20
      vertex -11.7098 13.005 20
    endloop
  endfacet
  facet normal 0 0 1
    outer loop
      vertex -5.3033 5.3033 20
      vertex -14.1578 10.2862 20
      vertex -6.49519 3.75 20
    endloop
  endfacet
  facet normal -0 0 1
    outer loop
      vertex 5.3033 -5.3033 20
      vertex 14.1578 -10.2862 20
      vertex 6.49519 -3.75 20
    endloop
  endfacet
  facet normal 0 0 1
    outer loop
      vertex 14.1578 -10.2862 20
      vertex 5.3033 -5.3033 20
      vertex 11.7098 -13.005 20
    endloop
  endfacet
  facet normal -0 0 1
    outer loop
      vertex 3.75 -6.49519 20
      vertex 11.7098 -13.005 20
      vertex 5.3033 -5.3033 20
    endloop
  endfacet
  facet normal 0 0 1
    outer loop
      vertex 11.7098 -13.005 20
      vertex 3.75 -6.49519 20
      vertex 8.75 -15.1554 20
    endloop
  endfacet
  facet normal 0 0 1
    outer loop
      vertex 8.75 -15.1554 20
      vertex 3.75 -6.49519 20
      vertex 5.4078 -16.6435 20
    endloop
  endfacet
  facet normal -0 0 1
    outer loop
      vertex 1.94114 -7.24444 20
      vertex 5.4078 -16.6435 20
      vertex 3.75 -6.49519 20
    endloop
  endfacet
  facet normal 0 0 1
    outer loop
      vertex 1.94114 -7.24444 20
      vertex 1.82925 -17.4041 20
      vertex 5.4078 -16.6435 20
    endloop
  endfacet
  facet normal -0 0 1
    outer loop
      vertex 0 -7.5 20
      vertex 1.82925 -17.4041 20
      vertex 1.94114 -7.24444 20
    endloop
  endfacet
  facet normal 0 0 1
    outer loop
      vertex 0 -7.5 20
      vertex -1.82925 -17.4041 20
      vertex 1.82925 -17.4041 20
    endloop
  endfacet
  facet normal 0 0 1
    outer loop
      vertex -1.94114 -7.24444 20
      vertex -1.82925 -17.4041 20
      vertex 0 -7.5 20
    endloop
  endfacet
  facet normal 0 0 1
    outer loop
      vertex -5.4078 -16.6435 20
      vertex -1.94114 -7.24444 20
      vertex -3.75 -6.49519 20
    endloop
  endfacet
  facet normal 0 0 1
    outer loop
      vertex -11.7098 -13.005 20
      vertex -3.75 -6.49519 20
      vertex -5.3033 -5.3033 20
    endloop
  endfacet
  facet normal 0 0 1
    outer loop
      vertex -1.94114 -7.24444 20
      vertex -5.4078 -16.6435 20
      vertex -1.82925 -17.4041 20
    endloop
  endfacet
  facet normal 0 0 1
    outer loop
      vertex -14.1578 -10.2862 20
      vertex -5.3033 -5.3033 20
      vertex -6.49519 -3.75 20
    endloop
  endfacet
  facet normal 0 0 1
    outer loop
      vertex -15.987 -7.11789 20
      vertex -6.49519 -3.75 20
      vertex -7.24444 -1.94114 20
    endloop
  endfacet
  facet normal 0 0 1
    outer loop
      vertex -17.1176 -3.63845 20
      vertex -7.24444 -1.94114 20
      vertex -7.5 0 20
    endloop
  endfacet
  facet normal 0 0 1
    outer loop
      vertex -3.75 -6.49519 20
      vertex -8.75 -15.1554 20
      vertex -5.4078 -16.6435 20
    endloop
  endfacet
  facet normal -0 0 1
    outer loop
      vertex -15.987 7.11789 20
      vertex -6.49519 3.75 20
      vertex -14.1578 10.2862 20
    endloop
  endfacet
  facet normal 0 0 1
    outer loop
      vertex -6.49519 3.75 20
      vertex -15.987 7.11789 20
      vertex -7.24444 1.94114 20
    endloop
  endfacet
  facet normal 0 0 1
    outer loop
      vertex -3.75 -6.49519 20
      vertex -11.7098 -13.005 20
      vertex -8.75 -15.1554 20
    endloop
  endfacet
  facet normal -0 0 1
    outer loop
      vertex -17.1176 3.63845 20
      vertex -7.24444 1.94114 20
      vertex -15.987 7.11789 20
    endloop
  endfacet
  facet normal 0 0 1
    outer loop
      vertex -5.3033 -5.3033 20
      vertex -14.1578 -10.2862 20
      vertex -11.7098 -13.005 20
    endloop
  endfacet
  facet normal 0 0 1
    outer loop
      vertex -7.24444 1.94114 20
      vertex -17.1176 3.63845 20
      vertex -7.5 0 20
    endloop
  endfacet
  facet normal 0 0 1
    outer loop
      vertex -6.49519 -3.75 20
      vertex -15.987 -7.11789 20
      vertex -14.1578 -10.2862 20
    endloop
  endfacet
  facet normal 0 0 1
    outer loop
      vertex -17.5 0 20
      vertex -7.5 0 20
      vertex -17.1176 3.63845 20
    endloop
  endfacet
  facet normal 0 0 1
    outer loop
      vertex -7.24444 -1.94114 20
      vertex -17.1176 -3.63845 20
      vertex -15.987 -7.11789 20
    endloop
  endfacet
  facet normal 0 0 1
    outer loop
      vertex -7.5 0 20
      vertex -17.5 0 20
      vertex -17.1176 -3.63845 20
    endloop
  endfacet
  facet normal 0.587782 -0.80902 0
    outer loop
      vertex 8.75 -15.1554 0
      vertex 11.7098 -13.005 20
      vertex 8.75 -15.1554 20
    endloop
  endfacet
  facet normal 0.587782 -0.80902 0
    outer loop
      vertex 11.7098 -13.005 20
      vertex 8.75 -15.1554 0
      vertex 11.7098 -13.005 0
    endloop
  endfacet
  facet normal -0.994522 -0.104524 0
    outer loop
      vertex -17.1176 -3.63845 0
      vertex -17.5 0 20
      vertex -17.5 0 0
    endloop
  endfacet
  facet normal -0.994522 -0.104524 0
    outer loop
      vertex -17.5 0 20
      vertex -17.1176 -3.63845 0
      vertex -17.1176 -3.63845 20
    endloop
  endfacet
  facet normal 0 -1 0
    outer loop
      vertex -1.82925 -17.4041 0
      vertex 1.82925 -17.4041 20
      vertex -1.82925 -17.4041 20
    endloop
  endfacet
  facet normal 0 -1 -0
    outer loop
      vertex 1.82925 -17.4041 20
      vertex -1.82925 -17.4041 0
      vertex 1.82925 -17.4041 0
    endloop
  endfacet
  facet normal 0 0 -1
    outer loop
      vertex 7.5 0 0
      vertex 17.5 0 0
      vertex 17.1176 -3.63845 0
    endloop
  endfacet
  facet normal 0 0 -1
    outer loop
      vertex 7.24444 -1.94114 0
      vertex 17.1176 -3.63845 0
      vertex 15.987 -7.11789 0
    endloop
  endfacet
  facet normal 0 0 -1
    outer loop
      vertex 17.5 0 0
      vertex 7.5 0 0
      vertex 17.1176 3.63845 0
    endloop
  endfacet
  facet normal 0 0 -1
    outer loop
      vertex 6.49519 -3.75 0
      vertex 15.987 -7.11789 0
      vertex 14.1578 -10.2862 0
    endloop
  endfacet
  facet normal 0 0 -1
    outer loop
      vertex 7.24444 1.94114 0
      vertex 17.1176 3.63845 0
      vertex 7.5 0 0
    endloop
  endfacet
  facet normal 0 0 -1
    outer loop
      vertex 5.3033 -5.3033 0
      vertex 14.1578 -10.2862 0
      vertex 11.7098 -13.005 0
    endloop
  endfacet
  facet normal -0 0 -1
    outer loop
      vertex 17.1176 3.63845 0
      vertex 7.24444 1.94114 0
      vertex 15.987 7.11789 0
    endloop
  endfacet
  facet normal 0 0 -1
    outer loop
      vertex 3.75 -6.49519 0
      vertex 11.7098 -13.005 0
      vertex 8.75 -15.1554 0
    endloop
  endfacet
  facet normal 0 0 -1
    outer loop
      vertex 6.49519 3.75 0
      vertex 15.987 7.11789 0
      vertex 7.24444 1.94114 0
    endloop
  endfacet
  facet normal -0 0 -1
    outer loop
      vertex 15.987 7.11789 0
      vertex 6.49519 3.75 0
      vertex 14.1578 10.2862 0
    endloop
  endfacet
  facet normal 0 0 -1
    outer loop
      vertex 17.1176 -3.63845 0
      vertex 7.24444 -1.94114 0
      vertex 7.5 0 0
    endloop
  endfacet
  facet normal 0 0 -1
    outer loop
      vertex 15.987 -7.11789 0
      vertex 6.49519 -3.75 0
      vertex 7.24444 -1.94114 0
    endloop
  endfacet
  facet normal 0 0 -1
    outer loop
      vertex 3.75 -6.49519 0
      vertex 8.75 -15.1554 0
      vertex 5.4078 -16.6435 0
    endloop
  endfacet
  facet normal 0 0 -1
    outer loop
      vertex 14.1578 -10.2862 0
      vertex 5.3033 -5.3033 0
      vertex 6.49519 -3.75 0
    endloop
  endfacet
  facet normal 0 0 -1
    outer loop
      vertex 11.7098 -13.005 0
      vertex 3.75 -6.49519 0
      vertex 5.3033 -5.3033 0
    endloop
  endfacet
  facet normal 0 0 -1
    outer loop
      vertex 5.4078 -16.6435 0
      vertex 1.94114 -7.24444 0
      vertex 3.75 -6.49519 0
    endloop
  endfacet
  facet normal 0 0 -1
    outer loop
      vertex 1.82925 -17.4041 0
      vertex 1.94114 -7.24444 0
      vertex 5.4078 -16.6435 0
    endloop
  endfacet
  facet normal 0 0 -1
    outer loop
      vertex 1.82925 -17.4041 0
      vertex 0 -7.5 0
      vertex 1.94114 -7.24444 0
    endloop
  endfacet
  facet normal 0 0 -1
    outer loop
      vertex -1.82925 -17.4041 0
      vertex 0 -7.5 0
      vertex 1.82925 -17.4041 0
    endloop
  endfacet
  facet normal 0 0 -1
    outer loop
      vertex -1.82925 -17.4041 0
      vertex -1.94114 -7.24444 0
      vertex 0 -7.5 0
    endloop
  endfacet
  facet normal 0 0 -1
    outer loop
      vertex -5.4078 -16.6435 0
      vertex -1.94114 -7.24444 0
      vertex -1.82925 -17.4041 0
    endloop
  endfacet
  facet normal -0 0 -1
    outer loop
      vertex -1.94114 -7.24444 0
      vertex -5.4078 -16.6435 0
      vertex -3.75 -6.49519 0
    endloop
  endfacet
  facet normal 0 0 -1
    outer loop
      vertex -8.75 -15.1554 0
      vertex -3.75 -6.49519 0
      vertex -5.4078 -16.6435 0
    endloop
  endfacet
  facet normal 0 0 -1
    outer loop
      vertex -11.7098 -13.005 0
      vertex -3.75 -6.49519 0
      vertex -8.75 -15.1554 0
    endloop
  endfacet
  facet normal -0 0 -1
    outer loop
      vertex -3.75 -6.49519 0
      vertex -11.7098 -13.005 0
      vertex -5.3033 -5.3033 0
    endloop
  endfacet
  facet normal 0 0 -1
    outer loop
      vertex -14.1578 -10.2862 0
      vertex -5.3033 -5.3033 0
      vertex -11.7098 -13.005 0
    endloop
  endfacet
  facet normal -0 0 -1
    outer loop
      vertex -5.3033 -5.3033 0
      vertex -14.1578 -10.2862 0
      vertex -6.49519 -3.75 0
    endloop
  endfacet
  facet normal 0 0 -1
    outer loop
      vertex 5.3033 5.3033 0
      vertex 14.1578 10.2862 0
      vertex 6.49519 3.75 0
    endloop
  endfacet
  facet normal -0 0 -1
    outer loop
      vertex 14.1578 10.2862 0
      vertex 5.3033 5.3033 0
      vertex 11.7098 13.005 0
    endloop
  endfacet
  facet normal 0 0 -1
    outer loop
      vertex 3.75 6.49519 0
      vertex 11.7098 13.005 0
      vertex 5.3033 5.3033 0
    endloop
  endfacet
  facet normal -0 0 -1
    outer loop
      vertex 11.7098 13.005 0
      vertex 3.75 6.49519 0
      vertex 8.75 15.1554 0
    endloop
  endfacet
  facet normal -0 0 -1
    outer loop
      vertex 8.75 15.1554 0
      vertex 3.75 6.49519 0
      vertex 5.4078 16.6435 0
    endloop
  endfacet
  facet normal 0 0 -1
    outer loop
      vertex 1.94114 7.24444 0
      vertex 5.4078 16.6435 0
      vertex 3.75 6.49519 0
    endloop
  endfacet
  facet normal 0 0 -1
    outer loop
      vertex 1.94114 7.24444 0
      vertex 1.82925 17.4041 0
      vertex 5.4078 16.6435 0
    endloop
  endfacet
  facet normal 0 0 -1
    outer loop
      vertex 0 7.5 0
      vertex 1.82925 17.4041 0
      vertex 1.94114 7.24444 0
    endloop
  endfacet
  facet normal 0 0 -1
    outer loop
      vertex 0 7.5 0
      vertex -1.82925 17.4041 0
      vertex 1.82925 17.4041 0
    endloop
  endfacet
  facet normal 0 0 -1
    outer loop
      vertex -1.94114 7.24444 0
      vertex -1.82925 17.4041 0
      vertex 0 7.5 0
    endloop
  endfacet
  facet normal 0 0 -1
    outer loop
      vertex -5.4078 16.6435 0
      vertex -1.94114 7.24444 0
      vertex -3.75 6.49519 0
    endloop
  endfacet
  facet normal 0 0 -1
    outer loop
      vertex -11.7098 13.005 0
      vertex -3.75 6.49519 0
      vertex -5.3033 5.3033 0
    endloop
  endfacet
  facet normal 0 0 -1
    outer loop
      vertex -1.94114 7.24444 0
      vertex -5.4078 16.6435 0
      vertex -1.82925 17.4041 0
    endloop
  endfacet
  facet normal 0 0 -1
    outer loop
      vertex -14.1578 10.2862 0
      vertex -5.3033 5.3033 0
      vertex -6.49519 3.75 0
    endloop
  endfacet
  facet normal 0 0 -1
    outer loop
      vertex -15.987 7.11789 0
      vertex -6.49519 3.75 0
      vertex -7.24444 1.94114 0
    endloop
  endfacet
  facet normal 0 0 -1
    outer loop
      vertex -17.1176 3.63845 0
      vertex -7.24444 1.94114 0
      vertex -7.5 0 0
    endloop
  endfacet
  facet normal 0 0 -1
    outer loop
      vertex -3.75 6.49519 0
      vertex -8.75 15.1554 0
      vertex -5.4078 16.6435 0
    endloop
  endfacet
  facet normal 0 0 -1
    outer loop
      vertex -15.987 -7.11789 0
      vertex -6.49519 -3.75 0
      vertex -14.1578 -10.2862 0
    endloop
  endfacet
  facet normal -0 0 -1
    outer loop
      vertex -6.49519 -3.75 0
      vertex -15.987 -7.11789 0
      vertex -7.24444 -1.94114 0
    endloop
  endfacet
  facet normal 0 0 -1
    outer loop
      vertex -3.75 6.49519 0
      vertex -11.7098 13.005 0
      vertex -8.75 15.1554 0
    endloop
  endfacet
  facet normal 0 0 -1
    outer loop
      vertex -17.1176 -3.63845 0
      vertex -7.24444 -1.94114 0
      vertex -15.987 -7.11789 0
    endloop
  endfacet
  facet normal 0 0 -1
    outer loop
      vertex -5.3033 5.3033 0
      vertex -14.1578 10.2862 0
      vertex -11.7098 13.005 0
    endloop
  endfacet
  facet normal -0 0 -1
    outer loop
      vertex -7.24444 -1.94114 0
      vertex -17.1176 -3.63845 0
      vertex -7.5 0 0
    endloop
  endfacet
  facet normal 0 0 -1
    outer loop
      vertex -6.49519 3.75 0
      vertex -15.987 7.11789 0
      vertex -14.1578 10.2862 0
    endloop
  endfacet
  facet normal 0 0 -1
    outer loop
      vertex -17.5 0 0
      vertex -7.5 0 0
      vertex -17.1176 -3.63845 0
    endloop
  endfacet
  facet normal 0 0 -1
    outer loop
      vertex -7.24444 1.94114 0
      vertex -17.1176 3.63845 0
      vertex -15.987 7.11789 0
    endloop
  endfacet
  facet normal 0 0 -1
    outer loop
      vertex -7.5 0 0
      vertex -17.5 0 0
      vertex -17.1176 3.63845 0
    endloop
  endfacet
  facet normal 0 1 -0
    outer loop
      vertex 1.82925 17.4041 0
      vertex -1.82925 17.4041 20
      vertex 1.82925 17.4041 20
    endloop
  endfacet
  facet normal 0 1 0
    outer loop
      vertex -1.82925 17.4041 20
      vertex 1.82925 17.4041 0
      vertex -1.82925 17.4041 0
    endloop
  endfacet
  facet normal -0.743147 -0.669128 0
    outer loop
      vertex -11.7098 -13.005 0
      vertex -14.1578 -10.2862 20
      vertex -14.1578 -10.2862 0
    endloop
  endfacet
  facet normal -0.743147 -0.669128 0
    outer loop
      vertex -14.1578 -10.2862 20
      vertex -11.7098 -13.005 0
      vertex -11.7098 -13.005 20
    endloop
  endfacet
  facet normal -0.587782 -0.80902 0
    outer loop
      vertex -11.7098 -13.005 0
      vertex -8.75 -15.1554 20
      vertex -11.7098 -13.005 20
    endloop
  endfacet
  facet normal -0.587782 -0.80902 -0
    outer loop
      vertex -8.75 -15.1554 20
      vertex -11.7098 -13.005 0
      vertex -8.75 -15.1554 0
    endloop
  endfacet
  facet normal -0.866028 0.499995 0
    outer loop
      vertex -15.987 7.11789 0
      vertex -14.1578 10.2862 20
      vertex -14.1578 10.2862 0
    endloop
  endfacet
  facet normal -0.866028 0.499995 0
    outer loop
      vertex -14.1578 10.2862 20
      vertex -15.987 7.11789 0
      vertex -15.987 7.11789 20
    endloop
  endfacet
  facet normal -0.92388 -0.382682 0
    outer loop
      vertex 7.24444 1.94114 0
      vertex 6.49519 3.75 20
      vertex 6.49519 3.75 0
    endloop
  endfacet
  facet normal -0.92388 -0.382682 0
    outer loop
      vertex 6.49519 3.75 20
      vertex 7.24444 1.94114 0
      vertex 7.24444 1.94114 20
    endloop
  endfacet
  facet normal -0.991445 -0.130528 0
    outer loop
      vertex 7.5 0 0
      vertex 7.24444 1.94114 20
      vertex 7.24444 1.94114 0
    endloop
  endfacet
  facet normal -0.991445 -0.130528 0
    outer loop
      vertex 7.24444 1.94114 20
      vertex 7.5 0 0
      vertex 7.5 0 20
    endloop
  endfacet
  facet normal -0.793353 -0.608762 0
    outer loop
      vertex 6.49519 3.75 0
      vertex 5.3033 5.3033 20
      vertex 5.3033 5.3033 0
    endloop
  endfacet
  facet normal -0.793353 -0.608762 0
    outer loop
      vertex 5.3033 5.3033 20
      vertex 6.49519 3.75 0
      vertex 6.49519 3.75 20
    endloop
  endfacet
  facet normal 0.793353 -0.608762 0
    outer loop
      vertex -6.49519 3.75 20
      vertex -5.3033 5.3033 0
      vertex -5.3033 5.3033 20
    endloop
  endfacet
  facet normal 0.793353 -0.608762 0
    outer loop
      vertex -5.3033 5.3033 0
      vertex -6.49519 3.75 20
      vertex -6.49519 3.75 0
    endloop
  endfacet
  facet normal 0.608762 -0.793353 0
    outer loop
      vertex -5.3033 5.3033 0
      vertex -3.75 6.49519 20
      vertex -5.3033 5.3033 20
    endloop
  endfacet
  facet normal 0.608762 -0.793353 0
    outer loop
      vertex -3.75 6.49519 20
      vertex -5.3033 5.3033 0
      vertex -3.75 6.49519 0
    endloop
  endfacet
  facet normal -0.382682 0.92388 0
    outer loop
      vertex 3.75 -6.49519 0
      vertex 1.94114 -7.24444 20
      vertex 3.75 -6.49519 20
    endloop
  endfacet
  facet normal -0.382682 0.92388 0
    outer loop
      vertex 1.94114 -7.24444 20
      vertex 3.75 -6.49519 0
      vertex 1.94114 -7.24444 0
    endloop
  endfacet
  facet normal 0.92388 -0.382682 0
    outer loop
      vertex -7.24444 1.94114 20
      vertex -6.49519 3.75 0
      vertex -6.49519 3.75 20
    endloop
  endfacet
  facet normal 0.92388 -0.382682 0
    outer loop
      vertex -6.49519 3.75 0
      vertex -7.24444 1.94114 20
      vertex -7.24444 1.94114 0
    endloop
  endfacet
  facet normal -0.608762 -0.793353 0
    outer loop
      vertex 3.75 6.49519 0
      vertex 5.3033 5.3033 20
      vertex 3.75 6.49519 20
    endloop
  endfacet
  facet normal -0.608762 -0.793353 -0
    outer loop
      vertex 5.3033 5.3033 20
      vertex 3.75 6.49519 0
      vertex 5.3033 5.3033 0
    endloop
  endfacet
  facet normal -0.130528 -0.991445 0
    outer loop
      vertex 0 7.5 0
      vertex 1.94114 7.24444 20
      vertex 0 7.5 20
    endloop
  endfacet
  facet normal -0.130528 -0.991445 -0
    outer loop
      vertex 1.94114 7.24444 20
      vertex 0 7.5 0
      vertex 1.94114 7.24444 0
    endloop
  endfacet
  facet normal -0.130528 0.991445 0
    outer loop
      vertex 1.94114 -7.24444 0
      vertex 0 -7.5 20
      vertex 1.94114 -7.24444 20
    endloop
  endfacet
  facet normal -0.130528 0.991445 0
    outer loop
      vertex 0 -7.5 20
      vertex 1.94114 -7.24444 0
      vertex 0 -7.5 0
    endloop
  endfacet
  facet normal -0.793353 0.608762 0
    outer loop
      vertex 5.3033 -5.3033 0
      vertex 6.49519 -3.75 20
      vertex 6.49519 -3.75 0
    endloop
  endfacet
  facet normal -0.793353 0.608762 0
    outer loop
      vertex 6.49519 -3.75 20
      vertex 5.3033 -5.3033 0
      vertex 5.3033 -5.3033 20
    endloop
  endfacet
  facet normal -0.608762 0.793353 0
    outer loop
      vertex 5.3033 -5.3033 0
      vertex 3.75 -6.49519 20
      vertex 5.3033 -5.3033 20
    endloop
  endfacet
  facet normal -0.608762 0.793353 0
    outer loop
      vertex 3.75 -6.49519 20
      vertex 5.3033 -5.3033 0
      vertex 3.75 -6.49519 0
    endloop
  endfacet
  facet normal 0.793353 0.608762 0
    outer loop
      vertex -5.3033 -5.3033 20
      vertex -6.49519 -3.75 0
      vertex -6.49519 -3.75 20
    endloop
  endfacet
  facet normal 0.793353 0.608762 0
    outer loop
      vertex -6.49519 -3.75 0
      vertex -5.3033 -5.3033 20
      vertex -5.3033 -5.3033 0
    endloop
  endfacet
  facet normal -0.991445 0.130528 0
    outer loop
      vertex 7.24444 -1.94114 0
      vertex 7.5 0 20
      vertex 7.5 0 0
    endloop
  endfacet
  facet normal -0.991445 0.130528 0
    outer loop
      vertex 7.5 0 20
      vertex 7.24444 -1.94114 0
      vertex 7.24444 -1.94114 20
    endloop
  endfacet
  facet normal 0.991445 -0.130528 0
    outer loop
      vertex -7.5 0 20
      vertex -7.24444 1.94114 0
      vertex -7.24444 1.94114 20
    endloop
  endfacet
  facet normal 0.991445 -0.130528 0
    outer loop
      vertex -7.24444 1.94114 0
      vertex -7.5 0 20
      vertex -7.5 0 0
    endloop
  endfacet
  facet normal 0.130528 -0.991445 0
    outer loop
      vertex -1.94114 7.24444 0
      vertex 0 7.5 20
      vertex -1.94114 7.24444 20
    endloop
  endfacet
  facet normal 0.130528 -0.991445 0
    outer loop
      vertex 0 7.5 20
      vertex -1.94114 7.24444 0
      vertex 0 7.5 0
    endloop
  endfacet
  facet normal -0.92388 0.382682 0
    outer loop
      vertex 6.49519 -3.75 0
      vertex 7.24444 -1.94114 20
      vertex 7.24444 -1.94114 0
    endloop
  endfacet
  facet normal -0.92388 0.382682 0
    outer loop
      vertex 7.24444 -1.94114 20
      vertex 6.49519 -3.75 0
      vertex 6.49519 -3.75 20
    endloop
  endfacet
  facet normal 0.382682 -0.92388 0
    outer loop
      vertex -3.75 6.49519 0
      vertex -1.94114 7.24444 20
      vertex -3.75 6.49519 20
    endloop
  endfacet
  facet normal 0.382682 -0.92388 0
    outer loop
      vertex -1.94114 7.24444 20
      vertex -3.75 6.49519 0
      vertex -1.94114 7.24444 0
    endloop
  endfacet
  facet normal -0.382682 -0.92388 0
    outer loop
      vertex 1.94114 7.24444 0
      vertex 3.75 6.49519 20
      vertex 1.94114 7.24444 20
    endloop
  endfacet
  facet normal -0.382682 -0.92388 -0
    outer loop
      vertex 3.75 6.49519 20
      vertex 1.94114 7.24444 0
      vertex 3.75 6.49519 0
    endloop
  endfacet
  facet normal 0.130528 0.991445 -0
    outer loop
      vertex 0 -7.5 0
      vertex -1.94114 -7.24444 20
      vertex 0 -7.5 20
    endloop
  endfacet
  facet normal 0.130528 0.991445 0
    outer loop
      vertex -1.94114 -7.24444 20
      vertex 0 -7.5 0
      vertex -1.94114 -7.24444 0
    endloop
  endfacet
  facet normal 0.92388 0.382682 0
    outer loop
      vertex -6.49519 -3.75 20
      vertex -7.24444 -1.94114 0
      vertex -7.24444 -1.94114 20
    endloop
  endfacet
  facet normal 0.92388 0.382682 0
    outer loop
      vertex -7.24444 -1.94114 0
      vertex -6.49519 -3.75 20
      vertex -6.49519 -3.75 0
    endloop
  endfacet
  facet normal 0.991445 0.130528 0
    outer loop
      vertex -7.24444 -1.94114 20
      vertex -7.5 0 0
      vertex -7.5 0 20
    endloop
  endfacet
  facet normal 0.991445 0.130528 0
    outer loop
      vertex -7.5 0 0
      vertex -7.24444 -1.94114 20
      vertex -7.24444 -1.94114 0
    endloop
  endfacet
  facet normal 0.608762 0.793353 -0
    outer loop
      vertex -3.75 -6.49519 0
      vertex -5.3033 -5.3033 20
      vertex -3.75 -6.49519 20
    endloop
  endfacet
  facet normal 0.608762 0.793353 0
    outer loop
      vertex -5.3033 -5.3033 20
      vertex -3.75 -6.49519 0
      vertex -5.3033 -5.3033 0
    endloop
  endfacet
  facet normal 0.382682 0.92388 -0
    outer loop
      vertex -1.94114 -7.24444 0
      vertex -3.75 -6.49519 20
      vertex -1.94114 -7.24444 20
    endloop
  endfacet
  facet normal 0.382682 0.92388 0
    outer loop
      vertex -3.75 -6.49519 20
      vertex -1.94114 -7.24444 0
      vertex -3.75 -6.49519 0
    endloop
  endfacet
endsolid OpenSCAD_Model
