solid OpenSCAD_Model
  facet normal 1 -0 0
    outer loop
      vertex 30 -30 -1.75
      vertex 30 -0.75 -3.25
      vertex 30 -0.75 -1.75
    endloop
  endfacet
  facet normal 1 0 0
    outer loop
      vertex 30 -0.75 -3.25
      vertex 30 -30 -1.75
      vertex 30 -30 -3.25
    endloop
  endfacet
  facet normal 1 -0 0
    outer loop
      vertex 30 -30 3.25
      vertex 30 -0.75 1.75
      vertex 30 -0.75 3.25
    endloop
  endfacet
  facet normal 1 0 0
    outer loop
      vertex 30 -0.75 1.75
      vertex 30 -30 3.25
      vertex 30 -30 1.75
    endloop
  endfacet
  facet normal 1 -0 0
    outer loop
      vertex 30 -30 8.25
      vertex 30 -0.75 6.75
      vertex 30 -0.75 8.25
    endloop
  endfacet
  facet normal 1 0 0
    outer loop
      vertex 30 -0.75 6.75
      vertex 30 -30 8.25
      vertex 30 -30 6.75
    endloop
  endfacet
  facet normal 1 -0 0
    outer loop
      vertex 30 -30 13.25
      vertex 30 -0.75 11.75
      vertex 30 -0.75 13.25
    endloop
  endfacet
  facet normal 1 0 0
    outer loop
      vertex 30 -0.75 11.75
      vertex 30 -30 13.25
      vertex 30 -30 11.75
    endloop
  endfacet
  facet normal 1 0 0
    outer loop
      vertex 30 -0.75 13.25
      vertex 30 0.75 13.25
      vertex 30 0.75 22.5
    endloop
  endfacet
  facet normal 1 0 0
    outer loop
      vertex 30 0.75 13.25
      vertex 30 -0.75 13.25
      vertex 30 0.75 11.75
    endloop
  endfacet
  facet normal 1 0 0
    outer loop
      vertex 30 -0.75 11.75
      vertex 30 0.75 11.75
      vertex 30 -0.75 13.25
    endloop
  endfacet
  facet normal 1 0 0
    outer loop
      vertex 30 0.75 11.75
      vertex 30 -0.75 11.75
      vertex 30 0.75 8.25
    endloop
  endfacet
  facet normal 1 0 0
    outer loop
      vertex 30 -0.75 8.25
      vertex 30 0.75 8.25
      vertex 30 -0.75 11.75
    endloop
  endfacet
  facet normal 1 0 0
    outer loop
      vertex 30 -0.75 6.75
      vertex 30 0.75 6.75
      vertex 30 -0.75 8.25
    endloop
  endfacet
  facet normal 1 0 0
    outer loop
      vertex 30 0.75 6.75
      vertex 30 -0.75 6.75
      vertex 30 0.75 3.25
    endloop
  endfacet
  facet normal 1 0 0
    outer loop
      vertex 30 0.75 3.25
      vertex 30 -0.75 3.25
      vertex 30 0.75 1.75
    endloop
  endfacet
  facet normal 1 0 0
    outer loop
      vertex 30 -0.75 13.25
      vertex 30 0.75 22.5
      vertex 30 -0.75 22.5
    endloop
  endfacet
  facet normal 1 0 0
    outer loop
      vertex 30 0.75 8.25
      vertex 30 -0.75 8.25
      vertex 30 0.75 6.75
    endloop
  endfacet
  facet normal 1 0 0
    outer loop
      vertex 30 -0.75 3.25
      vertex 30 0.75 3.25
      vertex 30 -0.75 6.75
    endloop
  endfacet
  facet normal 1 0 0
    outer loop
      vertex 30 -0.75 1.75
      vertex 30 0.75 1.75
      vertex 30 -0.75 3.25
    endloop
  endfacet
  facet normal 1 0 0
    outer loop
      vertex 30 0.75 1.75
      vertex 30 -0.75 1.75
      vertex 30 0.75 -1.75
    endloop
  endfacet
  facet normal 1 0 0
    outer loop
      vertex 30 -0.75 -1.75
      vertex 30 0.75 -1.75
      vertex 30 -0.75 1.75
    endloop
  endfacet
  facet normal 1 0 0
    outer loop
      vertex 30 0.75 -1.75
      vertex 30 -0.75 -1.75
      vertex 30 0.75 -3.25
    endloop
  endfacet
  facet normal 1 0 0
    outer loop
      vertex 30 0.75 -3.25
      vertex 30 -0.75 -1.75
      vertex 30 -0.75 -3.25
    endloop
  endfacet
  facet normal 1 0 0
    outer loop
      vertex 30 0.75 -3.25
      vertex 30 -0.75 -3.25
      vertex 30 0.75 -42.5
    endloop
  endfacet
  facet normal 1 0 0
    outer loop
      vertex 30 0.75 -42.5
      vertex 30 -0.75 -3.25
      vertex 30 -0.75 -42.5
    endloop
  endfacet
  facet normal 1 -0 0
    outer loop
      vertex 30 0.75 13.25
      vertex 30 30 11.75
      vertex 30 30 13.25
    endloop
  endfacet
  facet normal 1 0 0
    outer loop
      vertex 30 30 11.75
      vertex 30 0.75 13.25
      vertex 30 0.75 11.75
    endloop
  endfacet
  facet normal 1 -0 0
    outer loop
      vertex 30 0.75 8.25
      vertex 30 30 6.75
      vertex 30 30 8.25
    endloop
  endfacet
  facet normal 1 0 0
    outer loop
      vertex 30 30 6.75
      vertex 30 0.75 8.25
      vertex 30 0.75 6.75
    endloop
  endfacet
  facet normal 1 -0 0
    outer loop
      vertex 30 0.75 3.25
      vertex 30 30 1.75
      vertex 30 30 3.25
    endloop
  endfacet
  facet normal 1 0 0
    outer loop
      vertex 30 30 1.75
      vertex 30 0.75 3.25
      vertex 30 0.75 1.75
    endloop
  endfacet
  facet normal 1 -0 0
    outer loop
      vertex 30 0.75 -1.75
      vertex 30 30 -3.25
      vertex 30 30 -1.75
    endloop
  endfacet
  facet normal 1 0 0
    outer loop
      vertex 30 30 -3.25
      vertex 30 0.75 -1.75
      vertex 30 0.75 -3.25
    endloop
  endfacet
  facet normal -0 0 1
    outer loop
      vertex -30 30 13.25
      vertex 30 0.75 13.25
      vertex 30 30 13.25
    endloop
  endfacet
  facet normal 0 0 1
    outer loop
      vertex 30 0.75 13.25
      vertex -30 30 13.25
      vertex -30 0.75 13.25
    endloop
  endfacet
  facet normal -0 0 1
    outer loop
      vertex -30 -0.75 13.25
      vertex 30 -30 13.25
      vertex 30 -0.75 13.25
    endloop
  endfacet
  facet normal 0 0 1
    outer loop
      vertex 30 -30 13.25
      vertex -30 -0.75 13.25
      vertex -30 -30 13.25
    endloop
  endfacet
  facet normal 0 0 -1
    outer loop
      vertex -30 0.75 11.75
      vertex 30 30 11.75
      vertex 30 0.75 11.75
    endloop
  endfacet
  facet normal -0 0 -1
    outer loop
      vertex 30 30 11.75
      vertex -30 0.75 11.75
      vertex -30 30 11.75
    endloop
  endfacet
  facet normal 0 0 -1
    outer loop
      vertex -30 -30 11.75
      vertex 30 -0.75 11.75
      vertex 30 -30 11.75
    endloop
  endfacet
  facet normal -0 0 -1
    outer loop
      vertex 30 -0.75 11.75
      vertex -30 -30 11.75
      vertex -30 -0.75 11.75
    endloop
  endfacet
  facet normal -1 0 0
    outer loop
      vertex -30 -30 11.75
      vertex -30 -0.75 13.25
      vertex -30 -0.75 11.75
    endloop
  endfacet
  facet normal -1 -0 0
    outer loop
      vertex -30 -0.75 13.25
      vertex -30 -30 11.75
      vertex -30 -30 13.25
    endloop
  endfacet
  facet normal -1 0 0
    outer loop
      vertex -30 -30 6.75
      vertex -30 -0.75 8.25
      vertex -30 -0.75 6.75
    endloop
  endfacet
  facet normal -1 -0 0
    outer loop
      vertex -30 -0.75 8.25
      vertex -30 -30 6.75
      vertex -30 -30 8.25
    endloop
  endfacet
  facet normal -1 0 0
    outer loop
      vertex -30 -30 1.75
      vertex -30 -0.75 3.25
      vertex -30 -0.75 1.75
    endloop
  endfacet
  facet normal -1 -0 0
    outer loop
      vertex -30 -0.75 3.25
      vertex -30 -30 1.75
      vertex -30 -30 3.25
    endloop
  endfacet
  facet normal -1 0 0
    outer loop
      vertex -30 -30 -3.25
      vertex -30 -0.75 -1.75
      vertex -30 -0.75 -3.25
    endloop
  endfacet
  facet normal -1 -0 0
    outer loop
      vertex -30 -0.75 -1.75
      vertex -30 -30 -3.25
      vertex -30 -30 -1.75
    endloop
  endfacet
  facet normal -1 0 0
    outer loop
      vertex -30 -0.75 -3.25
      vertex -30 0.75 -3.25
      vertex -30 0.75 -42.5
    endloop
  endfacet
  facet normal -1 0 0
    outer loop
      vertex -30 0.75 -3.25
      vertex -30 -0.75 -3.25
      vertex -30 0.75 -1.75
    endloop
  endfacet
  facet normal -1 0 0
    outer loop
      vertex -30 -0.75 -1.75
      vertex -30 0.75 -1.75
      vertex -30 -0.75 -3.25
    endloop
  endfacet
  facet normal -1 0 0
    outer loop
      vertex -30 0.75 -1.75
      vertex -30 -0.75 -1.75
      vertex -30 0.75 1.75
    endloop
  endfacet
  facet normal -1 0 0
    outer loop
      vertex -30 -0.75 1.75
      vertex -30 0.75 1.75
      vertex -30 -0.75 -1.75
    endloop
  endfacet
  facet normal -1 0 0
    outer loop
      vertex -30 0.75 1.75
      vertex -30 -0.75 1.75
      vertex -30 0.75 3.25
    endloop
  endfacet
  facet normal -1 0 0
    outer loop
      vertex -30 -0.75 3.25
      vertex -30 0.75 3.25
      vertex -30 -0.75 1.75
    endloop
  endfacet
  facet normal -1 0 0
    outer loop
      vertex -30 0.75 3.25
      vertex -30 -0.75 3.25
      vertex -30 0.75 6.75
    endloop
  endfacet
  facet normal -1 0 0
    outer loop
      vertex -30 -0.75 -3.25
      vertex -30 0.75 -42.5
      vertex -30 -0.75 -42.5
    endloop
  endfacet
  facet normal -1 0 0
    outer loop
      vertex -30 -0.75 6.75
      vertex -30 0.75 6.75
      vertex -30 -0.75 3.25
    endloop
  endfacet
  facet normal -1 0 0
    outer loop
      vertex -30 0.75 6.75
      vertex -30 -0.75 6.75
      vertex -30 0.75 8.25
    endloop
  endfacet
  facet normal -1 0 0
    outer loop
      vertex -30 -0.75 8.25
      vertex -30 0.75 8.25
      vertex -30 -0.75 6.75
    endloop
  endfacet
  facet normal -1 0 0
    outer loop
      vertex -30 0.75 8.25
      vertex -30 -0.75 8.25
      vertex -30 0.75 11.75
    endloop
  endfacet
  facet normal -1 0 0
    outer loop
      vertex -30 -0.75 11.75
      vertex -30 0.75 11.75
      vertex -30 -0.75 8.25
    endloop
  endfacet
  facet normal -1 0 0
    outer loop
      vertex -30 0.75 11.75
      vertex -30 -0.75 11.75
      vertex -30 0.75 13.25
    endloop
  endfacet
  facet normal -1 0 0
    outer loop
      vertex -30 -0.75 13.25
      vertex -30 0.75 13.25
      vertex -30 -0.75 11.75
    endloop
  endfacet
  facet normal -1 0 0
    outer loop
      vertex -30 0.75 13.25
      vertex -30 -0.75 13.25
      vertex -30 0.75 22.5
    endloop
  endfacet
  facet normal -1 -0 0
    outer loop
      vertex -30 0.75 22.5
      vertex -30 -0.75 13.25
      vertex -30 -0.75 22.5
    endloop
  endfacet
  facet normal -1 0 0
    outer loop
      vertex -30 0.75 -3.25
      vertex -30 30 -1.75
      vertex -30 30 -3.25
    endloop
  endfacet
  facet normal -1 -0 0
    outer loop
      vertex -30 30 -1.75
      vertex -30 0.75 -3.25
      vertex -30 0.75 -1.75
    endloop
  endfacet
  facet normal -1 0 0
    outer loop
      vertex -30 0.75 1.75
      vertex -30 30 3.25
      vertex -30 30 1.75
    endloop
  endfacet
  facet normal -1 -0 0
    outer loop
      vertex -30 30 3.25
      vertex -30 0.75 1.75
      vertex -30 0.75 3.25
    endloop
  endfacet
  facet normal -1 0 0
    outer loop
      vertex -30 0.75 6.75
      vertex -30 30 8.25
      vertex -30 30 6.75
    endloop
  endfacet
  facet normal -1 -0 0
    outer loop
      vertex -30 30 8.25
      vertex -30 0.75 6.75
      vertex -30 0.75 8.25
    endloop
  endfacet
  facet normal -1 0 0
    outer loop
      vertex -30 0.75 11.75
      vertex -30 30 13.25
      vertex -30 30 11.75
    endloop
  endfacet
  facet normal -1 -0 0
    outer loop
      vertex -30 30 13.25
      vertex -30 0.75 11.75
      vertex -30 0.75 13.25
    endloop
  endfacet
  facet normal 0 1 -0
    outer loop
      vertex 30 30 11.75
      vertex -30 30 13.25
      vertex 30 30 13.25
    endloop
  endfacet
  facet normal 0 1 0
    outer loop
      vertex -30 30 13.25
      vertex 30 30 11.75
      vertex -30 30 11.75
    endloop
  endfacet
  facet normal 0 -1 0
    outer loop
      vertex -30 -30 11.75
      vertex 30 -30 13.25
      vertex -30 -30 13.25
    endloop
  endfacet
  facet normal 0 -1 -0
    outer loop
      vertex 30 -30 13.25
      vertex -30 -30 11.75
      vertex 30 -30 11.75
    endloop
  endfacet
  facet normal -0 0 1
    outer loop
      vertex -30 30 8.25
      vertex 30 0.75 8.25
      vertex 30 30 8.25
    endloop
  endfacet
  facet normal 0 0 1
    outer loop
      vertex 30 0.75 8.25
      vertex -30 30 8.25
      vertex -30 0.75 8.25
    endloop
  endfacet
  facet normal -0 0 1
    outer loop
      vertex -30 -0.75 8.25
      vertex 30 -30 8.25
      vertex 30 -0.75 8.25
    endloop
  endfacet
  facet normal 0 0 1
    outer loop
      vertex 30 -30 8.25
      vertex -30 -0.75 8.25
      vertex -30 -30 8.25
    endloop
  endfacet
  facet normal 0 0 -1
    outer loop
      vertex -30 0.75 6.75
      vertex 30 30 6.75
      vertex 30 0.75 6.75
    endloop
  endfacet
  facet normal -0 0 -1
    outer loop
      vertex 30 30 6.75
      vertex -30 0.75 6.75
      vertex -30 30 6.75
    endloop
  endfacet
  facet normal 0 0 -1
    outer loop
      vertex -30 -30 6.75
      vertex 30 -0.75 6.75
      vertex 30 -30 6.75
    endloop
  endfacet
  facet normal -0 0 -1
    outer loop
      vertex 30 -0.75 6.75
      vertex -30 -30 6.75
      vertex -30 -0.75 6.75
    endloop
  endfacet
  facet normal 0 1 -0
    outer loop
      vertex 30 30 6.75
      vertex -30 30 8.25
      vertex 30 30 8.25
    endloop
  endfacet
  facet normal 0 1 0
    outer loop
      vertex -30 30 8.25
      vertex 30 30 6.75
      vertex -30 30 6.75
    endloop
  endfacet
  facet normal 0 -1 0
    outer loop
      vertex -30 -30 6.75
      vertex 30 -30 8.25
      vertex -30 -30 8.25
    endloop
  endfacet
  facet normal 0 -1 -0
    outer loop
      vertex 30 -30 8.25
      vertex -30 -30 6.75
      vertex 30 -30 6.75
    endloop
  endfacet
  facet normal -0 0 1
    outer loop
      vertex -30 30 3.25
      vertex 30 0.75 3.25
      vertex 30 30 3.25
    endloop
  endfacet
  facet normal 0 0 1
    outer loop
      vertex 30 0.75 3.25
      vertex -30 30 3.25
      vertex -30 0.75 3.25
    endloop
  endfacet
  facet normal -0 0 1
    outer loop
      vertex -30 -0.75 3.25
      vertex 30 -30 3.25
      vertex 30 -0.75 3.25
    endloop
  endfacet
  facet normal 0 0 1
    outer loop
      vertex 30 -30 3.25
      vertex -30 -0.75 3.25
      vertex -30 -30 3.25
    endloop
  endfacet
  facet normal 0 0 -1
    outer loop
      vertex -30 0.75 1.75
      vertex 30 30 1.75
      vertex 30 0.75 1.75
    endloop
  endfacet
  facet normal -0 0 -1
    outer loop
      vertex 30 30 1.75
      vertex -30 0.75 1.75
      vertex -30 30 1.75
    endloop
  endfacet
  facet normal 0 0 -1
    outer loop
      vertex -30 -30 1.75
      vertex 30 -0.75 1.75
      vertex 30 -30 1.75
    endloop
  endfacet
  facet normal -0 0 -1
    outer loop
      vertex 30 -0.75 1.75
      vertex -30 -30 1.75
      vertex -30 -0.75 1.75
    endloop
  endfacet
  facet normal 0 1 -0
    outer loop
      vertex 30 30 1.75
      vertex -30 30 3.25
      vertex 30 30 3.25
    endloop
  endfacet
  facet normal 0 1 0
    outer loop
      vertex -30 30 3.25
      vertex 30 30 1.75
      vertex -30 30 1.75
    endloop
  endfacet
  facet normal 0 -1 0
    outer loop
      vertex -30 -30 1.75
      vertex 30 -30 3.25
      vertex -30 -30 3.25
    endloop
  endfacet
  facet normal 0 -1 -0
    outer loop
      vertex 30 -30 3.25
      vertex -30 -30 1.75
      vertex 30 -30 1.75
    endloop
  endfacet
  facet normal -0 0 1
    outer loop
      vertex -30 30 -1.75
      vertex 30 0.75 -1.75
      vertex 30 30 -1.75
    endloop
  endfacet
  facet normal 0 0 1
    outer loop
      vertex 30 0.75 -1.75
      vertex -30 30 -1.75
      vertex -30 0.75 -1.75
    endloop
  endfacet
  facet normal -0 0 1
    outer loop
      vertex -30 -0.75 -1.75
      vertex 30 -30 -1.75
      vertex 30 -0.75 -1.75
    endloop
  endfacet
  facet normal 0 0 1
    outer loop
      vertex 30 -30 -1.75
      vertex -30 -0.75 -1.75
      vertex -30 -30 -1.75
    endloop
  endfacet
  facet normal 0 0 -1
    outer loop
      vertex -30 0.75 -3.25
      vertex 30 30 -3.25
      vertex 30 0.75 -3.25
    endloop
  endfacet
  facet normal -0 0 -1
    outer loop
      vertex 30 30 -3.25
      vertex -30 0.75 -3.25
      vertex -30 30 -3.25
    endloop
  endfacet
  facet normal 0 0 -1
    outer loop
      vertex -30 -30 -3.25
      vertex 30 -0.75 -3.25
      vertex 30 -30 -3.25
    endloop
  endfacet
  facet normal -0 0 -1
    outer loop
      vertex 30 -0.75 -3.25
      vertex -30 -30 -3.25
      vertex -30 -0.75 -3.25
    endloop
  endfacet
  facet normal 0 1 -0
    outer loop
      vertex 30 30 -3.25
      vertex -30 30 -1.75
      vertex 30 30 -1.75
    endloop
  endfacet
  facet normal 0 1 0
    outer loop
      vertex -30 30 -1.75
      vertex 30 30 -3.25
      vertex -30 30 -3.25
    endloop
  endfacet
  facet normal 0 -1 0
    outer loop
      vertex -30 -30 -3.25
      vertex 30 -30 -1.75
      vertex -30 -30 -1.75
    endloop
  endfacet
  facet normal 0 -1 -0
    outer loop
      vertex 30 -30 -1.75
      vertex -30 -30 -3.25
      vertex 30 -30 -3.25
    endloop
  endfacet
  facet normal 0 -1 0
    outer loop
      vertex -30 -0.75 -42.5
      vertex 30 -0.75 -3.25
      vertex -30 -0.75 -3.25
    endloop
  endfacet
  facet normal 0 -1 -0
    outer loop
      vertex 30 -0.75 -3.25
      vertex -30 -0.75 -42.5
      vertex 30 -0.75 -42.5
    endloop
  endfacet
  facet normal 0 -1 0
    outer loop
      vertex -30 -0.75 13.25
      vertex 30 -0.75 22.5
      vertex -30 -0.75 22.5
    endloop
  endfacet
  facet normal 0 -1 -0
    outer loop
      vertex 30 -0.75 22.5
      vertex -30 -0.75 13.25
      vertex 30 -0.75 13.25
    endloop
  endfacet
  facet normal 0 -1 0
    outer loop
      vertex -30 -0.75 3.25
      vertex 30 -0.75 6.75
      vertex -30 -0.75 6.75
    endloop
  endfacet
  facet normal 0 -1 -0
    outer loop
      vertex 30 -0.75 6.75
      vertex -30 -0.75 3.25
      vertex 30 -0.75 3.25
    endloop
  endfacet
  facet normal 0 -1 0
    outer loop
      vertex -30 -0.75 8.25
      vertex 30 -0.75 11.75
      vertex -30 -0.75 11.75
    endloop
  endfacet
  facet normal 0 -1 -0
    outer loop
      vertex 30 -0.75 11.75
      vertex -30 -0.75 8.25
      vertex 30 -0.75 8.25
    endloop
  endfacet
  facet normal 0 -1 0
    outer loop
      vertex -30 -0.75 -1.75
      vertex 30 -0.75 1.75
      vertex -30 -0.75 1.75
    endloop
  endfacet
  facet normal 0 -1 -0
    outer loop
      vertex 30 -0.75 1.75
      vertex -30 -0.75 -1.75
      vertex 30 -0.75 -1.75
    endloop
  endfacet
  facet normal 0 1 -0
    outer loop
      vertex 30 0.75 -42.5
      vertex -30 0.75 -3.25
      vertex 30 0.75 -3.25
    endloop
  endfacet
  facet normal 0 1 0
    outer loop
      vertex -30 0.75 -3.25
      vertex 30 0.75 -42.5
      vertex -30 0.75 -42.5
    endloop
  endfacet
  facet normal 0 1 -0
    outer loop
      vertex 30 0.75 13.25
      vertex -30 0.75 22.5
      vertex 30 0.75 22.5
    endloop
  endfacet
  facet normal 0 1 0
    outer loop
      vertex -30 0.75 22.5
      vertex 30 0.75 13.25
      vertex -30 0.75 13.25
    endloop
  endfacet
  facet normal 0 1 -0
    outer loop
      vertex 30 0.75 3.25
      vertex -30 0.75 6.75
      vertex 30 0.75 6.75
    endloop
  endfacet
  facet normal 0 1 0
    outer loop
      vertex -30 0.75 6.75
      vertex 30 0.75 3.25
      vertex -30 0.75 3.25
    endloop
  endfacet
  facet normal 0 1 -0
    outer loop
      vertex 30 0.75 8.25
      vertex -30 0.75 11.75
      vertex 30 0.75 11.75
    endloop
  endfacet
  facet normal 0 1 0
    outer loop
      vertex -30 0.75 11.75
      vertex 30 0.75 8.25
      vertex -30 0.75 8.25
    endloop
  endfacet
  facet normal 0 1 -0
    outer loop
      vertex 30 0.75 -1.75
      vertex -30 0.75 1.75
      vertex 30 0.75 1.75
    endloop
  endfacet
  facet normal 0 1 0
    outer loop
      vertex -30 0.75 1.75
      vertex 30 0.75 -1.75
      vertex -30 0.75 -1.75
    endloop
  endfacet
  facet normal -0 0 1
    outer loop
      vertex -30 0.75 22.5
      vertex 30 -0.75 22.5
      vertex 30 0.75 22.5
    endloop
  endfacet
  facet normal 0 0 1
    outer loop
      vertex 30 -0.75 22.5
      vertex -30 0.75 22.5
      vertex -30 -0.75 22.5
    endloop
  endfacet
  facet normal 0 0 -1
    outer loop
      vertex -30 -0.75 -42.5
      vertex 30 0.75 -42.5
      vertex 30 -0.75 -42.5
    endloop
  endfacet
  facet normal -0 0 -1
    outer loop
      vertex 30 0.75 -42.5
      vertex -30 -0.75 -42.5
      vertex -30 0.75 -42.5
    endloop
  endfacet
endsolid OpenSCAD_Model
