solid OpenSCAD_Model
  facet normal -0.743147 -0.669129 0
    outer loop
      vertex -6.69131 -7.43145 0
      vertex -8.09017 -5.87785 50
      vertex -8.09017 -5.87785 0
    endloop
  endfacet
  facet normal -0.743147 -0.669129 0
    outer loop
      vertex -8.09017 -5.87785 50
      vertex -6.69131 -7.43145 0
      vertex -6.69131 -7.43145 50
    endloop
  endfacet
  facet normal 0.951056 0.309019 0
    outer loop
      vertex 9.13545 4.06737 50
      vertex 9.5 2.94541 25
      vertex 9.13545 4.06737 0
    endloop
  endfacet
  facet normal 0.951055 0.309021 -6.27828e-08
    outer loop
      vertex 9.78148 2.07912 50
      vertex 9.5 2.94541 25
      vertex 9.13545 4.06737 50
    endloop
  endfacet
  facet normal 0.951055 0.309022 0
    outer loop
      vertex 9.5 2.94541 25
      vertex 9.78148 2.07912 50
      vertex 9.78148 2.07912 25
    endloop
  endfacet
  facet normal 0.951056 0.309019 0
    outer loop
      vertex 9.13545 4.06737 0
      vertex 9.5 2.94541 25
      vertex 9.5 2.94541 0
    endloop
  endfacet
  facet normal 0.994522 0.104526 -0
    outer loop
      vertex 10 0 38.776
      vertex 9.78148 2.07912 50
      vertex 10 0 50
    endloop
  endfacet
  facet normal 0.994522 0.104526 0
    outer loop
      vertex 9.78148 2.07912 50
      vertex 10 0 38.776
      vertex 9.78148 2.07912 25
    endloop
  endfacet
  facet normal 0.994522 0.104526 -0
    outer loop
      vertex 10 0 36.224
      vertex 9.78148 2.07912 25
      vertex 10 0 38.776
    endloop
  endfacet
  facet normal 0.994522 0.104526 0
    outer loop
      vertex 9.78148 2.07912 25
      vertex 10 0 36.224
      vertex 10 0 25
    endloop
  endfacet
  facet normal 0.866026 0.5 0
    outer loop
      vertex 9.13545 4.06737 50
      vertex 8.09017 5.87785 0
      vertex 8.09017 5.87785 50
    endloop
  endfacet
  facet normal 0.866026 0.5 0
    outer loop
      vertex 8.09017 5.87785 0
      vertex 9.13545 4.06737 50
      vertex 9.13545 4.06737 0
    endloop
  endfacet
  facet normal 0.951055 -0.309021 0
    outer loop
      vertex 9.13545 -4.06737 50
      vertex 9.78148 -2.07912 38.705
      vertex 9.78148 -2.07912 50
    endloop
  endfacet
  facet normal 0.951055 -0.309021 0
    outer loop
      vertex 9.78148 -2.07912 38.705
      vertex 9.13545 -4.06737 50
      vertex 9.13545 -4.06737 38.4951
    endloop
  endfacet
  facet normal 0.951056 -0.309019 0
    outer loop
      vertex 9.13545 -4.06737 0
      vertex 9.5 -2.94541 11.3865
      vertex 9.13545 -4.06737 11.5049
    endloop
  endfacet
  facet normal 0.951056 -0.309019 0
    outer loop
      vertex 9.5 -2.94541 11.3865
      vertex 9.13545 -4.06737 0
      vertex 9.5 -2.94541 0
    endloop
  endfacet
  facet normal 0.951055 -0.309022 0
    outer loop
      vertex 9.78148 -2.07912 36.295
      vertex 9.5 -2.94541 25
      vertex 9.78148 -2.07912 25
    endloop
  endfacet
  facet normal 0.951055 -0.309021 -1.37845e-07
    outer loop
      vertex 9.13545 -4.06737 36.5049
      vertex 9.5 -2.94541 25
      vertex 9.78148 -2.07912 36.295
    endloop
  endfacet
  facet normal 0.951056 -0.309019 0
    outer loop
      vertex 9.13545 -4.06737 13.4951
      vertex 9.5 -2.94541 25
      vertex 9.13545 -4.06737 36.5049
    endloop
  endfacet
  facet normal 0.951056 -0.309019 0
    outer loop
      vertex 9.5 -2.94541 25
      vertex 9.13545 -4.06737 13.4951
      vertex 9.5 -2.94541 13.6135
    endloop
  endfacet
  facet normal 0.587783 -0.809019 0
    outer loop
      vertex 5 -8.66025 0
      vertex 6.69131 -7.43145 50
      vertex 5 -8.66025 50
    endloop
  endfacet
  facet normal 0.587783 -0.809019 0
    outer loop
      vertex 6.69131 -7.43145 50
      vertex 5 -8.66025 0
      vertex 6.69131 -7.43145 0
    endloop
  endfacet
  facet normal 0.743147 -0.669129 0
    outer loop
      vertex 6.69131 -7.43145 50
      vertex 8.09017 -5.87785 0
      vertex 8.09017 -5.87785 50
    endloop
  endfacet
  facet normal 0.743147 -0.669129 0
    outer loop
      vertex 8.09017 -5.87785 0
      vertex 6.69131 -7.43145 50
      vertex 6.69131 -7.43145 0
    endloop
  endfacet
  facet normal 0.994522 -0.104526 0
    outer loop
      vertex 9.78148 -2.07912 50
      vertex 10 0 38.776
      vertex 10 0 50
    endloop
  endfacet
  facet normal 0.994522 -0.104526 0
    outer loop
      vertex 10 0 38.776
      vertex 9.78148 -2.07912 50
      vertex 9.78148 -2.07912 38.705
    endloop
  endfacet
  facet normal 0.994522 -0.104526 0
    outer loop
      vertex 9.78148 -2.07912 25
      vertex 10 0 36.224
      vertex 9.78148 -2.07912 36.295
    endloop
  endfacet
  facet normal 0.994522 -0.104526 0
    outer loop
      vertex 10 0 36.224
      vertex 9.78148 -2.07912 25
      vertex 10 0 25
    endloop
  endfacet
  facet normal -0.406736 -0.913546 1.92321e-07
    outer loop
      vertex -5 -8.66025 50
      vertex -3.1139 -9.5 25
      vertex -3.09017 -9.51056 50
    endloop
  endfacet
  facet normal -0.406738 -0.913545 0
    outer loop
      vertex -5 -8.66025 0
      vertex -3.1139 -9.5 25
      vertex -5 -8.66025 50
    endloop
  endfacet
  facet normal -0.406738 -0.913545 -0
    outer loop
      vertex -3.1139 -9.5 25
      vertex -5 -8.66025 0
      vertex -3.1139 -9.5 0
    endloop
  endfacet
  facet normal -0.406567 -0.913621 -0
    outer loop
      vertex -3.09017 -9.51056 50
      vertex -3.1139 -9.5 25
      vertex -3.09017 -9.51056 25
    endloop
  endfacet
  facet normal 0.406736 0.913546 1.92321e-07
    outer loop
      vertex 5 8.66025 50
      vertex 3.1139 9.5 25
      vertex 3.09017 9.51056 50
    endloop
  endfacet
  facet normal 0.406738 0.913545 -0
    outer loop
      vertex 5 8.66025 0
      vertex 3.1139 9.5 25
      vertex 5 8.66025 50
    endloop
  endfacet
  facet normal 0.406738 0.913545 0
    outer loop
      vertex 3.1139 9.5 25
      vertex 5 8.66025 0
      vertex 3.1139 9.5 0
    endloop
  endfacet
  facet normal 0.406567 0.913621 0
    outer loop
      vertex 3.09017 9.51056 50
      vertex 3.1139 9.5 25
      vertex 3.09017 9.51056 25
    endloop
  endfacet
  facet normal 0.743147 0.669129 0
    outer loop
      vertex 8.09017 5.87785 50
      vertex 6.69131 7.43145 0
      vertex 6.69131 7.43145 50
    endloop
  endfacet
  facet normal 0.743147 0.669129 0
    outer loop
      vertex 6.69131 7.43145 0
      vertex 8.09017 5.87785 50
      vertex 8.09017 5.87785 0
    endloop
  endfacet
  facet normal -0.587783 -0.809019 0
    outer loop
      vertex -6.69131 -7.43145 0
      vertex -5 -8.66025 50
      vertex -6.69131 -7.43145 50
    endloop
  endfacet
  facet normal -0.587783 -0.809019 -0
    outer loop
      vertex -5 -8.66025 50
      vertex -6.69131 -7.43145 0
      vertex -5 -8.66025 0
    endloop
  endfacet
  facet normal -0.743147 0.669129 0
    outer loop
      vertex -8.09017 5.87785 0
      vertex -6.69131 7.43145 50
      vertex -6.69131 7.43145 0
    endloop
  endfacet
  facet normal -0.743147 0.669129 0
    outer loop
      vertex -6.69131 7.43145 50
      vertex -8.09017 5.87785 0
      vertex -8.09017 5.87785 50
    endloop
  endfacet
  facet normal 0 1 -0
    outer loop
      vertex 1.04528 9.94522 25
      vertex -1.04528 9.94522 50
      vertex 1.04528 9.94522 50
    endloop
  endfacet
  facet normal 0 1 0
    outer loop
      vertex -1.04528 9.94522 50
      vertex 1.04528 9.94522 25
      vertex -1.04528 9.94522 25
    endloop
  endfacet
  facet normal 0.406567 -0.913621 0
    outer loop
      vertex 3.1139 -9.5 25
      vertex 3.09017 -9.51056 50
      vertex 3.09017 -9.51056 25
    endloop
  endfacet
  facet normal 0.406736 -0.913546 1.92321e-07
    outer loop
      vertex 3.09017 -9.51056 50
      vertex 3.1139 -9.5 25
      vertex 5 -8.66025 50
    endloop
  endfacet
  facet normal 0.406738 -0.913545 0
    outer loop
      vertex 5 -8.66025 0
      vertex 3.1139 -9.5 25
      vertex 3.1139 -9.5 0
    endloop
  endfacet
  facet normal 0.406738 -0.913545 0
    outer loop
      vertex 3.1139 -9.5 25
      vertex 5 -8.66025 0
      vertex 5 -8.66025 50
    endloop
  endfacet
  facet normal 0.207914 -0.978147 0
    outer loop
      vertex 1.04528 -9.94522 25
      vertex 3.09017 -9.51056 50
      vertex 1.04528 -9.94522 50
    endloop
  endfacet
  facet normal 0.207914 -0.978147 0
    outer loop
      vertex 3.09017 -9.51056 50
      vertex 1.04528 -9.94522 25
      vertex 3.09017 -9.51056 25
    endloop
  endfacet
  facet normal -0.951056 0.309019 0
    outer loop
      vertex -9.5 2.94541 25
      vertex -9.13545 4.06737 0
      vertex -9.5 2.94541 0
    endloop
  endfacet
  facet normal -0.951056 0.309019 0
    outer loop
      vertex -9.13545 4.06737 0
      vertex -9.5 2.94541 25
      vertex -9.13545 4.06737 50
    endloop
  endfacet
  facet normal -0.951055 0.309022 0
    outer loop
      vertex -9.78148 2.07912 50
      vertex -9.5 2.94541 25
      vertex -9.78148 2.07912 25
    endloop
  endfacet
  facet normal -0.951055 0.309021 -6.27828e-08
    outer loop
      vertex -9.5 2.94541 25
      vertex -9.78148 2.07912 50
      vertex -9.13545 4.06737 50
    endloop
  endfacet
  facet normal 0 0 -1
    outer loop
      vertex 8.09017 -5.87785 0
      vertex 9.5 -2.94541 0
      vertex 9.13545 -4.06737 0
    endloop
  endfacet
  facet normal 0 0 -1
    outer loop
      vertex 6.69131 -7.43145 0
      vertex 9.5 -2.94541 0
      vertex 8.09017 -5.87785 0
    endloop
  endfacet
  facet normal 0 0 -1
    outer loop
      vertex 5 -8.66025 0
      vertex 9.5 -2.94541 0
      vertex 6.69131 -7.43145 0
    endloop
  endfacet
  facet normal 0 0 -1
    outer loop
      vertex 9.5 2.94541 0
      vertex 8.09017 5.87785 0
      vertex 9.13545 4.06737 0
    endloop
  endfacet
  facet normal 0 0 -1
    outer loop
      vertex 3.1139 -9.5 0
      vertex 9.5 -2.94541 0
      vertex 5 -8.66025 0
    endloop
  endfacet
  facet normal 0 0 -1
    outer loop
      vertex 9.5 2.94541 0
      vertex 6.69131 7.43145 0
      vertex 8.09017 5.87785 0
    endloop
  endfacet
  facet normal -0 0 -1
    outer loop
      vertex 9.5 -2.94541 0
      vertex 3.1139 -9.5 0
      vertex 9.5 2.94541 0
    endloop
  endfacet
  facet normal 0 0 -1
    outer loop
      vertex 9.5 2.94541 0
      vertex 5 8.66025 0
      vertex 6.69131 7.43145 0
    endloop
  endfacet
  facet normal 0 0 -1
    outer loop
      vertex 3.1139 9.5 0
      vertex 9.5 2.94541 0
      vertex 3.1139 -9.5 0
    endloop
  endfacet
  facet normal 0 0 -1
    outer loop
      vertex 9.5 2.94541 0
      vertex 3.1139 9.5 0
      vertex 5 8.66025 0
    endloop
  endfacet
  facet normal 0 0 -1
    outer loop
      vertex -3.1139 -9.5 0
      vertex 3.1139 9.5 0
      vertex 3.1139 -9.5 0
    endloop
  endfacet
  facet normal 0 0 -1
    outer loop
      vertex -3.1139 -9.5 0
      vertex -3.1139 9.5 0
      vertex 3.1139 9.5 0
    endloop
  endfacet
  facet normal 0 0 -1
    outer loop
      vertex -9.5 -2.94541 0
      vertex -3.1139 -9.5 0
      vertex -5 -8.66025 0
    endloop
  endfacet
  facet normal 0 0 -1
    outer loop
      vertex -3.1139 -9.5 0
      vertex -9.5 -2.94541 0
      vertex -3.1139 9.5 0
    endloop
  endfacet
  facet normal 0 0 -1
    outer loop
      vertex -9.5 -2.94541 0
      vertex -5 -8.66025 0
      vertex -6.69131 -7.43145 0
    endloop
  endfacet
  facet normal 0 0 -1
    outer loop
      vertex -9.5 2.94541 0
      vertex -3.1139 9.5 0
      vertex -9.5 -2.94541 0
    endloop
  endfacet
  facet normal 0 0 -1
    outer loop
      vertex -9.5 -2.94541 0
      vertex -6.69131 -7.43145 0
      vertex -8.09017 -5.87785 0
    endloop
  endfacet
  facet normal 0 0 -1
    outer loop
      vertex -3.1139 9.5 0
      vertex -9.5 2.94541 0
      vertex -5 8.66025 0
    endloop
  endfacet
  facet normal 0 0 -1
    outer loop
      vertex -9.5 -2.94541 0
      vertex -8.09017 -5.87785 0
      vertex -9.13545 -4.06737 0
    endloop
  endfacet
  facet normal 0 0 -1
    outer loop
      vertex -5 8.66025 0
      vertex -9.5 2.94541 0
      vertex -6.69131 7.43145 0
    endloop
  endfacet
  facet normal 0 0 -1
    outer loop
      vertex -6.69131 7.43145 0
      vertex -9.5 2.94541 0
      vertex -8.09017 5.87785 0
    endloop
  endfacet
  facet normal 0 0 -1
    outer loop
      vertex -8.09017 5.87785 0
      vertex -9.5 2.94541 0
      vertex -9.13545 4.06737 0
    endloop
  endfacet
  facet normal -0.951056 -0.309019 0
    outer loop
      vertex -9.5 -2.94541 0
      vertex -9.13545 -4.06737 0
      vertex -9.5 -2.94541 25
    endloop
  endfacet
  facet normal -0.951055 -0.309022 0
    outer loop
      vertex -9.5 -2.94541 25
      vertex -9.78148 -2.07912 50
      vertex -9.78148 -2.07912 25
    endloop
  endfacet
  facet normal -0.951056 -0.309019 -0
    outer loop
      vertex -9.13545 -4.06737 50
      vertex -9.5 -2.94541 25
      vertex -9.13545 -4.06737 0
    endloop
  endfacet
  facet normal -0.951055 -0.309021 -6.27828e-08
    outer loop
      vertex -9.5 -2.94541 25
      vertex -9.13545 -4.06737 50
      vertex -9.78148 -2.07912 50
    endloop
  endfacet
  facet normal -0.406567 0.913621 0
    outer loop
      vertex -3.1139 9.5 25
      vertex -3.09017 9.51056 50
      vertex -3.09017 9.51056 25
    endloop
  endfacet
  facet normal -0.406736 0.913546 1.92321e-07
    outer loop
      vertex -3.09017 9.51056 50
      vertex -3.1139 9.5 25
      vertex -5 8.66025 50
    endloop
  endfacet
  facet normal -0.406738 0.913545 0
    outer loop
      vertex -5 8.66025 0
      vertex -3.1139 9.5 25
      vertex -3.1139 9.5 0
    endloop
  endfacet
  facet normal -0.406738 0.913545 0
    outer loop
      vertex -3.1139 9.5 25
      vertex -5 8.66025 0
      vertex -5 8.66025 50
    endloop
  endfacet
  facet normal 0 0 1
    outer loop
      vertex 3 0 50
      vertex 10 0 50
      vertex 9.78148 2.07912 50
    endloop
  endfacet
  facet normal 0 0 1
    outer loop
      vertex 3 0 50
      vertex 9.78148 2.07912 50
      vertex 9.13545 4.06737 50
    endloop
  endfacet
  facet normal 0 0 1
    outer loop
      vertex 10 0 50
      vertex 3 0 50
      vertex 9.78148 -2.07912 50
    endloop
  endfacet
  facet normal 0 0 1
    outer loop
      vertex 2.42705 1.76336 50
      vertex 9.13545 4.06737 50
      vertex 8.09017 5.87785 50
    endloop
  endfacet
  facet normal 0 0 1
    outer loop
      vertex 9.78148 -2.07912 50
      vertex 3 0 50
      vertex 9.13545 -4.06737 50
    endloop
  endfacet
  facet normal 0 0 1
    outer loop
      vertex 2.42705 1.76336 50
      vertex 8.09017 5.87785 50
      vertex 6.69131 7.43145 50
    endloop
  endfacet
  facet normal -0 0 1
    outer loop
      vertex 2.42705 -1.76336 50
      vertex 9.13545 -4.06737 50
      vertex 3 0 50
    endloop
  endfacet
  facet normal 0 0 1
    outer loop
      vertex 2.42705 1.76336 50
      vertex 6.69131 7.43145 50
      vertex 5 8.66025 50
    endloop
  endfacet
  facet normal 0 0 1
    outer loop
      vertex 9.13545 -4.06737 50
      vertex 2.42705 -1.76336 50
      vertex 8.09017 -5.87785 50
    endloop
  endfacet
  facet normal 0 0 1
    outer loop
      vertex 0.927051 2.85317 50
      vertex 5 8.66025 50
      vertex 3.09017 9.51056 50
    endloop
  endfacet
  facet normal 0 0 1
    outer loop
      vertex 8.09017 -5.87785 50
      vertex 2.42705 -1.76336 50
      vertex 6.69131 -7.43145 50
    endloop
  endfacet
  facet normal 0 0 1
    outer loop
      vertex 6.69131 -7.43145 50
      vertex 2.42705 -1.76336 50
      vertex 5 -8.66025 50
    endloop
  endfacet
  facet normal 0 0 1
    outer loop
      vertex 9.13545 4.06737 50
      vertex 2.42705 1.76336 50
      vertex 3 0 50
    endloop
  endfacet
  facet normal 0 0 1
    outer loop
      vertex 0.927051 2.85317 50
      vertex 3.09017 9.51056 50
      vertex 1.04528 9.94522 50
    endloop
  endfacet
  facet normal 0 0 1
    outer loop
      vertex 5 8.66025 50
      vertex 0.927051 2.85317 50
      vertex 2.42705 1.76336 50
    endloop
  endfacet
  facet normal 0 0 1
    outer loop
      vertex 1.04528 9.94522 50
      vertex -0.927051 2.85317 50
      vertex 0.927051 2.85317 50
    endloop
  endfacet
  facet normal -0 0 1
    outer loop
      vertex -1.04528 9.94522 50
      vertex -0.927051 2.85317 50
      vertex 1.04528 9.94522 50
    endloop
  endfacet
  facet normal -0 0 1
    outer loop
      vertex -3.09017 9.51056 50
      vertex -0.927051 2.85317 50
      vertex -1.04528 9.94522 50
    endloop
  endfacet
  facet normal -0 0 1
    outer loop
      vertex -5 8.66025 50
      vertex -0.927051 2.85317 50
      vertex -3.09017 9.51056 50
    endloop
  endfacet
  facet normal 0 0 1
    outer loop
      vertex -0.927051 2.85317 50
      vertex -5 8.66025 50
      vertex -2.42705 1.76336 50
    endloop
  endfacet
  facet normal -0 0 1
    outer loop
      vertex 0.927051 -2.85317 50
      vertex 5 -8.66025 50
      vertex 2.42705 -1.76336 50
    endloop
  endfacet
  facet normal 0 0 1
    outer loop
      vertex 5 -8.66025 50
      vertex 0.927051 -2.85317 50
      vertex 3.09017 -9.51056 50
    endloop
  endfacet
  facet normal 0 0 1
    outer loop
      vertex 3.09017 -9.51056 50
      vertex 0.927051 -2.85317 50
      vertex 1.04528 -9.94522 50
    endloop
  endfacet
  facet normal -0 0 1
    outer loop
      vertex -0.927051 -2.85317 50
      vertex 1.04528 -9.94522 50
      vertex 0.927051 -2.85317 50
    endloop
  endfacet
  facet normal 0 0 1
    outer loop
      vertex -0.927051 -2.85317 50
      vertex -1.04528 -9.94522 50
      vertex 1.04528 -9.94522 50
    endloop
  endfacet
  facet normal 0 0 1
    outer loop
      vertex -5 -8.66025 50
      vertex -0.927051 -2.85317 50
      vertex -2.42705 -1.76336 50
    endloop
  endfacet
  facet normal 0 0 1
    outer loop
      vertex -9.13545 -4.06737 50
      vertex -2.42705 -1.76336 50
      vertex -3 0 50
    endloop
  endfacet
  facet normal 0 0 1
    outer loop
      vertex -0.927051 -2.85317 50
      vertex -3.09017 -9.51056 50
      vertex -1.04528 -9.94522 50
    endloop
  endfacet
  facet normal -0 0 1
    outer loop
      vertex -6.69131 7.43145 50
      vertex -2.42705 1.76336 50
      vertex -5 8.66025 50
    endloop
  endfacet
  facet normal -0 0 1
    outer loop
      vertex -8.09017 5.87785 50
      vertex -2.42705 1.76336 50
      vertex -6.69131 7.43145 50
    endloop
  endfacet
  facet normal 0 0 1
    outer loop
      vertex -0.927051 -2.85317 50
      vertex -5 -8.66025 50
      vertex -3.09017 -9.51056 50
    endloop
  endfacet
  facet normal -0 0 1
    outer loop
      vertex -9.13545 4.06737 50
      vertex -2.42705 1.76336 50
      vertex -8.09017 5.87785 50
    endloop
  endfacet
  facet normal 0 0 1
    outer loop
      vertex -2.42705 -1.76336 50
      vertex -6.69131 -7.43145 50
      vertex -5 -8.66025 50
    endloop
  endfacet
  facet normal 0 0 1
    outer loop
      vertex -2.42705 1.76336 50
      vertex -9.13545 4.06737 50
      vertex -3 0 50
    endloop
  endfacet
  facet normal 0 0 1
    outer loop
      vertex -2.42705 -1.76336 50
      vertex -8.09017 -5.87785 50
      vertex -6.69131 -7.43145 50
    endloop
  endfacet
  facet normal -0 0 1
    outer loop
      vertex -9.78148 2.07912 50
      vertex -3 0 50
      vertex -9.13545 4.06737 50
    endloop
  endfacet
  facet normal 0 0 1
    outer loop
      vertex -2.42705 -1.76336 50
      vertex -9.13545 -4.06737 50
      vertex -8.09017 -5.87785 50
    endloop
  endfacet
  facet normal 0 0 1
    outer loop
      vertex -10 0 50
      vertex -3 0 50
      vertex -9.78148 2.07912 50
    endloop
  endfacet
  facet normal 0 0 1
    outer loop
      vertex -3 0 50
      vertex -9.78148 -2.07912 50
      vertex -9.13545 -4.06737 50
    endloop
  endfacet
  facet normal 0 0 1
    outer loop
      vertex -3 0 50
      vertex -10 0 50
      vertex -9.78148 -2.07912 50
    endloop
  endfacet
  facet normal -0.207914 -0.978147 0
    outer loop
      vertex -3.09017 -9.51056 25
      vertex -1.04528 -9.94522 50
      vertex -3.09017 -9.51056 50
    endloop
  endfacet
  facet normal -0.207914 -0.978147 -0
    outer loop
      vertex -1.04528 -9.94522 50
      vertex -3.09017 -9.51056 25
      vertex -1.04528 -9.94522 25
    endloop
  endfacet
  facet normal 0.207914 0.978147 -0
    outer loop
      vertex 3.09017 9.51056 25
      vertex 1.04528 9.94522 50
      vertex 3.09017 9.51056 50
    endloop
  endfacet
  facet normal 0.207914 0.978147 0
    outer loop
      vertex 1.04528 9.94522 50
      vertex 3.09017 9.51056 25
      vertex 1.04528 9.94522 25
    endloop
  endfacet
  facet normal -0.994522 -0.104526 0
    outer loop
      vertex -9.78148 -2.07912 25
      vertex -10 0 50
      vertex -10 0 25
    endloop
  endfacet
  facet normal -0.994522 -0.104526 0
    outer loop
      vertex -10 0 50
      vertex -9.78148 -2.07912 25
      vertex -9.78148 -2.07912 50
    endloop
  endfacet
  facet normal -0.866026 -0.5 0
    outer loop
      vertex -8.09017 -5.87785 0
      vertex -9.13545 -4.06737 50
      vertex -9.13545 -4.06737 0
    endloop
  endfacet
  facet normal -0.866026 -0.5 0
    outer loop
      vertex -9.13545 -4.06737 50
      vertex -8.09017 -5.87785 0
      vertex -8.09017 -5.87785 50
    endloop
  endfacet
  facet normal -0.866026 0.5 0
    outer loop
      vertex -9.13545 4.06737 0
      vertex -8.09017 5.87785 50
      vertex -8.09017 5.87785 0
    endloop
  endfacet
  facet normal -0.866026 0.5 0
    outer loop
      vertex -8.09017 5.87785 50
      vertex -9.13545 4.06737 0
      vertex -9.13545 4.06737 50
    endloop
  endfacet
  facet normal 0.866026 -0.5 0
    outer loop
      vertex 8.09017 -5.87785 50
      vertex 9.13545 -4.06737 38.4951
      vertex 9.13545 -4.06737 50
    endloop
  endfacet
  facet normal 0.866026 -0.499999 0
    outer loop
      vertex 8.09017 -5.87785 50
      vertex 8.78647 -4.67182 36.6183
      vertex 8.78647 -4.67182 38.3817
    endloop
  endfacet
  facet normal 0.866026 -0.499999 0
    outer loop
      vertex 8.78647 -4.67182 36.6183
      vertex 8.09017 -5.87785 50
      vertex 8.78647 -4.67182 13.3817
    endloop
  endfacet
  facet normal 0.866026 -0.499999 0
    outer loop
      vertex 8.09017 -5.87785 0
      vertex 8.78647 -4.67182 13.3817
      vertex 8.09017 -5.87785 50
    endloop
  endfacet
  facet normal 0.866025 -0.500001 -2.19475e-07
    outer loop
      vertex 9.13545 -4.06737 38.4951
      vertex 8.09017 -5.87785 50
      vertex 8.78647 -4.67182 38.3817
    endloop
  endfacet
  facet normal 0.866025 -0.500001 0
    outer loop
      vertex 8.78647 -4.67182 36.6183
      vertex 9.13545 -4.06737 13.4951
      vertex 9.13545 -4.06737 36.5049
    endloop
  endfacet
  facet normal 0.866025 -0.500001 0
    outer loop
      vertex 9.13545 -4.06737 13.4951
      vertex 8.78647 -4.67182 36.6183
      vertex 8.78647 -4.67182 13.3817
    endloop
  endfacet
  facet normal 0.866025 -0.500001 2.19475e-07
    outer loop
      vertex 8.09017 -5.87785 0
      vertex 9.13545 -4.06737 11.5049
      vertex 8.78647 -4.67182 11.6183
    endloop
  endfacet
  facet normal 0.866026 -0.5 0
    outer loop
      vertex 9.13545 -4.06737 11.5049
      vertex 8.09017 -5.87785 0
      vertex 9.13545 -4.06737 0
    endloop
  endfacet
  facet normal 0.866026 -0.499999 0
    outer loop
      vertex 8.78647 -4.67182 13.3817
      vertex 8.09017 -5.87785 0
      vertex 8.78647 -4.67182 11.6183
    endloop
  endfacet
  facet normal 0.587783 0.809019 -0
    outer loop
      vertex 6.69131 7.43145 0
      vertex 5 8.66025 50
      vertex 6.69131 7.43145 50
    endloop
  endfacet
  facet normal 0.587783 0.809019 0
    outer loop
      vertex 5 8.66025 50
      vertex 6.69131 7.43145 0
      vertex 5 8.66025 0
    endloop
  endfacet
  facet normal -0.587783 0.809019 0
    outer loop
      vertex -5 8.66025 0
      vertex -6.69131 7.43145 50
      vertex -5 8.66025 50
    endloop
  endfacet
  facet normal -0.587783 0.809019 0
    outer loop
      vertex -6.69131 7.43145 50
      vertex -5 8.66025 0
      vertex -6.69131 7.43145 0
    endloop
  endfacet
  facet normal -0.207914 0.978147 0
    outer loop
      vertex -1.04528 9.94522 25
      vertex -3.09017 9.51056 50
      vertex -1.04528 9.94522 50
    endloop
  endfacet
  facet normal -0.207914 0.978147 0
    outer loop
      vertex -3.09017 9.51056 50
      vertex -1.04528 9.94522 25
      vertex -3.09017 9.51056 25
    endloop
  endfacet
  facet normal 0 -1 0
    outer loop
      vertex -1.04528 -9.94522 25
      vertex 1.04528 -9.94522 50
      vertex -1.04528 -9.94522 50
    endloop
  endfacet
  facet normal 0 -1 -0
    outer loop
      vertex 1.04528 -9.94522 50
      vertex -1.04528 -9.94522 25
      vertex 1.04528 -9.94522 25
    endloop
  endfacet
  facet normal -0.994522 0.104526 0
    outer loop
      vertex -10 0 25
      vertex -9.78148 2.07912 50
      vertex -9.78148 2.07912 25
    endloop
  endfacet
  facet normal -0.994522 0.104526 0
    outer loop
      vertex -9.78148 2.07912 50
      vertex -10 0 25
      vertex -10 0 50
    endloop
  endfacet
  facet normal 0 0 -1
    outer loop
      vertex 9.5 -2.94541 25
      vertex 10 0 25
      vertex 9.78148 -2.07912 25
    endloop
  endfacet
  facet normal 0 0 -1
    outer loop
      vertex 9.5 2.94541 25
      vertex 10 0 25
      vertex 9.5 -2.94541 25
    endloop
  endfacet
  facet normal 0 0 -1
    outer loop
      vertex 10 0 25
      vertex 9.5 2.94541 25
      vertex 9.78148 2.07912 25
    endloop
  endfacet
  facet normal 1 0 0
    outer loop
      vertex 9.5 2.94541 25
      vertex 9.5 0 13.6135
      vertex 9.5 2.94541 0
    endloop
  endfacet
  facet normal 1 -0 0
    outer loop
      vertex 9.5 -2.94541 25
      vertex 9.5 0 13.6135
      vertex 9.5 2.94541 25
    endloop
  endfacet
  facet normal 1 0 0
    outer loop
      vertex 9.5 0 13.6135
      vertex 9.5 -2.94541 25
      vertex 9.5 -2.94541 13.6135
    endloop
  endfacet
  facet normal 1 -0 0
    outer loop
      vertex 9.5 0 11.3865
      vertex 9.5 2.94541 0
      vertex 9.5 0 13.6135
    endloop
  endfacet
  facet normal 1 0 0
    outer loop
      vertex 9.5 -2.94541 0
      vertex 9.5 0 11.3865
      vertex 9.5 -2.94541 11.3865
    endloop
  endfacet
  facet normal 1 0 0
    outer loop
      vertex 9.5 0 11.3865
      vertex 9.5 -2.94541 0
      vertex 9.5 2.94541 0
    endloop
  endfacet
  facet normal 0 0 -1
    outer loop
      vertex 3.1139 9.5 25
      vertex 1.04528 9.94522 25
      vertex 3.09017 9.51056 25
    endloop
  endfacet
  facet normal 0 0 -1
    outer loop
      vertex 3.1139 9.5 25
      vertex -1.04528 9.94522 25
      vertex 1.04528 9.94522 25
    endloop
  endfacet
  facet normal 0 0 -1
    outer loop
      vertex -3.1139 9.5 25
      vertex -1.04528 9.94522 25
      vertex 3.1139 9.5 25
    endloop
  endfacet
  facet normal 0 0 -1
    outer loop
      vertex -1.04528 9.94522 25
      vertex -3.1139 9.5 25
      vertex -3.09017 9.51056 25
    endloop
  endfacet
  facet normal 0 1 -0
    outer loop
      vertex 3.1139 9.5 0
      vertex -3.1139 9.5 25
      vertex 3.1139 9.5 25
    endloop
  endfacet
  facet normal 0 1 0
    outer loop
      vertex -3.1139 9.5 25
      vertex 3.1139 9.5 0
      vertex -3.1139 9.5 0
    endloop
  endfacet
  facet normal 0 0 -1
    outer loop
      vertex -10 0 25
      vertex -9.5 -2.94541 25
      vertex -9.78148 -2.07912 25
    endloop
  endfacet
  facet normal 0 0 -1
    outer loop
      vertex -9.5 -2.94541 25
      vertex -10 0 25
      vertex -9.5 2.94541 25
    endloop
  endfacet
  facet normal 0 0 -1
    outer loop
      vertex -9.5 2.94541 25
      vertex -10 0 25
      vertex -9.78148 2.07912 25
    endloop
  endfacet
  facet normal -1 0 0
    outer loop
      vertex -9.5 -2.94541 0
      vertex -9.5 2.94541 25
      vertex -9.5 2.94541 0
    endloop
  endfacet
  facet normal -1 -0 0
    outer loop
      vertex -9.5 2.94541 25
      vertex -9.5 -2.94541 0
      vertex -9.5 -2.94541 25
    endloop
  endfacet
  facet normal 0 0 -1
    outer loop
      vertex 1.04528 -9.94522 25
      vertex 3.1139 -9.5 25
      vertex 3.09017 -9.51056 25
    endloop
  endfacet
  facet normal 0 0 -1
    outer loop
      vertex -1.04528 -9.94522 25
      vertex 3.1139 -9.5 25
      vertex 1.04528 -9.94522 25
    endloop
  endfacet
  facet normal 0 0 -1
    outer loop
      vertex -3.1139 -9.5 25
      vertex -1.04528 -9.94522 25
      vertex -3.09017 -9.51056 25
    endloop
  endfacet
  facet normal 0 0 -1
    outer loop
      vertex -1.04528 -9.94522 25
      vertex -3.1139 -9.5 25
      vertex 3.1139 -9.5 25
    endloop
  endfacet
  facet normal 0 -1 0
    outer loop
      vertex -3.1139 -9.5 0
      vertex 3.1139 -9.5 25
      vertex -3.1139 -9.5 25
    endloop
  endfacet
  facet normal 0 -1 -0
    outer loop
      vertex 3.1139 -9.5 25
      vertex -3.1139 -9.5 0
      vertex 3.1139 -9.5 0
    endloop
  endfacet
  facet normal 0.308969 0 0.951072
    outer loop
      vertex 8.78647 0 11.6183
      vertex 9.5 -2.94541 11.3865
      vertex 9.5 0 11.3865
    endloop
  endfacet
  facet normal 0.30893 -1.05232e-05 0.951085
    outer loop
      vertex 9.5 -2.94541 11.3865
      vertex 8.78647 0 11.6183
      vertex 9.13545 -4.06737 11.5049
    endloop
  endfacet
  facet normal 0.30904 0 0.951049
    outer loop
      vertex 9.13545 -4.06737 11.5049
      vertex 8.78647 0 11.6183
      vertex 8.78647 -4.67182 11.6183
    endloop
  endfacet
  facet normal 1 -0 0
    outer loop
      vertex 8.78647 -4.67182 13.3817
      vertex 8.78647 0 11.6183
      vertex 8.78647 0 13.3817
    endloop
  endfacet
  facet normal 1 0 0
    outer loop
      vertex 8.78647 0 11.6183
      vertex 8.78647 -4.67182 13.3817
      vertex 8.78647 -4.67182 11.6183
    endloop
  endfacet
  facet normal 0.30893 -1.05232e-05 -0.951085
    outer loop
      vertex 8.78647 0 13.3817
      vertex 9.5 -2.94541 13.6135
      vertex 9.13545 -4.06737 13.4951
    endloop
  endfacet
  facet normal 0.30904 0 -0.951049
    outer loop
      vertex 8.78647 0 13.3817
      vertex 9.13545 -4.06737 13.4951
      vertex 8.78647 -4.67182 13.3817
    endloop
  endfacet
  facet normal 0.308969 0 -0.951072
    outer loop
      vertex 9.5 -2.94541 13.6135
      vertex 8.78647 0 13.3817
      vertex 9.5 0 13.6135
    endloop
  endfacet
  facet normal 0 -1 0
    outer loop
      vertex 8.78647 0 13.3817
      vertex 8.78648 0 13.3817
      vertex 9.5 0 13.6135
    endloop
  endfacet
  facet normal 0 -1 0
    outer loop
      vertex 8.78647 0 13.3817
      vertex 8.78648 0 11.6183
      vertex 8.78648 0 13.3817
    endloop
  endfacet
  facet normal 0 -1 0
    outer loop
      vertex 8.78647 0 11.6183
      vertex 8.78648 0 11.6183
      vertex 8.78647 0 13.3817
    endloop
  endfacet
  facet normal 0 -1 0
    outer loop
      vertex 9.5 0 11.3865
      vertex 8.78648 0 11.6183
      vertex 8.78647 0 11.6183
    endloop
  endfacet
  facet normal 0 1 0
    outer loop
      vertex 11.5 0 12.5
      vertex 9.5 0 13.6135
      vertex 10.4635 0 13.9266
    endloop
  endfacet
  facet normal 0 1 0
    outer loop
      vertex 11.5 0 12.5
      vertex 9.5 0 11.3865
      vertex 9.5 0 13.6135
    endloop
  endfacet
  facet normal -0 1 0
    outer loop
      vertex 9.5 0 11.3865
      vertex 11.5 0 12.5
      vertex 10.4635 0 11.0734
    endloop
  endfacet
  facet normal 0.309017 -6.8076e-07 0.951056
    outer loop
      vertex 8.78647 0 36.6183
      vertex 9.78148 -2.07912 36.295
      vertex 10 0 36.224
    endloop
  endfacet
  facet normal 0.309014 -2.54837e-06 0.951058
    outer loop
      vertex 9.78148 -2.07912 36.295
      vertex 8.78647 0 36.6183
      vertex 9.13545 -4.06737 36.5049
    endloop
  endfacet
  facet normal 0.30904 0 0.951049
    outer loop
      vertex 9.13545 -4.06737 36.5049
      vertex 8.78647 0 36.6183
      vertex 8.78647 -4.67182 36.6183
    endloop
  endfacet
  facet normal 0.309014 -2.54837e-06 -0.951058
    outer loop
      vertex 8.78647 0 38.3817
      vertex 9.78148 -2.07912 38.705
      vertex 9.13545 -4.06737 38.4951
    endloop
  endfacet
  facet normal 0.30904 0 -0.951049
    outer loop
      vertex 8.78647 0 38.3817
      vertex 9.13545 -4.06737 38.4951
      vertex 8.78647 -4.67182 38.3817
    endloop
  endfacet
  facet normal 0.309017 -6.8076e-07 -0.951056
    outer loop
      vertex 9.78148 -2.07912 38.705
      vertex 8.78647 0 38.3817
      vertex 10 0 38.776
    endloop
  endfacet
  facet normal 1 -0 0
    outer loop
      vertex 8.78647 -4.67182 38.3817
      vertex 8.78647 0 36.6183
      vertex 8.78647 0 38.3817
    endloop
  endfacet
  facet normal 1 0 0
    outer loop
      vertex 8.78647 0 36.6183
      vertex 8.78647 -4.67182 38.3817
      vertex 8.78647 -4.67182 36.6183
    endloop
  endfacet
  facet normal 0 -1 0
    outer loop
      vertex 8.78647 0 38.3817
      vertex 8.78648 0 38.3817
      vertex 10 0 38.776
    endloop
  endfacet
  facet normal 0 -1 0
    outer loop
      vertex 8.78647 0 38.3817
      vertex 8.78648 0 36.6183
      vertex 8.78648 0 38.3817
    endloop
  endfacet
  facet normal 0 -1 0
    outer loop
      vertex 8.78647 0 36.6183
      vertex 8.78648 0 36.6183
      vertex 8.78647 0 38.3817
    endloop
  endfacet
  facet normal 0 -1 0
    outer loop
      vertex 8.78647 0 36.6183
      vertex 10 0 36.224
      vertex 8.78648 0 36.6183
    endloop
  endfacet
  facet normal 0 1 0
    outer loop
      vertex 11.5 0 37.5
      vertex 10 0 38.776
      vertex 10.4635 0 38.9266
    endloop
  endfacet
  facet normal 0 1 0
    outer loop
      vertex 11.5 0 37.5
      vertex 10 0 36.224
      vertex 10 0 38.776
    endloop
  endfacet
  facet normal -0 1 0
    outer loop
      vertex 10 0 36.224
      vertex 11.5 0 37.5
      vertex 10.4635 0 36.0734
    endloop
  endfacet
  facet normal 0.951057 0.309017 0
    outer loop
      vertex -2.42705 -1.76336 50
      vertex -3 0 12.5
      vertex -3 0 50
    endloop
  endfacet
  facet normal 0.951057 0.309017 0
    outer loop
      vertex -3 0 12.5
      vertex -2.42705 -1.76336 50
      vertex -2.42705 -1.76336 12.5
    endloop
  endfacet
  facet normal -0.587784 -0.809018 0
    outer loop
      vertex 0.927051 2.85317 12.5
      vertex 2.42705 1.76336 50
      vertex 0.927051 2.85317 50
    endloop
  endfacet
  facet normal -0.587784 -0.809018 -0
    outer loop
      vertex 2.42705 1.76336 50
      vertex 0.927051 2.85317 12.5
      vertex 2.42705 1.76336 12.5
    endloop
  endfacet
  facet normal -0.951057 -0.309017 0
    outer loop
      vertex 3 0 12.5
      vertex 2.42705 1.76336 50
      vertex 2.42705 1.76336 12.5
    endloop
  endfacet
  facet normal -0.951057 -0.309017 0
    outer loop
      vertex 2.42705 1.76336 50
      vertex 3 0 12.5
      vertex 3 0 50
    endloop
  endfacet
  facet normal 0 -1 0
    outer loop
      vertex -0.927051 2.85317 12.5
      vertex 0.927051 2.85317 50
      vertex -0.927051 2.85317 50
    endloop
  endfacet
  facet normal 0 -1 -0
    outer loop
      vertex 0.927051 2.85317 50
      vertex -0.927051 2.85317 12.5
      vertex 0.927051 2.85317 12.5
    endloop
  endfacet
  facet normal 0.587784 0.809018 -0
    outer loop
      vertex -0.927051 -2.85317 12.5
      vertex -2.42705 -1.76336 50
      vertex -0.927051 -2.85317 50
    endloop
  endfacet
  facet normal 0.587784 0.809018 0
    outer loop
      vertex -2.42705 -1.76336 50
      vertex -0.927051 -2.85317 12.5
      vertex -2.42705 -1.76336 12.5
    endloop
  endfacet
  facet normal -0.951057 0.309017 0
    outer loop
      vertex 2.42705 -1.76336 12.5
      vertex 3 0 50
      vertex 3 0 12.5
    endloop
  endfacet
  facet normal -0.951057 0.309017 0
    outer loop
      vertex 3 0 50
      vertex 2.42705 -1.76336 12.5
      vertex 2.42705 -1.76336 50
    endloop
  endfacet
  facet normal 0.587784 -0.809018 0
    outer loop
      vertex -2.42705 1.76336 12.5
      vertex -0.927051 2.85317 50
      vertex -2.42705 1.76336 50
    endloop
  endfacet
  facet normal 0.587784 -0.809018 0
    outer loop
      vertex -0.927051 2.85317 50
      vertex -2.42705 1.76336 12.5
      vertex -0.927051 2.85317 12.5
    endloop
  endfacet
  facet normal 0 1 -0
    outer loop
      vertex 0.927051 -2.85317 12.5
      vertex -0.927051 -2.85317 50
      vertex 0.927051 -2.85317 50
    endloop
  endfacet
  facet normal 0 1 0
    outer loop
      vertex -0.927051 -2.85317 50
      vertex 0.927051 -2.85317 12.5
      vertex -0.927051 -2.85317 12.5
    endloop
  endfacet
  facet normal -0.587784 0.809018 0
    outer loop
      vertex 2.42705 -1.76336 12.5
      vertex 0.927051 -2.85317 50
      vertex 2.42705 -1.76336 50
    endloop
  endfacet
  facet normal -0.587784 0.809018 0
    outer loop
      vertex 0.927051 -2.85317 50
      vertex 2.42705 -1.76336 12.5
      vertex 0.927051 -2.85317 12.5
    endloop
  endfacet
  facet normal 0.951057 -0.309017 0
    outer loop
      vertex -3 0 50
      vertex -2.42705 1.76336 12.5
      vertex -2.42705 1.76336 50
    endloop
  endfacet
  facet normal 0.951057 -0.309017 0
    outer loop
      vertex -2.42705 1.76336 12.5
      vertex -3 0 50
      vertex -3 0 12.5
    endloop
  endfacet
  facet normal 0 0 1
    outer loop
      vertex 2.42705 1.76336 12.5
      vertex 2.42705 -1.76336 12.5
      vertex 3 0 12.5
    endloop
  endfacet
  facet normal 0 0 1
    outer loop
      vertex 0.927051 2.85317 12.5
      vertex 2.42705 -1.76336 12.5
      vertex 2.42705 1.76336 12.5
    endloop
  endfacet
  facet normal 0 0 1
    outer loop
      vertex 0.927051 2.85317 12.5
      vertex 0.927051 -2.85317 12.5
      vertex 2.42705 -1.76336 12.5
    endloop
  endfacet
  facet normal -0 0 1
    outer loop
      vertex -0.927051 2.85317 12.5
      vertex 0.927051 -2.85317 12.5
      vertex 0.927051 2.85317 12.5
    endloop
  endfacet
  facet normal 0 0 1
    outer loop
      vertex -0.927051 2.85317 12.5
      vertex -0.927051 -2.85317 12.5
      vertex 0.927051 -2.85317 12.5
    endloop
  endfacet
  facet normal -0 0 1
    outer loop
      vertex -2.42705 1.76336 12.5
      vertex -0.927051 -2.85317 12.5
      vertex -0.927051 2.85317 12.5
    endloop
  endfacet
  facet normal 0 0 1
    outer loop
      vertex -2.42705 1.76336 12.5
      vertex -2.42705 -1.76336 12.5
      vertex -0.927051 -2.85317 12.5
    endloop
  endfacet
  facet normal 0 -0 1
    outer loop
      vertex -2.42705 -1.76336 12.5
      vertex -2.42705 1.76336 12.5
      vertex -3 0 12.5
    endloop
  endfacet
  facet normal -0.309053 0 -0.951045
    outer loop
      vertex 10.4635 -11.5 11.0734
      vertex 9.5 0 11.3865
      vertex 10.4635 0 11.0734
    endloop
  endfacet
  facet normal -0.309019 3.14682e-06 -0.951056
    outer loop
      vertex 8.78648 -11.5 11.6183
      vertex 9.5 0 11.3865
      vertex 10.4635 -11.5 11.0734
    endloop
  endfacet
  facet normal -0.308973 0 -0.951071
    outer loop
      vertex 9.5 0 11.3865
      vertex 8.78648 -11.5 11.6183
      vertex 8.78648 0 11.6183
    endloop
  endfacet
  facet normal -0.309053 0 0.951045
    outer loop
      vertex 9.5 0 13.6135
      vertex 10.4635 -11.5 13.9266
      vertex 10.4635 0 13.9266
    endloop
  endfacet
  facet normal -0.308973 0 0.951071
    outer loop
      vertex 8.78648 -11.5 13.3817
      vertex 9.5 0 13.6135
      vertex 8.78648 0 13.3817
    endloop
  endfacet
  facet normal -0.309019 3.14682e-06 0.951056
    outer loop
      vertex 9.5 0 13.6135
      vertex 8.78648 -11.5 13.3817
      vertex 10.4635 -11.5 13.9266
    endloop
  endfacet
  facet normal 0.809013 -0 0.587791
    outer loop
      vertex 10.4635 -11.5 13.9266
      vertex 11.5 0 12.5
      vertex 10.4635 0 13.9266
    endloop
  endfacet
  facet normal 0.809013 0 0.587791
    outer loop
      vertex 11.5 0 12.5
      vertex 10.4635 -11.5 13.9266
      vertex 11.5 -11.5 12.5
    endloop
  endfacet
  facet normal -1 0 0
    outer loop
      vertex 8.78648 -11.5 11.6183
      vertex 8.78648 0 13.3817
      vertex 8.78648 0 11.6183
    endloop
  endfacet
  facet normal -1 -0 0
    outer loop
      vertex 8.78648 0 13.3817
      vertex 8.78648 -11.5 11.6183
      vertex 8.78648 -11.5 13.3817
    endloop
  endfacet
  facet normal 0.809013 0 -0.587791
    outer loop
      vertex 11.5 -11.5 12.5
      vertex 10.4635 0 11.0734
      vertex 11.5 0 12.5
    endloop
  endfacet
  facet normal 0.809013 0 -0.587791
    outer loop
      vertex 10.4635 0 11.0734
      vertex 11.5 -11.5 12.5
      vertex 10.4635 -11.5 11.0734
    endloop
  endfacet
  facet normal 0 -1 0
    outer loop
      vertex 8.78648 -11.5 13.3817
      vertex 11.5 -11.5 12.5
      vertex 10.4635 -11.5 13.9266
    endloop
  endfacet
  facet normal 0 -1 0
    outer loop
      vertex 8.78648 -11.5 11.6183
      vertex 11.5 -11.5 12.5
      vertex 8.78648 -11.5 13.3817
    endloop
  endfacet
  facet normal 0 -1 0
    outer loop
      vertex 11.5 -11.5 12.5
      vertex 8.78648 -11.5 11.6183
      vertex 10.4635 -11.5 11.0734
    endloop
  endfacet
  facet normal -0.309016 0 -0.951057
    outer loop
      vertex 10.4635 -11.5 36.0734
      vertex 10 0 36.224
      vertex 10.4635 0 36.0734
    endloop
  endfacet
  facet normal -0.309019 -9.55705e-08 -0.951056
    outer loop
      vertex 8.78648 -11.5 36.6183
      vertex 10 0 36.224
      vertex 10.4635 -11.5 36.0734
    endloop
  endfacet
  facet normal -0.309019 0 -0.951056
    outer loop
      vertex 10 0 36.224
      vertex 8.78648 -11.5 36.6183
      vertex 8.78648 0 36.6183
    endloop
  endfacet
  facet normal -0.309016 0 0.951057
    outer loop
      vertex 10 0 38.776
      vertex 10.4635 -11.5 38.9266
      vertex 10.4635 0 38.9266
    endloop
  endfacet
  facet normal -0.309019 0 0.951056
    outer loop
      vertex 8.78648 -11.5 38.3817
      vertex 10 0 38.776
      vertex 8.78648 0 38.3817
    endloop
  endfacet
  facet normal -0.309019 -9.55705e-08 0.951056
    outer loop
      vertex 10 0 38.776
      vertex 8.78648 -11.5 38.3817
      vertex 10.4635 -11.5 38.9266
    endloop
  endfacet
  facet normal 0.809013 -0 0.587791
    outer loop
      vertex 10.4635 -11.5 38.9266
      vertex 11.5 0 37.5
      vertex 10.4635 0 38.9266
    endloop
  endfacet
  facet normal 0.809013 0 0.587791
    outer loop
      vertex 11.5 0 37.5
      vertex 10.4635 -11.5 38.9266
      vertex 11.5 -11.5 37.5
    endloop
  endfacet
  facet normal -1 0 0
    outer loop
      vertex 8.78648 -11.5 36.6183
      vertex 8.78648 0 38.3817
      vertex 8.78648 0 36.6183
    endloop
  endfacet
  facet normal -1 -0 0
    outer loop
      vertex 8.78648 0 38.3817
      vertex 8.78648 -11.5 36.6183
      vertex 8.78648 -11.5 38.3817
    endloop
  endfacet
  facet normal 0.809013 0 -0.587791
    outer loop
      vertex 11.5 -11.5 37.5
      vertex 10.4635 0 36.0734
      vertex 11.5 0 37.5
    endloop
  endfacet
  facet normal 0.809013 0 -0.587791
    outer loop
      vertex 10.4635 0 36.0734
      vertex 11.5 -11.5 37.5
      vertex 10.4635 -11.5 36.0734
    endloop
  endfacet
  facet normal 0 -1 0
    outer loop
      vertex 8.78648 -11.5 38.3817
      vertex 11.5 -11.5 37.5
      vertex 10.4635 -11.5 38.9266
    endloop
  endfacet
  facet normal 0 -1 0
    outer loop
      vertex 8.78648 -11.5 36.6183
      vertex 11.5 -11.5 37.5
      vertex 8.78648 -11.5 38.3817
    endloop
  endfacet
  facet normal 0 -1 0
    outer loop
      vertex 11.5 -11.5 37.5
      vertex 8.78648 -11.5 36.6183
      vertex 10.4635 -11.5 36.0734
    endloop
  endfacet
endsolid OpenSCAD_Model
