solid OpenSCAD_Model
  facet normal 1 -0 0
    outer loop
      vertex 30 -15 20
      vertex 30 15 -20
      vertex 30 15 20
    endloop
  endfacet
  facet normal 1 0 0
    outer loop
      vertex 30 15 -20
      vertex 30 -15 20
      vertex 30 -15 -20
    endloop
  endfacet
  facet normal 0 0 1
    outer loop
      vertex 30 15 20
      vertex 27 12 20
      vertex 30 -15 20
    endloop
  endfacet
  facet normal 0 0 1
    outer loop
      vertex 30 15 20
      vertex -27 12 20
      vertex 27 12 20
    endloop
  endfacet
  facet normal 0 0 1
    outer loop
      vertex -27 12 20
      vertex -30 15 20
      vertex -27 -12 20
    endloop
  endfacet
  facet normal -0 0 1
    outer loop
      vertex -30 15 20
      vertex -27 12 20
      vertex 30 15 20
    endloop
  endfacet
  facet normal -0 0 1
    outer loop
      vertex 27 -12 20
      vertex 30 -15 20
      vertex 27 12 20
    endloop
  endfacet
  facet normal -0 0 1
    outer loop
      vertex -27 -12 20
      vertex 30 -15 20
      vertex 27 -12 20
    endloop
  endfacet
  facet normal 0 0 1
    outer loop
      vertex -27 -12 20
      vertex -30 -15 20
      vertex 30 -15 20
    endloop
  endfacet
  facet normal 0 0 1
    outer loop
      vertex -30 -15 20
      vertex -27 -12 20
      vertex -30 15 20
    endloop
  endfacet
  facet normal 0 0 -1
    outer loop
      vertex 30 -15 -20
      vertex 27 -12 -20
      vertex 30 15 -20
    endloop
  endfacet
  facet normal 0 0 -1
    outer loop
      vertex 30 -15 -20
      vertex -27 -12 -20
      vertex 27 -12 -20
    endloop
  endfacet
  facet normal -0 0 -1
    outer loop
      vertex -27 -12 -20
      vertex -30 -15 -20
      vertex -27 12 -20
    endloop
  endfacet
  facet normal 0 0 -1
    outer loop
      vertex -30 -15 -20
      vertex -27 -12 -20
      vertex 30 -15 -20
    endloop
  endfacet
  facet normal 0 0 -1
    outer loop
      vertex 27 12 -20
      vertex 30 15 -20
      vertex 27 -12 -20
    endloop
  endfacet
  facet normal 0 0 -1
    outer loop
      vertex -27 12 -20
      vertex 30 15 -20
      vertex 27 12 -20
    endloop
  endfacet
  facet normal 0 0 -1
    outer loop
      vertex -27 12 -20
      vertex -30 15 -20
      vertex 30 15 -20
    endloop
  endfacet
  facet normal 0 0 -1
    outer loop
      vertex -30 15 -20
      vertex -27 12 -20
      vertex -30 -15 -20
    endloop
  endfacet
  facet normal -1 0 0
    outer loop
      vertex -30 -15 -20
      vertex -30 15 20
      vertex -30 15 -20
    endloop
  endfacet
  facet normal -1 -0 0
    outer loop
      vertex -30 15 20
      vertex -30 -15 -20
      vertex -30 -15 20
    endloop
  endfacet
  facet normal 0 1 -0
    outer loop
      vertex 30 15 -20
      vertex -30 15 20
      vertex 30 15 20
    endloop
  endfacet
  facet normal 0 1 0
    outer loop
      vertex -30 15 20
      vertex 30 15 -20
      vertex -30 15 -20
    endloop
  endfacet
  facet normal 0 -1 0
    outer loop
      vertex -30 -15 -20
      vertex 30 -15 20
      vertex -30 -15 20
    endloop
  endfacet
  facet normal 0 -1 -0
    outer loop
      vertex 30 -15 20
      vertex -30 -15 -20
      vertex 30 -15 -20
    endloop
  endfacet
  facet normal -1 0 0
    outer loop
      vertex 27 -12 14.8333
      vertex 27 12 20
      vertex 27 12 14.8333
    endloop
  endfacet
  facet normal -1 -0 0
    outer loop
      vertex 27 12 20
      vertex 27 -12 14.8333
      vertex 27 -12 20
    endloop
  endfacet
  facet normal -1 0 0
    outer loop
      vertex 27 -12 -20
      vertex 27 12 -14.8333
      vertex 27 12 -20
    endloop
  endfacet
  facet normal -1 -0 0
    outer loop
      vertex 27 12 -14.8333
      vertex 27 -12 -20
      vertex 27 -12 -14.8333
    endloop
  endfacet
  facet normal -1 0 0
    outer loop
      vertex 27 -12 -11.8333
      vertex 27 12 11.8333
      vertex 27 12 -11.8333
    endloop
  endfacet
  facet normal -1 -0 0
    outer loop
      vertex 27 12 11.8333
      vertex 27 -12 -11.8333
      vertex 27 -12 11.8333
    endloop
  endfacet
  facet normal 1 -0 0
    outer loop
      vertex -27 -12 20
      vertex -27 12 14.8333
      vertex -27 12 20
    endloop
  endfacet
  facet normal 1 0 0
    outer loop
      vertex -27 12 14.8333
      vertex -27 -12 20
      vertex -27 -12 14.8333
    endloop
  endfacet
  facet normal 1 -0 0
    outer loop
      vertex -27 -12 -14.8333
      vertex -27 12 -20
      vertex -27 12 -14.8333
    endloop
  endfacet
  facet normal 1 0 0
    outer loop
      vertex -27 12 -20
      vertex -27 -12 -14.8333
      vertex -27 -12 -20
    endloop
  endfacet
  facet normal 1 -0 0
    outer loop
      vertex -27 -12 11.8333
      vertex -27 12 -11.8333
      vertex -27 12 11.8333
    endloop
  endfacet
  facet normal 1 0 0
    outer loop
      vertex -27 12 -11.8333
      vertex -27 -12 11.8333
      vertex -27 -12 -11.8333
    endloop
  endfacet
  facet normal 0 -1 0
    outer loop
      vertex -27 12 14.8333
      vertex 27 12 20
      vertex -27 12 20
    endloop
  endfacet
  facet normal 0 -1 -0
    outer loop
      vertex 27 12 20
      vertex -27 12 14.8333
      vertex 27 12 14.8333
    endloop
  endfacet
  facet normal 0 -1 0
    outer loop
      vertex -27 12 -20
      vertex 27 12 -14.8333
      vertex -27 12 -14.8333
    endloop
  endfacet
  facet normal 0 -1 -0
    outer loop
      vertex 27 12 -14.8333
      vertex -27 12 -20
      vertex 27 12 -20
    endloop
  endfacet
  facet normal 0 -1 0
    outer loop
      vertex -27 12 -11.8333
      vertex 27 12 11.8333
      vertex -27 12 11.8333
    endloop
  endfacet
  facet normal 0 -1 -0
    outer loop
      vertex 27 12 11.8333
      vertex -27 12 -11.8333
      vertex 27 12 -11.8333
    endloop
  endfacet
  facet normal 0 1 -0
    outer loop
      vertex 27 -12 14.8333
      vertex -27 -12 20
      vertex 27 -12 20
    endloop
  endfacet
  facet normal 0 1 0
    outer loop
      vertex -27 -12 20
      vertex 27 -12 14.8333
      vertex -27 -12 14.8333
    endloop
  endfacet
  facet normal 0 1 -0
    outer loop
      vertex 27 -12 -20
      vertex -27 -12 -14.8333
      vertex 27 -12 -14.8333
    endloop
  endfacet
  facet normal 0 1 0
    outer loop
      vertex -27 -12 -14.8333
      vertex 27 -12 -20
      vertex -27 -12 -20
    endloop
  endfacet
  facet normal 0 1 -0
    outer loop
      vertex 27 -12 -11.8333
      vertex -27 -12 11.8333
      vertex 27 -12 11.8333
    endloop
  endfacet
  facet normal 0 1 0
    outer loop
      vertex -27 -12 11.8333
      vertex 27 -12 -11.8333
      vertex -27 -12 -11.8333
    endloop
  endfacet
  facet normal -0 0 1
    outer loop
      vertex -27 12 -11.8333
      vertex 27 -12 -11.8333
      vertex 27 12 -11.8333
    endloop
  endfacet
  facet normal 0 0 1
    outer loop
      vertex 27 -12 -11.8333
      vertex -27 12 -11.8333
      vertex -27 -12 -11.8333
    endloop
  endfacet
  facet normal 0 0 -1
    outer loop
      vertex -27 -12 -14.8333
      vertex 27 12 -14.8333
      vertex 27 -12 -14.8333
    endloop
  endfacet
  facet normal -0 0 -1
    outer loop
      vertex 27 12 -14.8333
      vertex -27 -12 -14.8333
      vertex -27 12 -14.8333
    endloop
  endfacet
  facet normal -0 0 1
    outer loop
      vertex -27 12 14.8333
      vertex 27 -12 14.8333
      vertex 27 12 14.8333
    endloop
  endfacet
  facet normal 0 0 1
    outer loop
      vertex 27 -12 14.8333
      vertex -27 12 14.8333
      vertex -27 -12 14.8333
    endloop
  endfacet
  facet normal 0 0 -1
    outer loop
      vertex -27 -12 11.8333
      vertex 27 12 11.8333
      vertex 27 -12 11.8333
    endloop
  endfacet
  facet normal -0 0 -1
    outer loop
      vertex 27 12 11.8333
      vertex -27 -12 11.8333
      vertex -27 12 11.8333
    endloop
  endfacet
endsolid OpenSCAD_Model
