solid OpenSCAD_Model
  facet normal 1 0 0
    outer loop
      vertex 15 15 10
      vertex 15 3.97083 4.51785
      vertex 15 15 -10
    endloop
  endfacet
  facet normal 1 0 0
    outer loop
      vertex 15 15 10
      vertex 15 3.74006 6.41842
      vertex 15 3.97083 4.51785
    endloop
  endfacet
  facet normal 1 0 0
    outer loop
      vertex 15 15 10
      vertex 15 2.65249 7.99404
      vertex 15 3.74006 6.41842
    endloop
  endfacet
  facet normal 1 0 0
    outer loop
      vertex 15 15 10
      vertex 15 0.957262 8.88377
      vertex 15 2.65249 7.99404
    endloop
  endfacet
  facet normal 1 0 0
    outer loop
      vertex 15 15 10
      vertex 15 -0.957262 8.88377
      vertex 15 0.957262 8.88377
    endloop
  endfacet
  facet normal 1 0 0
    outer loop
      vertex 15 -3.74006 6.41842
      vertex 15 -15 10
      vertex 15 -3.97083 4.51785
    endloop
  endfacet
  facet normal 1 0 0
    outer loop
      vertex 15 -2.65249 7.99404
      vertex 15 -15 10
      vertex 15 -3.74006 6.41842
    endloop
  endfacet
  facet normal 1 0 0
    outer loop
      vertex 15 -0.957262 8.88377
      vertex 15 -15 10
      vertex 15 -2.65249 7.99404
    endloop
  endfacet
  facet normal 1 -0 0
    outer loop
      vertex 15 -15 10
      vertex 15 -0.957262 8.88377
      vertex 15 15 10
    endloop
  endfacet
  facet normal 1 -0 0
    outer loop
      vertex 15 3.29193 2.72774
      vertex 15 15 -10
      vertex 15 3.97083 4.51785
    endloop
  endfacet
  facet normal 1 -0 0
    outer loop
      vertex 15 1.85889 1.45818
      vertex 15 15 -10
      vertex 15 3.29193 2.72774
    endloop
  endfacet
  facet normal 1 -0 0
    outer loop
      vertex 15 0 1
      vertex 15 15 -10
      vertex 15 1.85889 1.45818
    endloop
  endfacet
  facet normal 1 0 0
    outer loop
      vertex 15 -15 -10
      vertex 15 0 1
      vertex 15 -1.85889 1.45818
    endloop
  endfacet
  facet normal 1 0 0
    outer loop
      vertex 15 -15 10
      vertex 15 -3.29193 2.72774
      vertex 15 -3.97083 4.51785
    endloop
  endfacet
  facet normal 1 0 0
    outer loop
      vertex 15 -15 -10
      vertex 15 -3.29193 2.72774
      vertex 15 -15 10
    endloop
  endfacet
  facet normal 1 0 0
    outer loop
      vertex 15 -3.29193 2.72774
      vertex 15 -15 -10
      vertex 15 -1.85889 1.45818
    endloop
  endfacet
  facet normal 1 0 0
    outer loop
      vertex 15 0 1
      vertex 15 -15 -10
      vertex 15 15 -10
    endloop
  endfacet
  facet normal 0 0 1
    outer loop
      vertex -0.927051 -2.85317 10
      vertex -8 -10 10
      vertex -5 -15 10
    endloop
  endfacet
  facet normal 0 0 1
    outer loop
      vertex -3 0 10
      vertex -8.75302 -8.43634 10
      vertex -8 -10 10
    endloop
  endfacet
  facet normal 0 0 1
    outer loop
      vertex -3 0 10
      vertex -10.445 -8.05014 10
      vertex -8.75302 -8.43634 10
    endloop
  endfacet
  facet normal 0 0 1
    outer loop
      vertex -3 0 10
      vertex -15 15 10
      vertex -10.445 -8.05014 10
    endloop
  endfacet
  facet normal 0 0 1
    outer loop
      vertex -15 -15 10
      vertex -11.8019 -9.13223 10
      vertex -15 15 10
    endloop
  endfacet
  facet normal 0 0 1
    outer loop
      vertex -10.445 -8.05014 10
      vertex -15 15 10
      vertex -11.8019 -9.13223 10
    endloop
  endfacet
  facet normal -0 0 1
    outer loop
      vertex -8.75302 -11.5637 10
      vertex -5 -15 10
      vertex -8 -10 10
    endloop
  endfacet
  facet normal -0 0 1
    outer loop
      vertex -10.445 -11.9499 10
      vertex -5 -15 10
      vertex -8.75302 -11.5637 10
    endloop
  endfacet
  facet normal 0 0 1
    outer loop
      vertex -10.445 -11.9499 10
      vertex -15 -15 10
      vertex -5 -15 10
    endloop
  endfacet
  facet normal 0 0 1
    outer loop
      vertex -11.8019 -10.8678 10
      vertex -15 -15 10
      vertex -10.445 -11.9499 10
    endloop
  endfacet
  facet normal 0 0 1
    outer loop
      vertex -11.8019 -9.13223 10
      vertex -15 -15 10
      vertex -11.8019 -10.8678 10
    endloop
  endfacet
  facet normal 0 0 1
    outer loop
      vertex -5 15 10
      vertex 5 15 10
      vertex 5 25 10
    endloop
  endfacet
  facet normal 0 0 1
    outer loop
      vertex 5 15 10
      vertex 3 0 10
      vertex 5 -15 10
    endloop
  endfacet
  facet normal -0 0 1
    outer loop
      vertex 2.42705 -1.76336 10
      vertex 5 -15 10
      vertex 3 0 10
    endloop
  endfacet
  facet normal 0 0 1
    outer loop
      vertex 5 15 10
      vertex 2.42705 1.76336 10
      vertex 3 0 10
    endloop
  endfacet
  facet normal 0 0 1
    outer loop
      vertex 5 15 10
      vertex 0.927051 2.85317 10
      vertex 2.42705 1.76336 10
    endloop
  endfacet
  facet normal 0 0 1
    outer loop
      vertex 5 15 10
      vertex -5 15 10
      vertex 0.927051 2.85317 10
    endloop
  endfacet
  facet normal 0 0 1
    outer loop
      vertex 0.927051 2.85317 10
      vertex -5 15 10
      vertex -0.927051 2.85317 10
    endloop
  endfacet
  facet normal 0 0 1
    outer loop
      vertex -0.927051 2.85317 10
      vertex -5 15 10
      vertex -2.42705 1.76336 10
    endloop
  endfacet
  facet normal 0 0 1
    outer loop
      vertex -5 15 10
      vertex 5 25 10
      vertex -5 25 10
    endloop
  endfacet
  facet normal -0 0 1
    outer loop
      vertex 0.927051 -2.85317 10
      vertex 5 -15 10
      vertex 2.42705 -1.76336 10
    endloop
  endfacet
  facet normal 0 0 1
    outer loop
      vertex -5 -15 10
      vertex 5 -15 10
      vertex 0.927051 -2.85317 10
    endloop
  endfacet
  facet normal 0 0 1
    outer loop
      vertex -5 -15 10
      vertex 0.927051 -2.85317 10
      vertex -0.927051 -2.85317 10
    endloop
  endfacet
  facet normal 0 0 1
    outer loop
      vertex -8 -10 10
      vertex -0.927051 -2.85317 10
      vertex -2.42705 -1.76336 10
    endloop
  endfacet
  facet normal 0 0 1
    outer loop
      vertex -8 -10 10
      vertex -2.42705 -1.76336 10
      vertex -3 0 10
    endloop
  endfacet
  facet normal -0 0 1
    outer loop
      vertex -15 15 10
      vertex -2.42705 1.76336 10
      vertex -5 15 10
    endloop
  endfacet
  facet normal 0 0 1
    outer loop
      vertex -2.42705 1.76336 10
      vertex -15 15 10
      vertex -3 0 10
    endloop
  endfacet
  facet normal 0 0 1
    outer loop
      vertex 5 -15 10
      vertex -5 -15 10
      vertex 5 -25 10
    endloop
  endfacet
  facet normal 0 0 1
    outer loop
      vertex 5 -25 10
      vertex -5 -15 10
      vertex -5 -25 10
    endloop
  endfacet
  facet normal 0 0 1
    outer loop
      vertex 15 15 10
      vertex 12 -10 10
      vertex 15 -15 10
    endloop
  endfacet
  facet normal 0 0 1
    outer loop
      vertex 15 15 10
      vertex 11.247 -8.43634 10
      vertex 12 -10 10
    endloop
  endfacet
  facet normal 0 0 1
    outer loop
      vertex 15 15 10
      vertex 9.55496 -8.05014 10
      vertex 11.247 -8.43634 10
    endloop
  endfacet
  facet normal -0 0 1
    outer loop
      vertex 5 15 10
      vertex 9.55496 -8.05014 10
      vertex 15 15 10
    endloop
  endfacet
  facet normal 0 0 1
    outer loop
      vertex 5 -15 10
      vertex 8.19806 -9.13223 10
      vertex 5 15 10
    endloop
  endfacet
  facet normal 0 0 1
    outer loop
      vertex 9.55496 -8.05014 10
      vertex 5 15 10
      vertex 8.19806 -9.13223 10
    endloop
  endfacet
  facet normal -0 0 1
    outer loop
      vertex 11.247 -11.5637 10
      vertex 15 -15 10
      vertex 12 -10 10
    endloop
  endfacet
  facet normal -0 0 1
    outer loop
      vertex 9.55496 -11.9499 10
      vertex 15 -15 10
      vertex 11.247 -11.5637 10
    endloop
  endfacet
  facet normal 0 0 1
    outer loop
      vertex 9.55496 -11.9499 10
      vertex 5 -15 10
      vertex 15 -15 10
    endloop
  endfacet
  facet normal 0 0 1
    outer loop
      vertex 8.19806 -10.8678 10
      vertex 5 -15 10
      vertex 9.55496 -11.9499 10
    endloop
  endfacet
  facet normal 0 0 1
    outer loop
      vertex 8.19806 -9.13223 10
      vertex 5 -15 10
      vertex 8.19806 -10.8678 10
    endloop
  endfacet
  facet normal 0 0 -1
    outer loop
      vertex 15 -15 -10
      vertex 12 -10 -10
      vertex 15 15 -10
    endloop
  endfacet
  facet normal 0 0 -1
    outer loop
      vertex 15 -15 -10
      vertex 11.247 -11.5637 -10
      vertex 12 -10 -10
    endloop
  endfacet
  facet normal 0 0 -1
    outer loop
      vertex 15 -15 -10
      vertex 9.55496 -11.9499 -10
      vertex 11.247 -11.5637 -10
    endloop
  endfacet
  facet normal 0 0 -1
    outer loop
      vertex 1.91342 -4.6194 -10
      vertex 8.19806 -9.13223 -10
      vertex 8.19806 -10.8678 -10
    endloop
  endfacet
  facet normal 0 0 -1
    outer loop
      vertex 8.19806 -9.13223 -10
      vertex 4.6194 -1.91342 -10
      vertex 5 0 -10
    endloop
  endfacet
  facet normal 0 0 -1
    outer loop
      vertex 8.19806 -9.13223 -10
      vertex 3.53553 -3.53553 -10
      vertex 4.6194 -1.91342 -10
    endloop
  endfacet
  facet normal 0 0 -1
    outer loop
      vertex 8.19806 -9.13223 -10
      vertex 1.91342 -4.6194 -10
      vertex 3.53553 -3.53553 -10
    endloop
  endfacet
  facet normal 0 0 -1
    outer loop
      vertex 8.19806 -10.8678 -10
      vertex 0 -5 -10
      vertex 1.91342 -4.6194 -10
    endloop
  endfacet
  facet normal 0 0 -1
    outer loop
      vertex -8.75302 -11.5637 -10
      vertex 8.19806 -10.8678 -10
      vertex 9.55496 -11.9499 -10
    endloop
  endfacet
  facet normal 0 0 -1
    outer loop
      vertex 8.19806 -10.8678 -10
      vertex -8 -10 -10
      vertex 0 -5 -10
    endloop
  endfacet
  facet normal -0 0 -1
    outer loop
      vertex -3.53553 -3.53553 -10
      vertex -8.75302 -8.43634 -10
      vertex -4.6194 -1.91342 -10
    endloop
  endfacet
  facet normal -0 0 -1
    outer loop
      vertex -1.91342 -4.6194 -10
      vertex -8.75302 -8.43634 -10
      vertex -3.53553 -3.53553 -10
    endloop
  endfacet
  facet normal 0 0 -1
    outer loop
      vertex -8.75302 -8.43634 -10
      vertex -1.91342 -4.6194 -10
      vertex -8 -10 -10
    endloop
  endfacet
  facet normal -0 0 -1
    outer loop
      vertex 0 -5 -10
      vertex -8 -10 -10
      vertex -1.91342 -4.6194 -10
    endloop
  endfacet
  facet normal 0 0 -1
    outer loop
      vertex -15 -15 -10
      vertex 9.55496 -11.9499 -10
      vertex 15 -15 -10
    endloop
  endfacet
  facet normal -0 0 -1
    outer loop
      vertex 8.19806 -10.8678 -10
      vertex -8.75302 -11.5637 -10
      vertex -8 -10 -10
    endloop
  endfacet
  facet normal -0 0 -1
    outer loop
      vertex 9.55496 -11.9499 -10
      vertex -15 -15 -10
      vertex -8.75302 -11.5637 -10
    endloop
  endfacet
  facet normal -0 0 -1
    outer loop
      vertex -11.8019 -10.8678 -10
      vertex -15 -15 -10
      vertex -11.8019 -9.13223 -10
    endloop
  endfacet
  facet normal -0 0 -1
    outer loop
      vertex -10.445 -11.9499 -10
      vertex -15 -15 -10
      vertex -11.8019 -10.8678 -10
    endloop
  endfacet
  facet normal 0 0 -1
    outer loop
      vertex -8.75302 -11.5637 -10
      vertex -15 -15 -10
      vertex -10.445 -11.9499 -10
    endloop
  endfacet
  facet normal 0 0 -1
    outer loop
      vertex 11.247 -8.43634 -10
      vertex 15 15 -10
      vertex 12 -10 -10
    endloop
  endfacet
  facet normal 0 0 -1
    outer loop
      vertex 5 0 -10
      vertex 11.247 -8.43634 -10
      vertex 9.55496 -8.05014 -10
    endloop
  endfacet
  facet normal 0 0 -1
    outer loop
      vertex 5 0 -10
      vertex 9.55496 -8.05014 -10
      vertex 8.19806 -9.13223 -10
    endloop
  endfacet
  facet normal 0 0 -1
    outer loop
      vertex 11.247 -8.43634 -10
      vertex 5 0 -10
      vertex 15 15 -10
    endloop
  endfacet
  facet normal 0 0 -1
    outer loop
      vertex 4.6194 1.91342 -10
      vertex 15 15 -10
      vertex 5 0 -10
    endloop
  endfacet
  facet normal 0 0 -1
    outer loop
      vertex 3.53553 3.53553 -10
      vertex 15 15 -10
      vertex 4.6194 1.91342 -10
    endloop
  endfacet
  facet normal 0 0 -1
    outer loop
      vertex 1.91342 4.6194 -10
      vertex 15 15 -10
      vertex 3.53553 3.53553 -10
    endloop
  endfacet
  facet normal 0 0 -1
    outer loop
      vertex 0 5 -10
      vertex 15 15 -10
      vertex 1.91342 4.6194 -10
    endloop
  endfacet
  facet normal 0 0 -1
    outer loop
      vertex -15 15 -10
      vertex 0 5 -10
      vertex -1.91342 4.6194 -10
    endloop
  endfacet
  facet normal 0 0 -1
    outer loop
      vertex -10.445 -8.05014 -10
      vertex -4.6194 -1.91342 -10
      vertex -8.75302 -8.43634 -10
    endloop
  endfacet
  facet normal -0 0 -1
    outer loop
      vertex -4.6194 -1.91342 -10
      vertex -10.445 -8.05014 -10
      vertex -5 0 -10
    endloop
  endfacet
  facet normal 0 0 -1
    outer loop
      vertex -15 15 -10
      vertex -5 0 -10
      vertex -10.445 -8.05014 -10
    endloop
  endfacet
  facet normal 0 0 -1
    outer loop
      vertex -15 15 -10
      vertex -10.445 -8.05014 -10
      vertex -11.8019 -9.13223 -10
    endloop
  endfacet
  facet normal 0 0 -1
    outer loop
      vertex 0 5 -10
      vertex -15 15 -10
      vertex 15 15 -10
    endloop
  endfacet
  facet normal 0 0 -1
    outer loop
      vertex -3.53553 3.53553 -10
      vertex -15 15 -10
      vertex -1.91342 4.6194 -10
    endloop
  endfacet
  facet normal 0 0 -1
    outer loop
      vertex -4.6194 1.91342 -10
      vertex -15 15 -10
      vertex -3.53553 3.53553 -10
    endloop
  endfacet
  facet normal 0 0 -1
    outer loop
      vertex -5 0 -10
      vertex -15 15 -10
      vertex -4.6194 1.91342 -10
    endloop
  endfacet
  facet normal 0 0 -1
    outer loop
      vertex -15 15 -10
      vertex -11.8019 -9.13223 -10
      vertex -15 -15 -10
    endloop
  endfacet
  facet normal -1 0 0
    outer loop
      vertex -15 15 -10
      vertex -15 3.97083 4.51785
      vertex -15 15 10
    endloop
  endfacet
  facet normal -1 0 0
    outer loop
      vertex -15 15 -10
      vertex -15 3.29193 2.72774
      vertex -15 3.97083 4.51785
    endloop
  endfacet
  facet normal -1 0 0
    outer loop
      vertex -15 15 -10
      vertex -15 1.85889 1.45818
      vertex -15 3.29193 2.72774
    endloop
  endfacet
  facet normal -1 0 0
    outer loop
      vertex -15 15 -10
      vertex -15 0 1
      vertex -15 1.85889 1.45818
    endloop
  endfacet
  facet normal -1 0 0
    outer loop
      vertex -15 -15 -10
      vertex -15 0 1
      vertex -15 15 -10
    endloop
  endfacet
  facet normal -1 -0 0
    outer loop
      vertex -15 -3.29193 2.72774
      vertex -15 -15 -10
      vertex -15 -3.97083 4.51785
    endloop
  endfacet
  facet normal -1 -0 0
    outer loop
      vertex -15 -1.85889 1.45818
      vertex -15 -15 -10
      vertex -15 -3.29193 2.72774
    endloop
  endfacet
  facet normal -1 -0 0
    outer loop
      vertex -15 0 1
      vertex -15 -15 -10
      vertex -15 -1.85889 1.45818
    endloop
  endfacet
  facet normal -1 0 0
    outer loop
      vertex -15 3.74006 6.41842
      vertex -15 15 10
      vertex -15 3.97083 4.51785
    endloop
  endfacet
  facet normal -1 0 0
    outer loop
      vertex -15 2.65249 7.99404
      vertex -15 15 10
      vertex -15 3.74006 6.41842
    endloop
  endfacet
  facet normal -1 0 0
    outer loop
      vertex -15 0.957262 8.88377
      vertex -15 15 10
      vertex -15 2.65249 7.99404
    endloop
  endfacet
  facet normal -1 0 0
    outer loop
      vertex -15 -0.957262 8.88377
      vertex -15 15 10
      vertex -15 0.957262 8.88377
    endloop
  endfacet
  facet normal -1 0 0
    outer loop
      vertex -15 -15 10
      vertex -15 -3.97083 4.51785
      vertex -15 -15 -10
    endloop
  endfacet
  facet normal -1 0 0
    outer loop
      vertex -15 -0.957262 8.88377
      vertex -15 -15 10
      vertex -15 15 10
    endloop
  endfacet
  facet normal -1 0 0
    outer loop
      vertex -15 -2.65249 7.99404
      vertex -15 -15 10
      vertex -15 -0.957262 8.88377
    endloop
  endfacet
  facet normal -1 0 0
    outer loop
      vertex -15 -3.74006 6.41842
      vertex -15 -15 10
      vertex -15 -2.65249 7.99404
    endloop
  endfacet
  facet normal -1 0 0
    outer loop
      vertex -15 -3.97083 4.51785
      vertex -15 -15 10
      vertex -15 -3.74006 6.41842
    endloop
  endfacet
  facet normal 0 1 0
    outer loop
      vertex 15 15 10
      vertex 5 15 0
      vertex 5 15 10
    endloop
  endfacet
  facet normal 0 1 0
    outer loop
      vertex 5 15 0
      vertex 15 15 -10
      vertex -5 15 0
    endloop
  endfacet
  facet normal 0 1 -0
    outer loop
      vertex 15 15 -10
      vertex 5 15 0
      vertex 15 15 10
    endloop
  endfacet
  facet normal 0 1 -0
    outer loop
      vertex -5 15 0
      vertex -15 15 10
      vertex -5 15 10
    endloop
  endfacet
  facet normal 0 1 0
    outer loop
      vertex -5 15 0
      vertex -15 15 -10
      vertex -15 15 10
    endloop
  endfacet
  facet normal 0 1 0
    outer loop
      vertex -15 15 -10
      vertex -5 15 0
      vertex 15 15 -10
    endloop
  endfacet
  facet normal 0 -1 0
    outer loop
      vertex -15 -15 10
      vertex -5 -15 0
      vertex -5 -15 10
    endloop
  endfacet
  facet normal 0 -1 -0
    outer loop
      vertex -5 -15 0
      vertex -15 -15 -10
      vertex 5 -15 0
    endloop
  endfacet
  facet normal 0 -1 0
    outer loop
      vertex -15 -15 -10
      vertex -5 -15 0
      vertex -15 -15 10
    endloop
  endfacet
  facet normal 0 -1 0
    outer loop
      vertex 5 -15 0
      vertex 15 -15 10
      vertex 5 -15 10
    endloop
  endfacet
  facet normal 0 -1 0
    outer loop
      vertex 5 -15 0
      vertex 15 -15 -10
      vertex 15 -15 10
    endloop
  endfacet
  facet normal 0 -1 0
    outer loop
      vertex 15 -15 -10
      vertex 5 -15 0
      vertex -15 -15 -10
    endloop
  endfacet
  facet normal -0.831467 -0.555574 0
    outer loop
      vertex 4.6194 1.91342 -10
      vertex 3.53553 3.53553 0
      vertex 3.53553 3.53553 -10
    endloop
  endfacet
  facet normal -0.831467 -0.555574 0
    outer loop
      vertex 3.53553 3.53553 0
      vertex 4.6194 1.91342 -10
      vertex 4.6194 1.91342 0
    endloop
  endfacet
  facet normal -0.980786 -0.195089 0
    outer loop
      vertex 5 0 -10
      vertex 4.6194 1.91342 0
      vertex 4.6194 1.91342 -10
    endloop
  endfacet
  facet normal -0.980786 -0.195089 0
    outer loop
      vertex 4.6194 1.91342 0
      vertex 5 0 -10
      vertex 5 0 0
    endloop
  endfacet
  facet normal 0.980786 -0.195089 0
    outer loop
      vertex -5 0 0
      vertex -4.6194 1.91342 -10
      vertex -4.6194 1.91342 0
    endloop
  endfacet
  facet normal 0.980786 -0.195089 0
    outer loop
      vertex -4.6194 1.91342 -10
      vertex -5 0 0
      vertex -5 0 -10
    endloop
  endfacet
  facet normal 0.980786 0.195089 0
    outer loop
      vertex -4.6194 -1.91342 0
      vertex -5 0 -10
      vertex -5 0 0
    endloop
  endfacet
  facet normal 0.980786 0.195089 0
    outer loop
      vertex -5 0 -10
      vertex -4.6194 -1.91342 0
      vertex -4.6194 -1.91342 -10
    endloop
  endfacet
  facet normal 0.195089 -0.980786 0
    outer loop
      vertex -1.91342 4.6194 -10
      vertex 0 5 0
      vertex -1.91342 4.6194 0
    endloop
  endfacet
  facet normal 0.195089 -0.980786 0
    outer loop
      vertex 0 5 0
      vertex -1.91342 4.6194 -10
      vertex 0 5 -10
    endloop
  endfacet
  facet normal -0.195089 0.980786 0
    outer loop
      vertex 1.91342 -4.6194 -10
      vertex 0 -5 0
      vertex 1.91342 -4.6194 0
    endloop
  endfacet
  facet normal -0.195089 0.980786 0
    outer loop
      vertex 0 -5 0
      vertex 1.91342 -4.6194 -10
      vertex 0 -5 -10
    endloop
  endfacet
  facet normal -0.831467 0.555574 0
    outer loop
      vertex 3.53553 -3.53553 -10
      vertex 4.6194 -1.91342 0
      vertex 4.6194 -1.91342 -10
    endloop
  endfacet
  facet normal -0.831467 0.555574 0
    outer loop
      vertex 4.6194 -1.91342 0
      vertex 3.53553 -3.53553 -10
      vertex 3.53553 -3.53553 0
    endloop
  endfacet
  facet normal -0.555574 -0.831467 0
    outer loop
      vertex 1.91342 4.6194 -10
      vertex 3.53553 3.53553 0
      vertex 1.91342 4.6194 0
    endloop
  endfacet
  facet normal -0.555574 -0.831467 -0
    outer loop
      vertex 3.53553 3.53553 0
      vertex 1.91342 4.6194 -10
      vertex 3.53553 3.53553 -10
    endloop
  endfacet
  facet normal -0.980786 0.195089 0
    outer loop
      vertex 4.6194 -1.91342 -10
      vertex 5 0 0
      vertex 5 0 -10
    endloop
  endfacet
  facet normal -0.980786 0.195089 0
    outer loop
      vertex 5 0 0
      vertex 4.6194 -1.91342 -10
      vertex 4.6194 -1.91342 0
    endloop
  endfacet
  facet normal 0.831467 -0.555574 0
    outer loop
      vertex -4.6194 1.91342 0
      vertex -3.53553 3.53553 -10
      vertex -3.53553 3.53553 0
    endloop
  endfacet
  facet normal 0.831467 -0.555574 0
    outer loop
      vertex -3.53553 3.53553 -10
      vertex -4.6194 1.91342 0
      vertex -4.6194 1.91342 -10
    endloop
  endfacet
  facet normal -0.555574 0.831467 0
    outer loop
      vertex 3.53553 -3.53553 -10
      vertex 1.91342 -4.6194 0
      vertex 3.53553 -3.53553 0
    endloop
  endfacet
  facet normal -0.555574 0.831467 0
    outer loop
      vertex 1.91342 -4.6194 0
      vertex 3.53553 -3.53553 -10
      vertex 1.91342 -4.6194 -10
    endloop
  endfacet
  facet normal -0.195089 -0.980786 0
    outer loop
      vertex 0 5 -10
      vertex 1.91342 4.6194 0
      vertex 0 5 0
    endloop
  endfacet
  facet normal -0.195089 -0.980786 -0
    outer loop
      vertex 1.91342 4.6194 0
      vertex 0 5 -10
      vertex 1.91342 4.6194 -10
    endloop
  endfacet
  facet normal 0.555574 -0.831467 0
    outer loop
      vertex -3.53553 3.53553 -10
      vertex -1.91342 4.6194 0
      vertex -3.53553 3.53553 0
    endloop
  endfacet
  facet normal 0.555574 -0.831467 0
    outer loop
      vertex -1.91342 4.6194 0
      vertex -3.53553 3.53553 -10
      vertex -1.91342 4.6194 -10
    endloop
  endfacet
  facet normal 0.831467 0.555574 0
    outer loop
      vertex -3.53553 -3.53553 0
      vertex -4.6194 -1.91342 -10
      vertex -4.6194 -1.91342 0
    endloop
  endfacet
  facet normal 0.831467 0.555574 0
    outer loop
      vertex -4.6194 -1.91342 -10
      vertex -3.53553 -3.53553 0
      vertex -3.53553 -3.53553 -10
    endloop
  endfacet
  facet normal 0.195089 0.980786 -0
    outer loop
      vertex 0 -5 -10
      vertex -1.91342 -4.6194 0
      vertex 0 -5 0
    endloop
  endfacet
  facet normal 0.195089 0.980786 0
    outer loop
      vertex -1.91342 -4.6194 0
      vertex 0 -5 -10
      vertex -1.91342 -4.6194 -10
    endloop
  endfacet
  facet normal 0.555574 0.831467 -0
    outer loop
      vertex -1.91342 -4.6194 -10
      vertex -3.53553 -3.53553 0
      vertex -1.91342 -4.6194 0
    endloop
  endfacet
  facet normal 0.555574 0.831467 0
    outer loop
      vertex -3.53553 -3.53553 0
      vertex -1.91342 -4.6194 -10
      vertex -3.53553 -3.53553 -10
    endloop
  endfacet
  facet normal -0.22253 -0.974926 0
    outer loop
      vertex -10.445 -8.05014 -10
      vertex -8.75302 -8.43634 10
      vertex -10.445 -8.05014 10
    endloop
  endfacet
  facet normal -0.22253 -0.974926 -0
    outer loop
      vertex -8.75302 -8.43634 10
      vertex -10.445 -8.05014 -10
      vertex -8.75302 -8.43634 -10
    endloop
  endfacet
  facet normal -0.900969 -0.433884 -0
    outer loop
      vertex -8 -10 -2.5
      vertex -8.75302 -8.43634 -10
      vertex -8 -10 -10
    endloop
  endfacet
  facet normal -0.900969 -0.433884 0
    outer loop
      vertex -8.75302 -8.43634 -10
      vertex -8 -10 -2.5
      vertex -8.75302 -8.43634 10
    endloop
  endfacet
  facet normal -0.900969 -0.433884 0
    outer loop
      vertex -8.75302 -8.43634 10
      vertex -8 -10 -2.5
      vertex -8 -10 10
    endloop
  endfacet
  facet normal -0.900973 0.433875 0
    outer loop
      vertex -8.75302 -11.5637 -10
      vertex -8 -10 -2.5
      vertex -8 -10 -10
    endloop
  endfacet
  facet normal -0.900973 0.433875 0
    outer loop
      vertex -8.75302 -11.5637 10
      vertex -8 -10 -2.5
      vertex -8.75302 -11.5637 -10
    endloop
  endfacet
  facet normal -0.900973 0.433875 0
    outer loop
      vertex -8 -10 -2.5
      vertex -8.75302 -11.5637 10
      vertex -8 -10 10
    endloop
  endfacet
  facet normal -0.623493 -0.781829 0
    outer loop
      vertex -11.8019 -10.8678 10
      vertex -10.445 -11.9499 10.5
      vertex -11.8019 -10.8678 10.5
    endloop
  endfacet
  facet normal -0.623493 -0.781829 -0
    outer loop
      vertex -10.445 -11.9499 10.5
      vertex -11.8019 -10.8678 10
      vertex -10.445 -11.9499 10
    endloop
  endfacet
  facet normal 0.623493 0.781829 -0
    outer loop
      vertex -10.445 -11.9499 -10
      vertex -11.8019 -10.8678 -2.5
      vertex -10.445 -11.9499 -2.5
    endloop
  endfacet
  facet normal 0.623493 0.781829 0
    outer loop
      vertex -11.8019 -10.8678 -2.5
      vertex -10.445 -11.9499 -10
      vertex -11.8019 -10.8678 -10
    endloop
  endfacet
  facet normal -0.22253 0.974926 0
    outer loop
      vertex -8.75302 -11.5637 10
      vertex -10.445 -11.9499 -2.5
      vertex -10.445 -11.9499 10
    endloop
  endfacet
  facet normal -0.22253 0.974926 0
    outer loop
      vertex -8.75302 -11.5637 -10
      vertex -10.445 -11.9499 -2.5
      vertex -8.75302 -11.5637 10
    endloop
  endfacet
  facet normal -0.22253 0.974926 0
    outer loop
      vertex -10.445 -11.9499 -2.5
      vertex -8.75302 -11.5637 -10
      vertex -10.445 -11.9499 -10
    endloop
  endfacet
  facet normal 0 0 0
    outer loop
      vertex -11.8019 -9.13223 10
      vertex -11.8019 -9.13223 -2.5
      vertex -11.8019 -9.13223 -10
    endloop
  endfacet
  facet normal 1 -0 0
    outer loop
      vertex -11.8019 -10.8678 -2.5
      vertex -11.8019 -9.13223 -10
      vertex -11.8019 -9.13223 -2.5
    endloop
  endfacet
  facet normal 1 0 0
    outer loop
      vertex -11.8019 -9.13223 -10
      vertex -11.8019 -10.8678 -2.5
      vertex -11.8019 -10.8678 -10
    endloop
  endfacet
  facet normal -1 0 0
    outer loop
      vertex -11.8019 -10.8678 10
      vertex -11.8019 -9.13223 10.5
      vertex -11.8019 -9.13223 10
    endloop
  endfacet
  facet normal -1 -0 0
    outer loop
      vertex -11.8019 -9.13223 10.5
      vertex -11.8019 -10.8678 10
      vertex -11.8019 -10.8678 10.5
    endloop
  endfacet
  facet normal 0.623489 -0.781832 0
    outer loop
      vertex -11.8019 -9.13223 -10
      vertex -10.445 -8.05014 10
      vertex -11.8019 -9.13223 10
    endloop
  endfacet
  facet normal 0.623489 -0.781832 0
    outer loop
      vertex -10.445 -8.05014 10
      vertex -11.8019 -9.13223 -10
      vertex -10.445 -8.05014 -10
    endloop
  endfacet
  facet normal -0.222523 -0.974928 0
    outer loop
      vertex 9.55496 -8.05014 -10
      vertex 11.247 -8.43634 10
      vertex 9.55496 -8.05014 10
    endloop
  endfacet
  facet normal -0.222523 -0.974928 -0
    outer loop
      vertex 11.247 -8.43634 10
      vertex 9.55496 -8.05014 -10
      vertex 11.247 -8.43634 -10
    endloop
  endfacet
  facet normal -0.900973 -0.433875 -0
    outer loop
      vertex 12 -10 -2.5
      vertex 11.247 -8.43634 -10
      vertex 12 -10 -10
    endloop
  endfacet
  facet normal -0.900973 -0.433875 0
    outer loop
      vertex 11.247 -8.43634 -10
      vertex 12 -10 -2.5
      vertex 11.247 -8.43634 10
    endloop
  endfacet
  facet normal -0.900973 -0.433875 0
    outer loop
      vertex 11.247 -8.43634 10
      vertex 12 -10 -2.5
      vertex 12 -10 10
    endloop
  endfacet
  facet normal 0.900977 -0.433866 0
    outer loop
      vertex 11.247 -11.5637 10.5
      vertex 12 -10 10
      vertex 12 -10 10.5
    endloop
  endfacet
  facet normal 0.900977 -0.433866 0
    outer loop
      vertex 12 -10 10
      vertex 11.247 -11.5637 10.5
      vertex 11.247 -11.5637 10
    endloop
  endfacet
  facet normal -0.900977 0.433866 0
    outer loop
      vertex 11.247 -11.5637 -10
      vertex 12 -10 -2.5
      vertex 12 -10 -10
    endloop
  endfacet
  facet normal -0.900977 0.433866 0
    outer loop
      vertex 12 -10 -2.5
      vertex 11.247 -11.5637 -10
      vertex 11.247 -11.5637 -2.5
    endloop
  endfacet
  facet normal 0.623489 -0.781832 0
    outer loop
      vertex 8.19806 -9.13223 -10
      vertex 9.55496 -8.05014 10
      vertex 8.19806 -9.13223 10
    endloop
  endfacet
  facet normal 0.623489 -0.781832 0
    outer loop
      vertex 9.55496 -8.05014 10
      vertex 8.19806 -9.13223 -10
      vertex 9.55496 -8.05014 -10
    endloop
  endfacet
  facet normal 0.623493 0.781829 -0
    outer loop
      vertex 9.55496 -11.9499 -10
      vertex 8.19806 -10.8678 10
      vertex 9.55496 -11.9499 10
    endloop
  endfacet
  facet normal 0.623493 0.781829 0
    outer loop
      vertex 8.19806 -10.8678 10
      vertex 9.55496 -11.9499 -10
      vertex 8.19806 -10.8678 -10
    endloop
  endfacet
  facet normal -0.222523 0.974928 0
    outer loop
      vertex 11.247 -11.5637 -2.5
      vertex 11.247 -11.5637 -10
      vertex 9.55496 -11.9499 -2.5
    endloop
  endfacet
  facet normal 0 -0 0
    outer loop
      vertex 9.55496 -11.9499 -2.5
      vertex 9.55496 -11.9499 -10
      vertex 9.55496 -11.9499 10
    endloop
  endfacet
  facet normal -0.222523 0.974928 0
    outer loop
      vertex 9.55496 -11.9499 -10
      vertex 9.55496 -11.9499 -2.5
      vertex 11.247 -11.5637 -10
    endloop
  endfacet
  facet normal 1 -0 0
    outer loop
      vertex 8.19806 -10.8678 10
      vertex 8.19806 -9.13223 -10
      vertex 8.19806 -9.13223 10
    endloop
  endfacet
  facet normal 1 0 0
    outer loop
      vertex 8.19806 -9.13223 -10
      vertex 8.19806 -10.8678 10
      vertex 8.19806 -10.8678 -10
    endloop
  endfacet
  facet normal 0 0.992709 -0.120536
    outer loop
      vertex -5 -3.97083 4.51785
      vertex -15 -3.74006 6.41842
      vertex -5 -3.74006 6.41842
    endloop
  endfacet
  facet normal 0 0.992709 -0.120536
    outer loop
      vertex -15 -3.74006 6.41842
      vertex -5 -3.97083 4.51785
      vertex -15 -3.97083 4.51785
    endloop
  endfacet
  facet normal 0 0.992709 -0.120536
    outer loop
      vertex 15 -3.97083 4.51785
      vertex 5 -3.74006 6.41842
      vertex 15 -3.74006 6.41842
    endloop
  endfacet
  facet normal 0 0.992709 -0.120536
    outer loop
      vertex 5 -3.74006 6.41842
      vertex 15 -3.97083 4.51785
      vertex 5 -3.97083 4.51785
    endloop
  endfacet
  facet normal -0 0.239318 0.970941
    outer loop
      vertex -15 0 1
      vertex -5 -1.85889 1.45818
      vertex -5 0 1
    endloop
  endfacet
  facet normal 0 0.239318 0.970941
    outer loop
      vertex -5 -1.85889 1.45818
      vertex -15 0 1
      vertex -15 -1.85889 1.45818
    endloop
  endfacet
  facet normal -0 0.239318 0.970941
    outer loop
      vertex 5 0 1
      vertex 15 -1.85889 1.45818
      vertex 15 0 1
    endloop
  endfacet
  facet normal 0 0.239318 0.970941
    outer loop
      vertex 15 -1.85889 1.45818
      vertex 5 0 1
      vertex 5 -1.85889 1.45818
    endloop
  endfacet
  facet normal 0 -0.822984 -0.568064
    outer loop
      vertex -15 3.74006 6.41842
      vertex -5 2.65249 7.99404
      vertex -15 2.65249 7.99404
    endloop
  endfacet
  facet normal 0 -0.822984 -0.568064
    outer loop
      vertex -5 2.65249 7.99404
      vertex -15 3.74006 6.41842
      vertex -5 3.74006 6.41842
    endloop
  endfacet
  facet normal 0 -0.822984 -0.568064
    outer loop
      vertex 5 3.74006 6.41842
      vertex 15 2.65249 7.99404
      vertex 5 2.65249 7.99404
    endloop
  endfacet
  facet normal 0 -0.822984 -0.568064
    outer loop
      vertex 15 2.65249 7.99404
      vertex 5 3.74006 6.41842
      vertex 15 3.74006 6.41842
    endloop
  endfacet
  facet normal 0 -0.239318 0.970941
    outer loop
      vertex -15 1.85889 1.45818
      vertex -5 0 1
      vertex -5 1.85889 1.45818
    endloop
  endfacet
  facet normal 0 -0.239318 0.970941
    outer loop
      vertex -5 0 1
      vertex -15 1.85889 1.45818
      vertex -15 0 1
    endloop
  endfacet
  facet normal 0 -0.239318 0.970941
    outer loop
      vertex 5 1.85889 1.45818
      vertex 15 0 1
      vertex 15 1.85889 1.45818
    endloop
  endfacet
  facet normal 0 -0.239318 0.970941
    outer loop
      vertex 15 0 1
      vertex 5 1.85889 1.45818
      vertex 5 0 1
    endloop
  endfacet
  facet normal 0 -0.663122 0.748511
    outer loop
      vertex -15 3.29193 2.72774
      vertex -5 1.85889 1.45818
      vertex -5 3.29193 2.72774
    endloop
  endfacet
  facet normal 0 -0.663122 0.748511
    outer loop
      vertex -5 1.85889 1.45818
      vertex -15 3.29193 2.72774
      vertex -15 1.85889 1.45818
    endloop
  endfacet
  facet normal 0 -0.663122 0.748511
    outer loop
      vertex 5 3.29193 2.72774
      vertex 15 1.85889 1.45818
      vertex 15 3.29193 2.72774
    endloop
  endfacet
  facet normal 0 -0.663122 0.748511
    outer loop
      vertex 15 1.85889 1.45818
      vertex 5 3.29193 2.72774
      vertex 5 1.85889 1.45818
    endloop
  endfacet
  facet normal -0 0.663122 0.748511
    outer loop
      vertex 5 -1.85889 1.45818
      vertex 15 -3.29193 2.72774
      vertex 15 -1.85889 1.45818
    endloop
  endfacet
  facet normal 0 0.663122 0.748511
    outer loop
      vertex 15 -3.29193 2.72774
      vertex 5 -1.85889 1.45818
      vertex 5 -3.29193 2.72774
    endloop
  endfacet
  facet normal -0 0.663122 0.748511
    outer loop
      vertex -15 -1.85889 1.45818
      vertex -5 -3.29193 2.72774
      vertex -5 -1.85889 1.45818
    endloop
  endfacet
  facet normal 0 0.663122 0.748511
    outer loop
      vertex -5 -3.29193 2.72774
      vertex -15 -1.85889 1.45818
      vertex -15 -3.29193 2.72774
    endloop
  endfacet
  facet normal 0 0 -1
    outer loop
      vertex 5 -0.957262 8.88377
      vertex 15 0.957262 8.88377
      vertex 15 -0.957262 8.88377
    endloop
  endfacet
  facet normal -0 0 -1
    outer loop
      vertex 15 0.957262 8.88377
      vertex 5 -0.957262 8.88377
      vertex 5 0.957262 8.88377
    endloop
  endfacet
  facet normal 0 0 -1
    outer loop
      vertex -15 -0.957262 8.88377
      vertex -5 0.957262 8.88377
      vertex -5 -0.957262 8.88377
    endloop
  endfacet
  facet normal -0 0 -1
    outer loop
      vertex -5 0.957262 8.88377
      vertex -15 -0.957262 8.88377
      vertex -15 0.957262 8.88377
    endloop
  endfacet
  facet normal 0 -0.464726 -0.885455
    outer loop
      vertex 5 0.957262 8.88377
      vertex 15 2.65249 7.99404
      vertex 15 0.957262 8.88377
    endloop
  endfacet
  facet normal -0 -0.464726 -0.885455
    outer loop
      vertex 15 2.65249 7.99404
      vertex 5 0.957262 8.88377
      vertex 5 2.65249 7.99404
    endloop
  endfacet
  facet normal 0 -0.464726 -0.885455
    outer loop
      vertex -15 0.957262 8.88377
      vertex -5 2.65249 7.99404
      vertex -5 0.957262 8.88377
    endloop
  endfacet
  facet normal -0 -0.464726 -0.885455
    outer loop
      vertex -5 2.65249 7.99404
      vertex -15 0.957262 8.88377
      vertex -15 2.65249 7.99404
    endloop
  endfacet
  facet normal 0 0.935016 0.354605
    outer loop
      vertex -5 -3.29193 2.72774
      vertex -15 -3.97083 4.51785
      vertex -5 -3.97083 4.51785
    endloop
  endfacet
  facet normal 0 0.935016 0.354605
    outer loop
      vertex -15 -3.97083 4.51785
      vertex -5 -3.29193 2.72774
      vertex -15 -3.29193 2.72774
    endloop
  endfacet
  facet normal 0 0.935016 0.354605
    outer loop
      vertex 15 -3.29193 2.72774
      vertex 5 -3.97083 4.51785
      vertex 15 -3.97083 4.51785
    endloop
  endfacet
  facet normal 0 0.935016 0.354605
    outer loop
      vertex 5 -3.97083 4.51785
      vertex 15 -3.29193 2.72774
      vertex 5 -3.29193 2.72774
    endloop
  endfacet
  facet normal 0 -0.992709 -0.120536
    outer loop
      vertex -15 3.97083 4.51785
      vertex -5 3.74006 6.41842
      vertex -15 3.74006 6.41842
    endloop
  endfacet
  facet normal 0 -0.992709 -0.120536
    outer loop
      vertex -5 3.74006 6.41842
      vertex -15 3.97083 4.51785
      vertex -5 3.97083 4.51785
    endloop
  endfacet
  facet normal 0 -0.992709 -0.120536
    outer loop
      vertex 5 3.97083 4.51785
      vertex 15 3.74006 6.41842
      vertex 5 3.74006 6.41842
    endloop
  endfacet
  facet normal 0 -0.992709 -0.120536
    outer loop
      vertex 15 3.74006 6.41842
      vertex 5 3.97083 4.51785
      vertex 15 3.97083 4.51785
    endloop
  endfacet
  facet normal 0 -0.935016 0.354605
    outer loop
      vertex -15 3.29193 2.72774
      vertex -5 3.97083 4.51785
      vertex -15 3.97083 4.51785
    endloop
  endfacet
  facet normal 0 -0.935016 0.354605
    outer loop
      vertex -5 3.97083 4.51785
      vertex -15 3.29193 2.72774
      vertex -5 3.29193 2.72774
    endloop
  endfacet
  facet normal 0 -0.935016 0.354605
    outer loop
      vertex 5 3.29193 2.72774
      vertex 15 3.97083 4.51785
      vertex 5 3.97083 4.51785
    endloop
  endfacet
  facet normal 0 -0.935016 0.354605
    outer loop
      vertex 15 3.97083 4.51785
      vertex 5 3.29193 2.72774
      vertex 15 3.29193 2.72774
    endloop
  endfacet
  facet normal 0 0.822984 -0.568064
    outer loop
      vertex -5 -3.74006 6.41842
      vertex -15 -2.65249 7.99404
      vertex -5 -2.65249 7.99404
    endloop
  endfacet
  facet normal 0 0.822984 -0.568064
    outer loop
      vertex -15 -2.65249 7.99404
      vertex -5 -3.74006 6.41842
      vertex -15 -3.74006 6.41842
    endloop
  endfacet
  facet normal 0 0.822984 -0.568064
    outer loop
      vertex 15 -3.74006 6.41842
      vertex 5 -2.65249 7.99404
      vertex 15 -2.65249 7.99404
    endloop
  endfacet
  facet normal 0 0.822984 -0.568064
    outer loop
      vertex 5 -2.65249 7.99404
      vertex 15 -3.74006 6.41842
      vertex 5 -3.74006 6.41842
    endloop
  endfacet
  facet normal 0 0.464726 -0.885455
    outer loop
      vertex -15 -2.65249 7.99404
      vertex -5 -0.957262 8.88377
      vertex -5 -2.65249 7.99404
    endloop
  endfacet
  facet normal 0 0.464726 -0.885455
    outer loop
      vertex -5 -0.957262 8.88377
      vertex -15 -2.65249 7.99404
      vertex -15 -0.957262 8.88377
    endloop
  endfacet
  facet normal 0 0.464726 -0.885455
    outer loop
      vertex 5 -2.65249 7.99404
      vertex 15 -0.957262 8.88377
      vertex 15 -2.65249 7.99404
    endloop
  endfacet
  facet normal 0 0.464726 -0.885455
    outer loop
      vertex 15 -0.957262 8.88377
      vertex 5 -2.65249 7.99404
      vertex 5 -0.957262 8.88377
    endloop
  endfacet
  facet normal 1 0 0
    outer loop
      vertex 5 3.74006 6.41842
      vertex 5 3.29193 2.72774
      vertex 5 3.97083 4.51785
    endloop
  endfacet
  facet normal 1 0 0
    outer loop
      vertex 5 2.65249 7.99404
      vertex 5 3.29193 2.72774
      vertex 5 3.74006 6.41842
    endloop
  endfacet
  facet normal 1 0 0
    outer loop
      vertex 5 2.65249 7.99404
      vertex 5 1.85889 1.45818
      vertex 5 3.29193 2.72774
    endloop
  endfacet
  facet normal 1 0 0
    outer loop
      vertex 5 0.957262 8.88377
      vertex 5 1.85889 1.45818
      vertex 5 2.65249 7.99404
    endloop
  endfacet
  facet normal 1 0 0
    outer loop
      vertex 5 0.957262 8.88377
      vertex 5 0 1
      vertex 5 1.85889 1.45818
    endloop
  endfacet
  facet normal 1 -0 0
    outer loop
      vertex 5 -0.957262 8.88377
      vertex 5 0 1
      vertex 5 0.957262 8.88377
    endloop
  endfacet
  facet normal 1 0 0
    outer loop
      vertex 5 -0.957262 8.88377
      vertex 5 -1.85889 1.45818
      vertex 5 0 1
    endloop
  endfacet
  facet normal 1 -0 0
    outer loop
      vertex 5 -2.65249 7.99404
      vertex 5 -1.85889 1.45818
      vertex 5 -0.957262 8.88377
    endloop
  endfacet
  facet normal 1 0 0
    outer loop
      vertex 5 -2.65249 7.99404
      vertex 5 -3.29193 2.72774
      vertex 5 -1.85889 1.45818
    endloop
  endfacet
  facet normal 1 -0 0
    outer loop
      vertex 5 -3.74006 6.41842
      vertex 5 -3.29193 2.72774
      vertex 5 -2.65249 7.99404
    endloop
  endfacet
  facet normal 1 0 0
    outer loop
      vertex 5 -3.29193 2.72774
      vertex 5 -3.74006 6.41842
      vertex 5 -3.97083 4.51785
    endloop
  endfacet
  facet normal 1 -0 0
    outer loop
      vertex 5 -25 10
      vertex 5 -15 0
      vertex 5 -15 10
    endloop
  endfacet
  facet normal 1 0 0
    outer loop
      vertex 5 -15 0
      vertex 5 -25 10
      vertex 5 -25 0
    endloop
  endfacet
  facet normal 1 -0 0
    outer loop
      vertex 5 15 10
      vertex 5 25 0
      vertex 5 25 10
    endloop
  endfacet
  facet normal 1 0 0
    outer loop
      vertex 5 25 0
      vertex 5 15 10
      vertex 5 15 0
    endloop
  endfacet
  facet normal 0 0 -1
    outer loop
      vertex -5 -25 0
      vertex 5 -15 0
      vertex 5 -25 0
    endloop
  endfacet
  facet normal -0 0 -1
    outer loop
      vertex 5 -15 0
      vertex -5 -25 0
      vertex -5 -15 0
    endloop
  endfacet
  facet normal 0 0 -1
    outer loop
      vertex -5 15 0
      vertex 5 25 0
      vertex 5 15 0
    endloop
  endfacet
  facet normal -0 0 -1
    outer loop
      vertex 5 25 0
      vertex -5 15 0
      vertex -5 25 0
    endloop
  endfacet
  facet normal 0 0 -1
    outer loop
      vertex 3 0 0
      vertex 5 0 0
      vertex 4.6194 -1.91342 0
    endloop
  endfacet
  facet normal 0 0 -1
    outer loop
      vertex 2.42705 -1.76336 0
      vertex 4.6194 -1.91342 0
      vertex 3.53553 -3.53553 0
    endloop
  endfacet
  facet normal 0 0 -1
    outer loop
      vertex 5 0 0
      vertex 3 0 0
      vertex 4.6194 1.91342 0
    endloop
  endfacet
  facet normal 0 0 -1
    outer loop
      vertex 2.42705 1.76336 0
      vertex 4.6194 1.91342 0
      vertex 3 0 0
    endloop
  endfacet
  facet normal 0 0 -1
    outer loop
      vertex 4.6194 -1.91342 0
      vertex 2.42705 -1.76336 0
      vertex 3 0 0
    endloop
  endfacet
  facet normal 0 0 -1
    outer loop
      vertex 0.927051 -2.85317 0
      vertex 3.53553 -3.53553 0
      vertex 1.91342 -4.6194 0
    endloop
  endfacet
  facet normal 0 0 -1
    outer loop
      vertex 3.53553 -3.53553 0
      vertex 0.927051 -2.85317 0
      vertex 2.42705 -1.76336 0
    endloop
  endfacet
  facet normal 0 0 -1
    outer loop
      vertex 0 -5 0
      vertex 0.927051 -2.85317 0
      vertex 1.91342 -4.6194 0
    endloop
  endfacet
  facet normal 0 0 -1
    outer loop
      vertex 0 -5 0
      vertex -0.927051 -2.85317 0
      vertex 0.927051 -2.85317 0
    endloop
  endfacet
  facet normal 0 0 -1
    outer loop
      vertex -1.91342 -4.6194 0
      vertex -0.927051 -2.85317 0
      vertex 0 -5 0
    endloop
  endfacet
  facet normal 0 0 -1
    outer loop
      vertex -3.53553 -3.53553 0
      vertex -0.927051 -2.85317 0
      vertex -1.91342 -4.6194 0
    endloop
  endfacet
  facet normal -0 0 -1
    outer loop
      vertex -0.927051 -2.85317 0
      vertex -3.53553 -3.53553 0
      vertex -2.42705 -1.76336 0
    endloop
  endfacet
  facet normal 0 0 -1
    outer loop
      vertex -4.6194 -1.91342 0
      vertex -2.42705 -1.76336 0
      vertex -3.53553 -3.53553 0
    endloop
  endfacet
  facet normal -0 0 -1
    outer loop
      vertex 4.6194 1.91342 0
      vertex 2.42705 1.76336 0
      vertex 3.53553 3.53553 0
    endloop
  endfacet
  facet normal 0 0 -1
    outer loop
      vertex 0.927051 2.85317 0
      vertex 3.53553 3.53553 0
      vertex 2.42705 1.76336 0
    endloop
  endfacet
  facet normal -0 0 -1
    outer loop
      vertex 3.53553 3.53553 0
      vertex 0.927051 2.85317 0
      vertex 1.91342 4.6194 0
    endloop
  endfacet
  facet normal 0 0 -1
    outer loop
      vertex 0.927051 2.85317 0
      vertex 0 5 0
      vertex 1.91342 4.6194 0
    endloop
  endfacet
  facet normal 0 0 -1
    outer loop
      vertex -0.927051 2.85317 0
      vertex 0 5 0
      vertex 0.927051 2.85317 0
    endloop
  endfacet
  facet normal 0 0 -1
    outer loop
      vertex -0.927051 2.85317 0
      vertex -1.91342 4.6194 0
      vertex 0 5 0
    endloop
  endfacet
  facet normal 0 0 -1
    outer loop
      vertex -3.53553 3.53553 0
      vertex -0.927051 2.85317 0
      vertex -2.42705 1.76336 0
    endloop
  endfacet
  facet normal 0 0 -1
    outer loop
      vertex -4.6194 1.91342 0
      vertex -2.42705 1.76336 0
      vertex -3 0 0
    endloop
  endfacet
  facet normal 0 0 -1
    outer loop
      vertex -0.927051 2.85317 0
      vertex -3.53553 3.53553 0
      vertex -1.91342 4.6194 0
    endloop
  endfacet
  facet normal -0 0 -1
    outer loop
      vertex -2.42705 -1.76336 0
      vertex -4.6194 -1.91342 0
      vertex -3 0 0
    endloop
  endfacet
  facet normal 0 0 -1
    outer loop
      vertex -5 0 0
      vertex -3 0 0
      vertex -4.6194 -1.91342 0
    endloop
  endfacet
  facet normal 0 0 -1
    outer loop
      vertex -2.42705 1.76336 0
      vertex -4.6194 1.91342 0
      vertex -3.53553 3.53553 0
    endloop
  endfacet
  facet normal 0 0 -1
    outer loop
      vertex -3 0 0
      vertex -5 0 0
      vertex -4.6194 1.91342 0
    endloop
  endfacet
  facet normal -1 0 0
    outer loop
      vertex -5 3.29193 2.72774
      vertex -5 3.74006 6.41842
      vertex -5 3.97083 4.51785
    endloop
  endfacet
  facet normal -1 0 0
    outer loop
      vertex -5 3.29193 2.72774
      vertex -5 2.65249 7.99404
      vertex -5 3.74006 6.41842
    endloop
  endfacet
  facet normal -1 0 0
    outer loop
      vertex -5 1.85889 1.45818
      vertex -5 2.65249 7.99404
      vertex -5 3.29193 2.72774
    endloop
  endfacet
  facet normal -1 0 0
    outer loop
      vertex -5 1.85889 1.45818
      vertex -5 0.957262 8.88377
      vertex -5 2.65249 7.99404
    endloop
  endfacet
  facet normal -1 0 0
    outer loop
      vertex -5 0 1
      vertex -5 0.957262 8.88377
      vertex -5 1.85889 1.45818
    endloop
  endfacet
  facet normal -1 0 0
    outer loop
      vertex -5 0 1
      vertex -5 -0.957262 8.88377
      vertex -5 0.957262 8.88377
    endloop
  endfacet
  facet normal -1 0 0
    outer loop
      vertex -5 -1.85889 1.45818
      vertex -5 -0.957262 8.88377
      vertex -5 0 1
    endloop
  endfacet
  facet normal -1 0 0
    outer loop
      vertex -5 -1.85889 1.45818
      vertex -5 -2.65249 7.99404
      vertex -5 -0.957262 8.88377
    endloop
  endfacet
  facet normal -1 0 0
    outer loop
      vertex -5 -3.29193 2.72774
      vertex -5 -2.65249 7.99404
      vertex -5 -1.85889 1.45818
    endloop
  endfacet
  facet normal -1 0 0
    outer loop
      vertex -5 -3.29193 2.72774
      vertex -5 -3.74006 6.41842
      vertex -5 -2.65249 7.99404
    endloop
  endfacet
  facet normal -1 0 -0
    outer loop
      vertex -5 -3.74006 6.41842
      vertex -5 -3.29193 2.72774
      vertex -5 -3.97083 4.51785
    endloop
  endfacet
  facet normal -1 0 0
    outer loop
      vertex -5 -25 0
      vertex -5 -15 10
      vertex -5 -15 0
    endloop
  endfacet
  facet normal -1 -0 0
    outer loop
      vertex -5 -15 10
      vertex -5 -25 0
      vertex -5 -25 10
    endloop
  endfacet
  facet normal -1 0 0
    outer loop
      vertex -5 15 0
      vertex -5 25 10
      vertex -5 25 0
    endloop
  endfacet
  facet normal -1 -0 0
    outer loop
      vertex -5 25 10
      vertex -5 15 0
      vertex -5 15 10
    endloop
  endfacet
  facet normal 0 1 -0
    outer loop
      vertex 5 25 0
      vertex -5 25 10
      vertex 5 25 10
    endloop
  endfacet
  facet normal 0 1 0
    outer loop
      vertex -5 25 10
      vertex 5 25 0
      vertex -5 25 0
    endloop
  endfacet
  facet normal 0 -1 0
    outer loop
      vertex -5 -25 0
      vertex 5 -25 10
      vertex -5 -25 10
    endloop
  endfacet
  facet normal 0 -1 -0
    outer loop
      vertex 5 -25 10
      vertex -5 -25 0
      vertex 5 -25 0
    endloop
  endfacet
  facet normal 0.22253 0.974926 -0
    outer loop
      vertex -8.75302 -8.43634 -2.5
      vertex -10.445 -8.05014 10.5
      vertex -8.75302 -8.43634 10.5
    endloop
  endfacet
  facet normal 0.22253 0.974926 0
    outer loop
      vertex -10.445 -8.05014 10.5
      vertex -8.75302 -8.43634 -2.5
      vertex -10.445 -8.05014 -2.5
    endloop
  endfacet
  facet normal 0.900969 0.433884 -0
    outer loop
      vertex -8 -10 10
      vertex -8.75302 -8.43634 10.5
      vertex -8 -10 10.5
    endloop
  endfacet
  facet normal 0.900969 0.433884 0
    outer loop
      vertex -8.75302 -8.43634 10.5
      vertex -8 -10 10
      vertex -8.75302 -8.43634 -2.5
    endloop
  endfacet
  facet normal 0.900969 0.433884 0
    outer loop
      vertex -8.75302 -8.43634 -2.5
      vertex -8 -10 10
      vertex -8 -10 -2.5
    endloop
  endfacet
  facet normal 0.900973 -0.433875 0
    outer loop
      vertex -8.75302 -11.5637 10.5
      vertex -8 -10 10
      vertex -8 -10 10.5
    endloop
  endfacet
  facet normal 0.900973 -0.433875 0
    outer loop
      vertex -8.75302 -11.5637 -2.5
      vertex -8 -10 10
      vertex -8.75302 -11.5637 10.5
    endloop
  endfacet
  facet normal 0.900973 -0.433875 0
    outer loop
      vertex -8 -10 10
      vertex -8.75302 -11.5637 -2.5
      vertex -8 -10 -2.5
    endloop
  endfacet
  facet normal 0.22253 -0.974926 0
    outer loop
      vertex -10.445 -11.9499 10
      vertex -8.75302 -11.5637 10.5
      vertex -10.445 -11.9499 10.5
    endloop
  endfacet
  facet normal 0.22253 -0.974926 0
    outer loop
      vertex -8.75302 -11.5637 -2.5
      vertex -10.445 -11.9499 10
      vertex -10.445 -11.9499 -2.5
    endloop
  endfacet
  facet normal 0.22253 -0.974926 0
    outer loop
      vertex -10.445 -11.9499 10
      vertex -8.75302 -11.5637 -2.5
      vertex -8.75302 -11.5637 10.5
    endloop
  endfacet
  facet normal 0 0 -1
    outer loop
      vertex -8.75302 -11.5637 -2.5
      vertex -8.75302 -8.43634 -2.5
      vertex -8 -10 -2.5
    endloop
  endfacet
  facet normal 0 0 -1
    outer loop
      vertex -10.445 -11.9499 -2.5
      vertex -8.75302 -8.43634 -2.5
      vertex -8.75302 -11.5637 -2.5
    endloop
  endfacet
  facet normal 0 0 -1
    outer loop
      vertex -10.445 -11.9499 -2.5
      vertex -10.445 -8.05014 -2.5
      vertex -8.75302 -8.43634 -2.5
    endloop
  endfacet
  facet normal 0 0 -1
    outer loop
      vertex -11.8019 -10.8678 -2.5
      vertex -10.445 -8.05014 -2.5
      vertex -10.445 -11.9499 -2.5
    endloop
  endfacet
  facet normal 0 0 -1
    outer loop
      vertex -10.445 -8.05014 -2.5
      vertex -11.8019 -10.8678 -2.5
      vertex -11.8019 -9.13223 -2.5
    endloop
  endfacet
  facet normal -0.623489 0.781832 0
    outer loop
      vertex -10.445 -8.05014 10.5
      vertex -11.8019 -9.13223 10
      vertex -11.8019 -9.13223 10.5
    endloop
  endfacet
  facet normal -0.623489 0.781832 0
    outer loop
      vertex -10.445 -8.05014 -2.5
      vertex -11.8019 -9.13223 10
      vertex -10.445 -8.05014 10.5
    endloop
  endfacet
  facet normal -0.623489 0.781832 0
    outer loop
      vertex -11.8019 -9.13223 10
      vertex -10.445 -8.05014 -2.5
      vertex -11.8019 -9.13223 -2.5
    endloop
  endfacet
  facet normal -0.951067 -0.308986 0
    outer loop
      vertex -12.4271 -11.7634 10.5
      vertex -13 -10 13.5
      vertex -13 -10 10.5
    endloop
  endfacet
  facet normal -0.951067 -0.308986 0
    outer loop
      vertex -13 -10 13.5
      vertex -12.4271 -11.7634 10.5
      vertex -12.4271 -11.7634 13.5
    endloop
  endfacet
  facet normal 0.587784 0.809018 -0
    outer loop
      vertex -7.57295 -8.23664 10.5
      vertex -9.07295 -7.14683 13.5
      vertex -7.57295 -8.23664 13.5
    endloop
  endfacet
  facet normal 0.587784 0.809018 0
    outer loop
      vertex -9.07295 -7.14683 13.5
      vertex -7.57295 -8.23664 10.5
      vertex -9.07295 -7.14683 10.5
    endloop
  endfacet
  facet normal 0.951057 0.309017 0
    outer loop
      vertex -7 -10 13.5
      vertex -7.57295 -8.23664 10.5
      vertex -7.57295 -8.23664 13.5
    endloop
  endfacet
  facet normal 0.951057 0.309017 0
    outer loop
      vertex -7.57295 -8.23664 10.5
      vertex -7 -10 13.5
      vertex -7 -10 10.5
    endloop
  endfacet
  facet normal 0 1 -0
    outer loop
      vertex -9.07295 -7.14683 10.5
      vertex -10.9271 -7.14683 13.5
      vertex -9.07295 -7.14683 13.5
    endloop
  endfacet
  facet normal 0 1 0
    outer loop
      vertex -10.9271 -7.14683 13.5
      vertex -9.07295 -7.14683 10.5
      vertex -10.9271 -7.14683 10.5
    endloop
  endfacet
  facet normal 0 0 1
    outer loop
      vertex -7.57295 -8.23664 13.5
      vertex -7.57295 -11.7634 13.5
      vertex -7 -10 13.5
    endloop
  endfacet
  facet normal 0 0 1
    outer loop
      vertex -9.07295 -7.14683 13.5
      vertex -7.57295 -11.7634 13.5
      vertex -7.57295 -8.23664 13.5
    endloop
  endfacet
  facet normal 0 0 1
    outer loop
      vertex -9.07295 -7.14683 13.5
      vertex -9.07295 -12.8532 13.5
      vertex -7.57295 -11.7634 13.5
    endloop
  endfacet
  facet normal -0 0 1
    outer loop
      vertex -10.9271 -7.14683 13.5
      vertex -9.07295 -12.8532 13.5
      vertex -9.07295 -7.14683 13.5
    endloop
  endfacet
  facet normal 0 0 1
    outer loop
      vertex -10.9271 -7.14683 13.5
      vertex -10.9271 -12.8532 13.5
      vertex -9.07295 -12.8532 13.5
    endloop
  endfacet
  facet normal -0 0 1
    outer loop
      vertex -12.4271 -8.23664 13.5
      vertex -10.9271 -12.8532 13.5
      vertex -10.9271 -7.14683 13.5
    endloop
  endfacet
  facet normal 0 0 1
    outer loop
      vertex -12.4271 -8.23664 13.5
      vertex -12.4271 -11.7634 13.5
      vertex -10.9271 -12.8532 13.5
    endloop
  endfacet
  facet normal 0 -0 1
    outer loop
      vertex -12.4271 -11.7634 13.5
      vertex -12.4271 -8.23664 13.5
      vertex -13 -10 13.5
    endloop
  endfacet
  facet normal -0.58778 -0.809021 0
    outer loop
      vertex -12.4271 -11.7634 10.5
      vertex -10.9271 -12.8532 13.5
      vertex -12.4271 -11.7634 13.5
    endloop
  endfacet
  facet normal -0.58778 -0.809021 -0
    outer loop
      vertex -10.9271 -12.8532 13.5
      vertex -12.4271 -11.7634 10.5
      vertex -10.9271 -12.8532 10.5
    endloop
  endfacet
  facet normal 0.951059 -0.30901 0
    outer loop
      vertex -7.57295 -11.7634 13.5
      vertex -7 -10 10.5
      vertex -7 -10 13.5
    endloop
  endfacet
  facet normal 0.951059 -0.30901 0
    outer loop
      vertex -7 -10 10.5
      vertex -7.57295 -11.7634 13.5
      vertex -7.57295 -11.7634 10.5
    endloop
  endfacet
  facet normal -0.587784 0.809018 0
    outer loop
      vertex -10.9271 -7.14683 10.5
      vertex -12.4271 -8.23664 13.5
      vertex -10.9271 -7.14683 13.5
    endloop
  endfacet
  facet normal -0.587784 0.809018 0
    outer loop
      vertex -12.4271 -8.23664 13.5
      vertex -10.9271 -7.14683 10.5
      vertex -12.4271 -8.23664 10.5
    endloop
  endfacet
  facet normal 0 -1 0
    outer loop
      vertex -10.9271 -12.8532 10.5
      vertex -9.07295 -12.8532 13.5
      vertex -10.9271 -12.8532 13.5
    endloop
  endfacet
  facet normal 0 -1 -0
    outer loop
      vertex -9.07295 -12.8532 13.5
      vertex -10.9271 -12.8532 10.5
      vertex -9.07295 -12.8532 10.5
    endloop
  endfacet
  facet normal 0.58778 -0.809021 0
    outer loop
      vertex -9.07295 -12.8532 10.5
      vertex -7.57295 -11.7634 13.5
      vertex -9.07295 -12.8532 13.5
    endloop
  endfacet
  facet normal 0.58778 -0.809021 0
    outer loop
      vertex -7.57295 -11.7634 13.5
      vertex -9.07295 -12.8532 10.5
      vertex -7.57295 -11.7634 10.5
    endloop
  endfacet
  facet normal -0.951065 0.308992 0
    outer loop
      vertex -13 -10 10.5
      vertex -12.4271 -8.23664 13.5
      vertex -12.4271 -8.23664 10.5
    endloop
  endfacet
  facet normal -0.951065 0.308992 0
    outer loop
      vertex -12.4271 -8.23664 13.5
      vertex -13 -10 10.5
      vertex -13 -10 13.5
    endloop
  endfacet
  facet normal 0 0 -1
    outer loop
      vertex -8 -10 10.5
      vertex -7 -10 10.5
      vertex -7.57295 -11.7634 10.5
    endloop
  endfacet
  facet normal 0 0 -1
    outer loop
      vertex -7 -10 10.5
      vertex -8 -10 10.5
      vertex -7.57295 -8.23664 10.5
    endloop
  endfacet
  facet normal 0 0 -1
    outer loop
      vertex -7.57295 -11.7634 10.5
      vertex -8.75302 -11.5637 10.5
      vertex -8 -10 10.5
    endloop
  endfacet
  facet normal 0 0 -1
    outer loop
      vertex -9.07295 -12.8532 10.5
      vertex -8.75302 -11.5637 10.5
      vertex -7.57295 -11.7634 10.5
    endloop
  endfacet
  facet normal 0 0 -1
    outer loop
      vertex -9.07295 -12.8532 10.5
      vertex -10.445 -11.9499 10.5
      vertex -8.75302 -11.5637 10.5
    endloop
  endfacet
  facet normal 0 0 -1
    outer loop
      vertex -10.9271 -12.8532 10.5
      vertex -10.445 -11.9499 10.5
      vertex -9.07295 -12.8532 10.5
    endloop
  endfacet
  facet normal 0 0 -1
    outer loop
      vertex -12.4271 -11.7634 10.5
      vertex -10.445 -11.9499 10.5
      vertex -10.9271 -12.8532 10.5
    endloop
  endfacet
  facet normal 0 0 -1
    outer loop
      vertex -13 -10 10.5
      vertex -11.8019 -10.8678 10.5
      vertex -12.4271 -11.7634 10.5
    endloop
  endfacet
  facet normal 0 0 -1
    outer loop
      vertex -10.445 -11.9499 10.5
      vertex -12.4271 -11.7634 10.5
      vertex -11.8019 -10.8678 10.5
    endloop
  endfacet
  facet normal 0 0 -1
    outer loop
      vertex -8.75302 -8.43634 10.5
      vertex -7.57295 -8.23664 10.5
      vertex -8 -10 10.5
    endloop
  endfacet
  facet normal 0 0 -1
    outer loop
      vertex -8.75302 -8.43634 10.5
      vertex -9.07295 -7.14683 10.5
      vertex -7.57295 -8.23664 10.5
    endloop
  endfacet
  facet normal 0 0 -1
    outer loop
      vertex -10.445 -8.05014 10.5
      vertex -9.07295 -7.14683 10.5
      vertex -8.75302 -8.43634 10.5
    endloop
  endfacet
  facet normal 0 0 -1
    outer loop
      vertex -10.445 -8.05014 10.5
      vertex -10.9271 -7.14683 10.5
      vertex -9.07295 -7.14683 10.5
    endloop
  endfacet
  facet normal 0 0 -1
    outer loop
      vertex -12.4271 -8.23664 10.5
      vertex -10.445 -8.05014 10.5
      vertex -11.8019 -9.13223 10.5
    endloop
  endfacet
  facet normal -0 0 -1
    outer loop
      vertex -10.445 -8.05014 10.5
      vertex -12.4271 -8.23664 10.5
      vertex -10.9271 -7.14683 10.5
    endloop
  endfacet
  facet normal 0 0 -1
    outer loop
      vertex -11.8019 -10.8678 10.5
      vertex -13 -10 10.5
      vertex -11.8019 -9.13223 10.5
    endloop
  endfacet
  facet normal -0 0 -1
    outer loop
      vertex -11.8019 -9.13223 10.5
      vertex -13 -10 10.5
      vertex -12.4271 -8.23664 10.5
    endloop
  endfacet
  facet normal 0.222523 0.974928 -0
    outer loop
      vertex 11.247 -8.43634 -2.5
      vertex 9.55496 -8.05014 10.5
      vertex 11.247 -8.43634 10.5
    endloop
  endfacet
  facet normal 0.222523 0.974928 0
    outer loop
      vertex 9.55496 -8.05014 10.5
      vertex 11.247 -8.43634 -2.5
      vertex 9.55496 -8.05014 -2.5
    endloop
  endfacet
  facet normal 0.900973 0.433875 -0
    outer loop
      vertex 12 -10 10
      vertex 11.247 -8.43634 10.5
      vertex 12 -10 10.5
    endloop
  endfacet
  facet normal 0.900973 0.433875 0
    outer loop
      vertex 11.247 -8.43634 10.5
      vertex 12 -10 10
      vertex 11.247 -8.43634 -2.5
    endloop
  endfacet
  facet normal 0.900973 0.433875 0
    outer loop
      vertex 11.247 -8.43634 -2.5
      vertex 12 -10 10
      vertex 12 -10 -2.5
    endloop
  endfacet
  facet normal -0.623493 -0.781829 0
    outer loop
      vertex 8.19806 -10.8678 10.5
      vertex 9.55496 -11.9499 10
      vertex 9.55496 -11.9499 10.5
    endloop
  endfacet
  facet normal -0.623493 -0.781829 0
    outer loop
      vertex 8.19806 -10.8678 -2.5
      vertex 9.55496 -11.9499 10
      vertex 8.19806 -10.8678 10.5
    endloop
  endfacet
  facet normal -0.623493 -0.781829 -0
    outer loop
      vertex 9.55496 -11.9499 10
      vertex 8.19806 -10.8678 -2.5
      vertex 9.55496 -11.9499 -2.5
    endloop
  endfacet
  facet normal 0.222523 -0.974928 0
    outer loop
      vertex 9.55496 -11.9499 10
      vertex 11.247 -11.5637 10.5
      vertex 9.55496 -11.9499 10.5
    endloop
  endfacet
  facet normal 0.222523 -0.974928 0
    outer loop
      vertex 11.247 -11.5637 10.5
      vertex 9.55496 -11.9499 10
      vertex 11.247 -11.5637 10
    endloop
  endfacet
  facet normal 0 0 -1
    outer loop
      vertex 11.247 -11.5637 -2.5
      vertex 11.247 -8.43634 -2.5
      vertex 12 -10 -2.5
    endloop
  endfacet
  facet normal 0 0 -1
    outer loop
      vertex 9.55496 -11.9499 -2.5
      vertex 11.247 -8.43634 -2.5
      vertex 11.247 -11.5637 -2.5
    endloop
  endfacet
  facet normal 0 0 -1
    outer loop
      vertex 9.55496 -11.9499 -2.5
      vertex 9.55496 -8.05014 -2.5
      vertex 11.247 -8.43634 -2.5
    endloop
  endfacet
  facet normal 0 0 -1
    outer loop
      vertex 8.19806 -10.8678 -2.5
      vertex 9.55496 -8.05014 -2.5
      vertex 9.55496 -11.9499 -2.5
    endloop
  endfacet
  facet normal 0 0 -1
    outer loop
      vertex 9.55496 -8.05014 -2.5
      vertex 8.19806 -10.8678 -2.5
      vertex 8.19806 -9.13223 -2.5
    endloop
  endfacet
  facet normal -1 0 0
    outer loop
      vertex 8.19806 -10.8678 -2.5
      vertex 8.19806 -9.13223 10.5
      vertex 8.19806 -9.13223 -2.5
    endloop
  endfacet
  facet normal -1 -0 0
    outer loop
      vertex 8.19806 -9.13223 10.5
      vertex 8.19806 -10.8678 -2.5
      vertex 8.19806 -10.8678 10.5
    endloop
  endfacet
  facet normal -0.623489 0.781832 0
    outer loop
      vertex 9.55496 -8.05014 -2.5
      vertex 8.19806 -9.13223 10.5
      vertex 9.55496 -8.05014 10.5
    endloop
  endfacet
  facet normal -0.623489 0.781832 0
    outer loop
      vertex 8.19806 -9.13223 10.5
      vertex 9.55496 -8.05014 -2.5
      vertex 8.19806 -9.13223 -2.5
    endloop
  endfacet
  facet normal -0.951059 -0.30901 0
    outer loop
      vertex 7.57295 -11.7634 10.5
      vertex 7 -10 13.5
      vertex 7 -10 10.5
    endloop
  endfacet
  facet normal -0.951059 -0.30901 0
    outer loop
      vertex 7 -10 13.5
      vertex 7.57295 -11.7634 10.5
      vertex 7.57295 -11.7634 13.5
    endloop
  endfacet
  facet normal 0.587784 0.809018 -0
    outer loop
      vertex 12.4271 -8.23664 10.5
      vertex 10.9271 -7.14683 13.5
      vertex 12.4271 -8.23664 13.5
    endloop
  endfacet
  facet normal 0.587784 0.809018 0
    outer loop
      vertex 10.9271 -7.14683 13.5
      vertex 12.4271 -8.23664 10.5
      vertex 10.9271 -7.14683 10.5
    endloop
  endfacet
  facet normal 0.951065 0.308992 0
    outer loop
      vertex 13 -10 13.5
      vertex 12.4271 -8.23664 10.5
      vertex 12.4271 -8.23664 13.5
    endloop
  endfacet
  facet normal 0.951065 0.308992 0
    outer loop
      vertex 12.4271 -8.23664 10.5
      vertex 13 -10 13.5
      vertex 13 -10 10.5
    endloop
  endfacet
  facet normal 0 1 -0
    outer loop
      vertex 10.9271 -7.14683 10.5
      vertex 9.07295 -7.14683 13.5
      vertex 10.9271 -7.14683 13.5
    endloop
  endfacet
  facet normal 0 1 0
    outer loop
      vertex 9.07295 -7.14683 13.5
      vertex 10.9271 -7.14683 10.5
      vertex 9.07295 -7.14683 10.5
    endloop
  endfacet
  facet normal 0 0 1
    outer loop
      vertex 12.4271 -8.23664 13.5
      vertex 12.4271 -11.7634 13.5
      vertex 13 -10 13.5
    endloop
  endfacet
  facet normal 0 0 1
    outer loop
      vertex 10.9271 -7.14683 13.5
      vertex 12.4271 -11.7634 13.5
      vertex 12.4271 -8.23664 13.5
    endloop
  endfacet
  facet normal 0 0 1
    outer loop
      vertex 10.9271 -7.14683 13.5
      vertex 10.9271 -12.8532 13.5
      vertex 12.4271 -11.7634 13.5
    endloop
  endfacet
  facet normal -0 0 1
    outer loop
      vertex 9.07295 -7.14683 13.5
      vertex 10.9271 -12.8532 13.5
      vertex 10.9271 -7.14683 13.5
    endloop
  endfacet
  facet normal 0 0 1
    outer loop
      vertex 9.07295 -7.14683 13.5
      vertex 9.07295 -12.8532 13.5
      vertex 10.9271 -12.8532 13.5
    endloop
  endfacet
  facet normal -0 0 1
    outer loop
      vertex 7.57295 -8.23664 13.5
      vertex 9.07295 -12.8532 13.5
      vertex 9.07295 -7.14683 13.5
    endloop
  endfacet
  facet normal 0 0 1
    outer loop
      vertex 7.57295 -8.23664 13.5
      vertex 7.57295 -11.7634 13.5
      vertex 9.07295 -12.8532 13.5
    endloop
  endfacet
  facet normal 0 -0 1
    outer loop
      vertex 7.57295 -11.7634 13.5
      vertex 7.57295 -8.23664 13.5
      vertex 7 -10 13.5
    endloop
  endfacet
  facet normal -0.58778 -0.809021 0
    outer loop
      vertex 7.57295 -11.7634 10.5
      vertex 9.07295 -12.8532 13.5
      vertex 7.57295 -11.7634 13.5
    endloop
  endfacet
  facet normal -0.58778 -0.809021 -0
    outer loop
      vertex 9.07295 -12.8532 13.5
      vertex 7.57295 -11.7634 10.5
      vertex 9.07295 -12.8532 10.5
    endloop
  endfacet
  facet normal 0.951067 -0.308986 0
    outer loop
      vertex 12.4271 -11.7634 13.5
      vertex 13 -10 10.5
      vertex 13 -10 13.5
    endloop
  endfacet
  facet normal 0.951067 -0.308986 0
    outer loop
      vertex 13 -10 10.5
      vertex 12.4271 -11.7634 13.5
      vertex 12.4271 -11.7634 10.5
    endloop
  endfacet
  facet normal -0.587784 0.809018 0
    outer loop
      vertex 9.07295 -7.14683 10.5
      vertex 7.57295 -8.23664 13.5
      vertex 9.07295 -7.14683 13.5
    endloop
  endfacet
  facet normal -0.587784 0.809018 0
    outer loop
      vertex 7.57295 -8.23664 13.5
      vertex 9.07295 -7.14683 10.5
      vertex 7.57295 -8.23664 10.5
    endloop
  endfacet
  facet normal 0 -1 0
    outer loop
      vertex 9.07295 -12.8532 10.5
      vertex 10.9271 -12.8532 13.5
      vertex 9.07295 -12.8532 13.5
    endloop
  endfacet
  facet normal 0 -1 -0
    outer loop
      vertex 10.9271 -12.8532 13.5
      vertex 9.07295 -12.8532 10.5
      vertex 10.9271 -12.8532 10.5
    endloop
  endfacet
  facet normal 0.58778 -0.809021 0
    outer loop
      vertex 10.9271 -12.8532 10.5
      vertex 12.4271 -11.7634 13.5
      vertex 10.9271 -12.8532 13.5
    endloop
  endfacet
  facet normal 0.58778 -0.809021 0
    outer loop
      vertex 12.4271 -11.7634 13.5
      vertex 10.9271 -12.8532 10.5
      vertex 12.4271 -11.7634 10.5
    endloop
  endfacet
  facet normal -0.951057 0.309017 0
    outer loop
      vertex 7 -10 10.5
      vertex 7.57295 -8.23664 13.5
      vertex 7.57295 -8.23664 10.5
    endloop
  endfacet
  facet normal -0.951057 0.309017 0
    outer loop
      vertex 7.57295 -8.23664 13.5
      vertex 7 -10 10.5
      vertex 7 -10 13.5
    endloop
  endfacet
  facet normal 0 0 -1
    outer loop
      vertex 12 -10 10.5
      vertex 13 -10 10.5
      vertex 12.4271 -11.7634 10.5
    endloop
  endfacet
  facet normal 0 0 -1
    outer loop
      vertex 13 -10 10.5
      vertex 12 -10 10.5
      vertex 12.4271 -8.23664 10.5
    endloop
  endfacet
  facet normal 0 0 -1
    outer loop
      vertex 12.4271 -11.7634 10.5
      vertex 11.247 -11.5637 10.5
      vertex 12 -10 10.5
    endloop
  endfacet
  facet normal 0 0 -1
    outer loop
      vertex 10.9271 -12.8532 10.5
      vertex 11.247 -11.5637 10.5
      vertex 12.4271 -11.7634 10.5
    endloop
  endfacet
  facet normal 0 0 -1
    outer loop
      vertex 10.9271 -12.8532 10.5
      vertex 9.55496 -11.9499 10.5
      vertex 11.247 -11.5637 10.5
    endloop
  endfacet
  facet normal 0 0 -1
    outer loop
      vertex 9.07295 -12.8532 10.5
      vertex 9.55496 -11.9499 10.5
      vertex 10.9271 -12.8532 10.5
    endloop
  endfacet
  facet normal 0 0 -1
    outer loop
      vertex 7.57295 -11.7634 10.5
      vertex 9.55496 -11.9499 10.5
      vertex 9.07295 -12.8532 10.5
    endloop
  endfacet
  facet normal 0 0 -1
    outer loop
      vertex 7 -10 10.5
      vertex 8.19806 -10.8678 10.5
      vertex 7.57295 -11.7634 10.5
    endloop
  endfacet
  facet normal 0 0 -1
    outer loop
      vertex 9.55496 -11.9499 10.5
      vertex 7.57295 -11.7634 10.5
      vertex 8.19806 -10.8678 10.5
    endloop
  endfacet
  facet normal 0 0 -1
    outer loop
      vertex 11.247 -8.43634 10.5
      vertex 12.4271 -8.23664 10.5
      vertex 12 -10 10.5
    endloop
  endfacet
  facet normal 0 0 -1
    outer loop
      vertex 11.247 -8.43634 10.5
      vertex 10.9271 -7.14683 10.5
      vertex 12.4271 -8.23664 10.5
    endloop
  endfacet
  facet normal 0 0 -1
    outer loop
      vertex 9.55496 -8.05014 10.5
      vertex 10.9271 -7.14683 10.5
      vertex 11.247 -8.43634 10.5
    endloop
  endfacet
  facet normal 0 0 -1
    outer loop
      vertex 9.55496 -8.05014 10.5
      vertex 9.07295 -7.14683 10.5
      vertex 10.9271 -7.14683 10.5
    endloop
  endfacet
  facet normal 0 0 -1
    outer loop
      vertex 7.57295 -8.23664 10.5
      vertex 9.55496 -8.05014 10.5
      vertex 8.19806 -9.13223 10.5
    endloop
  endfacet
  facet normal -0 0 -1
    outer loop
      vertex 9.55496 -8.05014 10.5
      vertex 7.57295 -8.23664 10.5
      vertex 9.07295 -7.14683 10.5
    endloop
  endfacet
  facet normal 0 0 -1
    outer loop
      vertex 8.19806 -10.8678 10.5
      vertex 7 -10 10.5
      vertex 8.19806 -9.13223 10.5
    endloop
  endfacet
  facet normal -0 0 -1
    outer loop
      vertex 8.19806 -9.13223 10.5
      vertex 7 -10 10.5
      vertex 7.57295 -8.23664 10.5
    endloop
  endfacet
  facet normal -0.951057 -0.309017 0
    outer loop
      vertex -2.42705 -1.76336 10
      vertex -3 0 11
      vertex -3 0 10
    endloop
  endfacet
  facet normal -0.951057 -0.309017 0
    outer loop
      vertex -3 0 11
      vertex -2.42705 -1.76336 10
      vertex -2.42705 -1.76336 11
    endloop
  endfacet
  facet normal -0.951057 -0.309017 0
    outer loop
      vertex -2.42705 -1.76336 -11
      vertex -3 0 0
      vertex -3 0 -11
    endloop
  endfacet
  facet normal -0.951057 -0.309017 0
    outer loop
      vertex -3 0 0
      vertex -2.42705 -1.76336 -11
      vertex -2.42705 -1.76336 0
    endloop
  endfacet
  facet normal 0.587784 0.809018 -0
    outer loop
      vertex 2.42705 1.76336 10
      vertex 0.927051 2.85317 11
      vertex 2.42705 1.76336 11
    endloop
  endfacet
  facet normal 0.587784 0.809018 0
    outer loop
      vertex 0.927051 2.85317 11
      vertex 2.42705 1.76336 10
      vertex 0.927051 2.85317 10
    endloop
  endfacet
  facet normal 0.587784 0.809018 -0
    outer loop
      vertex 2.42705 1.76336 -11
      vertex 0.927051 2.85317 0
      vertex 2.42705 1.76336 0
    endloop
  endfacet
  facet normal 0.587784 0.809018 0
    outer loop
      vertex 0.927051 2.85317 0
      vertex 2.42705 1.76336 -11
      vertex 0.927051 2.85317 -11
    endloop
  endfacet
  facet normal 0.951057 0.309017 0
    outer loop
      vertex 3 0 11
      vertex 2.42705 1.76336 10
      vertex 2.42705 1.76336 11
    endloop
  endfacet
  facet normal 0.951057 0.309017 0
    outer loop
      vertex 2.42705 1.76336 10
      vertex 3 0 11
      vertex 3 0 10
    endloop
  endfacet
  facet normal 0.951057 0.309017 0
    outer loop
      vertex 3 0 0
      vertex 2.42705 1.76336 -11
      vertex 2.42705 1.76336 0
    endloop
  endfacet
  facet normal 0.951057 0.309017 0
    outer loop
      vertex 2.42705 1.76336 -11
      vertex 3 0 0
      vertex 3 0 -11
    endloop
  endfacet
  facet normal 0 1 -0
    outer loop
      vertex 0.927051 2.85317 10
      vertex -0.927051 2.85317 11
      vertex 0.927051 2.85317 11
    endloop
  endfacet
  facet normal 0 1 0
    outer loop
      vertex -0.927051 2.85317 11
      vertex 0.927051 2.85317 10
      vertex -0.927051 2.85317 10
    endloop
  endfacet
  facet normal 0 1 -0
    outer loop
      vertex 0.927051 2.85317 -11
      vertex -0.927051 2.85317 0
      vertex 0.927051 2.85317 0
    endloop
  endfacet
  facet normal 0 1 0
    outer loop
      vertex -0.927051 2.85317 0
      vertex 0.927051 2.85317 -11
      vertex -0.927051 2.85317 -11
    endloop
  endfacet
  facet normal 0 0 1
    outer loop
      vertex 2.42705 1.76336 11
      vertex 2.42705 -1.76336 11
      vertex 3 0 11
    endloop
  endfacet
  facet normal 0 0 1
    outer loop
      vertex 0.927051 2.85317 11
      vertex 2.42705 -1.76336 11
      vertex 2.42705 1.76336 11
    endloop
  endfacet
  facet normal 0 0 1
    outer loop
      vertex 0.927051 2.85317 11
      vertex 0.927051 -2.85317 11
      vertex 2.42705 -1.76336 11
    endloop
  endfacet
  facet normal -0 0 1
    outer loop
      vertex -0.927051 2.85317 11
      vertex 0.927051 -2.85317 11
      vertex 0.927051 2.85317 11
    endloop
  endfacet
  facet normal 0 0 1
    outer loop
      vertex -0.927051 2.85317 11
      vertex -0.927051 -2.85317 11
      vertex 0.927051 -2.85317 11
    endloop
  endfacet
  facet normal -0 0 1
    outer loop
      vertex -2.42705 1.76336 11
      vertex -0.927051 -2.85317 11
      vertex -0.927051 2.85317 11
    endloop
  endfacet
  facet normal 0 0 1
    outer loop
      vertex -2.42705 1.76336 11
      vertex -2.42705 -1.76336 11
      vertex -0.927051 -2.85317 11
    endloop
  endfacet
  facet normal 0 -0 1
    outer loop
      vertex -2.42705 -1.76336 11
      vertex -2.42705 1.76336 11
      vertex -3 0 11
    endloop
  endfacet
  facet normal -0.587784 -0.809018 0
    outer loop
      vertex -2.42705 -1.76336 10
      vertex -0.927051 -2.85317 11
      vertex -2.42705 -1.76336 11
    endloop
  endfacet
  facet normal -0.587784 -0.809018 -0
    outer loop
      vertex -0.927051 -2.85317 11
      vertex -2.42705 -1.76336 10
      vertex -0.927051 -2.85317 10
    endloop
  endfacet
  facet normal -0.587784 -0.809018 0
    outer loop
      vertex -2.42705 -1.76336 -11
      vertex -0.927051 -2.85317 0
      vertex -2.42705 -1.76336 0
    endloop
  endfacet
  facet normal -0.587784 -0.809018 -0
    outer loop
      vertex -0.927051 -2.85317 0
      vertex -2.42705 -1.76336 -11
      vertex -0.927051 -2.85317 -11
    endloop
  endfacet
  facet normal 0.951057 -0.309017 0
    outer loop
      vertex 2.42705 -1.76336 11
      vertex 3 0 10
      vertex 3 0 11
    endloop
  endfacet
  facet normal 0.951057 -0.309017 0
    outer loop
      vertex 3 0 10
      vertex 2.42705 -1.76336 11
      vertex 2.42705 -1.76336 10
    endloop
  endfacet
  facet normal 0.951057 -0.309017 0
    outer loop
      vertex 2.42705 -1.76336 0
      vertex 3 0 -11
      vertex 3 0 0
    endloop
  endfacet
  facet normal 0.951057 -0.309017 0
    outer loop
      vertex 3 0 -11
      vertex 2.42705 -1.76336 0
      vertex 2.42705 -1.76336 -11
    endloop
  endfacet
  facet normal -0.587784 0.809018 0
    outer loop
      vertex -0.927051 2.85317 10
      vertex -2.42705 1.76336 11
      vertex -0.927051 2.85317 11
    endloop
  endfacet
  facet normal -0.587784 0.809018 0
    outer loop
      vertex -2.42705 1.76336 11
      vertex -0.927051 2.85317 10
      vertex -2.42705 1.76336 10
    endloop
  endfacet
  facet normal -0.587784 0.809018 0
    outer loop
      vertex -0.927051 2.85317 -11
      vertex -2.42705 1.76336 0
      vertex -0.927051 2.85317 0
    endloop
  endfacet
  facet normal -0.587784 0.809018 0
    outer loop
      vertex -2.42705 1.76336 0
      vertex -0.927051 2.85317 -11
      vertex -2.42705 1.76336 -11
    endloop
  endfacet
  facet normal 0 -1 0
    outer loop
      vertex -0.927051 -2.85317 10
      vertex 0.927051 -2.85317 11
      vertex -0.927051 -2.85317 11
    endloop
  endfacet
  facet normal 0 -1 -0
    outer loop
      vertex 0.927051 -2.85317 11
      vertex -0.927051 -2.85317 10
      vertex 0.927051 -2.85317 10
    endloop
  endfacet
  facet normal 0 -1 0
    outer loop
      vertex -0.927051 -2.85317 -11
      vertex 0.927051 -2.85317 0
      vertex -0.927051 -2.85317 0
    endloop
  endfacet
  facet normal 0 -1 -0
    outer loop
      vertex 0.927051 -2.85317 0
      vertex -0.927051 -2.85317 -11
      vertex 0.927051 -2.85317 -11
    endloop
  endfacet
  facet normal 0.587784 -0.809018 0
    outer loop
      vertex 0.927051 -2.85317 10
      vertex 2.42705 -1.76336 11
      vertex 0.927051 -2.85317 11
    endloop
  endfacet
  facet normal 0.587784 -0.809018 0
    outer loop
      vertex 2.42705 -1.76336 11
      vertex 0.927051 -2.85317 10
      vertex 2.42705 -1.76336 10
    endloop
  endfacet
  facet normal 0.587784 -0.809018 0
    outer loop
      vertex 0.927051 -2.85317 -11
      vertex 2.42705 -1.76336 0
      vertex 0.927051 -2.85317 0
    endloop
  endfacet
  facet normal 0.587784 -0.809018 0
    outer loop
      vertex 2.42705 -1.76336 0
      vertex 0.927051 -2.85317 -11
      vertex 2.42705 -1.76336 -11
    endloop
  endfacet
  facet normal -0.951057 0.309017 0
    outer loop
      vertex -3 0 10
      vertex -2.42705 1.76336 11
      vertex -2.42705 1.76336 10
    endloop
  endfacet
  facet normal -0.951057 0.309017 0
    outer loop
      vertex -2.42705 1.76336 11
      vertex -3 0 10
      vertex -3 0 11
    endloop
  endfacet
  facet normal -0.951057 0.309017 0
    outer loop
      vertex -3 0 -11
      vertex -2.42705 1.76336 0
      vertex -2.42705 1.76336 -11
    endloop
  endfacet
  facet normal -0.951057 0.309017 0
    outer loop
      vertex -2.42705 1.76336 0
      vertex -3 0 -11
      vertex -3 0 0
    endloop
  endfacet
  facet normal 0 0 -1
    outer loop
      vertex 2.42705 -1.76336 -11
      vertex 2.42705 1.76336 -11
      vertex 3 0 -11
    endloop
  endfacet
  facet normal 0 0 -1
    outer loop
      vertex 0.927051 -2.85317 -11
      vertex 2.42705 1.76336 -11
      vertex 2.42705 -1.76336 -11
    endloop
  endfacet
  facet normal 0 0 -1
    outer loop
      vertex 0.927051 -2.85317 -11
      vertex 0.927051 2.85317 -11
      vertex 2.42705 1.76336 -11
    endloop
  endfacet
  facet normal 0 0 -1
    outer loop
      vertex -0.927051 -2.85317 -11
      vertex 0.927051 2.85317 -11
      vertex 0.927051 -2.85317 -11
    endloop
  endfacet
  facet normal 0 0 -1
    outer loop
      vertex -0.927051 -2.85317 -11
      vertex -0.927051 2.85317 -11
      vertex 0.927051 2.85317 -11
    endloop
  endfacet
  facet normal 0 0 -1
    outer loop
      vertex -2.42705 -1.76336 -11
      vertex -0.927051 2.85317 -11
      vertex -0.927051 -2.85317 -11
    endloop
  endfacet
  facet normal 0 0 -1
    outer loop
      vertex -2.42705 -1.76336 -11
      vertex -2.42705 1.76336 -11
      vertex -0.927051 2.85317 -11
    endloop
  endfacet
  facet normal 0 -0 -1
    outer loop
      vertex -2.42705 1.76336 -11
      vertex -2.42705 -1.76336 -11
      vertex -3 0 -11
    endloop
  endfacet
endsolid OpenSCAD_Model
