solid OpenSCAD_Model
  facet normal 1 -0 0
    outer loop
      vertex 15 -6 1.5
      vertex 15 6 -1.5
      vertex 15 6 1.5
    endloop
  endfacet
  facet normal 1 0 0
    outer loop
      vertex 15 6 -1.5
      vertex 15 -6 1.5
      vertex 15 -6 -1.5
    endloop
  endfacet
  facet normal -0 0 1
    outer loop
      vertex -14 6 1.5
      vertex 15 -6 1.5
      vertex 15 6 1.5
    endloop
  endfacet
  facet normal 0 0 1
    outer loop
      vertex 15 -6 1.5
      vertex -14 6 1.5
      vertex -14 -6 1.5
    endloop
  endfacet
  facet normal 0 0 -1
    outer loop
      vertex -15 -6 -1.5
      vertex 15 6 -1.5
      vertex 15 -6 -1.5
    endloop
  endfacet
  facet normal -0 0 -1
    outer loop
      vertex 15 6 -1.5
      vertex -15 -6 -1.5
      vertex -15 6 -1.5
    endloop
  endfacet
  facet normal -1 0 0
    outer loop
      vertex -15 -6 -1.5
      vertex -15 6 0
      vertex -15 6 -1.5
    endloop
  endfacet
  facet normal -1 -0 0
    outer loop
      vertex -15 6 0
      vertex -15 -6 -1.5
      vertex -15 -6 0
    endloop
  endfacet
  facet normal 0 1 0
    outer loop
      vertex 15 6 1.5
      vertex -14 6 0
      vertex -14 6 1.5
    endloop
  endfacet
  facet normal 0 1 -0
    outer loop
      vertex 15 6 -1.5
      vertex -14 6 0
      vertex 15 6 1.5
    endloop
  endfacet
  facet normal 0 1 0
    outer loop
      vertex -15 6 -1.5
      vertex -14 6 0
      vertex 15 6 -1.5
    endloop
  endfacet
  facet normal 0 1 0
    outer loop
      vertex -14 6 0
      vertex -15 6 -1.5
      vertex -15 6 0
    endloop
  endfacet
  facet normal 0 -1 0
    outer loop
      vertex -15 -6 0
      vertex -15 -6 -1.5
      vertex -14 -6 0
    endloop
  endfacet
  facet normal 0 -1 0
    outer loop
      vertex -14 -6 0
      vertex 15 -6 1.5
      vertex -14 -6 1.5
    endloop
  endfacet
  facet normal 0 -1 0
    outer loop
      vertex 15 -6 -1.5
      vertex -14 -6 0
      vertex -15 -6 -1.5
    endloop
  endfacet
  facet normal 0 -1 0
    outer loop
      vertex -14 -6 0
      vertex 15 -6 -1.5
      vertex 15 -6 1.5
    endloop
  endfacet
  facet normal -1 0 0
    outer loop
      vertex -14 -6 0
      vertex -14 6 1.5
      vertex -14 6 0
    endloop
  endfacet
  facet normal -1 -0 0
    outer loop
      vertex -14 6 1.5
      vertex -14 -6 0
      vertex -14 -6 1.5
    endloop
  endfacet
  facet normal -0 0 1
    outer loop
      vertex -15 6 0
      vertex -14 -6 0
      vertex -14 6 0
    endloop
  endfacet
  facet normal 0 0 1
    outer loop
      vertex -14 -6 0
      vertex -15 6 0
      vertex -15 -6 0
    endloop
  endfacet
endsolid OpenSCAD_Model
