solid OpenSCAD_Model
  facet normal -0.743147 -0.669129 0
    outer loop
      vertex -6.69131 -7.43145 0
      vertex -8.09017 -5.87785 12.5
      vertex -8.09017 -5.87785 0
    endloop
  endfacet
  facet normal -0.743147 -0.669129 0
    outer loop
      vertex -8.09017 -5.87785 12.5
      vertex -6.69131 -7.43145 0
      vertex -6.69131 -7.43145 12.5
    endloop
  endfacet
  facet normal 0.951056 0.309019 0
    outer loop
      vertex 9.5 2.94541 12.5
      vertex 9.13545 4.06737 0
      vertex 9.13545 4.06737 12.5
    endloop
  endfacet
  facet normal 0.951056 0.309019 0
    outer loop
      vertex 9.13545 4.06737 0
      vertex 9.5 2.94541 12.5
      vertex 9.5 2.94541 0
    endloop
  endfacet
  facet normal 0.866026 0.5 0
    outer loop
      vertex 9.13545 4.06737 12.5
      vertex 8.09017 5.87785 0
      vertex 8.09017 5.87785 12.5
    endloop
  endfacet
  facet normal 0.866026 0.5 0
    outer loop
      vertex 8.09017 5.87785 0
      vertex 9.13545 4.06737 12.5
      vertex 9.13545 4.06737 0
    endloop
  endfacet
  facet normal 0.951056 -0.309019 0
    outer loop
      vertex 9.13545 -4.06737 0
      vertex 9.5 -2.94541 11.3865
      vertex 9.13545 -4.06737 11.5049
    endloop
  endfacet
  facet normal 0.951056 -0.309019 0
    outer loop
      vertex 9.5 -2.94541 11.3865
      vertex 9.13545 -4.06737 0
      vertex 9.5 -2.94541 0
    endloop
  endfacet
  facet normal 0.587777 -0.809023 0
    outer loop
      vertex 5 -8.66025 10.3349
      vertex 5 -8.66025 0
      vertex 5.22057 -8.5 10.3349
    endloop
  endfacet
  facet normal 0.587799 -0.809007 0
    outer loop
      vertex 5.22057 -8.5 11.1524
      vertex 5.22057 -8.5 10.3349
      vertex 5.46352 -8.32348 11.0734
    endloop
  endfacet
  facet normal 0.587772 -0.809027 1.10486e-05
    outer loop
      vertex 5.46352 -8.32348 11.0734
      vertex 6.69131 -7.43145 12.5
      vertex 6.5 -7.57044 12.5
    endloop
  endfacet
  facet normal 0.587768 -0.809029 1.56024e-05
    outer loop
      vertex 5.22057 -8.5 10.3349
      vertex 6.69131 -7.43145 12.5
      vertex 5.46352 -8.32348 11.0734
    endloop
  endfacet
  facet normal 0.587783 -0.809019 -1.84603e-07
    outer loop
      vertex 6.69131 -7.43145 0
      vertex 5.22057 -8.5 10.3349
      vertex 5 -8.66025 0
    endloop
  endfacet
  facet normal 0.587783 -0.809018 0
    outer loop
      vertex 5.22057 -8.5 10.3349
      vertex 6.69131 -7.43145 0
      vertex 6.69131 -7.43145 12.5
    endloop
  endfacet
  facet normal 0.743147 -0.669129 0
    outer loop
      vertex 6.69131 -7.43145 12.5
      vertex 8.09017 -5.87785 0
      vertex 8.09017 -5.87785 12.5
    endloop
  endfacet
  facet normal 0.743147 -0.669129 0
    outer loop
      vertex 8.09017 -5.87785 0
      vertex 6.69131 -7.43145 12.5
      vertex 6.69131 -7.43145 0
    endloop
  endfacet
  facet normal -0.406738 -0.913545 0
    outer loop
      vertex -5 -8.66025 0
      vertex -3.1139 -9.5 12.5
      vertex -5 -8.66025 12.5
    endloop
  endfacet
  facet normal -0.406738 -0.913545 -0
    outer loop
      vertex -3.1139 -9.5 12.5
      vertex -5 -8.66025 0
      vertex -3.1139 -9.5 0
    endloop
  endfacet
  facet normal 0.406738 0.913545 -0
    outer loop
      vertex 5 8.66025 0
      vertex 3.1139 9.5 12.5
      vertex 5 8.66025 12.5
    endloop
  endfacet
  facet normal 0.406738 0.913545 0
    outer loop
      vertex 3.1139 9.5 12.5
      vertex 5 8.66025 0
      vertex 3.1139 9.5 0
    endloop
  endfacet
  facet normal 0.743147 0.669129 0
    outer loop
      vertex 8.09017 5.87785 12.5
      vertex 6.69131 7.43145 0
      vertex 6.69131 7.43145 12.5
    endloop
  endfacet
  facet normal 0.743147 0.669129 0
    outer loop
      vertex 6.69131 7.43145 0
      vertex 8.09017 5.87785 12.5
      vertex 8.09017 5.87785 0
    endloop
  endfacet
  facet normal -0.587783 -0.809019 0
    outer loop
      vertex -6.69131 -7.43145 0
      vertex -5 -8.66025 12.5
      vertex -6.69131 -7.43145 12.5
    endloop
  endfacet
  facet normal -0.587783 -0.809019 -0
    outer loop
      vertex -5 -8.66025 12.5
      vertex -6.69131 -7.43145 0
      vertex -5 -8.66025 0
    endloop
  endfacet
  facet normal -0.743147 0.669129 0
    outer loop
      vertex -8.09017 5.87785 0
      vertex -6.69131 7.43145 12.5
      vertex -6.69131 7.43145 0
    endloop
  endfacet
  facet normal -0.743147 0.669129 0
    outer loop
      vertex -6.69131 7.43145 12.5
      vertex -8.09017 5.87785 0
      vertex -8.09017 5.87785 12.5
    endloop
  endfacet
  facet normal 0.406737 -0.913545 0
    outer loop
      vertex 3.1139 -9.5 0
      vertex 3.75 -9.21679 10.3349
      vertex 3.1139 -9.5 11.4367
    endloop
  endfacet
  facet normal 0.406738 -0.913545 -1.21571e-07
    outer loop
      vertex 5 -8.66025 0
      vertex 3.75 -9.21679 10.3349
      vertex 3.1139 -9.5 0
    endloop
  endfacet
  facet normal 0.406739 -0.913544 0
    outer loop
      vertex 3.75 -9.21679 10.3349
      vertex 5 -8.66025 0
      vertex 5 -8.66025 10.3349
    endloop
  endfacet
  facet normal -0.951056 0.309019 0
    outer loop
      vertex -9.5 2.94541 0
      vertex -9.13545 4.06737 12.5
      vertex -9.13545 4.06737 0
    endloop
  endfacet
  facet normal -0.951056 0.309019 0
    outer loop
      vertex -9.13545 4.06737 12.5
      vertex -9.5 2.94541 0
      vertex -9.5 2.94541 12.5
    endloop
  endfacet
  facet normal 0 0 -1
    outer loop
      vertex 8.09017 -5.87785 0
      vertex 9.5 -2.94541 0
      vertex 9.13545 -4.06737 0
    endloop
  endfacet
  facet normal 0 0 -1
    outer loop
      vertex 6.69131 -7.43145 0
      vertex 9.5 -2.94541 0
      vertex 8.09017 -5.87785 0
    endloop
  endfacet
  facet normal 0 0 -1
    outer loop
      vertex 5 -8.66025 0
      vertex 9.5 -2.94541 0
      vertex 6.69131 -7.43145 0
    endloop
  endfacet
  facet normal 0 0 -1
    outer loop
      vertex 9.5 2.94541 0
      vertex 8.09017 5.87785 0
      vertex 9.13545 4.06737 0
    endloop
  endfacet
  facet normal 0 0 -1
    outer loop
      vertex 3.1139 -9.5 0
      vertex 9.5 -2.94541 0
      vertex 5 -8.66025 0
    endloop
  endfacet
  facet normal 0 0 -1
    outer loop
      vertex 9.5 2.94541 0
      vertex 6.69131 7.43145 0
      vertex 8.09017 5.87785 0
    endloop
  endfacet
  facet normal -0 0 -1
    outer loop
      vertex 9.5 -2.94541 0
      vertex 3.1139 -9.5 0
      vertex 9.5 2.94541 0
    endloop
  endfacet
  facet normal 0 0 -1
    outer loop
      vertex 9.5 2.94541 0
      vertex 5 8.66025 0
      vertex 6.69131 7.43145 0
    endloop
  endfacet
  facet normal 0 0 -1
    outer loop
      vertex 3.1139 9.5 0
      vertex 9.5 2.94541 0
      vertex 3.1139 -9.5 0
    endloop
  endfacet
  facet normal 0 0 -1
    outer loop
      vertex 9.5 2.94541 0
      vertex 3.1139 9.5 0
      vertex 5 8.66025 0
    endloop
  endfacet
  facet normal 0 0 -1
    outer loop
      vertex -3.1139 -9.5 0
      vertex 3.1139 9.5 0
      vertex 3.1139 -9.5 0
    endloop
  endfacet
  facet normal 0 0 -1
    outer loop
      vertex -3.1139 -9.5 0
      vertex -3.1139 9.5 0
      vertex 3.1139 9.5 0
    endloop
  endfacet
  facet normal 0 0 -1
    outer loop
      vertex -9.5 -2.94541 0
      vertex -3.1139 -9.5 0
      vertex -5 -8.66025 0
    endloop
  endfacet
  facet normal 0 0 -1
    outer loop
      vertex -3.1139 -9.5 0
      vertex -9.5 -2.94541 0
      vertex -3.1139 9.5 0
    endloop
  endfacet
  facet normal 0 0 -1
    outer loop
      vertex -9.5 -2.94541 0
      vertex -5 -8.66025 0
      vertex -6.69131 -7.43145 0
    endloop
  endfacet
  facet normal 0 0 -1
    outer loop
      vertex -9.5 2.94541 0
      vertex -3.1139 9.5 0
      vertex -9.5 -2.94541 0
    endloop
  endfacet
  facet normal 0 0 -1
    outer loop
      vertex -9.5 -2.94541 0
      vertex -6.69131 -7.43145 0
      vertex -8.09017 -5.87785 0
    endloop
  endfacet
  facet normal 0 0 -1
    outer loop
      vertex -3.1139 9.5 0
      vertex -9.5 2.94541 0
      vertex -5 8.66025 0
    endloop
  endfacet
  facet normal 0 0 -1
    outer loop
      vertex -9.5 -2.94541 0
      vertex -8.09017 -5.87785 0
      vertex -9.13545 -4.06737 0
    endloop
  endfacet
  facet normal 0 0 -1
    outer loop
      vertex -5 8.66025 0
      vertex -9.5 2.94541 0
      vertex -6.69131 7.43145 0
    endloop
  endfacet
  facet normal 0 0 -1
    outer loop
      vertex -6.69131 7.43145 0
      vertex -9.5 2.94541 0
      vertex -8.09017 5.87785 0
    endloop
  endfacet
  facet normal 0 0 -1
    outer loop
      vertex -8.09017 5.87785 0
      vertex -9.5 2.94541 0
      vertex -9.13545 4.06737 0
    endloop
  endfacet
  facet normal -0.951056 -0.309019 0
    outer loop
      vertex -9.13545 -4.06737 0
      vertex -9.5 -2.94541 12.5
      vertex -9.5 -2.94541 0
    endloop
  endfacet
  facet normal -0.951056 -0.309019 0
    outer loop
      vertex -9.5 -2.94541 12.5
      vertex -9.13545 -4.06737 0
      vertex -9.13545 -4.06737 12.5
    endloop
  endfacet
  facet normal -0.406738 0.913545 0
    outer loop
      vertex -3.1139 9.5 0
      vertex -5 8.66025 12.5
      vertex -3.1139 9.5 12.5
    endloop
  endfacet
  facet normal -0.406738 0.913545 0
    outer loop
      vertex -5 8.66025 12.5
      vertex -3.1139 9.5 0
      vertex -5 8.66025 0
    endloop
  endfacet
  facet normal -0 0 1
    outer loop
      vertex 7.08365 3.71778 12.5
      vertex 9.5 2.94541 12.5
      vertex 9.13545 4.06737 12.5
    endloop
  endfacet
  facet normal 0 0 1
    outer loop
      vertex 9.5 2.94541 12.5
      vertex 7.76753 1.91453 12.5
      vertex 9.5 0 12.5
    endloop
  endfacet
  facet normal 0 0 1
    outer loop
      vertex 7.08365 3.71778 12.5
      vertex 9.13545 4.06737 12.5
      vertex 8.09017 5.87785 12.5
    endloop
  endfacet
  facet normal 0 0 1
    outer loop
      vertex 9.5 0 12.5
      vertex 7.76753 1.91453 12.5
      vertex 8.78647 0 12.5
    endloop
  endfacet
  facet normal 0 0 1
    outer loop
      vertex 7.76753 -1.91453 12.5
      vertex 8.78647 0 12.5
      vertex 8 0 12.5
    endloop
  endfacet
  facet normal 0 0 1
    outer loop
      vertex 8.78647 0 12.5
      vertex 7.76753 -1.91453 12.5
      vertex 8.78647 -4.67182 12.5
    endloop
  endfacet
  facet normal 0 0 1
    outer loop
      vertex 8.78647 0 12.5
      vertex 7.76753 1.91453 12.5
      vertex 8 0 12.5
    endloop
  endfacet
  facet normal 0 0 1
    outer loop
      vertex 9.5 2.94541 12.5
      vertex 7.08365 3.71778 12.5
      vertex 7.76753 1.91453 12.5
    endloop
  endfacet
  facet normal 0 0 1
    outer loop
      vertex 5.98809 5.30498 12.5
      vertex 8.09017 5.87785 12.5
      vertex 6.69131 7.43145 12.5
    endloop
  endfacet
  facet normal 0 0 1
    outer loop
      vertex 8.09017 5.87785 12.5
      vertex 5.98809 5.30498 12.5
      vertex 7.08365 3.71778 12.5
    endloop
  endfacet
  facet normal 0 0 1
    outer loop
      vertex 4.54452 6.58387 12.5
      vertex 6.69131 7.43145 12.5
      vertex 5 8.66025 12.5
    endloop
  endfacet
  facet normal 0 0 1
    outer loop
      vertex 6.69131 7.43145 12.5
      vertex 4.54452 6.58387 12.5
      vertex 5.98809 5.30498 12.5
    endloop
  endfacet
  facet normal 0 0 1
    outer loop
      vertex 2.83684 7.48013 12.5
      vertex 5 8.66025 12.5
      vertex 3.1139 9.5 12.5
    endloop
  endfacet
  facet normal 0 0 1
    outer loop
      vertex 5 8.66025 12.5
      vertex 2.83684 7.48013 12.5
      vertex 4.54452 6.58387 12.5
    endloop
  endfacet
  facet normal 0 0 1
    outer loop
      vertex 3.1139 9.5 12.5
      vertex 0.964293 7.94167 12.5
      vertex 2.83684 7.48013 12.5
    endloop
  endfacet
  facet normal 0 0 1
    outer loop
      vertex 3.1139 9.5 12.5
      vertex -0.964293 7.94167 12.5
      vertex 0.964293 7.94167 12.5
    endloop
  endfacet
  facet normal -0 0 1
    outer loop
      vertex -3.1139 9.5 12.5
      vertex -0.964293 7.94167 12.5
      vertex 3.1139 9.5 12.5
    endloop
  endfacet
  facet normal 0 0 1
    outer loop
      vertex -0.964293 7.94167 12.5
      vertex -3.1139 9.5 12.5
      vertex -2.83684 7.48013 12.5
    endloop
  endfacet
  facet normal -0 0 1
    outer loop
      vertex -5 8.66025 12.5
      vertex -2.83684 7.48013 12.5
      vertex -3.1139 9.5 12.5
    endloop
  endfacet
  facet normal 0 0 1
    outer loop
      vertex -2.83684 7.48013 12.5
      vertex -5 8.66025 12.5
      vertex -4.54452 6.58387 12.5
    endloop
  endfacet
  facet normal -0 0 1
    outer loop
      vertex -6.69131 7.43145 12.5
      vertex -4.54452 6.58387 12.5
      vertex -5 8.66025 12.5
    endloop
  endfacet
  facet normal 0 0 1
    outer loop
      vertex -4.54452 6.58387 12.5
      vertex -6.69131 7.43145 12.5
      vertex -5.98809 5.30498 12.5
    endloop
  endfacet
  facet normal -0 0 1
    outer loop
      vertex -8.09017 5.87785 12.5
      vertex -5.98809 5.30498 12.5
      vertex -6.69131 7.43145 12.5
    endloop
  endfacet
  facet normal 0 0 1
    outer loop
      vertex -5.98809 5.30498 12.5
      vertex -8.09017 5.87785 12.5
      vertex -7.08365 3.71778 12.5
    endloop
  endfacet
  facet normal 0 0 1
    outer loop
      vertex -9.5 2.94541 12.5
      vertex -7.08365 3.71778 12.5
      vertex -9.13545 4.06737 12.5
    endloop
  endfacet
  facet normal -0 0 1
    outer loop
      vertex -9.13545 4.06737 12.5
      vertex -7.08365 3.71778 12.5
      vertex -8.09017 5.87785 12.5
    endloop
  endfacet
  facet normal -0 0 1
    outer loop
      vertex 7.08365 -3.71778 12.5
      vertex 8.78647 -4.67182 12.5
      vertex 7.76753 -1.91453 12.5
    endloop
  endfacet
  facet normal -0 0 1
    outer loop
      vertex 6.5 -4.56334 12.5
      vertex 8.78647 -4.67182 12.5
      vertex 7.08365 -3.71778 12.5
    endloop
  endfacet
  facet normal 0 0 1
    outer loop
      vertex 8.78647 -4.67182 12.5
      vertex 6.5 -4.56334 12.5
      vertex 8.09017 -5.87785 12.5
    endloop
  endfacet
  facet normal 0 0 1
    outer loop
      vertex 8.09017 -5.87785 12.5
      vertex 6.5 -4.56334 12.5
      vertex 6.69131 -7.43145 12.5
    endloop
  endfacet
  facet normal 0 0 1
    outer loop
      vertex 6.69131 -7.43145 12.5
      vertex 6.5 -4.56334 12.5
      vertex 6.5 -7.57044 12.5
    endloop
  endfacet
  facet normal -0 0 1
    outer loop
      vertex 2.83684 -7.48013 12.5
      vertex 3.78648 -8.5 12.5
      vertex 3.78648 -6.98172 12.5
    endloop
  endfacet
  facet normal 0 0 1
    outer loop
      vertex 2.83684 -7.48013 12.5
      vertex 2.5 -8.5 12.5
      vertex 3.78648 -8.5 12.5
    endloop
  endfacet
  facet normal -0 0 1
    outer loop
      vertex 0.964293 -7.94167 12.5
      vertex 2.5 -8.5 12.5
      vertex 2.83684 -7.48013 12.5
    endloop
  endfacet
  facet normal 0 0 1
    outer loop
      vertex 0.964293 -7.94167 12.5
      vertex 2.5 -9.5 12.5
      vertex 2.5 -8.5 12.5
    endloop
  endfacet
  facet normal -0 0 1
    outer loop
      vertex -0.964293 -7.94167 12.5
      vertex 2.5 -9.5 12.5
      vertex 0.964293 -7.94167 12.5
    endloop
  endfacet
  facet normal 0 0 1
    outer loop
      vertex -3.1139 -9.5 12.5
      vertex -0.964293 -7.94167 12.5
      vertex -2.83684 -7.48013 12.5
    endloop
  endfacet
  facet normal 0 0 1
    outer loop
      vertex -0.964293 -7.94167 12.5
      vertex -3.1139 -9.5 12.5
      vertex 2.5 -9.5 12.5
    endloop
  endfacet
  facet normal 0 0 1
    outer loop
      vertex -5 -8.66025 12.5
      vertex -2.83684 -7.48013 12.5
      vertex -4.54452 -6.58387 12.5
    endloop
  endfacet
  facet normal 0 0 1
    outer loop
      vertex -2.83684 -7.48013 12.5
      vertex -5 -8.66025 12.5
      vertex -3.1139 -9.5 12.5
    endloop
  endfacet
  facet normal 0 0 1
    outer loop
      vertex -6.69131 -7.43145 12.5
      vertex -4.54452 -6.58387 12.5
      vertex -5.98809 -5.30498 12.5
    endloop
  endfacet
  facet normal 0 0 1
    outer loop
      vertex -4.54452 -6.58387 12.5
      vertex -6.69131 -7.43145 12.5
      vertex -5 -8.66025 12.5
    endloop
  endfacet
  facet normal 0 0 1
    outer loop
      vertex -8.09017 -5.87785 12.5
      vertex -5.98809 -5.30498 12.5
      vertex -7.08365 -3.71778 12.5
    endloop
  endfacet
  facet normal -0 0 1
    outer loop
      vertex -9.5 -2.94541 12.5
      vertex -7.08365 -3.71778 12.5
      vertex -7.76753 -1.91453 12.5
    endloop
  endfacet
  facet normal 0 0 1
    outer loop
      vertex -5.98809 -5.30498 12.5
      vertex -8.09017 -5.87785 12.5
      vertex -6.69131 -7.43145 12.5
    endloop
  endfacet
  facet normal 0 0 1
    outer loop
      vertex -9.5 -2.94541 12.5
      vertex -7.76753 -1.91453 12.5
      vertex -8 0 12.5
    endloop
  endfacet
  facet normal 0 0 1
    outer loop
      vertex -7.08365 3.71778 12.5
      vertex -9.5 2.94541 12.5
      vertex -7.76753 1.91453 12.5
    endloop
  endfacet
  facet normal 0 0 1
    outer loop
      vertex -7.76753 1.91453 12.5
      vertex -9.5 2.94541 12.5
      vertex -8 0 12.5
    endloop
  endfacet
  facet normal 0 0 1
    outer loop
      vertex -9.5 -2.94541 12.5
      vertex -8 0 12.5
      vertex -9.5 2.94541 12.5
    endloop
  endfacet
  facet normal 0 0 1
    outer loop
      vertex -7.08365 -3.71778 12.5
      vertex -9.5 -2.94541 12.5
      vertex -9.13545 -4.06737 12.5
    endloop
  endfacet
  facet normal 0 0 1
    outer loop
      vertex -7.08365 -3.71778 12.5
      vertex -9.13545 -4.06737 12.5
      vertex -8.09017 -5.87785 12.5
    endloop
  endfacet
  facet normal -0.866026 -0.5 0
    outer loop
      vertex -8.09017 -5.87785 0
      vertex -9.13545 -4.06737 12.5
      vertex -9.13545 -4.06737 0
    endloop
  endfacet
  facet normal -0.866026 -0.5 0
    outer loop
      vertex -9.13545 -4.06737 12.5
      vertex -8.09017 -5.87785 0
      vertex -8.09017 -5.87785 12.5
    endloop
  endfacet
  facet normal -0.866026 0.5 0
    outer loop
      vertex -9.13545 4.06737 0
      vertex -8.09017 5.87785 12.5
      vertex -8.09017 5.87785 0
    endloop
  endfacet
  facet normal -0.866026 0.5 0
    outer loop
      vertex -8.09017 5.87785 12.5
      vertex -9.13545 4.06737 0
      vertex -9.13545 4.06737 12.5
    endloop
  endfacet
  facet normal 0.866026 -0.499999 0
    outer loop
      vertex 8.78647 -4.67182 12.5
      vertex 8.09017 -5.87785 12.5
      vertex 8.78647 -4.67182 11.6183
    endloop
  endfacet
  facet normal 0.866025 -0.500001 2.19475e-07
    outer loop
      vertex 8.09017 -5.87785 0
      vertex 9.13545 -4.06737 11.5049
      vertex 8.78647 -4.67182 11.6183
    endloop
  endfacet
  facet normal 0.866026 -0.499999 0
    outer loop
      vertex 8.09017 -5.87785 0
      vertex 8.78647 -4.67182 11.6183
      vertex 8.09017 -5.87785 12.5
    endloop
  endfacet
  facet normal 0.866026 -0.5 0
    outer loop
      vertex 9.13545 -4.06737 11.5049
      vertex 8.09017 -5.87785 0
      vertex 9.13545 -4.06737 0
    endloop
  endfacet
  facet normal 0.587783 0.809019 -0
    outer loop
      vertex 6.69131 7.43145 0
      vertex 5 8.66025 12.5
      vertex 6.69131 7.43145 12.5
    endloop
  endfacet
  facet normal 0.587783 0.809019 0
    outer loop
      vertex 5 8.66025 12.5
      vertex 6.69131 7.43145 0
      vertex 5 8.66025 0
    endloop
  endfacet
  facet normal -0.587783 0.809019 0
    outer loop
      vertex -5 8.66025 0
      vertex -6.69131 7.43145 12.5
      vertex -5 8.66025 12.5
    endloop
  endfacet
  facet normal -0.587783 0.809019 0
    outer loop
      vertex -6.69131 7.43145 12.5
      vertex -5 8.66025 0
      vertex -6.69131 7.43145 0
    endloop
  endfacet
  facet normal -0.239315 -0.970942 0
    outer loop
      vertex -2.83684 -7.48013 12.5
      vertex -0.964293 -7.94167 37.5
      vertex -2.83684 -7.48013 37.5
    endloop
  endfacet
  facet normal -0.239315 -0.970942 -0
    outer loop
      vertex -0.964293 -7.94167 37.5
      vertex -2.83684 -7.48013 12.5
      vertex -0.964293 -7.94167 12.5
    endloop
  endfacet
  facet normal 0.663126 -0.748508 0
    outer loop
      vertex 4.54452 -6.58387 36.372
      vertex 5.46352 -5.7697 13.9266
      vertex 5.46352 -5.7697 36.0734
    endloop
  endfacet
  facet normal 0.663126 -0.748508 0
    outer loop
      vertex 5.46352 -5.7697 13.9266
      vertex 4.54452 -6.58387 36.372
      vertex 4.54452 -6.58387 13.628
    endloop
  endfacet
  facet normal 0.663116 -0.748517 0
    outer loop
      vertex 5.46352 -5.7697 13.9266
      vertex 5.98809 -5.30498 36.7954
      vertex 5.46352 -5.7697 36.0734
    endloop
  endfacet
  facet normal 0.663116 -0.748517 0
    outer loop
      vertex 5.98809 -5.30498 36.7954
      vertex 5.46352 -5.7697 13.9266
      vertex 5.98809 -5.30498 13.2046
    endloop
  endfacet
  facet normal 0.935017 0.354604 0
    outer loop
      vertex 7.76753 1.91453 37.5
      vertex 7.08365 3.71778 12.5
      vertex 7.08365 3.71778 37.5
    endloop
  endfacet
  facet normal 0.935017 0.354604 0
    outer loop
      vertex 7.08365 3.71778 12.5
      vertex 7.76753 1.91453 37.5
      vertex 7.76753 1.91453 12.5
    endloop
  endfacet
  facet normal 0.992709 0.120539 0
    outer loop
      vertex 8 0 37.5
      vertex 7.76753 1.91453 12.5
      vertex 7.76753 1.91453 37.5
    endloop
  endfacet
  facet normal 0.992709 0.120539 0
    outer loop
      vertex 7.76753 1.91453 12.5
      vertex 8 0 37.5
      vertex 8 0 12.5
    endloop
  endfacet
  facet normal 0.822985 0.568063 0
    outer loop
      vertex 7.08365 3.71778 37.5
      vertex 5.98809 5.30498 12.5
      vertex 5.98809 5.30498 37.5
    endloop
  endfacet
  facet normal 0.822985 0.568063 0
    outer loop
      vertex 5.98809 5.30498 12.5
      vertex 7.08365 3.71778 37.5
      vertex 7.08365 3.71778 12.5
    endloop
  endfacet
  facet normal 0 0 -1
    outer loop
      vertex 2.5 -9.5 37.5
      vertex 0.964293 -7.94167 37.5
      vertex 2.5 -8.5 37.5
    endloop
  endfacet
  facet normal 0 0 -1
    outer loop
      vertex 2.5 -9.5 37.5
      vertex -0.964293 -7.94167 37.5
      vertex 0.964293 -7.94167 37.5
    endloop
  endfacet
  facet normal 0 0 -1
    outer loop
      vertex -3.1139 -9.5 37.5
      vertex -0.964293 -7.94167 37.5
      vertex 2.5 -9.5 37.5
    endloop
  endfacet
  facet normal -0 0 -1
    outer loop
      vertex -0.964293 -7.94167 37.5
      vertex -3.1139 -9.5 37.5
      vertex -2.83684 -7.48013 37.5
    endloop
  endfacet
  facet normal 0 0 -1
    outer loop
      vertex -5 -8.66025 37.5
      vertex -2.83684 -7.48013 37.5
      vertex -3.1139 -9.5 37.5
    endloop
  endfacet
  facet normal -0 0 -1
    outer loop
      vertex -2.83684 -7.48013 37.5
      vertex -5 -8.66025 37.5
      vertex -4.54452 -6.58387 37.5
    endloop
  endfacet
  facet normal 0 0 -1
    outer loop
      vertex -6.69131 -7.43145 37.5
      vertex -4.54452 -6.58387 37.5
      vertex -5 -8.66025 37.5
    endloop
  endfacet
  facet normal -0 0 -1
    outer loop
      vertex -4.54452 -6.58387 37.5
      vertex -6.69131 -7.43145 37.5
      vertex -5.98809 -5.30498 37.5
    endloop
  endfacet
  facet normal 0 0 -1
    outer loop
      vertex -8.09017 -5.87785 37.5
      vertex -5.98809 -5.30498 37.5
      vertex -6.69131 -7.43145 37.5
    endloop
  endfacet
  facet normal -0 0 -1
    outer loop
      vertex -5.98809 -5.30498 37.5
      vertex -8.09017 -5.87785 37.5
      vertex -7.08365 -3.71778 37.5
    endloop
  endfacet
  facet normal 0 0 -1
    outer loop
      vertex -9.5 -2.94541 37.5
      vertex -7.08365 -3.71778 37.5
      vertex -9.13545 -4.06737 37.5
    endloop
  endfacet
  facet normal 0 0 -1
    outer loop
      vertex -9.13545 -4.06737 37.5
      vertex -7.08365 -3.71778 37.5
      vertex -8.09017 -5.87785 37.5
    endloop
  endfacet
  facet normal 0 0 -1
    outer loop
      vertex 3.78648 -8.5 37.5
      vertex 2.83684 -7.48013 37.5
      vertex 3.78648 -6.98172 37.5
    endloop
  endfacet
  facet normal 0 0 -1
    outer loop
      vertex 2.5 -8.5 37.5
      vertex 2.83684 -7.48013 37.5
      vertex 3.78648 -8.5 37.5
    endloop
  endfacet
  facet normal 0 0 -1
    outer loop
      vertex 2.83684 -7.48013 37.5
      vertex 2.5 -8.5 37.5
      vertex 0.964293 -7.94167 37.5
    endloop
  endfacet
  facet normal 0 0 -1
    outer loop
      vertex 6.5 -4.56334 37.5
      vertex 8.78647 -4.67182 37.5
      vertex 8.09017 -5.87785 37.5
    endloop
  endfacet
  facet normal 0 0 -1
    outer loop
      vertex 7.76753 1.91453 37.5
      vertex 9.5 2.94541 37.5
      vertex 9.5 0 37.5
    endloop
  endfacet
  facet normal 0 0 -1
    outer loop
      vertex 7.76753 1.91453 37.5
      vertex 9.5 0 37.5
      vertex 8.78647 0 37.5
    endloop
  endfacet
  facet normal 0 0 -1
    outer loop
      vertex 8.78647 -4.67182 37.5
      vertex 7.76753 -1.91453 37.5
      vertex 8.78647 0 37.5
    endloop
  endfacet
  facet normal 0 0 -1
    outer loop
      vertex 7.76753 1.91453 37.5
      vertex 8.78647 0 37.5
      vertex 8 0 37.5
    endloop
  endfacet
  facet normal 0 0 -1
    outer loop
      vertex 7.08365 3.71778 37.5
      vertex 9.5 2.94541 37.5
      vertex 7.76753 1.91453 37.5
    endloop
  endfacet
  facet normal -0 0 -1
    outer loop
      vertex 8.78647 0 37.5
      vertex 7.76753 -1.91453 37.5
      vertex 8 0 37.5
    endloop
  endfacet
  facet normal 0 0 -1
    outer loop
      vertex 8.78647 -4.67182 37.5
      vertex 7.08365 -3.71778 37.5
      vertex 7.76753 -1.91453 37.5
    endloop
  endfacet
  facet normal 0 0 -1
    outer loop
      vertex 6.5 -4.56334 37.5
      vertex 8.09017 -5.87785 37.5
      vertex 6.69131 -7.43145 37.5
    endloop
  endfacet
  facet normal 0 0 -1
    outer loop
      vertex 6.5 -4.56334 37.5
      vertex 6.69131 -7.43145 37.5
      vertex 6.5 -7.57044 37.5
    endloop
  endfacet
  facet normal 0 0 -1
    outer loop
      vertex 8.78647 -4.67182 37.5
      vertex 6.5 -4.56334 37.5
      vertex 7.08365 -3.71778 37.5
    endloop
  endfacet
  facet normal 0 0 -1
    outer loop
      vertex 9.5 2.94541 37.5
      vertex 7.08365 3.71778 37.5
      vertex 9.13545 4.06737 37.5
    endloop
  endfacet
  facet normal -0 0 -1
    outer loop
      vertex 9.13545 4.06737 37.5
      vertex 7.08365 3.71778 37.5
      vertex 8.09017 5.87785 37.5
    endloop
  endfacet
  facet normal 0 0 -1
    outer loop
      vertex 5.98809 5.30498 37.5
      vertex 8.09017 5.87785 37.5
      vertex 7.08365 3.71778 37.5
    endloop
  endfacet
  facet normal -0 0 -1
    outer loop
      vertex 8.09017 5.87785 37.5
      vertex 5.98809 5.30498 37.5
      vertex 6.69131 7.43145 37.5
    endloop
  endfacet
  facet normal 0 0 -1
    outer loop
      vertex 4.54452 6.58387 37.5
      vertex 6.69131 7.43145 37.5
      vertex 5.98809 5.30498 37.5
    endloop
  endfacet
  facet normal -0 0 -1
    outer loop
      vertex 6.69131 7.43145 37.5
      vertex 4.54452 6.58387 37.5
      vertex 5 8.66025 37.5
    endloop
  endfacet
  facet normal 0 0 -1
    outer loop
      vertex 2.83684 7.48013 37.5
      vertex 5 8.66025 37.5
      vertex 4.54452 6.58387 37.5
    endloop
  endfacet
  facet normal -0 0 -1
    outer loop
      vertex 5 8.66025 37.5
      vertex 2.83684 7.48013 37.5
      vertex 3.1139 9.5 37.5
    endloop
  endfacet
  facet normal 0 0 -1
    outer loop
      vertex 0.964293 7.94167 37.5
      vertex 3.1139 9.5 37.5
      vertex 2.83684 7.48013 37.5
    endloop
  endfacet
  facet normal 0 0 -1
    outer loop
      vertex -0.964293 7.94167 37.5
      vertex 3.1139 9.5 37.5
      vertex 0.964293 7.94167 37.5
    endloop
  endfacet
  facet normal 0 0 -1
    outer loop
      vertex -3.1139 9.5 37.5
      vertex -0.964293 7.94167 37.5
      vertex -2.83684 7.48013 37.5
    endloop
  endfacet
  facet normal 0 0 -1
    outer loop
      vertex -0.964293 7.94167 37.5
      vertex -3.1139 9.5 37.5
      vertex 3.1139 9.5 37.5
    endloop
  endfacet
  facet normal 0 0 -1
    outer loop
      vertex -5 8.66025 37.5
      vertex -2.83684 7.48013 37.5
      vertex -4.54452 6.58387 37.5
    endloop
  endfacet
  facet normal 0 0 -1
    outer loop
      vertex -2.83684 7.48013 37.5
      vertex -5 8.66025 37.5
      vertex -3.1139 9.5 37.5
    endloop
  endfacet
  facet normal 0 0 -1
    outer loop
      vertex -6.69131 7.43145 37.5
      vertex -4.54452 6.58387 37.5
      vertex -5.98809 5.30498 37.5
    endloop
  endfacet
  facet normal 0 0 -1
    outer loop
      vertex -4.54452 6.58387 37.5
      vertex -6.69131 7.43145 37.5
      vertex -5 8.66025 37.5
    endloop
  endfacet
  facet normal 0 0 -1
    outer loop
      vertex -8.09017 5.87785 37.5
      vertex -5.98809 5.30498 37.5
      vertex -7.08365 3.71778 37.5
    endloop
  endfacet
  facet normal 0 0 -1
    outer loop
      vertex -9.5 2.94541 37.5
      vertex -7.08365 3.71778 37.5
      vertex -7.76753 1.91453 37.5
    endloop
  endfacet
  facet normal 0 0 -1
    outer loop
      vertex -5.98809 5.30498 37.5
      vertex -8.09017 5.87785 37.5
      vertex -6.69131 7.43145 37.5
    endloop
  endfacet
  facet normal 0 0 -1
    outer loop
      vertex -9.5 2.94541 37.5
      vertex -7.76753 1.91453 37.5
      vertex -8 0 37.5
    endloop
  endfacet
  facet normal 0 0 -1
    outer loop
      vertex -7.08365 -3.71778 37.5
      vertex -9.5 -2.94541 37.5
      vertex -7.76753 -1.91453 37.5
    endloop
  endfacet
  facet normal -0 0 -1
    outer loop
      vertex -7.76753 -1.91453 37.5
      vertex -9.5 -2.94541 37.5
      vertex -8 0 37.5
    endloop
  endfacet
  facet normal 0 0 -1
    outer loop
      vertex -9.5 2.94541 37.5
      vertex -8 0 37.5
      vertex -9.5 -2.94541 37.5
    endloop
  endfacet
  facet normal -0 0 -1
    outer loop
      vertex -7.08365 3.71778 37.5
      vertex -9.5 2.94541 37.5
      vertex -9.13545 4.06737 37.5
    endloop
  endfacet
  facet normal 0 0 -1
    outer loop
      vertex -7.08365 3.71778 37.5
      vertex -9.13545 4.06737 37.5
      vertex -8.09017 5.87785 37.5
    endloop
  endfacet
  facet normal -0.663122 -0.748511 0
    outer loop
      vertex -5.98809 -5.30498 12.5
      vertex -4.54452 -6.58387 37.5
      vertex -5.98809 -5.30498 37.5
    endloop
  endfacet
  facet normal -0.663122 -0.748511 -0
    outer loop
      vertex -4.54452 -6.58387 37.5
      vertex -5.98809 -5.30498 12.5
      vertex -4.54452 -6.58387 12.5
    endloop
  endfacet
  facet normal 0.992709 -0.120539 0
    outer loop
      vertex 7.76753 -1.91453 37.5
      vertex 8 0 12.5
      vertex 8 0 37.5
    endloop
  endfacet
  facet normal 0.992709 -0.120539 0
    outer loop
      vertex 8 0 12.5
      vertex 7.76753 -1.91453 37.5
      vertex 7.76753 -1.91453 12.5
    endloop
  endfacet
  facet normal 0.663122 0.748511 -0
    outer loop
      vertex 5.98809 5.30498 12.5
      vertex 4.54452 6.58387 37.5
      vertex 5.98809 5.30498 37.5
    endloop
  endfacet
  facet normal 0.663122 0.748511 0
    outer loop
      vertex 4.54452 6.58387 37.5
      vertex 5.98809 5.30498 12.5
      vertex 4.54452 6.58387 12.5
    endloop
  endfacet
  facet normal -0.663122 0.748511 0
    outer loop
      vertex -4.54452 6.58387 12.5
      vertex -5.98809 5.30498 37.5
      vertex -4.54452 6.58387 37.5
    endloop
  endfacet
  facet normal -0.663122 0.748511 0
    outer loop
      vertex -5.98809 5.30498 37.5
      vertex -4.54452 6.58387 12.5
      vertex -5.98809 5.30498 12.5
    endloop
  endfacet
  facet normal 0.239315 -0.970942 0
    outer loop
      vertex 0.964293 -7.94167 12.5
      vertex 2.83684 -7.48013 37.5
      vertex 0.964293 -7.94167 37.5
    endloop
  endfacet
  facet normal 0.239315 -0.970942 0
    outer loop
      vertex 2.83684 -7.48013 37.5
      vertex 0.964293 -7.94167 12.5
      vertex 2.83684 -7.48013 12.5
    endloop
  endfacet
  facet normal 0.822983 -0.568066 1.04518e-05
    outer loop
      vertex 5.98809 -5.30498 36.7954
      vertex 7.08365 -3.71778 37.5
      vertex 6.5 -4.56334 37.5
    endloop
  endfacet
  facet normal 0.822985 -0.568063 0
    outer loop
      vertex 7.08365 -3.71778 37.5
      vertex 5.98809 -5.30498 36.7954
      vertex 7.08365 -3.71778 12.5
    endloop
  endfacet
  facet normal 0.822985 -0.568063 0
    outer loop
      vertex 5.98809 -5.30498 13.2046
      vertex 7.08365 -3.71778 12.5
      vertex 5.98809 -5.30498 36.7954
    endloop
  endfacet
  facet normal 0.822983 -0.568066 -1.04518e-05
    outer loop
      vertex 7.08365 -3.71778 12.5
      vertex 5.98809 -5.30498 13.2046
      vertex 6.5 -4.56334 12.5
    endloop
  endfacet
  facet normal 0.464723 0.885456 -0
    outer loop
      vertex 4.54452 6.58387 12.5
      vertex 2.83684 7.48013 37.5
      vertex 4.54452 6.58387 37.5
    endloop
  endfacet
  facet normal 0.464723 0.885456 0
    outer loop
      vertex 2.83684 7.48013 37.5
      vertex 4.54452 6.58387 12.5
      vertex 2.83684 7.48013 12.5
    endloop
  endfacet
  facet normal -0.992709 0.120539 0
    outer loop
      vertex -8 0 12.5
      vertex -7.76753 1.91453 37.5
      vertex -7.76753 1.91453 12.5
    endloop
  endfacet
  facet normal -0.992709 0.120539 0
    outer loop
      vertex -7.76753 1.91453 37.5
      vertex -8 0 12.5
      vertex -8 0 37.5
    endloop
  endfacet
  facet normal 0.935017 -0.354604 0
    outer loop
      vertex 7.08365 -3.71778 37.5
      vertex 7.76753 -1.91453 12.5
      vertex 7.76753 -1.91453 37.5
    endloop
  endfacet
  facet normal 0.935017 -0.354604 0
    outer loop
      vertex 7.76753 -1.91453 12.5
      vertex 7.08365 -3.71778 37.5
      vertex 7.08365 -3.71778 12.5
    endloop
  endfacet
  facet normal 0 1 -0
    outer loop
      vertex 0.964293 7.94167 12.5
      vertex -0.964293 7.94167 37.5
      vertex 0.964293 7.94167 37.5
    endloop
  endfacet
  facet normal 0 1 0
    outer loop
      vertex -0.964293 7.94167 37.5
      vertex 0.964293 7.94167 12.5
      vertex -0.964293 7.94167 12.5
    endloop
  endfacet
  facet normal -0.992709 -0.120539 0
    outer loop
      vertex -7.76753 -1.91453 12.5
      vertex -8 0 37.5
      vertex -8 0 12.5
    endloop
  endfacet
  facet normal -0.992709 -0.120539 0
    outer loop
      vertex -8 0 37.5
      vertex -7.76753 -1.91453 12.5
      vertex -7.76753 -1.91453 37.5
    endloop
  endfacet
  facet normal 0.464724 -0.885456 0
    outer loop
      vertex 2.83684 -7.48013 37.5
      vertex 3.78648 -6.98172 36.6183
      vertex 3.78648 -6.98172 37.5
    endloop
  endfacet
  facet normal 0.464723 -0.885456 0
    outer loop
      vertex 3.78648 -6.98172 36.6183
      vertex 4.54452 -6.58387 13.628
      vertex 4.54452 -6.58387 36.372
    endloop
  endfacet
  facet normal 0.464724 -0.885456 0
    outer loop
      vertex 3.78648 -6.98172 13.3817
      vertex 3.78648 -6.98172 36.6183
      vertex 2.83684 -7.48013 37.5
    endloop
  endfacet
  facet normal 0.464723 -0.885456 0
    outer loop
      vertex 3.78648 -6.98172 36.6183
      vertex 3.78648 -6.98172 13.3817
      vertex 4.54452 -6.58387 13.628
    endloop
  endfacet
  facet normal 0.464724 -0.885456 0
    outer loop
      vertex 2.83684 -7.48013 12.5
      vertex 3.78648 -6.98172 13.3817
      vertex 2.83684 -7.48013 37.5
    endloop
  endfacet
  facet normal 0.464724 -0.885456 0
    outer loop
      vertex 3.78648 -6.98172 13.3817
      vertex 2.83684 -7.48013 12.5
      vertex 3.78648 -6.98172 12.5
    endloop
  endfacet
  facet normal -0.464723 0.885456 0
    outer loop
      vertex -2.83684 7.48013 12.5
      vertex -4.54452 6.58387 37.5
      vertex -2.83684 7.48013 37.5
    endloop
  endfacet
  facet normal -0.464723 0.885456 0
    outer loop
      vertex -4.54452 6.58387 37.5
      vertex -2.83684 7.48013 12.5
      vertex -4.54452 6.58387 12.5
    endloop
  endfacet
  facet normal -0.239315 0.970942 0
    outer loop
      vertex -0.964293 7.94167 12.5
      vertex -2.83684 7.48013 37.5
      vertex -0.964293 7.94167 37.5
    endloop
  endfacet
  facet normal -0.239315 0.970942 0
    outer loop
      vertex -2.83684 7.48013 37.5
      vertex -0.964293 7.94167 12.5
      vertex -2.83684 7.48013 12.5
    endloop
  endfacet
  facet normal 0.239315 0.970942 -0
    outer loop
      vertex 2.83684 7.48013 12.5
      vertex 0.964293 7.94167 37.5
      vertex 2.83684 7.48013 37.5
    endloop
  endfacet
  facet normal 0.239315 0.970942 0
    outer loop
      vertex 0.964293 7.94167 37.5
      vertex 2.83684 7.48013 12.5
      vertex 0.964293 7.94167 12.5
    endloop
  endfacet
  facet normal 0 -1 0
    outer loop
      vertex -0.964293 -7.94167 12.5
      vertex 0.964293 -7.94167 37.5
      vertex -0.964293 -7.94167 37.5
    endloop
  endfacet
  facet normal 0 -1 -0
    outer loop
      vertex 0.964293 -7.94167 37.5
      vertex -0.964293 -7.94167 12.5
      vertex 0.964293 -7.94167 12.5
    endloop
  endfacet
  facet normal -0.935017 -0.354604 0
    outer loop
      vertex -7.08365 -3.71778 12.5
      vertex -7.76753 -1.91453 37.5
      vertex -7.76753 -1.91453 12.5
    endloop
  endfacet
  facet normal -0.935017 -0.354604 0
    outer loop
      vertex -7.76753 -1.91453 37.5
      vertex -7.08365 -3.71778 12.5
      vertex -7.08365 -3.71778 37.5
    endloop
  endfacet
  facet normal -0.822985 0.568063 0
    outer loop
      vertex -7.08365 3.71778 12.5
      vertex -5.98809 5.30498 37.5
      vertex -5.98809 5.30498 12.5
    endloop
  endfacet
  facet normal -0.822985 0.568063 0
    outer loop
      vertex -5.98809 5.30498 37.5
      vertex -7.08365 3.71778 12.5
      vertex -7.08365 3.71778 37.5
    endloop
  endfacet
  facet normal -0.822985 -0.568063 0
    outer loop
      vertex -5.98809 -5.30498 12.5
      vertex -7.08365 -3.71778 37.5
      vertex -7.08365 -3.71778 12.5
    endloop
  endfacet
  facet normal -0.822985 -0.568063 0
    outer loop
      vertex -7.08365 -3.71778 37.5
      vertex -5.98809 -5.30498 12.5
      vertex -5.98809 -5.30498 37.5
    endloop
  endfacet
  facet normal -0.464723 -0.885456 0
    outer loop
      vertex -4.54452 -6.58387 12.5
      vertex -2.83684 -7.48013 37.5
      vertex -4.54452 -6.58387 37.5
    endloop
  endfacet
  facet normal -0.464723 -0.885456 -0
    outer loop
      vertex -2.83684 -7.48013 37.5
      vertex -4.54452 -6.58387 12.5
      vertex -2.83684 -7.48013 12.5
    endloop
  endfacet
  facet normal -0.935017 0.354604 0
    outer loop
      vertex -7.76753 1.91453 12.5
      vertex -7.08365 3.71778 37.5
      vertex -7.08365 3.71778 12.5
    endloop
  endfacet
  facet normal -0.935017 0.354604 0
    outer loop
      vertex -7.08365 3.71778 37.5
      vertex -7.76753 1.91453 12.5
      vertex -7.76753 1.91453 37.5
    endloop
  endfacet
  facet normal -0.743147 -0.669129 0
    outer loop
      vertex -6.69131 -7.43145 37.5
      vertex -8.09017 -5.87785 50
      vertex -8.09017 -5.87785 37.5
    endloop
  endfacet
  facet normal -0.743147 -0.669129 0
    outer loop
      vertex -8.09017 -5.87785 50
      vertex -6.69131 -7.43145 37.5
      vertex -6.69131 -7.43145 50
    endloop
  endfacet
  facet normal 0.951056 0.309019 0
    outer loop
      vertex 9.5 2.94541 50
      vertex 9.13545 4.06737 37.5
      vertex 9.13545 4.06737 50
    endloop
  endfacet
  facet normal 0.951056 0.309019 0
    outer loop
      vertex 9.13545 4.06737 37.5
      vertex 9.5 2.94541 50
      vertex 9.5 2.94541 37.5
    endloop
  endfacet
  facet normal 0.866026 0.5 0
    outer loop
      vertex 9.13545 4.06737 50
      vertex 8.09017 5.87785 37.5
      vertex 8.09017 5.87785 50
    endloop
  endfacet
  facet normal 0.866026 0.5 0
    outer loop
      vertex 8.09017 5.87785 37.5
      vertex 9.13545 4.06737 50
      vertex 9.13545 4.06737 37.5
    endloop
  endfacet
  facet normal 0.951056 -0.309019 0
    outer loop
      vertex 9.13545 -4.06737 50
      vertex 9.5 -2.94541 38.6135
      vertex 9.5 -2.94541 50
    endloop
  endfacet
  facet normal 0.951056 -0.309019 0
    outer loop
      vertex 9.5 -2.94541 38.6135
      vertex 9.13545 -4.06737 50
      vertex 9.13545 -4.06737 38.4951
    endloop
  endfacet
  facet normal 0.587799 -0.809007 0
    outer loop
      vertex 5.22057 -8.5 39.6651
      vertex 5.22057 -8.5 38.8476
      vertex 5.46352 -8.32348 38.9266
    endloop
  endfacet
  facet normal 0.587777 -0.809023 0
    outer loop
      vertex 5.22057 -8.5 39.6651
      vertex 5 -8.66025 50
      vertex 5 -8.66025 39.6651
    endloop
  endfacet
  facet normal 0.587783 -0.809019 1.84603e-07
    outer loop
      vertex 5 -8.66025 50
      vertex 5.22057 -8.5 39.6651
      vertex 6.69131 -7.43145 50
    endloop
  endfacet
  facet normal 0.587768 -0.809029 -1.56024e-05
    outer loop
      vertex 6.69131 -7.43145 37.5
      vertex 5.22057 -8.5 39.6651
      vertex 5.46352 -8.32348 38.9266
    endloop
  endfacet
  facet normal 0.587772 -0.809027 -1.10486e-05
    outer loop
      vertex 6.69131 -7.43145 37.5
      vertex 5.46352 -8.32348 38.9266
      vertex 6.5 -7.57044 37.5
    endloop
  endfacet
  facet normal 0.587783 -0.809018 0
    outer loop
      vertex 5.22057 -8.5 39.6651
      vertex 6.69131 -7.43145 37.5
      vertex 6.69131 -7.43145 50
    endloop
  endfacet
  facet normal 0.743147 -0.669129 0
    outer loop
      vertex 6.69131 -7.43145 50
      vertex 8.09017 -5.87785 37.5
      vertex 8.09017 -5.87785 50
    endloop
  endfacet
  facet normal 0.743147 -0.669129 0
    outer loop
      vertex 8.09017 -5.87785 37.5
      vertex 6.69131 -7.43145 50
      vertex 6.69131 -7.43145 37.5
    endloop
  endfacet
  facet normal -0.406738 -0.913545 0
    outer loop
      vertex -5 -8.66025 37.5
      vertex -3.1139 -9.5 50
      vertex -5 -8.66025 50
    endloop
  endfacet
  facet normal -0.406738 -0.913545 -0
    outer loop
      vertex -3.1139 -9.5 50
      vertex -5 -8.66025 37.5
      vertex -3.1139 -9.5 37.5
    endloop
  endfacet
  facet normal 0.406738 0.913545 -0
    outer loop
      vertex 5 8.66025 37.5
      vertex 3.1139 9.5 50
      vertex 5 8.66025 50
    endloop
  endfacet
  facet normal 0.406738 0.913545 0
    outer loop
      vertex 3.1139 9.5 50
      vertex 5 8.66025 37.5
      vertex 3.1139 9.5 37.5
    endloop
  endfacet
  facet normal 0.743147 0.669129 0
    outer loop
      vertex 8.09017 5.87785 50
      vertex 6.69131 7.43145 37.5
      vertex 6.69131 7.43145 50
    endloop
  endfacet
  facet normal 0.743147 0.669129 0
    outer loop
      vertex 6.69131 7.43145 37.5
      vertex 8.09017 5.87785 50
      vertex 8.09017 5.87785 37.5
    endloop
  endfacet
  facet normal -0.587783 -0.809019 0
    outer loop
      vertex -6.69131 -7.43145 37.5
      vertex -5 -8.66025 50
      vertex -6.69131 -7.43145 50
    endloop
  endfacet
  facet normal -0.587783 -0.809019 -0
    outer loop
      vertex -5 -8.66025 50
      vertex -6.69131 -7.43145 37.5
      vertex -5 -8.66025 37.5
    endloop
  endfacet
  facet normal -0.743147 0.669129 0
    outer loop
      vertex -8.09017 5.87785 37.5
      vertex -6.69131 7.43145 50
      vertex -6.69131 7.43145 37.5
    endloop
  endfacet
  facet normal -0.743147 0.669129 0
    outer loop
      vertex -6.69131 7.43145 50
      vertex -8.09017 5.87785 37.5
      vertex -8.09017 5.87785 50
    endloop
  endfacet
  facet normal 0.406738 -0.913545 1.21571e-07
    outer loop
      vertex 3.1139 -9.5 50
      vertex 3.75 -9.21679 39.6651
      vertex 5 -8.66025 50
    endloop
  endfacet
  facet normal 0.406737 -0.913545 0
    outer loop
      vertex 3.75 -9.21679 39.6651
      vertex 3.1139 -9.5 50
      vertex 3.1139 -9.5 38.5633
    endloop
  endfacet
  facet normal 0.406739 -0.913544 0
    outer loop
      vertex 5 -8.66025 50
      vertex 3.75 -9.21679 39.6651
      vertex 5 -8.66025 39.6651
    endloop
  endfacet
  facet normal -0.951056 0.309019 0
    outer loop
      vertex -9.5 2.94541 37.5
      vertex -9.13545 4.06737 50
      vertex -9.13545 4.06737 37.5
    endloop
  endfacet
  facet normal -0.951056 0.309019 0
    outer loop
      vertex -9.13545 4.06737 50
      vertex -9.5 2.94541 37.5
      vertex -9.5 2.94541 50
    endloop
  endfacet
  facet normal -0.951056 -0.309019 0
    outer loop
      vertex -9.13545 -4.06737 37.5
      vertex -9.5 -2.94541 50
      vertex -9.5 -2.94541 37.5
    endloop
  endfacet
  facet normal -0.951056 -0.309019 0
    outer loop
      vertex -9.5 -2.94541 50
      vertex -9.13545 -4.06737 37.5
      vertex -9.13545 -4.06737 50
    endloop
  endfacet
  facet normal -0.406738 0.913545 0
    outer loop
      vertex -3.1139 9.5 37.5
      vertex -5 8.66025 50
      vertex -3.1139 9.5 50
    endloop
  endfacet
  facet normal -0.406738 0.913545 0
    outer loop
      vertex -5 8.66025 50
      vertex -3.1139 9.5 37.5
      vertex -5 8.66025 37.5
    endloop
  endfacet
  facet normal 0 0 1
    outer loop
      vertex 2.42705 1.76336 50
      vertex 9.5 2.94541 50
      vertex 9.13545 4.06737 50
    endloop
  endfacet
  facet normal 0 0 1
    outer loop
      vertex 9.5 2.94541 50
      vertex 3 0 50
      vertex 9.5 -2.94541 50
    endloop
  endfacet
  facet normal 0 0 1
    outer loop
      vertex 2.42705 1.76336 50
      vertex 9.13545 4.06737 50
      vertex 8.09017 5.87785 50
    endloop
  endfacet
  facet normal -0 0 1
    outer loop
      vertex 2.42705 -1.76336 50
      vertex 9.5 -2.94541 50
      vertex 3 0 50
    endloop
  endfacet
  facet normal 0 0 1
    outer loop
      vertex 2.42705 1.76336 50
      vertex 8.09017 5.87785 50
      vertex 6.69131 7.43145 50
    endloop
  endfacet
  facet normal 0 0 1
    outer loop
      vertex 9.5 -2.94541 50
      vertex 2.42705 -1.76336 50
      vertex 9.13545 -4.06737 50
    endloop
  endfacet
  facet normal 0 0 1
    outer loop
      vertex 2.42705 1.76336 50
      vertex 6.69131 7.43145 50
      vertex 5 8.66025 50
    endloop
  endfacet
  facet normal 0 0 1
    outer loop
      vertex 9.13545 -4.06737 50
      vertex 2.42705 -1.76336 50
      vertex 8.09017 -5.87785 50
    endloop
  endfacet
  facet normal 0 0 1
    outer loop
      vertex 0.927051 2.85317 50
      vertex 5 8.66025 50
      vertex 3.1139 9.5 50
    endloop
  endfacet
  facet normal 0 0 1
    outer loop
      vertex 8.09017 -5.87785 50
      vertex 2.42705 -1.76336 50
      vertex 6.69131 -7.43145 50
    endloop
  endfacet
  facet normal 0 0 1
    outer loop
      vertex 6.69131 -7.43145 50
      vertex 2.42705 -1.76336 50
      vertex 5 -8.66025 50
    endloop
  endfacet
  facet normal 0 0 1
    outer loop
      vertex 9.5 2.94541 50
      vertex 2.42705 1.76336 50
      vertex 3 0 50
    endloop
  endfacet
  facet normal 0 0 1
    outer loop
      vertex 5 8.66025 50
      vertex 0.927051 2.85317 50
      vertex 2.42705 1.76336 50
    endloop
  endfacet
  facet normal 0 0 1
    outer loop
      vertex 3.1139 9.5 50
      vertex -0.927051 2.85317 50
      vertex 0.927051 2.85317 50
    endloop
  endfacet
  facet normal -0 0 1
    outer loop
      vertex -3.1139 9.5 50
      vertex -0.927051 2.85317 50
      vertex 3.1139 9.5 50
    endloop
  endfacet
  facet normal 0 0 1
    outer loop
      vertex -0.927051 2.85317 50
      vertex -5 8.66025 50
      vertex -2.42705 1.76336 50
    endloop
  endfacet
  facet normal -0 0 1
    outer loop
      vertex -5 8.66025 50
      vertex -0.927051 2.85317 50
      vertex -3.1139 9.5 50
    endloop
  endfacet
  facet normal -0 0 1
    outer loop
      vertex 0.927051 -2.85317 50
      vertex 5 -8.66025 50
      vertex 2.42705 -1.76336 50
    endloop
  endfacet
  facet normal 0 0 1
    outer loop
      vertex 5 -8.66025 50
      vertex 0.927051 -2.85317 50
      vertex 3.1139 -9.5 50
    endloop
  endfacet
  facet normal -0 0 1
    outer loop
      vertex -0.927051 -2.85317 50
      vertex 3.1139 -9.5 50
      vertex 0.927051 -2.85317 50
    endloop
  endfacet
  facet normal 0 0 1
    outer loop
      vertex -5 -8.66025 50
      vertex -0.927051 -2.85317 50
      vertex -2.42705 -1.76336 50
    endloop
  endfacet
  facet normal 0 0 1
    outer loop
      vertex -0.927051 -2.85317 50
      vertex -3.1139 -9.5 50
      vertex 3.1139 -9.5 50
    endloop
  endfacet
  facet normal 0 0 1
    outer loop
      vertex -9.5 -2.94541 50
      vertex -2.42705 -1.76336 50
      vertex -3 0 50
    endloop
  endfacet
  facet normal -0 0 1
    outer loop
      vertex -6.69131 7.43145 50
      vertex -2.42705 1.76336 50
      vertex -5 8.66025 50
    endloop
  endfacet
  facet normal -0 0 1
    outer loop
      vertex -8.09017 5.87785 50
      vertex -2.42705 1.76336 50
      vertex -6.69131 7.43145 50
    endloop
  endfacet
  facet normal 0 0 1
    outer loop
      vertex -9.5 -2.94541 50
      vertex -3 0 50
      vertex -9.5 2.94541 50
    endloop
  endfacet
  facet normal -0 0 1
    outer loop
      vertex -9.13545 4.06737 50
      vertex -2.42705 1.76336 50
      vertex -8.09017 5.87785 50
    endloop
  endfacet
  facet normal 0 0 1
    outer loop
      vertex -2.42705 -1.76336 50
      vertex -9.5 -2.94541 50
      vertex -9.13545 -4.06737 50
    endloop
  endfacet
  facet normal -0 0 1
    outer loop
      vertex -9.5 2.94541 50
      vertex -2.42705 1.76336 50
      vertex -9.13545 4.06737 50
    endloop
  endfacet
  facet normal 0 0 1
    outer loop
      vertex -0.927051 -2.85317 50
      vertex -5 -8.66025 50
      vertex -3.1139 -9.5 50
    endloop
  endfacet
  facet normal 0 0 1
    outer loop
      vertex -2.42705 1.76336 50
      vertex -9.5 2.94541 50
      vertex -3 0 50
    endloop
  endfacet
  facet normal 0 0 1
    outer loop
      vertex -2.42705 -1.76336 50
      vertex -6.69131 -7.43145 50
      vertex -5 -8.66025 50
    endloop
  endfacet
  facet normal 0 0 1
    outer loop
      vertex -2.42705 -1.76336 50
      vertex -8.09017 -5.87785 50
      vertex -6.69131 -7.43145 50
    endloop
  endfacet
  facet normal 0 0 1
    outer loop
      vertex -2.42705 -1.76336 50
      vertex -9.13545 -4.06737 50
      vertex -8.09017 -5.87785 50
    endloop
  endfacet
  facet normal -0.866026 -0.5 0
    outer loop
      vertex -8.09017 -5.87785 37.5
      vertex -9.13545 -4.06737 50
      vertex -9.13545 -4.06737 37.5
    endloop
  endfacet
  facet normal -0.866026 -0.5 0
    outer loop
      vertex -9.13545 -4.06737 50
      vertex -8.09017 -5.87785 37.5
      vertex -8.09017 -5.87785 50
    endloop
  endfacet
  facet normal -0.866026 0.5 0
    outer loop
      vertex -9.13545 4.06737 37.5
      vertex -8.09017 5.87785 50
      vertex -8.09017 5.87785 37.5
    endloop
  endfacet
  facet normal -0.866026 0.5 0
    outer loop
      vertex -8.09017 5.87785 50
      vertex -9.13545 4.06737 37.5
      vertex -9.13545 4.06737 50
    endloop
  endfacet
  facet normal 0.866026 -0.5 0
    outer loop
      vertex 8.09017 -5.87785 50
      vertex 9.13545 -4.06737 38.4951
      vertex 9.13545 -4.06737 50
    endloop
  endfacet
  facet normal 0.866025 -0.500001 -2.19475e-07
    outer loop
      vertex 9.13545 -4.06737 38.4951
      vertex 8.09017 -5.87785 50
      vertex 8.78647 -4.67182 38.3817
    endloop
  endfacet
  facet normal 0.866026 -0.499999 0
    outer loop
      vertex 8.09017 -5.87785 37.5
      vertex 8.78647 -4.67182 38.3817
      vertex 8.09017 -5.87785 50
    endloop
  endfacet
  facet normal 0.866026 -0.499999 0
    outer loop
      vertex 8.78647 -4.67182 38.3817
      vertex 8.09017 -5.87785 37.5
      vertex 8.78647 -4.67182 37.5
    endloop
  endfacet
  facet normal 0.587783 0.809019 -0
    outer loop
      vertex 6.69131 7.43145 37.5
      vertex 5 8.66025 50
      vertex 6.69131 7.43145 50
    endloop
  endfacet
  facet normal 0.587783 0.809019 0
    outer loop
      vertex 5 8.66025 50
      vertex 6.69131 7.43145 37.5
      vertex 5 8.66025 37.5
    endloop
  endfacet
  facet normal -0.587783 0.809019 0
    outer loop
      vertex -5 8.66025 37.5
      vertex -6.69131 7.43145 50
      vertex -5 8.66025 50
    endloop
  endfacet
  facet normal -0.587783 0.809019 0
    outer loop
      vertex -6.69131 7.43145 50
      vertex -5 8.66025 37.5
      vertex -6.69131 7.43145 37.5
    endloop
  endfacet
  facet normal 1 0 0
    outer loop
      vertex 9.5 2.94541 50
      vertex 9.5 0 38.6135
      vertex 9.5 2.94541 37.5
    endloop
  endfacet
  facet normal 1 -0 0
    outer loop
      vertex 9.5 -2.94541 50
      vertex 9.5 0 38.6135
      vertex 9.5 2.94541 50
    endloop
  endfacet
  facet normal 1 0 0
    outer loop
      vertex 9.5 0 38.6135
      vertex 9.5 -2.94541 50
      vertex 9.5 -2.94541 38.6135
    endloop
  endfacet
  facet normal 1 0 0
    outer loop
      vertex 9.5 2.94541 37.5
      vertex 9.5 0 38.6135
      vertex 9.5 0 37.5
    endloop
  endfacet
  facet normal 1 0 0
    outer loop
      vertex 9.5 0 11.3865
      vertex 9.5 2.94541 12.5
      vertex 9.5 0 12.5
    endloop
  endfacet
  facet normal 1 0 0
    outer loop
      vertex 9.5 2.94541 12.5
      vertex 9.5 0 11.3865
      vertex 9.5 2.94541 0
    endloop
  endfacet
  facet normal 1 0 0
    outer loop
      vertex 9.5 -2.94541 0
      vertex 9.5 0 11.3865
      vertex 9.5 -2.94541 11.3865
    endloop
  endfacet
  facet normal 1 0 0
    outer loop
      vertex 9.5 0 11.3865
      vertex 9.5 -2.94541 0
      vertex 9.5 2.94541 0
    endloop
  endfacet
  facet normal 0 1 -0
    outer loop
      vertex 3.1139 9.5 37.5
      vertex -3.1139 9.5 50
      vertex 3.1139 9.5 50
    endloop
  endfacet
  facet normal 0 1 0
    outer loop
      vertex -3.1139 9.5 50
      vertex 3.1139 9.5 37.5
      vertex -3.1139 9.5 37.5
    endloop
  endfacet
  facet normal 0 1 -0
    outer loop
      vertex 3.1139 9.5 0
      vertex -3.1139 9.5 12.5
      vertex 3.1139 9.5 12.5
    endloop
  endfacet
  facet normal 0 1 0
    outer loop
      vertex -3.1139 9.5 12.5
      vertex 3.1139 9.5 0
      vertex -3.1139 9.5 0
    endloop
  endfacet
  facet normal -1 0 0
    outer loop
      vertex -9.5 -2.94541 37.5
      vertex -9.5 2.94541 50
      vertex -9.5 2.94541 37.5
    endloop
  endfacet
  facet normal -1 -0 0
    outer loop
      vertex -9.5 2.94541 50
      vertex -9.5 -2.94541 37.5
      vertex -9.5 -2.94541 50
    endloop
  endfacet
  facet normal -1 0 0
    outer loop
      vertex -9.5 -2.94541 0
      vertex -9.5 2.94541 12.5
      vertex -9.5 2.94541 0
    endloop
  endfacet
  facet normal -1 -0 0
    outer loop
      vertex -9.5 2.94541 12.5
      vertex -9.5 -2.94541 0
      vertex -9.5 -2.94541 12.5
    endloop
  endfacet
  facet normal 0 -1 0
    outer loop
      vertex -3.1139 -9.5 50
      vertex 3.1139 -9.5 38.5633
      vertex 3.1139 -9.5 50
    endloop
  endfacet
  facet normal 0 -1 0
    outer loop
      vertex -3.1139 -9.5 37.5
      vertex 3.1139 -9.5 38.5633
      vertex -3.1139 -9.5 50
    endloop
  endfacet
  facet normal 0 -1 0
    outer loop
      vertex 3.1139 -9.5 38.5633
      vertex -3.1139 -9.5 37.5
      vertex 2.5 -9.5 37.5
    endloop
  endfacet
  facet normal 0 -1 0
    outer loop
      vertex -3.1139 -9.5 12.5
      vertex 3.1139 -9.5 11.4367
      vertex 2.5 -9.5 12.5
    endloop
  endfacet
  facet normal 0 -1 0
    outer loop
      vertex -3.1139 -9.5 0
      vertex 3.1139 -9.5 11.4367
      vertex -3.1139 -9.5 12.5
    endloop
  endfacet
  facet normal 0 -1 -0
    outer loop
      vertex 3.1139 -9.5 11.4367
      vertex -3.1139 -9.5 0
      vertex 3.1139 -9.5 0
    endloop
  endfacet
  facet normal 0.308969 0 0.951072
    outer loop
      vertex 8.78647 0 11.6183
      vertex 9.5 -2.94541 11.3865
      vertex 9.5 0 11.3865
    endloop
  endfacet
  facet normal 0.30893 -1.05232e-05 0.951085
    outer loop
      vertex 9.5 -2.94541 11.3865
      vertex 8.78647 0 11.6183
      vertex 9.13545 -4.06737 11.5049
    endloop
  endfacet
  facet normal 0.30904 0 0.951049
    outer loop
      vertex 9.13545 -4.06737 11.5049
      vertex 8.78647 0 11.6183
      vertex 8.78647 -4.67182 11.6183
    endloop
  endfacet
  facet normal 1 -0 0
    outer loop
      vertex 8.78647 -4.67182 12.5
      vertex 8.78647 0 11.6183
      vertex 8.78647 0 12.5
    endloop
  endfacet
  facet normal 1 0 0
    outer loop
      vertex 8.78647 0 11.6183
      vertex 8.78647 -4.67182 12.5
      vertex 8.78647 -4.67182 11.6183
    endloop
  endfacet
  facet normal 0 -1 0
    outer loop
      vertex 8.78647 0 11.6183
      vertex 9.5 0 12.5
      vertex 8.78647 0 12.5
    endloop
  endfacet
  facet normal 0 -1 -0
    outer loop
      vertex 9.5 0 12.5
      vertex 8.78647 0 11.6183
      vertex 9.5 0 11.3865
    endloop
  endfacet
  facet normal 1 -0 0
    outer loop
      vertex 8.78647 -4.67182 38.3817
      vertex 8.78647 0 37.5
      vertex 8.78647 0 38.3817
    endloop
  endfacet
  facet normal 1 0 0
    outer loop
      vertex 8.78647 0 37.5
      vertex 8.78647 -4.67182 38.3817
      vertex 8.78647 -4.67182 37.5
    endloop
  endfacet
  facet normal 0.30893 -1.05232e-05 -0.951085
    outer loop
      vertex 8.78647 0 38.3817
      vertex 9.5 -2.94541 38.6135
      vertex 9.13545 -4.06737 38.4951
    endloop
  endfacet
  facet normal 0.30904 0 -0.951049
    outer loop
      vertex 8.78647 0 38.3817
      vertex 9.13545 -4.06737 38.4951
      vertex 8.78647 -4.67182 38.3817
    endloop
  endfacet
  facet normal 0.308969 0 -0.951072
    outer loop
      vertex 9.5 -2.94541 38.6135
      vertex 8.78647 0 38.3817
      vertex 9.5 0 38.6135
    endloop
  endfacet
  facet normal 0 -1 0
    outer loop
      vertex 9.5 0 37.5
      vertex 8.78647 0 38.3817
      vertex 8.78647 0 37.5
    endloop
  endfacet
  facet normal 0 -1 0
    outer loop
      vertex 8.78647 0 38.3817
      vertex 9.5 0 37.5
      vertex 9.5 0 38.6135
    endloop
  endfacet
  facet normal 0.951057 0.309017 0
    outer loop
      vertex -2.42705 -1.76336 50
      vertex -3 0 25
      vertex -3 0 50
    endloop
  endfacet
  facet normal 0.951057 0.309017 0
    outer loop
      vertex -3 0 25
      vertex -2.42705 -1.76336 50
      vertex -2.42705 -1.76336 25
    endloop
  endfacet
  facet normal -0.587784 -0.809018 0
    outer loop
      vertex 0.927051 2.85317 25
      vertex 2.42705 1.76336 50
      vertex 0.927051 2.85317 50
    endloop
  endfacet
  facet normal -0.587784 -0.809018 -0
    outer loop
      vertex 2.42705 1.76336 50
      vertex 0.927051 2.85317 25
      vertex 2.42705 1.76336 25
    endloop
  endfacet
  facet normal -0.951057 -0.309017 0
    outer loop
      vertex 3 0 25
      vertex 2.42705 1.76336 50
      vertex 2.42705 1.76336 25
    endloop
  endfacet
  facet normal -0.951057 -0.309017 0
    outer loop
      vertex 2.42705 1.76336 50
      vertex 3 0 25
      vertex 3 0 50
    endloop
  endfacet
  facet normal 0 -1 0
    outer loop
      vertex -0.927051 2.85317 25
      vertex 0.927051 2.85317 50
      vertex -0.927051 2.85317 50
    endloop
  endfacet
  facet normal 0 -1 -0
    outer loop
      vertex 0.927051 2.85317 50
      vertex -0.927051 2.85317 25
      vertex 0.927051 2.85317 25
    endloop
  endfacet
  facet normal 0.587784 0.809018 -0
    outer loop
      vertex -0.927051 -2.85317 25
      vertex -2.42705 -1.76336 50
      vertex -0.927051 -2.85317 50
    endloop
  endfacet
  facet normal 0.587784 0.809018 0
    outer loop
      vertex -2.42705 -1.76336 50
      vertex -0.927051 -2.85317 25
      vertex -2.42705 -1.76336 25
    endloop
  endfacet
  facet normal -0.951057 0.309017 0
    outer loop
      vertex 2.42705 -1.76336 25
      vertex 3 0 50
      vertex 3 0 25
    endloop
  endfacet
  facet normal -0.951057 0.309017 0
    outer loop
      vertex 3 0 50
      vertex 2.42705 -1.76336 25
      vertex 2.42705 -1.76336 50
    endloop
  endfacet
  facet normal 0.587784 -0.809018 0
    outer loop
      vertex -2.42705 1.76336 25
      vertex -0.927051 2.85317 50
      vertex -2.42705 1.76336 50
    endloop
  endfacet
  facet normal 0.587784 -0.809018 0
    outer loop
      vertex -0.927051 2.85317 50
      vertex -2.42705 1.76336 25
      vertex -0.927051 2.85317 25
    endloop
  endfacet
  facet normal 0 1 -0
    outer loop
      vertex 0.927051 -2.85317 25
      vertex -0.927051 -2.85317 50
      vertex 0.927051 -2.85317 50
    endloop
  endfacet
  facet normal 0 1 0
    outer loop
      vertex -0.927051 -2.85317 50
      vertex 0.927051 -2.85317 25
      vertex -0.927051 -2.85317 25
    endloop
  endfacet
  facet normal -0.587784 0.809018 0
    outer loop
      vertex 2.42705 -1.76336 25
      vertex 0.927051 -2.85317 50
      vertex 2.42705 -1.76336 50
    endloop
  endfacet
  facet normal -0.587784 0.809018 0
    outer loop
      vertex 0.927051 -2.85317 50
      vertex 2.42705 -1.76336 25
      vertex 0.927051 -2.85317 25
    endloop
  endfacet
  facet normal 0.951057 -0.309017 0
    outer loop
      vertex -3 0 50
      vertex -2.42705 1.76336 25
      vertex -2.42705 1.76336 50
    endloop
  endfacet
  facet normal 0.951057 -0.309017 0
    outer loop
      vertex -2.42705 1.76336 25
      vertex -3 0 50
      vertex -3 0 25
    endloop
  endfacet
  facet normal 0 0 1
    outer loop
      vertex 2.42705 1.76336 25
      vertex 2.42705 -1.76336 25
      vertex 3 0 25
    endloop
  endfacet
  facet normal 0 0 1
    outer loop
      vertex 0.927051 2.85317 25
      vertex 2.42705 -1.76336 25
      vertex 2.42705 1.76336 25
    endloop
  endfacet
  facet normal 0 0 1
    outer loop
      vertex 0.927051 2.85317 25
      vertex 0.927051 -2.85317 25
      vertex 2.42705 -1.76336 25
    endloop
  endfacet
  facet normal -0 0 1
    outer loop
      vertex -0.927051 2.85317 25
      vertex 0.927051 -2.85317 25
      vertex 0.927051 2.85317 25
    endloop
  endfacet
  facet normal 0 0 1
    outer loop
      vertex -0.927051 2.85317 25
      vertex -0.927051 -2.85317 25
      vertex 0.927051 -2.85317 25
    endloop
  endfacet
  facet normal -0 0 1
    outer loop
      vertex -2.42705 1.76336 25
      vertex -0.927051 -2.85317 25
      vertex -0.927051 2.85317 25
    endloop
  endfacet
  facet normal 0 0 1
    outer loop
      vertex -2.42705 1.76336 25
      vertex -2.42705 -1.76336 25
      vertex -0.927051 -2.85317 25
    endloop
  endfacet
  facet normal 0 -0 1
    outer loop
      vertex -2.42705 -1.76336 25
      vertex -2.42705 1.76336 25
      vertex -3 0 25
    endloop
  endfacet
  facet normal -0.309232 0 -0.950987
    outer loop
      vertex 5.46352 -8.5 11.0734
      vertex 5.22057 -8.5 11.1524
      vertex 5.46352 -8.32348 11.0734
    endloop
  endfacet
  facet normal -0.309015 0 -0.951057
    outer loop
      vertex 3.78648 -11.5 11.6183
      vertex 5.46352 -10 11.0734
      vertex 5.46352 -11.5 11.0734
    endloop
  endfacet
  facet normal -0.309015 0 -0.951057
    outer loop
      vertex 5.46352 -10 11.0734
      vertex 3.78648 -11.5 11.6183
      vertex 3.78648 -10 11.6183
    endloop
  endfacet
  facet normal -0.309016 0 0.951057
    outer loop
      vertex 4.54452 -6.58387 13.628
      vertex 5.46352 -8.5 13.9266
      vertex 5.46352 -5.7697 13.9266
    endloop
  endfacet
  facet normal -0.309015 5.46113e-07 0.951057
    outer loop
      vertex 3.78648 -6.98172 13.3817
      vertex 5.46352 -8.5 13.9266
      vertex 4.54452 -6.58387 13.628
    endloop
  endfacet
  facet normal -0.309015 0 0.951057
    outer loop
      vertex 5.46352 -8.5 13.9266
      vertex 3.78648 -6.98172 13.3817
      vertex 3.78648 -8.5 13.3817
    endloop
  endfacet
  facet normal -0.309015 0 0.951057
    outer loop
      vertex 3.78648 -10 13.3817
      vertex 5.46352 -11.5 13.9266
      vertex 5.46352 -10 13.9266
    endloop
  endfacet
  facet normal -0.309015 0 0.951057
    outer loop
      vertex 5.46352 -11.5 13.9266
      vertex 3.78648 -10 13.3817
      vertex 3.78648 -11.5 13.3817
    endloop
  endfacet
  facet normal 0.809023 0 0.587776
    outer loop
      vertex 5.98809 -5.30498 13.2046
      vertex 6.5 -7.57044 12.5
      vertex 6.5 -4.56334 12.5
    endloop
  endfacet
  facet normal 0.809015 -5.35826e-06 0.587788
    outer loop
      vertex 5.46352 -5.7697 13.9266
      vertex 6.5 -7.57044 12.5
      vertex 5.98809 -5.30498 13.2046
    endloop
  endfacet
  facet normal 0.809018 -0 0.587783
    outer loop
      vertex 5.46352 -8.5 13.9266
      vertex 6.5 -7.57044 12.5
      vertex 5.46352 -5.7697 13.9266
    endloop
  endfacet
  facet normal 0.809018 0 0.587783
    outer loop
      vertex 6.5 -7.57044 12.5
      vertex 5.46352 -8.5 13.9266
      vertex 6.5 -8.5 12.5
    endloop
  endfacet
  facet normal 0.809018 -0 0.587783
    outer loop
      vertex 5.46352 -11.5 13.9266
      vertex 6.5 -10 12.5
      vertex 5.46352 -10 13.9266
    endloop
  endfacet
  facet normal 0.809018 0 0.587783
    outer loop
      vertex 6.5 -10 12.5
      vertex 5.46352 -11.5 13.9266
      vertex 6.5 -11.5 12.5
    endloop
  endfacet
  facet normal -1 0 0
    outer loop
      vertex 3.78648 -8.5 12.5
      vertex 3.78648 -6.98172 13.3817
      vertex 3.78648 -6.98172 12.5
    endloop
  endfacet
  facet normal -1 -0 0
    outer loop
      vertex 3.78648 -6.98172 13.3817
      vertex 3.78648 -8.5 12.5
      vertex 3.78648 -8.5 13.3817
    endloop
  endfacet
  facet normal -1 0 0
    outer loop
      vertex 3.78648 -11.5 11.6183
      vertex 3.78648 -10 13.3817
      vertex 3.78648 -10 11.6183
    endloop
  endfacet
  facet normal -1 -0 0
    outer loop
      vertex 3.78648 -10 13.3817
      vertex 3.78648 -11.5 11.6183
      vertex 3.78648 -11.5 13.3817
    endloop
  endfacet
  facet normal 0.809018 0 -0.587783
    outer loop
      vertex 6.5 -8.5 12.5
      vertex 5.46352 -8.32348 11.0734
      vertex 6.5 -7.57044 12.5
    endloop
  endfacet
  facet normal 0.809018 0 -0.587783
    outer loop
      vertex 5.46352 -8.32348 11.0734
      vertex 6.5 -8.5 12.5
      vertex 5.46352 -8.5 11.0734
    endloop
  endfacet
  facet normal 0.809018 0 -0.587783
    outer loop
      vertex 6.5 -11.5 12.5
      vertex 5.46352 -10 11.0734
      vertex 6.5 -10 12.5
    endloop
  endfacet
  facet normal 0.809018 0 -0.587783
    outer loop
      vertex 5.46352 -10 11.0734
      vertex 6.5 -11.5 12.5
      vertex 5.46352 -11.5 11.0734
    endloop
  endfacet
  facet normal 0 -1 0
    outer loop
      vertex 3.78648 -11.5 13.3817
      vertex 6.5 -11.5 12.5
      vertex 5.46352 -11.5 13.9266
    endloop
  endfacet
  facet normal 0 -1 0
    outer loop
      vertex 3.78648 -11.5 11.6183
      vertex 6.5 -11.5 12.5
      vertex 3.78648 -11.5 13.3817
    endloop
  endfacet
  facet normal 0 -1 0
    outer loop
      vertex 6.5 -11.5 12.5
      vertex 3.78648 -11.5 11.6183
      vertex 5.46352 -11.5 11.0734
    endloop
  endfacet
  facet normal 0 0 -1
    outer loop
      vertex 6.25 -10 10.3349
      vertex 5.22057 -8.5 10.3349
      vertex 6.25 -8.5 10.3349
    endloop
  endfacet
  facet normal 0 0 -1
    outer loop
      vertex 6.25 -10 10.3349
      vertex 5 -8.66025 10.3349
      vertex 5.22057 -8.5 10.3349
    endloop
  endfacet
  facet normal 0 0 -1
    outer loop
      vertex 3.75 -10 10.3349
      vertex 5 -8.66025 10.3349
      vertex 6.25 -10 10.3349
    endloop
  endfacet
  facet normal 0 0 -1
    outer loop
      vertex 5 -8.66025 10.3349
      vertex 3.75 -10 10.3349
      vertex 3.75 -9.21679 10.3349
    endloop
  endfacet
  facet normal 0.866029 0 -0.499994
    outer loop
      vertex 7.5 -10 12.5
      vertex 6.25 -8.5 10.3349
      vertex 7.5 -8.5 12.5
    endloop
  endfacet
  facet normal 0.866029 0 -0.499994
    outer loop
      vertex 6.25 -8.5 10.3349
      vertex 7.5 -10 12.5
      vertex 6.25 -10 10.3349
    endloop
  endfacet
  facet normal -0 0 1
    outer loop
      vertex 3.75 -8.5 14.6651
      vertex 6.25 -10 14.6651
      vertex 6.25 -8.5 14.6651
    endloop
  endfacet
  facet normal 0 0 1
    outer loop
      vertex 6.25 -10 14.6651
      vertex 3.75 -8.5 14.6651
      vertex 3.75 -10 14.6651
    endloop
  endfacet
  facet normal 0.866029 -0 0.499994
    outer loop
      vertex 6.25 -10 14.6651
      vertex 7.5 -8.5 12.5
      vertex 6.25 -8.5 14.6651
    endloop
  endfacet
  facet normal 0.866029 0 0.499994
    outer loop
      vertex 7.5 -8.5 12.5
      vertex 6.25 -10 14.6651
      vertex 7.5 -10 12.5
    endloop
  endfacet
  facet normal -0.866029 0 0.499994
    outer loop
      vertex 2.5 -9.5 12.5
      vertex 3.75 -8.5 14.6651
      vertex 2.5 -8.5 12.5
    endloop
  endfacet
  facet normal -0.866029 0 0.499994
    outer loop
      vertex 3.75 -10 14.6651
      vertex 2.5 -9.5 12.5
      vertex 2.5 -10 12.5
    endloop
  endfacet
  facet normal -0.866029 0 0.499994
    outer loop
      vertex 2.5 -9.5 12.5
      vertex 3.75 -10 14.6651
      vertex 3.75 -8.5 14.6651
    endloop
  endfacet
  facet normal -0.866034 0 -0.499986
    outer loop
      vertex 3.75 -10 10.3349
      vertex 3.1139 -9.5 11.4367
      vertex 3.75 -9.21679 10.3349
    endloop
  endfacet
  facet normal -0.866029 2.39117e-05 -0.499994
    outer loop
      vertex 2.5 -10 12.5
      vertex 3.1139 -9.5 11.4367
      vertex 3.75 -10 10.3349
    endloop
  endfacet
  facet normal -0.866024 0 -0.500002
    outer loop
      vertex 3.1139 -9.5 11.4367
      vertex 2.5 -10 12.5
      vertex 2.5 -9.5 12.5
    endloop
  endfacet
  facet normal 0 -1 0
    outer loop
      vertex 3.75 -10 14.6651
      vertex 5.46352 -10 13.9266
      vertex 6.25 -10 14.6651
    endloop
  endfacet
  facet normal 0 -1 0
    outer loop
      vertex 3.75 -10 14.6651
      vertex 3.78648 -10 13.3817
      vertex 5.46352 -10 13.9266
    endloop
  endfacet
  facet normal 0 -1 0
    outer loop
      vertex 2.5 -10 12.5
      vertex 3.78648 -10 13.3817
      vertex 3.75 -10 14.6651
    endloop
  endfacet
  facet normal 0 -1 0
    outer loop
      vertex 2.5 -10 12.5
      vertex 3.78648 -10 11.6183
      vertex 3.78648 -10 13.3817
    endloop
  endfacet
  facet normal 0 -1 -0
    outer loop
      vertex 3.78648 -10 11.6183
      vertex 3.75 -10 10.3349
      vertex 5.46352 -10 11.0734
    endloop
  endfacet
  facet normal 0 -1 0
    outer loop
      vertex 3.75 -10 10.3349
      vertex 3.78648 -10 11.6183
      vertex 2.5 -10 12.5
    endloop
  endfacet
  facet normal 0 -1 0
    outer loop
      vertex 6.5 -10 12.5
      vertex 6.25 -10 14.6651
      vertex 5.46352 -10 13.9266
    endloop
  endfacet
  facet normal 0 -1 0
    outer loop
      vertex 6.5 -10 12.5
      vertex 7.5 -10 12.5
      vertex 6.25 -10 14.6651
    endloop
  endfacet
  facet normal 0 -1 0
    outer loop
      vertex 6.25 -10 10.3349
      vertex 6.5 -10 12.5
      vertex 5.46352 -10 11.0734
    endloop
  endfacet
  facet normal 0 -1 -0
    outer loop
      vertex 6.5 -10 12.5
      vertex 6.25 -10 10.3349
      vertex 7.5 -10 12.5
    endloop
  endfacet
  facet normal 0 -1 0
    outer loop
      vertex 6.25 -10 10.3349
      vertex 5.46352 -10 11.0734
      vertex 3.75 -10 10.3349
    endloop
  endfacet
  facet normal 0 1 0
    outer loop
      vertex 6.25 -8.5 14.6651
      vertex 5.46352 -8.5 13.9266
      vertex 3.75 -8.5 14.6651
    endloop
  endfacet
  facet normal 0 1 -0
    outer loop
      vertex 6.5 -8.5 12.5
      vertex 6.25 -8.5 14.6651
      vertex 7.5 -8.5 12.5
    endloop
  endfacet
  facet normal 0 1 0
    outer loop
      vertex 6.25 -8.5 14.6651
      vertex 6.5 -8.5 12.5
      vertex 5.46352 -8.5 13.9266
    endloop
  endfacet
  facet normal 0 1 0
    outer loop
      vertex 6.25 -8.5 10.3349
      vertex 6.5 -8.5 12.5
      vertex 7.5 -8.5 12.5
    endloop
  endfacet
  facet normal 0 1 0
    outer loop
      vertex 6.5 -8.5 12.5
      vertex 6.25 -8.5 10.3349
      vertex 5.46352 -8.5 11.0734
    endloop
  endfacet
  facet normal 0 1 -0
    outer loop
      vertex 3.78648 -8.5 13.3817
      vertex 3.75 -8.5 14.6651
      vertex 5.46352 -8.5 13.9266
    endloop
  endfacet
  facet normal 0 1 0
    outer loop
      vertex 2.5 -8.5 12.5
      vertex 3.78648 -8.5 13.3817
      vertex 3.78648 -8.5 12.5
    endloop
  endfacet
  facet normal 0 1 0
    outer loop
      vertex 3.78648 -8.5 13.3817
      vertex 2.5 -8.5 12.5
      vertex 3.75 -8.5 14.6651
    endloop
  endfacet
  facet normal 0 1 0
    outer loop
      vertex 5.22057 -8.5 10.3349
      vertex 5.46352 -8.5 11.0734
      vertex 6.25 -8.5 10.3349
    endloop
  endfacet
  facet normal 0 1 0
    outer loop
      vertex 5.46352 -8.5 11.0734
      vertex 5.22057 -8.5 10.3349
      vertex 5.22057 -8.5 11.1524
    endloop
  endfacet
  facet normal -0.309016 0 -0.951057
    outer loop
      vertex 5.46352 -8.5 36.0734
      vertex 4.54452 -6.58387 36.372
      vertex 5.46352 -5.7697 36.0734
    endloop
  endfacet
  facet normal -0.309015 -0 -0.951057
    outer loop
      vertex 3.78648 -6.98172 36.6183
      vertex 5.46352 -8.5 36.0734
      vertex 3.78648 -8.5 36.6183
    endloop
  endfacet
  facet normal -0.309015 5.46113e-07 -0.951057
    outer loop
      vertex 5.46352 -8.5 36.0734
      vertex 3.78648 -6.98172 36.6183
      vertex 4.54452 -6.58387 36.372
    endloop
  endfacet
  facet normal -0.309015 0 -0.951057
    outer loop
      vertex 3.78648 -11.5 36.6183
      vertex 5.46352 -10 36.0734
      vertex 5.46352 -11.5 36.0734
    endloop
  endfacet
  facet normal -0.309015 0 -0.951057
    outer loop
      vertex 5.46352 -10 36.0734
      vertex 3.78648 -11.5 36.6183
      vertex 3.78648 -10 36.6183
    endloop
  endfacet
  facet normal -0.309232 0 0.950987
    outer loop
      vertex 5.46352 -8.32348 38.9266
      vertex 5.22057 -8.5 38.8476
      vertex 5.46352 -8.5 38.9266
    endloop
  endfacet
  facet normal -0.309015 0 0.951057
    outer loop
      vertex 3.78648 -10 38.3817
      vertex 5.46352 -11.5 38.9266
      vertex 5.46352 -10 38.9266
    endloop
  endfacet
  facet normal -0.309015 0 0.951057
    outer loop
      vertex 5.46352 -11.5 38.9266
      vertex 3.78648 -10 38.3817
      vertex 3.78648 -11.5 38.3817
    endloop
  endfacet
  facet normal 0.809018 0 0.587783
    outer loop
      vertex 6.5 -8.5 37.5
      vertex 5.46352 -8.32348 38.9266
      vertex 5.46352 -8.5 38.9266
    endloop
  endfacet
  facet normal 0.809018 0 0.587783
    outer loop
      vertex 5.46352 -8.32348 38.9266
      vertex 6.5 -8.5 37.5
      vertex 6.5 -7.57044 37.5
    endloop
  endfacet
  facet normal 0.809018 -0 0.587783
    outer loop
      vertex 5.46352 -11.5 38.9266
      vertex 6.5 -10 37.5
      vertex 5.46352 -10 38.9266
    endloop
  endfacet
  facet normal 0.809018 0 0.587783
    outer loop
      vertex 6.5 -10 37.5
      vertex 5.46352 -11.5 38.9266
      vertex 6.5 -11.5 37.5
    endloop
  endfacet
  facet normal -1 0 0
    outer loop
      vertex 3.78648 -8.5 36.6183
      vertex 3.78648 -6.98172 37.5
      vertex 3.78648 -6.98172 36.6183
    endloop
  endfacet
  facet normal -1 -0 0
    outer loop
      vertex 3.78648 -6.98172 37.5
      vertex 3.78648 -8.5 36.6183
      vertex 3.78648 -8.5 37.5
    endloop
  endfacet
  facet normal -1 0 0
    outer loop
      vertex 3.78648 -11.5 36.6183
      vertex 3.78648 -10 38.3817
      vertex 3.78648 -10 36.6183
    endloop
  endfacet
  facet normal -1 -0 0
    outer loop
      vertex 3.78648 -10 38.3817
      vertex 3.78648 -11.5 36.6183
      vertex 3.78648 -11.5 38.3817
    endloop
  endfacet
  facet normal 0.809023 0 -0.587776
    outer loop
      vertex 6.5 -7.57044 37.5
      vertex 5.98809 -5.30498 36.7954
      vertex 6.5 -4.56334 37.5
    endloop
  endfacet
  facet normal 0.809015 -5.35826e-06 -0.587788
    outer loop
      vertex 6.5 -7.57044 37.5
      vertex 5.46352 -5.7697 36.0734
      vertex 5.98809 -5.30498 36.7954
    endloop
  endfacet
  facet normal 0.809018 0 -0.587783
    outer loop
      vertex 5.46352 -8.5 36.0734
      vertex 6.5 -7.57044 37.5
      vertex 6.5 -8.5 37.5
    endloop
  endfacet
  facet normal 0.809018 0 -0.587783
    outer loop
      vertex 6.5 -7.57044 37.5
      vertex 5.46352 -8.5 36.0734
      vertex 5.46352 -5.7697 36.0734
    endloop
  endfacet
  facet normal 0.809018 0 -0.587783
    outer loop
      vertex 6.5 -11.5 37.5
      vertex 5.46352 -10 36.0734
      vertex 6.5 -10 37.5
    endloop
  endfacet
  facet normal 0.809018 0 -0.587783
    outer loop
      vertex 5.46352 -10 36.0734
      vertex 6.5 -11.5 37.5
      vertex 5.46352 -11.5 36.0734
    endloop
  endfacet
  facet normal 0 -1 0
    outer loop
      vertex 3.78648 -11.5 38.3817
      vertex 6.5 -11.5 37.5
      vertex 5.46352 -11.5 38.9266
    endloop
  endfacet
  facet normal 0 -1 0
    outer loop
      vertex 3.78648 -11.5 36.6183
      vertex 6.5 -11.5 37.5
      vertex 3.78648 -11.5 38.3817
    endloop
  endfacet
  facet normal 0 -1 0
    outer loop
      vertex 6.5 -11.5 37.5
      vertex 3.78648 -11.5 36.6183
      vertex 5.46352 -11.5 36.0734
    endloop
  endfacet
  facet normal 0 0 -1
    outer loop
      vertex 3.75 -10 35.3349
      vertex 6.25 -8.5 35.3349
      vertex 6.25 -10 35.3349
    endloop
  endfacet
  facet normal -0 0 -1
    outer loop
      vertex 6.25 -8.5 35.3349
      vertex 3.75 -10 35.3349
      vertex 3.75 -8.5 35.3349
    endloop
  endfacet
  facet normal 0.866029 0 -0.499994
    outer loop
      vertex 7.5 -10 37.5
      vertex 6.25 -8.5 35.3349
      vertex 7.5 -8.5 37.5
    endloop
  endfacet
  facet normal 0.866029 0 -0.499994
    outer loop
      vertex 6.25 -8.5 35.3349
      vertex 7.5 -10 37.5
      vertex 6.25 -10 35.3349
    endloop
  endfacet
  facet normal -0 0 1
    outer loop
      vertex 5.22057 -8.5 39.6651
      vertex 6.25 -10 39.6651
      vertex 6.25 -8.5 39.6651
    endloop
  endfacet
  facet normal -0 0 1
    outer loop
      vertex 5 -8.66025 39.6651
      vertex 6.25 -10 39.6651
      vertex 5.22057 -8.5 39.6651
    endloop
  endfacet
  facet normal 0 0 1
    outer loop
      vertex 3.75 -10 39.6651
      vertex 5 -8.66025 39.6651
      vertex 3.75 -9.21679 39.6651
    endloop
  endfacet
  facet normal 0 0 1
    outer loop
      vertex 5 -8.66025 39.6651
      vertex 3.75 -10 39.6651
      vertex 6.25 -10 39.6651
    endloop
  endfacet
  facet normal 0.866029 -0 0.499994
    outer loop
      vertex 6.25 -10 39.6651
      vertex 7.5 -8.5 37.5
      vertex 6.25 -8.5 39.6651
    endloop
  endfacet
  facet normal 0.866029 0 0.499994
    outer loop
      vertex 7.5 -8.5 37.5
      vertex 6.25 -10 39.6651
      vertex 7.5 -10 37.5
    endloop
  endfacet
  facet normal -0.866024 0 0.500002
    outer loop
      vertex 2.5 -9.5 37.5
      vertex 2.5 -10 37.5
      vertex 3.1139 -9.5 38.5633
    endloop
  endfacet
  facet normal -0.866029 2.39117e-05 0.499994
    outer loop
      vertex 3.75 -10 39.6651
      vertex 3.1139 -9.5 38.5633
      vertex 2.5 -10 37.5
    endloop
  endfacet
  facet normal -0.866034 0 0.499986
    outer loop
      vertex 3.1139 -9.5 38.5633
      vertex 3.75 -10 39.6651
      vertex 3.75 -9.21679 39.6651
    endloop
  endfacet
  facet normal -0.866029 0 -0.499994
    outer loop
      vertex 3.75 -8.5 35.3349
      vertex 2.5 -9.5 37.5
      vertex 2.5 -8.5 37.5
    endloop
  endfacet
  facet normal -0.866029 0 -0.499994
    outer loop
      vertex 3.75 -10 35.3349
      vertex 2.5 -9.5 37.5
      vertex 3.75 -8.5 35.3349
    endloop
  endfacet
  facet normal -0.866029 -0 -0.499994
    outer loop
      vertex 2.5 -9.5 37.5
      vertex 3.75 -10 35.3349
      vertex 2.5 -10 37.5
    endloop
  endfacet
  facet normal 0 -1 0
    outer loop
      vertex 3.75 -10 39.6651
      vertex 5.46352 -10 38.9266
      vertex 6.25 -10 39.6651
    endloop
  endfacet
  facet normal 0 -1 0
    outer loop
      vertex 3.75 -10 39.6651
      vertex 3.78648 -10 38.3817
      vertex 5.46352 -10 38.9266
    endloop
  endfacet
  facet normal 0 -1 0
    outer loop
      vertex 2.5 -10 37.5
      vertex 3.78648 -10 38.3817
      vertex 3.75 -10 39.6651
    endloop
  endfacet
  facet normal 0 -1 0
    outer loop
      vertex 2.5 -10 37.5
      vertex 3.78648 -10 36.6183
      vertex 3.78648 -10 38.3817
    endloop
  endfacet
  facet normal 0 -1 -0
    outer loop
      vertex 3.78648 -10 36.6183
      vertex 3.75 -10 35.3349
      vertex 5.46352 -10 36.0734
    endloop
  endfacet
  facet normal 0 -1 0
    outer loop
      vertex 3.75 -10 35.3349
      vertex 3.78648 -10 36.6183
      vertex 2.5 -10 37.5
    endloop
  endfacet
  facet normal 0 -1 0
    outer loop
      vertex 6.5 -10 37.5
      vertex 6.25 -10 39.6651
      vertex 5.46352 -10 38.9266
    endloop
  endfacet
  facet normal 0 -1 0
    outer loop
      vertex 6.5 -10 37.5
      vertex 7.5 -10 37.5
      vertex 6.25 -10 39.6651
    endloop
  endfacet
  facet normal 0 -1 0
    outer loop
      vertex 6.25 -10 35.3349
      vertex 6.5 -10 37.5
      vertex 5.46352 -10 36.0734
    endloop
  endfacet
  facet normal 0 -1 -0
    outer loop
      vertex 6.5 -10 37.5
      vertex 6.25 -10 35.3349
      vertex 7.5 -10 37.5
    endloop
  endfacet
  facet normal 0 -1 0
    outer loop
      vertex 6.25 -10 35.3349
      vertex 5.46352 -10 36.0734
      vertex 3.75 -10 35.3349
    endloop
  endfacet
  facet normal 0 1 0
    outer loop
      vertex 6.25 -8.5 39.6651
      vertex 5.46352 -8.5 38.9266
      vertex 5.22057 -8.5 39.6651
    endloop
  endfacet
  facet normal 0 1 -0
    outer loop
      vertex 6.5 -8.5 37.5
      vertex 6.25 -8.5 39.6651
      vertex 7.5 -8.5 37.5
    endloop
  endfacet
  facet normal 0 1 0
    outer loop
      vertex 6.25 -8.5 39.6651
      vertex 6.5 -8.5 37.5
      vertex 5.46352 -8.5 38.9266
    endloop
  endfacet
  facet normal 0 1 0
    outer loop
      vertex 6.25 -8.5 35.3349
      vertex 6.5 -8.5 37.5
      vertex 7.5 -8.5 37.5
    endloop
  endfacet
  facet normal 0 1 0
    outer loop
      vertex 6.5 -8.5 37.5
      vertex 6.25 -8.5 35.3349
      vertex 5.46352 -8.5 36.0734
    endloop
  endfacet
  facet normal 0 1 0
    outer loop
      vertex 5.22057 -8.5 39.6651
      vertex 5.46352 -8.5 38.9266
      vertex 5.22057 -8.5 38.8476
    endloop
  endfacet
  facet normal 0 1 -0
    outer loop
      vertex 3.78648 -8.5 36.6183
      vertex 2.5 -8.5 37.5
      vertex 3.78648 -8.5 37.5
    endloop
  endfacet
  facet normal 0 1 0
    outer loop
      vertex 3.75 -8.5 35.3349
      vertex 5.46352 -8.5 36.0734
      vertex 6.25 -8.5 35.3349
    endloop
  endfacet
  facet normal 0 1 0
    outer loop
      vertex 3.78648 -8.5 36.6183
      vertex 3.75 -8.5 35.3349
      vertex 2.5 -8.5 37.5
    endloop
  endfacet
  facet normal 0 1 0
    outer loop
      vertex 5.46352 -8.5 36.0734
      vertex 3.75 -8.5 35.3349
      vertex 3.78648 -8.5 36.6183
    endloop
  endfacet
endsolid OpenSCAD_Model
