solid OpenSCAD_Model
  facet normal 0 0 1
    outer loop
      vertex -10.9625 5.11916 3
      vertex 10.9625 5.11916 3
      vertex 1.25434 21.9343 3
    endloop
  endfacet
  facet normal 0 0 1
    outer loop
      vertex -10.9625 5.11916 3
      vertex 1.25434 21.9343 3
      vertex -1.25434 21.9343 3
    endloop
  endfacet
  facet normal 0 0 1
    outer loop
      vertex 10.9625 5.11916 3
      vertex -10.9625 5.11916 3
      vertex 2 -5 3
    endloop
  endfacet
  facet normal 0 0 1
    outer loop
      vertex -10.9625 5.11916 3
      vertex -1.25434 21.9343 3
      vertex -3.7082 21.4127 3
    endloop
  endfacet
  facet normal 0 0 1
    outer loop
      vertex 2 -5 3
      vertex -10.9625 5.11916 3
      vertex -2 -5 3
    endloop
  endfacet
  facet normal 0 -0 1
    outer loop
      vertex -5 -10 3
      vertex -2 -5 3
      vertex -10.9625 5.11916 3
    endloop
  endfacet
  facet normal 0 0 1
    outer loop
      vertex -10.9625 5.11916 3
      vertex -3.7082 21.4127 3
      vertex -6 20.3923 3
    endloop
  endfacet
  facet normal 0 0 1
    outer loop
      vertex -10.9625 5.11916 3
      vertex -6 20.3923 3
      vertex -8.02957 18.9177 3
    endloop
  endfacet
  facet normal 0 0 1
    outer loop
      vertex -10.9625 5.11916 3
      vertex -8.02957 18.9177 3
      vertex -9.7082 17.0534 3
    endloop
  endfacet
  facet normal 0 0 1
    outer loop
      vertex -10.9625 5.11916 3
      vertex -9.7082 17.0534 3
      vertex -10.9625 14.8808 3
    endloop
  endfacet
  facet normal 0 0 1
    outer loop
      vertex -2 -5 3
      vertex -5 -10 3
      vertex -2 -10 3
    endloop
  endfacet
  facet normal -0 0 1
    outer loop
      vertex -11.7378 12.4949 3
      vertex -10.9625 5.11916 3
      vertex -10.9625 14.8808 3
    endloop
  endfacet
  facet normal 0 0 1
    outer loop
      vertex -11.7378 12.4949 3
      vertex -11.7378 7.50506 3
      vertex -10.9625 5.11916 3
    endloop
  endfacet
  facet normal 0 -0 1
    outer loop
      vertex -11.7378 7.50506 3
      vertex -11.7378 12.4949 3
      vertex -12 10 3
    endloop
  endfacet
  facet normal 0 0 1
    outer loop
      vertex 11.7378 12.4949 3
      vertex 11.7378 7.50506 3
      vertex 12 10 3
    endloop
  endfacet
  facet normal 0 0 1
    outer loop
      vertex 10.9625 14.8808 3
      vertex 11.7378 7.50506 3
      vertex 11.7378 12.4949 3
    endloop
  endfacet
  facet normal 0 0 1
    outer loop
      vertex 10.9625 14.8808 3
      vertex 10.9625 5.11916 3
      vertex 11.7378 7.50506 3
    endloop
  endfacet
  facet normal 0 0 1
    outer loop
      vertex 9.7082 17.0534 3
      vertex 10.9625 5.11916 3
      vertex 10.9625 14.8808 3
    endloop
  endfacet
  facet normal 0 0 1
    outer loop
      vertex 8.02957 18.9177 3
      vertex 10.9625 5.11916 3
      vertex 9.7082 17.0534 3
    endloop
  endfacet
  facet normal 0 0 1
    outer loop
      vertex 6 20.3923 3
      vertex 10.9625 5.11916 3
      vertex 8.02957 18.9177 3
    endloop
  endfacet
  facet normal 0 0 1
    outer loop
      vertex 3.7082 21.4127 3
      vertex 10.9625 5.11916 3
      vertex 6 20.3923 3
    endloop
  endfacet
  facet normal 0 0 1
    outer loop
      vertex 1.25434 21.9343 3
      vertex 10.9625 5.11916 3
      vertex 3.7082 21.4127 3
    endloop
  endfacet
  facet normal 0 0 1
    outer loop
      vertex 10.9625 5.11916 3
      vertex 2 -5 3
      vertex 5 -10 3
    endloop
  endfacet
  facet normal 0 0 1
    outer loop
      vertex 5 -10 3
      vertex 2 -5 3
      vertex 2 -10 3
    endloop
  endfacet
  facet normal -0.587793 0.809011 0
    outer loop
      vertex -6 20.3923 0
      vertex -8.02957 18.9177 3
      vertex -6 20.3923 3
    endloop
  endfacet
  facet normal -0.587793 0.809011 0
    outer loop
      vertex -8.02957 18.9177 3
      vertex -6 20.3923 0
      vertex -8.02957 18.9177 0
    endloop
  endfacet
  facet normal -0.994523 -0.104517 0
    outer loop
      vertex -11.7378 7.50506 0
      vertex -12 10 3
      vertex -12 10 0
    endloop
  endfacet
  facet normal -0.994523 -0.104517 0
    outer loop
      vertex -12 10 3
      vertex -11.7378 7.50506 0
      vertex -11.7378 7.50506 3
    endloop
  endfacet
  facet normal 0.951048 -0.309044 0
    outer loop
      vertex 10.9625 5.11916 3
      vertex 11.7378 7.50506 0
      vertex 11.7378 7.50506 3
    endloop
  endfacet
  facet normal 0.951048 -0.309044 0
    outer loop
      vertex 11.7378 7.50506 0
      vertex 10.9625 5.11916 3
      vertex 10.9625 5.11916 0
    endloop
  endfacet
  facet normal 0.406745 0.913542 -0
    outer loop
      vertex 6 20.3923 0
      vertex 3.7082 21.4127 3
      vertex 6 20.3923 3
    endloop
  endfacet
  facet normal 0.406745 0.913542 0
    outer loop
      vertex 3.7082 21.4127 3
      vertex 6 20.3923 0
      vertex 3.7082 21.4127 0
    endloop
  endfacet
  facet normal -0.866034 0.499985 0
    outer loop
      vertex -10.9625 14.8808 0
      vertex -9.7082 17.0534 3
      vertex -9.7082 17.0534 0
    endloop
  endfacet
  facet normal -0.866034 0.499985 0
    outer loop
      vertex -9.7082 17.0534 3
      vertex -10.9625 14.8808 0
      vertex -10.9625 14.8808 3
    endloop
  endfacet
  facet normal 0.743143 0.669132 0
    outer loop
      vertex 9.7082 17.0534 3
      vertex 8.02957 18.9177 0
      vertex 8.02957 18.9177 3
    endloop
  endfacet
  facet normal 0.743143 0.669132 0
    outer loop
      vertex 8.02957 18.9177 0
      vertex 9.7082 17.0534 3
      vertex 9.7082 17.0534 0
    endloop
  endfacet
  facet normal -0.994523 0.104519 0
    outer loop
      vertex -12 10 0
      vertex -11.7378 12.4949 3
      vertex -11.7378 12.4949 0
    endloop
  endfacet
  facet normal -0.994523 0.104519 0
    outer loop
      vertex -11.7378 12.4949 3
      vertex -12 10 0
      vertex -12 10 3
    endloop
  endfacet
  facet normal 0 -1 0
    outer loop
      vertex -5 -10 0
      vertex -2 -10 3
      vertex -5 -10 3
    endloop
  endfacet
  facet normal 0 -1 -0
    outer loop
      vertex -2 -10 3
      vertex -5 -10 0
      vertex -2 -10 0
    endloop
  endfacet
  facet normal 0 -1 0
    outer loop
      vertex 2 -10 0
      vertex 5 -10 3
      vertex 2 -10 3
    endloop
  endfacet
  facet normal 0 -1 -0
    outer loop
      vertex 5 -10 3
      vertex 2 -10 0
      vertex 5 -10 0
    endloop
  endfacet
  facet normal -0.951048 -0.309044 0
    outer loop
      vertex -10.9625 5.11916 0
      vertex -11.7378 7.50506 3
      vertex -11.7378 7.50506 0
    endloop
  endfacet
  facet normal -0.951048 -0.309044 0
    outer loop
      vertex -11.7378 7.50506 3
      vertex -10.9625 5.11916 0
      vertex -10.9625 5.11916 3
    endloop
  endfacet
  facet normal -0.207918 0.978146 0
    outer loop
      vertex -1.25434 21.9343 0
      vertex -3.7082 21.4127 3
      vertex -1.25434 21.9343 3
    endloop
  endfacet
  facet normal -0.207918 0.978146 0
    outer loop
      vertex -3.7082 21.4127 3
      vertex -1.25434 21.9343 0
      vertex -3.7082 21.4127 0
    endloop
  endfacet
  facet normal 0.587793 0.809011 -0
    outer loop
      vertex 8.02957 18.9177 0
      vertex 6 20.3923 3
      vertex 8.02957 18.9177 3
    endloop
  endfacet
  facet normal 0.587793 0.809011 0
    outer loop
      vertex 6 20.3923 3
      vertex 8.02957 18.9177 0
      vertex 6 20.3923 0
    endloop
  endfacet
  facet normal 0.207918 0.978146 -0
    outer loop
      vertex 3.7082 21.4127 0
      vertex 1.25434 21.9343 3
      vertex 3.7082 21.4127 3
    endloop
  endfacet
  facet normal 0.207918 0.978146 0
    outer loop
      vertex 1.25434 21.9343 3
      vertex 3.7082 21.4127 0
      vertex 1.25434 21.9343 0
    endloop
  endfacet
  facet normal -0.406745 0.913542 0
    outer loop
      vertex -3.7082 21.4127 0
      vertex -6 20.3923 3
      vertex -3.7082 21.4127 3
    endloop
  endfacet
  facet normal -0.406745 0.913542 0
    outer loop
      vertex -6 20.3923 3
      vertex -3.7082 21.4127 0
      vertex -6 20.3923 0
    endloop
  endfacet
  facet normal 0.930273 -0.366869 0
    outer loop
      vertex 5 -10 3
      vertex 10.9625 5.11916 0
      vertex 10.9625 5.11916 3
    endloop
  endfacet
  facet normal 0.930273 -0.366869 0
    outer loop
      vertex 10.9625 5.11916 0
      vertex 5 -10 3
      vertex 5 -10 0
    endloop
  endfacet
  facet normal -0.951048 0.309044 0
    outer loop
      vertex -11.7378 12.4949 0
      vertex -10.9625 14.8808 3
      vertex -10.9625 14.8808 0
    endloop
  endfacet
  facet normal -0.951048 0.309044 0
    outer loop
      vertex -10.9625 14.8808 3
      vertex -11.7378 12.4949 0
      vertex -11.7378 12.4949 3
    endloop
  endfacet
  facet normal 0.951048 0.309044 0
    outer loop
      vertex 11.7378 12.4949 3
      vertex 10.9625 14.8808 0
      vertex 10.9625 14.8808 3
    endloop
  endfacet
  facet normal 0.951048 0.309044 0
    outer loop
      vertex 10.9625 14.8808 0
      vertex 11.7378 12.4949 3
      vertex 11.7378 12.4949 0
    endloop
  endfacet
  facet normal 0 1 -0
    outer loop
      vertex 1.25434 21.9343 0
      vertex -1.25434 21.9343 3
      vertex 1.25434 21.9343 3
    endloop
  endfacet
  facet normal 0 1 0
    outer loop
      vertex -1.25434 21.9343 3
      vertex 1.25434 21.9343 0
      vertex -1.25434 21.9343 0
    endloop
  endfacet
  facet normal 0.994523 -0.104517 0
    outer loop
      vertex 11.7378 7.50506 3
      vertex 12 10 0
      vertex 12 10 3
    endloop
  endfacet
  facet normal 0.994523 -0.104517 0
    outer loop
      vertex 12 10 0
      vertex 11.7378 7.50506 3
      vertex 11.7378 7.50506 0
    endloop
  endfacet
  facet normal 0.994523 0.104519 0
    outer loop
      vertex 12 10 3
      vertex 11.7378 12.4949 0
      vertex 11.7378 12.4949 3
    endloop
  endfacet
  facet normal 0.994523 0.104519 0
    outer loop
      vertex 11.7378 12.4949 0
      vertex 12 10 3
      vertex 12 10 0
    endloop
  endfacet
  facet normal 0 0 -1
    outer loop
      vertex -5 -10 0
      vertex -2 -5 0
      vertex -2 -10 0
    endloop
  endfacet
  facet normal -0 0 -1
    outer loop
      vertex -2 -5 0
      vertex -5 -10 0
      vertex -10.9625 5.11916 0
    endloop
  endfacet
  facet normal 0 0 -1
    outer loop
      vertex -2 -5 0
      vertex -10.9625 5.11916 0
      vertex -3.7082 21.4127 0
    endloop
  endfacet
  facet normal 0 0 -1
    outer loop
      vertex -3.7082 21.4127 0
      vertex -10.9625 5.11916 0
      vertex -6 20.3923 0
    endloop
  endfacet
  facet normal 0 0 -1
    outer loop
      vertex -6 20.3923 0
      vertex -10.9625 5.11916 0
      vertex -8.02957 18.9177 0
    endloop
  endfacet
  facet normal 0 0 -1
    outer loop
      vertex -8.02957 18.9177 0
      vertex -10.9625 5.11916 0
      vertex -9.7082 17.0534 0
    endloop
  endfacet
  facet normal 0 0 -1
    outer loop
      vertex -10.9625 5.11916 0
      vertex -10.9625 14.8808 0
      vertex -9.7082 17.0534 0
    endloop
  endfacet
  facet normal 0 0 -1
    outer loop
      vertex -11.7378 7.50506 0
      vertex -10.9625 14.8808 0
      vertex -10.9625 5.11916 0
    endloop
  endfacet
  facet normal 0 0 -1
    outer loop
      vertex -11.7378 7.50506 0
      vertex -11.7378 12.4949 0
      vertex -10.9625 14.8808 0
    endloop
  endfacet
  facet normal 0 -0 -1
    outer loop
      vertex -11.7378 12.4949 0
      vertex -11.7378 7.50506 0
      vertex -12 10 0
    endloop
  endfacet
  facet normal 0 0 -1
    outer loop
      vertex 11.7378 7.50506 0
      vertex 11.7378 12.4949 0
      vertex 12 10 0
    endloop
  endfacet
  facet normal 0 0 -1
    outer loop
      vertex 10.9625 5.11916 0
      vertex 11.7378 12.4949 0
      vertex 11.7378 7.50506 0
    endloop
  endfacet
  facet normal 0 0 -1
    outer loop
      vertex 10.9625 5.11916 0
      vertex 10.9625 14.8808 0
      vertex 11.7378 12.4949 0
    endloop
  endfacet
  facet normal 0 0 -1
    outer loop
      vertex 10.9625 5.11916 0
      vertex 9.7082 17.0534 0
      vertex 10.9625 14.8808 0
    endloop
  endfacet
  facet normal 0 0 -1
    outer loop
      vertex 10.9625 5.11916 0
      vertex 8.02957 18.9177 0
      vertex 9.7082 17.0534 0
    endloop
  endfacet
  facet normal 0 0 -1
    outer loop
      vertex 10.9625 5.11916 0
      vertex 6 20.3923 0
      vertex 8.02957 18.9177 0
    endloop
  endfacet
  facet normal 0 0 -1
    outer loop
      vertex 2 -5 0
      vertex 10.9625 5.11916 0
      vertex 5 -10 0
    endloop
  endfacet
  facet normal 0 0 -1
    outer loop
      vertex -2 -5 0
      vertex 10.9625 5.11916 0
      vertex 2 -5 0
    endloop
  endfacet
  facet normal 0 0 -1
    outer loop
      vertex 2 -5 0
      vertex 5 -10 0
      vertex 2 -10 0
    endloop
  endfacet
  facet normal 0 0 -1
    outer loop
      vertex -3.7082 21.4127 0
      vertex 10.9625 5.11916 0
      vertex -2 -5 0
    endloop
  endfacet
  facet normal 0 0 -1
    outer loop
      vertex 6 20.3923 0
      vertex -3.7082 21.4127 0
      vertex 3.7082 21.4127 0
    endloop
  endfacet
  facet normal 0 0 -1
    outer loop
      vertex 3.7082 21.4127 0
      vertex -3.7082 21.4127 0
      vertex 1.25434 21.9343 0
    endloop
  endfacet
  facet normal 0 0 -1
    outer loop
      vertex 10.9625 5.11916 0
      vertex -3.7082 21.4127 0
      vertex 6 20.3923 0
    endloop
  endfacet
  facet normal -0 0 -1
    outer loop
      vertex 1.25434 21.9343 0
      vertex -3.7082 21.4127 0
      vertex -1.25434 21.9343 0
    endloop
  endfacet
  facet normal -0.743143 0.669132 0
    outer loop
      vertex -9.7082 17.0534 0
      vertex -8.02957 18.9177 3
      vertex -8.02957 18.9177 0
    endloop
  endfacet
  facet normal -0.743143 0.669132 0
    outer loop
      vertex -8.02957 18.9177 3
      vertex -9.7082 17.0534 0
      vertex -9.7082 17.0534 3
    endloop
  endfacet
  facet normal 0.866034 0.499985 0
    outer loop
      vertex 10.9625 14.8808 3
      vertex 9.7082 17.0534 0
      vertex 9.7082 17.0534 3
    endloop
  endfacet
  facet normal 0.866034 0.499985 0
    outer loop
      vertex 9.7082 17.0534 0
      vertex 10.9625 14.8808 3
      vertex 10.9625 14.8808 0
    endloop
  endfacet
  facet normal -0.930273 -0.366869 0
    outer loop
      vertex -5 -10 0
      vertex -10.9625 5.11916 3
      vertex -10.9625 5.11916 0
    endloop
  endfacet
  facet normal -0.930273 -0.366869 0
    outer loop
      vertex -10.9625 5.11916 3
      vertex -5 -10 0
      vertex -5 -10 3
    endloop
  endfacet
  facet normal -1 0 0
    outer loop
      vertex 2 -10 0
      vertex 2 -5 3
      vertex 2 -5 0
    endloop
  endfacet
  facet normal -1 -0 0
    outer loop
      vertex 2 -5 3
      vertex 2 -10 0
      vertex 2 -10 3
    endloop
  endfacet
  facet normal 1 -0 0
    outer loop
      vertex -2 -10 3
      vertex -2 -5 0
      vertex -2 -5 3
    endloop
  endfacet
  facet normal 1 0 0
    outer loop
      vertex -2 -5 0
      vertex -2 -10 3
      vertex -2 -10 0
    endloop
  endfacet
  facet normal 0 -1 0
    outer loop
      vertex -2 -5 0
      vertex 2 -5 3
      vertex -2 -5 3
    endloop
  endfacet
  facet normal 0 -1 -0
    outer loop
      vertex 2 -5 3
      vertex -2 -5 0
      vertex 2 -5 0
    endloop
  endfacet
endsolid OpenSCAD_Model
