solid OpenSCAD_Model
  facet normal 0 0.975931 0.218081
    outer loop
      vertex 16 32.2513 4.01048
      vertex -12 32.1417 4.50095
      vertex 16 32.1417 4.50095
    endloop
  endfacet
  facet normal 0 0.975931 0.218081
    outer loop
      vertex -12 32.1417 4.50095
      vertex 16 32.2513 4.01048
      vertex -12 32.2513 4.01048
    endloop
  endfacet
  facet normal 0 0.960301 0.278965
    outer loop
      vertex 16 32.3915 3.52786
      vertex -12 32.2513 4.01048
      vertex 16 32.2513 4.01048
    endloop
  endfacet
  facet normal 0 0.960301 0.278965
    outer loop
      vertex -12 32.2513 4.01048
      vertex 16 32.3915 3.52786
      vertex -12 32.3915 3.52786
    endloop
  endfacet
  facet normal 0 0.891059 -0.453887
    outer loop
      vertex 16 32.7614 9.40623
      vertex -12 32.9895 9.85403
      vertex 16 32.9895 9.85403
    endloop
  endfacet
  facet normal 0 0.891059 -0.453887
    outer loop
      vertex -12 32.9895 9.85403
      vertex 16 32.7614 9.40623
      vertex -12 32.7614 9.40623
    endloop
  endfacet
  facet normal 0 0.707179 0.707034
    outer loop
      vertex 16 34.5236 0.16825
      vertex -12 34.1683 0.523623
      vertex 16 34.1683 0.523623
    endloop
  endfacet
  facet normal 0 0.707179 0.707034
    outer loop
      vertex -12 34.1683 0.523623
      vertex 16 34.5236 0.16825
      vertex -12 34.5236 0.16825
    endloop
  endfacet
  facet normal 1 0 0
    outer loop
      vertex -12 34.5236 11.8317
      vertex -12 40 12
      vertex -12 34.7145 12
    endloop
  endfacet
  facet normal 1 0 0
    outer loop
      vertex -12 33.8359 11.0994
      vertex -12 40 12
      vertex -12 34.1683 11.4764
    endloop
  endfacet
  facet normal 1 0 0
    outer loop
      vertex -12 40 12
      vertex -12 34.5236 11.8317
      vertex -12 34.1683 11.4764
    endloop
  endfacet
  facet normal 1 0 0
    outer loop
      vertex -12 33.5279 10.7023
      vertex -12 40 12
      vertex -12 33.8359 11.0994
    endloop
  endfacet
  facet normal 1 -0 -0
    outer loop
      vertex -12 34.5236 0.16825
      vertex -12 40 0
      vertex -12 34.1683 0.523623
    endloop
  endfacet
  facet normal 1 0 0
    outer loop
      vertex -12 40 0
      vertex -12 34.5236 0.16825
      vertex -12 34.7145 0
    endloop
  endfacet
  facet normal 1 0 0
    outer loop
      vertex -12 33.2454 10.2866
      vertex -12 40 12
      vertex -12 33.5279 10.7023
    endloop
  endfacet
  facet normal 1 0 0
    outer loop
      vertex -12 40 0
      vertex -12 33.8359 0.900608
      vertex -12 34.1683 0.523623
    endloop
  endfacet
  facet normal 1 0 0
    outer loop
      vertex -12 32.9895 9.85403
      vertex -12 40 12
      vertex -12 33.2454 10.2866
    endloop
  endfacet
  facet normal 1 0 0
    outer loop
      vertex -12 40 0
      vertex -12 33.5279 1.29772
      vertex -12 33.8359 0.900608
    endloop
  endfacet
  facet normal 1 0 0
    outer loop
      vertex -12 32.7614 9.40623
      vertex -12 40 12
      vertex -12 32.9895 9.85403
    endloop
  endfacet
  facet normal 1 0 0
    outer loop
      vertex -12 40 0
      vertex -12 33.2454 1.71339
      vertex -12 33.5279 1.29772
    endloop
  endfacet
  facet normal 1 0 0
    outer loop
      vertex -12 32.5618 8.945
      vertex -12 40 12
      vertex -12 32.7614 9.40623
    endloop
  endfacet
  facet normal 1 0 0
    outer loop
      vertex -12 40 0
      vertex -12 32.9895 2.14597
      vertex -12 33.2454 1.71339
    endloop
  endfacet
  facet normal 1 0 0
    outer loop
      vertex -12 32.3915 8.47214
      vertex -12 40 12
      vertex -12 32.5618 8.945
    endloop
  endfacet
  facet normal 1 0 0
    outer loop
      vertex -12 40 0
      vertex -12 32.7614 2.59377
      vertex -12 32.9895 2.14597
    endloop
  endfacet
  facet normal 1 0 0
    outer loop
      vertex -12 32.2513 7.98952
      vertex -12 40 12
      vertex -12 32.3915 8.47214
    endloop
  endfacet
  facet normal 1 0 0
    outer loop
      vertex -12 40 0
      vertex -12 32.5618 3.055
      vertex -12 32.7614 2.59377
    endloop
  endfacet
  facet normal 1 0 0
    outer loop
      vertex -12 32.1417 7.49905
      vertex -12 40 12
      vertex -12 32.2513 7.98952
    endloop
  endfacet
  facet normal 1 0 0
    outer loop
      vertex -12 40 0
      vertex -12 32.3915 3.52786
      vertex -12 32.5618 3.055
    endloop
  endfacet
  facet normal 1 0 0
    outer loop
      vertex -12 32.0631 7.00267
      vertex -12 40 12
      vertex -12 32.1417 7.49905
    endloop
  endfacet
  facet normal 1 0 0
    outer loop
      vertex -12 40 0
      vertex -12 32.2513 4.01048
      vertex -12 32.3915 3.52786
    endloop
  endfacet
  facet normal 1 0 0
    outer loop
      vertex -12 32.0158 6.50232
      vertex -12 40 12
      vertex -12 32.0631 7.00267
    endloop
  endfacet
  facet normal 1 0 0
    outer loop
      vertex -12 40 0
      vertex -12 32.1417 4.50095
      vertex -12 32.2513 4.01048
    endloop
  endfacet
  facet normal 1 0 0
    outer loop
      vertex -12 40 12
      vertex -12 32.0158 6.50232
      vertex -12 40 0
    endloop
  endfacet
  facet normal 1 0 0
    outer loop
      vertex -12 40 0
      vertex -12 32.0631 4.99733
      vertex -12 32.1417 4.50095
    endloop
  endfacet
  facet normal 1 -0 0
    outer loop
      vertex -12 32 6
      vertex -12 40 0
      vertex -12 32.0158 6.50232
    endloop
  endfacet
  facet normal 1 0 0
    outer loop
      vertex -12 40 0
      vertex -12 32.0158 5.49767
      vertex -12 32.0631 4.99733
    endloop
  endfacet
  facet normal 1 0 0
    outer loop
      vertex -12 40 0
      vertex -12 32 6
      vertex -12 32.0158 5.49767
    endloop
  endfacet
  facet normal 0 0.891059 0.453887
    outer loop
      vertex 16 32.9895 2.14597
      vertex -12 32.7614 2.59377
      vertex 16 32.7614 2.59377
    endloop
  endfacet
  facet normal 0 0.891059 0.453887
    outer loop
      vertex -12 32.7614 2.59377
      vertex 16 32.9895 2.14597
      vertex -12 32.9895 2.14597
    endloop
  endfacet
  facet normal 0 0.750069 0.66136
    outer loop
      vertex 16 34.1683 0.523623
      vertex -12 33.8359 0.900608
      vertex 16 33.8359 0.900608
    endloop
  endfacet
  facet normal 0 0.750069 0.66136
    outer loop
      vertex -12 33.8359 0.900608
      vertex 16 34.1683 0.523623
      vertex -12 34.1683 0.523623
    endloop
  endfacet
  facet normal 0 0.995561 0.0941161
    outer loop
      vertex 16 32.0631 4.99733
      vertex -12 32.0158 5.49767
      vertex 16 32.0158 5.49767
    endloop
  endfacet
  facet normal 0 0.995561 0.0941161
    outer loop
      vertex -12 32.0158 5.49767
      vertex 16 32.0631 4.99733
      vertex -12 32.0631 4.99733
    endloop
  endfacet
  facet normal 0 0.940843 -0.338843
    outer loop
      vertex 16 32.3915 8.47214
      vertex -12 32.5618 8.945
      vertex 16 32.5618 8.945
    endloop
  endfacet
  facet normal 0 0.940843 -0.338843
    outer loop
      vertex -12 32.5618 8.945
      vertex 16 32.3915 8.47214
      vertex -12 32.3915 8.47214
    endloop
  endfacet
  facet normal -0 0.661199 0.75021
    outer loop
      vertex -12 34.7145 0
      vertex 16 34.5236 0.16825
      vertex 16 34.7145 0
    endloop
  endfacet
  facet normal 0 0.661199 0.75021
    outer loop
      vertex 16 34.5236 0.16825
      vertex -12 34.7145 0
      vertex -12 34.5236 0.16825
    endloop
  endfacet
  facet normal 0 0.999506 0.0314379
    outer loop
      vertex 16 32.0158 5.49767
      vertex -12 32 6
      vertex 16 32 6
    endloop
  endfacet
  facet normal 0 0.999506 0.0314379
    outer loop
      vertex -12 32 6
      vertex 16 32.0158 5.49767
      vertex -12 32.0158 5.49767
    endloop
  endfacet
  facet normal 0 0.860678 0.509149
    outer loop
      vertex 16 33.2454 1.71339
      vertex -12 32.9895 2.14597
      vertex 16 32.9895 2.14597
    endloop
  endfacet
  facet normal 0 0.860678 0.509149
    outer loop
      vertex -12 32.9895 2.14597
      vertex 16 33.2454 1.71339
      vertex -12 33.2454 1.71339
    endloop
  endfacet
  facet normal 0 0.707107 -0.707107
    outer loop
      vertex 16 34.1683 11.4764
      vertex -12 34.5236 11.8317
      vertex 16 34.5236 11.8317
    endloop
  endfacet
  facet normal 0 0.707107 -0.707107
    outer loop
      vertex -12 34.5236 11.8317
      vertex 16 34.1683 11.4764
      vertex -12 34.1683 11.4764
    endloop
  endfacet
  facet normal 0 0.917749 0.397161
    outer loop
      vertex 16 32.7614 2.59377
      vertex -12 32.5618 3.055
      vertex 16 32.5618 3.055
    endloop
  endfacet
  facet normal 0 0.917749 0.397161
    outer loop
      vertex -12 32.5618 3.055
      vertex 16 32.7614 2.59377
      vertex -12 32.7614 2.59377
    endloop
  endfacet
  facet normal 0 0.960301 -0.278965
    outer loop
      vertex 16 32.2513 7.98952
      vertex -12 32.3915 8.47214
      vertex 16 32.3915 8.47214
    endloop
  endfacet
  facet normal 0 0.960301 -0.278965
    outer loop
      vertex -12 32.3915 8.47214
      vertex 16 32.2513 7.98952
      vertex -12 32.2513 7.98952
    endloop
  endfacet
  facet normal 0 0.999506 -0.0314385
    outer loop
      vertex 16 32 6
      vertex -12 32.0158 6.50232
      vertex 16 32.0158 6.50232
    endloop
  endfacet
  facet normal 0 0.999506 -0.0314385
    outer loop
      vertex -12 32.0158 6.50232
      vertex 16 32 6
      vertex -12 32 6
    endloop
  endfacet
  facet normal 0 0.82707 0.562098
    outer loop
      vertex 16 33.5279 1.29772
      vertex -12 33.2454 1.71339
      vertex 16 33.2454 1.71339
    endloop
  endfacet
  facet normal 0 0.82707 0.562098
    outer loop
      vertex -12 33.2454 1.71339
      vertex 16 33.5279 1.29772
      vertex -12 33.5279 1.29772
    endloop
  endfacet
  facet normal 0 0.987694 0.156398
    outer loop
      vertex 16 32.1417 4.50095
      vertex -12 32.0631 4.99733
      vertex 16 32.0631 4.99733
    endloop
  endfacet
  facet normal 0 0.987694 0.156398
    outer loop
      vertex -12 32.0631 4.99733
      vertex 16 32.1417 4.50095
      vertex -12 32.1417 4.50095
    endloop
  endfacet
  facet normal 0 0.860673 -0.509158
    outer loop
      vertex 16 32.9895 9.85403
      vertex -12 33.2454 10.2866
      vertex 16 33.2454 10.2866
    endloop
  endfacet
  facet normal 0 0.860673 -0.509158
    outer loop
      vertex -12 33.2454 10.2866
      vertex 16 32.9895 9.85403
      vertex -12 32.9895 9.85403
    endloop
  endfacet
  facet normal 0 0.995561 -0.0941142
    outer loop
      vertex 16 32.0158 6.50232
      vertex -12 32.0631 7.00267
      vertex 16 32.0631 7.00267
    endloop
  endfacet
  facet normal 0 0.995561 -0.0941142
    outer loop
      vertex -12 32.0631 7.00267
      vertex 16 32.0158 6.50232
      vertex -12 32.0158 6.50232
    endloop
  endfacet
  facet normal 0 0.66131 -0.750113
    outer loop
      vertex -12 34.5236 11.8317
      vertex 16 34.7145 12
      vertex 16 34.5236 11.8317
    endloop
  endfacet
  facet normal 0 0.66131 -0.750113
    outer loop
      vertex 16 34.7145 12
      vertex -12 34.5236 11.8317
      vertex -12 34.7145 12
    endloop
  endfacet
  facet normal 0 0.975931 -0.218081
    outer loop
      vertex 16 32.1417 7.49905
      vertex -12 32.2513 7.98952
      vertex 16 32.2513 7.98952
    endloop
  endfacet
  facet normal 0 0.975931 -0.218081
    outer loop
      vertex -12 32.2513 7.98952
      vertex 16 32.1417 7.49905
      vertex -12 32.1417 7.49905
    endloop
  endfacet
  facet normal 0 0.987694 -0.156398
    outer loop
      vertex 16 32.0631 7.00267
      vertex -12 32.1417 7.49905
      vertex 16 32.1417 7.49905
    endloop
  endfacet
  facet normal 0 0.987694 -0.156398
    outer loop
      vertex -12 32.1417 7.49905
      vertex 16 32.0631 7.00267
      vertex -12 32.0631 7.00267
    endloop
  endfacet
  facet normal 0 0.917749 -0.397161
    outer loop
      vertex 16 32.5618 8.945
      vertex -12 32.7614 9.40623
      vertex 16 32.7614 9.40623
    endloop
  endfacet
  facet normal 0 0.917749 -0.397161
    outer loop
      vertex -12 32.7614 9.40623
      vertex 16 32.5618 8.945
      vertex -12 32.5618 8.945
    endloop
  endfacet
  facet normal 0 0.940843 0.338843
    outer loop
      vertex 16 32.5618 3.055
      vertex -12 32.3915 3.52786
      vertex 16 32.3915 3.52786
    endloop
  endfacet
  facet normal 0 0.940843 0.338843
    outer loop
      vertex -12 32.3915 3.52786
      vertex 16 32.5618 3.055
      vertex -12 32.5618 3.055
    endloop
  endfacet
  facet normal 0 0.750082 -0.661345
    outer loop
      vertex 16 33.8359 11.0994
      vertex -12 34.1683 11.4764
      vertex 16 34.1683 11.4764
    endloop
  endfacet
  facet normal 0 0.750082 -0.661345
    outer loop
      vertex -12 34.1683 11.4764
      vertex 16 33.8359 11.0994
      vertex -12 33.8359 11.0994
    endloop
  endfacet
  facet normal 0 0.827089 -0.562071
    outer loop
      vertex 16 33.2454 10.2866
      vertex -12 33.5279 10.7023
      vertex 16 33.5279 10.7023
    endloop
  endfacet
  facet normal 0 0.827089 -0.562071
    outer loop
      vertex -12 33.5279 10.7023
      vertex 16 33.2454 10.2866
      vertex -12 33.2454 10.2866
    endloop
  endfacet
  facet normal 0 0.790186 0.612868
    outer loop
      vertex 16 33.8359 0.900608
      vertex -12 33.5279 1.29772
      vertex 16 33.5279 1.29772
    endloop
  endfacet
  facet normal 0 0.790186 0.612868
    outer loop
      vertex -12 33.5279 1.29772
      vertex 16 33.8359 0.900608
      vertex -12 33.8359 0.900608
    endloop
  endfacet
  facet normal 0 0.790177 -0.612879
    outer loop
      vertex 16 33.5279 10.7023
      vertex -12 33.8359 11.0994
      vertex 16 33.8359 11.0994
    endloop
  endfacet
  facet normal 0 0.790177 -0.612879
    outer loop
      vertex -12 33.8359 11.0994
      vertex 16 33.5279 10.7023
      vertex -12 33.5279 10.7023
    endloop
  endfacet
  facet normal 1 0 0
    outer loop
      vertex 16 32.0158 6.50232
      vertex 16 0 12
      vertex 16 32 6
    endloop
  endfacet
  facet normal 1 0 0
    outer loop
      vertex 16 32.0631 7.00267
      vertex 16 0 12
      vertex 16 32.0158 6.50232
    endloop
  endfacet
  facet normal 1 0 0
    outer loop
      vertex 16 32.1417 7.49905
      vertex 16 0 12
      vertex 16 32.0631 7.00267
    endloop
  endfacet
  facet normal 1 0 0
    outer loop
      vertex 16 32.2513 7.98952
      vertex 16 0 12
      vertex 16 32.1417 7.49905
    endloop
  endfacet
  facet normal 1 0 0
    outer loop
      vertex 16 32.3915 8.47214
      vertex 16 0 12
      vertex 16 32.2513 7.98952
    endloop
  endfacet
  facet normal 1 0 0
    outer loop
      vertex 16 32.5618 8.945
      vertex 16 0 12
      vertex 16 32.3915 8.47214
    endloop
  endfacet
  facet normal 1 0 0
    outer loop
      vertex 16 32.7614 9.40623
      vertex 16 0 12
      vertex 16 32.5618 8.945
    endloop
  endfacet
  facet normal 1 0 0
    outer loop
      vertex 16 32.9895 9.85403
      vertex 16 0 12
      vertex 16 32.7614 9.40623
    endloop
  endfacet
  facet normal 1 0 0
    outer loop
      vertex 16 33.2454 10.2866
      vertex 16 0 12
      vertex 16 32.9895 9.85403
    endloop
  endfacet
  facet normal 1 0 0
    outer loop
      vertex 16 33.5279 10.7023
      vertex 16 0 12
      vertex 16 33.2454 10.2866
    endloop
  endfacet
  facet normal 1 0 0
    outer loop
      vertex 16 33.8359 11.0994
      vertex 16 0 12
      vertex 16 33.5279 10.7023
    endloop
  endfacet
  facet normal 1 0 0
    outer loop
      vertex 16 34.1683 11.4764
      vertex 16 0 12
      vertex 16 33.8359 11.0994
    endloop
  endfacet
  facet normal 1 0 0
    outer loop
      vertex 16 34.5236 11.8317
      vertex 16 0 12
      vertex 16 34.1683 11.4764
    endloop
  endfacet
  facet normal 1 -0 0
    outer loop
      vertex 16 0 12
      vertex 16 34.5236 11.8317
      vertex 16 34.7145 12
    endloop
  endfacet
  facet normal 1 0 0
    outer loop
      vertex 16 0 0
      vertex 16 32 6
      vertex 16 0 12
    endloop
  endfacet
  facet normal 1 0 0
    outer loop
      vertex 16 32 6
      vertex 16 0 0
      vertex 16 32.0158 5.49767
    endloop
  endfacet
  facet normal 1 0 0
    outer loop
      vertex 16 32.0158 5.49767
      vertex 16 0 0
      vertex 16 32.0631 4.99733
    endloop
  endfacet
  facet normal 1 0 0
    outer loop
      vertex 16 32.0631 4.99733
      vertex 16 0 0
      vertex 16 32.1417 4.50095
    endloop
  endfacet
  facet normal 1 0 0
    outer loop
      vertex 16 32.1417 4.50095
      vertex 16 0 0
      vertex 16 32.2513 4.01048
    endloop
  endfacet
  facet normal 1 0 0
    outer loop
      vertex 16 32.2513 4.01048
      vertex 16 0 0
      vertex 16 32.3915 3.52786
    endloop
  endfacet
  facet normal 1 0 0
    outer loop
      vertex 16 32.3915 3.52786
      vertex 16 0 0
      vertex 16 32.5618 3.055
    endloop
  endfacet
  facet normal 1 0 0
    outer loop
      vertex 16 32.5618 3.055
      vertex 16 0 0
      vertex 16 32.7614 2.59377
    endloop
  endfacet
  facet normal 1 0 0
    outer loop
      vertex 16 32.7614 2.59377
      vertex 16 0 0
      vertex 16 32.9895 2.14597
    endloop
  endfacet
  facet normal 1 0 0
    outer loop
      vertex 16 32.9895 2.14597
      vertex 16 0 0
      vertex 16 33.2454 1.71339
    endloop
  endfacet
  facet normal 1 0 0
    outer loop
      vertex 16 33.2454 1.71339
      vertex 16 0 0
      vertex 16 33.5279 1.29772
    endloop
  endfacet
  facet normal 1 0 0
    outer loop
      vertex 16 33.5279 1.29772
      vertex 16 0 0
      vertex 16 33.8359 0.900608
    endloop
  endfacet
  facet normal 1 0 0
    outer loop
      vertex 16 33.8359 0.900608
      vertex 16 0 0
      vertex 16 34.1683 0.523623
    endloop
  endfacet
  facet normal 1 0 0
    outer loop
      vertex 16 34.1683 0.523623
      vertex 16 0 0
      vertex 16 34.5236 0.16825
    endloop
  endfacet
  facet normal 1 0 0
    outer loop
      vertex 16 34.5236 0.16825
      vertex 16 0 0
      vertex 16 34.7145 0
    endloop
  endfacet
  facet normal -0 0 1
    outer loop
      vertex -16 40 12
      vertex -12 34.7145 12
      vertex -12 40 12
    endloop
  endfacet
  facet normal 0 0 1
    outer loop
      vertex -12 34.7145 12
      vertex -16 40 12
      vertex -12 24 12
    endloop
  endfacet
  facet normal 0 0 1
    outer loop
      vertex 3.93692 22.9973 12
      vertex 16 34.7145 12
      vertex 4 24 12
    endloop
  endfacet
  facet normal 0 0 1
    outer loop
      vertex 16 34.7145 12
      vertex 3.93692 25.0027 12
      vertex 4 24 12
    endloop
  endfacet
  facet normal 0 0 1
    outer loop
      vertex 16 34.7145 12
      vertex 3.74866 25.9895 12
      vertex 3.93692 25.0027 12
    endloop
  endfacet
  facet normal 0 0 1
    outer loop
      vertex 16 34.7145 12
      vertex 3.43821 26.945 12
      vertex 3.74866 25.9895 12
    endloop
  endfacet
  facet normal 0 0 1
    outer loop
      vertex 16 34.7145 12
      vertex 3.01045 27.854 12
      vertex 3.43821 26.945 12
    endloop
  endfacet
  facet normal 0 0 1
    outer loop
      vertex 16 34.7145 12
      vertex 2.47214 28.7023 12
      vertex 3.01045 27.854 12
    endloop
  endfacet
  facet normal 0 0 1
    outer loop
      vertex 16 34.7145 12
      vertex 1.83175 29.4764 12
      vertex 2.47214 28.7023 12
    endloop
  endfacet
  facet normal 0 0 1
    outer loop
      vertex 16 34.7145 12
      vertex 1.09939 30.1641 12
      vertex 1.83175 29.4764 12
    endloop
  endfacet
  facet normal 0 0 1
    outer loop
      vertex 16 34.7145 12
      vertex 0.286613 30.7546 12
      vertex 1.09939 30.1641 12
    endloop
  endfacet
  facet normal 0 0 1
    outer loop
      vertex 16 34.7145 12
      vertex -0.593765 31.2386 12
      vertex 0.286613 30.7546 12
    endloop
  endfacet
  facet normal 0 0 1
    outer loop
      vertex 16 34.7145 12
      vertex -1.52786 31.6085 12
      vertex -0.593765 31.2386 12
    endloop
  endfacet
  facet normal 0 0 1
    outer loop
      vertex 16 34.7145 12
      vertex -2.50095 31.8583 12
      vertex -1.52786 31.6085 12
    endloop
  endfacet
  facet normal -0 0 1
    outer loop
      vertex -12 34.7145 12
      vertex -2.50095 31.8583 12
      vertex 16 34.7145 12
    endloop
  endfacet
  facet normal 0 0 1
    outer loop
      vertex -2.50095 31.8583 12
      vertex -12 34.7145 12
      vertex -3.49767 31.9842 12
    endloop
  endfacet
  facet normal 0 0 1
    outer loop
      vertex -3.49767 31.9842 12
      vertex -12 34.7145 12
      vertex -4.50232 31.9842 12
    endloop
  endfacet
  facet normal 0 0 1
    outer loop
      vertex -4.50232 31.9842 12
      vertex -12 34.7145 12
      vertex -5.49905 31.8583 12
    endloop
  endfacet
  facet normal 0 0 1
    outer loop
      vertex -12 34.7145 12
      vertex -6.47214 31.6085 12
      vertex -5.49905 31.8583 12
    endloop
  endfacet
  facet normal 0 0 1
    outer loop
      vertex -12 34.7145 12
      vertex -7.40623 31.2386 12
      vertex -6.47214 31.6085 12
    endloop
  endfacet
  facet normal 0 0 1
    outer loop
      vertex -12 34.7145 12
      vertex -8.28661 30.7546 12
      vertex -7.40623 31.2386 12
    endloop
  endfacet
  facet normal 0 0 1
    outer loop
      vertex -12 34.7145 12
      vertex -9.09939 30.1641 12
      vertex -8.28661 30.7546 12
    endloop
  endfacet
  facet normal 0 0 1
    outer loop
      vertex -12 34.7145 12
      vertex -9.83175 29.4764 12
      vertex -9.09939 30.1641 12
    endloop
  endfacet
  facet normal 0 0 1
    outer loop
      vertex -12 34.7145 12
      vertex -10.4721 28.7023 12
      vertex -9.83175 29.4764 12
    endloop
  endfacet
  facet normal 0 0 1
    outer loop
      vertex -12 34.7145 12
      vertex -11.0105 27.854 12
      vertex -10.4721 28.7023 12
    endloop
  endfacet
  facet normal 0 0 1
    outer loop
      vertex -12 34.7145 12
      vertex -11.4382 26.945 12
      vertex -11.0105 27.854 12
    endloop
  endfacet
  facet normal 0 0 1
    outer loop
      vertex -12 34.7145 12
      vertex -11.7487 25.9895 12
      vertex -11.4382 26.945 12
    endloop
  endfacet
  facet normal 0 0 1
    outer loop
      vertex -12 34.7145 12
      vertex -11.9369 25.0027 12
      vertex -11.7487 25.9895 12
    endloop
  endfacet
  facet normal 0 0 1
    outer loop
      vertex -11.9369 25.0027 12
      vertex -12 34.7145 12
      vertex -12 24 12
    endloop
  endfacet
  facet normal 0 0 1
    outer loop
      vertex 3.74866 22.0105 12
      vertex 16 34.7145 12
      vertex 3.93692 22.9973 12
    endloop
  endfacet
  facet normal 0 0 1
    outer loop
      vertex 16 34.7145 12
      vertex 3.74866 22.0105 12
      vertex 16 0 12
    endloop
  endfacet
  facet normal -0 0 1
    outer loop
      vertex 3.43821 21.055 12
      vertex 16 0 12
      vertex 3.74866 22.0105 12
    endloop
  endfacet
  facet normal -0 0 1
    outer loop
      vertex 3.01045 20.146 12
      vertex 16 0 12
      vertex 3.43821 21.055 12
    endloop
  endfacet
  facet normal -0 0 1
    outer loop
      vertex 2.47214 19.2977 12
      vertex 16 0 12
      vertex 3.01045 20.146 12
    endloop
  endfacet
  facet normal -0 0 1
    outer loop
      vertex 1.83175 18.5236 12
      vertex 16 0 12
      vertex 2.47214 19.2977 12
    endloop
  endfacet
  facet normal -0 0 1
    outer loop
      vertex 1.09939 17.8359 12
      vertex 16 0 12
      vertex 1.83175 18.5236 12
    endloop
  endfacet
  facet normal -0 0 1
    outer loop
      vertex 0.286613 17.2454 12
      vertex 16 0 12
      vertex 1.09939 17.8359 12
    endloop
  endfacet
  facet normal -0 0 1
    outer loop
      vertex -0.593765 16.7614 12
      vertex 16 0 12
      vertex 0.286613 17.2454 12
    endloop
  endfacet
  facet normal -0 0 1
    outer loop
      vertex -1.52786 16.3915 12
      vertex 16 0 12
      vertex -0.593765 16.7614 12
    endloop
  endfacet
  facet normal -0 0 1
    outer loop
      vertex -2.50095 16.1417 12
      vertex 16 0 12
      vertex -1.52786 16.3915 12
    endloop
  endfacet
  facet normal 0 0 1
    outer loop
      vertex -16 0 12
      vertex -2.50095 16.1417 12
      vertex -3.49767 16.0158 12
    endloop
  endfacet
  facet normal 0 0 1
    outer loop
      vertex -16 0 12
      vertex -3.49767 16.0158 12
      vertex -4.50232 16.0158 12
    endloop
  endfacet
  facet normal 0 0 1
    outer loop
      vertex -16 0 12
      vertex -4.50232 16.0158 12
      vertex -5.49905 16.1417 12
    endloop
  endfacet
  facet normal 0 0 1
    outer loop
      vertex -16 0 12
      vertex -5.49905 16.1417 12
      vertex -6.47214 16.3915 12
    endloop
  endfacet
  facet normal 0 0 1
    outer loop
      vertex -16 0 12
      vertex -6.47214 16.3915 12
      vertex -7.40623 16.7614 12
    endloop
  endfacet
  facet normal 0 0 1
    outer loop
      vertex -16 0 12
      vertex -7.40623 16.7614 12
      vertex -8.28661 17.2454 12
    endloop
  endfacet
  facet normal 0 0 1
    outer loop
      vertex -16 40 12
      vertex -11.9369 22.9973 12
      vertex -12 24 12
    endloop
  endfacet
  facet normal 0 0 1
    outer loop
      vertex -16 0 12
      vertex -11.9369 22.9973 12
      vertex -16 40 12
    endloop
  endfacet
  facet normal 0 0 1
    outer loop
      vertex -2.50095 16.1417 12
      vertex -16 0 12
      vertex 16 0 12
    endloop
  endfacet
  facet normal 0 0 1
    outer loop
      vertex -9.09939 17.8359 12
      vertex -16 0 12
      vertex -8.28661 17.2454 12
    endloop
  endfacet
  facet normal 0 0 1
    outer loop
      vertex -9.83175 18.5236 12
      vertex -16 0 12
      vertex -9.09939 17.8359 12
    endloop
  endfacet
  facet normal 0 0 1
    outer loop
      vertex -10.4721 19.2977 12
      vertex -16 0 12
      vertex -9.83175 18.5236 12
    endloop
  endfacet
  facet normal 0 0 1
    outer loop
      vertex -11.0105 20.146 12
      vertex -16 0 12
      vertex -10.4721 19.2977 12
    endloop
  endfacet
  facet normal 0 0 1
    outer loop
      vertex -11.4382 21.055 12
      vertex -16 0 12
      vertex -11.0105 20.146 12
    endloop
  endfacet
  facet normal 0 0 1
    outer loop
      vertex -11.7487 22.0105 12
      vertex -16 0 12
      vertex -11.4382 21.055 12
    endloop
  endfacet
  facet normal 0 0 1
    outer loop
      vertex -11.9369 22.9973 12
      vertex -16 0 12
      vertex -11.7487 22.0105 12
    endloop
  endfacet
  facet normal 0 0 -1
    outer loop
      vertex 16 0 0
      vertex -12 34.7145 0
      vertex 16 34.7145 0
    endloop
  endfacet
  facet normal 0 0 -1
    outer loop
      vertex -16 0 0
      vertex -12 34.7145 0
      vertex 16 0 0
    endloop
  endfacet
  facet normal 0 0 -1
    outer loop
      vertex -16 40 0
      vertex -12 34.7145 0
      vertex -16 0 0
    endloop
  endfacet
  facet normal 0 0 -1
    outer loop
      vertex -12 34.7145 0
      vertex -16 40 0
      vertex -12 40 0
    endloop
  endfacet
  facet normal -1 0 0
    outer loop
      vertex -16 0 0
      vertex -16 40 12
      vertex -16 40 0
    endloop
  endfacet
  facet normal -1 -0 0
    outer loop
      vertex -16 40 12
      vertex -16 0 0
      vertex -16 0 12
    endloop
  endfacet
  facet normal 0 1 -0
    outer loop
      vertex -12 40 0
      vertex -16 40 12
      vertex -12 40 12
    endloop
  endfacet
  facet normal 0 1 0
    outer loop
      vertex -16 40 12
      vertex -12 40 0
      vertex -16 40 0
    endloop
  endfacet
  facet normal 0 -1 0
    outer loop
      vertex -16 0 0
      vertex 16 0 12
      vertex -16 0 12
    endloop
  endfacet
  facet normal 0 -1 -0
    outer loop
      vertex 16 0 12
      vertex -16 0 0
      vertex 16 0 0
    endloop
  endfacet
  facet normal 0.982284 0.187398 0
    outer loop
      vertex 3.93692 25.0027 20
      vertex 3.74866 25.9895 12
      vertex 3.74866 25.9895 20
    endloop
  endfacet
  facet normal 0.982284 0.187398 0
    outer loop
      vertex 3.74866 25.9895 12
      vertex 3.93692 25.0027 20
      vertex 3.93692 25.0027 12
    endloop
  endfacet
  facet normal 0.998027 0.062786 0
    outer loop
      vertex 4 24 20
      vertex 3.93692 25.0027 12
      vertex 3.93692 25.0027 20
    endloop
  endfacet
  facet normal 0.998027 0.062786 0
    outer loop
      vertex 3.93692 25.0027 12
      vertex 4 24 20
      vertex 4 24 12
    endloop
  endfacet
  facet normal 0.95106 0.309007 0
    outer loop
      vertex 3.74866 25.9895 20
      vertex 3.43821 26.945 12
      vertex 3.43821 26.945 20
    endloop
  endfacet
  facet normal 0.95106 0.309007 0
    outer loop
      vertex 3.43821 26.945 12
      vertex 3.74866 25.9895 20
      vertex 3.74866 25.9895 12
    endloop
  endfacet
  facet normal 0.844345 0.5358 0
    outer loop
      vertex 3.01045 27.854 20
      vertex 2.47214 28.7023 12
      vertex 2.47214 28.7023 20
    endloop
  endfacet
  facet normal 0.844345 0.5358 0
    outer loop
      vertex 2.47214 28.7023 12
      vertex 3.01045 27.854 20
      vertex 3.01045 27.854 12
    endloop
  endfacet
  facet normal 0.368181 0.929754 -0
    outer loop
      vertex -0.593765 31.2386 12
      vertex -1.52786 31.6085 20
      vertex -0.593765 31.2386 20
    endloop
  endfacet
  facet normal 0.368181 0.929754 0
    outer loop
      vertex -1.52786 31.6085 20
      vertex -0.593765 31.2386 12
      vertex -1.52786 31.6085 12
    endloop
  endfacet
  facet normal 0.48176 0.876303 -0
    outer loop
      vertex 0.286613 30.7546 12
      vertex -0.593765 31.2386 20
      vertex 0.286613 30.7546 20
    endloop
  endfacet
  facet normal 0.48176 0.876303 0
    outer loop
      vertex -0.593765 31.2386 20
      vertex 0.286613 30.7546 12
      vertex -0.593765 31.2386 12
    endloop
  endfacet
  facet normal -0.998026 0.0628058 0
    outer loop
      vertex -12 24 12
      vertex -11.9369 25.0027 20
      vertex -11.9369 25.0027 12
    endloop
  endfacet
  facet normal -0.998026 0.0628058 0
    outer loop
      vertex -11.9369 25.0027 20
      vertex -12 24 12
      vertex -12 24 20
    endloop
  endfacet
  facet normal -0.951045 -0.309052 0
    outer loop
      vertex -11.4382 21.055 12
      vertex -11.7487 22.0105 20
      vertex -11.7487 22.0105 12
    endloop
  endfacet
  facet normal -0.951045 -0.309052 0
    outer loop
      vertex -11.7487 22.0105 20
      vertex -11.4382 21.055 12
      vertex -11.4382 21.055 20
    endloop
  endfacet
  facet normal 0.904821 0.425793 0
    outer loop
      vertex 3.43821 26.945 20
      vertex 3.01045 27.854 12
      vertex 3.01045 27.854 20
    endloop
  endfacet
  facet normal 0.904821 0.425793 0
    outer loop
      vertex 3.01045 27.854 12
      vertex 3.43821 26.945 20
      vertex 3.43821 26.945 12
    endloop
  endfacet
  facet normal -0.248646 0.968594 0
    outer loop
      vertex -5.49905 31.8583 12
      vertex -6.47214 31.6085 20
      vertex -5.49905 31.8583 20
    endloop
  endfacet
  facet normal -0.248646 0.968594 0
    outer loop
      vertex -6.47214 31.6085 20
      vertex -5.49905 31.8583 12
      vertex -6.47214 31.6085 12
    endloop
  endfacet
  facet normal 0 -1 0
    outer loop
      vertex -4.50232 16.0158 12
      vertex -3.49767 16.0158 20
      vertex -4.50232 16.0158 20
    endloop
  endfacet
  facet normal 0 -1 -0
    outer loop
      vertex -3.49767 16.0158 20
      vertex -4.50232 16.0158 12
      vertex -3.49767 16.0158 12
    endloop
  endfacet
  facet normal 0.998027 -0.062786 0
    outer loop
      vertex 3.93692 22.9973 20
      vertex 4 24 12
      vertex 4 24 20
    endloop
  endfacet
  facet normal 0.998027 -0.062786 0
    outer loop
      vertex 4 24 12
      vertex 3.93692 22.9973 20
      vertex 3.93692 22.9973 12
    endloop
  endfacet
  facet normal 0.68453 -0.728984 0
    outer loop
      vertex 1.09939 17.8359 12
      vertex 1.83175 18.5236 20
      vertex 1.09939 17.8359 20
    endloop
  endfacet
  facet normal 0.68453 -0.728984 0
    outer loop
      vertex 1.83175 18.5236 20
      vertex 1.09939 17.8359 12
      vertex 1.83175 18.5236 12
    endloop
  endfacet
  facet normal -0.125317 -0.992117 0
    outer loop
      vertex -5.49905 16.1417 12
      vertex -4.50232 16.0158 20
      vertex -5.49905 16.1417 20
    endloop
  endfacet
  facet normal -0.125317 -0.992117 -0
    outer loop
      vertex -4.50232 16.0158 20
      vertex -5.49905 16.1417 12
      vertex -4.50232 16.0158 12
    endloop
  endfacet
  facet normal -0.68453 -0.728984 0
    outer loop
      vertex -9.83175 18.5236 12
      vertex -9.09939 17.8359 20
      vertex -9.83175 18.5236 20
    endloop
  endfacet
  facet normal -0.68453 -0.728984 -0
    outer loop
      vertex -9.09939 17.8359 20
      vertex -9.83175 18.5236 12
      vertex -9.09939 17.8359 12
    endloop
  endfacet
  facet normal 0.587774 0.809025 -0
    outer loop
      vertex 1.09939 30.1641 12
      vertex 0.286613 30.7546 20
      vertex 1.09939 30.1641 20
    endloop
  endfacet
  facet normal 0.587774 0.809025 0
    outer loop
      vertex 0.286613 30.7546 20
      vertex 1.09939 30.1641 12
      vertex 0.286613 30.7546 12
    endloop
  endfacet
  facet normal 0.587774 -0.809025 0
    outer loop
      vertex 0.286613 17.2454 12
      vertex 1.09939 17.8359 20
      vertex 0.286613 17.2454 20
    endloop
  endfacet
  facet normal 0.587774 -0.809025 0
    outer loop
      vertex 1.09939 17.8359 20
      vertex 0.286613 17.2454 12
      vertex 1.09939 17.8359 12
    endloop
  endfacet
  facet normal 0.844345 -0.5358 0
    outer loop
      vertex 2.47214 19.2977 20
      vertex 3.01045 20.146 12
      vertex 3.01045 20.146 20
    endloop
  endfacet
  facet normal 0.844345 -0.5358 0
    outer loop
      vertex 3.01045 20.146 12
      vertex 2.47214 19.2977 20
      vertex 2.47214 19.2977 12
    endloop
  endfacet
  facet normal -0.770533 0.6374 0
    outer loop
      vertex -10.4721 28.7023 12
      vertex -9.83175 29.4764 20
      vertex -9.83175 29.4764 12
    endloop
  endfacet
  facet normal -0.770533 0.6374 0
    outer loop
      vertex -9.83175 29.4764 20
      vertex -10.4721 28.7023 12
      vertex -10.4721 28.7023 20
    endloop
  endfacet
  facet normal -0.770533 -0.6374 0
    outer loop
      vertex -9.83175 18.5236 12
      vertex -10.4721 19.2977 20
      vertex -10.4721 19.2977 12
    endloop
  endfacet
  facet normal -0.770533 -0.6374 0
    outer loop
      vertex -10.4721 19.2977 20
      vertex -9.83175 18.5236 12
      vertex -9.83175 18.5236 20
    endloop
  endfacet
  facet normal 0.904821 -0.425793 0
    outer loop
      vertex 3.01045 20.146 20
      vertex 3.43821 21.055 12
      vertex 3.43821 21.055 20
    endloop
  endfacet
  facet normal 0.904821 -0.425793 0
    outer loop
      vertex 3.43821 21.055 12
      vertex 3.01045 20.146 20
      vertex 3.01045 20.146 12
    endloop
  endfacet
  facet normal 0.982284 -0.187398 0
    outer loop
      vertex 3.74866 22.0105 20
      vertex 3.93692 22.9973 12
      vertex 3.93692 22.9973 20
    endloop
  endfacet
  facet normal 0.982284 -0.187398 0
    outer loop
      vertex 3.93692 22.9973 12
      vertex 3.74866 22.0105 20
      vertex 3.74866 22.0105 12
    endloop
  endfacet
  facet normal -0.982295 -0.187341 0
    outer loop
      vertex -11.7487 22.0105 12
      vertex -11.9369 22.9973 20
      vertex -11.9369 22.9973 12
    endloop
  endfacet
  facet normal -0.982295 -0.187341 0
    outer loop
      vertex -11.9369 22.9973 20
      vertex -11.7487 22.0105 12
      vertex -11.7487 22.0105 20
    endloop
  endfacet
  facet normal 0.68453 0.728984 -0
    outer loop
      vertex 1.83175 29.4764 12
      vertex 1.09939 30.1641 20
      vertex 1.83175 29.4764 20
    endloop
  endfacet
  facet normal 0.68453 0.728984 0
    outer loop
      vertex 1.09939 30.1641 20
      vertex 1.83175 29.4764 12
      vertex 1.09939 30.1641 12
    endloop
  endfacet
  facet normal -0.481759 -0.876304 0
    outer loop
      vertex -8.28661 17.2454 12
      vertex -7.40623 16.7614 20
      vertex -8.28661 17.2454 20
    endloop
  endfacet
  facet normal -0.481759 -0.876304 -0
    outer loop
      vertex -7.40623 16.7614 20
      vertex -8.28661 17.2454 12
      vertex -7.40623 16.7614 12
    endloop
  endfacet
  facet normal 0.770514 0.637423 0
    outer loop
      vertex 2.47214 28.7023 20
      vertex 1.83175 29.4764 12
      vertex 1.83175 29.4764 20
    endloop
  endfacet
  facet normal 0.770514 0.637423 0
    outer loop
      vertex 1.83175 29.4764 12
      vertex 2.47214 28.7023 20
      vertex 2.47214 28.7023 12
    endloop
  endfacet
  facet normal 0.770514 -0.637423 0
    outer loop
      vertex 1.83175 18.5236 20
      vertex 2.47214 19.2977 12
      vertex 2.47214 19.2977 20
    endloop
  endfacet
  facet normal 0.770514 -0.637423 0
    outer loop
      vertex 2.47214 19.2977 12
      vertex 1.83175 18.5236 20
      vertex 1.83175 18.5236 12
    endloop
  endfacet
  facet normal 0.248646 -0.968594 0
    outer loop
      vertex -2.50095 16.1417 12
      vertex -1.52786 16.3915 20
      vertex -2.50095 16.1417 20
    endloop
  endfacet
  facet normal 0.248646 -0.968594 0
    outer loop
      vertex -1.52786 16.3915 20
      vertex -2.50095 16.1417 12
      vertex -1.52786 16.3915 12
    endloop
  endfacet
  facet normal -0.481759 0.876304 0
    outer loop
      vertex -7.40623 31.2386 12
      vertex -8.28661 30.7546 20
      vertex -7.40623 31.2386 20
    endloop
  endfacet
  facet normal -0.481759 0.876304 0
    outer loop
      vertex -8.28661 30.7546 20
      vertex -7.40623 31.2386 12
      vertex -8.28661 30.7546 12
    endloop
  endfacet
  facet normal -0.844304 -0.535864 0
    outer loop
      vertex -10.4721 19.2977 12
      vertex -11.0105 20.146 20
      vertex -11.0105 20.146 12
    endloop
  endfacet
  facet normal -0.844304 -0.535864 0
    outer loop
      vertex -11.0105 20.146 20
      vertex -10.4721 19.2977 12
      vertex -10.4721 19.2977 20
    endloop
  endfacet
  facet normal -0.844304 0.535864 0
    outer loop
      vertex -11.0105 27.854 12
      vertex -10.4721 28.7023 20
      vertex -10.4721 28.7023 12
    endloop
  endfacet
  facet normal -0.844304 0.535864 0
    outer loop
      vertex -10.4721 28.7023 20
      vertex -11.0105 27.854 12
      vertex -11.0105 27.854 20
    endloop
  endfacet
  facet normal 0.95106 -0.309007 0
    outer loop
      vertex 3.43821 21.055 20
      vertex 3.74866 22.0105 12
      vertex 3.74866 22.0105 20
    endloop
  endfacet
  facet normal 0.95106 -0.309007 0
    outer loop
      vertex 3.74866 22.0105 12
      vertex 3.43821 21.055 20
      vertex 3.43821 21.055 12
    endloop
  endfacet
  facet normal 0.368181 -0.929754 0
    outer loop
      vertex -1.52786 16.3915 12
      vertex -0.593765 16.7614 20
      vertex -1.52786 16.3915 20
    endloop
  endfacet
  facet normal 0.368181 -0.929754 0
    outer loop
      vertex -0.593765 16.7614 20
      vertex -1.52786 16.3915 12
      vertex -0.593765 16.7614 12
    endloop
  endfacet
  facet normal -0.904844 0.425744 0
    outer loop
      vertex -11.4382 26.945 12
      vertex -11.0105 27.854 20
      vertex -11.0105 27.854 12
    endloop
  endfacet
  facet normal -0.904844 0.425744 0
    outer loop
      vertex -11.0105 27.854 20
      vertex -11.4382 26.945 12
      vertex -11.4382 26.945 20
    endloop
  endfacet
  facet normal 0 1 -0
    outer loop
      vertex -3.49767 31.9842 12
      vertex -4.50232 31.9842 20
      vertex -3.49767 31.9842 20
    endloop
  endfacet
  facet normal 0 1 0
    outer loop
      vertex -4.50232 31.9842 20
      vertex -3.49767 31.9842 12
      vertex -4.50232 31.9842 12
    endloop
  endfacet
  facet normal -0.904844 -0.425744 0
    outer loop
      vertex -11.0105 20.146 12
      vertex -11.4382 21.055 20
      vertex -11.4382 21.055 12
    endloop
  endfacet
  facet normal -0.904844 -0.425744 0
    outer loop
      vertex -11.4382 21.055 20
      vertex -11.0105 20.146 12
      vertex -11.0105 20.146 20
    endloop
  endfacet
  facet normal -0.125317 0.992117 0
    outer loop
      vertex -4.50232 31.9842 12
      vertex -5.49905 31.8583 20
      vertex -4.50232 31.9842 20
    endloop
  endfacet
  facet normal -0.125317 0.992117 0
    outer loop
      vertex -5.49905 31.8583 20
      vertex -4.50232 31.9842 12
      vertex -5.49905 31.8583 12
    endloop
  endfacet
  facet normal 0.48176 -0.876303 0
    outer loop
      vertex -0.593765 16.7614 12
      vertex 0.286613 17.2454 20
      vertex -0.593765 16.7614 20
    endloop
  endfacet
  facet normal 0.48176 -0.876303 0
    outer loop
      vertex 0.286613 17.2454 20
      vertex -0.593765 16.7614 12
      vertex 0.286613 17.2454 12
    endloop
  endfacet
  facet normal 0 0 1
    outer loop
      vertex 3.93692 25.0027 20
      vertex 3.93692 22.9973 20
      vertex 4 24 20
    endloop
  endfacet
  facet normal 0 0 1
    outer loop
      vertex 3.74866 25.9895 20
      vertex 3.93692 22.9973 20
      vertex 3.93692 25.0027 20
    endloop
  endfacet
  facet normal 0 0 1
    outer loop
      vertex 3.74866 25.9895 20
      vertex 3.74866 22.0105 20
      vertex 3.93692 22.9973 20
    endloop
  endfacet
  facet normal 0 0 1
    outer loop
      vertex 3.43821 26.945 20
      vertex 3.74866 22.0105 20
      vertex 3.74866 25.9895 20
    endloop
  endfacet
  facet normal 0 0 1
    outer loop
      vertex 3.43821 26.945 20
      vertex 3.43821 21.055 20
      vertex 3.74866 22.0105 20
    endloop
  endfacet
  facet normal 0 0 1
    outer loop
      vertex 3.01045 27.854 20
      vertex 3.43821 21.055 20
      vertex 3.43821 26.945 20
    endloop
  endfacet
  facet normal 0 0 1
    outer loop
      vertex 3.01045 27.854 20
      vertex 3.01045 20.146 20
      vertex 3.43821 21.055 20
    endloop
  endfacet
  facet normal 0 0 1
    outer loop
      vertex 2.47214 28.7023 20
      vertex 3.01045 20.146 20
      vertex 3.01045 27.854 20
    endloop
  endfacet
  facet normal 0 0 1
    outer loop
      vertex 2.47214 28.7023 20
      vertex 2.47214 19.2977 20
      vertex 3.01045 20.146 20
    endloop
  endfacet
  facet normal 0 0 1
    outer loop
      vertex 1.83175 29.4764 20
      vertex 2.47214 19.2977 20
      vertex 2.47214 28.7023 20
    endloop
  endfacet
  facet normal 0 0 1
    outer loop
      vertex 1.83175 29.4764 20
      vertex 1.83175 18.5236 20
      vertex 2.47214 19.2977 20
    endloop
  endfacet
  facet normal 0 0 1
    outer loop
      vertex 1.09939 30.1641 20
      vertex 1.83175 18.5236 20
      vertex 1.83175 29.4764 20
    endloop
  endfacet
  facet normal 0 0 1
    outer loop
      vertex 1.09939 30.1641 20
      vertex 1.09939 17.8359 20
      vertex 1.83175 18.5236 20
    endloop
  endfacet
  facet normal 0 0 1
    outer loop
      vertex 0.286613 30.7546 20
      vertex 1.09939 17.8359 20
      vertex 1.09939 30.1641 20
    endloop
  endfacet
  facet normal 0 0 1
    outer loop
      vertex 0.286613 30.7546 20
      vertex 0.286613 17.2454 20
      vertex 1.09939 17.8359 20
    endloop
  endfacet
  facet normal 0 0 1
    outer loop
      vertex -0.593765 31.2386 20
      vertex 0.286613 17.2454 20
      vertex 0.286613 30.7546 20
    endloop
  endfacet
  facet normal 0 0 1
    outer loop
      vertex -0.593765 31.2386 20
      vertex -0.593765 16.7614 20
      vertex 0.286613 17.2454 20
    endloop
  endfacet
  facet normal 0 0 1
    outer loop
      vertex -1.52786 31.6085 20
      vertex -0.593765 16.7614 20
      vertex -0.593765 31.2386 20
    endloop
  endfacet
  facet normal 0 0 1
    outer loop
      vertex -1.52786 31.6085 20
      vertex -1.52786 16.3915 20
      vertex -0.593765 16.7614 20
    endloop
  endfacet
  facet normal 0 0 1
    outer loop
      vertex -2.50095 31.8583 20
      vertex -1.52786 16.3915 20
      vertex -1.52786 31.6085 20
    endloop
  endfacet
  facet normal 0 0 1
    outer loop
      vertex -2.50095 31.8583 20
      vertex -2.50095 16.1417 20
      vertex -1.52786 16.3915 20
    endloop
  endfacet
  facet normal 0 0 1
    outer loop
      vertex -3.49767 31.9842 20
      vertex -2.50095 16.1417 20
      vertex -2.50095 31.8583 20
    endloop
  endfacet
  facet normal 0 0 1
    outer loop
      vertex -3.49767 31.9842 20
      vertex -3.49767 16.0158 20
      vertex -2.50095 16.1417 20
    endloop
  endfacet
  facet normal -0 0 1
    outer loop
      vertex -4.50232 31.9842 20
      vertex -3.49767 16.0158 20
      vertex -3.49767 31.9842 20
    endloop
  endfacet
  facet normal 0 0 1
    outer loop
      vertex -4.50232 31.9842 20
      vertex -4.50232 16.0158 20
      vertex -3.49767 16.0158 20
    endloop
  endfacet
  facet normal -0 0 1
    outer loop
      vertex -5.49905 31.8583 20
      vertex -4.50232 16.0158 20
      vertex -4.50232 31.9842 20
    endloop
  endfacet
  facet normal 0 0 1
    outer loop
      vertex -5.49905 31.8583 20
      vertex -5.49905 16.1417 20
      vertex -4.50232 16.0158 20
    endloop
  endfacet
  facet normal -0 0 1
    outer loop
      vertex -6.47214 31.6085 20
      vertex -5.49905 16.1417 20
      vertex -5.49905 31.8583 20
    endloop
  endfacet
  facet normal 0 0 1
    outer loop
      vertex -6.47214 31.6085 20
      vertex -6.47214 16.3915 20
      vertex -5.49905 16.1417 20
    endloop
  endfacet
  facet normal -0 0 1
    outer loop
      vertex -7.40623 31.2386 20
      vertex -6.47214 16.3915 20
      vertex -6.47214 31.6085 20
    endloop
  endfacet
  facet normal 0 0 1
    outer loop
      vertex -7.40623 31.2386 20
      vertex -7.40623 16.7614 20
      vertex -6.47214 16.3915 20
    endloop
  endfacet
  facet normal -0 0 1
    outer loop
      vertex -8.28661 30.7546 20
      vertex -7.40623 16.7614 20
      vertex -7.40623 31.2386 20
    endloop
  endfacet
  facet normal 0 0 1
    outer loop
      vertex -8.28661 30.7546 20
      vertex -8.28661 17.2454 20
      vertex -7.40623 16.7614 20
    endloop
  endfacet
  facet normal -0 0 1
    outer loop
      vertex -9.09939 30.1641 20
      vertex -8.28661 17.2454 20
      vertex -8.28661 30.7546 20
    endloop
  endfacet
  facet normal 0 0 1
    outer loop
      vertex -9.09939 30.1641 20
      vertex -9.09939 17.8359 20
      vertex -8.28661 17.2454 20
    endloop
  endfacet
  facet normal -0 0 1
    outer loop
      vertex -9.83175 29.4764 20
      vertex -9.09939 17.8359 20
      vertex -9.09939 30.1641 20
    endloop
  endfacet
  facet normal 0 0 1
    outer loop
      vertex -9.83175 29.4764 20
      vertex -9.83175 18.5236 20
      vertex -9.09939 17.8359 20
    endloop
  endfacet
  facet normal -0 0 1
    outer loop
      vertex -10.4721 28.7023 20
      vertex -9.83175 18.5236 20
      vertex -9.83175 29.4764 20
    endloop
  endfacet
  facet normal 0 0 1
    outer loop
      vertex -10.4721 28.7023 20
      vertex -10.4721 19.2977 20
      vertex -9.83175 18.5236 20
    endloop
  endfacet
  facet normal -0 0 1
    outer loop
      vertex -11.0105 27.854 20
      vertex -10.4721 19.2977 20
      vertex -10.4721 28.7023 20
    endloop
  endfacet
  facet normal 0 0 1
    outer loop
      vertex -11.0105 27.854 20
      vertex -11.0105 20.146 20
      vertex -10.4721 19.2977 20
    endloop
  endfacet
  facet normal -0 0 1
    outer loop
      vertex -11.4382 26.945 20
      vertex -11.0105 20.146 20
      vertex -11.0105 27.854 20
    endloop
  endfacet
  facet normal 0 0 1
    outer loop
      vertex -11.4382 26.945 20
      vertex -11.4382 21.055 20
      vertex -11.0105 20.146 20
    endloop
  endfacet
  facet normal -0 0 1
    outer loop
      vertex -11.7487 25.9895 20
      vertex -11.4382 21.055 20
      vertex -11.4382 26.945 20
    endloop
  endfacet
  facet normal 0 0 1
    outer loop
      vertex -11.7487 25.9895 20
      vertex -11.7487 22.0105 20
      vertex -11.4382 21.055 20
    endloop
  endfacet
  facet normal -0 0 1
    outer loop
      vertex -11.9369 25.0027 20
      vertex -11.7487 22.0105 20
      vertex -11.7487 25.9895 20
    endloop
  endfacet
  facet normal 0 0 1
    outer loop
      vertex -11.9369 25.0027 20
      vertex -11.9369 22.9973 20
      vertex -11.7487 22.0105 20
    endloop
  endfacet
  facet normal 0 -0 1
    outer loop
      vertex -11.9369 22.9973 20
      vertex -11.9369 25.0027 20
      vertex -12 24 20
    endloop
  endfacet
  facet normal -0.368183 0.929753 0
    outer loop
      vertex -6.47214 31.6085 12
      vertex -7.40623 31.2386 20
      vertex -6.47214 31.6085 20
    endloop
  endfacet
  facet normal -0.368183 0.929753 0
    outer loop
      vertex -7.40623 31.2386 20
      vertex -6.47214 31.6085 12
      vertex -7.40623 31.2386 12
    endloop
  endfacet
  facet normal -0.998026 -0.0628058 0
    outer loop
      vertex -11.9369 22.9973 12
      vertex -12 24 20
      vertex -12 24 12
    endloop
  endfacet
  facet normal -0.998026 -0.0628058 0
    outer loop
      vertex -12 24 20
      vertex -11.9369 22.9973 12
      vertex -11.9369 22.9973 20
    endloop
  endfacet
  facet normal 0.125319 -0.992117 0
    outer loop
      vertex -3.49767 16.0158 12
      vertex -2.50095 16.1417 20
      vertex -3.49767 16.0158 20
    endloop
  endfacet
  facet normal 0.125319 -0.992117 0
    outer loop
      vertex -2.50095 16.1417 20
      vertex -3.49767 16.0158 12
      vertex -2.50095 16.1417 12
    endloop
  endfacet
  facet normal -0.587773 -0.809026 0
    outer loop
      vertex -9.09939 17.8359 12
      vertex -8.28661 17.2454 20
      vertex -9.09939 17.8359 20
    endloop
  endfacet
  facet normal -0.587773 -0.809026 -0
    outer loop
      vertex -8.28661 17.2454 20
      vertex -9.09939 17.8359 12
      vertex -8.28661 17.2454 12
    endloop
  endfacet
  facet normal 0.125319 0.992117 -0
    outer loop
      vertex -2.50095 31.8583 12
      vertex -3.49767 31.9842 20
      vertex -2.50095 31.8583 20
    endloop
  endfacet
  facet normal 0.125319 0.992117 0
    outer loop
      vertex -3.49767 31.9842 20
      vertex -2.50095 31.8583 12
      vertex -3.49767 31.9842 12
    endloop
  endfacet
  facet normal -0.587773 0.809026 0
    outer loop
      vertex -8.28661 30.7546 12
      vertex -9.09939 30.1641 20
      vertex -8.28661 30.7546 20
    endloop
  endfacet
  facet normal -0.587773 0.809026 0
    outer loop
      vertex -9.09939 30.1641 20
      vertex -8.28661 30.7546 12
      vertex -9.09939 30.1641 12
    endloop
  endfacet
  facet normal -0.68453 0.728984 0
    outer loop
      vertex -9.09939 30.1641 12
      vertex -9.83175 29.4764 20
      vertex -9.09939 30.1641 20
    endloop
  endfacet
  facet normal -0.68453 0.728984 0
    outer loop
      vertex -9.83175 29.4764 20
      vertex -9.09939 30.1641 12
      vertex -9.83175 29.4764 12
    endloop
  endfacet
  facet normal -0.368183 -0.929753 0
    outer loop
      vertex -7.40623 16.7614 12
      vertex -6.47214 16.3915 20
      vertex -7.40623 16.7614 20
    endloop
  endfacet
  facet normal -0.368183 -0.929753 -0
    outer loop
      vertex -6.47214 16.3915 20
      vertex -7.40623 16.7614 12
      vertex -6.47214 16.3915 12
    endloop
  endfacet
  facet normal 0.248646 0.968594 -0
    outer loop
      vertex -1.52786 31.6085 12
      vertex -2.50095 31.8583 20
      vertex -1.52786 31.6085 20
    endloop
  endfacet
  facet normal 0.248646 0.968594 0
    outer loop
      vertex -2.50095 31.8583 20
      vertex -1.52786 31.6085 12
      vertex -2.50095 31.8583 12
    endloop
  endfacet
  facet normal -0.982295 0.187341 0
    outer loop
      vertex -11.9369 25.0027 12
      vertex -11.7487 25.9895 20
      vertex -11.7487 25.9895 12
    endloop
  endfacet
  facet normal -0.982295 0.187341 0
    outer loop
      vertex -11.7487 25.9895 20
      vertex -11.9369 25.0027 12
      vertex -11.9369 25.0027 20
    endloop
  endfacet
  facet normal -0.951045 0.309052 0
    outer loop
      vertex -11.7487 25.9895 12
      vertex -11.4382 26.945 20
      vertex -11.4382 26.945 12
    endloop
  endfacet
  facet normal -0.951045 0.309052 0
    outer loop
      vertex -11.4382 26.945 20
      vertex -11.7487 25.9895 12
      vertex -11.7487 25.9895 20
    endloop
  endfacet
  facet normal -0.248646 -0.968594 0
    outer loop
      vertex -6.47214 16.3915 12
      vertex -5.49905 16.1417 20
      vertex -6.47214 16.3915 20
    endloop
  endfacet
  facet normal -0.248646 -0.968594 -0
    outer loop
      vertex -5.49905 16.1417 20
      vertex -6.47214 16.3915 12
      vertex -5.49905 16.1417 12
    endloop
  endfacet
  facet normal 0.248668 0 -0.968589
    outer loop
      vertex 17.4991 -40 -39.8583
      vertex 18.4721 12 -39.6085
      vertex 18.4721 -40 -39.6085
    endloop
  endfacet
  facet normal 0.248668 0 -0.968589
    outer loop
      vertex 18.4721 12 -39.6085
      vertex 17.4991 -40 -39.8583
      vertex 17.4991 12 -39.8583
    endloop
  endfacet
  facet normal 0.982295 -0 0.187341
    outer loop
      vertex 23.7487 -40 -30.0105
      vertex 23.9369 12 -30.9973
      vertex 23.7487 12 -30.0105
    endloop
  endfacet
  facet normal 0.982295 0 0.187341
    outer loop
      vertex 23.9369 12 -30.9973
      vertex 23.7487 -40 -30.0105
      vertex 23.9369 -40 -30.9973
    endloop
  endfacet
  facet normal 0.998026 -0 0.0628058
    outer loop
      vertex 23.9369 -40 -30.9973
      vertex 24 12 -32
      vertex 23.9369 12 -30.9973
    endloop
  endfacet
  facet normal 0.998026 0 0.0628058
    outer loop
      vertex 24 12 -32
      vertex 23.9369 -40 -30.9973
      vertex 24 -40 -32
    endloop
  endfacet
  facet normal 0.951045 -0 0.309052
    outer loop
      vertex 23.4382 -40 -29.055
      vertex 23.7487 12 -30.0105
      vertex 23.4382 12 -29.055
    endloop
  endfacet
  facet normal 0.951045 0 0.309052
    outer loop
      vertex 23.7487 12 -30.0105
      vertex 23.4382 -40 -29.055
      vertex 23.7487 -40 -30.0105
    endloop
  endfacet
  facet normal 0.368179 0 0.929755
    outer loop
      vertex 18.4721 12 -24.3915
      vertex 19.4062 -40 -24.7614
      vertex 19.4062 12 -24.7614
    endloop
  endfacet
  facet normal 0.368179 0 0.929755
    outer loop
      vertex 19.4062 -40 -24.7614
      vertex 18.4721 12 -24.3915
      vertex 18.4721 -40 -24.3915
    endloop
  endfacet
  facet normal -0.998027 0 -0.062786
    outer loop
      vertex 8.06308 -40 -33.0027
      vertex 8 12 -32
      vertex 8.06308 12 -33.0027
    endloop
  endfacet
  facet normal -0.998027 -0 -0.062786
    outer loop
      vertex 8 12 -32
      vertex 8.06308 -40 -33.0027
      vertex 8 -40 -32
    endloop
  endfacet
  facet normal -0.368179 0 0.929755
    outer loop
      vertex 12.5938 12 -24.7614
      vertex 13.5279 -40 -24.3915
      vertex 13.5279 12 -24.3915
    endloop
  endfacet
  facet normal -0.368179 0 0.929755
    outer loop
      vertex 13.5279 -40 -24.3915
      vertex 12.5938 12 -24.7614
      vertex 12.5938 -40 -24.7614
    endloop
  endfacet
  facet normal 0.481751 0 0.876308
    outer loop
      vertex 19.4062 12 -24.7614
      vertex 20.2866 -40 -25.2454
      vertex 20.2866 12 -25.2454
    endloop
  endfacet
  facet normal 0.481751 0 0.876308
    outer loop
      vertex 20.2866 -40 -25.2454
      vertex 19.4062 12 -24.7614
      vertex 19.4062 -40 -24.7614
    endloop
  endfacet
  facet normal -0.998027 0 0.062786
    outer loop
      vertex 8 -40 -32
      vertex 8.06308 12 -30.9973
      vertex 8 12 -32
    endloop
  endfacet
  facet normal -0.998027 0 0.062786
    outer loop
      vertex 8.06308 12 -30.9973
      vertex 8 -40 -32
      vertex 8.06308 -40 -30.9973
    endloop
  endfacet
  facet normal -0.125309 0 -0.992118
    outer loop
      vertex 14.5009 -40 -39.8583
      vertex 15.4977 12 -39.9842
      vertex 15.4977 -40 -39.9842
    endloop
  endfacet
  facet normal -0.125309 0 -0.992118
    outer loop
      vertex 15.4977 12 -39.9842
      vertex 14.5009 -40 -39.8583
      vertex 14.5009 12 -39.8583
    endloop
  endfacet
  facet normal -0.68456 0 -0.728956
    outer loop
      vertex 10.1683 -40 -37.4764
      vertex 10.9006 12 -38.1641
      vertex 10.9006 -40 -38.1641
    endloop
  endfacet
  facet normal -0.68456 0 -0.728956
    outer loop
      vertex 10.9006 12 -38.1641
      vertex 10.1683 -40 -37.4764
      vertex 10.1683 12 -37.4764
    endloop
  endfacet
  facet normal 0.68456 0 -0.728956
    outer loop
      vertex 21.0994 -40 -38.1641
      vertex 21.8317 12 -37.4764
      vertex 21.8317 -40 -37.4764
    endloop
  endfacet
  facet normal 0.68456 0 -0.728956
    outer loop
      vertex 21.8317 12 -37.4764
      vertex 21.0994 -40 -38.1641
      vertex 21.0994 12 -38.1641
    endloop
  endfacet
  facet normal 0.844304 0 -0.535864
    outer loop
      vertex 23.0105 -40 -35.854
      vertex 22.4721 12 -36.7023
      vertex 23.0105 12 -35.854
    endloop
  endfacet
  facet normal 0.844304 0 -0.535864
    outer loop
      vertex 22.4721 12 -36.7023
      vertex 23.0105 -40 -35.854
      vertex 22.4721 -40 -36.7023
    endloop
  endfacet
  facet normal -0.770489 0 0.637453
    outer loop
      vertex 9.52786 -40 -27.2977
      vertex 10.1683 12 -26.5236
      vertex 9.52786 12 -27.2977
    endloop
  endfacet
  facet normal -0.770489 0 0.637453
    outer loop
      vertex 10.1683 12 -26.5236
      vertex 9.52786 -40 -27.2977
      vertex 10.1683 -40 -26.5236
    endloop
  endfacet
  facet normal -0.844345 0 -0.5358
    outer loop
      vertex 9.52786 -40 -36.7023
      vertex 8.98955 12 -35.854
      vertex 9.52786 12 -36.7023
    endloop
  endfacet
  facet normal -0.844345 -0 -0.5358
    outer loop
      vertex 8.98955 12 -35.854
      vertex 9.52786 -40 -36.7023
      vertex 8.98955 -40 -35.854
    endloop
  endfacet
  facet normal -0.982286 0 0.187389
    outer loop
      vertex 8.06308 -40 -30.9973
      vertex 8.25133 12 -30.0105
      vertex 8.06308 12 -30.9973
    endloop
  endfacet
  facet normal -0.982286 0 0.187389
    outer loop
      vertex 8.25133 12 -30.0105
      vertex 8.06308 -40 -30.9973
      vertex 8.25133 -40 -30.0105
    endloop
  endfacet
  facet normal -0.248668 0 0.968589
    outer loop
      vertex 13.5279 12 -24.3915
      vertex 14.5009 -40 -24.1417
      vertex 14.5009 12 -24.1417
    endloop
  endfacet
  facet normal -0.248668 0 0.968589
    outer loop
      vertex 14.5009 -40 -24.1417
      vertex 13.5279 12 -24.3915
      vertex 13.5279 -40 -24.3915
    endloop
  endfacet
  facet normal 0.904844 -0 0.425744
    outer loop
      vertex 23.0105 -40 -28.146
      vertex 23.4382 12 -29.055
      vertex 23.0105 12 -28.146
    endloop
  endfacet
  facet normal 0.904844 0 0.425744
    outer loop
      vertex 23.4382 12 -29.055
      vertex 23.0105 -40 -28.146
      vertex 23.4382 -40 -29.055
    endloop
  endfacet
  facet normal 0.844304 -0 0.535864
    outer loop
      vertex 22.4721 -40 -27.2977
      vertex 23.0105 12 -28.146
      vertex 22.4721 12 -27.2977
    endloop
  endfacet
  facet normal 0.844304 0 0.535864
    outer loop
      vertex 23.0105 12 -28.146
      vertex 22.4721 -40 -27.2977
      vertex 23.0105 -40 -28.146
    endloop
  endfacet
  facet normal -0.904821 0 -0.425793
    outer loop
      vertex 8.98955 -40 -35.854
      vertex 8.56179 12 -34.945
      vertex 8.98955 12 -35.854
    endloop
  endfacet
  facet normal -0.904821 -0 -0.425793
    outer loop
      vertex 8.56179 12 -34.945
      vertex 8.98955 -40 -35.854
      vertex 8.56179 -40 -34.945
    endloop
  endfacet
  facet normal -0.951057 0 -0.309016
    outer loop
      vertex 8.56179 -40 -34.945
      vertex 8.25133 12 -33.9895
      vertex 8.56179 12 -34.945
    endloop
  endfacet
  facet normal -0.951057 -0 -0.309016
    outer loop
      vertex 8.25133 12 -33.9895
      vertex 8.56179 -40 -34.945
      vertex 8.25133 -40 -33.9895
    endloop
  endfacet
  facet normal 0.587763 0 0.809033
    outer loop
      vertex 20.2866 12 -25.2454
      vertex 21.0994 -40 -25.8359
      vertex 21.0994 12 -25.8359
    endloop
  endfacet
  facet normal 0.587763 0 0.809033
    outer loop
      vertex 21.0994 -40 -25.8359
      vertex 20.2866 12 -25.2454
      vertex 20.2866 -40 -25.2454
    endloop
  endfacet
  facet normal -0.951057 0 0.309016
    outer loop
      vertex 8.25133 -40 -30.0105
      vertex 8.56179 12 -29.055
      vertex 8.25133 12 -30.0105
    endloop
  endfacet
  facet normal -0.951057 0 0.309016
    outer loop
      vertex 8.56179 12 -29.055
      vertex 8.25133 -40 -30.0105
      vertex 8.56179 -40 -29.055
    endloop
  endfacet
  facet normal 0.125309 0 -0.992118
    outer loop
      vertex 16.5023 -40 -39.9842
      vertex 17.4991 12 -39.8583
      vertex 17.4991 -40 -39.8583
    endloop
  endfacet
  facet normal 0.125309 0 -0.992118
    outer loop
      vertex 17.4991 12 -39.8583
      vertex 16.5023 -40 -39.9842
      vertex 16.5023 12 -39.9842
    endloop
  endfacet
  facet normal 0.68456 0 0.728956
    outer loop
      vertex 21.0994 12 -25.8359
      vertex 21.8317 -40 -26.5236
      vertex 21.8317 12 -26.5236
    endloop
  endfacet
  facet normal 0.68456 0 0.728956
    outer loop
      vertex 21.8317 -40 -26.5236
      vertex 21.0994 12 -25.8359
      vertex 21.0994 -40 -25.8359
    endloop
  endfacet
  facet normal -0.844345 0 0.5358
    outer loop
      vertex 8.98955 -40 -28.146
      vertex 9.52786 12 -27.2977
      vertex 8.98955 12 -28.146
    endloop
  endfacet
  facet normal -0.844345 0 0.5358
    outer loop
      vertex 9.52786 12 -27.2977
      vertex 8.98955 -40 -28.146
      vertex 9.52786 -40 -27.2977
    endloop
  endfacet
  facet normal -0.481751 0 -0.876308
    outer loop
      vertex 11.7134 -40 -38.7546
      vertex 12.5938 12 -39.2386
      vertex 12.5938 -40 -39.2386
    endloop
  endfacet
  facet normal -0.481751 0 -0.876308
    outer loop
      vertex 12.5938 12 -39.2386
      vertex 11.7134 -40 -38.7546
      vertex 11.7134 12 -38.7546
    endloop
  endfacet
  facet normal 0 1 0
    outer loop
      vertex 17.4991 12 -24.1417
      vertex 15.4977 12 -24.0158
      vertex 16.5023 12 -24.0158
    endloop
  endfacet
  facet normal 0 1 0
    outer loop
      vertex 17.4991 12 -24.1417
      vertex 14.5009 12 -24.1417
      vertex 15.4977 12 -24.0158
    endloop
  endfacet
  facet normal 0 1 0
    outer loop
      vertex 18.4721 12 -24.3915
      vertex 14.5009 12 -24.1417
      vertex 17.4991 12 -24.1417
    endloop
  endfacet
  facet normal 0 1 0
    outer loop
      vertex 18.4721 12 -24.3915
      vertex 13.5279 12 -24.3915
      vertex 14.5009 12 -24.1417
    endloop
  endfacet
  facet normal 0 1 0
    outer loop
      vertex 19.4062 12 -24.7614
      vertex 13.5279 12 -24.3915
      vertex 18.4721 12 -24.3915
    endloop
  endfacet
  facet normal 0 1 0
    outer loop
      vertex 19.4062 12 -24.7614
      vertex 12.5938 12 -24.7614
      vertex 13.5279 12 -24.3915
    endloop
  endfacet
  facet normal 0 1 0
    outer loop
      vertex 20.2866 12 -25.2454
      vertex 12.5938 12 -24.7614
      vertex 19.4062 12 -24.7614
    endloop
  endfacet
  facet normal 0 1 0
    outer loop
      vertex 20.2866 12 -25.2454
      vertex 11.7134 12 -25.2454
      vertex 12.5938 12 -24.7614
    endloop
  endfacet
  facet normal 0 1 0
    outer loop
      vertex 21.0994 12 -25.8359
      vertex 11.7134 12 -25.2454
      vertex 20.2866 12 -25.2454
    endloop
  endfacet
  facet normal 0 1 0
    outer loop
      vertex 21.0994 12 -25.8359
      vertex 10.9006 12 -25.8359
      vertex 11.7134 12 -25.2454
    endloop
  endfacet
  facet normal 0 1 0
    outer loop
      vertex 21.8317 12 -26.5236
      vertex 10.9006 12 -25.8359
      vertex 21.0994 12 -25.8359
    endloop
  endfacet
  facet normal 0 1 0
    outer loop
      vertex 21.8317 12 -26.5236
      vertex 10.1683 12 -26.5236
      vertex 10.9006 12 -25.8359
    endloop
  endfacet
  facet normal 0 1 0
    outer loop
      vertex 22.4721 12 -27.2977
      vertex 10.1683 12 -26.5236
      vertex 21.8317 12 -26.5236
    endloop
  endfacet
  facet normal 0 1 0
    outer loop
      vertex 22.4721 12 -27.2977
      vertex 9.52786 12 -27.2977
      vertex 10.1683 12 -26.5236
    endloop
  endfacet
  facet normal 0 1 0
    outer loop
      vertex 23.0105 12 -28.146
      vertex 9.52786 12 -27.2977
      vertex 22.4721 12 -27.2977
    endloop
  endfacet
  facet normal 0 1 0
    outer loop
      vertex 23.0105 12 -28.146
      vertex 8.98955 12 -28.146
      vertex 9.52786 12 -27.2977
    endloop
  endfacet
  facet normal 0 1 0
    outer loop
      vertex 23.4382 12 -29.055
      vertex 8.98955 12 -28.146
      vertex 23.0105 12 -28.146
    endloop
  endfacet
  facet normal 0 1 0
    outer loop
      vertex 23.4382 12 -29.055
      vertex 8.56179 12 -29.055
      vertex 8.98955 12 -28.146
    endloop
  endfacet
  facet normal 0 1 0
    outer loop
      vertex 23.7487 12 -30.0105
      vertex 8.56179 12 -29.055
      vertex 23.4382 12 -29.055
    endloop
  endfacet
  facet normal 0 1 0
    outer loop
      vertex 23.7487 12 -30.0105
      vertex 8.25133 12 -30.0105
      vertex 8.56179 12 -29.055
    endloop
  endfacet
  facet normal 0 1 0
    outer loop
      vertex 23.9369 12 -30.9973
      vertex 8.25133 12 -30.0105
      vertex 23.7487 12 -30.0105
    endloop
  endfacet
  facet normal 0 1 0
    outer loop
      vertex 23.9369 12 -30.9973
      vertex 8.06308 12 -30.9973
      vertex 8.25133 12 -30.0105
    endloop
  endfacet
  facet normal 0 1 0
    outer loop
      vertex 24 12 -32
      vertex 8.06308 12 -30.9973
      vertex 23.9369 12 -30.9973
    endloop
  endfacet
  facet normal 0 1 0
    outer loop
      vertex 24 12 -32
      vertex 8 12 -32
      vertex 8.06308 12 -30.9973
    endloop
  endfacet
  facet normal 0 1 -0
    outer loop
      vertex 23.9369 12 -33.0027
      vertex 8 12 -32
      vertex 24 12 -32
    endloop
  endfacet
  facet normal 0 1 0
    outer loop
      vertex 23.9369 12 -33.0027
      vertex 8.06308 12 -33.0027
      vertex 8 12 -32
    endloop
  endfacet
  facet normal 0 1 -0
    outer loop
      vertex 23.7487 12 -33.9895
      vertex 8.06308 12 -33.0027
      vertex 23.9369 12 -33.0027
    endloop
  endfacet
  facet normal 0 1 0
    outer loop
      vertex 23.7487 12 -33.9895
      vertex 8.25133 12 -33.9895
      vertex 8.06308 12 -33.0027
    endloop
  endfacet
  facet normal 0 1 -0
    outer loop
      vertex 23.4382 12 -34.945
      vertex 8.25133 12 -33.9895
      vertex 23.7487 12 -33.9895
    endloop
  endfacet
  facet normal 0 1 0
    outer loop
      vertex 23.4382 12 -34.945
      vertex 8.56179 12 -34.945
      vertex 8.25133 12 -33.9895
    endloop
  endfacet
  facet normal 0 1 -0
    outer loop
      vertex 23.0105 12 -35.854
      vertex 8.56179 12 -34.945
      vertex 23.4382 12 -34.945
    endloop
  endfacet
  facet normal 0 1 0
    outer loop
      vertex 23.0105 12 -35.854
      vertex 8.98955 12 -35.854
      vertex 8.56179 12 -34.945
    endloop
  endfacet
  facet normal 0 1 -0
    outer loop
      vertex 22.4721 12 -36.7023
      vertex 8.98955 12 -35.854
      vertex 23.0105 12 -35.854
    endloop
  endfacet
  facet normal 0 1 0
    outer loop
      vertex 22.4721 12 -36.7023
      vertex 9.52786 12 -36.7023
      vertex 8.98955 12 -35.854
    endloop
  endfacet
  facet normal 0 1 -0
    outer loop
      vertex 21.8317 12 -37.4764
      vertex 9.52786 12 -36.7023
      vertex 22.4721 12 -36.7023
    endloop
  endfacet
  facet normal 0 1 0
    outer loop
      vertex 21.8317 12 -37.4764
      vertex 10.1683 12 -37.4764
      vertex 9.52786 12 -36.7023
    endloop
  endfacet
  facet normal 0 1 -0
    outer loop
      vertex 21.0994 12 -38.1641
      vertex 10.1683 12 -37.4764
      vertex 21.8317 12 -37.4764
    endloop
  endfacet
  facet normal 0 1 0
    outer loop
      vertex 21.0994 12 -38.1641
      vertex 10.9006 12 -38.1641
      vertex 10.1683 12 -37.4764
    endloop
  endfacet
  facet normal 0 1 -0
    outer loop
      vertex 20.2866 12 -38.7546
      vertex 10.9006 12 -38.1641
      vertex 21.0994 12 -38.1641
    endloop
  endfacet
  facet normal 0 1 0
    outer loop
      vertex 20.2866 12 -38.7546
      vertex 11.7134 12 -38.7546
      vertex 10.9006 12 -38.1641
    endloop
  endfacet
  facet normal 0 1 -0
    outer loop
      vertex 19.4062 12 -39.2386
      vertex 11.7134 12 -38.7546
      vertex 20.2866 12 -38.7546
    endloop
  endfacet
  facet normal 0 1 0
    outer loop
      vertex 19.4062 12 -39.2386
      vertex 12.5938 12 -39.2386
      vertex 11.7134 12 -38.7546
    endloop
  endfacet
  facet normal 0 1 -0
    outer loop
      vertex 18.4721 12 -39.6085
      vertex 12.5938 12 -39.2386
      vertex 19.4062 12 -39.2386
    endloop
  endfacet
  facet normal 0 1 0
    outer loop
      vertex 18.4721 12 -39.6085
      vertex 13.5279 12 -39.6085
      vertex 12.5938 12 -39.2386
    endloop
  endfacet
  facet normal 0 1 -0
    outer loop
      vertex 17.4991 12 -39.8583
      vertex 13.5279 12 -39.6085
      vertex 18.4721 12 -39.6085
    endloop
  endfacet
  facet normal 0 1 0
    outer loop
      vertex 17.4991 12 -39.8583
      vertex 14.5009 12 -39.8583
      vertex 13.5279 12 -39.6085
    endloop
  endfacet
  facet normal 0 1 -0
    outer loop
      vertex 16.5023 12 -39.9842
      vertex 14.5009 12 -39.8583
      vertex 17.4991 12 -39.8583
    endloop
  endfacet
  facet normal 0 1 0
    outer loop
      vertex 14.5009 12 -39.8583
      vertex 16.5023 12 -39.9842
      vertex 15.4977 12 -39.9842
    endloop
  endfacet
  facet normal 0.770509 -0 0.637429
    outer loop
      vertex 21.8317 -40 -26.5236
      vertex 22.4721 12 -27.2977
      vertex 21.8317 12 -26.5236
    endloop
  endfacet
  facet normal 0.770509 0 0.637429
    outer loop
      vertex 22.4721 12 -27.2977
      vertex 21.8317 -40 -26.5236
      vertex 22.4721 -40 -27.2977
    endloop
  endfacet
  facet normal -0.770489 0 -0.637453
    outer loop
      vertex 10.1683 -40 -37.4764
      vertex 9.52786 12 -36.7023
      vertex 10.1683 12 -37.4764
    endloop
  endfacet
  facet normal -0.770489 -0 -0.637453
    outer loop
      vertex 9.52786 12 -36.7023
      vertex 10.1683 -40 -37.4764
      vertex 9.52786 -40 -36.7023
    endloop
  endfacet
  facet normal 0.770509 0 -0.637429
    outer loop
      vertex 22.4721 -40 -36.7023
      vertex 21.8317 12 -37.4764
      vertex 22.4721 12 -36.7023
    endloop
  endfacet
  facet normal 0.770509 0 -0.637429
    outer loop
      vertex 21.8317 12 -37.4764
      vertex 22.4721 -40 -36.7023
      vertex 21.8317 -40 -37.4764
    endloop
  endfacet
  facet normal 0.951045 0 -0.309052
    outer loop
      vertex 23.7487 -40 -33.9895
      vertex 23.4382 12 -34.945
      vertex 23.7487 12 -33.9895
    endloop
  endfacet
  facet normal 0.951045 0 -0.309052
    outer loop
      vertex 23.4382 12 -34.945
      vertex 23.7487 -40 -33.9895
      vertex 23.4382 -40 -34.945
    endloop
  endfacet
  facet normal 0.368179 0 -0.929755
    outer loop
      vertex 18.4721 -40 -39.6085
      vertex 19.4062 12 -39.2386
      vertex 19.4062 -40 -39.2386
    endloop
  endfacet
  facet normal 0.368179 0 -0.929755
    outer loop
      vertex 19.4062 12 -39.2386
      vertex 18.4721 -40 -39.6085
      vertex 18.4721 12 -39.6085
    endloop
  endfacet
  facet normal 0.904844 0 -0.425744
    outer loop
      vertex 23.4382 -40 -34.945
      vertex 23.0105 12 -35.854
      vertex 23.4382 12 -34.945
    endloop
  endfacet
  facet normal 0.904844 0 -0.425744
    outer loop
      vertex 23.0105 12 -35.854
      vertex 23.4382 -40 -34.945
      vertex 23.0105 -40 -35.854
    endloop
  endfacet
  facet normal -0.481751 0 0.876308
    outer loop
      vertex 11.7134 12 -25.2454
      vertex 12.5938 -40 -24.7614
      vertex 12.5938 12 -24.7614
    endloop
  endfacet
  facet normal -0.481751 0 0.876308
    outer loop
      vertex 12.5938 -40 -24.7614
      vertex 11.7134 12 -25.2454
      vertex 11.7134 -40 -25.2454
    endloop
  endfacet
  facet normal -0.68456 0 0.728956
    outer loop
      vertex 10.1683 12 -26.5236
      vertex 10.9006 -40 -25.8359
      vertex 10.9006 12 -25.8359
    endloop
  endfacet
  facet normal -0.68456 0 0.728956
    outer loop
      vertex 10.9006 -40 -25.8359
      vertex 10.1683 12 -26.5236
      vertex 10.1683 -40 -26.5236
    endloop
  endfacet
  facet normal 0.998026 0 -0.0628058
    outer loop
      vertex 24 -40 -32
      vertex 23.9369 12 -33.0027
      vertex 24 12 -32
    endloop
  endfacet
  facet normal 0.998026 0 -0.0628058
    outer loop
      vertex 23.9369 12 -33.0027
      vertex 24 -40 -32
      vertex 23.9369 -40 -33.0027
    endloop
  endfacet
  facet normal -0 0 1
    outer loop
      vertex 15.4977 12 -24.0158
      vertex 16.5023 -40 -24.0158
      vertex 16.5023 12 -24.0158
    endloop
  endfacet
  facet normal 0 0 1
    outer loop
      vertex 16.5023 -40 -24.0158
      vertex 15.4977 12 -24.0158
      vertex 15.4977 -40 -24.0158
    endloop
  endfacet
  facet normal -0.125309 0 0.992118
    outer loop
      vertex 14.5009 12 -24.1417
      vertex 15.4977 -40 -24.0158
      vertex 15.4977 12 -24.0158
    endloop
  endfacet
  facet normal -0.125309 0 0.992118
    outer loop
      vertex 15.4977 -40 -24.0158
      vertex 14.5009 12 -24.1417
      vertex 14.5009 -40 -24.1417
    endloop
  endfacet
  facet normal -0.587763 0 -0.809033
    outer loop
      vertex 10.9006 -40 -38.1641
      vertex 11.7134 12 -38.7546
      vertex 11.7134 -40 -38.7546
    endloop
  endfacet
  facet normal -0.587763 0 -0.809033
    outer loop
      vertex 11.7134 12 -38.7546
      vertex 10.9006 -40 -38.1641
      vertex 10.9006 12 -38.1641
    endloop
  endfacet
  facet normal 0.481751 0 -0.876308
    outer loop
      vertex 19.4062 -40 -39.2386
      vertex 20.2866 12 -38.7546
      vertex 20.2866 -40 -38.7546
    endloop
  endfacet
  facet normal 0.481751 0 -0.876308
    outer loop
      vertex 20.2866 12 -38.7546
      vertex 19.4062 -40 -39.2386
      vertex 19.4062 12 -39.2386
    endloop
  endfacet
  facet normal 0.587763 0 -0.809033
    outer loop
      vertex 20.2866 -40 -38.7546
      vertex 21.0994 12 -38.1641
      vertex 21.0994 -40 -38.1641
    endloop
  endfacet
  facet normal 0.587763 0 -0.809033
    outer loop
      vertex 21.0994 12 -38.1641
      vertex 20.2866 -40 -38.7546
      vertex 20.2866 12 -38.7546
    endloop
  endfacet
  facet normal 0.982295 0 -0.187341
    outer loop
      vertex 23.9369 -40 -33.0027
      vertex 23.7487 12 -33.9895
      vertex 23.9369 12 -33.0027
    endloop
  endfacet
  facet normal 0.982295 0 -0.187341
    outer loop
      vertex 23.7487 12 -33.9895
      vertex 23.9369 -40 -33.0027
      vertex 23.7487 -40 -33.9895
    endloop
  endfacet
  facet normal 0 0 -1
    outer loop
      vertex 15.4977 -40 -39.9842
      vertex 16.5023 12 -39.9842
      vertex 16.5023 -40 -39.9842
    endloop
  endfacet
  facet normal -0 0 -1
    outer loop
      vertex 16.5023 12 -39.9842
      vertex 15.4977 -40 -39.9842
      vertex 15.4977 12 -39.9842
    endloop
  endfacet
  facet normal -0.904821 0 0.425793
    outer loop
      vertex 8.56179 -40 -29.055
      vertex 8.98955 12 -28.146
      vertex 8.56179 12 -29.055
    endloop
  endfacet
  facet normal -0.904821 0 0.425793
    outer loop
      vertex 8.98955 12 -28.146
      vertex 8.56179 -40 -29.055
      vertex 8.98955 -40 -28.146
    endloop
  endfacet
  facet normal -0.982286 0 -0.187389
    outer loop
      vertex 8.25133 -40 -33.9895
      vertex 8.06308 12 -33.0027
      vertex 8.25133 12 -33.9895
    endloop
  endfacet
  facet normal -0.982286 -0 -0.187389
    outer loop
      vertex 8.06308 12 -33.0027
      vertex 8.25133 -40 -33.9895
      vertex 8.06308 -40 -33.0027
    endloop
  endfacet
  facet normal 0.125309 0 0.992118
    outer loop
      vertex 16.5023 12 -24.0158
      vertex 17.4991 -40 -24.1417
      vertex 17.4991 12 -24.1417
    endloop
  endfacet
  facet normal 0.125309 0 0.992118
    outer loop
      vertex 17.4991 -40 -24.1417
      vertex 16.5023 12 -24.0158
      vertex 16.5023 -40 -24.0158
    endloop
  endfacet
  facet normal -0.587763 0 0.809033
    outer loop
      vertex 10.9006 12 -25.8359
      vertex 11.7134 -40 -25.2454
      vertex 11.7134 12 -25.2454
    endloop
  endfacet
  facet normal -0.587763 0 0.809033
    outer loop
      vertex 11.7134 -40 -25.2454
      vertex 10.9006 12 -25.8359
      vertex 10.9006 -40 -25.8359
    endloop
  endfacet
  facet normal -0.368179 0 -0.929755
    outer loop
      vertex 12.5938 -40 -39.2386
      vertex 13.5279 12 -39.6085
      vertex 13.5279 -40 -39.6085
    endloop
  endfacet
  facet normal -0.368179 0 -0.929755
    outer loop
      vertex 13.5279 12 -39.6085
      vertex 12.5938 -40 -39.2386
      vertex 12.5938 12 -39.2386
    endloop
  endfacet
  facet normal 0.248668 0 0.968589
    outer loop
      vertex 17.4991 12 -24.1417
      vertex 18.4721 -40 -24.3915
      vertex 18.4721 12 -24.3915
    endloop
  endfacet
  facet normal 0.248668 0 0.968589
    outer loop
      vertex 18.4721 -40 -24.3915
      vertex 17.4991 12 -24.1417
      vertex 17.4991 -40 -24.1417
    endloop
  endfacet
  facet normal -0.248668 0 -0.968589
    outer loop
      vertex 13.5279 -40 -39.6085
      vertex 14.5009 12 -39.8583
      vertex 14.5009 -40 -39.8583
    endloop
  endfacet
  facet normal -0.248668 0 -0.968589
    outer loop
      vertex 14.5009 12 -39.8583
      vertex 13.5279 -40 -39.6085
      vertex 13.5279 12 -39.6085
    endloop
  endfacet
  facet normal 0 -1 0
    outer loop
      vertex 14.5009 -40 -24.1417
      vertex 16.5023 -40 -24.0158
      vertex 15.4977 -40 -24.0158
    endloop
  endfacet
  facet normal 0 -1 0
    outer loop
      vertex 14.5009 -40 -24.1417
      vertex 17.4991 -40 -24.1417
      vertex 16.5023 -40 -24.0158
    endloop
  endfacet
  facet normal 0 -1 0
    outer loop
      vertex 13.5279 -40 -24.3915
      vertex 17.4991 -40 -24.1417
      vertex 14.5009 -40 -24.1417
    endloop
  endfacet
  facet normal 0 -1 0
    outer loop
      vertex 13.5279 -40 -24.3915
      vertex 18.4721 -40 -24.3915
      vertex 17.4991 -40 -24.1417
    endloop
  endfacet
  facet normal 0 -1 0
    outer loop
      vertex 12.5938 -40 -24.7614
      vertex 18.4721 -40 -24.3915
      vertex 13.5279 -40 -24.3915
    endloop
  endfacet
  facet normal 0 -1 0
    outer loop
      vertex 12.5938 -40 -24.7614
      vertex 19.4062 -40 -24.7614
      vertex 18.4721 -40 -24.3915
    endloop
  endfacet
  facet normal 0 -1 0
    outer loop
      vertex 11.7134 -40 -25.2454
      vertex 19.4062 -40 -24.7614
      vertex 12.5938 -40 -24.7614
    endloop
  endfacet
  facet normal 0 -1 0
    outer loop
      vertex 11.7134 -40 -25.2454
      vertex 20.2866 -40 -25.2454
      vertex 19.4062 -40 -24.7614
    endloop
  endfacet
  facet normal 0 -1 0
    outer loop
      vertex 10.9006 -40 -25.8359
      vertex 20.2866 -40 -25.2454
      vertex 11.7134 -40 -25.2454
    endloop
  endfacet
  facet normal 0 -1 0
    outer loop
      vertex 10.9006 -40 -25.8359
      vertex 21.0994 -40 -25.8359
      vertex 20.2866 -40 -25.2454
    endloop
  endfacet
  facet normal 0 -1 0
    outer loop
      vertex 10.1683 -40 -26.5236
      vertex 21.0994 -40 -25.8359
      vertex 10.9006 -40 -25.8359
    endloop
  endfacet
  facet normal 0 -1 0
    outer loop
      vertex 10.1683 -40 -26.5236
      vertex 21.8317 -40 -26.5236
      vertex 21.0994 -40 -25.8359
    endloop
  endfacet
  facet normal 0 -1 0
    outer loop
      vertex 9.52786 -40 -27.2977
      vertex 21.8317 -40 -26.5236
      vertex 10.1683 -40 -26.5236
    endloop
  endfacet
  facet normal 0 -1 0
    outer loop
      vertex 9.52786 -40 -27.2977
      vertex 22.4721 -40 -27.2977
      vertex 21.8317 -40 -26.5236
    endloop
  endfacet
  facet normal 0 -1 0
    outer loop
      vertex 8.98955 -40 -28.146
      vertex 22.4721 -40 -27.2977
      vertex 9.52786 -40 -27.2977
    endloop
  endfacet
  facet normal 0 -1 0
    outer loop
      vertex 8.98955 -40 -28.146
      vertex 23.0105 -40 -28.146
      vertex 22.4721 -40 -27.2977
    endloop
  endfacet
  facet normal 0 -1 0
    outer loop
      vertex 8.56179 -40 -29.055
      vertex 23.0105 -40 -28.146
      vertex 8.98955 -40 -28.146
    endloop
  endfacet
  facet normal 0 -1 0
    outer loop
      vertex 8.56179 -40 -29.055
      vertex 23.4382 -40 -29.055
      vertex 23.0105 -40 -28.146
    endloop
  endfacet
  facet normal 0 -1 0
    outer loop
      vertex 8.25133 -40 -30.0105
      vertex 23.4382 -40 -29.055
      vertex 8.56179 -40 -29.055
    endloop
  endfacet
  facet normal 0 -1 0
    outer loop
      vertex 8.25133 -40 -30.0105
      vertex 23.7487 -40 -30.0105
      vertex 23.4382 -40 -29.055
    endloop
  endfacet
  facet normal 0 -1 0
    outer loop
      vertex 8.06308 -40 -30.9973
      vertex 23.7487 -40 -30.0105
      vertex 8.25133 -40 -30.0105
    endloop
  endfacet
  facet normal 0 -1 0
    outer loop
      vertex 8.06308 -40 -30.9973
      vertex 23.9369 -40 -30.9973
      vertex 23.7487 -40 -30.0105
    endloop
  endfacet
  facet normal 0 -1 0
    outer loop
      vertex 8 -40 -32
      vertex 23.9369 -40 -30.9973
      vertex 8.06308 -40 -30.9973
    endloop
  endfacet
  facet normal 0 -1 0
    outer loop
      vertex 8 -40 -32
      vertex 24 -40 -32
      vertex 23.9369 -40 -30.9973
    endloop
  endfacet
  facet normal 0 -1 0
    outer loop
      vertex 8.06308 -40 -33.0027
      vertex 24 -40 -32
      vertex 8 -40 -32
    endloop
  endfacet
  facet normal 0 -1 0
    outer loop
      vertex 8.06308 -40 -33.0027
      vertex 23.9369 -40 -33.0027
      vertex 24 -40 -32
    endloop
  endfacet
  facet normal 0 -1 0
    outer loop
      vertex 8.25133 -40 -33.9895
      vertex 23.9369 -40 -33.0027
      vertex 8.06308 -40 -33.0027
    endloop
  endfacet
  facet normal 0 -1 0
    outer loop
      vertex 8.25133 -40 -33.9895
      vertex 23.7487 -40 -33.9895
      vertex 23.9369 -40 -33.0027
    endloop
  endfacet
  facet normal 0 -1 0
    outer loop
      vertex 8.56179 -40 -34.945
      vertex 23.7487 -40 -33.9895
      vertex 8.25133 -40 -33.9895
    endloop
  endfacet
  facet normal 0 -1 0
    outer loop
      vertex 8.56179 -40 -34.945
      vertex 23.4382 -40 -34.945
      vertex 23.7487 -40 -33.9895
    endloop
  endfacet
  facet normal 0 -1 0
    outer loop
      vertex 8.98955 -40 -35.854
      vertex 23.4382 -40 -34.945
      vertex 8.56179 -40 -34.945
    endloop
  endfacet
  facet normal 0 -1 0
    outer loop
      vertex 8.98955 -40 -35.854
      vertex 23.0105 -40 -35.854
      vertex 23.4382 -40 -34.945
    endloop
  endfacet
  facet normal 0 -1 0
    outer loop
      vertex 9.52786 -40 -36.7023
      vertex 23.0105 -40 -35.854
      vertex 8.98955 -40 -35.854
    endloop
  endfacet
  facet normal 0 -1 0
    outer loop
      vertex 9.52786 -40 -36.7023
      vertex 22.4721 -40 -36.7023
      vertex 23.0105 -40 -35.854
    endloop
  endfacet
  facet normal 0 -1 0
    outer loop
      vertex 10.1683 -40 -37.4764
      vertex 22.4721 -40 -36.7023
      vertex 9.52786 -40 -36.7023
    endloop
  endfacet
  facet normal 0 -1 0
    outer loop
      vertex 10.1683 -40 -37.4764
      vertex 21.8317 -40 -37.4764
      vertex 22.4721 -40 -36.7023
    endloop
  endfacet
  facet normal 0 -1 0
    outer loop
      vertex 10.9006 -40 -38.1641
      vertex 21.8317 -40 -37.4764
      vertex 10.1683 -40 -37.4764
    endloop
  endfacet
  facet normal 0 -1 0
    outer loop
      vertex 10.9006 -40 -38.1641
      vertex 21.0994 -40 -38.1641
      vertex 21.8317 -40 -37.4764
    endloop
  endfacet
  facet normal 0 -1 0
    outer loop
      vertex 11.7134 -40 -38.7546
      vertex 21.0994 -40 -38.1641
      vertex 10.9006 -40 -38.1641
    endloop
  endfacet
  facet normal 0 -1 0
    outer loop
      vertex 11.7134 -40 -38.7546
      vertex 20.2866 -40 -38.7546
      vertex 21.0994 -40 -38.1641
    endloop
  endfacet
  facet normal 0 -1 0
    outer loop
      vertex 12.5938 -40 -39.2386
      vertex 20.2866 -40 -38.7546
      vertex 11.7134 -40 -38.7546
    endloop
  endfacet
  facet normal 0 -1 0
    outer loop
      vertex 12.5938 -40 -39.2386
      vertex 19.4062 -40 -39.2386
      vertex 20.2866 -40 -38.7546
    endloop
  endfacet
  facet normal 0 -1 0
    outer loop
      vertex 13.5279 -40 -39.6085
      vertex 19.4062 -40 -39.2386
      vertex 12.5938 -40 -39.2386
    endloop
  endfacet
  facet normal 0 -1 0
    outer loop
      vertex 13.5279 -40 -39.6085
      vertex 18.4721 -40 -39.6085
      vertex 19.4062 -40 -39.2386
    endloop
  endfacet
  facet normal 0 -1 0
    outer loop
      vertex 14.5009 -40 -39.8583
      vertex 18.4721 -40 -39.6085
      vertex 13.5279 -40 -39.6085
    endloop
  endfacet
  facet normal 0 -1 0
    outer loop
      vertex 14.5009 -40 -39.8583
      vertex 17.4991 -40 -39.8583
      vertex 18.4721 -40 -39.6085
    endloop
  endfacet
  facet normal 0 -1 0
    outer loop
      vertex 15.4977 -40 -39.9842
      vertex 17.4991 -40 -39.8583
      vertex 14.5009 -40 -39.8583
    endloop
  endfacet
  facet normal 0 -1 0
    outer loop
      vertex 17.4991 -40 -39.8583
      vertex 15.4977 -40 -39.9842
      vertex 16.5023 -40 -39.9842
    endloop
  endfacet
endsolid OpenSCAD_Model
