solid OpenSCAD_Model
  facet normal -1 0 0
    outer loop
      vertex -6 -11 0
      vertex -6 11 6
      vertex -6 11 0
    endloop
  endfacet
  facet normal -1 -0 0
    outer loop
      vertex -6 11 6
      vertex -6 -11 0
      vertex -6 -11 6
    endloop
  endfacet
  facet normal 0 0 1
    outer loop
      vertex 6 11 6
      vertex 2 -5 6
      vertex 6 -11 6
    endloop
  endfacet
  facet normal 0 0 1
    outer loop
      vertex 6 11 6
      vertex -2 -5 6
      vertex 2 -5 6
    endloop
  endfacet
  facet normal -0 0 1
    outer loop
      vertex -6 11 6
      vertex -2 -5 6
      vertex 6 11 6
    endloop
  endfacet
  facet normal 0 0 1
    outer loop
      vertex -6 -11 6
      vertex -2 -5 6
      vertex -6 11 6
    endloop
  endfacet
  facet normal 0 0 1
    outer loop
      vertex -2 -5 6
      vertex -6 -11 6
      vertex -2 -11 6
    endloop
  endfacet
  facet normal 0 0 1
    outer loop
      vertex 6 -11 6
      vertex 2 -5 6
      vertex 2 -11 6
    endloop
  endfacet
  facet normal 1 -0 0
    outer loop
      vertex 6 -11 6
      vertex 6 11 0
      vertex 6 11 6
    endloop
  endfacet
  facet normal 1 0 0
    outer loop
      vertex 6 11 0
      vertex 6 -11 6
      vertex 6 -11 0
    endloop
  endfacet
  facet normal 0 -1 0
    outer loop
      vertex -6 -11 0
      vertex -2 -11 6
      vertex -6 -11 6
    endloop
  endfacet
  facet normal 0 -1 -0
    outer loop
      vertex -2 -11 6
      vertex -6 -11 0
      vertex -2 -11 0
    endloop
  endfacet
  facet normal 0 -1 0
    outer loop
      vertex 2 -11 0
      vertex 6 -11 6
      vertex 2 -11 6
    endloop
  endfacet
  facet normal 0 -1 -0
    outer loop
      vertex 6 -11 6
      vertex 2 -11 0
      vertex 6 -11 0
    endloop
  endfacet
  facet normal 0 0 -1
    outer loop
      vertex -2 -11 0
      vertex -6 -11 0
      vertex -2 -5 0
    endloop
  endfacet
  facet normal 0 0 -1
    outer loop
      vertex 2 -5 0
      vertex 6 -11 0
      vertex 2 -11 0
    endloop
  endfacet
  facet normal 0 0 -1
    outer loop
      vertex 6 -11 0
      vertex 2 -5 0
      vertex 6 11 0
    endloop
  endfacet
  facet normal 0 0 -1
    outer loop
      vertex -2 -5 0
      vertex 6 11 0
      vertex 2 -5 0
    endloop
  endfacet
  facet normal 0 0 -1
    outer loop
      vertex -6 11 0
      vertex -2 -5 0
      vertex -6 -11 0
    endloop
  endfacet
  facet normal 0 0 -1
    outer loop
      vertex -2 -5 0
      vertex -6 11 0
      vertex 6 11 0
    endloop
  endfacet
  facet normal 0 1 -0
    outer loop
      vertex 6 11 0
      vertex -6 11 6
      vertex 6 11 6
    endloop
  endfacet
  facet normal 0 1 0
    outer loop
      vertex -6 11 6
      vertex 6 11 0
      vertex -6 11 0
    endloop
  endfacet
  facet normal -1 0 0
    outer loop
      vertex 2 -11 0
      vertex 2 -5 6
      vertex 2 -5 0
    endloop
  endfacet
  facet normal -1 -0 0
    outer loop
      vertex 2 -5 6
      vertex 2 -11 0
      vertex 2 -11 6
    endloop
  endfacet
  facet normal 1 -0 0
    outer loop
      vertex -2 -11 6
      vertex -2 -5 0
      vertex -2 -5 6
    endloop
  endfacet
  facet normal 1 0 0
    outer loop
      vertex -2 -5 0
      vertex -2 -11 6
      vertex -2 -11 0
    endloop
  endfacet
  facet normal 0 -1 0
    outer loop
      vertex -2 -5 0
      vertex 2 -5 6
      vertex -2 -5 6
    endloop
  endfacet
  facet normal 0 -1 -0
    outer loop
      vertex 2 -5 6
      vertex -2 -5 0
      vertex 2 -5 0
    endloop
  endfacet
endsolid OpenSCAD_Model
