solid OpenSCAD_Model
  facet normal 0.980786 0.195089 0
    outer loop
      vertex 5 0 50
      vertex 4.6194 1.91342 -50
      vertex 4.6194 1.91342 50
    endloop
  endfacet
  facet normal 0.980786 0.195089 0
    outer loop
      vertex 4.6194 1.91342 -50
      vertex 5 0 50
      vertex 5 0 -50
    endloop
  endfacet
  facet normal 0.831467 0.555574 0
    outer loop
      vertex 4.6194 1.91342 50
      vertex 3.53553 3.53553 -50
      vertex 3.53553 3.53553 50
    endloop
  endfacet
  facet normal 0.831467 0.555574 0
    outer loop
      vertex 3.53553 3.53553 -50
      vertex 4.6194 1.91342 50
      vertex 4.6194 1.91342 -50
    endloop
  endfacet
  facet normal 0.555574 0.831467 -0
    outer loop
      vertex 3.53553 3.53553 -50
      vertex 1.91342 4.6194 50
      vertex 3.53553 3.53553 50
    endloop
  endfacet
  facet normal 0.555574 0.831467 0
    outer loop
      vertex 1.91342 4.6194 50
      vertex 3.53553 3.53553 -50
      vertex 1.91342 4.6194 -50
    endloop
  endfacet
  facet normal 0.195089 0.980786 -0
    outer loop
      vertex 1.91342 4.6194 -50
      vertex 0 5 50
      vertex 1.91342 4.6194 50
    endloop
  endfacet
  facet normal 0.195089 0.980786 0
    outer loop
      vertex 0 5 50
      vertex 1.91342 4.6194 -50
      vertex 0 5 -50
    endloop
  endfacet
  facet normal -0.195089 0.980786 0
    outer loop
      vertex 0 5 -50
      vertex -1.91342 4.6194 50
      vertex 0 5 50
    endloop
  endfacet
  facet normal -0.195089 0.980786 0
    outer loop
      vertex -1.91342 4.6194 50
      vertex 0 5 -50
      vertex -1.91342 4.6194 -50
    endloop
  endfacet
  facet normal -0.555574 0.831467 0
    outer loop
      vertex -1.91342 4.6194 -50
      vertex -3.53553 3.53553 50
      vertex -1.91342 4.6194 50
    endloop
  endfacet
  facet normal -0.555574 0.831467 0
    outer loop
      vertex -3.53553 3.53553 50
      vertex -1.91342 4.6194 -50
      vertex -3.53553 3.53553 -50
    endloop
  endfacet
  facet normal -0.831467 0.555574 0
    outer loop
      vertex -4.6194 1.91342 -50
      vertex -3.53553 3.53553 50
      vertex -3.53553 3.53553 -50
    endloop
  endfacet
  facet normal -0.831467 0.555574 0
    outer loop
      vertex -3.53553 3.53553 50
      vertex -4.6194 1.91342 -50
      vertex -4.6194 1.91342 50
    endloop
  endfacet
  facet normal -0.980786 0.195089 0
    outer loop
      vertex -5 0 -50
      vertex -4.6194 1.91342 50
      vertex -4.6194 1.91342 -50
    endloop
  endfacet
  facet normal -0.980786 0.195089 0
    outer loop
      vertex -4.6194 1.91342 50
      vertex -5 0 -50
      vertex -5 0 50
    endloop
  endfacet
  facet normal -0.980786 -0.195089 0
    outer loop
      vertex -4.6194 -1.91342 -50
      vertex -5 0 50
      vertex -5 0 -50
    endloop
  endfacet
  facet normal -0.980786 -0.195089 0
    outer loop
      vertex -5 0 50
      vertex -4.6194 -1.91342 -50
      vertex -4.6194 -1.91342 50
    endloop
  endfacet
  facet normal -0.831467 -0.555574 0
    outer loop
      vertex -3.53553 -3.53553 -50
      vertex -4.6194 -1.91342 50
      vertex -4.6194 -1.91342 -50
    endloop
  endfacet
  facet normal -0.831467 -0.555574 0
    outer loop
      vertex -4.6194 -1.91342 50
      vertex -3.53553 -3.53553 -50
      vertex -3.53553 -3.53553 50
    endloop
  endfacet
  facet normal -0.555574 -0.831467 0
    outer loop
      vertex -3.53553 -3.53553 -50
      vertex -1.91342 -4.6194 50
      vertex -3.53553 -3.53553 50
    endloop
  endfacet
  facet normal -0.555574 -0.831467 -0
    outer loop
      vertex -1.91342 -4.6194 50
      vertex -3.53553 -3.53553 -50
      vertex -1.91342 -4.6194 -50
    endloop
  endfacet
  facet normal -0.195089 -0.980786 0
    outer loop
      vertex -1.91342 -4.6194 -50
      vertex 0 -5 50
      vertex -1.91342 -4.6194 50
    endloop
  endfacet
  facet normal -0.195089 -0.980786 -0
    outer loop
      vertex 0 -5 50
      vertex -1.91342 -4.6194 -50
      vertex 0 -5 -50
    endloop
  endfacet
  facet normal 0.195089 -0.980786 0
    outer loop
      vertex 0 -5 -50
      vertex 1.91342 -4.6194 50
      vertex 0 -5 50
    endloop
  endfacet
  facet normal 0.195089 -0.980786 0
    outer loop
      vertex 1.91342 -4.6194 50
      vertex 0 -5 -50
      vertex 1.91342 -4.6194 -50
    endloop
  endfacet
  facet normal 0.555574 -0.831467 0
    outer loop
      vertex 1.91342 -4.6194 -50
      vertex 3.53553 -3.53553 50
      vertex 1.91342 -4.6194 50
    endloop
  endfacet
  facet normal 0.555574 -0.831467 0
    outer loop
      vertex 3.53553 -3.53553 50
      vertex 1.91342 -4.6194 -50
      vertex 3.53553 -3.53553 -50
    endloop
  endfacet
  facet normal 0.831467 -0.555574 0
    outer loop
      vertex 3.53553 -3.53553 50
      vertex 4.6194 -1.91342 -50
      vertex 4.6194 -1.91342 50
    endloop
  endfacet
  facet normal 0.831467 -0.555574 0
    outer loop
      vertex 4.6194 -1.91342 -50
      vertex 3.53553 -3.53553 50
      vertex 3.53553 -3.53553 -50
    endloop
  endfacet
  facet normal 0.980786 -0.195089 0
    outer loop
      vertex 4.6194 -1.91342 50
      vertex 5 0 -50
      vertex 5 0 50
    endloop
  endfacet
  facet normal 0.980786 -0.195089 0
    outer loop
      vertex 5 0 -50
      vertex 4.6194 -1.91342 50
      vertex 4.6194 -1.91342 -50
    endloop
  endfacet
  facet normal 0 0 -1
    outer loop
      vertex 4.6194 -1.91342 -50
      vertex 4.6194 1.91342 -50
      vertex 5 0 -50
    endloop
  endfacet
  facet normal 0 0 -1
    outer loop
      vertex 3.53553 -3.53553 -50
      vertex 4.6194 1.91342 -50
      vertex 4.6194 -1.91342 -50
    endloop
  endfacet
  facet normal 0 0 -1
    outer loop
      vertex 3.53553 -3.53553 -50
      vertex 3.53553 3.53553 -50
      vertex 4.6194 1.91342 -50
    endloop
  endfacet
  facet normal 0 0 -1
    outer loop
      vertex 1.91342 -4.6194 -50
      vertex 3.53553 3.53553 -50
      vertex 3.53553 -3.53553 -50
    endloop
  endfacet
  facet normal 0 0 -1
    outer loop
      vertex 1.91342 -4.6194 -50
      vertex 1.91342 4.6194 -50
      vertex 3.53553 3.53553 -50
    endloop
  endfacet
  facet normal 0 0 -1
    outer loop
      vertex 0 -5 -50
      vertex 1.91342 4.6194 -50
      vertex 1.91342 -4.6194 -50
    endloop
  endfacet
  facet normal 0 0 -1
    outer loop
      vertex 0 -5 -50
      vertex 0 5 -50
      vertex 1.91342 4.6194 -50
    endloop
  endfacet
  facet normal 0 0 -1
    outer loop
      vertex -1.91342 -4.6194 -50
      vertex 0 5 -50
      vertex 0 -5 -50
    endloop
  endfacet
  facet normal 0 0 -1
    outer loop
      vertex -1.91342 -4.6194 -50
      vertex -1.91342 4.6194 -50
      vertex 0 5 -50
    endloop
  endfacet
  facet normal 0 0 -1
    outer loop
      vertex -3.53553 -3.53553 -50
      vertex -1.91342 4.6194 -50
      vertex -1.91342 -4.6194 -50
    endloop
  endfacet
  facet normal 0 0 -1
    outer loop
      vertex -3.53553 -3.53553 -50
      vertex -3.53553 3.53553 -50
      vertex -1.91342 4.6194 -50
    endloop
  endfacet
  facet normal 0 0 -1
    outer loop
      vertex -4.6194 -1.91342 -50
      vertex -3.53553 3.53553 -50
      vertex -3.53553 -3.53553 -50
    endloop
  endfacet
  facet normal 0 0 -1
    outer loop
      vertex -4.6194 -1.91342 -50
      vertex -4.6194 1.91342 -50
      vertex -3.53553 3.53553 -50
    endloop
  endfacet
  facet normal 0 -0 -1
    outer loop
      vertex -4.6194 1.91342 -50
      vertex -4.6194 -1.91342 -50
      vertex -5 0 -50
    endloop
  endfacet
  facet normal 0 0 1
    outer loop
      vertex 4.6194 1.91342 50
      vertex 4.6194 -1.91342 50
      vertex 5 0 50
    endloop
  endfacet
  facet normal 0 0 1
    outer loop
      vertex 3.53553 3.53553 50
      vertex 4.6194 -1.91342 50
      vertex 4.6194 1.91342 50
    endloop
  endfacet
  facet normal 0 0 1
    outer loop
      vertex 3.53553 3.53553 50
      vertex 3.53553 -3.53553 50
      vertex 4.6194 -1.91342 50
    endloop
  endfacet
  facet normal 0 0 1
    outer loop
      vertex 1.91342 4.6194 50
      vertex 3.53553 -3.53553 50
      vertex 3.53553 3.53553 50
    endloop
  endfacet
  facet normal 0 0 1
    outer loop
      vertex 1.91342 4.6194 50
      vertex 1.91342 -4.6194 50
      vertex 3.53553 -3.53553 50
    endloop
  endfacet
  facet normal 0 0 1
    outer loop
      vertex 0 5 50
      vertex 1.91342 -4.6194 50
      vertex 1.91342 4.6194 50
    endloop
  endfacet
  facet normal 0 0 1
    outer loop
      vertex 0 5 50
      vertex 0 -5 50
      vertex 1.91342 -4.6194 50
    endloop
  endfacet
  facet normal -0 0 1
    outer loop
      vertex -1.91342 4.6194 50
      vertex 0 -5 50
      vertex 0 5 50
    endloop
  endfacet
  facet normal 0 0 1
    outer loop
      vertex -1.91342 4.6194 50
      vertex -1.91342 -4.6194 50
      vertex 0 -5 50
    endloop
  endfacet
  facet normal -0 0 1
    outer loop
      vertex -3.53553 3.53553 50
      vertex -1.91342 -4.6194 50
      vertex -1.91342 4.6194 50
    endloop
  endfacet
  facet normal 0 0 1
    outer loop
      vertex -3.53553 3.53553 50
      vertex -3.53553 -3.53553 50
      vertex -1.91342 -4.6194 50
    endloop
  endfacet
  facet normal -0 0 1
    outer loop
      vertex -4.6194 1.91342 50
      vertex -3.53553 -3.53553 50
      vertex -3.53553 3.53553 50
    endloop
  endfacet
  facet normal 0 0 1
    outer loop
      vertex -4.6194 1.91342 50
      vertex -4.6194 -1.91342 50
      vertex -3.53553 -3.53553 50
    endloop
  endfacet
  facet normal 0 -0 1
    outer loop
      vertex -4.6194 -1.91342 50
      vertex -4.6194 1.91342 50
      vertex -5 0 50
    endloop
  endfacet
endsolid OpenSCAD_Model
