solid OpenSCAD_Model
  facet normal 1 -0 0
    outer loop
      vertex 16 -5 15.5
      vertex 16 5 3
      vertex 16 5 15.5
    endloop
  endfacet
  facet normal 1 0 0
    outer loop
      vertex 16 5 3
      vertex 16 -5 15.5
      vertex 16 -5 3
    endloop
  endfacet
  facet normal 1 -0 0
    outer loop
      vertex 16 -5 0
      vertex 16 5 -9.5
      vertex 16 5 0
    endloop
  endfacet
  facet normal 1 0 0
    outer loop
      vertex 16 5 -9.5
      vertex 16 -5 0
      vertex 16 -5 -9.5
    endloop
  endfacet
  facet normal -0 0 1
    outer loop
      vertex 14 5 15.5
      vertex 16 -5 15.5
      vertex 16 5 15.5
    endloop
  endfacet
  facet normal 0 0 1
    outer loop
      vertex 16 -5 15.5
      vertex 14 5 15.5
      vertex 14 -5 15.5
    endloop
  endfacet
  facet normal 0 0 -1
    outer loop
      vertex 14 -5 -9.5
      vertex 16 5 -9.5
      vertex 16 -5 -9.5
    endloop
  endfacet
  facet normal -0 0 -1
    outer loop
      vertex 16 5 -9.5
      vertex 14 -5 -9.5
      vertex 14 5 -9.5
    endloop
  endfacet
  facet normal -1 0 0
    outer loop
      vertex 14 -5 3
      vertex 14 5 15.5
      vertex 14 5 3
    endloop
  endfacet
  facet normal -1 -0 0
    outer loop
      vertex 14 5 15.5
      vertex 14 -5 3
      vertex 14 -5 15.5
    endloop
  endfacet
  facet normal -1 0 0
    outer loop
      vertex 14 -5 -9.5
      vertex 14 5 0
      vertex 14 5 -9.5
    endloop
  endfacet
  facet normal -1 -0 0
    outer loop
      vertex 14 5 0
      vertex 14 -5 -9.5
      vertex 14 -5 0
    endloop
  endfacet
  facet normal 0 1 -0
    outer loop
      vertex 16 5 3
      vertex 14 5 15.5
      vertex 16 5 15.5
    endloop
  endfacet
  facet normal 0 1 0
    outer loop
      vertex 14 5 15.5
      vertex 16 5 3
      vertex 14 5 3
    endloop
  endfacet
  facet normal 0 1 -0
    outer loop
      vertex 16 5 -9.5
      vertex 14 5 0
      vertex 16 5 0
    endloop
  endfacet
  facet normal 0 1 0
    outer loop
      vertex 14 5 0
      vertex 16 5 -9.5
      vertex 14 5 -9.5
    endloop
  endfacet
  facet normal 0 -1 0
    outer loop
      vertex 14 -5 3
      vertex 16 -5 15.5
      vertex 14 -5 15.5
    endloop
  endfacet
  facet normal 0 -1 -0
    outer loop
      vertex 16 -5 15.5
      vertex 14 -5 3
      vertex 16 -5 3
    endloop
  endfacet
  facet normal 0 -1 0
    outer loop
      vertex 14 -5 -9.5
      vertex 16 -5 0
      vertex 14 -5 0
    endloop
  endfacet
  facet normal 0 -1 -0
    outer loop
      vertex 16 -5 0
      vertex 14 -5 -9.5
      vertex 16 -5 -9.5
    endloop
  endfacet
  facet normal -0 0 1
    outer loop
      vertex -5 16 15.5
      vertex 5 14 15.5
      vertex 5 16 15.5
    endloop
  endfacet
  facet normal 0 0 1
    outer loop
      vertex 5 14 15.5
      vertex -5 16 15.5
      vertex -5 14 15.5
    endloop
  endfacet
  facet normal 0 -1 0
    outer loop
      vertex -5 14 3
      vertex 5 14 15.5
      vertex -5 14 15.5
    endloop
  endfacet
  facet normal 0 -1 -0
    outer loop
      vertex 5 14 15.5
      vertex -5 14 3
      vertex 5 14 3
    endloop
  endfacet
  facet normal 0 -1 0
    outer loop
      vertex -5 14 -9.5
      vertex 5 14 0
      vertex -5 14 0
    endloop
  endfacet
  facet normal 0 -1 -0
    outer loop
      vertex 5 14 0
      vertex -5 14 -9.5
      vertex 5 14 -9.5
    endloop
  endfacet
  facet normal -1 0 0
    outer loop
      vertex -5 14 3
      vertex -5 16 15.5
      vertex -5 16 3
    endloop
  endfacet
  facet normal -1 -0 0
    outer loop
      vertex -5 16 15.5
      vertex -5 14 3
      vertex -5 14 15.5
    endloop
  endfacet
  facet normal -1 0 0
    outer loop
      vertex -5 14 -9.5
      vertex -5 16 0
      vertex -5 16 -9.5
    endloop
  endfacet
  facet normal -1 -0 0
    outer loop
      vertex -5 16 0
      vertex -5 14 -9.5
      vertex -5 14 0
    endloop
  endfacet
  facet normal 0 0 -1
    outer loop
      vertex -5 14 -9.5
      vertex 5 16 -9.5
      vertex 5 14 -9.5
    endloop
  endfacet
  facet normal -0 0 -1
    outer loop
      vertex 5 16 -9.5
      vertex -5 14 -9.5
      vertex -5 16 -9.5
    endloop
  endfacet
  facet normal 1 -0 0
    outer loop
      vertex 5 14 15.5
      vertex 5 16 3
      vertex 5 16 15.5
    endloop
  endfacet
  facet normal 1 0 0
    outer loop
      vertex 5 16 3
      vertex 5 14 15.5
      vertex 5 14 3
    endloop
  endfacet
  facet normal 1 -0 0
    outer loop
      vertex 5 14 0
      vertex 5 16 -9.5
      vertex 5 16 0
    endloop
  endfacet
  facet normal 1 0 0
    outer loop
      vertex 5 16 -9.5
      vertex 5 14 0
      vertex 5 14 -9.5
    endloop
  endfacet
  facet normal 0 1 -0
    outer loop
      vertex 5 16 3
      vertex -5 16 15.5
      vertex 5 16 15.5
    endloop
  endfacet
  facet normal 0 1 0
    outer loop
      vertex -5 16 15.5
      vertex 5 16 3
      vertex -5 16 3
    endloop
  endfacet
  facet normal 0 1 -0
    outer loop
      vertex 5 16 -9.5
      vertex -5 16 0
      vertex 5 16 0
    endloop
  endfacet
  facet normal 0 1 0
    outer loop
      vertex -5 16 0
      vertex 5 16 -9.5
      vertex -5 16 -9.5
    endloop
  endfacet
  facet normal -0 0 1
    outer loop
      vertex -16 5 15.5
      vertex -14 -5 15.5
      vertex -14 5 15.5
    endloop
  endfacet
  facet normal 0 0 1
    outer loop
      vertex -14 -5 15.5
      vertex -16 5 15.5
      vertex -16 -5 15.5
    endloop
  endfacet
  facet normal 1 -0 0
    outer loop
      vertex -14 -5 15.5
      vertex -14 5 3
      vertex -14 5 15.5
    endloop
  endfacet
  facet normal 1 0 0
    outer loop
      vertex -14 5 3
      vertex -14 -5 15.5
      vertex -14 -5 3
    endloop
  endfacet
  facet normal 1 -0 0
    outer loop
      vertex -14 -5 0
      vertex -14 5 -9.5
      vertex -14 5 0
    endloop
  endfacet
  facet normal 1 0 0
    outer loop
      vertex -14 5 -9.5
      vertex -14 -5 0
      vertex -14 -5 -9.5
    endloop
  endfacet
  facet normal 0 0 -1
    outer loop
      vertex -16 -5 -9.5
      vertex -14 5 -9.5
      vertex -14 -5 -9.5
    endloop
  endfacet
  facet normal -0 0 -1
    outer loop
      vertex -14 5 -9.5
      vertex -16 -5 -9.5
      vertex -16 5 -9.5
    endloop
  endfacet
  facet normal 0 1 -0
    outer loop
      vertex -14 5 3
      vertex -16 5 15.5
      vertex -14 5 15.5
    endloop
  endfacet
  facet normal 0 1 0
    outer loop
      vertex -16 5 15.5
      vertex -14 5 3
      vertex -16 5 3
    endloop
  endfacet
  facet normal 0 1 -0
    outer loop
      vertex -14 5 -9.5
      vertex -16 5 0
      vertex -14 5 0
    endloop
  endfacet
  facet normal 0 1 0
    outer loop
      vertex -16 5 0
      vertex -14 5 -9.5
      vertex -16 5 -9.5
    endloop
  endfacet
  facet normal 0 -1 0
    outer loop
      vertex -16 -5 3
      vertex -14 -5 15.5
      vertex -16 -5 15.5
    endloop
  endfacet
  facet normal 0 -1 -0
    outer loop
      vertex -14 -5 15.5
      vertex -16 -5 3
      vertex -14 -5 3
    endloop
  endfacet
  facet normal 0 -1 0
    outer loop
      vertex -16 -5 -9.5
      vertex -14 -5 0
      vertex -16 -5 0
    endloop
  endfacet
  facet normal 0 -1 -0
    outer loop
      vertex -14 -5 0
      vertex -16 -5 -9.5
      vertex -14 -5 -9.5
    endloop
  endfacet
  facet normal -1 0 0
    outer loop
      vertex -16 -5 3
      vertex -16 5 15.5
      vertex -16 5 3
    endloop
  endfacet
  facet normal -1 -0 0
    outer loop
      vertex -16 5 15.5
      vertex -16 -5 3
      vertex -16 -5 15.5
    endloop
  endfacet
  facet normal -1 0 0
    outer loop
      vertex -16 -5 -9.5
      vertex -16 5 0
      vertex -16 5 -9.5
    endloop
  endfacet
  facet normal -1 -0 0
    outer loop
      vertex -16 5 0
      vertex -16 -5 -9.5
      vertex -16 -5 0
    endloop
  endfacet
  facet normal 0 -1 0
    outer loop
      vertex -5 -16 3
      vertex 5 -16 15.5
      vertex -5 -16 15.5
    endloop
  endfacet
  facet normal 0 -1 -0
    outer loop
      vertex 5 -16 15.5
      vertex -5 -16 3
      vertex 5 -16 3
    endloop
  endfacet
  facet normal 0 -1 0
    outer loop
      vertex -5 -16 -9.5
      vertex 5 -16 0
      vertex -5 -16 0
    endloop
  endfacet
  facet normal 0 -1 -0
    outer loop
      vertex 5 -16 0
      vertex -5 -16 -9.5
      vertex 5 -16 -9.5
    endloop
  endfacet
  facet normal -0 0 1
    outer loop
      vertex -5 -14 15.5
      vertex 5 -16 15.5
      vertex 5 -14 15.5
    endloop
  endfacet
  facet normal 0 0 1
    outer loop
      vertex 5 -16 15.5
      vertex -5 -14 15.5
      vertex -5 -16 15.5
    endloop
  endfacet
  facet normal 0 0 -1
    outer loop
      vertex -5 -16 -9.5
      vertex 5 -14 -9.5
      vertex 5 -16 -9.5
    endloop
  endfacet
  facet normal -0 0 -1
    outer loop
      vertex 5 -14 -9.5
      vertex -5 -16 -9.5
      vertex -5 -14 -9.5
    endloop
  endfacet
  facet normal 0 1 -0
    outer loop
      vertex 5 -14 3
      vertex -5 -14 15.5
      vertex 5 -14 15.5
    endloop
  endfacet
  facet normal 0 1 0
    outer loop
      vertex -5 -14 15.5
      vertex 5 -14 3
      vertex -5 -14 3
    endloop
  endfacet
  facet normal 0 1 -0
    outer loop
      vertex 5 -14 -9.5
      vertex -5 -14 0
      vertex 5 -14 0
    endloop
  endfacet
  facet normal 0 1 0
    outer loop
      vertex -5 -14 0
      vertex 5 -14 -9.5
      vertex -5 -14 -9.5
    endloop
  endfacet
  facet normal 1 -0 0
    outer loop
      vertex 5 -16 15.5
      vertex 5 -14 3
      vertex 5 -14 15.5
    endloop
  endfacet
  facet normal 1 0 0
    outer loop
      vertex 5 -14 3
      vertex 5 -16 15.5
      vertex 5 -16 3
    endloop
  endfacet
  facet normal 1 -0 0
    outer loop
      vertex 5 -16 0
      vertex 5 -14 -9.5
      vertex 5 -14 0
    endloop
  endfacet
  facet normal 1 0 0
    outer loop
      vertex 5 -14 -9.5
      vertex 5 -16 0
      vertex 5 -16 -9.5
    endloop
  endfacet
  facet normal -1 0 0
    outer loop
      vertex -5 -16 3
      vertex -5 -14 15.5
      vertex -5 -14 3
    endloop
  endfacet
  facet normal -1 -0 0
    outer loop
      vertex -5 -14 15.5
      vertex -5 -16 3
      vertex -5 -16 15.5
    endloop
  endfacet
  facet normal -1 0 0
    outer loop
      vertex -5 -16 -9.5
      vertex -5 -14 0
      vertex -5 -14 -9.5
    endloop
  endfacet
  facet normal -1 -0 0
    outer loop
      vertex -5 -14 0
      vertex -5 -16 -9.5
      vertex -5 -16 0
    endloop
  endfacet
  facet normal 0.587785 0.809017 -0
    outer loop
      vertex 13.3826 14.8629 0
      vertex 10 17.3205 3
      vertex 13.3826 14.8629 3
    endloop
  endfacet
  facet normal 0.587785 0.809017 0
    outer loop
      vertex 10 17.3205 3
      vertex 13.3826 14.8629 0
      vertex 10 17.3205 0
    endloop
  endfacet
  facet normal -0.866022 0.500006 0
    outer loop
      vertex -18.2709 8.13473 0
      vertex -16.1803 11.7557 3
      vertex -16.1803 11.7557 0
    endloop
  endfacet
  facet normal -0.866022 0.500006 0
    outer loop
      vertex -16.1803 11.7557 3
      vertex -18.2709 8.13473 0
      vertex -18.2709 8.13473 3
    endloop
  endfacet
  facet normal 0.994523 -0.104517 0
    outer loop
      vertex 19.563 -4.15823 3
      vertex 20 0 0
      vertex 20 0 3
    endloop
  endfacet
  facet normal 0.994523 -0.104517 0
    outer loop
      vertex 20 0 0
      vertex 19.563 -4.15823 3
      vertex 19.563 -4.15823 0
    endloop
  endfacet
  facet normal 0.587785 -0.809017 0
    outer loop
      vertex 10 -17.3205 0
      vertex 13.3826 -14.8629 3
      vertex 10 -17.3205 3
    endloop
  endfacet
  facet normal 0.587785 -0.809017 0
    outer loop
      vertex 13.3826 -14.8629 3
      vertex 10 -17.3205 0
      vertex 13.3826 -14.8629 0
    endloop
  endfacet
  facet normal 0.866022 0.500006 0
    outer loop
      vertex 18.2709 8.13473 3
      vertex 16.1803 11.7557 0
      vertex 16.1803 11.7557 3
    endloop
  endfacet
  facet normal 0.866022 0.500006 0
    outer loop
      vertex 16.1803 11.7557 0
      vertex 18.2709 8.13473 3
      vertex 18.2709 8.13473 0
    endloop
  endfacet
  facet normal -0.994523 0.104517 0
    outer loop
      vertex -20 0 0
      vertex -19.563 4.15823 3
      vertex -19.563 4.15823 0
    endloop
  endfacet
  facet normal -0.994523 0.104517 0
    outer loop
      vertex -19.563 4.15823 3
      vertex -20 0 0
      vertex -20 0 3
    endloop
  endfacet
  facet normal 0.994523 0.104517 0
    outer loop
      vertex 20 0 3
      vertex 19.563 4.15823 0
      vertex 19.563 4.15823 3
    endloop
  endfacet
  facet normal 0.994523 0.104517 0
    outer loop
      vertex 19.563 4.15823 0
      vertex 20 0 3
      vertex 20 0 0
    endloop
  endfacet
  facet normal -0.866022 -0.500006 0
    outer loop
      vertex -16.1803 -11.7557 0
      vertex -18.2709 -8.13473 3
      vertex -18.2709 -8.13473 0
    endloop
  endfacet
  facet normal -0.866022 -0.500006 0
    outer loop
      vertex -18.2709 -8.13473 3
      vertex -16.1803 -11.7557 0
      vertex -16.1803 -11.7557 3
    endloop
  endfacet
  facet normal -0.743149 -0.669126 0
    outer loop
      vertex -13.3826 -14.8629 0
      vertex -16.1803 -11.7557 3
      vertex -16.1803 -11.7557 0
    endloop
  endfacet
  facet normal -0.743149 -0.669126 0
    outer loop
      vertex -16.1803 -11.7557 3
      vertex -13.3826 -14.8629 0
      vertex -13.3826 -14.8629 3
    endloop
  endfacet
  facet normal -0.951053 0.309029 0
    outer loop
      vertex -19.563 4.15823 0
      vertex -18.2709 8.13473 3
      vertex -18.2709 8.13473 0
    endloop
  endfacet
  facet normal -0.951053 0.309029 0
    outer loop
      vertex -18.2709 8.13473 3
      vertex -19.563 4.15823 0
      vertex -19.563 4.15823 3
    endloop
  endfacet
  facet normal 0 -1 0
    outer loop
      vertex -2.09057 -19.8904 0
      vertex 2.09057 -19.8904 3
      vertex -2.09057 -19.8904 3
    endloop
  endfacet
  facet normal 0 -1 -0
    outer loop
      vertex 2.09057 -19.8904 3
      vertex -2.09057 -19.8904 0
      vertex 2.09057 -19.8904 0
    endloop
  endfacet
  facet normal 0.406732 -0.913547 0
    outer loop
      vertex 6.18034 -19.0211 0
      vertex 10 -17.3205 3
      vertex 6.18034 -19.0211 3
    endloop
  endfacet
  facet normal 0.406732 -0.913547 0
    outer loop
      vertex 10 -17.3205 3
      vertex 6.18034 -19.0211 0
      vertex 10 -17.3205 0
    endloop
  endfacet
  facet normal -0.20791 0.978148 0
    outer loop
      vertex -2.09057 19.8904 0
      vertex -6.18034 19.0211 3
      vertex -2.09057 19.8904 3
    endloop
  endfacet
  facet normal -0.20791 0.978148 0
    outer loop
      vertex -6.18034 19.0211 3
      vertex -2.09057 19.8904 0
      vertex -6.18034 19.0211 0
    endloop
  endfacet
  facet normal 0.951053 0.309029 0
    outer loop
      vertex 19.563 4.15823 3
      vertex 18.2709 8.13473 0
      vertex 18.2709 8.13473 3
    endloop
  endfacet
  facet normal 0.951053 0.309029 0
    outer loop
      vertex 18.2709 8.13473 0
      vertex 19.563 4.15823 3
      vertex 19.563 4.15823 0
    endloop
  endfacet
  facet normal 0.20791 -0.978148 0
    outer loop
      vertex 2.09057 -19.8904 0
      vertex 6.18034 -19.0211 3
      vertex 2.09057 -19.8904 3
    endloop
  endfacet
  facet normal 0.20791 -0.978148 0
    outer loop
      vertex 6.18034 -19.0211 3
      vertex 2.09057 -19.8904 0
      vertex 6.18034 -19.0211 0
    endloop
  endfacet
  facet normal -0 0 -1
    outer loop
      vertex -5 14 0
      vertex -14 5 0
      vertex -13.3826 14.8629 0
    endloop
  endfacet
  facet normal 0 0 -1
    outer loop
      vertex -18.2709 8.13473 0
      vertex -14 5 0
      vertex -16 5 0
    endloop
  endfacet
  facet normal 0 0 -1
    outer loop
      vertex -14 5 0
      vertex -16.1803 11.7557 0
      vertex -13.3826 14.8629 0
    endloop
  endfacet
  facet normal 0 0 -1
    outer loop
      vertex -19.563 -4.15823 0
      vertex -16 -5 0
      vertex -18.2709 -8.13473 0
    endloop
  endfacet
  facet normal 0 0 -1
    outer loop
      vertex -20 0 0
      vertex -16 -5 0
      vertex -19.563 -4.15823 0
    endloop
  endfacet
  facet normal 0 0 -1
    outer loop
      vertex -14 5 0
      vertex -18.2709 8.13473 0
      vertex -16.1803 11.7557 0
    endloop
  endfacet
  facet normal 0 0 -1
    outer loop
      vertex -16 -5 0
      vertex -20 0 0
      vertex -16 5 0
    endloop
  endfacet
  facet normal -0 0 -1
    outer loop
      vertex -16 5 0
      vertex -19.563 4.15823 0
      vertex -18.2709 8.13473 0
    endloop
  endfacet
  facet normal 0 0 -1
    outer loop
      vertex -16 5 0
      vertex -20 0 0
      vertex -19.563 4.15823 0
    endloop
  endfacet
  facet normal 0 0 -1
    outer loop
      vertex -5 -14 0
      vertex 5 14 0
      vertex 5 -14 0
    endloop
  endfacet
  facet normal -0 0 -1
    outer loop
      vertex 5 14 0
      vertex -5 -14 0
      vertex -5 14 0
    endloop
  endfacet
  facet normal 0 0 -1
    outer loop
      vertex 5 14 0
      vertex 14 5 0
      vertex 5 -14 0
    endloop
  endfacet
  facet normal 0 0 -1
    outer loop
      vertex 14 5 0
      vertex 5 14 0
      vertex 6.18034 19.0211 0
    endloop
  endfacet
  facet normal 0 0 -1
    outer loop
      vertex 5 16 0
      vertex 6.18034 19.0211 0
      vertex 5 14 0
    endloop
  endfacet
  facet normal 0 0 -1
    outer loop
      vertex 5 16 0
      vertex 2.09057 19.8904 0
      vertex 6.18034 19.0211 0
    endloop
  endfacet
  facet normal 0 0 -1
    outer loop
      vertex 5 16 0
      vertex -2.09057 19.8904 0
      vertex 2.09057 19.8904 0
    endloop
  endfacet
  facet normal 0 0 -1
    outer loop
      vertex -5 16 0
      vertex -2.09057 19.8904 0
      vertex 5 16 0
    endloop
  endfacet
  facet normal 0 0 -1
    outer loop
      vertex -5 16 0
      vertex -6.18034 19.0211 0
      vertex -2.09057 19.8904 0
    endloop
  endfacet
  facet normal 0 0 -1
    outer loop
      vertex -5 14 0
      vertex -6.18034 19.0211 0
      vertex -5 16 0
    endloop
  endfacet
  facet normal 0 0 -1
    outer loop
      vertex -14 -5 0
      vertex -6.18034 -19.0211 0
      vertex -10 -17.3205 0
    endloop
  endfacet
  facet normal 0 0 -1
    outer loop
      vertex -14 5 0
      vertex -5 14 0
      vertex -14 -5 0
    endloop
  endfacet
  facet normal 0 0 -1
    outer loop
      vertex -14 -5 0
      vertex -10 -17.3205 0
      vertex -13.3826 -14.8629 0
    endloop
  endfacet
  facet normal 0 0 -1
    outer loop
      vertex -5 14 0
      vertex -10 17.3205 0
      vertex -6.18034 19.0211 0
    endloop
  endfacet
  facet normal 0 0 -1
    outer loop
      vertex -5 14 0
      vertex -13.3826 14.8629 0
      vertex -10 17.3205 0
    endloop
  endfacet
  facet normal 0 0 -1
    outer loop
      vertex -16.1803 -11.7557 0
      vertex -14 -5 0
      vertex -13.3826 -14.8629 0
    endloop
  endfacet
  facet normal -0 0 -1
    outer loop
      vertex -14 -5 0
      vertex -18.2709 -8.13473 0
      vertex -16 -5 0
    endloop
  endfacet
  facet normal 0 0 -1
    outer loop
      vertex -18.2709 -8.13473 0
      vertex -14 -5 0
      vertex -16.1803 -11.7557 0
    endloop
  endfacet
  facet normal 0 0 -1
    outer loop
      vertex 16 -5 0
      vertex 20 0 0
      vertex 19.563 -4.15823 0
    endloop
  endfacet
  facet normal 0 0 -1
    outer loop
      vertex 16 -5 0
      vertex 19.563 -4.15823 0
      vertex 18.2709 -8.13473 0
    endloop
  endfacet
  facet normal 0 0 -1
    outer loop
      vertex 16 5 0
      vertex 20 0 0
      vertex 16 -5 0
    endloop
  endfacet
  facet normal 0 0 -1
    outer loop
      vertex 14 -5 0
      vertex 18.2709 -8.13473 0
      vertex 16.1803 -11.7557 0
    endloop
  endfacet
  facet normal 0 0 -1
    outer loop
      vertex 20 0 0
      vertex 16 5 0
      vertex 19.563 4.15823 0
    endloop
  endfacet
  facet normal 0 0 -1
    outer loop
      vertex 19.563 4.15823 0
      vertex 16 5 0
      vertex 18.2709 8.13473 0
    endloop
  endfacet
  facet normal 0 0 -1
    outer loop
      vertex 18.2709 -8.13473 0
      vertex 14 -5 0
      vertex 16 -5 0
    endloop
  endfacet
  facet normal 0 0 -1
    outer loop
      vertex 10 -17.3205 0
      vertex 5 -14 0
      vertex 13.3826 -14.8629 0
    endloop
  endfacet
  facet normal 0 0 -1
    outer loop
      vertex 13.3826 -14.8629 0
      vertex 14 -5 0
      vertex 16.1803 -11.7557 0
    endloop
  endfacet
  facet normal 0 0 -1
    outer loop
      vertex 14 5 0
      vertex 18.2709 8.13473 0
      vertex 16 5 0
    endloop
  endfacet
  facet normal -0 0 -1
    outer loop
      vertex 18.2709 8.13473 0
      vertex 14 5 0
      vertex 16.1803 11.7557 0
    endloop
  endfacet
  facet normal 0 0 -1
    outer loop
      vertex 14 5 0
      vertex 13.3826 14.8629 0
      vertex 16.1803 11.7557 0
    endloop
  endfacet
  facet normal 0 0 -1
    outer loop
      vertex 13.3826 -14.8629 0
      vertex 5 -14 0
      vertex 14 -5 0
    endloop
  endfacet
  facet normal 0 0 -1
    outer loop
      vertex 5 -14 0
      vertex 10 -17.3205 0
      vertex 5 -16 0
    endloop
  endfacet
  facet normal -0 0 -1
    outer loop
      vertex 14 -5 0
      vertex 5 -14 0
      vertex 14 5 0
    endloop
  endfacet
  facet normal 0 0 -1
    outer loop
      vertex 5 -16 0
      vertex 10 -17.3205 0
      vertex 6.18034 -19.0211 0
    endloop
  endfacet
  facet normal 0 0 -1
    outer loop
      vertex 14 5 0
      vertex 10 17.3205 0
      vertex 13.3826 14.8629 0
    endloop
  endfacet
  facet normal 0 0 -1
    outer loop
      vertex 14 5 0
      vertex 6.18034 19.0211 0
      vertex 10 17.3205 0
    endloop
  endfacet
  facet normal 0 0 -1
    outer loop
      vertex 2.09057 -19.8904 0
      vertex 5 -16 0
      vertex 6.18034 -19.0211 0
    endloop
  endfacet
  facet normal 0 0 -1
    outer loop
      vertex -2.09057 -19.8904 0
      vertex 5 -16 0
      vertex 2.09057 -19.8904 0
    endloop
  endfacet
  facet normal 0 0 -1
    outer loop
      vertex -2.09057 -19.8904 0
      vertex -5 -16 0
      vertex 5 -16 0
    endloop
  endfacet
  facet normal 0 0 -1
    outer loop
      vertex -6.18034 -19.0211 0
      vertex -5 -14 0
      vertex -5 -16 0
    endloop
  endfacet
  facet normal 0 0 -1
    outer loop
      vertex -14 -5 0
      vertex -5 -14 0
      vertex -6.18034 -19.0211 0
    endloop
  endfacet
  facet normal 0 0 -1
    outer loop
      vertex -5 -14 0
      vertex -14 -5 0
      vertex -5 14 0
    endloop
  endfacet
  facet normal 0 0 -1
    outer loop
      vertex -6.18034 -19.0211 0
      vertex -5 -16 0
      vertex -2.09057 -19.8904 0
    endloop
  endfacet
  facet normal 0.406732 0.913547 -0
    outer loop
      vertex 10 17.3205 0
      vertex 6.18034 19.0211 3
      vertex 10 17.3205 3
    endloop
  endfacet
  facet normal 0.406732 0.913547 0
    outer loop
      vertex 6.18034 19.0211 3
      vertex 10 17.3205 0
      vertex 6.18034 19.0211 0
    endloop
  endfacet
  facet normal -0.406732 0.913547 0
    outer loop
      vertex -6.18034 19.0211 0
      vertex -10 17.3205 3
      vertex -6.18034 19.0211 3
    endloop
  endfacet
  facet normal -0.406732 0.913547 0
    outer loop
      vertex -10 17.3205 3
      vertex -6.18034 19.0211 0
      vertex -10 17.3205 0
    endloop
  endfacet
  facet normal 0.866022 -0.500006 0
    outer loop
      vertex 16.1803 -11.7557 3
      vertex 18.2709 -8.13473 0
      vertex 18.2709 -8.13473 3
    endloop
  endfacet
  facet normal 0.866022 -0.500006 0
    outer loop
      vertex 18.2709 -8.13473 0
      vertex 16.1803 -11.7557 3
      vertex 16.1803 -11.7557 0
    endloop
  endfacet
  facet normal -0.406732 -0.913547 0
    outer loop
      vertex -10 -17.3205 0
      vertex -6.18034 -19.0211 3
      vertex -10 -17.3205 3
    endloop
  endfacet
  facet normal -0.406732 -0.913547 -0
    outer loop
      vertex -6.18034 -19.0211 3
      vertex -10 -17.3205 0
      vertex -6.18034 -19.0211 0
    endloop
  endfacet
  facet normal 0 1 -0
    outer loop
      vertex 2.09057 19.8904 0
      vertex -2.09057 19.8904 3
      vertex 2.09057 19.8904 3
    endloop
  endfacet
  facet normal 0 1 0
    outer loop
      vertex -2.09057 19.8904 3
      vertex 2.09057 19.8904 0
      vertex -2.09057 19.8904 0
    endloop
  endfacet
  facet normal 0.743149 -0.669126 0
    outer loop
      vertex 13.3826 -14.8629 3
      vertex 16.1803 -11.7557 0
      vertex 16.1803 -11.7557 3
    endloop
  endfacet
  facet normal 0.743149 -0.669126 0
    outer loop
      vertex 16.1803 -11.7557 0
      vertex 13.3826 -14.8629 3
      vertex 13.3826 -14.8629 0
    endloop
  endfacet
  facet normal 0.743149 0.669126 0
    outer loop
      vertex 16.1803 11.7557 3
      vertex 13.3826 14.8629 0
      vertex 13.3826 14.8629 3
    endloop
  endfacet
  facet normal 0.743149 0.669126 0
    outer loop
      vertex 13.3826 14.8629 0
      vertex 16.1803 11.7557 3
      vertex 16.1803 11.7557 0
    endloop
  endfacet
  facet normal 0.20791 0.978148 -0
    outer loop
      vertex 6.18034 19.0211 0
      vertex 2.09057 19.8904 3
      vertex 6.18034 19.0211 3
    endloop
  endfacet
  facet normal 0.20791 0.978148 0
    outer loop
      vertex 2.09057 19.8904 3
      vertex 6.18034 19.0211 0
      vertex 2.09057 19.8904 0
    endloop
  endfacet
  facet normal -0.951053 -0.309029 0
    outer loop
      vertex -18.2709 -8.13473 0
      vertex -19.563 -4.15823 3
      vertex -19.563 -4.15823 0
    endloop
  endfacet
  facet normal -0.951053 -0.309029 0
    outer loop
      vertex -19.563 -4.15823 3
      vertex -18.2709 -8.13473 0
      vertex -18.2709 -8.13473 3
    endloop
  endfacet
  facet normal -0.587785 -0.809017 0
    outer loop
      vertex -13.3826 -14.8629 0
      vertex -10 -17.3205 3
      vertex -13.3826 -14.8629 3
    endloop
  endfacet
  facet normal -0.587785 -0.809017 -0
    outer loop
      vertex -10 -17.3205 3
      vertex -13.3826 -14.8629 0
      vertex -10 -17.3205 0
    endloop
  endfacet
  facet normal -0.743149 0.669126 0
    outer loop
      vertex -16.1803 11.7557 0
      vertex -13.3826 14.8629 3
      vertex -13.3826 14.8629 0
    endloop
  endfacet
  facet normal -0.743149 0.669126 0
    outer loop
      vertex -13.3826 14.8629 3
      vertex -16.1803 11.7557 0
      vertex -16.1803 11.7557 3
    endloop
  endfacet
  facet normal -0.587785 0.809017 0
    outer loop
      vertex -10 17.3205 0
      vertex -13.3826 14.8629 3
      vertex -10 17.3205 3
    endloop
  endfacet
  facet normal -0.587785 0.809017 0
    outer loop
      vertex -13.3826 14.8629 3
      vertex -10 17.3205 0
      vertex -13.3826 14.8629 0
    endloop
  endfacet
  facet normal -0.994523 -0.104517 0
    outer loop
      vertex -19.563 -4.15823 0
      vertex -20 0 3
      vertex -20 0 0
    endloop
  endfacet
  facet normal -0.994523 -0.104517 0
    outer loop
      vertex -20 0 3
      vertex -19.563 -4.15823 0
      vertex -19.563 -4.15823 3
    endloop
  endfacet
  facet normal 0.951053 -0.309029 0
    outer loop
      vertex 18.2709 -8.13473 3
      vertex 19.563 -4.15823 0
      vertex 19.563 -4.15823 3
    endloop
  endfacet
  facet normal 0.951053 -0.309029 0
    outer loop
      vertex 19.563 -4.15823 0
      vertex 18.2709 -8.13473 3
      vertex 18.2709 -8.13473 0
    endloop
  endfacet
  facet normal -0.20791 -0.978148 0
    outer loop
      vertex -6.18034 -19.0211 0
      vertex -2.09057 -19.8904 3
      vertex -6.18034 -19.0211 3
    endloop
  endfacet
  facet normal -0.20791 -0.978148 -0
    outer loop
      vertex -2.09057 -19.8904 3
      vertex -6.18034 -19.0211 0
      vertex -2.09057 -19.8904 0
    endloop
  endfacet
  facet normal 0 0 1
    outer loop
      vertex -5 -14 3
      vertex -14 -5 3
      vertex -13.3826 -14.8629 3
    endloop
  endfacet
  facet normal 0 0 1
    outer loop
      vertex -18.2709 -8.13473 3
      vertex -14 -5 3
      vertex -16 -5 3
    endloop
  endfacet
  facet normal 0 0 1
    outer loop
      vertex -14 -5 3
      vertex -16.1803 -11.7557 3
      vertex -13.3826 -14.8629 3
    endloop
  endfacet
  facet normal 0 0 1
    outer loop
      vertex -19.563 4.15823 3
      vertex -16 5 3
      vertex -18.2709 8.13473 3
    endloop
  endfacet
  facet normal 0 0 1
    outer loop
      vertex -20 0 3
      vertex -16 5 3
      vertex -19.563 4.15823 3
    endloop
  endfacet
  facet normal 0 0 1
    outer loop
      vertex -14 -5 3
      vertex -18.2709 -8.13473 3
      vertex -16.1803 -11.7557 3
    endloop
  endfacet
  facet normal 0 0 1
    outer loop
      vertex -16 5 3
      vertex -20 0 3
      vertex -16 -5 3
    endloop
  endfacet
  facet normal 0 0 1
    outer loop
      vertex -16 -5 3
      vertex -19.563 -4.15823 3
      vertex -18.2709 -8.13473 3
    endloop
  endfacet
  facet normal 0 0 1
    outer loop
      vertex -16 -5 3
      vertex -20 0 3
      vertex -19.563 -4.15823 3
    endloop
  endfacet
  facet normal -0 0 1
    outer loop
      vertex -5 14 3
      vertex 5 -14 3
      vertex 5 14 3
    endloop
  endfacet
  facet normal 0 0 1
    outer loop
      vertex 5 -14 3
      vertex -5 14 3
      vertex -5 -14 3
    endloop
  endfacet
  facet normal 0 0 1
    outer loop
      vertex 5 -14 3
      vertex 14 -5 3
      vertex 5 14 3
    endloop
  endfacet
  facet normal 0 0 1
    outer loop
      vertex 14 -5 3
      vertex 5 -14 3
      vertex 6.18034 -19.0211 3
    endloop
  endfacet
  facet normal -0 0 1
    outer loop
      vertex 5 -16 3
      vertex 6.18034 -19.0211 3
      vertex 5 -14 3
    endloop
  endfacet
  facet normal 0 0 1
    outer loop
      vertex 5 -16 3
      vertex 2.09057 -19.8904 3
      vertex 6.18034 -19.0211 3
    endloop
  endfacet
  facet normal 0 0 1
    outer loop
      vertex 5 -16 3
      vertex -2.09057 -19.8904 3
      vertex 2.09057 -19.8904 3
    endloop
  endfacet
  facet normal -0 0 1
    outer loop
      vertex -5 -16 3
      vertex -2.09057 -19.8904 3
      vertex 5 -16 3
    endloop
  endfacet
  facet normal 0 0 1
    outer loop
      vertex -5 -16 3
      vertex -6.18034 -19.0211 3
      vertex -2.09057 -19.8904 3
    endloop
  endfacet
  facet normal 0 0 1
    outer loop
      vertex -5 -14 3
      vertex -6.18034 -19.0211 3
      vertex -5 -16 3
    endloop
  endfacet
  facet normal 0 0 1
    outer loop
      vertex -14 5 3
      vertex -6.18034 19.0211 3
      vertex -10 17.3205 3
    endloop
  endfacet
  facet normal -0 0 1
    outer loop
      vertex -14 -5 3
      vertex -5 -14 3
      vertex -14 5 3
    endloop
  endfacet
  facet normal 0 0 1
    outer loop
      vertex -14 5 3
      vertex -10 17.3205 3
      vertex -13.3826 14.8629 3
    endloop
  endfacet
  facet normal 0 0 1
    outer loop
      vertex -5 -14 3
      vertex -10 -17.3205 3
      vertex -6.18034 -19.0211 3
    endloop
  endfacet
  facet normal 0 0 1
    outer loop
      vertex -5 -14 3
      vertex -13.3826 -14.8629 3
      vertex -10 -17.3205 3
    endloop
  endfacet
  facet normal -0 0 1
    outer loop
      vertex -16.1803 11.7557 3
      vertex -14 5 3
      vertex -13.3826 14.8629 3
    endloop
  endfacet
  facet normal 0 0 1
    outer loop
      vertex -14 5 3
      vertex -18.2709 8.13473 3
      vertex -16 5 3
    endloop
  endfacet
  facet normal -0 0 1
    outer loop
      vertex -18.2709 8.13473 3
      vertex -14 5 3
      vertex -16.1803 11.7557 3
    endloop
  endfacet
  facet normal 0 0 1
    outer loop
      vertex 16 5 3
      vertex 20 0 3
      vertex 19.563 4.15823 3
    endloop
  endfacet
  facet normal -0 0 1
    outer loop
      vertex 16 5 3
      vertex 19.563 4.15823 3
      vertex 18.2709 8.13473 3
    endloop
  endfacet
  facet normal 0 0 1
    outer loop
      vertex 16 -5 3
      vertex 20 0 3
      vertex 16 5 3
    endloop
  endfacet
  facet normal 0 0 1
    outer loop
      vertex 14 5 3
      vertex 18.2709 8.13473 3
      vertex 16.1803 11.7557 3
    endloop
  endfacet
  facet normal 0 0 1
    outer loop
      vertex 20 0 3
      vertex 16 -5 3
      vertex 19.563 -4.15823 3
    endloop
  endfacet
  facet normal 0 0 1
    outer loop
      vertex 19.563 -4.15823 3
      vertex 16 -5 3
      vertex 18.2709 -8.13473 3
    endloop
  endfacet
  facet normal 0 0 1
    outer loop
      vertex 18.2709 8.13473 3
      vertex 14 5 3
      vertex 16 5 3
    endloop
  endfacet
  facet normal 0 0 1
    outer loop
      vertex 10 17.3205 3
      vertex 5 14 3
      vertex 13.3826 14.8629 3
    endloop
  endfacet
  facet normal 0 0 1
    outer loop
      vertex 13.3826 14.8629 3
      vertex 14 5 3
      vertex 16.1803 11.7557 3
    endloop
  endfacet
  facet normal -0 0 1
    outer loop
      vertex 14 -5 3
      vertex 18.2709 -8.13473 3
      vertex 16 -5 3
    endloop
  endfacet
  facet normal 0 0 1
    outer loop
      vertex 18.2709 -8.13473 3
      vertex 14 -5 3
      vertex 16.1803 -11.7557 3
    endloop
  endfacet
  facet normal 0 0 1
    outer loop
      vertex 14 -5 3
      vertex 13.3826 -14.8629 3
      vertex 16.1803 -11.7557 3
    endloop
  endfacet
  facet normal 0 0 1
    outer loop
      vertex 13.3826 14.8629 3
      vertex 5 14 3
      vertex 14 5 3
    endloop
  endfacet
  facet normal 0 0 1
    outer loop
      vertex 5 14 3
      vertex 10 17.3205 3
      vertex 5 16 3
    endloop
  endfacet
  facet normal 0 0 1
    outer loop
      vertex 14 5 3
      vertex 5 14 3
      vertex 14 -5 3
    endloop
  endfacet
  facet normal 0 0 1
    outer loop
      vertex 5 16 3
      vertex 10 17.3205 3
      vertex 6.18034 19.0211 3
    endloop
  endfacet
  facet normal 0 0 1
    outer loop
      vertex 14 -5 3
      vertex 10 -17.3205 3
      vertex 13.3826 -14.8629 3
    endloop
  endfacet
  facet normal 0 0 1
    outer loop
      vertex 14 -5 3
      vertex 6.18034 -19.0211 3
      vertex 10 -17.3205 3
    endloop
  endfacet
  facet normal 0 0 1
    outer loop
      vertex 2.09057 19.8904 3
      vertex 5 16 3
      vertex 6.18034 19.0211 3
    endloop
  endfacet
  facet normal -0 0 1
    outer loop
      vertex -2.09057 19.8904 3
      vertex 5 16 3
      vertex 2.09057 19.8904 3
    endloop
  endfacet
  facet normal 0 0 1
    outer loop
      vertex -2.09057 19.8904 3
      vertex -5 16 3
      vertex 5 16 3
    endloop
  endfacet
  facet normal 0 0 1
    outer loop
      vertex -6.18034 19.0211 3
      vertex -5 14 3
      vertex -5 16 3
    endloop
  endfacet
  facet normal 0 0 1
    outer loop
      vertex -14 5 3
      vertex -5 14 3
      vertex -6.18034 19.0211 3
    endloop
  endfacet
  facet normal 0 0 1
    outer loop
      vertex -5 14 3
      vertex -14 5 3
      vertex -5 -14 3
    endloop
  endfacet
  facet normal -0 0 1
    outer loop
      vertex -6.18034 19.0211 3
      vertex -5 16 3
      vertex -2.09057 19.8904 3
    endloop
  endfacet
endsolid OpenSCAD_Model
