solid OpenSCAD_Model
  facet normal -0.40674 -0.913544 0
    outer loop
      vertex -12.5 -21.6506 -2.5
      vertex -7.72542 -23.7764 2.5
      vertex -12.5 -21.6506 2.5
    endloop
  endfacet
  facet normal -0.40674 -0.913544 -0
    outer loop
      vertex -7.72542 -23.7764 2.5
      vertex -12.5 -21.6506 -2.5
      vertex -7.72542 -23.7764 -2.5
    endloop
  endfacet
  facet normal -0.951054 -0.309026 0
    outer loop
      vertex -22.8386 -10.1684 -2.5
      vertex -24.4537 -5.19779 2.5
      vertex -24.4537 -5.19779 -2.5
    endloop
  endfacet
  facet normal -0.951054 -0.309026 0
    outer loop
      vertex -24.4537 -5.19779 2.5
      vertex -22.8386 -10.1684 -2.5
      vertex -22.8386 -10.1684 2.5
    endloop
  endfacet
  facet normal 0.951054 0.309026 0
    outer loop
      vertex 24.4537 5.19779 2.5
      vertex 22.8386 10.1684 -2.5
      vertex 22.8386 10.1684 2.5
    endloop
  endfacet
  facet normal 0.951054 0.309026 0
    outer loop
      vertex 22.8386 10.1684 -2.5
      vertex 24.4537 5.19779 2.5
      vertex 24.4537 5.19779 -2.5
    endloop
  endfacet
  facet normal 0.994522 0.104527 0
    outer loop
      vertex 25 0 2.5
      vertex 24.4537 5.19779 -2.5
      vertex 24.4537 5.19779 2.5
    endloop
  endfacet
  facet normal 0.994522 0.104527 0
    outer loop
      vertex 24.4537 5.19779 -2.5
      vertex 25 0 2.5
      vertex 25 0 -2.5
    endloop
  endfacet
  facet normal 0.866026 0.5 0
    outer loop
      vertex 22.8386 10.1684 2.5
      vertex 20.2254 14.6946 -2.5
      vertex 20.2254 14.6946 2.5
    endloop
  endfacet
  facet normal 0.866026 0.5 0
    outer loop
      vertex 20.2254 14.6946 -2.5
      vertex 22.8386 10.1684 2.5
      vertex 22.8386 10.1684 -2.5
    endloop
  endfacet
  facet normal 0.58778 -0.809021 0
    outer loop
      vertex 12.5 -21.6506 -2.5
      vertex 16.7283 -18.5786 2.5
      vertex 12.5 -21.6506 2.5
    endloop
  endfacet
  facet normal 0.58778 -0.809021 0
    outer loop
      vertex 16.7283 -18.5786 2.5
      vertex 12.5 -21.6506 -2.5
      vertex 16.7283 -18.5786 -2.5
    endloop
  endfacet
  facet normal 0.40674 0.913544 -0
    outer loop
      vertex 12.5 21.6506 -2.5
      vertex 7.72542 23.7764 2.5
      vertex 12.5 21.6506 2.5
    endloop
  endfacet
  facet normal 0.40674 0.913544 0
    outer loop
      vertex 7.72542 23.7764 2.5
      vertex 12.5 21.6506 -2.5
      vertex 7.72542 23.7764 -2.5
    endloop
  endfacet
  facet normal 0.994522 -0.104527 0
    outer loop
      vertex 24.4537 -5.19779 2.5
      vertex 25 0 -2.5
      vertex 25 0 2.5
    endloop
  endfacet
  facet normal 0.994522 -0.104527 0
    outer loop
      vertex 25 0 -2.5
      vertex 24.4537 -5.19779 2.5
      vertex 24.4537 -5.19779 -2.5
    endloop
  endfacet
  facet normal 0.743151 0.669123 0
    outer loop
      vertex 20.2254 14.6946 2.5
      vertex 16.7283 18.5786 -2.5
      vertex 16.7283 18.5786 2.5
    endloop
  endfacet
  facet normal 0.743151 0.669123 0
    outer loop
      vertex 16.7283 18.5786 -2.5
      vertex 20.2254 14.6946 2.5
      vertex 20.2254 14.6946 -2.5
    endloop
  endfacet
  facet normal -0.866026 0.5 0
    outer loop
      vertex -22.8386 10.1684 -2.5
      vertex -20.2254 14.6946 2.5
      vertex -20.2254 14.6946 -2.5
    endloop
  endfacet
  facet normal -0.866026 0.5 0
    outer loop
      vertex -20.2254 14.6946 2.5
      vertex -22.8386 10.1684 -2.5
      vertex -22.8386 10.1684 2.5
    endloop
  endfacet
  facet normal 0.743151 -0.669123 0
    outer loop
      vertex 16.7283 -18.5786 2.5
      vertex 20.2254 -14.6946 -2.5
      vertex 20.2254 -14.6946 2.5
    endloop
  endfacet
  facet normal 0.743151 -0.669123 0
    outer loop
      vertex 20.2254 -14.6946 -2.5
      vertex 16.7283 -18.5786 2.5
      vertex 16.7283 -18.5786 -2.5
    endloop
  endfacet
  facet normal -0.743151 0.669123 0
    outer loop
      vertex -20.2254 14.6946 -2.5
      vertex -16.7283 18.5786 2.5
      vertex -16.7283 18.5786 -2.5
    endloop
  endfacet
  facet normal -0.743151 0.669123 0
    outer loop
      vertex -16.7283 18.5786 2.5
      vertex -20.2254 14.6946 -2.5
      vertex -20.2254 14.6946 2.5
    endloop
  endfacet
  facet normal 0.866026 -0.5 0
    outer loop
      vertex 20.2254 -14.6946 2.5
      vertex 22.8386 -10.1684 -2.5
      vertex 22.8386 -10.1684 2.5
    endloop
  endfacet
  facet normal 0.866026 -0.5 0
    outer loop
      vertex 22.8386 -10.1684 -2.5
      vertex 20.2254 -14.6946 2.5
      vertex 20.2254 -14.6946 -2.5
    endloop
  endfacet
  facet normal -0.58778 0.809021 0
    outer loop
      vertex -12.5 21.6506 -2.5
      vertex -16.7283 18.5786 2.5
      vertex -12.5 21.6506 2.5
    endloop
  endfacet
  facet normal -0.58778 0.809021 0
    outer loop
      vertex -16.7283 18.5786 2.5
      vertex -12.5 21.6506 -2.5
      vertex -16.7283 18.5786 -2.5
    endloop
  endfacet
  facet normal 0 0 1
    outer loop
      vertex 24.4537 5.19779 2.5
      vertex 24.4537 -5.19779 2.5
      vertex 25 0 2.5
    endloop
  endfacet
  facet normal 0 0 1
    outer loop
      vertex 22.8386 10.1684 2.5
      vertex 24.4537 -5.19779 2.5
      vertex 24.4537 5.19779 2.5
    endloop
  endfacet
  facet normal 0 0 1
    outer loop
      vertex 22.8386 10.1684 2.5
      vertex 22.8386 -10.1684 2.5
      vertex 24.4537 -5.19779 2.5
    endloop
  endfacet
  facet normal 0 0 1
    outer loop
      vertex 20.2254 14.6946 2.5
      vertex 22.8386 -10.1684 2.5
      vertex 22.8386 10.1684 2.5
    endloop
  endfacet
  facet normal 0 0 1
    outer loop
      vertex 20.2254 14.6946 2.5
      vertex 20.2254 -14.6946 2.5
      vertex 22.8386 -10.1684 2.5
    endloop
  endfacet
  facet normal 0 0 1
    outer loop
      vertex 16.7283 18.5786 2.5
      vertex 20.2254 -14.6946 2.5
      vertex 20.2254 14.6946 2.5
    endloop
  endfacet
  facet normal 0 0 1
    outer loop
      vertex 16.7283 18.5786 2.5
      vertex 16.7283 -18.5786 2.5
      vertex 20.2254 -14.6946 2.5
    endloop
  endfacet
  facet normal 0 0 1
    outer loop
      vertex 12.5 21.6506 2.5
      vertex 16.7283 -18.5786 2.5
      vertex 16.7283 18.5786 2.5
    endloop
  endfacet
  facet normal 0 0 1
    outer loop
      vertex 12.5 21.6506 2.5
      vertex 12.5 -21.6506 2.5
      vertex 16.7283 -18.5786 2.5
    endloop
  endfacet
  facet normal 0 0 1
    outer loop
      vertex 7.72542 23.7764 2.5
      vertex 12.5 -21.6506 2.5
      vertex 12.5 21.6506 2.5
    endloop
  endfacet
  facet normal 0 0 1
    outer loop
      vertex 7.72542 23.7764 2.5
      vertex 7.72542 -23.7764 2.5
      vertex 12.5 -21.6506 2.5
    endloop
  endfacet
  facet normal 0 0 1
    outer loop
      vertex 2.61321 24.863 2.5
      vertex 7.72542 -23.7764 2.5
      vertex 7.72542 23.7764 2.5
    endloop
  endfacet
  facet normal 0 0 1
    outer loop
      vertex 2.61321 24.863 2.5
      vertex 2.61321 -24.863 2.5
      vertex 7.72542 -23.7764 2.5
    endloop
  endfacet
  facet normal -0 0 1
    outer loop
      vertex -2.61321 24.863 2.5
      vertex 2.61321 -24.863 2.5
      vertex 2.61321 24.863 2.5
    endloop
  endfacet
  facet normal 0 0 1
    outer loop
      vertex -2.61321 24.863 2.5
      vertex -2.61321 -24.863 2.5
      vertex 2.61321 -24.863 2.5
    endloop
  endfacet
  facet normal -0 0 1
    outer loop
      vertex -7.72542 23.7764 2.5
      vertex -2.61321 -24.863 2.5
      vertex -2.61321 24.863 2.5
    endloop
  endfacet
  facet normal 0 0 1
    outer loop
      vertex -7.72542 23.7764 2.5
      vertex -7.72542 -23.7764 2.5
      vertex -2.61321 -24.863 2.5
    endloop
  endfacet
  facet normal -0 0 1
    outer loop
      vertex -12.5 21.6506 2.5
      vertex -7.72542 -23.7764 2.5
      vertex -7.72542 23.7764 2.5
    endloop
  endfacet
  facet normal 0 0 1
    outer loop
      vertex -12.5 21.6506 2.5
      vertex -12.5 -21.6506 2.5
      vertex -7.72542 -23.7764 2.5
    endloop
  endfacet
  facet normal -0 0 1
    outer loop
      vertex -16.7283 18.5786 2.5
      vertex -12.5 -21.6506 2.5
      vertex -12.5 21.6506 2.5
    endloop
  endfacet
  facet normal 0 0 1
    outer loop
      vertex -16.7283 18.5786 2.5
      vertex -16.7283 -18.5786 2.5
      vertex -12.5 -21.6506 2.5
    endloop
  endfacet
  facet normal -0 0 1
    outer loop
      vertex -20.2254 14.6946 2.5
      vertex -16.7283 -18.5786 2.5
      vertex -16.7283 18.5786 2.5
    endloop
  endfacet
  facet normal 0 0 1
    outer loop
      vertex -20.2254 14.6946 2.5
      vertex -20.2254 -14.6946 2.5
      vertex -16.7283 -18.5786 2.5
    endloop
  endfacet
  facet normal -0 0 1
    outer loop
      vertex -22.8386 10.1684 2.5
      vertex -20.2254 -14.6946 2.5
      vertex -20.2254 14.6946 2.5
    endloop
  endfacet
  facet normal 0 0 1
    outer loop
      vertex -22.8386 10.1684 2.5
      vertex -22.8386 -10.1684 2.5
      vertex -20.2254 -14.6946 2.5
    endloop
  endfacet
  facet normal -0 0 1
    outer loop
      vertex -24.4537 5.19779 2.5
      vertex -22.8386 -10.1684 2.5
      vertex -22.8386 10.1684 2.5
    endloop
  endfacet
  facet normal 0 0 1
    outer loop
      vertex -24.4537 5.19779 2.5
      vertex -24.4537 -5.19779 2.5
      vertex -22.8386 -10.1684 2.5
    endloop
  endfacet
  facet normal 0 -0 1
    outer loop
      vertex -24.4537 -5.19779 2.5
      vertex -24.4537 5.19779 2.5
      vertex -25 0 2.5
    endloop
  endfacet
  facet normal 0.951054 -0.309026 0
    outer loop
      vertex 22.8386 -10.1684 2.5
      vertex 24.4537 -5.19779 -2.5
      vertex 24.4537 -5.19779 2.5
    endloop
  endfacet
  facet normal 0.951054 -0.309026 0
    outer loop
      vertex 24.4537 -5.19779 -2.5
      vertex 22.8386 -10.1684 2.5
      vertex 22.8386 -10.1684 -2.5
    endloop
  endfacet
  facet normal 0 1 -0
    outer loop
      vertex 2.61321 24.863 -2.5
      vertex -2.61321 24.863 2.5
      vertex 2.61321 24.863 2.5
    endloop
  endfacet
  facet normal 0 1 0
    outer loop
      vertex -2.61321 24.863 2.5
      vertex 2.61321 24.863 -2.5
      vertex -2.61321 24.863 -2.5
    endloop
  endfacet
  facet normal -0.58778 -0.809021 0
    outer loop
      vertex -16.7283 -18.5786 -2.5
      vertex -12.5 -21.6506 2.5
      vertex -16.7283 -18.5786 2.5
    endloop
  endfacet
  facet normal -0.58778 -0.809021 -0
    outer loop
      vertex -12.5 -21.6506 2.5
      vertex -16.7283 -18.5786 -2.5
      vertex -12.5 -21.6506 -2.5
    endloop
  endfacet
  facet normal 0 0 -1
    outer loop
      vertex 15 0 -2.5
      vertex 25 0 -2.5
      vertex 24.4537 -5.19779 -2.5
    endloop
  endfacet
  facet normal 0 0 -1
    outer loop
      vertex 14.6722 -3.11868 -2.5
      vertex 24.4537 -5.19779 -2.5
      vertex 22.8386 -10.1684 -2.5
    endloop
  endfacet
  facet normal 0 0 -1
    outer loop
      vertex 25 0 -2.5
      vertex 15 0 -2.5
      vertex 24.4537 5.19779 -2.5
    endloop
  endfacet
  facet normal 0 0 -1
    outer loop
      vertex 13.7032 -6.10105 -2.5
      vertex 22.8386 -10.1684 -2.5
      vertex 20.2254 -14.6946 -2.5
    endloop
  endfacet
  facet normal 0 0 -1
    outer loop
      vertex 14.6722 3.11868 -2.5
      vertex 24.4537 5.19779 -2.5
      vertex 15 0 -2.5
    endloop
  endfacet
  facet normal 0 0 -1
    outer loop
      vertex 12.1353 -8.81678 -2.5
      vertex 20.2254 -14.6946 -2.5
      vertex 16.7283 -18.5786 -2.5
    endloop
  endfacet
  facet normal -0 0 -1
    outer loop
      vertex 24.4537 5.19779 -2.5
      vertex 14.6722 3.11868 -2.5
      vertex 22.8386 10.1684 -2.5
    endloop
  endfacet
  facet normal 0 0 -1
    outer loop
      vertex 13.7032 6.10105 -2.5
      vertex 22.8386 10.1684 -2.5
      vertex 14.6722 3.11868 -2.5
    endloop
  endfacet
  facet normal 0 0 -1
    outer loop
      vertex 24.4537 -5.19779 -2.5
      vertex 14.6722 -3.11868 -2.5
      vertex 15 0 -2.5
    endloop
  endfacet
  facet normal 0 0 -1
    outer loop
      vertex 22.8386 -10.1684 -2.5
      vertex 13.7032 -6.10105 -2.5
      vertex 14.6722 -3.11868 -2.5
    endloop
  endfacet
  facet normal 0 0 -1
    outer loop
      vertex 10.037 -11.1472 -2.5
      vertex 16.7283 -18.5786 -2.5
      vertex 12.5 -21.6506 -2.5
    endloop
  endfacet
  facet normal 0 0 -1
    outer loop
      vertex 20.2254 -14.6946 -2.5
      vertex 12.1353 -8.81678 -2.5
      vertex 13.7032 -6.10105 -2.5
    endloop
  endfacet
  facet normal 0 0 -1
    outer loop
      vertex 16.7283 -18.5786 -2.5
      vertex 10.037 -11.1472 -2.5
      vertex 12.1353 -8.81678 -2.5
    endloop
  endfacet
  facet normal 0 0 -1
    outer loop
      vertex 7.5 -12.9904 -2.5
      vertex 12.5 -21.6506 -2.5
      vertex 7.72542 -23.7764 -2.5
    endloop
  endfacet
  facet normal 0 0 -1
    outer loop
      vertex 12.5 -21.6506 -2.5
      vertex 7.5 -12.9904 -2.5
      vertex 10.037 -11.1472 -2.5
    endloop
  endfacet
  facet normal 0 0 -1
    outer loop
      vertex 7.72542 -23.7764 -2.5
      vertex 4.63525 -14.2658 -2.5
      vertex 7.5 -12.9904 -2.5
    endloop
  endfacet
  facet normal 0 0 -1
    outer loop
      vertex 2.61321 -24.863 -2.5
      vertex 4.63525 -14.2658 -2.5
      vertex 7.72542 -23.7764 -2.5
    endloop
  endfacet
  facet normal 0 0 -1
    outer loop
      vertex 2.61321 -24.863 -2.5
      vertex 1.56793 -14.9178 -2.5
      vertex 4.63525 -14.2658 -2.5
    endloop
  endfacet
  facet normal 0 0 -1
    outer loop
      vertex 2.61321 -24.863 -2.5
      vertex -1.56793 -14.9178 -2.5
      vertex 1.56793 -14.9178 -2.5
    endloop
  endfacet
  facet normal 0 0 -1
    outer loop
      vertex -2.61321 -24.863 -2.5
      vertex -1.56793 -14.9178 -2.5
      vertex 2.61321 -24.863 -2.5
    endloop
  endfacet
  facet normal 0 0 -1
    outer loop
      vertex -2.61321 -24.863 -2.5
      vertex -4.63525 -14.2658 -2.5
      vertex -1.56793 -14.9178 -2.5
    endloop
  endfacet
  facet normal 0 0 -1
    outer loop
      vertex -7.72542 -23.7764 -2.5
      vertex -4.63525 -14.2658 -2.5
      vertex -2.61321 -24.863 -2.5
    endloop
  endfacet
  facet normal -0 0 -1
    outer loop
      vertex -4.63525 -14.2658 -2.5
      vertex -7.72542 -23.7764 -2.5
      vertex -7.5 -12.9904 -2.5
    endloop
  endfacet
  facet normal 0 0 -1
    outer loop
      vertex -12.5 -21.6506 -2.5
      vertex -7.5 -12.9904 -2.5
      vertex -7.72542 -23.7764 -2.5
    endloop
  endfacet
  facet normal -0 0 -1
    outer loop
      vertex -7.5 -12.9904 -2.5
      vertex -12.5 -21.6506 -2.5
      vertex -10.037 -11.1472 -2.5
    endloop
  endfacet
  facet normal 0 0 -1
    outer loop
      vertex -16.7283 -18.5786 -2.5
      vertex -10.037 -11.1472 -2.5
      vertex -12.5 -21.6506 -2.5
    endloop
  endfacet
  facet normal -0 0 -1
    outer loop
      vertex -10.037 -11.1472 -2.5
      vertex -16.7283 -18.5786 -2.5
      vertex -12.1353 -8.81678 -2.5
    endloop
  endfacet
  facet normal 0 0 -1
    outer loop
      vertex -20.2254 -14.6946 -2.5
      vertex -12.1353 -8.81678 -2.5
      vertex -16.7283 -18.5786 -2.5
    endloop
  endfacet
  facet normal 0 0 -1
    outer loop
      vertex -22.8386 -10.1684 -2.5
      vertex -13.7032 -6.10105 -2.5
      vertex -20.2254 -14.6946 -2.5
    endloop
  endfacet
  facet normal -0 0 -1
    outer loop
      vertex -12.1353 -8.81678 -2.5
      vertex -20.2254 -14.6946 -2.5
      vertex -13.7032 -6.10105 -2.5
    endloop
  endfacet
  facet normal -0 0 -1
    outer loop
      vertex 22.8386 10.1684 -2.5
      vertex 13.7032 6.10105 -2.5
      vertex 20.2254 14.6946 -2.5
    endloop
  endfacet
  facet normal 0 0 -1
    outer loop
      vertex 12.1353 8.81678 -2.5
      vertex 20.2254 14.6946 -2.5
      vertex 13.7032 6.10105 -2.5
    endloop
  endfacet
  facet normal -0 0 -1
    outer loop
      vertex 20.2254 14.6946 -2.5
      vertex 12.1353 8.81678 -2.5
      vertex 16.7283 18.5786 -2.5
    endloop
  endfacet
  facet normal 0 0 -1
    outer loop
      vertex 10.037 11.1472 -2.5
      vertex 16.7283 18.5786 -2.5
      vertex 12.1353 8.81678 -2.5
    endloop
  endfacet
  facet normal -0 0 -1
    outer loop
      vertex 16.7283 18.5786 -2.5
      vertex 10.037 11.1472 -2.5
      vertex 12.5 21.6506 -2.5
    endloop
  endfacet
  facet normal 0 0 -1
    outer loop
      vertex 7.5 12.9904 -2.5
      vertex 12.5 21.6506 -2.5
      vertex 10.037 11.1472 -2.5
    endloop
  endfacet
  facet normal -0 0 -1
    outer loop
      vertex 12.5 21.6506 -2.5
      vertex 7.5 12.9904 -2.5
      vertex 7.72542 23.7764 -2.5
    endloop
  endfacet
  facet normal 0 0 -1
    outer loop
      vertex 4.63525 14.2658 -2.5
      vertex 7.72542 23.7764 -2.5
      vertex 7.5 12.9904 -2.5
    endloop
  endfacet
  facet normal 0 0 -1
    outer loop
      vertex 4.63525 14.2658 -2.5
      vertex 2.61321 24.863 -2.5
      vertex 7.72542 23.7764 -2.5
    endloop
  endfacet
  facet normal 0 0 -1
    outer loop
      vertex 1.56793 14.9178 -2.5
      vertex 2.61321 24.863 -2.5
      vertex 4.63525 14.2658 -2.5
    endloop
  endfacet
  facet normal 0 0 -1
    outer loop
      vertex -1.56793 14.9178 -2.5
      vertex 2.61321 24.863 -2.5
      vertex 1.56793 14.9178 -2.5
    endloop
  endfacet
  facet normal 0 0 -1
    outer loop
      vertex -1.56793 14.9178 -2.5
      vertex -2.61321 24.863 -2.5
      vertex 2.61321 24.863 -2.5
    endloop
  endfacet
  facet normal 0 0 -1
    outer loop
      vertex -4.63525 14.2658 -2.5
      vertex -2.61321 24.863 -2.5
      vertex -1.56793 14.9178 -2.5
    endloop
  endfacet
  facet normal 0 0 -1
    outer loop
      vertex -7.72542 23.7764 -2.5
      vertex -4.63525 14.2658 -2.5
      vertex -7.5 12.9904 -2.5
    endloop
  endfacet
  facet normal 0 0 -1
    outer loop
      vertex -4.63525 14.2658 -2.5
      vertex -7.72542 23.7764 -2.5
      vertex -2.61321 24.863 -2.5
    endloop
  endfacet
  facet normal 0 0 -1
    outer loop
      vertex -12.5 21.6506 -2.5
      vertex -7.5 12.9904 -2.5
      vertex -10.037 11.1472 -2.5
    endloop
  endfacet
  facet normal 0 0 -1
    outer loop
      vertex -16.7283 18.5786 -2.5
      vertex -10.037 11.1472 -2.5
      vertex -12.1353 8.81678 -2.5
    endloop
  endfacet
  facet normal 0 0 -1
    outer loop
      vertex -7.5 12.9904 -2.5
      vertex -12.5 21.6506 -2.5
      vertex -7.72542 23.7764 -2.5
    endloop
  endfacet
  facet normal 0 0 -1
    outer loop
      vertex -20.2254 14.6946 -2.5
      vertex -12.1353 8.81678 -2.5
      vertex -13.7032 6.10105 -2.5
    endloop
  endfacet
  facet normal 0 0 -1
    outer loop
      vertex -22.8386 10.1684 -2.5
      vertex -13.7032 6.10105 -2.5
      vertex -14.6722 3.11868 -2.5
    endloop
  endfacet
  facet normal 0 0 -1
    outer loop
      vertex -10.037 11.1472 -2.5
      vertex -16.7283 18.5786 -2.5
      vertex -12.5 21.6506 -2.5
    endloop
  endfacet
  facet normal 0 0 -1
    outer loop
      vertex -24.4537 5.19779 -2.5
      vertex -14.6722 3.11868 -2.5
      vertex -15 0 -2.5
    endloop
  endfacet
  facet normal -0 0 -1
    outer loop
      vertex -13.7032 -6.10105 -2.5
      vertex -22.8386 -10.1684 -2.5
      vertex -14.6722 -3.11868 -2.5
    endloop
  endfacet
  facet normal 0 0 -1
    outer loop
      vertex -24.4537 -5.19779 -2.5
      vertex -14.6722 -3.11868 -2.5
      vertex -22.8386 -10.1684 -2.5
    endloop
  endfacet
  facet normal 0 0 -1
    outer loop
      vertex -12.1353 8.81678 -2.5
      vertex -20.2254 14.6946 -2.5
      vertex -16.7283 18.5786 -2.5
    endloop
  endfacet
  facet normal -0 0 -1
    outer loop
      vertex -14.6722 -3.11868 -2.5
      vertex -24.4537 -5.19779 -2.5
      vertex -15 0 -2.5
    endloop
  endfacet
  facet normal 0 0 -1
    outer loop
      vertex -13.7032 6.10105 -2.5
      vertex -22.8386 10.1684 -2.5
      vertex -20.2254 14.6946 -2.5
    endloop
  endfacet
  facet normal 0 0 -1
    outer loop
      vertex -25 0 -2.5
      vertex -15 0 -2.5
      vertex -24.4537 -5.19779 -2.5
    endloop
  endfacet
  facet normal 0 0 -1
    outer loop
      vertex -14.6722 3.11868 -2.5
      vertex -24.4537 5.19779 -2.5
      vertex -22.8386 10.1684 -2.5
    endloop
  endfacet
  facet normal 0 0 -1
    outer loop
      vertex -15 0 -2.5
      vertex -25 0 -2.5
      vertex -24.4537 5.19779 -2.5
    endloop
  endfacet
  facet normal -0.40674 0.913544 0
    outer loop
      vertex -7.72542 23.7764 -2.5
      vertex -12.5 21.6506 2.5
      vertex -7.72542 23.7764 2.5
    endloop
  endfacet
  facet normal -0.40674 0.913544 0
    outer loop
      vertex -12.5 21.6506 2.5
      vertex -7.72542 23.7764 -2.5
      vertex -12.5 21.6506 -2.5
    endloop
  endfacet
  facet normal -0.994522 -0.104527 0
    outer loop
      vertex -24.4537 -5.19779 -2.5
      vertex -25 0 2.5
      vertex -25 0 -2.5
    endloop
  endfacet
  facet normal -0.994522 -0.104527 0
    outer loop
      vertex -25 0 2.5
      vertex -24.4537 -5.19779 -2.5
      vertex -24.4537 -5.19779 2.5
    endloop
  endfacet
  facet normal -0.743151 -0.669123 0
    outer loop
      vertex -16.7283 -18.5786 -2.5
      vertex -20.2254 -14.6946 2.5
      vertex -20.2254 -14.6946 -2.5
    endloop
  endfacet
  facet normal -0.743151 -0.669123 0
    outer loop
      vertex -20.2254 -14.6946 2.5
      vertex -16.7283 -18.5786 -2.5
      vertex -16.7283 -18.5786 2.5
    endloop
  endfacet
  facet normal -0.866026 -0.5 0
    outer loop
      vertex -20.2254 -14.6946 -2.5
      vertex -22.8386 -10.1684 2.5
      vertex -22.8386 -10.1684 -2.5
    endloop
  endfacet
  facet normal -0.866026 -0.5 0
    outer loop
      vertex -22.8386 -10.1684 2.5
      vertex -20.2254 -14.6946 -2.5
      vertex -20.2254 -14.6946 2.5
    endloop
  endfacet
  facet normal 0.207906 -0.978149 0
    outer loop
      vertex 2.61321 -24.863 -2.5
      vertex 7.72542 -23.7764 2.5
      vertex 2.61321 -24.863 2.5
    endloop
  endfacet
  facet normal 0.207906 -0.978149 0
    outer loop
      vertex 7.72542 -23.7764 2.5
      vertex 2.61321 -24.863 -2.5
      vertex 7.72542 -23.7764 -2.5
    endloop
  endfacet
  facet normal -0.994522 0.104527 0
    outer loop
      vertex -25 0 -2.5
      vertex -24.4537 5.19779 2.5
      vertex -24.4537 5.19779 -2.5
    endloop
  endfacet
  facet normal -0.994522 0.104527 0
    outer loop
      vertex -24.4537 5.19779 2.5
      vertex -25 0 -2.5
      vertex -25 0 2.5
    endloop
  endfacet
  facet normal 0.207906 0.978149 -0
    outer loop
      vertex 7.72542 23.7764 -2.5
      vertex 2.61321 24.863 2.5
      vertex 7.72542 23.7764 2.5
    endloop
  endfacet
  facet normal 0.207906 0.978149 0
    outer loop
      vertex 2.61321 24.863 2.5
      vertex 7.72542 23.7764 -2.5
      vertex 2.61321 24.863 -2.5
    endloop
  endfacet
  facet normal 0.58778 0.809021 -0
    outer loop
      vertex 16.7283 18.5786 -2.5
      vertex 12.5 21.6506 2.5
      vertex 16.7283 18.5786 2.5
    endloop
  endfacet
  facet normal 0.58778 0.809021 0
    outer loop
      vertex 12.5 21.6506 2.5
      vertex 16.7283 18.5786 -2.5
      vertex 12.5 21.6506 -2.5
    endloop
  endfacet
  facet normal -0.207906 0.978149 0
    outer loop
      vertex -2.61321 24.863 -2.5
      vertex -7.72542 23.7764 2.5
      vertex -2.61321 24.863 2.5
    endloop
  endfacet
  facet normal -0.207906 0.978149 0
    outer loop
      vertex -7.72542 23.7764 2.5
      vertex -2.61321 24.863 -2.5
      vertex -7.72542 23.7764 -2.5
    endloop
  endfacet
  facet normal 0.40674 -0.913544 0
    outer loop
      vertex 7.72542 -23.7764 -2.5
      vertex 12.5 -21.6506 2.5
      vertex 7.72542 -23.7764 2.5
    endloop
  endfacet
  facet normal 0.40674 -0.913544 0
    outer loop
      vertex 12.5 -21.6506 2.5
      vertex 7.72542 -23.7764 -2.5
      vertex 12.5 -21.6506 -2.5
    endloop
  endfacet
  facet normal 0 -1 0
    outer loop
      vertex -2.61321 -24.863 -2.5
      vertex 2.61321 -24.863 2.5
      vertex -2.61321 -24.863 2.5
    endloop
  endfacet
  facet normal 0 -1 -0
    outer loop
      vertex 2.61321 -24.863 2.5
      vertex -2.61321 -24.863 -2.5
      vertex 2.61321 -24.863 -2.5
    endloop
  endfacet
  facet normal -0.207906 -0.978149 0
    outer loop
      vertex -7.72542 -23.7764 -2.5
      vertex -2.61321 -24.863 2.5
      vertex -7.72542 -23.7764 2.5
    endloop
  endfacet
  facet normal -0.207906 -0.978149 -0
    outer loop
      vertex -2.61321 -24.863 2.5
      vertex -7.72542 -23.7764 -2.5
      vertex -2.61321 -24.863 -2.5
    endloop
  endfacet
  facet normal -0.951054 0.309026 0
    outer loop
      vertex -24.4537 5.19779 -2.5
      vertex -22.8386 10.1684 2.5
      vertex -22.8386 10.1684 -2.5
    endloop
  endfacet
  facet normal -0.951054 0.309026 0
    outer loop
      vertex -22.8386 10.1684 2.5
      vertex -24.4537 5.19779 -2.5
      vertex -24.4537 5.19779 2.5
    endloop
  endfacet
  facet normal -0.951059 -0.309008 0
    outer loop
      vertex 14.6722 3.11868 -2.5
      vertex 13.7032 6.10105 0.5
      vertex 13.7032 6.10105 -2.5
    endloop
  endfacet
  facet normal -0.951059 -0.309008 0
    outer loop
      vertex 13.7032 6.10105 0.5
      vertex 14.6722 3.11868 -2.5
      vertex 14.6722 3.11868 0.5
    endloop
  endfacet
  facet normal -0.994521 -0.104533 0
    outer loop
      vertex 15 0 -2.5
      vertex 14.6722 3.11868 0.5
      vertex 14.6722 3.11868 -2.5
    endloop
  endfacet
  facet normal -0.994521 -0.104533 0
    outer loop
      vertex 14.6722 3.11868 0.5
      vertex 15 0 -2.5
      vertex 15 0 0.5
    endloop
  endfacet
  facet normal -0.866029 -0.499993 0
    outer loop
      vertex 13.7032 6.10105 -2.5
      vertex 12.1353 8.81678 0.5
      vertex 12.1353 8.81678 -2.5
    endloop
  endfacet
  facet normal -0.866029 -0.499993 0
    outer loop
      vertex 12.1353 8.81678 0.5
      vertex 13.7032 6.10105 -2.5
      vertex 13.7032 6.10105 0.5
    endloop
  endfacet
  facet normal -0.587777 -0.809023 0
    outer loop
      vertex 7.5 12.9904 -2.5
      vertex 10.037 11.1472 0.5
      vertex 7.5 12.9904 0.5
    endloop
  endfacet
  facet normal -0.587777 -0.809023 -0
    outer loop
      vertex 10.037 11.1472 0.5
      vertex 7.5 12.9904 -2.5
      vertex 10.037 11.1472 -2.5
    endloop
  endfacet
  facet normal -0.951059 0.309008 0
    outer loop
      vertex 13.7032 -6.10105 -2.5
      vertex 14.6722 -3.11868 0.5
      vertex 14.6722 -3.11868 -2.5
    endloop
  endfacet
  facet normal -0.951059 0.309008 0
    outer loop
      vertex 14.6722 -3.11868 0.5
      vertex 13.7032 -6.10105 -2.5
      vertex 13.7032 -6.10105 0.5
    endloop
  endfacet
  facet normal -0.994521 0.104533 0
    outer loop
      vertex 14.6722 -3.11868 -2.5
      vertex 15 0 0.5
      vertex 15 0 -2.5
    endloop
  endfacet
  facet normal -0.994521 0.104533 0
    outer loop
      vertex 15 0 0.5
      vertex 14.6722 -3.11868 -2.5
      vertex 14.6722 -3.11868 0.5
    endloop
  endfacet
  facet normal -0.743148 -0.669127 0
    outer loop
      vertex 12.1353 8.81678 -2.5
      vertex 10.037 11.1472 0.5
      vertex 10.037 11.1472 -2.5
    endloop
  endfacet
  facet normal -0.743148 -0.669127 0
    outer loop
      vertex 10.037 11.1472 0.5
      vertex 12.1353 8.81678 -2.5
      vertex 12.1353 8.81678 0.5
    endloop
  endfacet
  facet normal 0.951059 0.309008 0
    outer loop
      vertex -13.7032 -6.10105 0.5
      vertex -14.6722 -3.11868 -2.5
      vertex -14.6722 -3.11868 0.5
    endloop
  endfacet
  facet normal 0.951059 0.309008 0
    outer loop
      vertex -14.6722 -3.11868 -2.5
      vertex -13.7032 -6.10105 0.5
      vertex -13.7032 -6.10105 -2.5
    endloop
  endfacet
  facet normal 0.951059 -0.309008 0
    outer loop
      vertex -14.6722 3.11868 0.5
      vertex -13.7032 6.10105 -2.5
      vertex -13.7032 6.10105 0.5
    endloop
  endfacet
  facet normal 0.951059 -0.309008 0
    outer loop
      vertex -13.7032 6.10105 -2.5
      vertex -14.6722 3.11868 0.5
      vertex -14.6722 3.11868 -2.5
    endloop
  endfacet
  facet normal -0.587777 0.809023 0
    outer loop
      vertex 10.037 -11.1472 -2.5
      vertex 7.5 -12.9904 0.5
      vertex 10.037 -11.1472 0.5
    endloop
  endfacet
  facet normal -0.587777 0.809023 0
    outer loop
      vertex 7.5 -12.9904 0.5
      vertex 10.037 -11.1472 -2.5
      vertex 7.5 -12.9904 -2.5
    endloop
  endfacet
  facet normal 0.587777 -0.809023 0
    outer loop
      vertex -10.037 11.1472 -2.5
      vertex -7.5 12.9904 0.5
      vertex -10.037 11.1472 0.5
    endloop
  endfacet
  facet normal 0.587777 -0.809023 0
    outer loop
      vertex -7.5 12.9904 0.5
      vertex -10.037 11.1472 -2.5
      vertex -7.5 12.9904 -2.5
    endloop
  endfacet
  facet normal 0 0 -1
    outer loop
      vertex 14.6722 -3.11868 0.5
      vertex 14.6722 3.11868 0.5
      vertex 15 0 0.5
    endloop
  endfacet
  facet normal 0 0 -1
    outer loop
      vertex 13.7032 -6.10105 0.5
      vertex 14.6722 3.11868 0.5
      vertex 14.6722 -3.11868 0.5
    endloop
  endfacet
  facet normal 0 0 -1
    outer loop
      vertex 13.7032 -6.10105 0.5
      vertex 13.7032 6.10105 0.5
      vertex 14.6722 3.11868 0.5
    endloop
  endfacet
  facet normal 0 0 -1
    outer loop
      vertex 12.1353 -8.81678 0.5
      vertex 13.7032 6.10105 0.5
      vertex 13.7032 -6.10105 0.5
    endloop
  endfacet
  facet normal 0 0 -1
    outer loop
      vertex 12.1353 -8.81678 0.5
      vertex 12.1353 8.81678 0.5
      vertex 13.7032 6.10105 0.5
    endloop
  endfacet
  facet normal 0 0 -1
    outer loop
      vertex 10.037 -11.1472 0.5
      vertex 12.1353 8.81678 0.5
      vertex 12.1353 -8.81678 0.5
    endloop
  endfacet
  facet normal 0 0 -1
    outer loop
      vertex 10.037 -11.1472 0.5
      vertex 10.037 11.1472 0.5
      vertex 12.1353 8.81678 0.5
    endloop
  endfacet
  facet normal 0 0 -1
    outer loop
      vertex 7.5 -12.9904 0.5
      vertex 10.037 11.1472 0.5
      vertex 10.037 -11.1472 0.5
    endloop
  endfacet
  facet normal 0 0 -1
    outer loop
      vertex 7.5 -12.9904 0.5
      vertex 7.5 12.9904 0.5
      vertex 10.037 11.1472 0.5
    endloop
  endfacet
  facet normal 0 0 -1
    outer loop
      vertex 4.63525 -14.2658 0.5
      vertex 7.5 12.9904 0.5
      vertex 7.5 -12.9904 0.5
    endloop
  endfacet
  facet normal 0 0 -1
    outer loop
      vertex 4.63525 -14.2658 0.5
      vertex 4.63525 14.2658 0.5
      vertex 7.5 12.9904 0.5
    endloop
  endfacet
  facet normal 0 0 -1
    outer loop
      vertex 1.56793 -14.9178 0.5
      vertex 4.63525 14.2658 0.5
      vertex 4.63525 -14.2658 0.5
    endloop
  endfacet
  facet normal 0 0 -1
    outer loop
      vertex 1.56793 -14.9178 0.5
      vertex 1.56793 14.9178 0.5
      vertex 4.63525 14.2658 0.5
    endloop
  endfacet
  facet normal 0 0 -1
    outer loop
      vertex -1.56793 -14.9178 0.5
      vertex 1.56793 14.9178 0.5
      vertex 1.56793 -14.9178 0.5
    endloop
  endfacet
  facet normal 0 0 -1
    outer loop
      vertex -1.56793 -14.9178 0.5
      vertex -1.56793 14.9178 0.5
      vertex 1.56793 14.9178 0.5
    endloop
  endfacet
  facet normal 0 0 -1
    outer loop
      vertex -4.63525 -14.2658 0.5
      vertex -1.56793 14.9178 0.5
      vertex -1.56793 -14.9178 0.5
    endloop
  endfacet
  facet normal 0 0 -1
    outer loop
      vertex -4.63525 -14.2658 0.5
      vertex -4.63525 14.2658 0.5
      vertex -1.56793 14.9178 0.5
    endloop
  endfacet
  facet normal 0 0 -1
    outer loop
      vertex -7.5 -12.9904 0.5
      vertex -4.63525 14.2658 0.5
      vertex -4.63525 -14.2658 0.5
    endloop
  endfacet
  facet normal 0 0 -1
    outer loop
      vertex -7.5 -12.9904 0.5
      vertex -7.5 12.9904 0.5
      vertex -4.63525 14.2658 0.5
    endloop
  endfacet
  facet normal 0 0 -1
    outer loop
      vertex -10.037 -11.1472 0.5
      vertex -7.5 12.9904 0.5
      vertex -7.5 -12.9904 0.5
    endloop
  endfacet
  facet normal 0 0 -1
    outer loop
      vertex -10.037 -11.1472 0.5
      vertex -10.037 11.1472 0.5
      vertex -7.5 12.9904 0.5
    endloop
  endfacet
  facet normal 0 0 -1
    outer loop
      vertex -12.1353 -8.81678 0.5
      vertex -10.037 11.1472 0.5
      vertex -10.037 -11.1472 0.5
    endloop
  endfacet
  facet normal 0 0 -1
    outer loop
      vertex -12.1353 -8.81678 0.5
      vertex -12.1353 8.81678 0.5
      vertex -10.037 11.1472 0.5
    endloop
  endfacet
  facet normal 0 0 -1
    outer loop
      vertex -13.7032 -6.10105 0.5
      vertex -12.1353 8.81678 0.5
      vertex -12.1353 -8.81678 0.5
    endloop
  endfacet
  facet normal 0 0 -1
    outer loop
      vertex -13.7032 -6.10105 0.5
      vertex -13.7032 6.10105 0.5
      vertex -12.1353 8.81678 0.5
    endloop
  endfacet
  facet normal 0 0 -1
    outer loop
      vertex -14.6722 -3.11868 0.5
      vertex -13.7032 6.10105 0.5
      vertex -13.7032 -6.10105 0.5
    endloop
  endfacet
  facet normal 0 0 -1
    outer loop
      vertex -14.6722 -3.11868 0.5
      vertex -14.6722 3.11868 0.5
      vertex -13.7032 6.10105 0.5
    endloop
  endfacet
  facet normal 0 -0 -1
    outer loop
      vertex -14.6722 3.11868 0.5
      vertex -14.6722 -3.11868 0.5
      vertex -15 0 0.5
    endloop
  endfacet
  facet normal 0.866029 -0.499993 0
    outer loop
      vertex -13.7032 6.10105 0.5
      vertex -12.1353 8.81678 -2.5
      vertex -12.1353 8.81678 0.5
    endloop
  endfacet
  facet normal 0.866029 -0.499993 0
    outer loop
      vertex -12.1353 8.81678 -2.5
      vertex -13.7032 6.10105 0.5
      vertex -13.7032 6.10105 -2.5
    endloop
  endfacet
  facet normal -0.866029 0.499993 0
    outer loop
      vertex 12.1353 -8.81678 -2.5
      vertex 13.7032 -6.10105 0.5
      vertex 13.7032 -6.10105 -2.5
    endloop
  endfacet
  facet normal -0.866029 0.499993 0
    outer loop
      vertex 13.7032 -6.10105 0.5
      vertex 12.1353 -8.81678 -2.5
      vertex 12.1353 -8.81678 0.5
    endloop
  endfacet
  facet normal 0 -1 0
    outer loop
      vertex -1.56793 14.9178 -2.5
      vertex 1.56793 14.9178 0.5
      vertex -1.56793 14.9178 0.5
    endloop
  endfacet
  facet normal 0 -1 -0
    outer loop
      vertex 1.56793 14.9178 0.5
      vertex -1.56793 14.9178 -2.5
      vertex 1.56793 14.9178 -2.5
    endloop
  endfacet
  facet normal 0.406718 -0.913554 0
    outer loop
      vertex -7.5 12.9904 -2.5
      vertex -4.63525 14.2658 0.5
      vertex -7.5 12.9904 0.5
    endloop
  endfacet
  facet normal 0.406718 -0.913554 0
    outer loop
      vertex -4.63525 14.2658 0.5
      vertex -7.5 12.9904 -2.5
      vertex -4.63525 14.2658 -2.5
    endloop
  endfacet
  facet normal 0.207918 0.978146 -0
    outer loop
      vertex -1.56793 -14.9178 -2.5
      vertex -4.63525 -14.2658 0.5
      vertex -1.56793 -14.9178 0.5
    endloop
  endfacet
  facet normal 0.207918 0.978146 0
    outer loop
      vertex -4.63525 -14.2658 0.5
      vertex -1.56793 -14.9178 -2.5
      vertex -4.63525 -14.2658 -2.5
    endloop
  endfacet
  facet normal 0.406718 0.913554 -0
    outer loop
      vertex -4.63525 -14.2658 -2.5
      vertex -7.5 -12.9904 0.5
      vertex -4.63525 -14.2658 0.5
    endloop
  endfacet
  facet normal 0.406718 0.913554 0
    outer loop
      vertex -7.5 -12.9904 0.5
      vertex -4.63525 -14.2658 -2.5
      vertex -7.5 -12.9904 -2.5
    endloop
  endfacet
  facet normal 0.207918 -0.978146 0
    outer loop
      vertex -4.63525 14.2658 -2.5
      vertex -1.56793 14.9178 0.5
      vertex -4.63525 14.2658 0.5
    endloop
  endfacet
  facet normal 0.207918 -0.978146 0
    outer loop
      vertex -1.56793 14.9178 0.5
      vertex -4.63525 14.2658 -2.5
      vertex -1.56793 14.9178 -2.5
    endloop
  endfacet
  facet normal -0.207918 0.978146 0
    outer loop
      vertex 4.63525 -14.2658 -2.5
      vertex 1.56793 -14.9178 0.5
      vertex 4.63525 -14.2658 0.5
    endloop
  endfacet
  facet normal -0.207918 0.978146 0
    outer loop
      vertex 1.56793 -14.9178 0.5
      vertex 4.63525 -14.2658 -2.5
      vertex 1.56793 -14.9178 -2.5
    endloop
  endfacet
  facet normal -0.743148 0.669127 0
    outer loop
      vertex 10.037 -11.1472 -2.5
      vertex 12.1353 -8.81678 0.5
      vertex 12.1353 -8.81678 -2.5
    endloop
  endfacet
  facet normal -0.743148 0.669127 0
    outer loop
      vertex 12.1353 -8.81678 0.5
      vertex 10.037 -11.1472 -2.5
      vertex 10.037 -11.1472 0.5
    endloop
  endfacet
  facet normal -0.406718 0.913554 0
    outer loop
      vertex 7.5 -12.9904 -2.5
      vertex 4.63525 -14.2658 0.5
      vertex 7.5 -12.9904 0.5
    endloop
  endfacet
  facet normal -0.406718 0.913554 0
    outer loop
      vertex 4.63525 -14.2658 0.5
      vertex 7.5 -12.9904 -2.5
      vertex 4.63525 -14.2658 -2.5
    endloop
  endfacet
  facet normal 0.587777 0.809023 -0
    outer loop
      vertex -7.5 -12.9904 -2.5
      vertex -10.037 -11.1472 0.5
      vertex -7.5 -12.9904 0.5
    endloop
  endfacet
  facet normal 0.587777 0.809023 0
    outer loop
      vertex -10.037 -11.1472 0.5
      vertex -7.5 -12.9904 -2.5
      vertex -10.037 -11.1472 -2.5
    endloop
  endfacet
  facet normal 0.994521 -0.104533 0
    outer loop
      vertex -15 0 0.5
      vertex -14.6722 3.11868 -2.5
      vertex -14.6722 3.11868 0.5
    endloop
  endfacet
  facet normal 0.994521 -0.104533 0
    outer loop
      vertex -14.6722 3.11868 -2.5
      vertex -15 0 0.5
      vertex -15 0 -2.5
    endloop
  endfacet
  facet normal -0.207918 -0.978146 0
    outer loop
      vertex 1.56793 14.9178 -2.5
      vertex 4.63525 14.2658 0.5
      vertex 1.56793 14.9178 0.5
    endloop
  endfacet
  facet normal -0.207918 -0.978146 -0
    outer loop
      vertex 4.63525 14.2658 0.5
      vertex 1.56793 14.9178 -2.5
      vertex 4.63525 14.2658 -2.5
    endloop
  endfacet
  facet normal 0.866029 0.499993 0
    outer loop
      vertex -12.1353 -8.81678 0.5
      vertex -13.7032 -6.10105 -2.5
      vertex -13.7032 -6.10105 0.5
    endloop
  endfacet
  facet normal 0.866029 0.499993 0
    outer loop
      vertex -13.7032 -6.10105 -2.5
      vertex -12.1353 -8.81678 0.5
      vertex -12.1353 -8.81678 -2.5
    endloop
  endfacet
  facet normal -0.406718 -0.913554 0
    outer loop
      vertex 4.63525 14.2658 -2.5
      vertex 7.5 12.9904 0.5
      vertex 4.63525 14.2658 0.5
    endloop
  endfacet
  facet normal -0.406718 -0.913554 -0
    outer loop
      vertex 7.5 12.9904 0.5
      vertex 4.63525 14.2658 -2.5
      vertex 7.5 12.9904 -2.5
    endloop
  endfacet
  facet normal 0 1 -0
    outer loop
      vertex 1.56793 -14.9178 -2.5
      vertex -1.56793 -14.9178 0.5
      vertex 1.56793 -14.9178 0.5
    endloop
  endfacet
  facet normal 0 1 0
    outer loop
      vertex -1.56793 -14.9178 0.5
      vertex 1.56793 -14.9178 -2.5
      vertex -1.56793 -14.9178 -2.5
    endloop
  endfacet
  facet normal 0.994521 0.104533 0
    outer loop
      vertex -14.6722 -3.11868 0.5
      vertex -15 0 -2.5
      vertex -15 0 0.5
    endloop
  endfacet
  facet normal 0.994521 0.104533 0
    outer loop
      vertex -15 0 -2.5
      vertex -14.6722 -3.11868 0.5
      vertex -14.6722 -3.11868 -2.5
    endloop
  endfacet
  facet normal 0.743148 0.669127 0
    outer loop
      vertex -10.037 -11.1472 0.5
      vertex -12.1353 -8.81678 -2.5
      vertex -12.1353 -8.81678 0.5
    endloop
  endfacet
  facet normal 0.743148 0.669127 0
    outer loop
      vertex -12.1353 -8.81678 -2.5
      vertex -10.037 -11.1472 0.5
      vertex -10.037 -11.1472 -2.5
    endloop
  endfacet
  facet normal 0.743148 -0.669127 0
    outer loop
      vertex -12.1353 8.81678 0.5
      vertex -10.037 11.1472 -2.5
      vertex -10.037 11.1472 0.5
    endloop
  endfacet
  facet normal 0.743148 -0.669127 0
    outer loop
      vertex -10.037 11.1472 -2.5
      vertex -12.1353 8.81678 0.5
      vertex -12.1353 8.81678 -2.5
    endloop
  endfacet
endsolid OpenSCAD_Model
