solid OpenSCAD_Model
  facet normal 0 -1 0
    outer loop
      vertex -30 -20 15
      vertex 30 -20 25
      vertex -30 -20 25
    endloop
  endfacet
  facet normal 0 -1 -0
    outer loop
      vertex 30 -20 25
      vertex -30 -20 15
      vertex 30 -20 15
    endloop
  endfacet
  facet normal 1 -0 0
    outer loop
      vertex 30 -20 25
      vertex 30 20 15
      vertex 30 20 25
    endloop
  endfacet
  facet normal 1 0 0
    outer loop
      vertex 30 20 15
      vertex 30 -20 25
      vertex 30 -20 15
    endloop
  endfacet
  facet normal -0.980581 0 -0.196116
    outer loop
      vertex -25 -15 -10
      vertex -30 20 15
      vertex -25 15 -10
    endloop
  endfacet
  facet normal -0.980581 -0 -0.196116
    outer loop
      vertex -30 20 15
      vertex -25 -15 -10
      vertex -30 -20 15
    endloop
  endfacet
  facet normal 0 1 -0
    outer loop
      vertex 30 20 15
      vertex -30 20 25
      vertex 30 20 25
    endloop
  endfacet
  facet normal 0 1 0
    outer loop
      vertex -30 20 25
      vertex 30 20 15
      vertex -30 20 15
    endloop
  endfacet
  facet normal -0 0 1
    outer loop
      vertex -30 20 25
      vertex 30 -20 25
      vertex 30 20 25
    endloop
  endfacet
  facet normal 0 0 1
    outer loop
      vertex 30 -20 25
      vertex -30 20 25
      vertex -30 -20 25
    endloop
  endfacet
  facet normal -1 0 0
    outer loop
      vertex -30 -20 15
      vertex -30 20 25
      vertex -30 20 15
    endloop
  endfacet
  facet normal -1 -0 0
    outer loop
      vertex -30 20 25
      vertex -30 -20 15
      vertex -30 -20 25
    endloop
  endfacet
  facet normal 0 -0.980581 -0.196116
    outer loop
      vertex -25 -15 -10
      vertex 30 -20 15
      vertex -30 -20 15
    endloop
  endfacet
  facet normal 0 -0.980581 -0.196116
    outer loop
      vertex 30 -20 15
      vertex -25 -15 -10
      vertex 25 -15 -10
    endloop
  endfacet
  facet normal 0 0 -1
    outer loop
      vertex -25 -15 -10
      vertex 25 15 -10
      vertex 25 -15 -10
    endloop
  endfacet
  facet normal -0 0 -1
    outer loop
      vertex 25 15 -10
      vertex -25 -15 -10
      vertex -25 15 -10
    endloop
  endfacet
  facet normal 0.980581 0 -0.196116
    outer loop
      vertex 30 20 15
      vertex 25 -15 -10
      vertex 25 15 -10
    endloop
  endfacet
  facet normal 0.980581 0 -0.196116
    outer loop
      vertex 25 -15 -10
      vertex 30 20 15
      vertex 30 -20 15
    endloop
  endfacet
  facet normal 0 0.980581 -0.196116
    outer loop
      vertex 25 15 -10
      vertex -30 20 15
      vertex 30 20 15
    endloop
  endfacet
  facet normal 0 0.980581 -0.196116
    outer loop
      vertex -30 20 15
      vertex 25 15 -10
      vertex -25 15 -10
    endloop
  endfacet
  facet normal -1 0 0
    outer loop
      vertex 22.5 -13.5 -7
      vertex 22.5 13.5 11
      vertex 22.5 13.5 -7
    endloop
  endfacet
  facet normal -1 -0 0
    outer loop
      vertex 22.5 13.5 11
      vertex 22.5 -13.5 -7
      vertex 22.5 -13.5 11
    endloop
  endfacet
  facet normal 0 0 -1
    outer loop
      vertex -22.5 -13.5 11
      vertex 22.5 13.5 11
      vertex 22.5 -13.5 11
    endloop
  endfacet
  facet normal -0 0 -1
    outer loop
      vertex 22.5 13.5 11
      vertex -22.5 -13.5 11
      vertex -22.5 13.5 11
    endloop
  endfacet
  facet normal -0 0 1
    outer loop
      vertex -22.5 13.5 -7
      vertex 22.5 -13.5 -7
      vertex 22.5 13.5 -7
    endloop
  endfacet
  facet normal 0 0 1
    outer loop
      vertex 22.5 -13.5 -7
      vertex -22.5 13.5 -7
      vertex -22.5 -13.5 -7
    endloop
  endfacet
  facet normal 1 -0 0
    outer loop
      vertex -22.5 -13.5 11
      vertex -22.5 13.5 -7
      vertex -22.5 13.5 11
    endloop
  endfacet
  facet normal 1 0 0
    outer loop
      vertex -22.5 13.5 -7
      vertex -22.5 -13.5 11
      vertex -22.5 -13.5 -7
    endloop
  endfacet
  facet normal 0 -1 0
    outer loop
      vertex -22.5 13.5 -7
      vertex 22.5 13.5 11
      vertex -22.5 13.5 11
    endloop
  endfacet
  facet normal 0 -1 -0
    outer loop
      vertex 22.5 13.5 11
      vertex -22.5 13.5 -7
      vertex 22.5 13.5 -7
    endloop
  endfacet
  facet normal 0 1 -0
    outer loop
      vertex 22.5 -13.5 -7
      vertex -22.5 -13.5 11
      vertex 22.5 -13.5 11
    endloop
  endfacet
  facet normal 0 1 0
    outer loop
      vertex -22.5 -13.5 11
      vertex 22.5 -13.5 -7
      vertex -22.5 -13.5 -7
    endloop
  endfacet
endsolid OpenSCAD_Model
