solid OpenSCAD_Model
  facet normal 1 -0 0
    outer loop
      vertex 60 0 20
      vertex 60 40 0
      vertex 60 40 20
    endloop
  endfacet
  facet normal 1 0 0
    outer loop
      vertex 60 40 0
      vertex 60 0 20
      vertex 60 0 0
    endloop
  endfacet
  facet normal -0 0 1
    outer loop
      vertex 0 40 20
      vertex 10 0 20
      vertex 10 40 20
    endloop
  endfacet
  facet normal 0 0 1
    outer loop
      vertex 10 0 20
      vertex 0 40 20
      vertex 0 0 20
    endloop
  endfacet
  facet normal -0 0 1
    outer loop
      vertex 50 40 20
      vertex 60 0 20
      vertex 60 40 20
    endloop
  endfacet
  facet normal 0 0 1
    outer loop
      vertex 60 0 20
      vertex 50 40 20
      vertex 50 0 20
    endloop
  endfacet
  facet normal 0 0 -1
    outer loop
      vertex 0 0 0
      vertex 60 40 0
      vertex 60 0 0
    endloop
  endfacet
  facet normal -0 0 -1
    outer loop
      vertex 60 40 0
      vertex 0 0 0
      vertex 0 40 0
    endloop
  endfacet
  facet normal -1 0 0
    outer loop
      vertex 0 0 0
      vertex 0 40 20
      vertex 0 40 0
    endloop
  endfacet
  facet normal -1 -0 0
    outer loop
      vertex 0 40 20
      vertex 0 0 0
      vertex 0 0 20
    endloop
  endfacet
  facet normal 0 1 -0
    outer loop
      vertex 60 40 0
      vertex 50 40 20
      vertex 60 40 20
    endloop
  endfacet
  facet normal 0 1 0
    outer loop
      vertex 50 40 20
      vertex 60 40 0
      vertex 10 40 20
    endloop
  endfacet
  facet normal 0 1 0
    outer loop
      vertex 0 40 0
      vertex 10 40 20
      vertex 60 40 0
    endloop
  endfacet
  facet normal 0 1 0
    outer loop
      vertex 10 40 20
      vertex 0 40 0
      vertex 0 40 20
    endloop
  endfacet
  facet normal 0 1 -0
    outer loop
      vertex 50 40 20
      vertex 40 40 40
      vertex 50 40 40
    endloop
  endfacet
  facet normal 0 1 0
    outer loop
      vertex 40 40 40
      vertex 50 40 20
      vertex 20 40 40
    endloop
  endfacet
  facet normal 0 1 0
    outer loop
      vertex 10 40 20
      vertex 20 40 40
      vertex 50 40 20
    endloop
  endfacet
  facet normal 0 1 0
    outer loop
      vertex 20 40 40
      vertex 10 40 20
      vertex 10 40 40
    endloop
  endfacet
  facet normal 0 1 -0
    outer loop
      vertex 40 40 40
      vertex 20 40 60
      vertex 40 40 60
    endloop
  endfacet
  facet normal 0 1 0
    outer loop
      vertex 20 40 60
      vertex 40 40 40
      vertex 20 40 40
    endloop
  endfacet
  facet normal 0 -1 0
    outer loop
      vertex 0 0 0
      vertex 10 0 20
      vertex 0 0 20
    endloop
  endfacet
  facet normal 0 -1 -0
    outer loop
      vertex 10 0 20
      vertex 0 0 0
      vertex 50 0 20
    endloop
  endfacet
  facet normal 0 -1 0
    outer loop
      vertex 60 0 0
      vertex 50 0 20
      vertex 0 0 0
    endloop
  endfacet
  facet normal 0 -1 0
    outer loop
      vertex 50 0 20
      vertex 60 0 0
      vertex 60 0 20
    endloop
  endfacet
  facet normal 0 -1 0
    outer loop
      vertex 10 0 20
      vertex 20 0 40
      vertex 10 0 40
    endloop
  endfacet
  facet normal 0 -1 -0
    outer loop
      vertex 20 0 40
      vertex 10 0 20
      vertex 40 0 40
    endloop
  endfacet
  facet normal 0 -1 0
    outer loop
      vertex 50 0 20
      vertex 40 0 40
      vertex 10 0 20
    endloop
  endfacet
  facet normal 0 -1 0
    outer loop
      vertex 40 0 40
      vertex 50 0 20
      vertex 50 0 40
    endloop
  endfacet
  facet normal 0 -1 0
    outer loop
      vertex 20 0 40
      vertex 40 0 60
      vertex 20 0 60
    endloop
  endfacet
  facet normal 0 -1 -0
    outer loop
      vertex 40 0 60
      vertex 20 0 40
      vertex 40 0 40
    endloop
  endfacet
  facet normal 1 -0 0
    outer loop
      vertex 50 0 40
      vertex 50 40 20
      vertex 50 40 40
    endloop
  endfacet
  facet normal 1 0 0
    outer loop
      vertex 50 40 20
      vertex 50 0 40
      vertex 50 0 20
    endloop
  endfacet
  facet normal -0 0 1
    outer loop
      vertex 40 40 40
      vertex 50 0 40
      vertex 50 40 40
    endloop
  endfacet
  facet normal 0 0 1
    outer loop
      vertex 50 0 40
      vertex 40 40 40
      vertex 40 0 40
    endloop
  endfacet
  facet normal -0 0 1
    outer loop
      vertex 10 40 40
      vertex 20 0 40
      vertex 20 40 40
    endloop
  endfacet
  facet normal 0 0 1
    outer loop
      vertex 20 0 40
      vertex 10 40 40
      vertex 10 0 40
    endloop
  endfacet
  facet normal -1 0 0
    outer loop
      vertex 10 0 20
      vertex 10 40 40
      vertex 10 40 20
    endloop
  endfacet
  facet normal -1 -0 0
    outer loop
      vertex 10 40 40
      vertex 10 0 20
      vertex 10 0 40
    endloop
  endfacet
  facet normal 1 -0 0
    outer loop
      vertex 40 0 60
      vertex 40 40 40
      vertex 40 40 60
    endloop
  endfacet
  facet normal 1 0 0
    outer loop
      vertex 40 40 40
      vertex 40 0 60
      vertex 40 0 40
    endloop
  endfacet
  facet normal -0 0 1
    outer loop
      vertex 20 40 60
      vertex 40 0 60
      vertex 40 40 60
    endloop
  endfacet
  facet normal 0 0 1
    outer loop
      vertex 40 0 60
      vertex 20 40 60
      vertex 20 0 60
    endloop
  endfacet
  facet normal -1 0 0
    outer loop
      vertex 20 0 40
      vertex 20 40 60
      vertex 20 40 40
    endloop
  endfacet
  facet normal -1 -0 0
    outer loop
      vertex 20 40 60
      vertex 20 0 40
      vertex 20 0 60
    endloop
  endfacet
endsolid OpenSCAD_Model
