solid OpenSCAD_Model
  facet normal 1 0 0
    outer loop
      vertex 44 20 9
      vertex 44 22 20
      vertex 44 20 20
    endloop
  endfacet
  facet normal 1 0 0
    outer loop
      vertex 44 22 20
      vertex 44 20 9
      vertex 44 22 8
    endloop
  endfacet
  facet normal 1 0 0
    outer loop
      vertex 44 0 8
      vertex 44 20 9
      vertex 44 0 9
    endloop
  endfacet
  facet normal 1 0 0
    outer loop
      vertex 44 20 9
      vertex 44 0 8
      vertex 44 22 8
    endloop
  endfacet
  facet normal 0 0 1
    outer loop
      vertex 44 22 20
      vertex 37 20 20
      vertex 44 20 20
    endloop
  endfacet
  facet normal -0 0 1
    outer loop
      vertex 2 22 20
      vertex 37 20 20
      vertex 44 22 20
    endloop
  endfacet
  facet normal 0 0 1
    outer loop
      vertex 2 0 20
      vertex 37 20 20
      vertex 2 22 20
    endloop
  endfacet
  facet normal 0 0 1
    outer loop
      vertex 37 20 20
      vertex 2 0 20
      vertex 37 0 20
    endloop
  endfacet
  facet normal 0 0 -1
    outer loop
      vertex 2 0 8
      vertex 44 22 8
      vertex 44 0 8
    endloop
  endfacet
  facet normal -0 0 -1
    outer loop
      vertex 44 22 8
      vertex 2 0 8
      vertex 2 22 8
    endloop
  endfacet
  facet normal -1 0 0
    outer loop
      vertex 2 0 8
      vertex 2 22 20
      vertex 2 22 8
    endloop
  endfacet
  facet normal -1 -0 0
    outer loop
      vertex 2 22 20
      vertex 2 0 8
      vertex 2 0 20
    endloop
  endfacet
  facet normal 0 1 -0
    outer loop
      vertex 44 22 8
      vertex 2 22 20
      vertex 44 22 20
    endloop
  endfacet
  facet normal 0 1 0
    outer loop
      vertex 2 22 20
      vertex 44 22 8
      vertex 2 22 8
    endloop
  endfacet
  facet normal 0 -1 0
    outer loop
      vertex 2 0 20
      vertex 37 0 9
      vertex 37 0 20
    endloop
  endfacet
  facet normal 0 -1 0
    outer loop
      vertex 2 0 8
      vertex 37 0 9
      vertex 2 0 20
    endloop
  endfacet
  facet normal 0 -1 0
    outer loop
      vertex 44 0 8
      vertex 37 0 9
      vertex 2 0 8
    endloop
  endfacet
  facet normal 0 -1 0
    outer loop
      vertex 37 0 9
      vertex 44 0 8
      vertex 44 0 9
    endloop
  endfacet
  facet normal -0 0 1
    outer loop
      vertex 37 20 9
      vertex 44 0 9
      vertex 44 20 9
    endloop
  endfacet
  facet normal 0 0 1
    outer loop
      vertex 44 0 9
      vertex 37 20 9
      vertex 37 0 9
    endloop
  endfacet
  facet normal 1 -0 0
    outer loop
      vertex 37 0 20
      vertex 37 20 9
      vertex 37 20 20
    endloop
  endfacet
  facet normal 1 0 0
    outer loop
      vertex 37 20 9
      vertex 37 0 20
      vertex 37 0 9
    endloop
  endfacet
  facet normal 0 -1 0
    outer loop
      vertex 37 20 9
      vertex 44 20 20
      vertex 37 20 20
    endloop
  endfacet
  facet normal 0 -1 -0
    outer loop
      vertex 44 20 20
      vertex 37 20 9
      vertex 44 20 9
    endloop
  endfacet
  facet normal 1 -0 0
    outer loop
      vertex 10 0 4
      vertex 10 20 0
      vertex 10 20 4
    endloop
  endfacet
  facet normal 1 0 0
    outer loop
      vertex 10 20 0
      vertex 10 0 4
      vertex 10 0 0
    endloop
  endfacet
  facet normal -0 0 1
    outer loop
      vertex 0 20 4
      vertex 10 0 4
      vertex 10 20 4
    endloop
  endfacet
  facet normal 0 0 1
    outer loop
      vertex 10 0 4
      vertex 0 20 4
      vertex 0 0 4
    endloop
  endfacet
  facet normal 0 0 -1
    outer loop
      vertex 0 0 0
      vertex 10 20 0
      vertex 10 0 0
    endloop
  endfacet
  facet normal -0 0 -1
    outer loop
      vertex 10 20 0
      vertex 0 0 0
      vertex 0 20 0
    endloop
  endfacet
  facet normal -1 0 0
    outer loop
      vertex 0 0 0
      vertex 0 20 4
      vertex 0 20 0
    endloop
  endfacet
  facet normal -1 -0 0
    outer loop
      vertex 0 20 4
      vertex 0 0 0
      vertex 0 0 4
    endloop
  endfacet
  facet normal 0 1 -0
    outer loop
      vertex 10 20 0
      vertex 0 20 4
      vertex 10 20 4
    endloop
  endfacet
  facet normal 0 1 0
    outer loop
      vertex 0 20 4
      vertex 10 20 0
      vertex 0 20 0
    endloop
  endfacet
  facet normal 0 -1 0
    outer loop
      vertex 0 0 0
      vertex 10 0 4
      vertex 0 0 4
    endloop
  endfacet
  facet normal 0 -1 -0
    outer loop
      vertex 10 0 4
      vertex 0 0 0
      vertex 10 0 0
    endloop
  endfacet
  facet normal 1 -0 0
    outer loop
      vertex 42 0 4
      vertex 42 20 0
      vertex 42 20 4
    endloop
  endfacet
  facet normal 1 0 0
    outer loop
      vertex 42 20 0
      vertex 42 0 4
      vertex 42 0 0
    endloop
  endfacet
  facet normal -0 0 1
    outer loop
      vertex 32 20 4
      vertex 42 0 4
      vertex 42 20 4
    endloop
  endfacet
  facet normal 0 0 1
    outer loop
      vertex 42 0 4
      vertex 32 20 4
      vertex 32 0 4
    endloop
  endfacet
  facet normal 0 0 -1
    outer loop
      vertex 32 0 0
      vertex 42 20 0
      vertex 42 0 0
    endloop
  endfacet
  facet normal -0 0 -1
    outer loop
      vertex 42 20 0
      vertex 32 0 0
      vertex 32 20 0
    endloop
  endfacet
  facet normal -1 0 0
    outer loop
      vertex 32 0 0
      vertex 32 20 4
      vertex 32 20 0
    endloop
  endfacet
  facet normal -1 -0 0
    outer loop
      vertex 32 20 4
      vertex 32 0 0
      vertex 32 0 4
    endloop
  endfacet
  facet normal 0 1 -0
    outer loop
      vertex 42 20 0
      vertex 32 20 4
      vertex 42 20 4
    endloop
  endfacet
  facet normal 0 1 0
    outer loop
      vertex 32 20 4
      vertex 42 20 0
      vertex 32 20 0
    endloop
  endfacet
  facet normal 0 -1 0
    outer loop
      vertex 32 0 0
      vertex 42 0 4
      vertex 32 0 4
    endloop
  endfacet
  facet normal 0 -1 -0
    outer loop
      vertex 42 0 4
      vertex 32 0 0
      vertex 42 0 0
    endloop
  endfacet
endsolid OpenSCAD_Model
