solid OpenSCAD_Model
  facet normal 1 -0 0
    outer loop
      vertex -5 -20 30
      vertex -5 -12.5 20
      vertex -5 -12.5 30
    endloop
  endfacet
  facet normal 1 0 0
    outer loop
      vertex -5 -12.5 20
      vertex -5 -20 30
      vertex -5 -20 20
    endloop
  endfacet
  facet normal 1 -0 0
    outer loop
      vertex -5 -7.5 30
      vertex -5 -5 20
      vertex -5 -5 30
    endloop
  endfacet
  facet normal 1 0 0
    outer loop
      vertex -5 -5 20
      vertex -5 -7.5 30
      vertex -5 -7.5 20
    endloop
  endfacet
  facet normal 0 -1 0
    outer loop
      vertex -10 -20 20
      vertex -5 -20 30
      vertex -10 -20 30
    endloop
  endfacet
  facet normal 0 -1 -0
    outer loop
      vertex -5 -20 30
      vertex -10 -20 20
      vertex -5 -20 20
    endloop
  endfacet
  facet normal 0 1 0
    outer loop
      vertex 5 0 20
      vertex 10 0 30
      vertex 10 0 20
    endloop
  endfacet
  facet normal 0 1 0
    outer loop
      vertex 10 0 30
      vertex 5 0 20
      vertex -10 0 30
    endloop
  endfacet
  facet normal 0 1 -0
    outer loop
      vertex -5 0 20
      vertex -10 0 30
      vertex 5 0 20
    endloop
  endfacet
  facet normal 0 1 0
    outer loop
      vertex -10 0 30
      vertex -5 0 20
      vertex -10 0 20
    endloop
  endfacet
  facet normal -1 0 0
    outer loop
      vertex -10 -20 20
      vertex -10 0 30
      vertex -10 0 20
    endloop
  endfacet
  facet normal -1 -0 0
    outer loop
      vertex -10 0 30
      vertex -10 -20 20
      vertex -10 -20 30
    endloop
  endfacet
  facet normal 0 0 1
    outer loop
      vertex 10 0 30
      vertex 7.5 -10 30
      vertex 10 -20 30
    endloop
  endfacet
  facet normal 0 0 1
    outer loop
      vertex 10 0 30
      vertex 6.76777 -8.23223 30
      vertex 7.5 -10 30
    endloop
  endfacet
  facet normal 0 0 1
    outer loop
      vertex 10 0 30
      vertex 5 -5 30
      vertex 6.76777 -8.23223 30
    endloop
  endfacet
  facet normal 0 0 1
    outer loop
      vertex 10 0 30
      vertex -5 -5 30
      vertex 5 -5 30
    endloop
  endfacet
  facet normal 0 0 1
    outer loop
      vertex -5 -5 30
      vertex -6.76777 -8.23223 30
      vertex -5 -7.5 30
    endloop
  endfacet
  facet normal 0 0 1
    outer loop
      vertex -6.76777 -8.23223 30
      vertex -10 0 30
      vertex -7.5 -10 30
    endloop
  endfacet
  facet normal 0 0 1
    outer loop
      vertex -5 -5 30
      vertex -10 0 30
      vertex -6.76777 -8.23223 30
    endloop
  endfacet
  facet normal -0 0 1
    outer loop
      vertex -10 0 30
      vertex -5 -5 30
      vertex 10 0 30
    endloop
  endfacet
  facet normal -0 0 1
    outer loop
      vertex 6.76777 -11.7678 30
      vertex 10 -20 30
      vertex 7.5 -10 30
    endloop
  endfacet
  facet normal -0 0 1
    outer loop
      vertex 5 -12.5 30
      vertex 10 -20 30
      vertex 6.76777 -11.7678 30
    endloop
  endfacet
  facet normal 0 0 1
    outer loop
      vertex 10 -20 30
      vertex 5 -12.5 30
      vertex 5 -20 30
    endloop
  endfacet
  facet normal 0 0 1
    outer loop
      vertex 6.76777 -8.23223 30
      vertex 5 -5 30
      vertex 5 -7.5 30
    endloop
  endfacet
  facet normal 0 0 1
    outer loop
      vertex -10 -20 30
      vertex -5 -12.5 30
      vertex -6.76777 -11.7678 30
    endloop
  endfacet
  facet normal 0 0 1
    outer loop
      vertex -10 -20 30
      vertex -6.76777 -11.7678 30
      vertex -7.5 -10 30
    endloop
  endfacet
  facet normal 0 0 1
    outer loop
      vertex -10 -20 30
      vertex -7.5 -10 30
      vertex -10 0 30
    endloop
  endfacet
  facet normal 0 0 1
    outer loop
      vertex -5 -12.5 30
      vertex -10 -20 30
      vertex -5 -20 30
    endloop
  endfacet
  facet normal 0 0 -1
    outer loop
      vertex -10 -20 20
      vertex -5 -12.5 20
      vertex -5 -20 20
    endloop
  endfacet
  facet normal -0 0 -1
    outer loop
      vertex -5 -12.5 20
      vertex -10 -20 20
      vertex -6.76777 -11.7678 20
    endloop
  endfacet
  facet normal -0 0 -1
    outer loop
      vertex -6.76777 -11.7678 20
      vertex -10 -20 20
      vertex -7.5 -10 20
    endloop
  endfacet
  facet normal 0 0 -1
    outer loop
      vertex -6.76777 -8.23223 20
      vertex -5 -5 20
      vertex -5 -7.5 20
    endloop
  endfacet
  facet normal -0 0 -1
    outer loop
      vertex -5 -5 20
      vertex -6.76777 -8.23223 20
      vertex -10 0 20
    endloop
  endfacet
  facet normal 0 0 -1
    outer loop
      vertex -10 0 20
      vertex -6.76777 -8.23223 20
      vertex -7.5 -10 20
    endloop
  endfacet
  facet normal 0 0 -1
    outer loop
      vertex -10 0 20
      vertex -7.5 -10 20
      vertex -10 -20 20
    endloop
  endfacet
  facet normal 0 0 -1
    outer loop
      vertex -5 -5 20
      vertex -10 0 20
      vertex -5 0 20
    endloop
  endfacet
  facet normal 0 0 -1
    outer loop
      vertex -5 -5 20
      vertex -1.91342 -4.6194 20
      vertex 0 -5 20
    endloop
  endfacet
  facet normal 0 0 -1
    outer loop
      vertex -5 -5 20
      vertex -3.53553 -3.53553 20
      vertex -1.91342 -4.6194 20
    endloop
  endfacet
  facet normal 0 0 -1
    outer loop
      vertex -5 -5 20
      vertex -4.6194 -1.91342 20
      vertex -3.53553 -3.53553 20
    endloop
  endfacet
  facet normal -0 0 -1
    outer loop
      vertex -4.6194 -1.91342 20
      vertex -5 -5 20
      vertex -5 0 20
    endloop
  endfacet
  facet normal 0 0 1
    outer loop
      vertex 3.53553 3.53553 20
      vertex 5 0 20
      vertex 4.6194 1.91342 20
    endloop
  endfacet
  facet normal 0 0 1
    outer loop
      vertex 1.91342 4.6194 20
      vertex 5 0 20
      vertex 3.53553 3.53553 20
    endloop
  endfacet
  facet normal 0 0 1
    outer loop
      vertex 0 5 20
      vertex 5 0 20
      vertex 1.91342 4.6194 20
    endloop
  endfacet
  facet normal -0 0 1
    outer loop
      vertex -1.91342 4.6194 20
      vertex 5 0 20
      vertex 0 5 20
    endloop
  endfacet
  facet normal -0 0 1
    outer loop
      vertex -3.53553 3.53553 20
      vertex 5 0 20
      vertex -1.91342 4.6194 20
    endloop
  endfacet
  facet normal -0 0 1
    outer loop
      vertex -4.6194 1.91342 20
      vertex 5 0 20
      vertex -3.53553 3.53553 20
    endloop
  endfacet
  facet normal 0 0 1
    outer loop
      vertex 5 0 20
      vertex -4.6194 1.91342 20
      vertex -5 0 20
    endloop
  endfacet
  facet normal 0 0 -1
    outer loop
      vertex 10 -20 20
      vertex 7.5 -10 20
      vertex 10 0 20
    endloop
  endfacet
  facet normal 0 0 -1
    outer loop
      vertex 10 -20 20
      vertex 6.76777 -11.7678 20
      vertex 7.5 -10 20
    endloop
  endfacet
  facet normal 0 0 -1
    outer loop
      vertex 5 -12.5 20
      vertex 10 -20 20
      vertex 5 -20 20
    endloop
  endfacet
  facet normal 0 0 -1
    outer loop
      vertex 10 -20 20
      vertex 5 -12.5 20
      vertex 6.76777 -11.7678 20
    endloop
  endfacet
  facet normal 0 0 -1
    outer loop
      vertex 6.76777 -8.23223 20
      vertex 10 0 20
      vertex 7.5 -10 20
    endloop
  endfacet
  facet normal 0 0 -1
    outer loop
      vertex 5 -5 20
      vertex 6.76777 -8.23223 20
      vertex 5 -7.5 20
    endloop
  endfacet
  facet normal 0 0 -1
    outer loop
      vertex 6.76777 -8.23223 20
      vertex 5 -5 20
      vertex 10 0 20
    endloop
  endfacet
  facet normal 0 0 -1
    outer loop
      vertex 4.6194 -1.91342 20
      vertex 10 0 20
      vertex 5 -5 20
    endloop
  endfacet
  facet normal -0 0 -1
    outer loop
      vertex 10 0 20
      vertex 4.6194 -1.91342 20
      vertex 5 0 20
    endloop
  endfacet
  facet normal 0 0 -1
    outer loop
      vertex 5 -5 20
      vertex 3.53553 -3.53553 20
      vertex 4.6194 -1.91342 20
    endloop
  endfacet
  facet normal 0 0 -1
    outer loop
      vertex 5 -5 20
      vertex 1.91342 -4.6194 20
      vertex 3.53553 -3.53553 20
    endloop
  endfacet
  facet normal 0 -0 -1
    outer loop
      vertex 1.91342 -4.6194 20
      vertex 5 -5 20
      vertex 0 -5 20
    endloop
  endfacet
  facet normal 1 -0 0
    outer loop
      vertex 10 -20 30
      vertex 10 0 20
      vertex 10 0 30
    endloop
  endfacet
  facet normal 1 0 0
    outer loop
      vertex 10 0 20
      vertex 10 -20 30
      vertex 10 -20 20
    endloop
  endfacet
  facet normal 0 -1 0
    outer loop
      vertex 5 -20 20
      vertex 10 -20 30
      vertex 5 -20 30
    endloop
  endfacet
  facet normal 0 -1 -0
    outer loop
      vertex 10 -20 30
      vertex 5 -20 20
      vertex 10 -20 20
    endloop
  endfacet
  facet normal -1 0 0
    outer loop
      vertex 5 -20 20
      vertex 5 -12.5 30
      vertex 5 -12.5 20
    endloop
  endfacet
  facet normal -1 -0 0
    outer loop
      vertex 5 -12.5 30
      vertex 5 -20 20
      vertex 5 -20 30
    endloop
  endfacet
  facet normal -1 0 0
    outer loop
      vertex 5 -7.5 20
      vertex 5 -5 30
      vertex 5 -5 20
    endloop
  endfacet
  facet normal -1 -0 0
    outer loop
      vertex 5 -5 30
      vertex 5 -7.5 20
      vertex 5 -7.5 30
    endloop
  endfacet
  facet normal 0 -1 0
    outer loop
      vertex 0 -5 20
      vertex -5 -5 30
      vertex -5 -5 20
    endloop
  endfacet
  facet normal 0 -1 0
    outer loop
      vertex -5 -5 30
      vertex 0 -5 20
      vertex 5 -5 30
    endloop
  endfacet
  facet normal 0 -1 -0
    outer loop
      vertex 5 -5 30
      vertex 0 -5 20
      vertex 5 -5 20
    endloop
  endfacet
  facet normal 0.92388 -0.382682 0
    outer loop
      vertex -7.5 -10 30
      vertex -6.76777 -8.23223 20
      vertex -6.76777 -8.23223 30
    endloop
  endfacet
  facet normal 0.92388 -0.382682 0
    outer loop
      vertex -6.76777 -8.23223 20
      vertex -7.5 -10 30
      vertex -7.5 -10 20
    endloop
  endfacet
  facet normal 0.382668 0.923886 -0
    outer loop
      vertex -5 -12.5 20
      vertex -6.76777 -11.7678 30
      vertex -5 -12.5 30
    endloop
  endfacet
  facet normal 0.382668 0.923886 0
    outer loop
      vertex -6.76777 -11.7678 30
      vertex -5 -12.5 20
      vertex -6.76777 -11.7678 20
    endloop
  endfacet
  facet normal 0.923883 0.382676 0
    outer loop
      vertex -6.76777 -11.7678 30
      vertex -7.5 -10 20
      vertex -7.5 -10 30
    endloop
  endfacet
  facet normal 0.923883 0.382676 0
    outer loop
      vertex -7.5 -10 20
      vertex -6.76777 -11.7678 30
      vertex -6.76777 -11.7678 20
    endloop
  endfacet
  facet normal 0.382682 -0.92388 0
    outer loop
      vertex -6.76777 -8.23223 20
      vertex -5 -7.5 30
      vertex -6.76777 -8.23223 30
    endloop
  endfacet
  facet normal 0.382682 -0.92388 0
    outer loop
      vertex -5 -7.5 30
      vertex -6.76777 -8.23223 20
      vertex -5 -7.5 20
    endloop
  endfacet
  facet normal -0.923883 0.382676 0
    outer loop
      vertex 6.76777 -11.7678 20
      vertex 7.5 -10 30
      vertex 7.5 -10 20
    endloop
  endfacet
  facet normal -0.923883 0.382676 0
    outer loop
      vertex 7.5 -10 30
      vertex 6.76777 -11.7678 20
      vertex 6.76777 -11.7678 30
    endloop
  endfacet
  facet normal -0.382682 -0.92388 0
    outer loop
      vertex 5 -7.5 20
      vertex 6.76777 -8.23223 30
      vertex 5 -7.5 30
    endloop
  endfacet
  facet normal -0.382682 -0.92388 -0
    outer loop
      vertex 6.76777 -8.23223 30
      vertex 5 -7.5 20
      vertex 6.76777 -8.23223 20
    endloop
  endfacet
  facet normal -0.92388 -0.382682 0
    outer loop
      vertex 7.5 -10 20
      vertex 6.76777 -8.23223 30
      vertex 6.76777 -8.23223 20
    endloop
  endfacet
  facet normal -0.92388 -0.382682 0
    outer loop
      vertex 6.76777 -8.23223 30
      vertex 7.5 -10 20
      vertex 7.5 -10 30
    endloop
  endfacet
  facet normal -0.382668 0.923886 0
    outer loop
      vertex 6.76777 -11.7678 20
      vertex 5 -12.5 30
      vertex 6.76777 -11.7678 30
    endloop
  endfacet
  facet normal -0.382668 0.923886 0
    outer loop
      vertex 5 -12.5 30
      vertex 6.76777 -11.7678 20
      vertex 5 -12.5 20
    endloop
  endfacet
  facet normal -0.555574 0.831467 0
    outer loop
      vertex -1.91342 4.6194 0
      vertex -3.53553 3.53553 20
      vertex -1.91342 4.6194 20
    endloop
  endfacet
  facet normal -0.555574 0.831467 0
    outer loop
      vertex -3.53553 3.53553 20
      vertex -1.91342 4.6194 0
      vertex -3.53553 3.53553 0
    endloop
  endfacet
  facet normal 0.831467 0.555574 0
    outer loop
      vertex 4.6194 1.91342 20
      vertex 3.53553 3.53553 0
      vertex 3.53553 3.53553 20
    endloop
  endfacet
  facet normal 0.831467 0.555574 0
    outer loop
      vertex 3.53553 3.53553 0
      vertex 4.6194 1.91342 20
      vertex 4.6194 1.91342 0
    endloop
  endfacet
  facet normal 0.980786 0.195089 0
    outer loop
      vertex 5 0 20
      vertex 4.6194 1.91342 0
      vertex 4.6194 1.91342 20
    endloop
  endfacet
  facet normal 0.980786 0.195089 0
    outer loop
      vertex 4.6194 1.91342 0
      vertex 5 0 20
      vertex 5 0 0
    endloop
  endfacet
  facet normal -0.831467 0.555574 0
    outer loop
      vertex -4.6194 1.91342 0
      vertex -3.53553 3.53553 20
      vertex -3.53553 3.53553 0
    endloop
  endfacet
  facet normal -0.831467 0.555574 0
    outer loop
      vertex -3.53553 3.53553 20
      vertex -4.6194 1.91342 0
      vertex -4.6194 1.91342 20
    endloop
  endfacet
  facet normal -0.195089 -0.980786 0
    outer loop
      vertex -1.91342 -4.6194 0
      vertex 0 -5 20
      vertex -1.91342 -4.6194 20
    endloop
  endfacet
  facet normal -0.195089 -0.980786 -0
    outer loop
      vertex 0 -5 20
      vertex -1.91342 -4.6194 0
      vertex 0 -5 0
    endloop
  endfacet
  facet normal 0.195089 -0.980786 0
    outer loop
      vertex 0 -5 0
      vertex 1.91342 -4.6194 20
      vertex 0 -5 20
    endloop
  endfacet
  facet normal 0.195089 -0.980786 0
    outer loop
      vertex 1.91342 -4.6194 20
      vertex 0 -5 0
      vertex 1.91342 -4.6194 0
    endloop
  endfacet
  facet normal 0.555574 -0.831467 0
    outer loop
      vertex 1.91342 -4.6194 0
      vertex 3.53553 -3.53553 20
      vertex 1.91342 -4.6194 20
    endloop
  endfacet
  facet normal 0.555574 -0.831467 0
    outer loop
      vertex 3.53553 -3.53553 20
      vertex 1.91342 -4.6194 0
      vertex 3.53553 -3.53553 0
    endloop
  endfacet
  facet normal 0.831467 -0.555574 0
    outer loop
      vertex 3.53553 -3.53553 20
      vertex 4.6194 -1.91342 0
      vertex 4.6194 -1.91342 20
    endloop
  endfacet
  facet normal 0.831467 -0.555574 0
    outer loop
      vertex 4.6194 -1.91342 0
      vertex 3.53553 -3.53553 20
      vertex 3.53553 -3.53553 0
    endloop
  endfacet
  facet normal -0.980786 0.195089 0
    outer loop
      vertex -5 0 0
      vertex -4.6194 1.91342 20
      vertex -4.6194 1.91342 0
    endloop
  endfacet
  facet normal -0.980786 0.195089 0
    outer loop
      vertex -4.6194 1.91342 20
      vertex -5 0 0
      vertex -5 0 20
    endloop
  endfacet
  facet normal 0.980786 -0.195089 0
    outer loop
      vertex 4.6194 -1.91342 20
      vertex 5 0 0
      vertex 5 0 20
    endloop
  endfacet
  facet normal 0.980786 -0.195089 0
    outer loop
      vertex 5 0 0
      vertex 4.6194 -1.91342 20
      vertex 4.6194 -1.91342 0
    endloop
  endfacet
  facet normal 0 0 -1
    outer loop
      vertex 4.6194 -1.91342 0
      vertex 4.6194 1.91342 0
      vertex 5 0 0
    endloop
  endfacet
  facet normal 0 0 -1
    outer loop
      vertex 3.53553 -3.53553 0
      vertex 4.6194 1.91342 0
      vertex 4.6194 -1.91342 0
    endloop
  endfacet
  facet normal 0 0 -1
    outer loop
      vertex 3.53553 -3.53553 0
      vertex 3.53553 3.53553 0
      vertex 4.6194 1.91342 0
    endloop
  endfacet
  facet normal 0 0 -1
    outer loop
      vertex 1.91342 -4.6194 0
      vertex 3.53553 3.53553 0
      vertex 3.53553 -3.53553 0
    endloop
  endfacet
  facet normal 0 0 -1
    outer loop
      vertex 1.91342 -4.6194 0
      vertex 1.91342 4.6194 0
      vertex 3.53553 3.53553 0
    endloop
  endfacet
  facet normal 0 0 -1
    outer loop
      vertex 0 -5 0
      vertex 1.91342 4.6194 0
      vertex 1.91342 -4.6194 0
    endloop
  endfacet
  facet normal 0 0 -1
    outer loop
      vertex 0 -5 0
      vertex 0 5 0
      vertex 1.91342 4.6194 0
    endloop
  endfacet
  facet normal 0 0 -1
    outer loop
      vertex -1.91342 -4.6194 0
      vertex 0 5 0
      vertex 0 -5 0
    endloop
  endfacet
  facet normal 0 0 -1
    outer loop
      vertex -1.91342 -4.6194 0
      vertex -1.91342 4.6194 0
      vertex 0 5 0
    endloop
  endfacet
  facet normal 0 0 -1
    outer loop
      vertex -3.53553 -3.53553 0
      vertex -1.91342 4.6194 0
      vertex -1.91342 -4.6194 0
    endloop
  endfacet
  facet normal 0 0 -1
    outer loop
      vertex -3.53553 -3.53553 0
      vertex -3.53553 3.53553 0
      vertex -1.91342 4.6194 0
    endloop
  endfacet
  facet normal 0 0 -1
    outer loop
      vertex -4.6194 -1.91342 0
      vertex -3.53553 3.53553 0
      vertex -3.53553 -3.53553 0
    endloop
  endfacet
  facet normal 0 0 -1
    outer loop
      vertex -4.6194 -1.91342 0
      vertex -4.6194 1.91342 0
      vertex -3.53553 3.53553 0
    endloop
  endfacet
  facet normal 0 -0 -1
    outer loop
      vertex -4.6194 1.91342 0
      vertex -4.6194 -1.91342 0
      vertex -5 0 0
    endloop
  endfacet
  facet normal -0.195089 0.980786 0
    outer loop
      vertex 0 5 0
      vertex -1.91342 4.6194 20
      vertex 0 5 20
    endloop
  endfacet
  facet normal -0.195089 0.980786 0
    outer loop
      vertex -1.91342 4.6194 20
      vertex 0 5 0
      vertex -1.91342 4.6194 0
    endloop
  endfacet
  facet normal 0.195089 0.980786 -0
    outer loop
      vertex 1.91342 4.6194 0
      vertex 0 5 20
      vertex 1.91342 4.6194 20
    endloop
  endfacet
  facet normal 0.195089 0.980786 0
    outer loop
      vertex 0 5 20
      vertex 1.91342 4.6194 0
      vertex 0 5 0
    endloop
  endfacet
  facet normal 0.555574 0.831467 -0
    outer loop
      vertex 3.53553 3.53553 0
      vertex 1.91342 4.6194 20
      vertex 3.53553 3.53553 20
    endloop
  endfacet
  facet normal 0.555574 0.831467 0
    outer loop
      vertex 1.91342 4.6194 20
      vertex 3.53553 3.53553 0
      vertex 1.91342 4.6194 0
    endloop
  endfacet
  facet normal -0.831467 -0.555574 0
    outer loop
      vertex -3.53553 -3.53553 0
      vertex -4.6194 -1.91342 20
      vertex -4.6194 -1.91342 0
    endloop
  endfacet
  facet normal -0.831467 -0.555574 0
    outer loop
      vertex -4.6194 -1.91342 20
      vertex -3.53553 -3.53553 0
      vertex -3.53553 -3.53553 20
    endloop
  endfacet
  facet normal -0.980786 -0.195089 0
    outer loop
      vertex -4.6194 -1.91342 0
      vertex -5 0 20
      vertex -5 0 0
    endloop
  endfacet
  facet normal -0.980786 -0.195089 0
    outer loop
      vertex -5 0 20
      vertex -4.6194 -1.91342 0
      vertex -4.6194 -1.91342 20
    endloop
  endfacet
  facet normal -0.555574 -0.831467 0
    outer loop
      vertex -3.53553 -3.53553 0
      vertex -1.91342 -4.6194 20
      vertex -3.53553 -3.53553 20
    endloop
  endfacet
  facet normal -0.555574 -0.831467 -0
    outer loop
      vertex -1.91342 -4.6194 20
      vertex -3.53553 -3.53553 0
      vertex -1.91342 -4.6194 0
    endloop
  endfacet
endsolid OpenSCAD_Model
