solid OpenSCAD_Model
  facet normal 0.92388 0.382682 0
    outer loop
      vertex -2.75556 -8.05886 0.5
      vertex -3.50481 -6.25 -0.5
      vertex -3.50481 -6.25 0.5
    endloop
  endfacet
  facet normal 0.92388 0.382682 0
    outer loop
      vertex -3.50481 -6.25 -0.5
      vertex -2.75556 -8.05886 0.5
      vertex -2.75556 -8.05886 -0.5
    endloop
  endfacet
  facet normal 0.991445 0.130528 0
    outer loop
      vertex -2.5 -10 0.5
      vertex -2.75556 -8.05886 -0.5
      vertex -2.75556 -8.05886 0.5
    endloop
  endfacet
  facet normal 0.991445 0.130528 0
    outer loop
      vertex -2.75556 -8.05886 -0.5
      vertex -2.5 -10 0.5
      vertex -2.5 -10 -0.5
    endloop
  endfacet
  facet normal 0.793352 0.608763 0
    outer loop
      vertex -3.50481 -6.25 0.5
      vertex -3.90231 -5.73197 -0.5
      vertex -3.90231 -5.73197 0.5
    endloop
  endfacet
  facet normal 0.793352 0.608763 0
    outer loop
      vertex -3.90231 -5.73197 -0.5
      vertex -3.50481 -6.25 0.5
      vertex -3.50481 -6.25 -0.5
    endloop
  endfacet
  facet normal -0.793351 0.608765 0
    outer loop
      vertex -16.4952 -6.25 -0.5
      vertex -15.3033 -4.6967 0.5
      vertex -15.3033 -4.6967 -0.5
    endloop
  endfacet
  facet normal -0.793351 0.608765 0
    outer loop
      vertex -15.3033 -4.6967 0.5
      vertex -16.4952 -6.25 -0.5
      vertex -16.4952 -6.25 0.5
    endloop
  endfacet
  facet normal -0.608762 0.793353 0
    outer loop
      vertex -13.75 -3.50481 -0.5
      vertex -15.3033 -4.6967 0.5
      vertex -13.75 -3.50481 0.5
    endloop
  endfacet
  facet normal -0.608762 0.793353 0
    outer loop
      vertex -15.3033 -4.6967 0.5
      vertex -13.75 -3.50481 -0.5
      vertex -15.3033 -4.6967 -0.5
    endloop
  endfacet
  facet normal 0.38266 -0.923889 0
    outer loop
      vertex -8.05886 -17.2444 -0.5
      vertex -6.25 -16.4952 0.5
      vertex -8.05886 -17.2444 0.5
    endloop
  endfacet
  facet normal 0.38266 -0.923889 0
    outer loop
      vertex -6.25 -16.4952 0.5
      vertex -8.05886 -17.2444 -0.5
      vertex -6.25 -16.4952 -0.5
    endloop
  endfacet
  facet normal -0.923889 0.38266 0
    outer loop
      vertex -17.2444 -8.05886 -0.5
      vertex -16.4952 -6.25 0.5
      vertex -16.4952 -6.25 -0.5
    endloop
  endfacet
  facet normal -0.923889 0.38266 0
    outer loop
      vertex -16.4952 -6.25 0.5
      vertex -17.2444 -8.05886 -0.5
      vertex -17.2444 -8.05886 0.5
    endloop
  endfacet
  facet normal 0.130548 -0.991442 0
    outer loop
      vertex -10 -17.5 -0.5
      vertex -8.05886 -17.2444 0.5
      vertex -10 -17.5 0.5
    endloop
  endfacet
  facet normal 0.130548 -0.991442 0
    outer loop
      vertex -8.05886 -17.2444 0.5
      vertex -10 -17.5 -0.5
      vertex -8.05886 -17.2444 -0.5
    endloop
  endfacet
  facet normal -0 0 1
    outer loop
      vertex -8 -8.88648 0.5
      vertex -2.5 -10 0.5
      vertex -2.75556 -8.05886 0.5
    endloop
  endfacet
  facet normal 0 0 1
    outer loop
      vertex -8 -8.88648 0.5
      vertex -2.75556 -8.05886 0.5
      vertex -3.50481 -6.25 0.5
    endloop
  endfacet
  facet normal 0 0 1
    outer loop
      vertex -8 -11.1135 0.5
      vertex -2.5 -10 0.5
      vertex -8 -8.88648 0.5
    endloop
  endfacet
  facet normal 0 0 1
    outer loop
      vertex -6.0668 -5.51347 0.5
      vertex -3.50481 -6.25 0.5
      vertex -3.90231 -5.73197 0.5
    endloop
  endfacet
  facet normal 0 0 1
    outer loop
      vertex -2.5 -10 0.5
      vertex -8 -11.1135 0.5
      vertex -2.75556 -11.9411 0.5
    endloop
  endfacet
  facet normal 0 0 1
    outer loop
      vertex -3.50481 -6.25 0.5
      vertex -6.0668 -5.51347 0.5
      vertex -8 -8.88648 0.5
    endloop
  endfacet
  facet normal 0 0 1
    outer loop
      vertex -3.50481 -13.75 0.5
      vertex -8 -11.1135 0.5
      vertex -4.6967 -15.3033 0.5
    endloop
  endfacet
  facet normal 0 0 1
    outer loop
      vertex -2.75556 -11.9411 0.5
      vertex -8 -11.1135 0.5
      vertex -3.50481 -13.75 0.5
    endloop
  endfacet
  facet normal 0 0 1
    outer loop
      vertex -6.0668 -5.51347 0.5
      vertex -9 -8.88648 0.5
      vertex -8 -8.88648 0.5
    endloop
  endfacet
  facet normal -0 0 1
    outer loop
      vertex -17.5 -10 0.5
      vertex -9 -11.1135 0.5
      vertex -9 -8.88648 0.5
    endloop
  endfacet
  facet normal 0 0 1
    outer loop
      vertex -10.229 -4.42947 0.5
      vertex -9 -8.88648 0.5
      vertex -6.0668 -5.51347 0.5
    endloop
  endfacet
  facet normal -0 0 1
    outer loop
      vertex -15.3033 -4.6967 0.5
      vertex -9 -8.88648 0.5
      vertex -10.229 -4.42947 0.5
    endloop
  endfacet
  facet normal 0 0 1
    outer loop
      vertex -9 -11.1135 0.5
      vertex -11.9411 -17.2444 0.5
      vertex -10 -17.5 0.5
    endloop
  endfacet
  facet normal -0 0 1
    outer loop
      vertex -13.75 -3.50481 0.5
      vertex -10.229 -4.42947 0.5
      vertex -12.8015 -3.11192 0.5
    endloop
  endfacet
  facet normal 0 0 1
    outer loop
      vertex -10.229 -4.42947 0.5
      vertex -13.75 -3.50481 0.5
      vertex -15.3033 -4.6967 0.5
    endloop
  endfacet
  facet normal 0 0 1
    outer loop
      vertex -9 -11.1135 0.5
      vertex -13.75 -16.4952 0.5
      vertex -11.9411 -17.2444 0.5
    endloop
  endfacet
  facet normal 0 0 1
    outer loop
      vertex -9 -8.88648 0.5
      vertex -15.3033 -4.6967 0.5
      vertex -16.4952 -6.25 0.5
    endloop
  endfacet
  facet normal 0 0 1
    outer loop
      vertex -9 -11.1135 0.5
      vertex -15.3033 -15.3033 0.5
      vertex -13.75 -16.4952 0.5
    endloop
  endfacet
  facet normal 0 0 1
    outer loop
      vertex -9 -8.88648 0.5
      vertex -16.4952 -6.25 0.5
      vertex -17.2444 -8.05886 0.5
    endloop
  endfacet
  facet normal 0 0 1
    outer loop
      vertex -9 -11.1135 0.5
      vertex -16.4952 -13.75 0.5
      vertex -15.3033 -15.3033 0.5
    endloop
  endfacet
  facet normal 0 0 1
    outer loop
      vertex -9 -8.88648 0.5
      vertex -17.2444 -8.05886 0.5
      vertex -17.5 -10 0.5
    endloop
  endfacet
  facet normal 0 0 1
    outer loop
      vertex -9 -11.1135 0.5
      vertex -17.2444 -11.9411 0.5
      vertex -16.4952 -13.75 0.5
    endloop
  endfacet
  facet normal 0 0 1
    outer loop
      vertex -9 -11.1135 0.5
      vertex -17.5 -10 0.5
      vertex -17.2444 -11.9411 0.5
    endloop
  endfacet
  facet normal 0 0 1
    outer loop
      vertex -4.6967 -15.3033 0.5
      vertex -8 -11.1135 0.5
      vertex -6.25 -16.4952 0.5
    endloop
  endfacet
  facet normal 0 0 1
    outer loop
      vertex -8 -11.1135 0.5
      vertex -8.05886 -17.2444 0.5
      vertex -6.25 -16.4952 0.5
    endloop
  endfacet
  facet normal -0 0 1
    outer loop
      vertex -9 -11.1135 0.5
      vertex -8.05886 -17.2444 0.5
      vertex -8 -11.1135 0.5
    endloop
  endfacet
  facet normal 0 0 1
    outer loop
      vertex -8.05886 -17.2444 0.5
      vertex -9 -11.1135 0.5
      vertex -10 -17.5 0.5
    endloop
  endfacet
  facet normal 0.793353 -0.608762 0
    outer loop
      vertex -4.6967 -15.3033 0.5
      vertex -3.50481 -13.75 -0.5
      vertex -3.50481 -13.75 0.5
    endloop
  endfacet
  facet normal 0.793353 -0.608762 0
    outer loop
      vertex -3.50481 -13.75 -0.5
      vertex -4.6967 -15.3033 0.5
      vertex -4.6967 -15.3033 -0.5
    endloop
  endfacet
  facet normal 0.608765 -0.793351 0
    outer loop
      vertex -6.25 -16.4952 -0.5
      vertex -4.6967 -15.3033 0.5
      vertex -6.25 -16.4952 0.5
    endloop
  endfacet
  facet normal 0.608765 -0.793351 0
    outer loop
      vertex -4.6967 -15.3033 0.5
      vertex -6.25 -16.4952 -0.5
      vertex -4.6967 -15.3033 -0.5
    endloop
  endfacet
  facet normal -0.793351 -0.608765 0
    outer loop
      vertex -15.3033 -15.3033 -0.5
      vertex -16.4952 -13.75 0.5
      vertex -16.4952 -13.75 -0.5
    endloop
  endfacet
  facet normal -0.793351 -0.608765 0
    outer loop
      vertex -16.4952 -13.75 0.5
      vertex -15.3033 -15.3033 -0.5
      vertex -15.3033 -15.3033 0.5
    endloop
  endfacet
  facet normal 0.991444 -0.130531 0
    outer loop
      vertex -2.75556 -11.9411 0.5
      vertex -2.5 -10 -0.5
      vertex -2.5 -10 0.5
    endloop
  endfacet
  facet normal 0.991444 -0.130531 0
    outer loop
      vertex -2.5 -10 -0.5
      vertex -2.75556 -11.9411 0.5
      vertex -2.75556 -11.9411 -0.5
    endloop
  endfacet
  facet normal -0.991442 0.130548 0
    outer loop
      vertex -17.5 -10 -0.5
      vertex -17.2444 -8.05886 0.5
      vertex -17.2444 -8.05886 -0.5
    endloop
  endfacet
  facet normal -0.991442 0.130548 0
    outer loop
      vertex -17.2444 -8.05886 0.5
      vertex -17.5 -10 -0.5
      vertex -17.5 -10 0.5
    endloop
  endfacet
  facet normal 0.923883 -0.382674 0
    outer loop
      vertex -3.50481 -13.75 0.5
      vertex -2.75556 -11.9411 -0.5
      vertex -2.75556 -11.9411 0.5
    endloop
  endfacet
  facet normal 0.923883 -0.382674 0
    outer loop
      vertex -2.75556 -11.9411 -0.5
      vertex -3.50481 -13.75 0.5
      vertex -3.50481 -13.75 -0.5
    endloop
  endfacet
  facet normal -0.38269 0.923877 0
    outer loop
      vertex -12.8015 -3.11192 -0.5
      vertex -13.75 -3.50481 0.5
      vertex -12.8015 -3.11192 0.5
    endloop
  endfacet
  facet normal -0.38269 0.923877 0
    outer loop
      vertex -13.75 -3.50481 0.5
      vertex -12.8015 -3.11192 -0.5
      vertex -13.75 -3.50481 -0.5
    endloop
  endfacet
  facet normal -0.130551 -0.991442 0
    outer loop
      vertex -11.9411 -17.2444 -0.5
      vertex -10 -17.5 0.5
      vertex -11.9411 -17.2444 0.5
    endloop
  endfacet
  facet normal -0.130551 -0.991442 -0
    outer loop
      vertex -10 -17.5 0.5
      vertex -11.9411 -17.2444 -0.5
      vertex -10 -17.5 -0.5
    endloop
  endfacet
  facet normal -0.923892 -0.382653 0
    outer loop
      vertex -16.4952 -13.75 -0.5
      vertex -17.2444 -11.9411 0.5
      vertex -17.2444 -11.9411 -0.5
    endloop
  endfacet
  facet normal -0.923892 -0.382653 0
    outer loop
      vertex -17.2444 -11.9411 0.5
      vertex -16.4952 -13.75 -0.5
      vertex -16.4952 -13.75 0.5
    endloop
  endfacet
  facet normal -0.991442 -0.130551 0
    outer loop
      vertex -17.2444 -11.9411 -0.5
      vertex -17.5 -10 0.5
      vertex -17.5 -10 -0.5
    endloop
  endfacet
  facet normal -0.991442 -0.130551 0
    outer loop
      vertex -17.5 -10 0.5
      vertex -17.2444 -11.9411 -0.5
      vertex -17.2444 -11.9411 0.5
    endloop
  endfacet
  facet normal -0.608765 -0.793351 0
    outer loop
      vertex -15.3033 -15.3033 -0.5
      vertex -13.75 -16.4952 0.5
      vertex -15.3033 -15.3033 0.5
    endloop
  endfacet
  facet normal -0.608765 -0.793351 -0
    outer loop
      vertex -13.75 -16.4952 0.5
      vertex -15.3033 -15.3033 -0.5
      vertex -13.75 -16.4952 -0.5
    endloop
  endfacet
  facet normal 0 0 -1
    outer loop
      vertex -8.05886 -17.2444 -0.5
      vertex -8 -11.3764 -0.5
      vertex -6.25 -16.4952 -0.5
    endloop
  endfacet
  facet normal 0 0 -1
    outer loop
      vertex -8.05886 -17.2444 -0.5
      vertex -9 -11.3764 -0.5
      vertex -8 -11.3764 -0.5
    endloop
  endfacet
  facet normal 0 0 -1
    outer loop
      vertex -11.9411 -17.2444 -0.5
      vertex -9 -11.3764 -0.5
      vertex -10 -17.5 -0.5
    endloop
  endfacet
  facet normal 0 0 -1
    outer loop
      vertex -10 -17.5 -0.5
      vertex -9 -11.3764 -0.5
      vertex -8.05886 -17.2444 -0.5
    endloop
  endfacet
  facet normal 0 0 -1
    outer loop
      vertex -8 -11.3764 -0.5
      vertex -2.5 -10 -0.5
      vertex -2.75556 -11.9411 -0.5
    endloop
  endfacet
  facet normal 0 0 -1
    outer loop
      vertex -8 -11.3764 -0.5
      vertex -2.75556 -11.9411 -0.5
      vertex -3.50481 -13.75 -0.5
    endloop
  endfacet
  facet normal 0 0 -1
    outer loop
      vertex -8 -8.62362 -0.5
      vertex -2.5 -10 -0.5
      vertex -8 -11.3764 -0.5
    endloop
  endfacet
  facet normal -0 0 -1
    outer loop
      vertex -2.75556 -8.05886 -0.5
      vertex -8 -8.62362 -0.5
      vertex -3.50481 -6.25 -0.5
    endloop
  endfacet
  facet normal 0 0 -1
    outer loop
      vertex -8 -11.3764 -0.5
      vertex -3.50481 -13.75 -0.5
      vertex -4.6967 -15.3033 -0.5
    endloop
  endfacet
  facet normal 0 0 -1
    outer loop
      vertex -2.5 -10 -0.5
      vertex -8 -8.62362 -0.5
      vertex -2.75556 -8.05886 -0.5
    endloop
  endfacet
  facet normal 0 0 -1
    outer loop
      vertex -8 -11.3764 -0.5
      vertex -4.6967 -15.3033 -0.5
      vertex -6.25 -16.4952 -0.5
    endloop
  endfacet
  facet normal 0 -0 -1
    outer loop
      vertex -6.0668 -5.51347 -0.5
      vertex -3.50481 -6.25 -0.5
      vertex -8 -8.62362 -0.5
    endloop
  endfacet
  facet normal 0 0 -1
    outer loop
      vertex -3.50481 -6.25 -0.5
      vertex -6.0668 -5.51347 -0.5
      vertex -3.90231 -5.73197 -0.5
    endloop
  endfacet
  facet normal 0 0 -1
    outer loop
      vertex -10.229 -4.42947 -0.5
      vertex -8 -8.62362 -0.5
      vertex -9 -8.62362 -0.5
    endloop
  endfacet
  facet normal 0 0 -1
    outer loop
      vertex -8 -8.62362 -0.5
      vertex -10.229 -4.42947 -0.5
      vertex -6.0668 -5.51347 -0.5
    endloop
  endfacet
  facet normal 0 0 -1
    outer loop
      vertex -13.75 -16.4952 -0.5
      vertex -9 -11.3764 -0.5
      vertex -11.9411 -17.2444 -0.5
    endloop
  endfacet
  facet normal 0 0 -1
    outer loop
      vertex -15.3033 -15.3033 -0.5
      vertex -9 -11.3764 -0.5
      vertex -13.75 -16.4952 -0.5
    endloop
  endfacet
  facet normal 0 0 -1
    outer loop
      vertex -16.4952 -13.75 -0.5
      vertex -9 -11.3764 -0.5
      vertex -15.3033 -15.3033 -0.5
    endloop
  endfacet
  facet normal 0 0 -1
    outer loop
      vertex -17.2444 -11.9411 -0.5
      vertex -9 -11.3764 -0.5
      vertex -16.4952 -13.75 -0.5
    endloop
  endfacet
  facet normal 0 0 -1
    outer loop
      vertex -17.5 -10 -0.5
      vertex -9 -11.3764 -0.5
      vertex -17.2444 -11.9411 -0.5
    endloop
  endfacet
  facet normal 0 0 -1
    outer loop
      vertex -9 -11.3764 -0.5
      vertex -17.5 -10 -0.5
      vertex -9 -8.62362 -0.5
    endloop
  endfacet
  facet normal 0 0 -1
    outer loop
      vertex -10.229 -4.42947 -0.5
      vertex -13.75 -3.50481 -0.5
      vertex -12.8015 -3.11192 -0.5
    endloop
  endfacet
  facet normal 0 0 -1
    outer loop
      vertex -9 -8.62362 -0.5
      vertex -15.3033 -4.6967 -0.5
      vertex -10.229 -4.42947 -0.5
    endloop
  endfacet
  facet normal 0 -0 -1
    outer loop
      vertex -13.75 -3.50481 -0.5
      vertex -10.229 -4.42947 -0.5
      vertex -15.3033 -4.6967 -0.5
    endloop
  endfacet
  facet normal 0 -0 -1
    outer loop
      vertex -17.2444 -8.05886 -0.5
      vertex -9 -8.62362 -0.5
      vertex -17.5 -10 -0.5
    endloop
  endfacet
  facet normal 0 -0 -1
    outer loop
      vertex -15.3033 -4.6967 -0.5
      vertex -9 -8.62362 -0.5
      vertex -16.4952 -6.25 -0.5
    endloop
  endfacet
  facet normal 0 -0 -1
    outer loop
      vertex -16.4952 -6.25 -0.5
      vertex -9 -8.62362 -0.5
      vertex -17.2444 -8.05886 -0.5
    endloop
  endfacet
  facet normal -0.382653 -0.923892 0
    outer loop
      vertex -13.75 -16.4952 -0.5
      vertex -11.9411 -17.2444 0.5
      vertex -13.75 -16.4952 0.5
    endloop
  endfacet
  facet normal -0.382653 -0.923892 -0
    outer loop
      vertex -11.9411 -17.2444 0.5
      vertex -13.75 -16.4952 -0.5
      vertex -11.9411 -17.2444 -0.5
    endloop
  endfacet
  facet normal 0 -0.587812 0.808997
    outer loop
      vertex -9 -8.57342 -0.463525
      vertex -8 -8.62362 -0.5
      vertex -8 -8.57342 -0.463525
    endloop
  endfacet
  facet normal 0 -0.587812 0.808997
    outer loop
      vertex -8 -8.62362 -0.5
      vertex -9 -8.57342 -0.463525
      vertex -9 -8.62362 -0.5
    endloop
  endfacet
  facet normal 0 -0.951059 -0.30901
    outer loop
      vertex -9 -8.57342 -0.463525
      vertex -8 -8.88648 0.5
      vertex -9 -8.88648 0.5
    endloop
  endfacet
  facet normal 0 -0.951059 -0.30901
    outer loop
      vertex -8 -8.88648 0.5
      vertex -9 -8.57342 -0.463525
      vertex -8 -8.57342 -0.463525
    endloop
  endfacet
  facet normal 0 0.951047 -0.309045
    outer loop
      vertex -8 -11.4266 -0.463525
      vertex -9 -11.1135 0.5
      vertex -8 -11.1135 0.5
    endloop
  endfacet
  facet normal 0 0.951047 -0.309045
    outer loop
      vertex -9 -11.1135 0.5
      vertex -8 -11.4266 -0.463525
      vertex -9 -11.4266 -0.463525
    endloop
  endfacet
  facet normal -1 0 0
    outer loop
      vertex -8 -8.62362 -0.5
      vertex -8 -8.88648 0.5
      vertex -8 -8.57342 -0.463525
    endloop
  endfacet
  facet normal -1 0 0
    outer loop
      vertex -8 -8.62362 -0.5
      vertex -8 -11.1135 0.5
      vertex -8 -8.88648 0.5
    endloop
  endfacet
  facet normal -1 0 0
    outer loop
      vertex -8 -11.3764 -0.5
      vertex -8 -11.1135 0.5
      vertex -8 -8.62362 -0.5
    endloop
  endfacet
  facet normal -1 0 0
    outer loop
      vertex -8 -11.1135 0.5
      vertex -8 -11.3764 -0.5
      vertex -8 -11.4266 -0.463525
    endloop
  endfacet
  facet normal -0 0.587812 0.808997
    outer loop
      vertex -9 -11.3764 -0.5
      vertex -8 -11.4266 -0.463525
      vertex -8 -11.3764 -0.5
    endloop
  endfacet
  facet normal 0 0.587812 0.808997
    outer loop
      vertex -8 -11.4266 -0.463525
      vertex -9 -11.3764 -0.5
      vertex -9 -11.4266 -0.463525
    endloop
  endfacet
  facet normal 1 0 0
    outer loop
      vertex -9 -8.88648 0.5
      vertex -9 -8.62362 -0.5
      vertex -9 -8.57342 -0.463525
    endloop
  endfacet
  facet normal 1 -0 0
    outer loop
      vertex -9 -11.1135 0.5
      vertex -9 -8.62362 -0.5
      vertex -9 -8.88648 0.5
    endloop
  endfacet
  facet normal 1 0 0
    outer loop
      vertex -9 -11.1135 0.5
      vertex -9 -11.3764 -0.5
      vertex -9 -8.62362 -0.5
    endloop
  endfacet
  facet normal 1 0 -0
    outer loop
      vertex -9 -11.3764 -0.5
      vertex -9 -11.1135 0.5
      vertex -9 -11.4266 -0.463525
    endloop
  endfacet
  facet normal 0.593078 0.805145 -0
    outer loop
      vertex 14.2847 1.95487 -2.5
      vertex 11.9184 3.69791 2.5
      vertex 14.2847 1.95487 2.5
    endloop
  endfacet
  facet normal 0.593078 0.805145 0
    outer loop
      vertex 11.9184 3.69791 2.5
      vertex 14.2847 1.95487 -2.5
      vertex 11.9184 3.69791 -2.5
    endloop
  endfacet
  facet normal 0.922444 0.386131 0
    outer loop
      vertex 15.103 0 2.5
      vertex 14.2847 1.95487 -2.5
      vertex 14.2847 1.95487 2.5
    endloop
  endfacet
  facet normal 0.922444 0.386131 0
    outer loop
      vertex 14.2847 1.95487 -2.5
      vertex 15.103 0 2.5
      vertex 15.103 0 -2.5
    endloop
  endfacet
  facet normal 0.344501 0.938786 -0
    outer loop
      vertex 11.9184 3.69791 -2.5
      vertex 8.26055 5.04021 2.5
      vertex 11.9184 3.69791 2.5
    endloop
  endfacet
  facet normal 0.344501 0.938786 0
    outer loop
      vertex 8.26055 5.04021 2.5
      vertex 11.9184 3.69791 -2.5
      vertex 8.26055 5.04021 -2.5
    endloop
  endfacet
  facet normal -0.100437 -0.994943 -0
    outer loop
      vertex -6.0668 -5.51347 -0.5
      vertex -6.0668 -5.51347 -2.5
      vertex -3.90231 -5.73197 -0.5
    endloop
  endfacet
  facet normal -0.100437 -0.994943 0
    outer loop
      vertex -3.90231 -5.73197 0.5
      vertex -6.0668 -5.51347 2.5
      vertex -6.0668 -5.51347 0.5
    endloop
  endfacet
  facet normal -0.100438 -0.994943 -4.68064e-07
    outer loop
      vertex -6.0668 -5.51347 2.5
      vertex -3.90231 -5.73197 0.5
      vertex -1.24719 -6 2.5
    endloop
  endfacet
  facet normal -0.100438 -0.994943 0
    outer loop
      vertex -3.90231 -5.73197 -0.5
      vertex -1.24719 -6 2.5
      vertex -3.90231 -5.73197 0.5
    endloop
  endfacet
  facet normal -0.100438 -0.994943 0
    outer loop
      vertex -3.90231 -5.73197 -0.5
      vertex -1.24719 -6 -2.5
      vertex -1.24719 -6 2.5
    endloop
  endfacet
  facet normal -0.100438 -0.994943 4.68064e-07
    outer loop
      vertex -1.24719 -6 -2.5
      vertex -3.90231 -5.73197 -0.5
      vertex -6.0668 -5.51347 -2.5
    endloop
  endfacet
  facet normal 0.344501 -0.938786 0
    outer loop
      vertex 8.26055 -5.04021 -2.5
      vertex 11.9184 -3.69791 2.5
      vertex 8.26055 -5.04021 2.5
    endloop
  endfacet
  facet normal 0.344501 -0.938786 0
    outer loop
      vertex 11.9184 -3.69791 2.5
      vertex 8.26055 -5.04021 -2.5
      vertex 11.9184 -3.69791 -2.5
    endloop
  endfacet
  facet normal 0.172246 -0.985054 0
    outer loop
      vertex 3.70757 -5.83634 -2.5
      vertex 8.26055 -5.04021 2.5
      vertex 3.70757 -5.83634 2.5
    endloop
  endfacet
  facet normal 0.172246 -0.985054 0
    outer loop
      vertex 8.26055 -5.04021 2.5
      vertex 3.70757 -5.83634 -2.5
      vertex 8.26055 -5.04021 -2.5
    endloop
  endfacet
  facet normal -0.252032 0.967719 0
    outer loop
      vertex -6.0668 5.51347 -2.5
      vertex -10.229 4.42947 2.5
      vertex -6.0668 5.51347 2.5
    endloop
  endfacet
  facet normal -0.252032 0.967719 0
    outer loop
      vertex -10.229 4.42947 2.5
      vertex -6.0668 5.51347 -2.5
      vertex -10.229 4.42947 -2.5
    endloop
  endfacet
  facet normal -0.455855 0.890054 0
    outer loop
      vertex -10.229 4.42947 -2.5
      vertex -13.2827 2.86547 2.5
      vertex -10.229 4.42947 2.5
    endloop
  endfacet
  facet normal -0.455855 0.890054 0
    outer loop
      vertex -13.2827 2.86547 2.5
      vertex -10.229 4.42947 -2.5
      vertex -13.2827 2.86547 -2.5
    endloop
  endfacet
  facet normal 0 0 1
    outer loop
      vertex 14.2847 1.95487 2.5
      vertex 14.2847 -1.95487 2.5
      vertex 15.103 0 2.5
    endloop
  endfacet
  facet normal 0 0 1
    outer loop
      vertex 11.9184 3.69791 2.5
      vertex 14.2847 -1.95487 2.5
      vertex 14.2847 1.95487 2.5
    endloop
  endfacet
  facet normal 0 0 1
    outer loop
      vertex 11.9184 3.69791 2.5
      vertex 11.9184 -3.69791 2.5
      vertex 14.2847 -1.95487 2.5
    endloop
  endfacet
  facet normal 0 0 1
    outer loop
      vertex 8.26055 5.04021 2.5
      vertex 11.9184 -3.69791 2.5
      vertex 11.9184 3.69791 2.5
    endloop
  endfacet
  facet normal 0 0 1
    outer loop
      vertex 8.26055 5.04021 2.5
      vertex 8.26055 -5.04021 2.5
      vertex 11.9184 -3.69791 2.5
    endloop
  endfacet
  facet normal 0 0 1
    outer loop
      vertex 2 0 2.5
      vertex 8.26055 5.04021 2.5
      vertex 3.70757 5.83634 2.5
    endloop
  endfacet
  facet normal 0 0 1
    outer loop
      vertex 8.26055 5.04021 2.5
      vertex 2 0 2.5
      vertex 8.26055 -5.04021 2.5
    endloop
  endfacet
  facet normal 0 0 1
    outer loop
      vertex 8.26055 -5.04021 2.5
      vertex 2 0 2.5
      vertex 3.70757 -5.83634 2.5
    endloop
  endfacet
  facet normal 0 0 1
    outer loop
      vertex 3.70757 5.83634 2.5
      vertex 1.24698 1.56366 2.5
      vertex 2 0 2.5
    endloop
  endfacet
  facet normal 0 0 1
    outer loop
      vertex -1.24719 6 2.5
      vertex 1.24698 1.56366 2.5
      vertex 3.70757 5.83634 2.5
    endloop
  endfacet
  facet normal 0 0 1
    outer loop
      vertex 1.24698 1.56366 2.5
      vertex -1.24719 6 2.5
      vertex -0.445042 1.94986 2.5
    endloop
  endfacet
  facet normal 0 0 1
    outer loop
      vertex -1.24719 6 2.5
      vertex -1.80194 0.867767 2.5
      vertex -0.445042 1.94986 2.5
    endloop
  endfacet
  facet normal -0 0 1
    outer loop
      vertex -10.229 4.42947 2.5
      vertex -1.80194 0.867767 2.5
      vertex -6.0668 5.51347 2.5
    endloop
  endfacet
  facet normal -0 0 1
    outer loop
      vertex -6.0668 5.51347 2.5
      vertex -1.80194 0.867767 2.5
      vertex -1.24719 6 2.5
    endloop
  endfacet
  facet normal -0 0 1
    outer loop
      vertex 1.24698 -1.56366 2.5
      vertex 3.70757 -5.83634 2.5
      vertex 2 0 2.5
    endloop
  endfacet
  facet normal 0 0 1
    outer loop
      vertex -1.24719 -6 2.5
      vertex 1.24698 -1.56366 2.5
      vertex -0.445042 -1.94986 2.5
    endloop
  endfacet
  facet normal 0 0 1
    outer loop
      vertex 1.24698 -1.56366 2.5
      vertex -1.24719 -6 2.5
      vertex 3.70757 -5.83634 2.5
    endloop
  endfacet
  facet normal 0 0 1
    outer loop
      vertex -1.80194 -0.867767 2.5
      vertex -1.24719 -6 2.5
      vertex -0.445042 -1.94986 2.5
    endloop
  endfacet
  facet normal 0 0 1
    outer loop
      vertex -1.80194 0.867767 2.5
      vertex -10.229 4.42947 2.5
      vertex -1.80194 -0.867767 2.5
    endloop
  endfacet
  facet normal 0 0 1
    outer loop
      vertex -1.80194 -0.867767 2.5
      vertex -6.0668 -5.51347 2.5
      vertex -1.24719 -6 2.5
    endloop
  endfacet
  facet normal 0 0 1
    outer loop
      vertex -10.229 -4.42947 2.5
      vertex -1.80194 -0.867767 2.5
      vertex -10.229 4.42947 2.5
    endloop
  endfacet
  facet normal 0 0 1
    outer loop
      vertex -1.80194 -0.867767 2.5
      vertex -10.229 -4.42947 2.5
      vertex -6.0668 -5.51347 2.5
    endloop
  endfacet
  facet normal -0 0 1
    outer loop
      vertex -13.2827 2.86547 2.5
      vertex -10.229 -4.42947 2.5
      vertex -10.229 4.42947 2.5
    endloop
  endfacet
  facet normal 0 0 1
    outer loop
      vertex -13.2827 2.86547 2.5
      vertex -13.2827 -2.86547 2.5
      vertex -10.229 -4.42947 2.5
    endloop
  endfacet
  facet normal -0 0 1
    outer loop
      vertex -14.897 0.990952 2.5
      vertex -13.2827 -2.86547 2.5
      vertex -13.2827 2.86547 2.5
    endloop
  endfacet
  facet normal 0 0 1
    outer loop
      vertex -13.2827 -2.86547 2.5
      vertex -14.897 0.990952 2.5
      vertex -14.897 -0.990952 2.5
    endloop
  endfacet
  facet normal 0.922444 -0.386131 0
    outer loop
      vertex 14.2847 -1.95487 2.5
      vertex 15.103 0 -2.5
      vertex 15.103 0 2.5
    endloop
  endfacet
  facet normal 0.922444 -0.386131 0
    outer loop
      vertex 15.103 0 -2.5
      vertex 14.2847 -1.95487 2.5
      vertex 14.2847 -1.95487 -2.5
    endloop
  endfacet
  facet normal 0 0 -1
    outer loop
      vertex 14.2847 -1.95487 -2.5
      vertex 14.2847 1.95487 -2.5
      vertex 15.103 0 -2.5
    endloop
  endfacet
  facet normal 0 0 -1
    outer loop
      vertex 11.9184 -3.69791 -2.5
      vertex 14.2847 1.95487 -2.5
      vertex 14.2847 -1.95487 -2.5
    endloop
  endfacet
  facet normal 0 0 -1
    outer loop
      vertex 11.9184 -3.69791 -2.5
      vertex 11.9184 3.69791 -2.5
      vertex 14.2847 1.95487 -2.5
    endloop
  endfacet
  facet normal 0 0 -1
    outer loop
      vertex 8.26055 -5.04021 -2.5
      vertex 11.9184 3.69791 -2.5
      vertex 11.9184 -3.69791 -2.5
    endloop
  endfacet
  facet normal 0 0 -1
    outer loop
      vertex 8.26055 -5.04021 -2.5
      vertex 8.26055 5.04021 -2.5
      vertex 11.9184 3.69791 -2.5
    endloop
  endfacet
  facet normal 0 0 -1
    outer loop
      vertex 2 0 -2.5
      vertex 8.26055 -5.04021 -2.5
      vertex 3.70757 -5.83634 -2.5
    endloop
  endfacet
  facet normal 0 0 -1
    outer loop
      vertex 8.26055 -5.04021 -2.5
      vertex 2 0 -2.5
      vertex 8.26055 5.04021 -2.5
    endloop
  endfacet
  facet normal -0 0 -1
    outer loop
      vertex 8.26055 5.04021 -2.5
      vertex 2 0 -2.5
      vertex 3.70757 5.83634 -2.5
    endloop
  endfacet
  facet normal 0 0 -1
    outer loop
      vertex 3.70757 -5.83634 -2.5
      vertex 1.24698 -1.56366 -2.5
      vertex 2 0 -2.5
    endloop
  endfacet
  facet normal 0 0 -1
    outer loop
      vertex -1.24719 -6 -2.5
      vertex 1.24698 -1.56366 -2.5
      vertex 3.70757 -5.83634 -2.5
    endloop
  endfacet
  facet normal 0 0 -1
    outer loop
      vertex 1.24698 -1.56366 -2.5
      vertex -1.24719 -6 -2.5
      vertex -0.445042 -1.94986 -2.5
    endloop
  endfacet
  facet normal 0 0 -1
    outer loop
      vertex -1.24719 -6 -2.5
      vertex -1.80194 -0.867767 -2.5
      vertex -0.445042 -1.94986 -2.5
    endloop
  endfacet
  facet normal 0 0 -1
    outer loop
      vertex -10.229 -4.42947 -2.5
      vertex -1.80194 -0.867767 -2.5
      vertex -6.0668 -5.51347 -2.5
    endloop
  endfacet
  facet normal 0 0 -1
    outer loop
      vertex -6.0668 -5.51347 -2.5
      vertex -1.80194 -0.867767 -2.5
      vertex -1.24719 -6 -2.5
    endloop
  endfacet
  facet normal 0 0 -1
    outer loop
      vertex 1.24698 1.56366 -2.5
      vertex 3.70757 5.83634 -2.5
      vertex 2 0 -2.5
    endloop
  endfacet
  facet normal 0 0 -1
    outer loop
      vertex -1.24719 6 -2.5
      vertex 1.24698 1.56366 -2.5
      vertex -0.445042 1.94986 -2.5
    endloop
  endfacet
  facet normal 0 0 -1
    outer loop
      vertex 1.24698 1.56366 -2.5
      vertex -1.24719 6 -2.5
      vertex 3.70757 5.83634 -2.5
    endloop
  endfacet
  facet normal 0 0 -1
    outer loop
      vertex -1.80194 0.867767 -2.5
      vertex -1.24719 6 -2.5
      vertex -0.445042 1.94986 -2.5
    endloop
  endfacet
  facet normal -0 0 -1
    outer loop
      vertex -1.80194 -0.867767 -2.5
      vertex -10.229 -4.42947 -2.5
      vertex -1.80194 0.867767 -2.5
    endloop
  endfacet
  facet normal 0 0 -1
    outer loop
      vertex -1.80194 0.867767 -2.5
      vertex -6.0668 5.51347 -2.5
      vertex -1.24719 6 -2.5
    endloop
  endfacet
  facet normal 0 0 -1
    outer loop
      vertex -10.229 4.42947 -2.5
      vertex -1.80194 0.867767 -2.5
      vertex -10.229 -4.42947 -2.5
    endloop
  endfacet
  facet normal 0 0 -1
    outer loop
      vertex -1.80194 0.867767 -2.5
      vertex -10.229 4.42947 -2.5
      vertex -6.0668 5.51347 -2.5
    endloop
  endfacet
  facet normal 0 0 -1
    outer loop
      vertex -13.2827 -2.86547 -2.5
      vertex -10.229 4.42947 -2.5
      vertex -10.229 -4.42947 -2.5
    endloop
  endfacet
  facet normal 0 0 -1
    outer loop
      vertex -13.2827 -2.86547 -2.5
      vertex -13.2827 2.86547 -2.5
      vertex -10.229 4.42947 -2.5
    endloop
  endfacet
  facet normal 0 0 -1
    outer loop
      vertex -14.897 -0.990952 -2.5
      vertex -13.2827 2.86547 -2.5
      vertex -13.2827 -2.86547 -2.5
    endloop
  endfacet
  facet normal 0 0 -1
    outer loop
      vertex -13.2827 2.86547 -2.5
      vertex -14.897 -0.990952 -2.5
      vertex -14.897 0.990952 -2.5
    endloop
  endfacet
  facet normal 0.593078 -0.805145 0
    outer loop
      vertex 11.9184 -3.69791 -2.5
      vertex 14.2847 -1.95487 2.5
      vertex 11.9184 -3.69791 2.5
    endloop
  endfacet
  facet normal 0.593078 -0.805145 0
    outer loop
      vertex 14.2847 -1.95487 2.5
      vertex 11.9184 -3.69791 -2.5
      vertex 14.2847 -1.95487 -2.5
    endloop
  endfacet
  facet normal 0.0330129 0.999455 -0
    outer loop
      vertex 3.70757 5.83634 -2.5
      vertex -1.24719 6 2.5
      vertex 3.70757 5.83634 2.5
    endloop
  endfacet
  facet normal 0.0330129 0.999455 0
    outer loop
      vertex -1.24719 6 2.5
      vertex 3.70757 5.83634 -2.5
      vertex -1.24719 6 -2.5
    endloop
  endfacet
  facet normal 0.172246 0.985054 -0
    outer loop
      vertex 8.26055 5.04021 -2.5
      vertex 3.70757 5.83634 2.5
      vertex 8.26055 5.04021 2.5
    endloop
  endfacet
  facet normal 0.172246 0.985054 0
    outer loop
      vertex 3.70757 5.83634 2.5
      vertex 8.26055 5.04021 -2.5
      vertex 3.70757 5.83634 -2.5
    endloop
  endfacet
  facet normal -0.455855 -0.890054 -1.8122e-06
    outer loop
      vertex -13.2827 -2.86547 2.5
      vertex -12.8015 -3.11192 0.5
      vertex -10.229 -4.42947 2.5
    endloop
  endfacet
  facet normal -0.455849 -0.890057 0
    outer loop
      vertex -13.2827 -2.86547 2.5
      vertex -12.8015 -3.11192 -0.5
      vertex -12.8015 -3.11192 0.5
    endloop
  endfacet
  facet normal -0.455849 -0.890057 0
    outer loop
      vertex -13.2827 -2.86547 -2.5
      vertex -12.8015 -3.11192 -0.5
      vertex -13.2827 -2.86547 2.5
    endloop
  endfacet
  facet normal -0.455855 -0.890054 1.8122e-06
    outer loop
      vertex -10.229 -4.42947 -2.5
      vertex -12.8015 -3.11192 -0.5
      vertex -13.2827 -2.86547 -2.5
    endloop
  endfacet
  facet normal -0.455856 -0.890053 0
    outer loop
      vertex -12.8015 -3.11192 -0.5
      vertex -10.229 -4.42947 -2.5
      vertex -10.229 -4.42947 -0.5
    endloop
  endfacet
  facet normal -0.455856 -0.890053 -0
    outer loop
      vertex -10.229 -4.42947 2.5
      vertex -12.8015 -3.11192 0.5
      vertex -10.229 -4.42947 0.5
    endloop
  endfacet
  facet normal -0.100438 0.994943 0
    outer loop
      vertex -1.24719 6 -2.5
      vertex -6.0668 5.51347 2.5
      vertex -1.24719 6 2.5
    endloop
  endfacet
  facet normal -0.100438 0.994943 0
    outer loop
      vertex -6.0668 5.51347 2.5
      vertex -1.24719 6 -2.5
      vertex -6.0668 5.51347 -2.5
    endloop
  endfacet
  facet normal -0.757742 0.652554 0
    outer loop
      vertex -14.897 0.990952 -2.5
      vertex -13.2827 2.86547 2.5
      vertex -13.2827 2.86547 -2.5
    endloop
  endfacet
  facet normal -0.757742 0.652554 0
    outer loop
      vertex -13.2827 2.86547 2.5
      vertex -14.897 0.990952 -2.5
      vertex -14.897 0.990952 2.5
    endloop
  endfacet
  facet normal 0.0330129 -0.999455 0
    outer loop
      vertex -1.24719 -6 -2.5
      vertex 3.70757 -5.83634 2.5
      vertex -1.24719 -6 2.5
    endloop
  endfacet
  facet normal 0.0330129 -0.999455 0
    outer loop
      vertex 3.70757 -5.83634 2.5
      vertex -1.24719 -6 -2.5
      vertex 3.70757 -5.83634 -2.5
    endloop
  endfacet
  facet normal -0.757742 -0.652554 0
    outer loop
      vertex -13.2827 -2.86547 -2.5
      vertex -14.897 -0.990952 2.5
      vertex -14.897 -0.990952 -2.5
    endloop
  endfacet
  facet normal -0.757742 -0.652554 0
    outer loop
      vertex -14.897 -0.990952 2.5
      vertex -13.2827 -2.86547 -2.5
      vertex -13.2827 -2.86547 2.5
    endloop
  endfacet
  facet normal -1 0 0
    outer loop
      vertex -14.897 -0.990952 -2.5
      vertex -14.897 0.990952 2.5
      vertex -14.897 0.990952 -2.5
    endloop
  endfacet
  facet normal -1 -0 0
    outer loop
      vertex -14.897 0.990952 2.5
      vertex -14.897 -0.990952 -2.5
      vertex -14.897 -0.990952 2.5
    endloop
  endfacet
  facet normal -0.252032 -0.967719 0
    outer loop
      vertex -10.229 -4.42947 -2.5
      vertex -6.0668 -5.51347 -0.5
      vertex -10.229 -4.42947 -0.5
    endloop
  endfacet
  facet normal -0.252032 -0.967719 -0
    outer loop
      vertex -6.0668 -5.51347 -0.5
      vertex -10.229 -4.42947 -2.5
      vertex -6.0668 -5.51347 -2.5
    endloop
  endfacet
  facet normal -0.252032 -0.967719 0
    outer loop
      vertex -10.229 -4.42947 0.5
      vertex -6.0668 -5.51347 2.5
      vertex -10.229 -4.42947 2.5
    endloop
  endfacet
  facet normal -0.252032 -0.967719 -0
    outer loop
      vertex -6.0668 -5.51347 2.5
      vertex -10.229 -4.42947 0.5
      vertex -6.0668 -5.51347 0.5
    endloop
  endfacet
  facet normal 0.222525 0.974927 0
    outer loop
      vertex 1.24698 1.56366 20
      vertex -0.445042 1.94986 6.94986
      vertex -0.445042 1.94986 20
    endloop
  endfacet
  facet normal 0.222525 0.974927 0
    outer loop
      vertex -0.445042 1.94986 6.94986
      vertex 1.24698 1.56366 20
      vertex 1.24698 1.56366 6.56366
    endloop
  endfacet
  facet normal 0.222525 0.974927 -0
    outer loop
      vertex 1.24698 1.56366 2.5
      vertex -0.445042 1.94986 3.05014
      vertex 1.24698 1.56366 3.43634
    endloop
  endfacet
  facet normal 0.222525 0.974927 0
    outer loop
      vertex -0.445042 1.94986 3.05014
      vertex 1.24698 1.56366 2.5
      vertex -0.445042 1.94986 2.5
    endloop
  endfacet
  facet normal 0.900969 0.433884 0
    outer loop
      vertex 2 0 20
      vertex 1.24698 1.56366 6.56366
      vertex 1.24698 1.56366 20
    endloop
  endfacet
  facet normal 0.900969 0.433884 0
    outer loop
      vertex 1.24698 1.56366 6.56366
      vertex 2 0 20
      vertex 2 0 5
    endloop
  endfacet
  facet normal 0.900969 0.433884 -0
    outer loop
      vertex 2 0 2.5
      vertex 1.24698 1.56366 3.43634
      vertex 2 0 5
    endloop
  endfacet
  facet normal 0.900969 0.433884 0
    outer loop
      vertex 1.24698 1.56366 3.43634
      vertex 2 0 2.5
      vertex 1.24698 1.56366 2.5
    endloop
  endfacet
  facet normal 0.900969 -0.433884 0
    outer loop
      vertex 1.24698 -1.56366 6.56366
      vertex 2 0 20
      vertex 1.24698 -1.56366 20
    endloop
  endfacet
  facet normal 0.900969 -0.433884 0
    outer loop
      vertex 2 0 20
      vertex 1.24698 -1.56366 6.56366
      vertex 2 0 5
    endloop
  endfacet
  facet normal 0.900969 -0.433884 0
    outer loop
      vertex 1.24698 -1.56366 3.43634
      vertex 2 0 2.5
      vertex 2 0 5
    endloop
  endfacet
  facet normal 0.900969 -0.433884 0
    outer loop
      vertex 2 0 2.5
      vertex 1.24698 -1.56366 3.43634
      vertex 1.24698 -1.56366 2.5
    endloop
  endfacet
  facet normal 0 0 1
    outer loop
      vertex 1.24698 1.56366 20
      vertex 1.24698 -1.56366 20
      vertex 2 0 20
    endloop
  endfacet
  facet normal 0 0 1
    outer loop
      vertex -0.445042 1.94986 20
      vertex 1.24698 -1.56366 20
      vertex 1.24698 1.56366 20
    endloop
  endfacet
  facet normal 0 0 1
    outer loop
      vertex -0.445042 1.94986 20
      vertex -0.445042 -1.94986 20
      vertex 1.24698 -1.56366 20
    endloop
  endfacet
  facet normal -0 0 1
    outer loop
      vertex -1.80194 0.867767 20
      vertex -0.445042 -1.94986 20
      vertex -0.445042 1.94986 20
    endloop
  endfacet
  facet normal 0 0 1
    outer loop
      vertex -0.445042 -1.94986 20
      vertex -1.80194 0.867767 20
      vertex -1.80194 -0.867767 20
    endloop
  endfacet
  facet normal -0.623491 -0.781831 0
    outer loop
      vertex -1.80194 -0.867767 20
      vertex -0.445042 -1.94986 6.94986
      vertex -0.445042 -1.94986 20
    endloop
  endfacet
  facet normal -0.623491 -0.781831 0
    outer loop
      vertex -0.445042 -1.94986 6.94986
      vertex -1.80194 -0.867767 20
      vertex -1.80194 -0.867767 5.86777
    endloop
  endfacet
  facet normal -0.623491 -0.781831 0
    outer loop
      vertex -1.80194 -0.867767 2.5
      vertex -0.445042 -1.94986 3.05014
      vertex -1.80194 -0.867767 4.13223
    endloop
  endfacet
  facet normal -0.623491 -0.781831 -0
    outer loop
      vertex -0.445042 -1.94986 3.05014
      vertex -1.80194 -0.867767 2.5
      vertex -0.445042 -1.94986 2.5
    endloop
  endfacet
  facet normal 0.222525 -0.974927 0
    outer loop
      vertex -0.445042 -1.94986 6.94986
      vertex 1.24698 -1.56366 20
      vertex -0.445042 -1.94986 20
    endloop
  endfacet
  facet normal 0.222525 -0.974927 0
    outer loop
      vertex 1.24698 -1.56366 20
      vertex -0.445042 -1.94986 6.94986
      vertex 1.24698 -1.56366 6.56366
    endloop
  endfacet
  facet normal 0.222525 -0.974927 0
    outer loop
      vertex 1.24698 -1.56366 2.5
      vertex -0.445042 -1.94986 3.05014
      vertex -0.445042 -1.94986 2.5
    endloop
  endfacet
  facet normal 0.222525 -0.974927 0
    outer loop
      vertex -0.445042 -1.94986 3.05014
      vertex 1.24698 -1.56366 2.5
      vertex 1.24698 -1.56366 3.43634
    endloop
  endfacet
  facet normal -1 0 0
    outer loop
      vertex -1.80194 -2.5 4.13223
      vertex -1.80194 -0.867767 5.86777
      vertex -1.80194 -0.867767 4.13223
    endloop
  endfacet
  facet normal -1 -0 0
    outer loop
      vertex -1.80194 -0.867767 5.86777
      vertex -1.80194 -2.5 4.13223
      vertex -1.80194 -2.5 5.86777
    endloop
  endfacet
  facet normal -1 0 0
    outer loop
      vertex -1.80194 -0.867767 4.13223
      vertex -1.80194 0.867767 4.13223
      vertex -1.80194 0.867767 2.5
    endloop
  endfacet
  facet normal -1 0 0
    outer loop
      vertex -1.80194 0.867767 4.13223
      vertex -1.80194 -0.867767 4.13223
      vertex -1.80194 0.867767 5.86777
    endloop
  endfacet
  facet normal -1 0 0
    outer loop
      vertex -1.80194 -0.867767 4.13223
      vertex -1.80194 0.867767 2.5
      vertex -1.80194 -0.867767 2.5
    endloop
  endfacet
  facet normal -1 -0 0
    outer loop
      vertex -1.80194 0.867767 5.86777
      vertex -1.80194 -0.867767 4.13223
      vertex -1.80194 -0.867767 5.86777
    endloop
  endfacet
  facet normal -1 0 0
    outer loop
      vertex -1.80194 0.867767 5.86777
      vertex -1.80194 -0.867767 5.86777
      vertex -1.80194 0.867767 20
    endloop
  endfacet
  facet normal -1 -0 0
    outer loop
      vertex -1.80194 0.867767 20
      vertex -1.80194 -0.867767 5.86777
      vertex -1.80194 -0.867767 20
    endloop
  endfacet
  facet normal -1 0 0
    outer loop
      vertex -1.80194 0.867767 4.13223
      vertex -1.80194 22.5 5.86777
      vertex -1.80194 22.5 4.13223
    endloop
  endfacet
  facet normal -1 -0 0
    outer loop
      vertex -1.80194 22.5 5.86777
      vertex -1.80194 0.867767 4.13223
      vertex -1.80194 0.867767 5.86777
    endloop
  endfacet
  facet normal -0.623491 0.781831 0
    outer loop
      vertex -0.445042 1.94986 6.94986
      vertex -1.80194 0.867767 20
      vertex -0.445042 1.94986 20
    endloop
  endfacet
  facet normal -0.623491 0.781831 0
    outer loop
      vertex -1.80194 0.867767 20
      vertex -0.445042 1.94986 6.94986
      vertex -1.80194 0.867767 5.86777
    endloop
  endfacet
  facet normal -0.623491 0.781831 0
    outer loop
      vertex -1.80194 0.867767 2.5
      vertex -0.445042 1.94986 3.05014
      vertex -0.445042 1.94986 2.5
    endloop
  endfacet
  facet normal -0.623491 0.781831 0
    outer loop
      vertex -0.445042 1.94986 3.05014
      vertex -1.80194 0.867767 2.5
      vertex -1.80194 0.867767 4.13223
    endloop
  endfacet
  facet normal 0.221627 -0.970994 -0.0897344
    outer loop
      vertex 1.24698 -1.56366 -2.5
      vertex -0.445042 -1.94986 -2.5
      vertex -0.333781 -1.46239 -7.5
    endloop
  endfacet
  facet normal 0.897334 0.432134 -0.0897334
    outer loop
      vertex 1.5 0 -7.5
      vertex 1.24698 1.56366 -2.5
      vertex 2 0 -2.5
    endloop
  endfacet
  facet normal 0.897334 0.432133 -0.0897331
    outer loop
      vertex 1.5 0 -7.5
      vertex 0.935234 1.17275 -7.5
      vertex 1.24698 1.56366 -2.5
    endloop
  endfacet
  facet normal 0.897334 -0.432133 -0.0897331
    outer loop
      vertex 1.24698 -1.56366 -2.5
      vertex 0.935234 -1.17275 -7.5
      vertex 1.5 0 -7.5
    endloop
  endfacet
  facet normal -0.620975 0.778677 -0.0897344
    outer loop
      vertex -1.35145 0.650826 -7.5
      vertex -0.445042 1.94986 -2.5
      vertex -0.333781 1.46239 -7.5
    endloop
  endfacet
  facet normal -0.620976 0.778677 -0.089734
    outer loop
      vertex -0.445042 1.94986 -2.5
      vertex -1.35145 0.650826 -7.5
      vertex -1.80194 0.867767 -2.5
    endloop
  endfacet
  facet normal -0.620976 -0.778677 -0.089734
    outer loop
      vertex -1.35145 -0.650826 -7.5
      vertex -0.445042 -1.94986 -2.5
      vertex -1.80194 -0.867767 -2.5
    endloop
  endfacet
  facet normal -0.620975 -0.778677 -0.0897344
    outer loop
      vertex -0.445042 -1.94986 -2.5
      vertex -1.35145 -0.650826 -7.5
      vertex -0.333781 -1.46239 -7.5
    endloop
  endfacet
  facet normal 0.897334 -0.432134 -0.0897334
    outer loop
      vertex 2 0 -2.5
      vertex 1.24698 -1.56366 -2.5
      vertex 1.5 0 -7.5
    endloop
  endfacet
  facet normal 0.22162 -0.970996 -0.0897322
    outer loop
      vertex 1.24698 -1.56366 -2.5
      vertex -0.333781 -1.46239 -7.5
      vertex 0.935234 -1.17275 -7.5
    endloop
  endfacet
  facet normal -0.995966 0 -0.0897345
    outer loop
      vertex -1.35145 -0.650826 -7.5
      vertex -1.80194 0.867767 -2.5
      vertex -1.35145 0.650826 -7.5
    endloop
  endfacet
  facet normal -0.995966 -0 -0.0897345
    outer loop
      vertex -1.80194 0.867767 -2.5
      vertex -1.35145 -0.650826 -7.5
      vertex -1.80194 -0.867767 -2.5
    endloop
  endfacet
  facet normal 0 0 -1
    outer loop
      vertex 0.935234 -1.17275 -7.5
      vertex 0.935234 1.17275 -7.5
      vertex 1.5 0 -7.5
    endloop
  endfacet
  facet normal 0 0 -1
    outer loop
      vertex -0.333781 -1.46239 -7.5
      vertex 0.935234 1.17275 -7.5
      vertex 0.935234 -1.17275 -7.5
    endloop
  endfacet
  facet normal 0 0 -1
    outer loop
      vertex -0.333781 -1.46239 -7.5
      vertex -0.333781 1.46239 -7.5
      vertex 0.935234 1.17275 -7.5
    endloop
  endfacet
  facet normal 0 0 -1
    outer loop
      vertex -1.35145 -0.650826 -7.5
      vertex -0.333781 1.46239 -7.5
      vertex -0.333781 -1.46239 -7.5
    endloop
  endfacet
  facet normal 0 0 -1
    outer loop
      vertex -0.333781 1.46239 -7.5
      vertex -1.35145 -0.650826 -7.5
      vertex -1.35145 0.650826 -7.5
    endloop
  endfacet
  facet normal 0.221627 0.970994 -0.0897344
    outer loop
      vertex -0.333781 1.46239 -7.5
      vertex -0.445042 1.94986 -2.5
      vertex 1.24698 1.56366 -2.5
    endloop
  endfacet
  facet normal 0.22162 0.970996 -0.0897322
    outer loop
      vertex 0.935234 1.17275 -7.5
      vertex -0.333781 1.46239 -7.5
      vertex 1.24698 1.56366 -2.5
    endloop
  endfacet
  facet normal 0.222525 -0 0.974927
    outer loop
      vertex -0.445042 1.94986 6.94986
      vertex 1.24698 22.5 6.56366
      vertex -0.445042 22.5 6.94986
    endloop
  endfacet
  facet normal 0.222525 0 0.974927
    outer loop
      vertex 1.24698 22.5 6.56366
      vertex -0.445042 1.94986 6.94986
      vertex 1.24698 1.56366 6.56366
    endloop
  endfacet
  facet normal 0.222525 0 0.974927
    outer loop
      vertex -0.445042 -1.94986 6.94986
      vertex 1.24698 -2.5 6.56366
      vertex 1.24698 -1.56366 6.56366
    endloop
  endfacet
  facet normal 0.222525 0 0.974927
    outer loop
      vertex 1.24698 -2.5 6.56366
      vertex -0.445042 -1.94986 6.94986
      vertex -0.445042 -2.5 6.94986
    endloop
  endfacet
  facet normal 0.900969 -0 0.433884
    outer loop
      vertex 1.24698 1.56366 6.56366
      vertex 2 22.5 5
      vertex 1.24698 22.5 6.56366
    endloop
  endfacet
  facet normal 0.900969 0 0.433884
    outer loop
      vertex 2 22.5 5
      vertex 1.24698 1.56366 6.56366
      vertex 2 0 5
    endloop
  endfacet
  facet normal 0.900969 0 0.433884
    outer loop
      vertex 2 -2.5 5
      vertex 1.24698 -1.56366 6.56366
      vertex 1.24698 -2.5 6.56366
    endloop
  endfacet
  facet normal 0.900969 0 0.433884
    outer loop
      vertex 1.24698 -1.56366 6.56366
      vertex 2 -2.5 5
      vertex 2 0 5
    endloop
  endfacet
  facet normal -0.62349 0 0.781831
    outer loop
      vertex -1.80194 22.5 5.86777
      vertex -0.445042 1.94986 6.94986
      vertex -0.445042 22.5 6.94986
    endloop
  endfacet
  facet normal -0.62349 0 0.781831
    outer loop
      vertex -0.445042 1.94986 6.94986
      vertex -1.80194 22.5 5.86777
      vertex -1.80194 0.867767 5.86777
    endloop
  endfacet
  facet normal -0.62349 0 0.781831
    outer loop
      vertex -1.80194 -2.5 5.86777
      vertex -0.445042 -1.94986 6.94986
      vertex -1.80194 -0.867767 5.86777
    endloop
  endfacet
  facet normal -0.62349 0 0.781831
    outer loop
      vertex -0.445042 -1.94986 6.94986
      vertex -1.80194 -2.5 5.86777
      vertex -0.445042 -2.5 6.94986
    endloop
  endfacet
  facet normal -0.62349 0 -0.781831
    outer loop
      vertex -1.80194 -2.5 4.13223
      vertex -0.445042 -1.94986 3.05014
      vertex -0.445042 -2.5 3.05014
    endloop
  endfacet
  facet normal -0.62349 0 -0.781831
    outer loop
      vertex -0.445042 -1.94986 3.05014
      vertex -1.80194 -2.5 4.13223
      vertex -1.80194 -0.867767 4.13223
    endloop
  endfacet
  facet normal -0.62349 0 -0.781831
    outer loop
      vertex -0.445042 1.94986 3.05014
      vertex -0.809016 9.41221 3.3404
      vertex -0.445042 9.29395 3.05014
    endloop
  endfacet
  facet normal -0.62349 0 -0.781832
    outer loop
      vertex -0.809016 9.41221 3.3404
      vertex -1.80194 0.867767 4.13223
      vertex -0.809016 10.5878 3.3404
    endloop
  endfacet
  facet normal -0.62349 4.3688e-08 -0.781831
    outer loop
      vertex -1.80194 0.867767 4.13223
      vertex -0.809016 9.41221 3.3404
      vertex -0.445042 1.94986 3.05014
    endloop
  endfacet
  facet normal -0.62349 -1.03204e-07 -0.781831
    outer loop
      vertex -1.80194 22.5 4.13223
      vertex -0.445042 10.706 3.05014
      vertex -0.809016 10.5878 3.3404
    endloop
  endfacet
  facet normal -0.62349 -0 -0.781832
    outer loop
      vertex -1.80194 22.5 4.13223
      vertex -0.809016 10.5878 3.3404
      vertex -1.80194 0.867767 4.13223
    endloop
  endfacet
  facet normal -0.62349 0 -0.781831
    outer loop
      vertex -0.445042 10.706 3.05014
      vertex -1.80194 22.5 4.13223
      vertex -0.445042 22.5 3.05014
    endloop
  endfacet
  facet normal 0 -1 0
    outer loop
      vertex -1.80194 -2.5 5.86777
      vertex 1.24698 -2.5 6.56366
      vertex -0.445042 -2.5 6.94986
    endloop
  endfacet
  facet normal 0 -1 0
    outer loop
      vertex -1.80194 -2.5 5.86777
      vertex 2 -2.5 5
      vertex 1.24698 -2.5 6.56366
    endloop
  endfacet
  facet normal 0 -1 0
    outer loop
      vertex -1.80194 -2.5 4.13223
      vertex 2 -2.5 5
      vertex -1.80194 -2.5 5.86777
    endloop
  endfacet
  facet normal 0 -1 0
    outer loop
      vertex -1.80194 -2.5 4.13223
      vertex 1.24698 -2.5 3.43634
      vertex 2 -2.5 5
    endloop
  endfacet
  facet normal -0 -1 0
    outer loop
      vertex 1.24698 -2.5 3.43634
      vertex -1.80194 -2.5 4.13223
      vertex -0.445042 -2.5 3.05014
    endloop
  endfacet
  facet normal 0 1 0
    outer loop
      vertex 1.24698 22.5 6.56366
      vertex -1.80194 22.5 5.86777
      vertex -0.445042 22.5 6.94986
    endloop
  endfacet
  facet normal 0 1 0
    outer loop
      vertex 2 22.5 5
      vertex -1.80194 22.5 5.86777
      vertex 1.24698 22.5 6.56366
    endloop
  endfacet
  facet normal 0 1 0
    outer loop
      vertex 2 22.5 5
      vertex -1.80194 22.5 4.13223
      vertex -1.80194 22.5 5.86777
    endloop
  endfacet
  facet normal 0 1 -0
    outer loop
      vertex 1.24698 22.5 3.43634
      vertex -1.80194 22.5 4.13223
      vertex 2 22.5 5
    endloop
  endfacet
  facet normal 0 1 0
    outer loop
      vertex -1.80194 22.5 4.13223
      vertex 1.24698 22.5 3.43634
      vertex -0.445042 22.5 3.05014
    endloop
  endfacet
  facet normal 0.222515 0 -0.974929
    outer loop
      vertex 1.24698 1.56366 3.43634
      vertex 1 10 3.37997
      vertex 1.24698 22.5 3.43634
    endloop
  endfacet
  facet normal 0.22253 4.69037e-07 -0.974926
    outer loop
      vertex 1.24698 1.56366 3.43634
      vertex 0.309016 9.04894 3.22225
      vertex 1 10 3.37997
    endloop
  endfacet
  facet normal 0.222525 -2.60961e-07 -0.974927
    outer loop
      vertex -0.445042 1.94986 3.05014
      vertex 0.309016 9.04894 3.22225
      vertex 1.24698 1.56366 3.43634
    endloop
  endfacet
  facet normal 0.222522 0 -0.974928
    outer loop
      vertex 0.309016 9.04894 3.22225
      vertex -0.445042 1.94986 3.05014
      vertex -0.445042 9.29395 3.05014
    endloop
  endfacet
  facet normal 0.22253 -3.20593e-07 -0.974926
    outer loop
      vertex 0.309016 10.9511 3.22225
      vertex 1.24698 22.5 3.43634
      vertex 1 10 3.37997
    endloop
  endfacet
  facet normal 0.222522 0 -0.974928
    outer loop
      vertex -0.445042 22.5 3.05014
      vertex 0.309016 10.9511 3.22225
      vertex -0.445042 10.706 3.05014
    endloop
  endfacet
  facet normal 0.222525 1.64301e-07 -0.974927
    outer loop
      vertex 0.309016 10.9511 3.22225
      vertex -0.445042 22.5 3.05014
      vertex 1.24698 22.5 3.43634
    endloop
  endfacet
  facet normal 0.222525 0 -0.974927
    outer loop
      vertex -0.445042 -1.94986 3.05014
      vertex 1.24698 -2.5 3.43634
      vertex -0.445042 -2.5 3.05014
    endloop
  endfacet
  facet normal 0.222525 0 -0.974927
    outer loop
      vertex 1.24698 -2.5 3.43634
      vertex -0.445042 -1.94986 3.05014
      vertex 1.24698 -1.56366 3.43634
    endloop
  endfacet
  facet normal 0.900969 0 -0.433884
    outer loop
      vertex 2 22.5 5
      vertex 1.24698 1.56366 3.43634
      vertex 1.24698 22.5 3.43634
    endloop
  endfacet
  facet normal 0.900969 0 -0.433884
    outer loop
      vertex 1.24698 1.56366 3.43634
      vertex 2 22.5 5
      vertex 2 0 5
    endloop
  endfacet
  facet normal 0.900969 0 -0.433884
    outer loop
      vertex 2 -2.5 5
      vertex 1.24698 -1.56366 3.43634
      vertex 2 0 5
    endloop
  endfacet
  facet normal 0.900969 0 -0.433884
    outer loop
      vertex 1.24698 -1.56366 3.43634
      vertex 2 -2.5 5
      vertex 1.24698 -2.5 3.43634
    endloop
  endfacet
  facet normal -0.309012 -0.951058 -0
    outer loop
      vertex -0.809016 9.41221 3.3404
      vertex -0.809016 9.41221 -3.5
      vertex -0.445042 9.29395 3.05014
    endloop
  endfacet
  facet normal -0.309017 -0.951057 3.07872e-07
    outer loop
      vertex 0.309016 9.04894 -3.5
      vertex -0.445042 9.29395 3.05014
      vertex -0.809016 9.41221 -3.5
    endloop
  endfacet
  facet normal -0.309019 -0.951056 0
    outer loop
      vertex -0.445042 9.29395 3.05014
      vertex 0.309016 9.04894 -3.5
      vertex 0.309016 9.04894 3.22225
    endloop
  endfacet
  facet normal -0.309122 0.951023 0
    outer loop
      vertex 0.309016 10.9511 3.22225
      vertex 0.309016 10.9511 -3.5
      vertex -0.445042 10.706 3.05014
    endloop
  endfacet
  facet normal -0.30904 0.951049 1.04376e-05
    outer loop
      vertex -0.809016 10.5878 -3.5
      vertex -0.445042 10.706 3.05014
      vertex 0.309016 10.9511 -3.5
    endloop
  endfacet
  facet normal -0.30887 0.951104 0
    outer loop
      vertex -0.445042 10.706 3.05014
      vertex -0.809016 10.5878 -3.5
      vertex -0.809016 10.5878 3.3404
    endloop
  endfacet
  facet normal 0.809029 0.587768 -0
    outer loop
      vertex 1 10 -3.5
      vertex 0.309016 10.9511 3.22225
      vertex 1 10 3.37997
    endloop
  endfacet
  facet normal 0.809029 0.587768 0
    outer loop
      vertex 0.309016 10.9511 3.22225
      vertex 1 10 -3.5
      vertex 0.309016 10.9511 -3.5
    endloop
  endfacet
  facet normal -1 0 0
    outer loop
      vertex -0.809016 9.41221 -3.5
      vertex -0.809016 10.5878 3.3404
      vertex -0.809016 10.5878 -3.5
    endloop
  endfacet
  facet normal -1 -0 0
    outer loop
      vertex -0.809016 10.5878 3.3404
      vertex -0.809016 9.41221 -3.5
      vertex -0.809016 9.41221 3.3404
    endloop
  endfacet
  facet normal 0.809018 -0.587784 0
    outer loop
      vertex 0.309016 9.04894 3.22225
      vertex 1 10 -3.5
      vertex 1 10 3.37997
    endloop
  endfacet
  facet normal 0.809018 -0.587784 0
    outer loop
      vertex 1 10 -3.5
      vertex 0.309016 9.04894 3.22225
      vertex 0.309016 9.04894 -3.5
    endloop
  endfacet
  facet normal 0 0 -1
    outer loop
      vertex 0.309016 9.04894 -3.5
      vertex 0.309016 10.9511 -3.5
      vertex 1 10 -3.5
    endloop
  endfacet
  facet normal 0 0 -1
    outer loop
      vertex -0.809016 9.41221 -3.5
      vertex 0.309016 10.9511 -3.5
      vertex 0.309016 9.04894 -3.5
    endloop
  endfacet
  facet normal 0 0 -1
    outer loop
      vertex 0.309016 10.9511 -3.5
      vertex -0.809016 9.41221 -3.5
      vertex -0.809016 10.5878 -3.5
    endloop
  endfacet
endsolid OpenSCAD_Model
