solid OpenSCAD_Model
  facet normal 1 -0 0
    outer loop
      vertex 30 0 10
      vertex 30 20 0
      vertex 30 20 10
    endloop
  endfacet
  facet normal 1 0 0
    outer loop
      vertex 30 20 0
      vertex 30 0 10
      vertex 30 0 0
    endloop
  endfacet
  facet normal -0 0 1
    outer loop
      vertex 0 20 10
      vertex 10 5 10
      vertex 10 20 10
    endloop
  endfacet
  facet normal 0 0 1
    outer loop
      vertex 0 0 10
      vertex 10 5 10
      vertex 0 20 10
    endloop
  endfacet
  facet normal 0 0 1
    outer loop
      vertex 10 5 10
      vertex 0 0 10
      vertex 10 0 10
    endloop
  endfacet
  facet normal 0 0 1
    outer loop
      vertex 20 5 10
      vertex 30 20 10
      vertex 20 20 10
    endloop
  endfacet
  facet normal 0 0 1
    outer loop
      vertex 30 20 10
      vertex 20 5 10
      vertex 30 0 10
    endloop
  endfacet
  facet normal 0 0 1
    outer loop
      vertex 30 0 10
      vertex 20 5 10
      vertex 20 0 10
    endloop
  endfacet
  facet normal 0 0 -1
    outer loop
      vertex 10 0 10
      vertex 20 5 10
      vertex 20 0 10
    endloop
  endfacet
  facet normal -0 0 -1
    outer loop
      vertex 20 5 10
      vertex 10 0 10
      vertex 10 5 10
    endloop
  endfacet
  facet normal 0 0 -1
    outer loop
      vertex 10 0 0
      vertex 0 0 0
      vertex 10 5 0
    endloop
  endfacet
  facet normal 0 0 -1
    outer loop
      vertex 20 5 0
      vertex 30 0 0
      vertex 20 0 0
    endloop
  endfacet
  facet normal 0 0 -1
    outer loop
      vertex 30 0 0
      vertex 20 5 0
      vertex 30 20 0
    endloop
  endfacet
  facet normal 0 0 -1
    outer loop
      vertex 10 5 0
      vertex 30 20 0
      vertex 20 5 0
    endloop
  endfacet
  facet normal 0 0 -1
    outer loop
      vertex 0 20 0
      vertex 10 5 0
      vertex 0 0 0
    endloop
  endfacet
  facet normal 0 0 -1
    outer loop
      vertex 10 5 0
      vertex 0 20 0
      vertex 30 20 0
    endloop
  endfacet
  facet normal -1 0 0
    outer loop
      vertex 0 0 0
      vertex 0 20 10
      vertex 0 20 0
    endloop
  endfacet
  facet normal -1 -0 0
    outer loop
      vertex 0 20 10
      vertex 0 0 0
      vertex 0 0 10
    endloop
  endfacet
  facet normal 0 1 -0
    outer loop
      vertex 30 20 0
      vertex 20 20 10
      vertex 30 20 10
    endloop
  endfacet
  facet normal 0 1 0
    outer loop
      vertex 20 20 10
      vertex 30 20 0
      vertex 10 20 10
    endloop
  endfacet
  facet normal 0 1 0
    outer loop
      vertex 0 20 0
      vertex 10 20 10
      vertex 30 20 0
    endloop
  endfacet
  facet normal 0 1 0
    outer loop
      vertex 10 20 10
      vertex 0 20 0
      vertex 0 20 10
    endloop
  endfacet
  facet normal 0 1 0
    outer loop
      vertex 20 20 20
      vertex 16 20 16
      vertex 10 20 20
    endloop
  endfacet
  facet normal 0 1 0
    outer loop
      vertex 20 20 20
      vertex 16 20 14
      vertex 16 20 16
    endloop
  endfacet
  facet normal 0 1 0
    outer loop
      vertex 16 20 14
      vertex 20 20 10
      vertex 14 20 14
    endloop
  endfacet
  facet normal 0 1 -0
    outer loop
      vertex 20 20 10
      vertex 16 20 14
      vertex 20 20 20
    endloop
  endfacet
  facet normal 0 1 -0
    outer loop
      vertex 14 20 16
      vertex 10 20 20
      vertex 16 20 16
    endloop
  endfacet
  facet normal 0 1 -0
    outer loop
      vertex 14 20 14
      vertex 10 20 20
      vertex 14 20 16
    endloop
  endfacet
  facet normal 0 1 0
    outer loop
      vertex 14 20 14
      vertex 10 20 10
      vertex 10 20 20
    endloop
  endfacet
  facet normal 0 1 0
    outer loop
      vertex 10 20 10
      vertex 14 20 14
      vertex 20 20 10
    endloop
  endfacet
  facet normal 0 -1 0
    outer loop
      vertex 0 0 0
      vertex 10 0 10
      vertex 0 0 10
    endloop
  endfacet
  facet normal 0 -1 -0
    outer loop
      vertex 10 0 10
      vertex 0 0 0
      vertex 10 0 0
    endloop
  endfacet
  facet normal 0 -1 0
    outer loop
      vertex 20 0 0
      vertex 30 0 10
      vertex 20 0 10
    endloop
  endfacet
  facet normal 0 -1 -0
    outer loop
      vertex 30 0 10
      vertex 20 0 0
      vertex 30 0 0
    endloop
  endfacet
  facet normal -1 0 0
    outer loop
      vertex 20 0 0
      vertex 20 5 10
      vertex 20 5 0
    endloop
  endfacet
  facet normal -1 -0 0
    outer loop
      vertex 20 5 10
      vertex 20 0 0
      vertex 20 0 10
    endloop
  endfacet
  facet normal 1 -0 0
    outer loop
      vertex 10 0 10
      vertex 10 5 0
      vertex 10 5 10
    endloop
  endfacet
  facet normal 1 0 0
    outer loop
      vertex 10 5 0
      vertex 10 0 10
      vertex 10 0 0
    endloop
  endfacet
  facet normal 0 -1 0
    outer loop
      vertex 10 5 0
      vertex 20 5 10
      vertex 10 5 10
    endloop
  endfacet
  facet normal 0 -1 -0
    outer loop
      vertex 20 5 10
      vertex 10 5 0
      vertex 20 5 0
    endloop
  endfacet
  facet normal 1 -0 0
    outer loop
      vertex 20 15 20
      vertex 20 20 10
      vertex 20 20 20
    endloop
  endfacet
  facet normal 1 0 0
    outer loop
      vertex 20 15 20
      vertex 20 5 10
      vertex 20 20 10
    endloop
  endfacet
  facet normal 1 -0 0
    outer loop
      vertex 20 0 20
      vertex 20 5 10
      vertex 20 15 20
    endloop
  endfacet
  facet normal 1 0 0
    outer loop
      vertex 20 5 10
      vertex 20 0 20
      vertex 20 0 10
    endloop
  endfacet
  facet normal 0 0 -1
    outer loop
      vertex 20 0 20
      vertex 30 15 20
      vertex 30 0 20
    endloop
  endfacet
  facet normal -0 0 -1
    outer loop
      vertex 30 15 20
      vertex 20 0 20
      vertex 20 15 20
    endloop
  endfacet
  facet normal 0 0 -1
    outer loop
      vertex 0 0 20
      vertex 10 15 20
      vertex 10 0 20
    endloop
  endfacet
  facet normal -0 0 -1
    outer loop
      vertex 10 15 20
      vertex 0 0 20
      vertex 0 15 20
    endloop
  endfacet
  facet normal -0 0 1
    outer loop
      vertex 10 20 20
      vertex 20 15 20
      vertex 20 20 20
    endloop
  endfacet
  facet normal 0 0 1
    outer loop
      vertex 20 15 20
      vertex 10 20 20
      vertex 10 15 20
    endloop
  endfacet
  facet normal -1 0 0
    outer loop
      vertex 10 20 10
      vertex 10 15 20
      vertex 10 20 20
    endloop
  endfacet
  facet normal -1 0 0
    outer loop
      vertex 10 5 10
      vertex 10 15 20
      vertex 10 20 10
    endloop
  endfacet
  facet normal -1 0 0
    outer loop
      vertex 10 0 20
      vertex 10 5 10
      vertex 10 0 10
    endloop
  endfacet
  facet normal -1 0 0
    outer loop
      vertex 10 5 10
      vertex 10 0 20
      vertex 10 15 20
    endloop
  endfacet
  facet normal 0 -1 0
    outer loop
      vertex 0 0 30
      vertex 10 0 25
      vertex 10 0 30
    endloop
  endfacet
  facet normal 0 -1 0
    outer loop
      vertex 10 0 20
      vertex 10 0 25
      vertex 0 0 20
    endloop
  endfacet
  facet normal 0 -1 0
    outer loop
      vertex 0 0 20
      vertex 10 0 25
      vertex 0 0 30
    endloop
  endfacet
  facet normal 0 -1 0
    outer loop
      vertex 20 0 25
      vertex 30 0 30
      vertex 20 0 30
    endloop
  endfacet
  facet normal 0 -1 0
    outer loop
      vertex 10 0 25
      vertex 10 0 20
      vertex 20 0 25
    endloop
  endfacet
  facet normal 0 -1 0
    outer loop
      vertex 20 0 20
      vertex 20 0 25
      vertex 10 0 20
    endloop
  endfacet
  facet normal 0 -1 0
    outer loop
      vertex 30 0 20
      vertex 20 0 25
      vertex 20 0 20
    endloop
  endfacet
  facet normal 0 -1 0
    outer loop
      vertex 20 0 25
      vertex 30 0 20
      vertex 30 0 30
    endloop
  endfacet
  facet normal 0 -1 0
    outer loop
      vertex 10 0 20
      vertex 14 0 16
      vertex 20 0 20
    endloop
  endfacet
  facet normal 0 -1 0
    outer loop
      vertex 10 0 20
      vertex 14 0 14
      vertex 14 0 16
    endloop
  endfacet
  facet normal 0 -1 -0
    outer loop
      vertex 14 0 14
      vertex 10 0 10
      vertex 16 0 14
    endloop
  endfacet
  facet normal 0 -1 0
    outer loop
      vertex 10 0 10
      vertex 14 0 14
      vertex 10 0 20
    endloop
  endfacet
  facet normal 0 -1 0
    outer loop
      vertex 16 0 16
      vertex 20 0 20
      vertex 14 0 16
    endloop
  endfacet
  facet normal 0 -1 0
    outer loop
      vertex 16 0 14
      vertex 20 0 20
      vertex 16 0 16
    endloop
  endfacet
  facet normal 0 -1 0
    outer loop
      vertex 16 0 14
      vertex 20 0 10
      vertex 20 0 20
    endloop
  endfacet
  facet normal 0 -1 0
    outer loop
      vertex 20 0 10
      vertex 16 0 14
      vertex 10 0 10
    endloop
  endfacet
  facet normal -1 0 0
    outer loop
      vertex 16 0 14
      vertex 16 20 16
      vertex 16 20 14
    endloop
  endfacet
  facet normal -1 -0 0
    outer loop
      vertex 16 20 16
      vertex 16 0 14
      vertex 16 0 16
    endloop
  endfacet
  facet normal 0 0 -1
    outer loop
      vertex 14 0 16
      vertex 16 20 16
      vertex 16 0 16
    endloop
  endfacet
  facet normal -0 0 -1
    outer loop
      vertex 16 20 16
      vertex 14 0 16
      vertex 14 20 16
    endloop
  endfacet
  facet normal -0 0 1
    outer loop
      vertex 14 20 14
      vertex 16 0 14
      vertex 16 20 14
    endloop
  endfacet
  facet normal 0 0 1
    outer loop
      vertex 16 0 14
      vertex 14 20 14
      vertex 14 0 14
    endloop
  endfacet
  facet normal 1 -0 0
    outer loop
      vertex 14 0 16
      vertex 14 20 14
      vertex 14 20 16
    endloop
  endfacet
  facet normal 1 0 0
    outer loop
      vertex 14 20 14
      vertex 14 0 16
      vertex 14 0 14
    endloop
  endfacet
  facet normal 1 0 0
    outer loop
      vertex 30 20 30
      vertex 30 15 25
      vertex 30 20 25
    endloop
  endfacet
  facet normal 1 -0 0
    outer loop
      vertex 30 0 30
      vertex 30 15 25
      vertex 30 20 30
    endloop
  endfacet
  facet normal 1 0 0
    outer loop
      vertex 30 0 20
      vertex 30 15 25
      vertex 30 0 30
    endloop
  endfacet
  facet normal 1 0 0
    outer loop
      vertex 30 15 25
      vertex 30 0 20
      vertex 30 15 20
    endloop
  endfacet
  facet normal 0 0 -1
    outer loop
      vertex 20 15 25
      vertex 30 20 25
      vertex 30 15 25
    endloop
  endfacet
  facet normal -0 0 -1
    outer loop
      vertex 30 20 25
      vertex 20 15 25
      vertex 20 20 25
    endloop
  endfacet
  facet normal -0 0 1
    outer loop
      vertex 10 15 25
      vertex 20 0 25
      vertex 20 15 25
    endloop
  endfacet
  facet normal 0 0 1
    outer loop
      vertex 20 0 25
      vertex 10 15 25
      vertex 10 0 25
    endloop
  endfacet
  facet normal 0 0 -1
    outer loop
      vertex 0 15 25
      vertex 10 20 25
      vertex 10 15 25
    endloop
  endfacet
  facet normal -0 0 -1
    outer loop
      vertex 10 20 25
      vertex 0 15 25
      vertex 0 20 25
    endloop
  endfacet
  facet normal -1 0 0
    outer loop
      vertex 0 15 20
      vertex 0 0 20
      vertex 0 15 25
    endloop
  endfacet
  facet normal -1 0 0
    outer loop
      vertex 0 15 25
      vertex 0 20 30
      vertex 0 20 25
    endloop
  endfacet
  facet normal -1 0 0
    outer loop
      vertex 0 0 30
      vertex 0 15 25
      vertex 0 0 20
    endloop
  endfacet
  facet normal -1 0 0
    outer loop
      vertex 0 15 25
      vertex 0 0 30
      vertex 0 20 30
    endloop
  endfacet
  facet normal 0 1 0
    outer loop
      vertex 20 15 20
      vertex 20 15 25
      vertex 30 15 25
    endloop
  endfacet
  facet normal 0 1 0
    outer loop
      vertex 20 15 25
      vertex 20 15 20
      vertex 10 15 25
    endloop
  endfacet
  facet normal 0 1 0
    outer loop
      vertex 20 15 20
      vertex 30 15 25
      vertex 30 15 20
    endloop
  endfacet
  facet normal 0 1 0
    outer loop
      vertex 10 15 20
      vertex 10 15 25
      vertex 20 15 20
    endloop
  endfacet
  facet normal 0 1 0
    outer loop
      vertex 10 15 25
      vertex 10 15 20
      vertex 0 15 25
    endloop
  endfacet
  facet normal 0 1 0
    outer loop
      vertex 0 15 25
      vertex 10 15 20
      vertex 0 15 20
    endloop
  endfacet
  facet normal 1 0 0
    outer loop
      vertex 10 20 30
      vertex 10 15 25
      vertex 10 20 25
    endloop
  endfacet
  facet normal 1 -0 0
    outer loop
      vertex 10 0 30
      vertex 10 15 25
      vertex 10 20 30
    endloop
  endfacet
  facet normal 1 0 0
    outer loop
      vertex 10 15 25
      vertex 10 0 30
      vertex 10 0 25
    endloop
  endfacet
  facet normal -0 0 1
    outer loop
      vertex 0 20 30
      vertex 10 0 30
      vertex 10 20 30
    endloop
  endfacet
  facet normal 0 0 1
    outer loop
      vertex 10 0 30
      vertex 0 20 30
      vertex 0 0 30
    endloop
  endfacet
  facet normal 0 1 -0
    outer loop
      vertex 10 20 25
      vertex 0 20 30
      vertex 10 20 30
    endloop
  endfacet
  facet normal 0 1 0
    outer loop
      vertex 0 20 30
      vertex 10 20 25
      vertex 0 20 25
    endloop
  endfacet
  facet normal -0 0 1
    outer loop
      vertex 20 20 30
      vertex 30 0 30
      vertex 30 20 30
    endloop
  endfacet
  facet normal 0 0 1
    outer loop
      vertex 30 0 30
      vertex 20 20 30
      vertex 20 0 30
    endloop
  endfacet
  facet normal -1 0 0
    outer loop
      vertex 20 15 25
      vertex 20 20 30
      vertex 20 20 25
    endloop
  endfacet
  facet normal -1 0 0
    outer loop
      vertex 20 0 30
      vertex 20 15 25
      vertex 20 0 25
    endloop
  endfacet
  facet normal -1 0 0
    outer loop
      vertex 20 15 25
      vertex 20 0 30
      vertex 20 20 30
    endloop
  endfacet
  facet normal 0 1 -0
    outer loop
      vertex 30 20 25
      vertex 20 20 30
      vertex 30 20 30
    endloop
  endfacet
  facet normal 0 1 0
    outer loop
      vertex 20 20 30
      vertex 30 20 25
      vertex 20 20 25
    endloop
  endfacet
endsolid OpenSCAD_Model
