solid OpenSCAD_Model
  facet normal 0.382682 0.92388 -0
    outer loop
      vertex 10 7.5 0
      vertex 8.23223 8.23223 5
      vertex 10 7.5 5
    endloop
  endfacet
  facet normal 0.382682 0.92388 0
    outer loop
      vertex 8.23223 8.23223 5
      vertex 10 7.5 0
      vertex 8.23223 8.23223 0
    endloop
  endfacet
  facet normal -0.382663 -0.923888 0
    outer loop
      vertex 10 12.5 0
      vertex 11.7678 11.7678 5
      vertex 10 12.5 5
    endloop
  endfacet
  facet normal -0.382663 -0.923888 -0
    outer loop
      vertex 11.7678 11.7678 5
      vertex 10 12.5 0
      vertex 11.7678 11.7678 0
    endloop
  endfacet
  facet normal -0.923888 -0.382663 0
    outer loop
      vertex 12.5 10 0
      vertex 11.7678 11.7678 5
      vertex 11.7678 11.7678 0
    endloop
  endfacet
  facet normal -0.923888 -0.382663 0
    outer loop
      vertex 11.7678 11.7678 5
      vertex 12.5 10 0
      vertex 12.5 10 5
    endloop
  endfacet
  facet normal 0.382668 -0.923886 0
    outer loop
      vertex 8.23223 11.7678 0
      vertex 10 12.5 5
      vertex 8.23223 11.7678 5
    endloop
  endfacet
  facet normal 0.382668 -0.923886 0
    outer loop
      vertex 10 12.5 5
      vertex 8.23223 11.7678 0
      vertex 10 12.5 0
    endloop
  endfacet
  facet normal -0.382676 0.923883 0
    outer loop
      vertex 11.7678 8.23223 0
      vertex 10 7.5 5
      vertex 11.7678 8.23223 5
    endloop
  endfacet
  facet normal -0.382676 0.923883 0
    outer loop
      vertex 10 7.5 5
      vertex 11.7678 8.23223 0
      vertex 10 7.5 0
    endloop
  endfacet
  facet normal -0.923886 0.382668 0
    outer loop
      vertex 11.7678 8.23223 0
      vertex 12.5 10 5
      vertex 12.5 10 0
    endloop
  endfacet
  facet normal -0.923886 0.382668 0
    outer loop
      vertex 12.5 10 5
      vertex 11.7678 8.23223 0
      vertex 11.7678 8.23223 5
    endloop
  endfacet
  facet normal 0.92388 0.382682 0
    outer loop
      vertex 8.23223 8.23223 5
      vertex 7.5 10 0
      vertex 7.5 10 5
    endloop
  endfacet
  facet normal 0.92388 0.382682 0
    outer loop
      vertex 7.5 10 0
      vertex 8.23223 8.23223 5
      vertex 8.23223 8.23223 0
    endloop
  endfacet
  facet normal 0.923883 -0.382676 0
    outer loop
      vertex 7.5 10 5
      vertex 8.23223 11.7678 0
      vertex 8.23223 11.7678 5
    endloop
  endfacet
  facet normal 0.923883 -0.382676 0
    outer loop
      vertex 8.23223 11.7678 0
      vertex 7.5 10 5
      vertex 7.5 10 0
    endloop
  endfacet
  facet normal 0 0 1
    outer loop
      vertex 25.3806 31.9134 5
      vertex 10 47.5 5
      vertex 25 30 5
    endloop
  endfacet
  facet normal 0 0 1
    outer loop
      vertex 25 30 5
      vertex 11.7678 11.7678 5
      vertex 12.5 10 5
    endloop
  endfacet
  facet normal 0 0 1
    outer loop
      vertex 10 12.5 5
      vertex 25 30 5
      vertex 10 47.5 5
    endloop
  endfacet
  facet normal 0 0 1
    outer loop
      vertex 25 30 5
      vertex 10 12.5 5
      vertex 11.7678 11.7678 5
    endloop
  endfacet
  facet normal 0 0 1
    outer loop
      vertex 8.23223 48.2322 5
      vertex 10 12.5 5
      vertex 10 47.5 5
    endloop
  endfacet
  facet normal 0 0 1
    outer loop
      vertex 8.23223 48.2322 5
      vertex 8.23223 11.7678 5
      vertex 10 12.5 5
    endloop
  endfacet
  facet normal 0 0 1
    outer loop
      vertex 7.5 50 5
      vertex 8.23223 11.7678 5
      vertex 8.23223 48.2322 5
    endloop
  endfacet
  facet normal 0 0 1
    outer loop
      vertex 8.23223 11.7678 5
      vertex 7.5 50 5
      vertex 7.5 10 5
    endloop
  endfacet
  facet normal -0 0 1
    outer loop
      vertex 51.7678 11.7678 5
      vertex 60 0 5
      vertex 51.7678 48.2322 5
    endloop
  endfacet
  facet normal 0 0 1
    outer loop
      vertex 60 0 5
      vertex 51.7678 11.7678 5
      vertex 52.5 10 5
    endloop
  endfacet
  facet normal -0 0 1
    outer loop
      vertex 50 47.5 5
      vertex 51.7678 11.7678 5
      vertex 51.7678 48.2322 5
    endloop
  endfacet
  facet normal 0 0 1
    outer loop
      vertex 50 47.5 5
      vertex 50 12.5 5
      vertex 51.7678 11.7678 5
    endloop
  endfacet
  facet normal 0 0 1
    outer loop
      vertex 34.6194 31.9134 5
      vertex 50 47.5 5
      vertex 48.2322 48.2322 5
    endloop
  endfacet
  facet normal 0 0 1
    outer loop
      vertex 50 47.5 5
      vertex 35 30 5
      vertex 50 12.5 5
    endloop
  endfacet
  facet normal 0 0 1
    outer loop
      vertex 31.9134 34.6194 5
      vertex 48.2322 48.2322 5
      vertex 47.5 50 5
    endloop
  endfacet
  facet normal -0 0 1
    outer loop
      vertex 34.6194 28.0866 5
      vertex 50 12.5 5
      vertex 35 30 5
    endloop
  endfacet
  facet normal 0 0 1
    outer loop
      vertex 51.7678 48.2322 5
      vertex 60 60 5
      vertex 52.5 50 5
    endloop
  endfacet
  facet normal 0 0 1
    outer loop
      vertex 60 60 5
      vertex 51.7678 51.7678 5
      vertex 52.5 50 5
    endloop
  endfacet
  facet normal 0 0 1
    outer loop
      vertex 60 60 5
      vertex 50 52.5 5
      vertex 51.7678 51.7678 5
    endloop
  endfacet
  facet normal 0 0 1
    outer loop
      vertex 60 60 5
      vertex 48.2322 51.7678 5
      vertex 50 52.5 5
    endloop
  endfacet
  facet normal 0 0 1
    outer loop
      vertex 50 12.5 5
      vertex 34.6194 28.0866 5
      vertex 48.2322 11.7678 5
    endloop
  endfacet
  facet normal 0 0 1
    outer loop
      vertex 12.5 50 5
      vertex 47.5 50 5
      vertex 48.2322 51.7678 5
    endloop
  endfacet
  facet normal 0 0 1
    outer loop
      vertex 50 47.5 5
      vertex 34.6194 31.9134 5
      vertex 35 30 5
    endloop
  endfacet
  facet normal 0 0 1
    outer loop
      vertex 48.2322 48.2322 5
      vertex 33.5355 33.5355 5
      vertex 34.6194 31.9134 5
    endloop
  endfacet
  facet normal 0 0 1
    outer loop
      vertex 48.2322 48.2322 5
      vertex 31.9134 34.6194 5
      vertex 33.5355 33.5355 5
    endloop
  endfacet
  facet normal 0 0 1
    outer loop
      vertex 47.5 50 5
      vertex 30 35 5
      vertex 31.9134 34.6194 5
    endloop
  endfacet
  facet normal 0 0 1
    outer loop
      vertex 47.5 50 5
      vertex 12.5 50 5
      vertex 30 35 5
    endloop
  endfacet
  facet normal 0 0 1
    outer loop
      vertex 30 35 5
      vertex 12.5 50 5
      vertex 28.0866 34.6194 5
    endloop
  endfacet
  facet normal 0 0 1
    outer loop
      vertex 26.4645 33.5355 5
      vertex 11.7678 48.2322 5
      vertex 25.3806 31.9134 5
    endloop
  endfacet
  facet normal 0 0 1
    outer loop
      vertex 28.0866 34.6194 5
      vertex 11.7678 48.2322 5
      vertex 26.4645 33.5355 5
    endloop
  endfacet
  facet normal -0 0 1
    outer loop
      vertex 11.7678 48.2322 5
      vertex 28.0866 34.6194 5
      vertex 12.5 50 5
    endloop
  endfacet
  facet normal -0 0 1
    outer loop
      vertex 5 60 5
      vertex 48.2322 51.7678 5
      vertex 60 60 5
    endloop
  endfacet
  facet normal 0 0 1
    outer loop
      vertex 48.2322 51.7678 5
      vertex 11.7678 51.7678 5
      vertex 12.5 50 5
    endloop
  endfacet
  facet normal 0 0 1
    outer loop
      vertex 48.2322 51.7678 5
      vertex 5 60 5
      vertex 11.7678 51.7678 5
    endloop
  endfacet
  facet normal 0 0 1
    outer loop
      vertex 7.5 50 5
      vertex 5 60 5
      vertex 7.5 10 5
    endloop
  endfacet
  facet normal 0 0 1
    outer loop
      vertex 8.23223 51.7678 5
      vertex 5 60 5
      vertex 7.5 50 5
    endloop
  endfacet
  facet normal 0 0 1
    outer loop
      vertex 10 52.5 5
      vertex 5 60 5
      vertex 8.23223 51.7678 5
    endloop
  endfacet
  facet normal 0 0 1
    outer loop
      vertex 11.7678 51.7678 5
      vertex 5 60 5
      vertex 10 52.5 5
    endloop
  endfacet
  facet normal 0 0 1
    outer loop
      vertex 60 60 5
      vertex 51.7678 48.2322 5
      vertex 60 0 5
    endloop
  endfacet
  facet normal -0 0 1
    outer loop
      vertex 51.7678 8.23223 5
      vertex 60 0 5
      vertex 52.5 10 5
    endloop
  endfacet
  facet normal -0 0 1
    outer loop
      vertex 50 7.5 5
      vertex 60 0 5
      vertex 51.7678 8.23223 5
    endloop
  endfacet
  facet normal 0 0 1
    outer loop
      vertex 48.2322 8.23223 5
      vertex 60 0 5
      vertex 50 7.5 5
    endloop
  endfacet
  facet normal -0 0 1
    outer loop
      vertex 33.5355 26.4645 5
      vertex 48.2322 11.7678 5
      vertex 34.6194 28.0866 5
    endloop
  endfacet
  facet normal -0 0 1
    outer loop
      vertex 31.9134 25.3806 5
      vertex 48.2322 11.7678 5
      vertex 33.5355 26.4645 5
    endloop
  endfacet
  facet normal 0 0 1
    outer loop
      vertex 48.2322 11.7678 5
      vertex 31.9134 25.3806 5
      vertex 47.5 10 5
    endloop
  endfacet
  facet normal -0 0 1
    outer loop
      vertex 30 25 5
      vertex 47.5 10 5
      vertex 31.9134 25.3806 5
    endloop
  endfacet
  facet normal 0 0 1
    outer loop
      vertex 12.5 10 5
      vertex 47.5 10 5
      vertex 30 25 5
    endloop
  endfacet
  facet normal 0 0 1
    outer loop
      vertex 12.5 10 5
      vertex 30 25 5
      vertex 28.0866 25.3806 5
    endloop
  endfacet
  facet normal 0 0 1
    outer loop
      vertex 12.5 10 5
      vertex 28.0866 25.3806 5
      vertex 26.4645 26.4645 5
    endloop
  endfacet
  facet normal -0 0 1
    outer loop
      vertex 10 47.5 5
      vertex 25.3806 31.9134 5
      vertex 11.7678 48.2322 5
    endloop
  endfacet
  facet normal 0 0 1
    outer loop
      vertex 25 30 5
      vertex 12.5 10 5
      vertex 25.3806 28.0866 5
    endloop
  endfacet
  facet normal 0 0 1
    outer loop
      vertex 12.5 10 5
      vertex 26.4645 26.4645 5
      vertex 25.3806 28.0866 5
    endloop
  endfacet
  facet normal 0 0 1
    outer loop
      vertex 47.5 10 5
      vertex 12.5 10 5
      vertex 48.2322 8.23223 5
    endloop
  endfacet
  facet normal 0 0 1
    outer loop
      vertex 11.7678 8.23223 5
      vertex 48.2322 8.23223 5
      vertex 12.5 10 5
    endloop
  endfacet
  facet normal 0 0 1
    outer loop
      vertex 5 0 5
      vertex 48.2322 8.23223 5
      vertex 11.7678 8.23223 5
    endloop
  endfacet
  facet normal 0 0 1
    outer loop
      vertex 5 0 5
      vertex 11.7678 8.23223 5
      vertex 10 7.5 5
    endloop
  endfacet
  facet normal 0 0 1
    outer loop
      vertex 48.2322 8.23223 5
      vertex 5 0 5
      vertex 60 0 5
    endloop
  endfacet
  facet normal 0 0 1
    outer loop
      vertex 8.23223 8.23223 5
      vertex 5 0 5
      vertex 10 7.5 5
    endloop
  endfacet
  facet normal 0 0 1
    outer loop
      vertex 7.5 10 5
      vertex 5 0 5
      vertex 8.23223 8.23223 5
    endloop
  endfacet
  facet normal 0 0 1
    outer loop
      vertex 5 0 5
      vertex 7.5 10 5
      vertex 5 60 5
    endloop
  endfacet
  facet normal 0.382668 0.923886 -0
    outer loop
      vertex 10 47.5 0
      vertex 8.23223 48.2322 5
      vertex 10 47.5 5
    endloop
  endfacet
  facet normal 0.382668 0.923886 0
    outer loop
      vertex 8.23223 48.2322 5
      vertex 10 47.5 0
      vertex 8.23223 48.2322 0
    endloop
  endfacet
  facet normal -0.382663 -0.923888 0
    outer loop
      vertex 10 52.5 0
      vertex 11.7678 51.7678 5
      vertex 10 52.5 5
    endloop
  endfacet
  facet normal -0.382663 -0.923888 -0
    outer loop
      vertex 11.7678 51.7678 5
      vertex 10 52.5 0
      vertex 11.7678 51.7678 0
    endloop
  endfacet
  facet normal -0.923888 -0.382663 0
    outer loop
      vertex 12.5 50 0
      vertex 11.7678 51.7678 5
      vertex 11.7678 51.7678 0
    endloop
  endfacet
  facet normal -0.923888 -0.382663 0
    outer loop
      vertex 11.7678 51.7678 5
      vertex 12.5 50 0
      vertex 12.5 50 5
    endloop
  endfacet
  facet normal 0.382668 -0.923886 0
    outer loop
      vertex 8.23223 51.7678 0
      vertex 10 52.5 5
      vertex 8.23223 51.7678 5
    endloop
  endfacet
  facet normal 0.382668 -0.923886 0
    outer loop
      vertex 10 52.5 5
      vertex 8.23223 51.7678 0
      vertex 10 52.5 0
    endloop
  endfacet
  facet normal -0.382663 0.923888 0
    outer loop
      vertex 11.7678 48.2322 0
      vertex 10 47.5 5
      vertex 11.7678 48.2322 5
    endloop
  endfacet
  facet normal -0.382663 0.923888 0
    outer loop
      vertex 10 47.5 5
      vertex 11.7678 48.2322 0
      vertex 10 47.5 0
    endloop
  endfacet
  facet normal -0.923888 0.382663 0
    outer loop
      vertex 11.7678 48.2322 0
      vertex 12.5 50 5
      vertex 12.5 50 0
    endloop
  endfacet
  facet normal -0.923888 0.382663 0
    outer loop
      vertex 12.5 50 5
      vertex 11.7678 48.2322 0
      vertex 11.7678 48.2322 5
    endloop
  endfacet
  facet normal 0.923883 0.382676 0
    outer loop
      vertex 8.23223 48.2322 5
      vertex 7.5 50 0
      vertex 7.5 50 5
    endloop
  endfacet
  facet normal 0.923883 0.382676 0
    outer loop
      vertex 7.5 50 0
      vertex 8.23223 48.2322 5
      vertex 8.23223 48.2322 0
    endloop
  endfacet
  facet normal 0.923883 -0.382676 0
    outer loop
      vertex 7.5 50 5
      vertex 8.23223 51.7678 0
      vertex 8.23223 51.7678 5
    endloop
  endfacet
  facet normal 0.923883 -0.382676 0
    outer loop
      vertex 8.23223 51.7678 0
      vertex 7.5 50 5
      vertex 7.5 50 0
    endloop
  endfacet
  facet normal 0.382676 0.923883 -0
    outer loop
      vertex 50 7.5 0
      vertex 48.2322 8.23223 5
      vertex 50 7.5 5
    endloop
  endfacet
  facet normal 0.382676 0.923883 0
    outer loop
      vertex 48.2322 8.23223 5
      vertex 50 7.5 0
      vertex 48.2322 8.23223 0
    endloop
  endfacet
  facet normal -0.382663 -0.923888 0
    outer loop
      vertex 50 12.5 0
      vertex 51.7678 11.7678 5
      vertex 50 12.5 5
    endloop
  endfacet
  facet normal -0.382663 -0.923888 -0
    outer loop
      vertex 51.7678 11.7678 5
      vertex 50 12.5 0
      vertex 51.7678 11.7678 0
    endloop
  endfacet
  facet normal -0.923888 -0.382663 0
    outer loop
      vertex 52.5 10 0
      vertex 51.7678 11.7678 5
      vertex 51.7678 11.7678 0
    endloop
  endfacet
  facet normal -0.923888 -0.382663 0
    outer loop
      vertex 51.7678 11.7678 5
      vertex 52.5 10 0
      vertex 52.5 10 5
    endloop
  endfacet
  facet normal 0.382663 -0.923888 0
    outer loop
      vertex 48.2322 11.7678 0
      vertex 50 12.5 5
      vertex 48.2322 11.7678 5
    endloop
  endfacet
  facet normal 0.382663 -0.923888 0
    outer loop
      vertex 50 12.5 5
      vertex 48.2322 11.7678 0
      vertex 50 12.5 0
    endloop
  endfacet
  facet normal -0.382676 0.923883 0
    outer loop
      vertex 51.7678 8.23223 0
      vertex 50 7.5 5
      vertex 51.7678 8.23223 5
    endloop
  endfacet
  facet normal -0.382676 0.923883 0
    outer loop
      vertex 50 7.5 5
      vertex 51.7678 8.23223 0
      vertex 50 7.5 0
    endloop
  endfacet
  facet normal -0.923886 0.382668 0
    outer loop
      vertex 51.7678 8.23223 0
      vertex 52.5 10 5
      vertex 52.5 10 0
    endloop
  endfacet
  facet normal -0.923886 0.382668 0
    outer loop
      vertex 52.5 10 5
      vertex 51.7678 8.23223 0
      vertex 51.7678 8.23223 5
    endloop
  endfacet
  facet normal 0.923886 0.382668 0
    outer loop
      vertex 48.2322 8.23223 5
      vertex 47.5 10 0
      vertex 47.5 10 5
    endloop
  endfacet
  facet normal 0.923886 0.382668 0
    outer loop
      vertex 47.5 10 0
      vertex 48.2322 8.23223 5
      vertex 48.2322 8.23223 0
    endloop
  endfacet
  facet normal 0.923888 -0.382663 0
    outer loop
      vertex 47.5 10 5
      vertex 48.2322 11.7678 0
      vertex 48.2322 11.7678 5
    endloop
  endfacet
  facet normal 0.923888 -0.382663 0
    outer loop
      vertex 48.2322 11.7678 0
      vertex 47.5 10 5
      vertex 47.5 10 0
    endloop
  endfacet
  facet normal 0.382663 0.923888 -0
    outer loop
      vertex 50 47.5 0
      vertex 48.2322 48.2322 5
      vertex 50 47.5 5
    endloop
  endfacet
  facet normal 0.382663 0.923888 0
    outer loop
      vertex 48.2322 48.2322 5
      vertex 50 47.5 0
      vertex 48.2322 48.2322 0
    endloop
  endfacet
  facet normal -0.382663 -0.923888 0
    outer loop
      vertex 50 52.5 0
      vertex 51.7678 51.7678 5
      vertex 50 52.5 5
    endloop
  endfacet
  facet normal -0.382663 -0.923888 -0
    outer loop
      vertex 51.7678 51.7678 5
      vertex 50 52.5 0
      vertex 51.7678 51.7678 0
    endloop
  endfacet
  facet normal -0.923888 -0.382663 0
    outer loop
      vertex 52.5 50 0
      vertex 51.7678 51.7678 5
      vertex 51.7678 51.7678 0
    endloop
  endfacet
  facet normal -0.923888 -0.382663 0
    outer loop
      vertex 51.7678 51.7678 5
      vertex 52.5 50 0
      vertex 52.5 50 5
    endloop
  endfacet
  facet normal 0.382663 -0.923888 0
    outer loop
      vertex 48.2322 51.7678 0
      vertex 50 52.5 5
      vertex 48.2322 51.7678 5
    endloop
  endfacet
  facet normal 0.382663 -0.923888 0
    outer loop
      vertex 50 52.5 5
      vertex 48.2322 51.7678 0
      vertex 50 52.5 0
    endloop
  endfacet
  facet normal -0.382663 0.923888 0
    outer loop
      vertex 51.7678 48.2322 0
      vertex 50 47.5 5
      vertex 51.7678 48.2322 5
    endloop
  endfacet
  facet normal -0.382663 0.923888 0
    outer loop
      vertex 50 47.5 5
      vertex 51.7678 48.2322 0
      vertex 50 47.5 0
    endloop
  endfacet
  facet normal -0.923888 0.382663 0
    outer loop
      vertex 51.7678 48.2322 0
      vertex 52.5 50 5
      vertex 52.5 50 0
    endloop
  endfacet
  facet normal -0.923888 0.382663 0
    outer loop
      vertex 52.5 50 5
      vertex 51.7678 48.2322 0
      vertex 51.7678 48.2322 5
    endloop
  endfacet
  facet normal 0.923888 0.382663 0
    outer loop
      vertex 48.2322 48.2322 5
      vertex 47.5 50 0
      vertex 47.5 50 5
    endloop
  endfacet
  facet normal 0.923888 0.382663 0
    outer loop
      vertex 47.5 50 0
      vertex 48.2322 48.2322 5
      vertex 48.2322 48.2322 0
    endloop
  endfacet
  facet normal 0.923888 -0.382663 0
    outer loop
      vertex 47.5 50 5
      vertex 48.2322 51.7678 0
      vertex 48.2322 51.7678 5
    endloop
  endfacet
  facet normal 0.923888 -0.382663 0
    outer loop
      vertex 48.2322 51.7678 0
      vertex 47.5 50 5
      vertex 47.5 50 0
    endloop
  endfacet
  facet normal 1 -0 0
    outer loop
      vertex 60 0 5
      vertex 60 60 0
      vertex 60 60 5
    endloop
  endfacet
  facet normal 1 0 0
    outer loop
      vertex 60 60 0
      vertex 60 0 5
      vertex 60 0 0
    endloop
  endfacet
  facet normal -0 0 -1
    outer loop
      vertex 25.3806 28.0866 0
      vertex 10 12.5 0
      vertex 25 30 0
    endloop
  endfacet
  facet normal 0 0 -1
    outer loop
      vertex 25 30 0
      vertex 11.7678 48.2322 0
      vertex 12.5 50 0
    endloop
  endfacet
  facet normal 0 0 -1
    outer loop
      vertex 10 47.5 0
      vertex 25 30 0
      vertex 10 12.5 0
    endloop
  endfacet
  facet normal 0 0 -1
    outer loop
      vertex 25 30 0
      vertex 10 47.5 0
      vertex 11.7678 48.2322 0
    endloop
  endfacet
  facet normal 0 0 -1
    outer loop
      vertex 8.23223 11.7678 0
      vertex 10 47.5 0
      vertex 10 12.5 0
    endloop
  endfacet
  facet normal 0 0 -1
    outer loop
      vertex 8.23223 11.7678 0
      vertex 8.23223 48.2322 0
      vertex 10 47.5 0
    endloop
  endfacet
  facet normal 0 0 -1
    outer loop
      vertex 0 0 0
      vertex 8.23223 11.7678 0
      vertex 7.5 10 0
    endloop
  endfacet
  facet normal -0 0 -1
    outer loop
      vertex 8.23223 11.7678 0
      vertex 0 0 0
      vertex 8.23223 48.2322 0
    endloop
  endfacet
  facet normal 0 0 -1
    outer loop
      vertex 51.7678 48.2322 0
      vertex 60 60 0
      vertex 51.7678 11.7678 0
    endloop
  endfacet
  facet normal 0 0 -1
    outer loop
      vertex 60 60 0
      vertex 51.7678 48.2322 0
      vertex 52.5 50 0
    endloop
  endfacet
  facet normal 0 0 -1
    outer loop
      vertex 50 12.5 0
      vertex 51.7678 48.2322 0
      vertex 51.7678 11.7678 0
    endloop
  endfacet
  facet normal 0 0 -1
    outer loop
      vertex 50 12.5 0
      vertex 50 47.5 0
      vertex 51.7678 48.2322 0
    endloop
  endfacet
  facet normal 0 0 -1
    outer loop
      vertex 34.6194 28.0866 0
      vertex 50 12.5 0
      vertex 48.2322 11.7678 0
    endloop
  endfacet
  facet normal 0 0 -1
    outer loop
      vertex 50 12.5 0
      vertex 35 30 0
      vertex 50 47.5 0
    endloop
  endfacet
  facet normal 0 0 -1
    outer loop
      vertex 31.9134 25.3806 0
      vertex 48.2322 11.7678 0
      vertex 47.5 10 0
    endloop
  endfacet
  facet normal 0 0 -1
    outer loop
      vertex 34.6194 31.9134 0
      vertex 50 47.5 0
      vertex 35 30 0
    endloop
  endfacet
  facet normal 0 0 -1
    outer loop
      vertex 51.7678 11.7678 0
      vertex 60 0 0
      vertex 52.5 10 0
    endloop
  endfacet
  facet normal 0 0 -1
    outer loop
      vertex 60 0 0
      vertex 51.7678 8.23223 0
      vertex 52.5 10 0
    endloop
  endfacet
  facet normal 0 0 -1
    outer loop
      vertex 60 0 0
      vertex 50 7.5 0
      vertex 51.7678 8.23223 0
    endloop
  endfacet
  facet normal 0 0 -1
    outer loop
      vertex 60 0 0
      vertex 48.2322 8.23223 0
      vertex 50 7.5 0
    endloop
  endfacet
  facet normal -0 0 -1
    outer loop
      vertex 50 47.5 0
      vertex 34.6194 31.9134 0
      vertex 48.2322 48.2322 0
    endloop
  endfacet
  facet normal 0 0 -1
    outer loop
      vertex 12.5 10 0
      vertex 47.5 10 0
      vertex 48.2322 8.23223 0
    endloop
  endfacet
  facet normal 0 0 -1
    outer loop
      vertex 50 12.5 0
      vertex 34.6194 28.0866 0
      vertex 35 30 0
    endloop
  endfacet
  facet normal 0 0 -1
    outer loop
      vertex 48.2322 11.7678 0
      vertex 33.5355 26.4645 0
      vertex 34.6194 28.0866 0
    endloop
  endfacet
  facet normal 0 0 -1
    outer loop
      vertex 48.2322 11.7678 0
      vertex 31.9134 25.3806 0
      vertex 33.5355 26.4645 0
    endloop
  endfacet
  facet normal 0 0 -1
    outer loop
      vertex 47.5 10 0
      vertex 30 25 0
      vertex 31.9134 25.3806 0
    endloop
  endfacet
  facet normal 0 0 -1
    outer loop
      vertex 47.5 10 0
      vertex 12.5 10 0
      vertex 30 25 0
    endloop
  endfacet
  facet normal -0 0 -1
    outer loop
      vertex 30 25 0
      vertex 12.5 10 0
      vertex 28.0866 25.3806 0
    endloop
  endfacet
  facet normal -0 0 -1
    outer loop
      vertex 26.4645 26.4645 0
      vertex 11.7678 11.7678 0
      vertex 25.3806 28.0866 0
    endloop
  endfacet
  facet normal -0 0 -1
    outer loop
      vertex 28.0866 25.3806 0
      vertex 11.7678 11.7678 0
      vertex 26.4645 26.4645 0
    endloop
  endfacet
  facet normal 0 0 -1
    outer loop
      vertex 11.7678 11.7678 0
      vertex 28.0866 25.3806 0
      vertex 12.5 10 0
    endloop
  endfacet
  facet normal 0 0 -1
    outer loop
      vertex 11.7678 8.23223 0
      vertex 48.2322 8.23223 0
      vertex 60 0 0
    endloop
  endfacet
  facet normal 0 0 -1
    outer loop
      vertex 48.2322 8.23223 0
      vertex 11.7678 8.23223 0
      vertex 12.5 10 0
    endloop
  endfacet
  facet normal 0 0 -1
    outer loop
      vertex 0 0 0
      vertex 11.7678 8.23223 0
      vertex 60 0 0
    endloop
  endfacet
  facet normal 0 0 -1
    outer loop
      vertex 0 60 0
      vertex 8.23223 48.2322 0
      vertex 0 0 0
    endloop
  endfacet
  facet normal -0 0 -1
    outer loop
      vertex 8.23223 8.23223 0
      vertex 0 0 0
      vertex 7.5 10 0
    endloop
  endfacet
  facet normal -0 0 -1
    outer loop
      vertex 10 7.5 0
      vertex 0 0 0
      vertex 8.23223 8.23223 0
    endloop
  endfacet
  facet normal 0 0 -1
    outer loop
      vertex 11.7678 8.23223 0
      vertex 0 0 0
      vertex 10 7.5 0
    endloop
  endfacet
  facet normal 0 0 -1
    outer loop
      vertex 60 0 0
      vertex 51.7678 11.7678 0
      vertex 60 60 0
    endloop
  endfacet
  facet normal 0 0 -1
    outer loop
      vertex 51.7678 51.7678 0
      vertex 60 60 0
      vertex 52.5 50 0
    endloop
  endfacet
  facet normal 0 0 -1
    outer loop
      vertex 50 52.5 0
      vertex 60 60 0
      vertex 51.7678 51.7678 0
    endloop
  endfacet
  facet normal 0 0 -1
    outer loop
      vertex 48.2322 51.7678 0
      vertex 60 60 0
      vertex 50 52.5 0
    endloop
  endfacet
  facet normal 0 0 -1
    outer loop
      vertex 33.5355 33.5355 0
      vertex 48.2322 48.2322 0
      vertex 34.6194 31.9134 0
    endloop
  endfacet
  facet normal 0 0 -1
    outer loop
      vertex 31.9134 34.6194 0
      vertex 48.2322 48.2322 0
      vertex 33.5355 33.5355 0
    endloop
  endfacet
  facet normal -0 0 -1
    outer loop
      vertex 48.2322 48.2322 0
      vertex 31.9134 34.6194 0
      vertex 47.5 50 0
    endloop
  endfacet
  facet normal 0 0 -1
    outer loop
      vertex 30 35 0
      vertex 47.5 50 0
      vertex 31.9134 34.6194 0
    endloop
  endfacet
  facet normal 0 0 -1
    outer loop
      vertex 12.5 50 0
      vertex 47.5 50 0
      vertex 30 35 0
    endloop
  endfacet
  facet normal 0 0 -1
    outer loop
      vertex 12.5 50 0
      vertex 30 35 0
      vertex 28.0866 34.6194 0
    endloop
  endfacet
  facet normal 0 0 -1
    outer loop
      vertex 12.5 50 0
      vertex 28.0866 34.6194 0
      vertex 26.4645 33.5355 0
    endloop
  endfacet
  facet normal 0 0 -1
    outer loop
      vertex 10 12.5 0
      vertex 25.3806 28.0866 0
      vertex 11.7678 11.7678 0
    endloop
  endfacet
  facet normal 0 0 -1
    outer loop
      vertex 25 30 0
      vertex 12.5 50 0
      vertex 25.3806 31.9134 0
    endloop
  endfacet
  facet normal 0 0 -1
    outer loop
      vertex 12.5 50 0
      vertex 26.4645 33.5355 0
      vertex 25.3806 31.9134 0
    endloop
  endfacet
  facet normal 0 0 -1
    outer loop
      vertex 47.5 50 0
      vertex 12.5 50 0
      vertex 48.2322 51.7678 0
    endloop
  endfacet
  facet normal 0 0 -1
    outer loop
      vertex 11.7678 51.7678 0
      vertex 48.2322 51.7678 0
      vertex 12.5 50 0
    endloop
  endfacet
  facet normal 0 0 -1
    outer loop
      vertex 48.2322 51.7678 0
      vertex 11.7678 51.7678 0
      vertex 60 60 0
    endloop
  endfacet
  facet normal 0 0 -1
    outer loop
      vertex 0 60 0
      vertex 11.7678 51.7678 0
      vertex 10 52.5 0
    endloop
  endfacet
  facet normal 0 0 -1
    outer loop
      vertex 11.7678 51.7678 0
      vertex 0 60 0
      vertex 60 60 0
    endloop
  endfacet
  facet normal 0 0 -1
    outer loop
      vertex 8.23223 51.7678 0
      vertex 0 60 0
      vertex 10 52.5 0
    endloop
  endfacet
  facet normal 0 0 -1
    outer loop
      vertex 7.5 50 0
      vertex 0 60 0
      vertex 8.23223 51.7678 0
    endloop
  endfacet
  facet normal 0 0 -1
    outer loop
      vertex 8.23223 48.2322 0
      vertex 0 60 0
      vertex 7.5 50 0
    endloop
  endfacet
  facet normal -1 0 0
    outer loop
      vertex 0 0 20
      vertex 0 60 20
      vertex 0 60 0
    endloop
  endfacet
  facet normal -1 0 0
    outer loop
      vertex 0 0 20
      vertex 0 60 0
      vertex 0 0 0
    endloop
  endfacet
  facet normal -1 0 0
    outer loop
      vertex 0 60 20
      vertex 0 0 20
      vertex 0 60 35
    endloop
  endfacet
  facet normal -1 -0 0
    outer loop
      vertex 0 60 35
      vertex 0 0 20
      vertex 0 0 35
    endloop
  endfacet
  facet normal 0 1 0
    outer loop
      vertex 60 60 5
      vertex 60 60 0
      vertex 5 60 5
    endloop
  endfacet
  facet normal 0 1 0
    outer loop
      vertex 4.26777 60 18.2322
      vertex 5 60 5
      vertex 2.5 60 17.5
    endloop
  endfacet
  facet normal 0 1 -0
    outer loop
      vertex 5 60 5
      vertex 4.26777 60 18.2322
      vertex 5 60 20
    endloop
  endfacet
  facet normal 0 1 0
    outer loop
      vertex 5 60 5
      vertex 0.732232 60 18.2322
      vertex 2.5 60 17.5
    endloop
  endfacet
  facet normal 0 1 0
    outer loop
      vertex 0 60 0
      vertex 0.732232 60 18.2322
      vertex 5 60 5
    endloop
  endfacet
  facet normal 0 1 0
    outer loop
      vertex 0.732232 60 18.2322
      vertex 0 60 0
      vertex 0 60 20
    endloop
  endfacet
  facet normal 0 1 0
    outer loop
      vertex 0 60 0
      vertex 5 60 5
      vertex 60 60 0
    endloop
  endfacet
  facet normal 0 -1 0
    outer loop
      vertex 0.732232 0 18.2322
      vertex 5 0 5
      vertex 2.5 0 17.5
    endloop
  endfacet
  facet normal 0 -1 0
    outer loop
      vertex 0 0 0
      vertex 0.732232 0 18.2322
      vertex 0 0 20
    endloop
  endfacet
  facet normal 0 -1 -0
    outer loop
      vertex 0.732232 0 18.2322
      vertex 0 0 0
      vertex 5 0 5
    endloop
  endfacet
  facet normal 0 -1 0
    outer loop
      vertex 60 0 0
      vertex 5 0 5
      vertex 0 0 0
    endloop
  endfacet
  facet normal 0 -1 0
    outer loop
      vertex 5 0 5
      vertex 60 0 0
      vertex 60 0 5
    endloop
  endfacet
  facet normal 0 -1 0
    outer loop
      vertex 4.26777 0 18.2322
      vertex 5 0 5
      vertex 5 0 20
    endloop
  endfacet
  facet normal 0 -1 0
    outer loop
      vertex 5 0 5
      vertex 4.26777 0 18.2322
      vertex 2.5 0 17.5
    endloop
  endfacet
  facet normal -0.831458 -0.555587 0
    outer loop
      vertex 34.6194 31.9134 0
      vertex 33.5355 33.5355 5
      vertex 33.5355 33.5355 0
    endloop
  endfacet
  facet normal -0.831458 -0.555587 0
    outer loop
      vertex 33.5355 33.5355 5
      vertex 34.6194 31.9134 0
      vertex 34.6194 31.9134 5
    endloop
  endfacet
  facet normal -0.980785 -0.195091 0
    outer loop
      vertex 35 30 0
      vertex 34.6194 31.9134 5
      vertex 34.6194 31.9134 0
    endloop
  endfacet
  facet normal -0.980785 -0.195091 0
    outer loop
      vertex 34.6194 31.9134 5
      vertex 35 30 0
      vertex 35 30 5
    endloop
  endfacet
  facet normal -0.555587 -0.831458 0
    outer loop
      vertex 31.9134 34.6194 0
      vertex 33.5355 33.5355 5
      vertex 31.9134 34.6194 5
    endloop
  endfacet
  facet normal -0.555587 -0.831458 -0
    outer loop
      vertex 33.5355 33.5355 5
      vertex 31.9134 34.6194 0
      vertex 33.5355 33.5355 0
    endloop
  endfacet
  facet normal -0.831458 0.555587 0
    outer loop
      vertex 33.5355 26.4645 0
      vertex 34.6194 28.0866 5
      vertex 34.6194 28.0866 0
    endloop
  endfacet
  facet normal -0.831458 0.555587 0
    outer loop
      vertex 34.6194 28.0866 5
      vertex 33.5355 26.4645 0
      vertex 33.5355 26.4645 5
    endloop
  endfacet
  facet normal 0.195091 -0.980785 0
    outer loop
      vertex 28.0866 34.6194 0
      vertex 30 35 5
      vertex 28.0866 34.6194 5
    endloop
  endfacet
  facet normal 0.195091 -0.980785 0
    outer loop
      vertex 30 35 5
      vertex 28.0866 34.6194 0
      vertex 30 35 0
    endloop
  endfacet
  facet normal 0.831458 -0.555587 0
    outer loop
      vertex 25.3806 31.9134 5
      vertex 26.4645 33.5355 0
      vertex 26.4645 33.5355 5
    endloop
  endfacet
  facet normal 0.831458 -0.555587 0
    outer loop
      vertex 26.4645 33.5355 0
      vertex 25.3806 31.9134 5
      vertex 25.3806 31.9134 0
    endloop
  endfacet
  facet normal 0.980785 -0.195091 0
    outer loop
      vertex 25 30 5
      vertex 25.3806 31.9134 0
      vertex 25.3806 31.9134 5
    endloop
  endfacet
  facet normal 0.980785 -0.195091 0
    outer loop
      vertex 25.3806 31.9134 0
      vertex 25 30 5
      vertex 25 30 0
    endloop
  endfacet
  facet normal -0.195091 0.980785 0
    outer loop
      vertex 31.9134 25.3806 0
      vertex 30 25 5
      vertex 31.9134 25.3806 5
    endloop
  endfacet
  facet normal -0.195091 0.980785 0
    outer loop
      vertex 30 25 5
      vertex 31.9134 25.3806 0
      vertex 30 25 0
    endloop
  endfacet
  facet normal 0.195091 0.980785 -0
    outer loop
      vertex 30 25 0
      vertex 28.0866 25.3806 5
      vertex 30 25 5
    endloop
  endfacet
  facet normal 0.195091 0.980785 0
    outer loop
      vertex 28.0866 25.3806 5
      vertex 30 25 0
      vertex 28.0866 25.3806 0
    endloop
  endfacet
  facet normal 0.980785 0.195091 0
    outer loop
      vertex 25.3806 28.0866 5
      vertex 25 30 0
      vertex 25 30 5
    endloop
  endfacet
  facet normal 0.980785 0.195091 0
    outer loop
      vertex 25 30 0
      vertex 25.3806 28.0866 5
      vertex 25.3806 28.0866 0
    endloop
  endfacet
  facet normal -0.195091 -0.980785 0
    outer loop
      vertex 30 35 0
      vertex 31.9134 34.6194 5
      vertex 30 35 5
    endloop
  endfacet
  facet normal -0.195091 -0.980785 -0
    outer loop
      vertex 31.9134 34.6194 5
      vertex 30 35 0
      vertex 31.9134 34.6194 0
    endloop
  endfacet
  facet normal -0.980785 0.195091 0
    outer loop
      vertex 34.6194 28.0866 0
      vertex 35 30 5
      vertex 35 30 0
    endloop
  endfacet
  facet normal -0.980785 0.195091 0
    outer loop
      vertex 35 30 5
      vertex 34.6194 28.0866 0
      vertex 34.6194 28.0866 5
    endloop
  endfacet
  facet normal -0.555587 0.831458 0
    outer loop
      vertex 33.5355 26.4645 0
      vertex 31.9134 25.3806 5
      vertex 33.5355 26.4645 5
    endloop
  endfacet
  facet normal -0.555587 0.831458 0
    outer loop
      vertex 31.9134 25.3806 5
      vertex 33.5355 26.4645 0
      vertex 31.9134 25.3806 0
    endloop
  endfacet
  facet normal 0.831458 0.555587 0
    outer loop
      vertex 26.4645 26.4645 5
      vertex 25.3806 28.0866 0
      vertex 25.3806 28.0866 5
    endloop
  endfacet
  facet normal 0.831458 0.555587 0
    outer loop
      vertex 25.3806 28.0866 0
      vertex 26.4645 26.4645 5
      vertex 26.4645 26.4645 0
    endloop
  endfacet
  facet normal 0.555587 -0.831458 0
    outer loop
      vertex 26.4645 33.5355 0
      vertex 28.0866 34.6194 5
      vertex 26.4645 33.5355 5
    endloop
  endfacet
  facet normal 0.555587 -0.831458 0
    outer loop
      vertex 28.0866 34.6194 5
      vertex 26.4645 33.5355 0
      vertex 28.0866 34.6194 0
    endloop
  endfacet
  facet normal 0.555587 0.831458 -0
    outer loop
      vertex 28.0866 25.3806 0
      vertex 26.4645 26.4645 5
      vertex 28.0866 25.3806 5
    endloop
  endfacet
  facet normal 0.555587 0.831458 0
    outer loop
      vertex 26.4645 26.4645 5
      vertex 28.0866 25.3806 0
      vertex 26.4645 26.4645 0
    endloop
  endfacet
  facet normal -0.923883 0 -0.382676
    outer loop
      vertex 5 0 20
      vertex 4.26777 25.2 21.7678
      vertex 5 25.2 20
    endloop
  endfacet
  facet normal -0.923883 -0 -0.382676
    outer loop
      vertex 4.26777 25.2 21.7678
      vertex 5 0 20
      vertex 4.26777 0 21.7678
    endloop
  endfacet
  facet normal 0.382668 0 -0.923886
    outer loop
      vertex 0.732232 0 21.7678
      vertex 2.5 25.2 22.5
      vertex 2.5 0 22.5
    endloop
  endfacet
  facet normal 0.382668 0 -0.923886
    outer loop
      vertex 2.5 25.2 22.5
      vertex 0.732232 0 21.7678
      vertex 0.732232 25.2 21.7678
    endloop
  endfacet
  facet normal 0.923882 0 -0.382677
    outer loop
      vertex 0.732232 0 21.7678
      vertex 0 25.2 20
      vertex 0.732232 25.2 21.7678
    endloop
  endfacet
  facet normal 0.923882 0 -0.382677
    outer loop
      vertex 0 25.2 20
      vertex 0.732232 0 21.7678
      vertex 0 0 20
    endloop
  endfacet
  facet normal -0.382668 0 0.923886
    outer loop
      vertex 2.5 25.2 17.5
      vertex 4.26777 0 18.2322
      vertex 4.26777 25.2 18.2322
    endloop
  endfacet
  facet normal -0.382668 0 0.923886
    outer loop
      vertex 4.26777 0 18.2322
      vertex 2.5 25.2 17.5
      vertex 2.5 0 17.5
    endloop
  endfacet
  facet normal 0.923882 -0 0.382677
    outer loop
      vertex 0 0 20
      vertex 0.732232 25.2 18.2322
      vertex 0 25.2 20
    endloop
  endfacet
  facet normal 0.923882 0 0.382677
    outer loop
      vertex 0.732232 25.2 18.2322
      vertex 0 0 20
      vertex 0.732232 0 18.2322
    endloop
  endfacet
  facet normal -0.923883 0 0.382676
    outer loop
      vertex 4.26777 0 18.2322
      vertex 5 25.2 20
      vertex 4.26777 25.2 18.2322
    endloop
  endfacet
  facet normal -0.923883 0 0.382676
    outer loop
      vertex 5 25.2 20
      vertex 4.26777 0 18.2322
      vertex 5 0 20
    endloop
  endfacet
  facet normal 0.382668 0 0.923886
    outer loop
      vertex 0.732232 25.2 18.2322
      vertex 2.5 0 17.5
      vertex 2.5 25.2 17.5
    endloop
  endfacet
  facet normal 0.382668 0 0.923886
    outer loop
      vertex 2.5 0 17.5
      vertex 0.732232 25.2 18.2322
      vertex 0.732232 0 18.2322
    endloop
  endfacet
  facet normal -0.382668 0 -0.923886
    outer loop
      vertex 2.5 0 22.5
      vertex 4.26777 25.2 21.7678
      vertex 4.26777 0 21.7678
    endloop
  endfacet
  facet normal -0.382668 0 -0.923886
    outer loop
      vertex 4.26777 25.2 21.7678
      vertex 2.5 0 22.5
      vertex 2.5 25.2 22.5
    endloop
  endfacet
  facet normal 0 -1 0
    outer loop
      vertex 0.732232 25.2 21.7678
      vertex 4.26777 25.2 21.7678
      vertex 2.5 25.2 22.5
    endloop
  endfacet
  facet normal 0 -1 0
    outer loop
      vertex 0 25.2 20
      vertex 4.26777 25.2 21.7678
      vertex 0.732232 25.2 21.7678
    endloop
  endfacet
  facet normal 0 -1 0
    outer loop
      vertex 0 25.2 20
      vertex 5 25.2 20
      vertex 4.26777 25.2 21.7678
    endloop
  endfacet
  facet normal 0 -1 0
    outer loop
      vertex 0.732232 25.2 18.2322
      vertex 5 25.2 20
      vertex 0 25.2 20
    endloop
  endfacet
  facet normal 0 -1 0
    outer loop
      vertex 0.732232 25.2 18.2322
      vertex 4.26777 25.2 18.2322
      vertex 5 25.2 20
    endloop
  endfacet
  facet normal -0 -1 0
    outer loop
      vertex 4.26777 25.2 18.2322
      vertex 0.732232 25.2 18.2322
      vertex 2.5 25.2 17.5
    endloop
  endfacet
  facet normal -0.923883 0 -0.382676
    outer loop
      vertex 5 35 20
      vertex 4.26777 60 21.7678
      vertex 5 60 20
    endloop
  endfacet
  facet normal -0.923883 -0 -0.382676
    outer loop
      vertex 4.26777 60 21.7678
      vertex 5 35 20
      vertex 4.26777 35 21.7678
    endloop
  endfacet
  facet normal 0.382668 0 -0.923886
    outer loop
      vertex 0.732232 35 21.7678
      vertex 2.5 60 22.5
      vertex 2.5 35 22.5
    endloop
  endfacet
  facet normal 0.382668 0 -0.923886
    outer loop
      vertex 2.5 60 22.5
      vertex 0.732232 35 21.7678
      vertex 0.732232 60 21.7678
    endloop
  endfacet
  facet normal 0.923882 0 -0.382677
    outer loop
      vertex 0.732232 35 21.7678
      vertex 0 60 20
      vertex 0.732232 60 21.7678
    endloop
  endfacet
  facet normal 0.923882 0 -0.382677
    outer loop
      vertex 0 60 20
      vertex 0.732232 35 21.7678
      vertex 0 35 20
    endloop
  endfacet
  facet normal -0.382668 0 0.923886
    outer loop
      vertex 2.5 60 17.5
      vertex 4.26777 35 18.2322
      vertex 4.26777 60 18.2322
    endloop
  endfacet
  facet normal -0.382668 0 0.923886
    outer loop
      vertex 4.26777 35 18.2322
      vertex 2.5 60 17.5
      vertex 2.5 35 17.5
    endloop
  endfacet
  facet normal -0.923883 0 0.382676
    outer loop
      vertex 4.26777 35 18.2322
      vertex 5 60 20
      vertex 4.26777 60 18.2322
    endloop
  endfacet
  facet normal -0.923883 0 0.382676
    outer loop
      vertex 5 60 20
      vertex 4.26777 35 18.2322
      vertex 5 35 20
    endloop
  endfacet
  facet normal 0.923882 -0 0.382677
    outer loop
      vertex 0 35 20
      vertex 0.732232 60 18.2322
      vertex 0 60 20
    endloop
  endfacet
  facet normal 0.923882 0 0.382677
    outer loop
      vertex 0.732232 60 18.2322
      vertex 0 35 20
      vertex 0.732232 35 18.2322
    endloop
  endfacet
  facet normal 0.382668 0 0.923886
    outer loop
      vertex 0.732232 60 18.2322
      vertex 2.5 35 17.5
      vertex 2.5 60 17.5
    endloop
  endfacet
  facet normal 0.382668 0 0.923886
    outer loop
      vertex 2.5 35 17.5
      vertex 0.732232 60 18.2322
      vertex 0.732232 35 18.2322
    endloop
  endfacet
  facet normal 0 1 0
    outer loop
      vertex 4.26777 35 21.7678
      vertex 0.732232 35 21.7678
      vertex 2.5 35 22.5
    endloop
  endfacet
  facet normal 0 1 0
    outer loop
      vertex 5 35 20
      vertex 0.732232 35 21.7678
      vertex 4.26777 35 21.7678
    endloop
  endfacet
  facet normal 0 1 0
    outer loop
      vertex 5 35 20
      vertex 0 35 20
      vertex 0.732232 35 21.7678
    endloop
  endfacet
  facet normal 0 1 -0
    outer loop
      vertex 4.26777 35 18.2322
      vertex 0 35 20
      vertex 5 35 20
    endloop
  endfacet
  facet normal 0 1 0
    outer loop
      vertex 4.26777 35 18.2322
      vertex 0.732232 35 18.2322
      vertex 0 35 20
    endloop
  endfacet
  facet normal -0 1 0
    outer loop
      vertex 0.732232 35 18.2322
      vertex 4.26777 35 18.2322
      vertex 2.5 35 17.5
    endloop
  endfacet
  facet normal -0.382668 0 -0.923886
    outer loop
      vertex 2.5 35 22.5
      vertex 4.26777 60 21.7678
      vertex 4.26777 35 21.7678
    endloop
  endfacet
  facet normal -0.382668 0 -0.923886
    outer loop
      vertex 4.26777 60 21.7678
      vertex 2.5 35 22.5
      vertex 2.5 60 22.5
    endloop
  endfacet
  facet normal 1 0 0
    outer loop
      vertex 5 0 20
      vertex 5 60 20
      vertex 5 60 35
    endloop
  endfacet
  facet normal 1 0 0
    outer loop
      vertex 5 0 20
      vertex 5 60 35
      vertex 5 0 35
    endloop
  endfacet
  facet normal 1 0 0
    outer loop
      vertex 5 60 20
      vertex 5 0 20
      vertex 5 60 5
    endloop
  endfacet
  facet normal 1 0 0
    outer loop
      vertex 5 60 5
      vertex 5 0 20
      vertex 5 0 5
    endloop
  endfacet
  facet normal -0 0 1
    outer loop
      vertex 0 60 35
      vertex 5 0 35
      vertex 5 60 35
    endloop
  endfacet
  facet normal 0 0 1
    outer loop
      vertex 5 0 35
      vertex 0 60 35
      vertex 0 0 35
    endloop
  endfacet
  facet normal 0 1 0
    outer loop
      vertex 5 60 35
      vertex 2.5 60 22.5
      vertex 0 60 35
    endloop
  endfacet
  facet normal 0 1 0
    outer loop
      vertex 5 60 35
      vertex 4.26777 60 21.7678
      vertex 2.5 60 22.5
    endloop
  endfacet
  facet normal -0 1 0
    outer loop
      vertex 4.26777 60 21.7678
      vertex 5 60 35
      vertex 5 60 20
    endloop
  endfacet
  facet normal 0 1 -0
    outer loop
      vertex 0.732232 60 21.7678
      vertex 0 60 35
      vertex 2.5 60 22.5
    endloop
  endfacet
  facet normal 0 1 0
    outer loop
      vertex 0 60 35
      vertex 0.732232 60 21.7678
      vertex 0 60 20
    endloop
  endfacet
  facet normal 0 -1 0
    outer loop
      vertex 0 0 35
      vertex 2.5 0 22.5
      vertex 5 0 35
    endloop
  endfacet
  facet normal 0 -1 0
    outer loop
      vertex 0 0 35
      vertex 0.732232 0 21.7678
      vertex 2.5 0 22.5
    endloop
  endfacet
  facet normal -0 -1 0
    outer loop
      vertex 0.732232 0 21.7678
      vertex 0 0 35
      vertex 0 0 20
    endloop
  endfacet
  facet normal 0 -1 0
    outer loop
      vertex 4.26777 0 21.7678
      vertex 5 0 35
      vertex 2.5 0 22.5
    endloop
  endfacet
  facet normal 0 -1 -0
    outer loop
      vertex 5 0 35
      vertex 4.26777 0 21.7678
      vertex 5 0 20
    endloop
  endfacet
endsolid OpenSCAD_Model
