solid OpenSCAD_Model
  facet normal 0.951053 -0 0.309029
    outer loop
      vertex 18.2709 -10 78.1347
      vertex 19.563 0 74.1582
      vertex 18.2709 0 78.1347
    endloop
  endfacet
  facet normal 0.951053 0 0.309029
    outer loop
      vertex 19.563 0 74.1582
      vertex 18.2709 -10 78.1347
      vertex 19.563 -10 74.1582
    endloop
  endfacet
  facet normal 0.994523 -0 0.104516
    outer loop
      vertex 19.563 -10 74.1582
      vertex 19.8949 0 71
      vertex 19.563 0 74.1582
    endloop
  endfacet
  facet normal 0.994523 0 0.104516
    outer loop
      vertex 19.8949 0 71
      vertex 19.563 -10 74.1582
      vertex 19.8949 -10 71
    endloop
  endfacet
  facet normal 0.743149 -0 0.669126
    outer loop
      vertex 13.3826 -10 84.8629
      vertex 16.1803 0 81.7557
      vertex 13.3826 0 84.8629
    endloop
  endfacet
  facet normal 0.743149 0 0.669126
    outer loop
      vertex 16.1803 0 81.7557
      vertex 13.3826 -10 84.8629
      vertex 16.1803 -10 81.7557
    endloop
  endfacet
  facet normal 0.866024 -0 0.500003
    outer loop
      vertex 16.1803 -10 81.7557
      vertex 18.2709 0 78.1347
      vertex 16.1803 0 81.7557
    endloop
  endfacet
  facet normal 0.866024 0 0.500003
    outer loop
      vertex 18.2709 0 78.1347
      vertex 16.1803 -10 81.7557
      vertex 18.2709 -10 78.1347
    endloop
  endfacet
  facet normal -0.743149 0 0.669126
    outer loop
      vertex -16.1803 -10 81.7557
      vertex -13.3826 0 84.8629
      vertex -16.1803 0 81.7557
    endloop
  endfacet
  facet normal -0.743149 0 0.669126
    outer loop
      vertex -13.3826 0 84.8629
      vertex -16.1803 -10 81.7557
      vertex -13.3826 -10 84.8629
    endloop
  endfacet
  facet normal -0.951053 0 0.309029
    outer loop
      vertex -19.563 -10 74.1582
      vertex -18.2709 0 78.1347
      vertex -19.563 0 74.1582
    endloop
  endfacet
  facet normal -0.951053 0 0.309029
    outer loop
      vertex -18.2709 0 78.1347
      vertex -19.563 -10 74.1582
      vertex -18.2709 -10 78.1347
    endloop
  endfacet
  facet normal 0 1 0
    outer loop
      vertex 6.18034 0 89.0211
      vertex -2.09057 0 89.8904
      vertex 2.09057 0 89.8904
    endloop
  endfacet
  facet normal 0 1 0
    outer loop
      vertex 6.18034 0 89.0211
      vertex -6.18034 0 89.0211
      vertex -2.09057 0 89.8904
    endloop
  endfacet
  facet normal 0 1 0
    outer loop
      vertex 10 0 87.3205
      vertex -6.18034 0 89.0211
      vertex 6.18034 0 89.0211
    endloop
  endfacet
  facet normal 0 1 0
    outer loop
      vertex 10 0 87.3205
      vertex -10 0 87.3205
      vertex -6.18034 0 89.0211
    endloop
  endfacet
  facet normal 0 1 0
    outer loop
      vertex 13.3826 0 84.8629
      vertex -10 0 87.3205
      vertex 10 0 87.3205
    endloop
  endfacet
  facet normal 0 1 0
    outer loop
      vertex 13.3826 0 84.8629
      vertex -13.3826 0 84.8629
      vertex -10 0 87.3205
    endloop
  endfacet
  facet normal 0 1 0
    outer loop
      vertex 16.1803 0 81.7557
      vertex -13.3826 0 84.8629
      vertex 13.3826 0 84.8629
    endloop
  endfacet
  facet normal 0 1 0
    outer loop
      vertex 16.1803 0 81.7557
      vertex -16.1803 0 81.7557
      vertex -13.3826 0 84.8629
    endloop
  endfacet
  facet normal 0 1 0
    outer loop
      vertex 19.8949 0 71
      vertex 16.1803 0 81.7557
      vertex 18.2709 0 78.1347
    endloop
  endfacet
  facet normal 0 1 0
    outer loop
      vertex 16.1803 0 81.7557
      vertex 19.8949 0 71
      vertex -16.1803 0 81.7557
    endloop
  endfacet
  facet normal 0 1 0
    outer loop
      vertex 19.8949 0 71
      vertex 18.2709 0 78.1347
      vertex 19.563 0 74.1582
    endloop
  endfacet
  facet normal 0 1 0
    outer loop
      vertex -19.8949 0 71
      vertex -16.1803 0 81.7557
      vertex 19.8949 0 71
    endloop
  endfacet
  facet normal 0 1 0
    outer loop
      vertex -16.1803 0 81.7557
      vertex -19.8949 0 71
      vertex -18.2709 0 78.1347
    endloop
  endfacet
  facet normal 0 1 0
    outer loop
      vertex -18.2709 0 78.1347
      vertex -19.8949 0 71
      vertex -19.563 0 74.1582
    endloop
  endfacet
  facet normal -0.406732 0 0.913547
    outer loop
      vertex -10 0 87.3205
      vertex -6.18034 -10 89.0211
      vertex -6.18034 0 89.0211
    endloop
  endfacet
  facet normal -0.406732 0 0.913547
    outer loop
      vertex -6.18034 -10 89.0211
      vertex -10 0 87.3205
      vertex -10 -10 87.3205
    endloop
  endfacet
  facet normal 0.406732 0 0.913547
    outer loop
      vertex 6.18034 0 89.0211
      vertex 10 -10 87.3205
      vertex 10 0 87.3205
    endloop
  endfacet
  facet normal 0.406732 0 0.913547
    outer loop
      vertex 10 -10 87.3205
      vertex 6.18034 0 89.0211
      vertex 6.18034 -10 89.0211
    endloop
  endfacet
  facet normal 0 -1 0
    outer loop
      vertex -6.18034 -10 89.0211
      vertex 2.09057 -10 89.8904
      vertex -2.09057 -10 89.8904
    endloop
  endfacet
  facet normal 0 -1 0
    outer loop
      vertex -6.18034 -10 89.0211
      vertex 6.18034 -10 89.0211
      vertex 2.09057 -10 89.8904
    endloop
  endfacet
  facet normal 0 -1 0
    outer loop
      vertex -10 -10 87.3205
      vertex 6.18034 -10 89.0211
      vertex -6.18034 -10 89.0211
    endloop
  endfacet
  facet normal 0 -1 0
    outer loop
      vertex -10 -10 87.3205
      vertex 10 -10 87.3205
      vertex 6.18034 -10 89.0211
    endloop
  endfacet
  facet normal 0 -1 0
    outer loop
      vertex -13.3826 -10 84.8629
      vertex 10 -10 87.3205
      vertex -10 -10 87.3205
    endloop
  endfacet
  facet normal 0 -1 0
    outer loop
      vertex -13.3826 -10 84.8629
      vertex 13.3826 -10 84.8629
      vertex 10 -10 87.3205
    endloop
  endfacet
  facet normal 0 -1 0
    outer loop
      vertex -16.1803 -10 81.7557
      vertex 13.3826 -10 84.8629
      vertex -13.3826 -10 84.8629
    endloop
  endfacet
  facet normal 0 -1 0
    outer loop
      vertex -16.1803 -10 81.7557
      vertex 16.1803 -10 81.7557
      vertex 13.3826 -10 84.8629
    endloop
  endfacet
  facet normal 0 -1 0
    outer loop
      vertex -19.8949 -10 71
      vertex -16.1803 -10 81.7557
      vertex -18.2709 -10 78.1347
    endloop
  endfacet
  facet normal 0 -1 -0
    outer loop
      vertex -16.1803 -10 81.7557
      vertex -19.8949 -10 71
      vertex 16.1803 -10 81.7557
    endloop
  endfacet
  facet normal 0 -1 0
    outer loop
      vertex -19.8949 -10 71
      vertex -18.2709 -10 78.1347
      vertex -19.563 -10 74.1582
    endloop
  endfacet
  facet normal 0 -1 0
    outer loop
      vertex 19.8949 -10 71
      vertex 16.1803 -10 81.7557
      vertex -19.8949 -10 71
    endloop
  endfacet
  facet normal 0 -1 0
    outer loop
      vertex 16.1803 -10 81.7557
      vertex 19.8949 -10 71
      vertex 18.2709 -10 78.1347
    endloop
  endfacet
  facet normal 0 -1 0
    outer loop
      vertex 18.2709 -10 78.1347
      vertex 19.8949 -10 71
      vertex 19.563 -10 74.1582
    endloop
  endfacet
  facet normal 0.20791 0 0.978148
    outer loop
      vertex 2.09057 0 89.8904
      vertex 6.18034 -10 89.0211
      vertex 6.18034 0 89.0211
    endloop
  endfacet
  facet normal 0.20791 0 0.978148
    outer loop
      vertex 6.18034 -10 89.0211
      vertex 2.09057 0 89.8904
      vertex 2.09057 -10 89.8904
    endloop
  endfacet
  facet normal -0.866024 0 0.500003
    outer loop
      vertex -18.2709 -10 78.1347
      vertex -16.1803 0 81.7557
      vertex -18.2709 0 78.1347
    endloop
  endfacet
  facet normal -0.866024 0 0.500003
    outer loop
      vertex -16.1803 0 81.7557
      vertex -18.2709 -10 78.1347
      vertex -16.1803 -10 81.7557
    endloop
  endfacet
  facet normal 0.587785 0 0.809017
    outer loop
      vertex 10 0 87.3205
      vertex 13.3826 -10 84.8629
      vertex 13.3826 0 84.8629
    endloop
  endfacet
  facet normal 0.587785 0 0.809017
    outer loop
      vertex 13.3826 -10 84.8629
      vertex 10 0 87.3205
      vertex 10 -10 87.3205
    endloop
  endfacet
  facet normal -0.587785 0 0.809017
    outer loop
      vertex -13.3826 0 84.8629
      vertex -10 -10 87.3205
      vertex -10 0 87.3205
    endloop
  endfacet
  facet normal -0.587785 0 0.809017
    outer loop
      vertex -10 -10 87.3205
      vertex -13.3826 0 84.8629
      vertex -13.3826 -10 84.8629
    endloop
  endfacet
  facet normal -0.20791 0 0.978148
    outer loop
      vertex -6.18034 0 89.0211
      vertex -2.09057 -10 89.8904
      vertex -2.09057 0 89.8904
    endloop
  endfacet
  facet normal -0.20791 0 0.978148
    outer loop
      vertex -2.09057 -10 89.8904
      vertex -6.18034 0 89.0211
      vertex -6.18034 -10 89.0211
    endloop
  endfacet
  facet normal -0 0 1
    outer loop
      vertex -2.09057 0 89.8904
      vertex 2.09057 -10 89.8904
      vertex 2.09057 0 89.8904
    endloop
  endfacet
  facet normal 0 0 1
    outer loop
      vertex 2.09057 -10 89.8904
      vertex -2.09057 0 89.8904
      vertex -2.09057 -10 89.8904
    endloop
  endfacet
  facet normal -0.994523 0 0.104516
    outer loop
      vertex -19.8949 -10 71
      vertex -19.563 0 74.1582
      vertex -19.8949 0 71
    endloop
  endfacet
  facet normal -0.994523 0 0.104516
    outer loop
      vertex -19.563 0 74.1582
      vertex -19.8949 -10 71
      vertex -19.563 -10 74.1582
    endloop
  endfacet
  facet normal 0 0 -1
    outer loop
      vertex -19.8949 -10 71
      vertex 19.8949 0 71
      vertex 19.8949 -10 71
    endloop
  endfacet
  facet normal -0 0 -1
    outer loop
      vertex 19.8949 0 71
      vertex -19.8949 -10 71
      vertex -19.8949 0 71
    endloop
  endfacet
  facet normal 1 0 0
    outer loop
      vertex 30 20 60
      vertex 30 0 40
      vertex 30 20 40
    endloop
  endfacet
  facet normal 1 -0 0
    outer loop
      vertex 30 -20 60
      vertex 30 0 40
      vertex 30 20 60
    endloop
  endfacet
  facet normal 1 0 0
    outer loop
      vertex 30 0 40
      vertex 30 -20 60
      vertex 30 -20 40
    endloop
  endfacet
  facet normal -0 0 1
    outer loop
      vertex -30 20 60
      vertex 30 -20 60
      vertex 30 20 60
    endloop
  endfacet
  facet normal 0 0 1
    outer loop
      vertex 30 -20 60
      vertex -30 20 60
      vertex -30 -20 60
    endloop
  endfacet
  facet normal 0 0 -1
    outer loop
      vertex 30 0 40
      vertex 0 20 40
      vertex 30 20 40
    endloop
  endfacet
  facet normal 0 0 -1
    outer loop
      vertex -30 -20 40
      vertex 30 0 40
      vertex 30 -20 40
    endloop
  endfacet
  facet normal -0 0 -1
    outer loop
      vertex 30 0 40
      vertex -30 -20 40
      vertex -30 0 40
    endloop
  endfacet
  facet normal -0 0 -1
    outer loop
      vertex 0 20 40
      vertex -30 0 40
      vertex -30 20 40
    endloop
  endfacet
  facet normal -1 0 0
    outer loop
      vertex -30 0 40
      vertex -30 20 60
      vertex -30 20 40
    endloop
  endfacet
  facet normal -1 0 0
    outer loop
      vertex -30 -20 60
      vertex -30 0 40
      vertex -30 -20 40
    endloop
  endfacet
  facet normal -1 0 0
    outer loop
      vertex -30 0 40
      vertex -30 -20 60
      vertex -30 20 60
    endloop
  endfacet
  facet normal 0 1 0
    outer loop
      vertex 0 20 40
      vertex 30 20 60
      vertex 30 20 40
    endloop
  endfacet
  facet normal 0 1 0
    outer loop
      vertex 30 20 60
      vertex 0 20 40
      vertex -30 20 60
    endloop
  endfacet
  facet normal 0 1 0
    outer loop
      vertex -30 20 60
      vertex 0 20 40
      vertex -30 20 40
    endloop
  endfacet
  facet normal 0 -1 0
    outer loop
      vertex -30 -20 40
      vertex 30 -20 60
      vertex -30 -20 60
    endloop
  endfacet
  facet normal 0 -1 -0
    outer loop
      vertex 30 -20 60
      vertex -30 -20 40
      vertex 30 -20 40
    endloop
  endfacet
  facet normal 1 -0 0
    outer loop
      vertex 60 -20 15
      vertex 60 20 5
      vertex 60 20 15
    endloop
  endfacet
  facet normal 1 0 0
    outer loop
      vertex 60 20 5
      vertex 60 -20 15
      vertex 60 -20 5
    endloop
  endfacet
  facet normal 0 0 1
    outer loop
      vertex 60 20 15
      vertex 30 0 15
      vertex 60 -20 15
    endloop
  endfacet
  facet normal 0 -0 1
    outer loop
      vertex 30 0 15
      vertex 60 20 15
      vertex 0 20 15
    endloop
  endfacet
  facet normal 0 0 1
    outer loop
      vertex 0 -20 15
      vertex 30 0 15
      vertex 0 0 15
    endloop
  endfacet
  facet normal 0 0 1
    outer loop
      vertex 30 0 15
      vertex 0 -20 15
      vertex 60 -20 15
    endloop
  endfacet
  facet normal 0 0 -1
    outer loop
      vertex 0 -20 5
      vertex 60 20 5
      vertex 60 -20 5
    endloop
  endfacet
  facet normal -0 0 -1
    outer loop
      vertex 60 20 5
      vertex 0 -20 5
      vertex 0 20 5
    endloop
  endfacet
  facet normal -1 0 0
    outer loop
      vertex 0 20 5
      vertex 0 0 10
      vertex 0 20 10
    endloop
  endfacet
  facet normal -1 0 0
    outer loop
      vertex 0 -20 5
      vertex 0 0 10
      vertex 0 20 5
    endloop
  endfacet
  facet normal -1 0 0
    outer loop
      vertex 0 -20 15
      vertex 0 0 10
      vertex 0 -20 5
    endloop
  endfacet
  facet normal -1 0 0
    outer loop
      vertex 0 0 10
      vertex 0 -20 15
      vertex 0 0 15
    endloop
  endfacet
  facet normal 0 1 0
    outer loop
      vertex 60 20 15
      vertex 0 20 10
      vertex 0 20 15
    endloop
  endfacet
  facet normal 0 1 -0
    outer loop
      vertex 60 20 5
      vertex 0 20 10
      vertex 60 20 15
    endloop
  endfacet
  facet normal 0 1 0
    outer loop
      vertex 0 20 10
      vertex 60 20 5
      vertex 0 20 5
    endloop
  endfacet
  facet normal 0 -1 0
    outer loop
      vertex 0 -20 5
      vertex 60 -20 15
      vertex 0 -20 15
    endloop
  endfacet
  facet normal 0 -1 -0
    outer loop
      vertex 60 -20 15
      vertex 0 -20 5
      vertex 60 -20 5
    endloop
  endfacet
  facet normal 0 0 -1
    outer loop
      vertex 0 0 10
      vertex -30 0 10
      vertex 0 20 10
    endloop
  endfacet
  facet normal 0 -1 0
    outer loop
      vertex -30 0 40
      vertex 0 0 15
      vertex 30 0 40
    endloop
  endfacet
  facet normal 0 -1 0
    outer loop
      vertex -30 0 10
      vertex 0 0 15
      vertex -30 0 40
    endloop
  endfacet
  facet normal 0 -1 -0
    outer loop
      vertex 0 0 15
      vertex -30 0 10
      vertex 0 0 10
    endloop
  endfacet
  facet normal 0 -1 -0
    outer loop
      vertex 30 0 40
      vertex 0 0 15
      vertex 30 0 15
    endloop
  endfacet
  facet normal 0.5547 0.83205 -0
    outer loop
      vertex 30 0 15
      vertex 0 20 40
      vertex 30 0 40
    endloop
  endfacet
  facet normal 0.5547 0.83205 0
    outer loop
      vertex 0 20 40
      vertex 30 0 15
      vertex 0 20 15
    endloop
  endfacet
  facet normal -0.5547 0.83205 0
    outer loop
      vertex 0 20 15
      vertex -30 0 40
      vertex 0 20 40
    endloop
  endfacet
  facet normal -0.5547 0.83205 0
    outer loop
      vertex -30 0 10
      vertex 0 20 15
      vertex 0 20 10
    endloop
  endfacet
  facet normal -0.5547 0.83205 0
    outer loop
      vertex 0 20 15
      vertex -30 0 10
      vertex -30 0 40
    endloop
  endfacet
endsolid OpenSCAD_Model
