solid OpenSCAD_Model
  facet normal 1 -0 0
    outer loop
      vertex -15 -10 0
      vertex -15 0 -5
      vertex -15 0 0
    endloop
  endfacet
  facet normal 1 0 0
    outer loop
      vertex -15 0 -5
      vertex -15 -10 0
      vertex -15 -10 -5
    endloop
  endfacet
  facet normal 0 0 1
    outer loop
      vertex 30 10 5
      vertex 5 5 5
      vertex 30 -10 5
    endloop
  endfacet
  facet normal 0 0 1
    outer loop
      vertex 30 10 5
      vertex -5 5 5
      vertex 5 5 5
    endloop
  endfacet
  facet normal 0 0 1
    outer loop
      vertex -5 5 5
      vertex -30 10 5
      vertex -5 -5 5
    endloop
  endfacet
  facet normal -0 0 1
    outer loop
      vertex -30 10 5
      vertex -5 5 5
      vertex 30 10 5
    endloop
  endfacet
  facet normal -0 0 1
    outer loop
      vertex 5 -5 5
      vertex 30 -10 5
      vertex 5 5 5
    endloop
  endfacet
  facet normal -0 0 1
    outer loop
      vertex -5 -5 5
      vertex 30 -10 5
      vertex 5 -5 5
    endloop
  endfacet
  facet normal 0 0 1
    outer loop
      vertex -5 -5 5
      vertex -30 -10 5
      vertex 30 -10 5
    endloop
  endfacet
  facet normal 0 0 1
    outer loop
      vertex -30 -10 5
      vertex -5 -5 5
      vertex -30 10 5
    endloop
  endfacet
  facet normal 0 0 -1
    outer loop
      vertex -15 -10 -5
      vertex -25 -10 -5
      vertex -15 0 -5
    endloop
  endfacet
  facet normal 0 0 -1
    outer loop
      vertex 0 0 -5
      vertex 15 -10 -5
      vertex 0 -10 -5
    endloop
  endfacet
  facet normal 0 0 -1
    outer loop
      vertex 20 2.5 -5
      vertex 30 -10 -5
      vertex 20 -10 -5
    endloop
  endfacet
  facet normal 0 0 -1
    outer loop
      vertex 30 -10 -5
      vertex 20 2.5 -5
      vertex 30 10 -5
    endloop
  endfacet
  facet normal 0 0 -1
    outer loop
      vertex 15 2.5 -5
      vertex 30 10 -5
      vertex 20 2.5 -5
    endloop
  endfacet
  facet normal 0 0 -1
    outer loop
      vertex 15 -10 -5
      vertex 0 0 -5
      vertex 15 2.5 -5
    endloop
  endfacet
  facet normal 0 0 -1
    outer loop
      vertex -30 10 -5
      vertex 15 2.5 -5
      vertex 0 0 -5
    endloop
  endfacet
  facet normal 0 0 -1
    outer loop
      vertex -30 10 -5
      vertex 0 0 -5
      vertex -15 0 -5
    endloop
  endfacet
  facet normal 0 0 -1
    outer loop
      vertex -25 2.5 -5
      vertex -15 0 -5
      vertex -25 -10 -5
    endloop
  endfacet
  facet normal 0 0 -1
    outer loop
      vertex -30 10 -5
      vertex -15 0 -5
      vertex -25 2.5 -5
    endloop
  endfacet
  facet normal 0 0 -1
    outer loop
      vertex -30 10 -5
      vertex -25 2.5 -5
      vertex -30 2.5 -5
    endloop
  endfacet
  facet normal 0 0 -1
    outer loop
      vertex 15 2.5 -5
      vertex -30 10 -5
      vertex 30 10 -5
    endloop
  endfacet
  facet normal -1 0 0
    outer loop
      vertex -30 2.5 0
      vertex -30 10 -5
      vertex -30 2.5 -5
    endloop
  endfacet
  facet normal -1 0 0
    outer loop
      vertex -30 10 -5
      vertex -30 2.5 0
      vertex -30 10 5
    endloop
  endfacet
  facet normal -1 0 0
    outer loop
      vertex -30 -10 5
      vertex -30 2.5 0
      vertex -30 -10 0
    endloop
  endfacet
  facet normal -1 0 0
    outer loop
      vertex -30 2.5 0
      vertex -30 -10 5
      vertex -30 10 5
    endloop
  endfacet
  facet normal 0 1 -0
    outer loop
      vertex 30 10 -5
      vertex -30 10 5
      vertex 30 10 5
    endloop
  endfacet
  facet normal 0 1 0
    outer loop
      vertex -30 10 5
      vertex 30 10 -5
      vertex -30 10 -5
    endloop
  endfacet
  facet normal 0 -1 0
    outer loop
      vertex 0 -10 -5
      vertex 15 -10 0
      vertex 0 -10 0
    endloop
  endfacet
  facet normal 0 -1 -0
    outer loop
      vertex 15 -10 0
      vertex 0 -10 -5
      vertex 15 -10 -5
    endloop
  endfacet
  facet normal 0 -1 0
    outer loop
      vertex -25 -10 -5
      vertex -15 -10 0
      vertex -25 -10 0
    endloop
  endfacet
  facet normal 0 -1 -0
    outer loop
      vertex -15 -10 0
      vertex -25 -10 -5
      vertex -15 -10 -5
    endloop
  endfacet
  facet normal 0 -1 0
    outer loop
      vertex -25 -10 0
      vertex -30 -10 5
      vertex -30 -10 0
    endloop
  endfacet
  facet normal 0 -1 0
    outer loop
      vertex -15 -10 0
      vertex -30 -10 5
      vertex -25 -10 0
    endloop
  endfacet
  facet normal 0 -1 0
    outer loop
      vertex 0 -10 0
      vertex -30 -10 5
      vertex -15 -10 0
    endloop
  endfacet
  facet normal 0 -1 0
    outer loop
      vertex -30 -10 5
      vertex 0 -10 0
      vertex 30 -10 5
    endloop
  endfacet
  facet normal 0 -1 0
    outer loop
      vertex 15 -10 0
      vertex 30 -10 5
      vertex 0 -10 0
    endloop
  endfacet
  facet normal 0 -1 0
    outer loop
      vertex 20 -10 0
      vertex 30 -10 5
      vertex 15 -10 0
    endloop
  endfacet
  facet normal 0 -1 0
    outer loop
      vertex 30 -10 -5
      vertex 20 -10 0
      vertex 20 -10 -5
    endloop
  endfacet
  facet normal 0 -1 0
    outer loop
      vertex 20 -10 0
      vertex 30 -10 -5
      vertex 30 -10 5
    endloop
  endfacet
  facet normal -1 0 0
    outer loop
      vertex -25 -10 -5
      vertex -25 2.5 0
      vertex -25 2.5 -5
    endloop
  endfacet
  facet normal -1 -0 0
    outer loop
      vertex -25 2.5 0
      vertex -25 -10 -5
      vertex -25 -10 0
    endloop
  endfacet
  facet normal 0 0 -1
    outer loop
      vertex -30 -10 0
      vertex -25 2.5 0
      vertex -25 -10 0
    endloop
  endfacet
  facet normal -0 0 -1
    outer loop
      vertex -25 2.5 0
      vertex -30 -10 0
      vertex -30 2.5 0
    endloop
  endfacet
  facet normal 0 -1 0
    outer loop
      vertex -30 2.5 -5
      vertex -25 2.5 0
      vertex -30 2.5 0
    endloop
  endfacet
  facet normal 0 -1 -0
    outer loop
      vertex -25 2.5 0
      vertex -30 2.5 -5
      vertex -25 2.5 -5
    endloop
  endfacet
  facet normal 1 -0 0
    outer loop
      vertex 30 -10 5
      vertex 30 10 -5
      vertex 30 10 5
    endloop
  endfacet
  facet normal 1 0 0
    outer loop
      vertex 30 10 -5
      vertex 30 -10 5
      vertex 30 -10 -5
    endloop
  endfacet
  facet normal 1 -0 0
    outer loop
      vertex 15 -10 0
      vertex 15 2.5 -5
      vertex 15 2.5 0
    endloop
  endfacet
  facet normal 1 0 0
    outer loop
      vertex 15 2.5 -5
      vertex 15 -10 0
      vertex 15 -10 -5
    endloop
  endfacet
  facet normal -1 0 0
    outer loop
      vertex 20 -10 -5
      vertex 20 2.5 0
      vertex 20 2.5 -5
    endloop
  endfacet
  facet normal -1 -0 0
    outer loop
      vertex 20 2.5 0
      vertex 20 -10 -5
      vertex 20 -10 0
    endloop
  endfacet
  facet normal 0 0 -1
    outer loop
      vertex 15 -10 0
      vertex 20 2.5 0
      vertex 20 -10 0
    endloop
  endfacet
  facet normal -0 0 -1
    outer loop
      vertex 20 2.5 0
      vertex 15 -10 0
      vertex 15 2.5 0
    endloop
  endfacet
  facet normal 0 -1 0
    outer loop
      vertex 15 2.5 -5
      vertex 20 2.5 0
      vertex 15 2.5 0
    endloop
  endfacet
  facet normal 0 -1 -0
    outer loop
      vertex 20 2.5 0
      vertex 15 2.5 -5
      vertex 20 2.5 -5
    endloop
  endfacet
  facet normal -1 0 0
    outer loop
      vertex 0 -10 -5
      vertex 0 0 0
      vertex 0 0 -5
    endloop
  endfacet
  facet normal -1 -0 0
    outer loop
      vertex 0 0 0
      vertex 0 -10 -5
      vertex 0 -10 0
    endloop
  endfacet
  facet normal 0 0 -1
    outer loop
      vertex -15 -10 0
      vertex 0 0 0
      vertex 0 -10 0
    endloop
  endfacet
  facet normal -0 0 -1
    outer loop
      vertex 0 0 0
      vertex -15 -10 0
      vertex -15 0 0
    endloop
  endfacet
  facet normal 0 -1 0
    outer loop
      vertex -15 0 -5
      vertex 0 0 0
      vertex -15 0 0
    endloop
  endfacet
  facet normal 0 -1 -0
    outer loop
      vertex 0 0 0
      vertex -15 0 -5
      vertex 0 0 -5
    endloop
  endfacet
  facet normal 1 -0 0
    outer loop
      vertex 5 -5 10
      vertex 5 5 5
      vertex 5 5 10
    endloop
  endfacet
  facet normal 1 0 0
    outer loop
      vertex 5 5 5
      vertex 5 -5 10
      vertex 5 -5 5
    endloop
  endfacet
  facet normal -0 0 1
    outer loop
      vertex -5 5 10
      vertex 5 -5 10
      vertex 5 5 10
    endloop
  endfacet
  facet normal 0 0 1
    outer loop
      vertex 5 -5 10
      vertex -5 5 10
      vertex -5 -5 10
    endloop
  endfacet
  facet normal -1 0 0
    outer loop
      vertex -5 -5 5
      vertex -5 5 10
      vertex -5 5 5
    endloop
  endfacet
  facet normal -1 -0 0
    outer loop
      vertex -5 5 10
      vertex -5 -5 5
      vertex -5 -5 10
    endloop
  endfacet
  facet normal 0 1 -0
    outer loop
      vertex 5 5 5
      vertex -5 5 10
      vertex 5 5 10
    endloop
  endfacet
  facet normal 0 1 0
    outer loop
      vertex -5 5 10
      vertex 5 5 5
      vertex -5 5 5
    endloop
  endfacet
  facet normal 0 -1 0
    outer loop
      vertex -5 -5 5
      vertex 5 -5 10
      vertex -5 -5 10
    endloop
  endfacet
  facet normal 0 -1 -0
    outer loop
      vertex 5 -5 10
      vertex -5 -5 5
      vertex 5 -5 5
    endloop
  endfacet
endsolid OpenSCAD_Model
