solid OpenSCAD_Model
  facet normal -0.743147 -0.669129 0
    outer loop
      vertex -6.69131 -7.43145 -20
      vertex -8.09017 -5.87785 10
      vertex -8.09017 -5.87785 -20
    endloop
  endfacet
  facet normal -0.743147 -0.669129 0
    outer loop
      vertex -8.09017 -5.87785 10
      vertex -6.69131 -7.43145 -20
      vertex -6.69131 -7.43145 10
    endloop
  endfacet
  facet normal 0.951055 0.309021 0
    outer loop
      vertex 9.78148 2.07912 10
      vertex 9.13545 4.06737 -20
      vertex 9.13545 4.06737 10
    endloop
  endfacet
  facet normal 0.951055 0.309021 0
    outer loop
      vertex 9.13545 4.06737 -20
      vertex 9.78148 2.07912 10
      vertex 9.78148 2.07912 -20
    endloop
  endfacet
  facet normal 0.994522 0.104526 0
    outer loop
      vertex 10 0 10
      vertex 9.78148 2.07912 -20
      vertex 9.78148 2.07912 10
    endloop
  endfacet
  facet normal 0.994522 0.104526 0
    outer loop
      vertex 9.78148 2.07912 -20
      vertex 10 0 10
      vertex 10 0 -20
    endloop
  endfacet
  facet normal 0.866026 0.5 0
    outer loop
      vertex 9.13545 4.06737 10
      vertex 8.09017 5.87785 -20
      vertex 8.09017 5.87785 10
    endloop
  endfacet
  facet normal 0.866026 0.5 0
    outer loop
      vertex 8.09017 5.87785 -20
      vertex 9.13545 4.06737 10
      vertex 9.13545 4.06737 -20
    endloop
  endfacet
  facet normal 0.951055 -0.309021 0
    outer loop
      vertex 9.13545 -4.06737 10
      vertex 9.78148 -2.07912 -20
      vertex 9.78148 -2.07912 10
    endloop
  endfacet
  facet normal 0.951055 -0.309021 0
    outer loop
      vertex 9.78148 -2.07912 -20
      vertex 9.13545 -4.06737 10
      vertex 9.13545 -4.06737 -20
    endloop
  endfacet
  facet normal -0.587783 0.809019 0
    outer loop
      vertex -5 8.66025 -20
      vertex -6.69131 7.43145 10
      vertex -5 8.66025 10
    endloop
  endfacet
  facet normal -0.587783 0.809019 0
    outer loop
      vertex -6.69131 7.43145 10
      vertex -5 8.66025 -20
      vertex -6.69131 7.43145 -20
    endloop
  endfacet
  facet normal 0.587783 -0.809019 0
    outer loop
      vertex 5 -8.66025 -20
      vertex 6.69131 -7.43145 10
      vertex 5 -8.66025 10
    endloop
  endfacet
  facet normal 0.587783 -0.809019 0
    outer loop
      vertex 6.69131 -7.43145 10
      vertex 5 -8.66025 -20
      vertex 6.69131 -7.43145 -20
    endloop
  endfacet
  facet normal 0.743147 -0.669129 0
    outer loop
      vertex 6.69131 -7.43145 10
      vertex 8.09017 -5.87785 -20
      vertex 8.09017 -5.87785 10
    endloop
  endfacet
  facet normal 0.743147 -0.669129 0
    outer loop
      vertex 8.09017 -5.87785 -20
      vertex 6.69131 -7.43145 10
      vertex 6.69131 -7.43145 -20
    endloop
  endfacet
  facet normal 0.994522 -0.104526 0
    outer loop
      vertex 9.78148 -2.07912 10
      vertex 10 0 -20
      vertex 10 0 10
    endloop
  endfacet
  facet normal 0.994522 -0.104526 0
    outer loop
      vertex 10 0 -20
      vertex 9.78148 -2.07912 10
      vertex 9.78148 -2.07912 -20
    endloop
  endfacet
  facet normal -0.406736 -0.913546 0
    outer loop
      vertex -5 -8.66025 -20
      vertex -3.09017 -9.51056 10
      vertex -5 -8.66025 10
    endloop
  endfacet
  facet normal -0.406736 -0.913546 -0
    outer loop
      vertex -3.09017 -9.51056 10
      vertex -5 -8.66025 -20
      vertex -3.09017 -9.51056 -20
    endloop
  endfacet
  facet normal 0.406736 0.913546 -0
    outer loop
      vertex 5 8.66025 -20
      vertex 3.09017 9.51056 10
      vertex 5 8.66025 10
    endloop
  endfacet
  facet normal 0.406736 0.913546 0
    outer loop
      vertex 3.09017 9.51056 10
      vertex 5 8.66025 -20
      vertex 3.09017 9.51056 -20
    endloop
  endfacet
  facet normal 0.743147 0.669129 0
    outer loop
      vertex 8.09017 5.87785 10
      vertex 6.69131 7.43145 -20
      vertex 6.69131 7.43145 10
    endloop
  endfacet
  facet normal 0.743147 0.669129 0
    outer loop
      vertex 6.69131 7.43145 -20
      vertex 8.09017 5.87785 10
      vertex 8.09017 5.87785 -20
    endloop
  endfacet
  facet normal -0.587783 -0.809019 0
    outer loop
      vertex -6.69131 -7.43145 -20
      vertex -5 -8.66025 10
      vertex -6.69131 -7.43145 10
    endloop
  endfacet
  facet normal -0.587783 -0.809019 -0
    outer loop
      vertex -5 -8.66025 10
      vertex -6.69131 -7.43145 -20
      vertex -5 -8.66025 -20
    endloop
  endfacet
  facet normal -0.743147 0.669129 0
    outer loop
      vertex -8.09017 5.87785 -20
      vertex -6.69131 7.43145 10
      vertex -6.69131 7.43145 -20
    endloop
  endfacet
  facet normal -0.743147 0.669129 0
    outer loop
      vertex -6.69131 7.43145 10
      vertex -8.09017 5.87785 -20
      vertex -8.09017 5.87785 10
    endloop
  endfacet
  facet normal 0 1 -0
    outer loop
      vertex 1.04528 9.94522 -20
      vertex -1.04528 9.94522 10
      vertex 1.04528 9.94522 10
    endloop
  endfacet
  facet normal 0 1 0
    outer loop
      vertex -1.04528 9.94522 10
      vertex 1.04528 9.94522 -20
      vertex -1.04528 9.94522 -20
    endloop
  endfacet
  facet normal 0.406736 -0.913546 0
    outer loop
      vertex 3.09017 -9.51056 -20
      vertex 5 -8.66025 10
      vertex 3.09017 -9.51056 10
    endloop
  endfacet
  facet normal 0.406736 -0.913546 0
    outer loop
      vertex 5 -8.66025 10
      vertex 3.09017 -9.51056 -20
      vertex 5 -8.66025 -20
    endloop
  endfacet
  facet normal 0.207914 -0.978147 0
    outer loop
      vertex 1.04528 -9.94522 -20
      vertex 3.09017 -9.51056 10
      vertex 1.04528 -9.94522 10
    endloop
  endfacet
  facet normal 0.207914 -0.978147 0
    outer loop
      vertex 3.09017 -9.51056 10
      vertex 1.04528 -9.94522 -20
      vertex 3.09017 -9.51056 -20
    endloop
  endfacet
  facet normal -0.951055 0.309021 0
    outer loop
      vertex -9.78148 2.07912 -20
      vertex -9.13545 4.06737 10
      vertex -9.13545 4.06737 -20
    endloop
  endfacet
  facet normal -0.951055 0.309021 0
    outer loop
      vertex -9.13545 4.06737 10
      vertex -9.78148 2.07912 -20
      vertex -9.78148 2.07912 10
    endloop
  endfacet
  facet normal -0.951055 -0.309021 0
    outer loop
      vertex -9.13545 -4.06737 -20
      vertex -9.78148 -2.07912 10
      vertex -9.78148 -2.07912 -20
    endloop
  endfacet
  facet normal -0.951055 -0.309021 0
    outer loop
      vertex -9.78148 -2.07912 10
      vertex -9.13545 -4.06737 -20
      vertex -9.13545 -4.06737 10
    endloop
  endfacet
  facet normal -0.406736 0.913546 0
    outer loop
      vertex -3.09017 9.51056 -20
      vertex -5 8.66025 10
      vertex -3.09017 9.51056 10
    endloop
  endfacet
  facet normal -0.406736 0.913546 0
    outer loop
      vertex -5 8.66025 10
      vertex -3.09017 9.51056 -20
      vertex -5 8.66025 -20
    endloop
  endfacet
  facet normal 0 0 1
    outer loop
      vertex 9.78148 2.07912 10
      vertex 9.78148 -2.07912 10
      vertex 10 0 10
    endloop
  endfacet
  facet normal 0 0 1
    outer loop
      vertex 9.13545 4.06737 10
      vertex 9.78148 -2.07912 10
      vertex 9.78148 2.07912 10
    endloop
  endfacet
  facet normal 0 0 1
    outer loop
      vertex 9.13545 4.06737 10
      vertex 9.13545 -4.06737 10
      vertex 9.78148 -2.07912 10
    endloop
  endfacet
  facet normal 0 0 1
    outer loop
      vertex 8.09017 5.87785 10
      vertex 9.13545 -4.06737 10
      vertex 9.13545 4.06737 10
    endloop
  endfacet
  facet normal 0 0 1
    outer loop
      vertex 8.09017 5.87785 10
      vertex 8.09017 -5.87785 10
      vertex 9.13545 -4.06737 10
    endloop
  endfacet
  facet normal 0 0 1
    outer loop
      vertex 6.69131 7.43145 10
      vertex 8.09017 -5.87785 10
      vertex 8.09017 5.87785 10
    endloop
  endfacet
  facet normal 0 0 1
    outer loop
      vertex 6.69131 7.43145 10
      vertex 6.69131 -7.43145 10
      vertex 8.09017 -5.87785 10
    endloop
  endfacet
  facet normal 0 0 1
    outer loop
      vertex 5 8.66025 10
      vertex 6.69131 -7.43145 10
      vertex 6.69131 7.43145 10
    endloop
  endfacet
  facet normal 0 0 1
    outer loop
      vertex 5 8.66025 10
      vertex 5 -8.66025 10
      vertex 6.69131 -7.43145 10
    endloop
  endfacet
  facet normal 0 0 1
    outer loop
      vertex 3.09017 9.51056 10
      vertex 5 -8.66025 10
      vertex 5 8.66025 10
    endloop
  endfacet
  facet normal 0 0 1
    outer loop
      vertex 3.09017 9.51056 10
      vertex 3.09017 -9.51056 10
      vertex 5 -8.66025 10
    endloop
  endfacet
  facet normal 0 0 1
    outer loop
      vertex 1.04528 9.94522 10
      vertex 3.09017 -9.51056 10
      vertex 3.09017 9.51056 10
    endloop
  endfacet
  facet normal 0 0 1
    outer loop
      vertex 1.04528 9.94522 10
      vertex 1.04528 -9.94522 10
      vertex 3.09017 -9.51056 10
    endloop
  endfacet
  facet normal -0 0 1
    outer loop
      vertex -1.04528 9.94522 10
      vertex 1.04528 -9.94522 10
      vertex 1.04528 9.94522 10
    endloop
  endfacet
  facet normal 0 0 1
    outer loop
      vertex -1.04528 9.94522 10
      vertex -1.04528 -9.94522 10
      vertex 1.04528 -9.94522 10
    endloop
  endfacet
  facet normal -0 0 1
    outer loop
      vertex -3.09017 9.51056 10
      vertex -1.04528 -9.94522 10
      vertex -1.04528 9.94522 10
    endloop
  endfacet
  facet normal 0 0 1
    outer loop
      vertex -3.09017 9.51056 10
      vertex -3.09017 -9.51056 10
      vertex -1.04528 -9.94522 10
    endloop
  endfacet
  facet normal -0 0 1
    outer loop
      vertex -5 8.66025 10
      vertex -3.09017 -9.51056 10
      vertex -3.09017 9.51056 10
    endloop
  endfacet
  facet normal 0 0 1
    outer loop
      vertex -5 8.66025 10
      vertex -5 -8.66025 10
      vertex -3.09017 -9.51056 10
    endloop
  endfacet
  facet normal -0 0 1
    outer loop
      vertex -6.69131 7.43145 10
      vertex -5 -8.66025 10
      vertex -5 8.66025 10
    endloop
  endfacet
  facet normal 0 0 1
    outer loop
      vertex -6.69131 7.43145 10
      vertex -6.69131 -7.43145 10
      vertex -5 -8.66025 10
    endloop
  endfacet
  facet normal -0 0 1
    outer loop
      vertex -8.09017 5.87785 10
      vertex -6.69131 -7.43145 10
      vertex -6.69131 7.43145 10
    endloop
  endfacet
  facet normal 0 0 1
    outer loop
      vertex -8.09017 5.87785 10
      vertex -8.09017 -5.87785 10
      vertex -6.69131 -7.43145 10
    endloop
  endfacet
  facet normal -0 0 1
    outer loop
      vertex -9.13545 4.06737 10
      vertex -8.09017 -5.87785 10
      vertex -8.09017 5.87785 10
    endloop
  endfacet
  facet normal 0 0 1
    outer loop
      vertex -9.13545 4.06737 10
      vertex -9.13545 -4.06737 10
      vertex -8.09017 -5.87785 10
    endloop
  endfacet
  facet normal -0 0 1
    outer loop
      vertex -9.78148 2.07912 10
      vertex -9.13545 -4.06737 10
      vertex -9.13545 4.06737 10
    endloop
  endfacet
  facet normal 0 0 1
    outer loop
      vertex -9.78148 2.07912 10
      vertex -9.78148 -2.07912 10
      vertex -9.13545 -4.06737 10
    endloop
  endfacet
  facet normal 0 -0 1
    outer loop
      vertex -9.78148 -2.07912 10
      vertex -9.78148 2.07912 10
      vertex -10 0 10
    endloop
  endfacet
  facet normal -0.207914 -0.978147 0
    outer loop
      vertex -3.09017 -9.51056 -20
      vertex -1.04528 -9.94522 10
      vertex -3.09017 -9.51056 10
    endloop
  endfacet
  facet normal -0.207914 -0.978147 -0
    outer loop
      vertex -1.04528 -9.94522 10
      vertex -3.09017 -9.51056 -20
      vertex -1.04528 -9.94522 -20
    endloop
  endfacet
  facet normal 0.207914 0.978147 -0
    outer loop
      vertex 3.09017 9.51056 -20
      vertex 1.04528 9.94522 10
      vertex 3.09017 9.51056 10
    endloop
  endfacet
  facet normal 0.207914 0.978147 0
    outer loop
      vertex 1.04528 9.94522 10
      vertex 3.09017 9.51056 -20
      vertex 1.04528 9.94522 -20
    endloop
  endfacet
  facet normal -0.994522 -0.104526 0
    outer loop
      vertex -9.78148 -2.07912 -20
      vertex -10 0 10
      vertex -10 0 -20
    endloop
  endfacet
  facet normal -0.994522 -0.104526 0
    outer loop
      vertex -10 0 10
      vertex -9.78148 -2.07912 -20
      vertex -9.78148 -2.07912 10
    endloop
  endfacet
  facet normal -0.866026 -0.5 0
    outer loop
      vertex -8.09017 -5.87785 -20
      vertex -9.13545 -4.06737 10
      vertex -9.13545 -4.06737 -20
    endloop
  endfacet
  facet normal -0.866026 -0.5 0
    outer loop
      vertex -9.13545 -4.06737 10
      vertex -8.09017 -5.87785 -20
      vertex -8.09017 -5.87785 10
    endloop
  endfacet
  facet normal -0.866026 0.5 0
    outer loop
      vertex -9.13545 4.06737 -20
      vertex -8.09017 5.87785 10
      vertex -8.09017 5.87785 -20
    endloop
  endfacet
  facet normal -0.866026 0.5 0
    outer loop
      vertex -8.09017 5.87785 10
      vertex -9.13545 4.06737 -20
      vertex -9.13545 4.06737 10
    endloop
  endfacet
  facet normal 0.866026 -0.5 0
    outer loop
      vertex 8.09017 -5.87785 10
      vertex 9.13545 -4.06737 -20
      vertex 9.13545 -4.06737 10
    endloop
  endfacet
  facet normal 0.866026 -0.5 0
    outer loop
      vertex 9.13545 -4.06737 -20
      vertex 8.09017 -5.87785 10
      vertex 8.09017 -5.87785 -20
    endloop
  endfacet
  facet normal 0.587783 0.809019 -0
    outer loop
      vertex 6.69131 7.43145 -20
      vertex 5 8.66025 10
      vertex 6.69131 7.43145 10
    endloop
  endfacet
  facet normal 0.587783 0.809019 0
    outer loop
      vertex 5 8.66025 10
      vertex 6.69131 7.43145 -20
      vertex 5 8.66025 -20
    endloop
  endfacet
  facet normal -0.207914 0.978147 0
    outer loop
      vertex -1.04528 9.94522 -20
      vertex -3.09017 9.51056 10
      vertex -1.04528 9.94522 10
    endloop
  endfacet
  facet normal -0.207914 0.978147 0
    outer loop
      vertex -3.09017 9.51056 10
      vertex -1.04528 9.94522 -20
      vertex -3.09017 9.51056 -20
    endloop
  endfacet
  facet normal 0 -1 0
    outer loop
      vertex -1.04528 -9.94522 -20
      vertex 1.04528 -9.94522 10
      vertex -1.04528 -9.94522 10
    endloop
  endfacet
  facet normal 0 -1 -0
    outer loop
      vertex 1.04528 -9.94522 10
      vertex -1.04528 -9.94522 -20
      vertex 1.04528 -9.94522 -20
    endloop
  endfacet
  facet normal -0.994522 0.104526 0
    outer loop
      vertex -10 0 -20
      vertex -9.78148 2.07912 10
      vertex -9.78148 2.07912 -20
    endloop
  endfacet
  facet normal -0.994522 0.104526 0
    outer loop
      vertex -9.78148 2.07912 10
      vertex -10 0 -20
      vertex -10 0 10
    endloop
  endfacet
  facet normal 0.222525 0.974927 -0
    outer loop
      vertex 1.24698 1.56366 20
      vertex -0.445042 1.94986 30
      vertex 1.24698 1.56366 30
    endloop
  endfacet
  facet normal 0.222525 0.974927 0
    outer loop
      vertex -0.445042 1.94986 30
      vertex 1.24698 1.56366 20
      vertex -0.445042 1.94986 20
    endloop
  endfacet
  facet normal 0.900969 0.433884 0
    outer loop
      vertex 2 0 30
      vertex 1.24698 1.56366 20
      vertex 1.24698 1.56366 30
    endloop
  endfacet
  facet normal 0.900969 0.433884 0
    outer loop
      vertex 1.24698 1.56366 20
      vertex 2 0 30
      vertex 2 0 20
    endloop
  endfacet
  facet normal 0.900969 -0.433884 0
    outer loop
      vertex 1.24698 -1.56366 30
      vertex 2 0 20
      vertex 2 0 30
    endloop
  endfacet
  facet normal 0.900969 -0.433884 0
    outer loop
      vertex 2 0 20
      vertex 1.24698 -1.56366 30
      vertex 1.24698 -1.56366 20
    endloop
  endfacet
  facet normal 0 0 1
    outer loop
      vertex 1.24698 1.56366 30
      vertex 1.24698 -1.56366 30
      vertex 2 0 30
    endloop
  endfacet
  facet normal 0 0 1
    outer loop
      vertex -0.445042 1.94986 30
      vertex 1.24698 -1.56366 30
      vertex 1.24698 1.56366 30
    endloop
  endfacet
  facet normal 0 0 1
    outer loop
      vertex -0.445042 1.94986 30
      vertex -0.445042 -1.94986 30
      vertex 1.24698 -1.56366 30
    endloop
  endfacet
  facet normal -0 0 1
    outer loop
      vertex -1.80194 0.867767 30
      vertex -0.445042 -1.94986 30
      vertex -0.445042 1.94986 30
    endloop
  endfacet
  facet normal 0 0 1
    outer loop
      vertex -0.445042 -1.94986 30
      vertex -1.80194 0.867767 30
      vertex -1.80194 -0.867767 30
    endloop
  endfacet
  facet normal -0.623491 -0.781831 0
    outer loop
      vertex -1.80194 -0.867767 20
      vertex -0.445042 -1.94986 30
      vertex -1.80194 -0.867767 30
    endloop
  endfacet
  facet normal -0.623491 -0.781831 -0
    outer loop
      vertex -0.445042 -1.94986 30
      vertex -1.80194 -0.867767 20
      vertex -0.445042 -1.94986 20
    endloop
  endfacet
  facet normal 0.222525 -0.974927 0
    outer loop
      vertex -0.445042 -1.94986 20
      vertex 1.24698 -1.56366 30
      vertex -0.445042 -1.94986 30
    endloop
  endfacet
  facet normal 0.222525 -0.974927 0
    outer loop
      vertex 1.24698 -1.56366 30
      vertex -0.445042 -1.94986 20
      vertex 1.24698 -1.56366 20
    endloop
  endfacet
  facet normal 0 0 -1
    outer loop
      vertex 1.24698 -1.56366 20
      vertex 1.24698 1.56366 20
      vertex 2 0 20
    endloop
  endfacet
  facet normal 0 0 -1
    outer loop
      vertex -0.445042 -1.94986 20
      vertex 1.24698 1.56366 20
      vertex 1.24698 -1.56366 20
    endloop
  endfacet
  facet normal 0 0 -1
    outer loop
      vertex -0.445042 -1.94986 20
      vertex -0.445042 1.94986 20
      vertex 1.24698 1.56366 20
    endloop
  endfacet
  facet normal 0 0 -1
    outer loop
      vertex -1.80194 -0.867767 20
      vertex -0.445042 1.94986 20
      vertex -0.445042 -1.94986 20
    endloop
  endfacet
  facet normal 0 0 -1
    outer loop
      vertex -0.445042 1.94986 20
      vertex -1.80194 -0.867767 20
      vertex -1.80194 0.867767 20
    endloop
  endfacet
  facet normal -1 0 0
    outer loop
      vertex -1.80194 -0.867767 20
      vertex -1.80194 0.867767 30
      vertex -1.80194 0.867767 20
    endloop
  endfacet
  facet normal -1 -0 0
    outer loop
      vertex -1.80194 0.867767 30
      vertex -1.80194 -0.867767 20
      vertex -1.80194 -0.867767 30
    endloop
  endfacet
  facet normal -0.623491 0.781831 0
    outer loop
      vertex -0.445042 1.94986 20
      vertex -1.80194 0.867767 30
      vertex -0.445042 1.94986 30
    endloop
  endfacet
  facet normal -0.623491 0.781831 0
    outer loop
      vertex -1.80194 0.867767 30
      vertex -0.445042 1.94986 20
      vertex -1.80194 0.867767 20
    endloop
  endfacet
  facet normal 0 0 -1
    outer loop
      vertex 9.78148 -2.07912 -20
      vertex 9.78148 2.07912 -20
      vertex 10 0 -20
    endloop
  endfacet
  facet normal 0 0 -1
    outer loop
      vertex 9.13545 -4.06737 -20
      vertex 9.78148 2.07912 -20
      vertex 9.78148 -2.07912 -20
    endloop
  endfacet
  facet normal 0 0 -1
    outer loop
      vertex 9.13545 -4.06737 -20
      vertex 9.13545 4.06737 -20
      vertex 9.78148 2.07912 -20
    endloop
  endfacet
  facet normal 0 0 -1
    outer loop
      vertex 8.09017 -5.87785 -20
      vertex 9.13545 4.06737 -20
      vertex 9.13545 -4.06737 -20
    endloop
  endfacet
  facet normal 0 0 -1
    outer loop
      vertex 8.09017 -5.87785 -20
      vertex 8.09017 5.87785 -20
      vertex 9.13545 4.06737 -20
    endloop
  endfacet
  facet normal 0 0 -1
    outer loop
      vertex 6.69131 -7.43145 -20
      vertex 8.09017 5.87785 -20
      vertex 8.09017 -5.87785 -20
    endloop
  endfacet
  facet normal 0 0 -1
    outer loop
      vertex 6.69131 -7.43145 -20
      vertex 6.69131 7.43145 -20
      vertex 8.09017 5.87785 -20
    endloop
  endfacet
  facet normal 0 0 -1
    outer loop
      vertex 5 -8.66025 -20
      vertex 6.69131 7.43145 -20
      vertex 6.69131 -7.43145 -20
    endloop
  endfacet
  facet normal 0 0 -1
    outer loop
      vertex 5 -8.66025 -20
      vertex 5 8.66025 -20
      vertex 6.69131 7.43145 -20
    endloop
  endfacet
  facet normal 0 0 -1
    outer loop
      vertex 3.09017 -9.51056 -20
      vertex 5 8.66025 -20
      vertex 5 -8.66025 -20
    endloop
  endfacet
  facet normal 0 0 -1
    outer loop
      vertex 3.09017 -9.51056 -20
      vertex 3.09017 9.51056 -20
      vertex 5 8.66025 -20
    endloop
  endfacet
  facet normal 0 0 -1
    outer loop
      vertex 1.04528 -9.94522 -20
      vertex 3.09017 9.51056 -20
      vertex 3.09017 -9.51056 -20
    endloop
  endfacet
  facet normal 0 0 -1
    outer loop
      vertex 1.04528 -9.94522 -20
      vertex 1.04528 9.94522 -20
      vertex 3.09017 9.51056 -20
    endloop
  endfacet
  facet normal 0 0 -1
    outer loop
      vertex -1.04528 -9.94522 -20
      vertex 1.04528 9.94522 -20
      vertex 1.04528 -9.94522 -20
    endloop
  endfacet
  facet normal 0 0 -1
    outer loop
      vertex -1.04528 -9.94522 -20
      vertex -1.04528 9.94522 -20
      vertex 1.04528 9.94522 -20
    endloop
  endfacet
  facet normal 0 0 -1
    outer loop
      vertex -3.09017 -9.51056 -20
      vertex -1.04528 9.94522 -20
      vertex -1.04528 -9.94522 -20
    endloop
  endfacet
  facet normal 0 0 -1
    outer loop
      vertex -3.09017 -9.51056 -20
      vertex -3.09017 9.51056 -20
      vertex -1.04528 9.94522 -20
    endloop
  endfacet
  facet normal 0 0 -1
    outer loop
      vertex -5 -8.66025 -20
      vertex -3.09017 9.51056 -20
      vertex -3.09017 -9.51056 -20
    endloop
  endfacet
  facet normal 0 0 -1
    outer loop
      vertex -5 -8.66025 -20
      vertex -5 8.66025 -20
      vertex -3.09017 9.51056 -20
    endloop
  endfacet
  facet normal 0 0 -1
    outer loop
      vertex -6.69131 -7.43145 -20
      vertex -5 8.66025 -20
      vertex -5 -8.66025 -20
    endloop
  endfacet
  facet normal 0 0 -1
    outer loop
      vertex -6.69131 -7.43145 -20
      vertex -6.69131 7.43145 -20
      vertex -5 8.66025 -20
    endloop
  endfacet
  facet normal 0 0 -1
    outer loop
      vertex -8.09017 -5.87785 -20
      vertex -6.69131 7.43145 -20
      vertex -6.69131 -7.43145 -20
    endloop
  endfacet
  facet normal 0 0 -1
    outer loop
      vertex -8.09017 -5.87785 -20
      vertex -8.09017 5.87785 -20
      vertex -6.69131 7.43145 -20
    endloop
  endfacet
  facet normal 0 0 -1
    outer loop
      vertex -9.13545 -4.06737 -20
      vertex -8.09017 5.87785 -20
      vertex -8.09017 -5.87785 -20
    endloop
  endfacet
  facet normal 0 0 -1
    outer loop
      vertex -9.13545 -4.06737 -20
      vertex -9.13545 4.06737 -20
      vertex -8.09017 5.87785 -20
    endloop
  endfacet
  facet normal 0 0 -1
    outer loop
      vertex -9.78148 -2.07912 -20
      vertex -9.13545 4.06737 -20
      vertex -9.13545 -4.06737 -20
    endloop
  endfacet
  facet normal 0 0 -1
    outer loop
      vertex -9.78148 -2.07912 -20
      vertex -9.78148 2.07912 -20
      vertex -9.13545 4.06737 -20
    endloop
  endfacet
  facet normal 0 -0 -1
    outer loop
      vertex -9.78148 2.07912 -20
      vertex -9.78148 -2.07912 -20
      vertex -10 0 -20
    endloop
  endfacet
  facet normal -0 0.587796 0.809009
    outer loop
      vertex 2.5 1.42658 15.4635
      vertex 8.5 0 16.5
      vertex 8.5 1.42658 15.4635
    endloop
  endfacet
  facet normal 0 0.587796 0.809009
    outer loop
      vertex 8.5 0 16.5
      vertex 2.5 1.42658 15.4635
      vertex 2.5 0 16.5
    endloop
  endfacet
  facet normal 0 -0.951055 -0.309023
    outer loop
      vertex 2.5 -0.881678 13.7865
      vertex 8.5 -1.42658 15.4635
      vertex 2.5 -1.42658 15.4635
    endloop
  endfacet
  facet normal 0 -0.951055 -0.309023
    outer loop
      vertex 8.5 -1.42658 15.4635
      vertex 2.5 -0.881678 13.7865
      vertex 8.5 -0.881678 13.7865
    endloop
  endfacet
  facet normal 1 0 0
    outer loop
      vertex 8.5 0 16.5
      vertex 8.5 0.881678 13.7865
      vertex 8.5 1.42658 15.4635
    endloop
  endfacet
  facet normal 1 0 0
    outer loop
      vertex 8.5 0 16.5
      vertex 8.5 -0.881678 13.7865
      vertex 8.5 0.881678 13.7865
    endloop
  endfacet
  facet normal 1 0 -0
    outer loop
      vertex 8.5 -0.881678 13.7865
      vertex 8.5 0 16.5
      vertex 8.5 -1.42658 15.4635
    endloop
  endfacet
  facet normal 0 0 -1
    outer loop
      vertex 2.5 -0.881678 13.7865
      vertex 8.5 0.881678 13.7865
      vertex 8.5 -0.881678 13.7865
    endloop
  endfacet
  facet normal -0 0 -1
    outer loop
      vertex 8.5 0.881678 13.7865
      vertex 2.5 -0.881678 13.7865
      vertex 2.5 0.881678 13.7865
    endloop
  endfacet
  facet normal -1 0 0
    outer loop
      vertex 2.5 0.881678 13.7865
      vertex 2.5 0 16.5
      vertex 2.5 1.42658 15.4635
    endloop
  endfacet
  facet normal -1 0 0
    outer loop
      vertex 2.5 -0.881678 13.7865
      vertex 2.5 0 16.5
      vertex 2.5 0.881678 13.7865
    endloop
  endfacet
  facet normal -1 0 0
    outer loop
      vertex 2.5 0 16.5
      vertex 2.5 -0.881678 13.7865
      vertex 2.5 -1.42658 15.4635
    endloop
  endfacet
  facet normal 0 -0.587796 0.809009
    outer loop
      vertex 2.5 0 16.5
      vertex 8.5 -1.42658 15.4635
      vertex 8.5 0 16.5
    endloop
  endfacet
  facet normal 0 -0.587796 0.809009
    outer loop
      vertex 8.5 -1.42658 15.4635
      vertex 2.5 0 16.5
      vertex 2.5 -1.42658 15.4635
    endloop
  endfacet
  facet normal 0 0.951055 -0.309023
    outer loop
      vertex 8.5 0.881678 13.7865
      vertex 2.5 1.42658 15.4635
      vertex 8.5 1.42658 15.4635
    endloop
  endfacet
  facet normal 0 0.951055 -0.309023
    outer loop
      vertex 2.5 1.42658 15.4635
      vertex 8.5 0.881678 13.7865
      vertex 2.5 0.881678 13.7865
    endloop
  endfacet
endsolid OpenSCAD_Model
