solid OpenSCAD_Model
  facet normal 1 -0 0
    outer loop
      vertex 25 -15 0.25
      vertex 25 15 -0.25
      vertex 25 15 0.25
    endloop
  endfacet
  facet normal 1 0 0
    outer loop
      vertex 25 15 -0.25
      vertex 25 -15 0.25
      vertex 25 -15 -0.25
    endloop
  endfacet
  facet normal -0 0 1
    outer loop
      vertex -25 15 0.25
      vertex 25 -15 0.25
      vertex 25 15 0.25
    endloop
  endfacet
  facet normal 0 0 1
    outer loop
      vertex 25 -15 0.25
      vertex -25 15 0.25
      vertex -25 -15 0.25
    endloop
  endfacet
  facet normal 0 0 -1
    outer loop
      vertex -25 -15 -0.25
      vertex 25 15 -0.25
      vertex 25 -15 -0.25
    endloop
  endfacet
  facet normal -0 0 -1
    outer loop
      vertex 25 15 -0.25
      vertex -25 -15 -0.25
      vertex -25 15 -0.25
    endloop
  endfacet
  facet normal -1 0 0
    outer loop
      vertex -25 -15 -0.25
      vertex -25 15 0.25
      vertex -25 15 -0.25
    endloop
  endfacet
  facet normal -1 -0 0
    outer loop
      vertex -25 15 0.25
      vertex -25 -15 -0.25
      vertex -25 -15 0.25
    endloop
  endfacet
  facet normal 0 1 -0
    outer loop
      vertex 25 15 -0.25
      vertex -25 15 0.25
      vertex 25 15 0.25
    endloop
  endfacet
  facet normal 0 1 0
    outer loop
      vertex -25 15 0.25
      vertex 25 15 -0.25
      vertex -25 15 -0.25
    endloop
  endfacet
  facet normal 0 -1 0
    outer loop
      vertex -25 -15 -0.25
      vertex 25 -15 0.25
      vertex -25 -15 0.25
    endloop
  endfacet
  facet normal 0 -1 -0
    outer loop
      vertex 25 -15 0.25
      vertex -25 -15 -0.25
      vertex 25 -15 -0.25
    endloop
  endfacet
  facet normal 1 -0 0
    outer loop
      vertex 25 -15 1.25
      vertex 25 15 0.75
      vertex 25 15 1.25
    endloop
  endfacet
  facet normal 1 0 0
    outer loop
      vertex 25 15 0.75
      vertex 25 -15 1.25
      vertex 25 -15 0.75
    endloop
  endfacet
  facet normal -0 0 1
    outer loop
      vertex -25 15 1.25
      vertex 25 -15 1.25
      vertex 25 15 1.25
    endloop
  endfacet
  facet normal 0 0 1
    outer loop
      vertex 25 -15 1.25
      vertex -25 15 1.25
      vertex -25 -15 1.25
    endloop
  endfacet
  facet normal 0 0 -1
    outer loop
      vertex -25 -15 0.75
      vertex 25 15 0.75
      vertex 25 -15 0.75
    endloop
  endfacet
  facet normal -0 0 -1
    outer loop
      vertex 25 15 0.75
      vertex -25 -15 0.75
      vertex -25 15 0.75
    endloop
  endfacet
  facet normal -1 0 0
    outer loop
      vertex -25 -15 0.75
      vertex -25 15 1.25
      vertex -25 15 0.75
    endloop
  endfacet
  facet normal -1 -0 0
    outer loop
      vertex -25 15 1.25
      vertex -25 -15 0.75
      vertex -25 -15 1.25
    endloop
  endfacet
  facet normal 0 1 -0
    outer loop
      vertex 25 15 0.75
      vertex -25 15 1.25
      vertex 25 15 1.25
    endloop
  endfacet
  facet normal 0 1 0
    outer loop
      vertex -25 15 1.25
      vertex 25 15 0.75
      vertex -25 15 0.75
    endloop
  endfacet
  facet normal 0 -1 0
    outer loop
      vertex -25 -15 0.75
      vertex 25 -15 1.25
      vertex -25 -15 1.25
    endloop
  endfacet
  facet normal 0 -1 -0
    outer loop
      vertex 25 -15 1.25
      vertex -25 -15 0.75
      vertex 25 -15 0.75
    endloop
  endfacet
  facet normal 1 -0 0
    outer loop
      vertex 25 -15 2.25
      vertex 25 15 1.75
      vertex 25 15 2.25
    endloop
  endfacet
  facet normal 1 0 0
    outer loop
      vertex 25 15 1.75
      vertex 25 -15 2.25
      vertex 25 -15 1.75
    endloop
  endfacet
  facet normal -0 0 1
    outer loop
      vertex -25 15 2.25
      vertex 25 -15 2.25
      vertex 25 15 2.25
    endloop
  endfacet
  facet normal 0 0 1
    outer loop
      vertex 25 -15 2.25
      vertex -25 15 2.25
      vertex -25 -15 2.25
    endloop
  endfacet
  facet normal 0 0 -1
    outer loop
      vertex -25 -15 1.75
      vertex 25 15 1.75
      vertex 25 -15 1.75
    endloop
  endfacet
  facet normal -0 0 -1
    outer loop
      vertex 25 15 1.75
      vertex -25 -15 1.75
      vertex -25 15 1.75
    endloop
  endfacet
  facet normal -1 0 0
    outer loop
      vertex -25 -15 1.75
      vertex -25 15 2.25
      vertex -25 15 1.75
    endloop
  endfacet
  facet normal -1 -0 0
    outer loop
      vertex -25 15 2.25
      vertex -25 -15 1.75
      vertex -25 -15 2.25
    endloop
  endfacet
  facet normal 0 1 -0
    outer loop
      vertex 25 15 1.75
      vertex -25 15 2.25
      vertex 25 15 2.25
    endloop
  endfacet
  facet normal 0 1 0
    outer loop
      vertex -25 15 2.25
      vertex 25 15 1.75
      vertex -25 15 1.75
    endloop
  endfacet
  facet normal 0 -1 0
    outer loop
      vertex -25 -15 1.75
      vertex 25 -15 2.25
      vertex -25 -15 2.25
    endloop
  endfacet
  facet normal 0 -1 -0
    outer loop
      vertex 25 -15 2.25
      vertex -25 -15 1.75
      vertex 25 -15 1.75
    endloop
  endfacet
  facet normal 1 -0 0
    outer loop
      vertex 25 -15 3.25
      vertex 25 15 2.75
      vertex 25 15 3.25
    endloop
  endfacet
  facet normal 1 0 0
    outer loop
      vertex 25 15 2.75
      vertex 25 -15 3.25
      vertex 25 -15 2.75
    endloop
  endfacet
  facet normal -0 0 1
    outer loop
      vertex -25 15 3.25
      vertex 25 -15 3.25
      vertex 25 15 3.25
    endloop
  endfacet
  facet normal 0 0 1
    outer loop
      vertex 25 -15 3.25
      vertex -25 15 3.25
      vertex -25 -15 3.25
    endloop
  endfacet
  facet normal 0 0 -1
    outer loop
      vertex -25 -15 2.75
      vertex 25 15 2.75
      vertex 25 -15 2.75
    endloop
  endfacet
  facet normal -0 0 -1
    outer loop
      vertex 25 15 2.75
      vertex -25 -15 2.75
      vertex -25 15 2.75
    endloop
  endfacet
  facet normal -1 0 0
    outer loop
      vertex -25 -15 2.75
      vertex -25 15 3.25
      vertex -25 15 2.75
    endloop
  endfacet
  facet normal -1 -0 0
    outer loop
      vertex -25 15 3.25
      vertex -25 -15 2.75
      vertex -25 -15 3.25
    endloop
  endfacet
  facet normal 0 1 -0
    outer loop
      vertex 25 15 2.75
      vertex -25 15 3.25
      vertex 25 15 3.25
    endloop
  endfacet
  facet normal 0 1 0
    outer loop
      vertex -25 15 3.25
      vertex 25 15 2.75
      vertex -25 15 2.75
    endloop
  endfacet
  facet normal 0 -1 0
    outer loop
      vertex -25 -15 2.75
      vertex 25 -15 3.25
      vertex -25 -15 3.25
    endloop
  endfacet
  facet normal 0 -1 -0
    outer loop
      vertex 25 -15 3.25
      vertex -25 -15 2.75
      vertex 25 -15 2.75
    endloop
  endfacet
  facet normal 1 -0 0
    outer loop
      vertex 25 -15 4.25
      vertex 25 15 3.75
      vertex 25 15 4.25
    endloop
  endfacet
  facet normal 1 0 0
    outer loop
      vertex 25 15 3.75
      vertex 25 -15 4.25
      vertex 25 -15 3.75
    endloop
  endfacet
  facet normal -0 0 1
    outer loop
      vertex -25 15 4.25
      vertex 25 -15 4.25
      vertex 25 15 4.25
    endloop
  endfacet
  facet normal 0 0 1
    outer loop
      vertex 25 -15 4.25
      vertex -25 15 4.25
      vertex -25 -15 4.25
    endloop
  endfacet
  facet normal 0 0 -1
    outer loop
      vertex -25 -15 3.75
      vertex 25 15 3.75
      vertex 25 -15 3.75
    endloop
  endfacet
  facet normal -0 0 -1
    outer loop
      vertex 25 15 3.75
      vertex -25 -15 3.75
      vertex -25 15 3.75
    endloop
  endfacet
  facet normal -1 0 0
    outer loop
      vertex -25 -15 3.75
      vertex -25 15 4.25
      vertex -25 15 3.75
    endloop
  endfacet
  facet normal -1 -0 0
    outer loop
      vertex -25 15 4.25
      vertex -25 -15 3.75
      vertex -25 -15 4.25
    endloop
  endfacet
  facet normal 0 1 -0
    outer loop
      vertex 25 15 3.75
      vertex -25 15 4.25
      vertex 25 15 4.25
    endloop
  endfacet
  facet normal 0 1 0
    outer loop
      vertex -25 15 4.25
      vertex 25 15 3.75
      vertex -25 15 3.75
    endloop
  endfacet
  facet normal 0 -1 0
    outer loop
      vertex -25 -15 3.75
      vertex 25 -15 4.25
      vertex -25 -15 4.25
    endloop
  endfacet
  facet normal 0 -1 -0
    outer loop
      vertex 25 -15 4.25
      vertex -25 -15 3.75
      vertex 25 -15 3.75
    endloop
  endfacet
  facet normal 1 -0 0
    outer loop
      vertex 25 -15 5.25
      vertex 25 15 4.75
      vertex 25 15 5.25
    endloop
  endfacet
  facet normal 1 0 0
    outer loop
      vertex 25 15 4.75
      vertex 25 -15 5.25
      vertex 25 -15 4.75
    endloop
  endfacet
  facet normal -0 0 1
    outer loop
      vertex -25 15 5.25
      vertex 25 -15 5.25
      vertex 25 15 5.25
    endloop
  endfacet
  facet normal 0 0 1
    outer loop
      vertex 25 -15 5.25
      vertex -25 15 5.25
      vertex -25 -15 5.25
    endloop
  endfacet
  facet normal 0 0 -1
    outer loop
      vertex -25 -15 4.75
      vertex 25 15 4.75
      vertex 25 -15 4.75
    endloop
  endfacet
  facet normal -0 0 -1
    outer loop
      vertex 25 15 4.75
      vertex -25 -15 4.75
      vertex -25 15 4.75
    endloop
  endfacet
  facet normal -1 0 0
    outer loop
      vertex -25 -15 4.75
      vertex -25 15 5.25
      vertex -25 15 4.75
    endloop
  endfacet
  facet normal -1 -0 0
    outer loop
      vertex -25 15 5.25
      vertex -25 -15 4.75
      vertex -25 -15 5.25
    endloop
  endfacet
  facet normal 0 1 -0
    outer loop
      vertex 25 15 4.75
      vertex -25 15 5.25
      vertex 25 15 5.25
    endloop
  endfacet
  facet normal 0 1 0
    outer loop
      vertex -25 15 5.25
      vertex 25 15 4.75
      vertex -25 15 4.75
    endloop
  endfacet
  facet normal 0 -1 0
    outer loop
      vertex -25 -15 4.75
      vertex 25 -15 5.25
      vertex -25 -15 5.25
    endloop
  endfacet
  facet normal 0 -1 -0
    outer loop
      vertex 25 -15 5.25
      vertex -25 -15 4.75
      vertex 25 -15 4.75
    endloop
  endfacet
endsolid OpenSCAD_Model
