solid OpenSCAD_Model
  facet normal -0.40674 -0.913544 0
    outer loop
      vertex -12.5 -21.6506 -10
      vertex -7.72542 -23.7764 20
      vertex -12.5 -21.6506 20
    endloop
  endfacet
  facet normal -0.40674 -0.913544 -0
    outer loop
      vertex -7.72542 -23.7764 20
      vertex -12.5 -21.6506 -10
      vertex -7.72542 -23.7764 -10
    endloop
  endfacet
  facet normal -0.951054 -0.309026 0
    outer loop
      vertex -22.8386 -10.1684 -10
      vertex -24.4537 -5.19779 20
      vertex -24.4537 -5.19779 -10
    endloop
  endfacet
  facet normal -0.951054 -0.309026 0
    outer loop
      vertex -24.4537 -5.19779 20
      vertex -22.8386 -10.1684 -10
      vertex -22.8386 -10.1684 20
    endloop
  endfacet
  facet normal 0.951054 0.309026 0
    outer loop
      vertex 24.4537 5.19779 20
      vertex 22.8386 10.1684 -10
      vertex 22.8386 10.1684 20
    endloop
  endfacet
  facet normal 0.951054 0.309026 0
    outer loop
      vertex 22.8386 10.1684 -10
      vertex 24.4537 5.19779 20
      vertex 24.4537 5.19779 -10
    endloop
  endfacet
  facet normal 0.994522 0.104527 0
    outer loop
      vertex 25 0 20
      vertex 24.4537 5.19779 -10
      vertex 24.4537 5.19779 20
    endloop
  endfacet
  facet normal 0.994522 0.104527 0
    outer loop
      vertex 24.4537 5.19779 -10
      vertex 25 0 20
      vertex 25 0 -10
    endloop
  endfacet
  facet normal 0.866026 0.5 0
    outer loop
      vertex 22.8386 10.1684 20
      vertex 20.2254 14.6946 -10
      vertex 20.2254 14.6946 20
    endloop
  endfacet
  facet normal 0.866026 0.5 0
    outer loop
      vertex 20.2254 14.6946 -10
      vertex 22.8386 10.1684 20
      vertex 22.8386 10.1684 -10
    endloop
  endfacet
  facet normal 0.58778 -0.809021 0
    outer loop
      vertex 12.5 -21.6506 -10
      vertex 16.7283 -18.5786 20
      vertex 12.5 -21.6506 20
    endloop
  endfacet
  facet normal 0.58778 -0.809021 0
    outer loop
      vertex 16.7283 -18.5786 20
      vertex 12.5 -21.6506 -10
      vertex 16.7283 -18.5786 -10
    endloop
  endfacet
  facet normal 0.40674 0.913544 -0
    outer loop
      vertex 12.5 21.6506 -10
      vertex 7.72542 23.7764 20
      vertex 12.5 21.6506 20
    endloop
  endfacet
  facet normal 0.40674 0.913544 0
    outer loop
      vertex 7.72542 23.7764 20
      vertex 12.5 21.6506 -10
      vertex 7.72542 23.7764 -10
    endloop
  endfacet
  facet normal 0.994522 -0.104527 0
    outer loop
      vertex 24.4537 -5.19779 20
      vertex 25 0 -10
      vertex 25 0 20
    endloop
  endfacet
  facet normal 0.994522 -0.104527 0
    outer loop
      vertex 25 0 -10
      vertex 24.4537 -5.19779 20
      vertex 24.4537 -5.19779 -10
    endloop
  endfacet
  facet normal 0.743151 0.669123 0
    outer loop
      vertex 20.2254 14.6946 20
      vertex 16.7283 18.5786 -10
      vertex 16.7283 18.5786 20
    endloop
  endfacet
  facet normal 0.743151 0.669123 0
    outer loop
      vertex 16.7283 18.5786 -10
      vertex 20.2254 14.6946 20
      vertex 20.2254 14.6946 -10
    endloop
  endfacet
  facet normal -0.866026 0.5 0
    outer loop
      vertex -22.8386 10.1684 -10
      vertex -20.2254 14.6946 20
      vertex -20.2254 14.6946 -10
    endloop
  endfacet
  facet normal -0.866026 0.5 0
    outer loop
      vertex -20.2254 14.6946 20
      vertex -22.8386 10.1684 -10
      vertex -22.8386 10.1684 20
    endloop
  endfacet
  facet normal 0.743151 -0.669123 0
    outer loop
      vertex 16.7283 -18.5786 20
      vertex 20.2254 -14.6946 -10
      vertex 20.2254 -14.6946 20
    endloop
  endfacet
  facet normal 0.743151 -0.669123 0
    outer loop
      vertex 20.2254 -14.6946 -10
      vertex 16.7283 -18.5786 20
      vertex 16.7283 -18.5786 -10
    endloop
  endfacet
  facet normal -0.743151 0.669123 0
    outer loop
      vertex -20.2254 14.6946 -10
      vertex -16.7283 18.5786 20
      vertex -16.7283 18.5786 -10
    endloop
  endfacet
  facet normal -0.743151 0.669123 0
    outer loop
      vertex -16.7283 18.5786 20
      vertex -20.2254 14.6946 -10
      vertex -20.2254 14.6946 20
    endloop
  endfacet
  facet normal 0.866026 -0.5 0
    outer loop
      vertex 20.2254 -14.6946 20
      vertex 22.8386 -10.1684 -10
      vertex 22.8386 -10.1684 20
    endloop
  endfacet
  facet normal 0.866026 -0.5 0
    outer loop
      vertex 22.8386 -10.1684 -10
      vertex 20.2254 -14.6946 20
      vertex 20.2254 -14.6946 -10
    endloop
  endfacet
  facet normal -0.58778 0.809021 0
    outer loop
      vertex -12.5 21.6506 -10
      vertex -16.7283 18.5786 20
      vertex -12.5 21.6506 20
    endloop
  endfacet
  facet normal -0.58778 0.809021 0
    outer loop
      vertex -16.7283 18.5786 20
      vertex -12.5 21.6506 -10
      vertex -16.7283 18.5786 -10
    endloop
  endfacet
  facet normal 0 0 1
    outer loop
      vertex 24.4537 5.19779 20
      vertex 24.4537 -5.19779 20
      vertex 25 0 20
    endloop
  endfacet
  facet normal 0 0 1
    outer loop
      vertex 22.8386 10.1684 20
      vertex 24.4537 -5.19779 20
      vertex 24.4537 5.19779 20
    endloop
  endfacet
  facet normal 0 0 1
    outer loop
      vertex 22.8386 10.1684 20
      vertex 22.8386 -10.1684 20
      vertex 24.4537 -5.19779 20
    endloop
  endfacet
  facet normal 0 0 1
    outer loop
      vertex 20.2254 14.6946 20
      vertex 22.8386 -10.1684 20
      vertex 22.8386 10.1684 20
    endloop
  endfacet
  facet normal 0 0 1
    outer loop
      vertex 20.2254 14.6946 20
      vertex 20.2254 -14.6946 20
      vertex 22.8386 -10.1684 20
    endloop
  endfacet
  facet normal 0 0 1
    outer loop
      vertex 16.7283 18.5786 20
      vertex 20.2254 -14.6946 20
      vertex 20.2254 14.6946 20
    endloop
  endfacet
  facet normal 0 0 1
    outer loop
      vertex 16.7283 18.5786 20
      vertex 16.7283 -18.5786 20
      vertex 20.2254 -14.6946 20
    endloop
  endfacet
  facet normal 0 0 1
    outer loop
      vertex 12.5 21.6506 20
      vertex 16.7283 -18.5786 20
      vertex 16.7283 18.5786 20
    endloop
  endfacet
  facet normal 0 0 1
    outer loop
      vertex 12.5 21.6506 20
      vertex 12.5 -21.6506 20
      vertex 16.7283 -18.5786 20
    endloop
  endfacet
  facet normal 0 0 1
    outer loop
      vertex 7.72542 23.7764 20
      vertex 12.5 -21.6506 20
      vertex 12.5 21.6506 20
    endloop
  endfacet
  facet normal 0 0 1
    outer loop
      vertex 7.72542 23.7764 20
      vertex 7.72542 -23.7764 20
      vertex 12.5 -21.6506 20
    endloop
  endfacet
  facet normal 0 0 1
    outer loop
      vertex 2.61321 24.863 20
      vertex 7.72542 -23.7764 20
      vertex 7.72542 23.7764 20
    endloop
  endfacet
  facet normal 0 0 1
    outer loop
      vertex 2.61321 24.863 20
      vertex 2.61321 -24.863 20
      vertex 7.72542 -23.7764 20
    endloop
  endfacet
  facet normal -0 0 1
    outer loop
      vertex -2.61321 24.863 20
      vertex 2.61321 -24.863 20
      vertex 2.61321 24.863 20
    endloop
  endfacet
  facet normal 0 0 1
    outer loop
      vertex -2.61321 24.863 20
      vertex -2.61321 -24.863 20
      vertex 2.61321 -24.863 20
    endloop
  endfacet
  facet normal -0 0 1
    outer loop
      vertex -7.72542 23.7764 20
      vertex -2.61321 -24.863 20
      vertex -2.61321 24.863 20
    endloop
  endfacet
  facet normal 0 0 1
    outer loop
      vertex -7.72542 23.7764 20
      vertex -7.72542 -23.7764 20
      vertex -2.61321 -24.863 20
    endloop
  endfacet
  facet normal -0 0 1
    outer loop
      vertex -12.5 21.6506 20
      vertex -7.72542 -23.7764 20
      vertex -7.72542 23.7764 20
    endloop
  endfacet
  facet normal 0 0 1
    outer loop
      vertex -12.5 21.6506 20
      vertex -12.5 -21.6506 20
      vertex -7.72542 -23.7764 20
    endloop
  endfacet
  facet normal -0 0 1
    outer loop
      vertex -16.7283 18.5786 20
      vertex -12.5 -21.6506 20
      vertex -12.5 21.6506 20
    endloop
  endfacet
  facet normal 0 0 1
    outer loop
      vertex -16.7283 18.5786 20
      vertex -16.7283 -18.5786 20
      vertex -12.5 -21.6506 20
    endloop
  endfacet
  facet normal -0 0 1
    outer loop
      vertex -20.2254 14.6946 20
      vertex -16.7283 -18.5786 20
      vertex -16.7283 18.5786 20
    endloop
  endfacet
  facet normal 0 0 1
    outer loop
      vertex -20.2254 14.6946 20
      vertex -20.2254 -14.6946 20
      vertex -16.7283 -18.5786 20
    endloop
  endfacet
  facet normal -0 0 1
    outer loop
      vertex -22.8386 10.1684 20
      vertex -20.2254 -14.6946 20
      vertex -20.2254 14.6946 20
    endloop
  endfacet
  facet normal 0 0 1
    outer loop
      vertex -22.8386 10.1684 20
      vertex -22.8386 -10.1684 20
      vertex -20.2254 -14.6946 20
    endloop
  endfacet
  facet normal -0 0 1
    outer loop
      vertex -24.4537 5.19779 20
      vertex -22.8386 -10.1684 20
      vertex -22.8386 10.1684 20
    endloop
  endfacet
  facet normal 0 0 1
    outer loop
      vertex -24.4537 5.19779 20
      vertex -24.4537 -5.19779 20
      vertex -22.8386 -10.1684 20
    endloop
  endfacet
  facet normal 0 -0 1
    outer loop
      vertex -24.4537 -5.19779 20
      vertex -24.4537 5.19779 20
      vertex -25 0 20
    endloop
  endfacet
  facet normal 0.951054 -0.309026 0
    outer loop
      vertex 22.8386 -10.1684 20
      vertex 24.4537 -5.19779 -10
      vertex 24.4537 -5.19779 20
    endloop
  endfacet
  facet normal 0.951054 -0.309026 0
    outer loop
      vertex 24.4537 -5.19779 -10
      vertex 22.8386 -10.1684 20
      vertex 22.8386 -10.1684 -10
    endloop
  endfacet
  facet normal 0 1 -0
    outer loop
      vertex 2.61321 24.863 -10
      vertex -2.61321 24.863 20
      vertex 2.61321 24.863 20
    endloop
  endfacet
  facet normal 0 1 0
    outer loop
      vertex -2.61321 24.863 20
      vertex 2.61321 24.863 -10
      vertex -2.61321 24.863 -10
    endloop
  endfacet
  facet normal -0.58778 -0.809021 0
    outer loop
      vertex -16.7283 -18.5786 -10
      vertex -12.5 -21.6506 20
      vertex -16.7283 -18.5786 20
    endloop
  endfacet
  facet normal -0.58778 -0.809021 -0
    outer loop
      vertex -12.5 -21.6506 20
      vertex -16.7283 -18.5786 -10
      vertex -12.5 -21.6506 -10
    endloop
  endfacet
  facet normal 0 0 -1
    outer loop
      vertex 15 0 -10
      vertex 25 0 -10
      vertex 24.4537 -5.19779 -10
    endloop
  endfacet
  facet normal 0 0 -1
    outer loop
      vertex 14.6722 -3.11868 -10
      vertex 24.4537 -5.19779 -10
      vertex 22.8386 -10.1684 -10
    endloop
  endfacet
  facet normal 0 0 -1
    outer loop
      vertex 25 0 -10
      vertex 15 0 -10
      vertex 24.4537 5.19779 -10
    endloop
  endfacet
  facet normal 0 0 -1
    outer loop
      vertex 13.7032 -6.10105 -10
      vertex 22.8386 -10.1684 -10
      vertex 20.2254 -14.6946 -10
    endloop
  endfacet
  facet normal 0 0 -1
    outer loop
      vertex 14.6722 3.11868 -10
      vertex 24.4537 5.19779 -10
      vertex 15 0 -10
    endloop
  endfacet
  facet normal 0 0 -1
    outer loop
      vertex 12.1353 -8.81678 -10
      vertex 20.2254 -14.6946 -10
      vertex 16.7283 -18.5786 -10
    endloop
  endfacet
  facet normal -0 0 -1
    outer loop
      vertex 24.4537 5.19779 -10
      vertex 14.6722 3.11868 -10
      vertex 22.8386 10.1684 -10
    endloop
  endfacet
  facet normal 0 0 -1
    outer loop
      vertex 13.7032 6.10105 -10
      vertex 22.8386 10.1684 -10
      vertex 14.6722 3.11868 -10
    endloop
  endfacet
  facet normal 0 0 -1
    outer loop
      vertex 24.4537 -5.19779 -10
      vertex 14.6722 -3.11868 -10
      vertex 15 0 -10
    endloop
  endfacet
  facet normal 0 0 -1
    outer loop
      vertex 22.8386 -10.1684 -10
      vertex 13.7032 -6.10105 -10
      vertex 14.6722 -3.11868 -10
    endloop
  endfacet
  facet normal 0 0 -1
    outer loop
      vertex 10.037 -11.1472 -10
      vertex 16.7283 -18.5786 -10
      vertex 12.5 -21.6506 -10
    endloop
  endfacet
  facet normal 0 0 -1
    outer loop
      vertex 20.2254 -14.6946 -10
      vertex 12.1353 -8.81678 -10
      vertex 13.7032 -6.10105 -10
    endloop
  endfacet
  facet normal 0 0 -1
    outer loop
      vertex 16.7283 -18.5786 -10
      vertex 10.037 -11.1472 -10
      vertex 12.1353 -8.81678 -10
    endloop
  endfacet
  facet normal 0 0 -1
    outer loop
      vertex 7.5 -12.9904 -10
      vertex 12.5 -21.6506 -10
      vertex 7.72542 -23.7764 -10
    endloop
  endfacet
  facet normal 0 0 -1
    outer loop
      vertex 12.5 -21.6506 -10
      vertex 7.5 -12.9904 -10
      vertex 10.037 -11.1472 -10
    endloop
  endfacet
  facet normal 0 0 -1
    outer loop
      vertex 7.72542 -23.7764 -10
      vertex 4.63525 -14.2658 -10
      vertex 7.5 -12.9904 -10
    endloop
  endfacet
  facet normal 0 0 -1
    outer loop
      vertex 2.61321 -24.863 -10
      vertex 4.63525 -14.2658 -10
      vertex 7.72542 -23.7764 -10
    endloop
  endfacet
  facet normal 0 0 -1
    outer loop
      vertex 2.61321 -24.863 -10
      vertex 1.56793 -14.9178 -10
      vertex 4.63525 -14.2658 -10
    endloop
  endfacet
  facet normal 0 0 -1
    outer loop
      vertex 2.61321 -24.863 -10
      vertex -1.56793 -14.9178 -10
      vertex 1.56793 -14.9178 -10
    endloop
  endfacet
  facet normal 0 0 -1
    outer loop
      vertex -2.61321 -24.863 -10
      vertex -1.56793 -14.9178 -10
      vertex 2.61321 -24.863 -10
    endloop
  endfacet
  facet normal 0 0 -1
    outer loop
      vertex -2.61321 -24.863 -10
      vertex -4.63525 -14.2658 -10
      vertex -1.56793 -14.9178 -10
    endloop
  endfacet
  facet normal 0 0 -1
    outer loop
      vertex -7.72542 -23.7764 -10
      vertex -4.63525 -14.2658 -10
      vertex -2.61321 -24.863 -10
    endloop
  endfacet
  facet normal -0 0 -1
    outer loop
      vertex -4.63525 -14.2658 -10
      vertex -7.72542 -23.7764 -10
      vertex -7.5 -12.9904 -10
    endloop
  endfacet
  facet normal 0 0 -1
    outer loop
      vertex -12.5 -21.6506 -10
      vertex -7.5 -12.9904 -10
      vertex -7.72542 -23.7764 -10
    endloop
  endfacet
  facet normal -0 0 -1
    outer loop
      vertex -7.5 -12.9904 -10
      vertex -12.5 -21.6506 -10
      vertex -10.037 -11.1472 -10
    endloop
  endfacet
  facet normal 0 0 -1
    outer loop
      vertex -16.7283 -18.5786 -10
      vertex -10.037 -11.1472 -10
      vertex -12.5 -21.6506 -10
    endloop
  endfacet
  facet normal -0 0 -1
    outer loop
      vertex -10.037 -11.1472 -10
      vertex -16.7283 -18.5786 -10
      vertex -12.1353 -8.81678 -10
    endloop
  endfacet
  facet normal 0 0 -1
    outer loop
      vertex -20.2254 -14.6946 -10
      vertex -12.1353 -8.81678 -10
      vertex -16.7283 -18.5786 -10
    endloop
  endfacet
  facet normal 0 0 -1
    outer loop
      vertex -22.8386 -10.1684 -10
      vertex -13.7032 -6.10105 -10
      vertex -20.2254 -14.6946 -10
    endloop
  endfacet
  facet normal -0 0 -1
    outer loop
      vertex -12.1353 -8.81678 -10
      vertex -20.2254 -14.6946 -10
      vertex -13.7032 -6.10105 -10
    endloop
  endfacet
  facet normal -0 0 -1
    outer loop
      vertex 22.8386 10.1684 -10
      vertex 13.7032 6.10105 -10
      vertex 20.2254 14.6946 -10
    endloop
  endfacet
  facet normal 0 0 -1
    outer loop
      vertex 12.1353 8.81678 -10
      vertex 20.2254 14.6946 -10
      vertex 13.7032 6.10105 -10
    endloop
  endfacet
  facet normal -0 0 -1
    outer loop
      vertex 20.2254 14.6946 -10
      vertex 12.1353 8.81678 -10
      vertex 16.7283 18.5786 -10
    endloop
  endfacet
  facet normal 0 0 -1
    outer loop
      vertex 10.037 11.1472 -10
      vertex 16.7283 18.5786 -10
      vertex 12.1353 8.81678 -10
    endloop
  endfacet
  facet normal -0 0 -1
    outer loop
      vertex 16.7283 18.5786 -10
      vertex 10.037 11.1472 -10
      vertex 12.5 21.6506 -10
    endloop
  endfacet
  facet normal 0 0 -1
    outer loop
      vertex 7.5 12.9904 -10
      vertex 12.5 21.6506 -10
      vertex 10.037 11.1472 -10
    endloop
  endfacet
  facet normal -0 0 -1
    outer loop
      vertex 12.5 21.6506 -10
      vertex 7.5 12.9904 -10
      vertex 7.72542 23.7764 -10
    endloop
  endfacet
  facet normal 0 0 -1
    outer loop
      vertex 4.63525 14.2658 -10
      vertex 7.72542 23.7764 -10
      vertex 7.5 12.9904 -10
    endloop
  endfacet
  facet normal 0 0 -1
    outer loop
      vertex 4.63525 14.2658 -10
      vertex 2.61321 24.863 -10
      vertex 7.72542 23.7764 -10
    endloop
  endfacet
  facet normal 0 0 -1
    outer loop
      vertex 1.56793 14.9178 -10
      vertex 2.61321 24.863 -10
      vertex 4.63525 14.2658 -10
    endloop
  endfacet
  facet normal 0 0 -1
    outer loop
      vertex -1.56793 14.9178 -10
      vertex 2.61321 24.863 -10
      vertex 1.56793 14.9178 -10
    endloop
  endfacet
  facet normal 0 0 -1
    outer loop
      vertex -1.56793 14.9178 -10
      vertex -2.61321 24.863 -10
      vertex 2.61321 24.863 -10
    endloop
  endfacet
  facet normal 0 0 -1
    outer loop
      vertex -4.63525 14.2658 -10
      vertex -2.61321 24.863 -10
      vertex -1.56793 14.9178 -10
    endloop
  endfacet
  facet normal 0 0 -1
    outer loop
      vertex -7.72542 23.7764 -10
      vertex -4.63525 14.2658 -10
      vertex -7.5 12.9904 -10
    endloop
  endfacet
  facet normal 0 0 -1
    outer loop
      vertex -4.63525 14.2658 -10
      vertex -7.72542 23.7764 -10
      vertex -2.61321 24.863 -10
    endloop
  endfacet
  facet normal 0 0 -1
    outer loop
      vertex -12.5 21.6506 -10
      vertex -7.5 12.9904 -10
      vertex -10.037 11.1472 -10
    endloop
  endfacet
  facet normal 0 0 -1
    outer loop
      vertex -16.7283 18.5786 -10
      vertex -10.037 11.1472 -10
      vertex -12.1353 8.81678 -10
    endloop
  endfacet
  facet normal 0 0 -1
    outer loop
      vertex -7.5 12.9904 -10
      vertex -12.5 21.6506 -10
      vertex -7.72542 23.7764 -10
    endloop
  endfacet
  facet normal 0 0 -1
    outer loop
      vertex -20.2254 14.6946 -10
      vertex -12.1353 8.81678 -10
      vertex -13.7032 6.10105 -10
    endloop
  endfacet
  facet normal 0 0 -1
    outer loop
      vertex -22.8386 10.1684 -10
      vertex -13.7032 6.10105 -10
      vertex -14.6722 3.11868 -10
    endloop
  endfacet
  facet normal 0 0 -1
    outer loop
      vertex -10.037 11.1472 -10
      vertex -16.7283 18.5786 -10
      vertex -12.5 21.6506 -10
    endloop
  endfacet
  facet normal 0 0 -1
    outer loop
      vertex -24.4537 5.19779 -10
      vertex -14.6722 3.11868 -10
      vertex -15 0 -10
    endloop
  endfacet
  facet normal -0 0 -1
    outer loop
      vertex -13.7032 -6.10105 -10
      vertex -22.8386 -10.1684 -10
      vertex -14.6722 -3.11868 -10
    endloop
  endfacet
  facet normal 0 0 -1
    outer loop
      vertex -24.4537 -5.19779 -10
      vertex -14.6722 -3.11868 -10
      vertex -22.8386 -10.1684 -10
    endloop
  endfacet
  facet normal 0 0 -1
    outer loop
      vertex -12.1353 8.81678 -10
      vertex -20.2254 14.6946 -10
      vertex -16.7283 18.5786 -10
    endloop
  endfacet
  facet normal -0 0 -1
    outer loop
      vertex -14.6722 -3.11868 -10
      vertex -24.4537 -5.19779 -10
      vertex -15 0 -10
    endloop
  endfacet
  facet normal 0 0 -1
    outer loop
      vertex -13.7032 6.10105 -10
      vertex -22.8386 10.1684 -10
      vertex -20.2254 14.6946 -10
    endloop
  endfacet
  facet normal 0 0 -1
    outer loop
      vertex -25 0 -10
      vertex -15 0 -10
      vertex -24.4537 -5.19779 -10
    endloop
  endfacet
  facet normal 0 0 -1
    outer loop
      vertex -14.6722 3.11868 -10
      vertex -24.4537 5.19779 -10
      vertex -22.8386 10.1684 -10
    endloop
  endfacet
  facet normal 0 0 -1
    outer loop
      vertex -15 0 -10
      vertex -25 0 -10
      vertex -24.4537 5.19779 -10
    endloop
  endfacet
  facet normal -0.40674 0.913544 0
    outer loop
      vertex -7.72542 23.7764 -10
      vertex -12.5 21.6506 20
      vertex -7.72542 23.7764 20
    endloop
  endfacet
  facet normal -0.40674 0.913544 0
    outer loop
      vertex -12.5 21.6506 20
      vertex -7.72542 23.7764 -10
      vertex -12.5 21.6506 -10
    endloop
  endfacet
  facet normal -0.994522 -0.104527 0
    outer loop
      vertex -24.4537 -5.19779 -10
      vertex -25 0 20
      vertex -25 0 -10
    endloop
  endfacet
  facet normal -0.994522 -0.104527 0
    outer loop
      vertex -25 0 20
      vertex -24.4537 -5.19779 -10
      vertex -24.4537 -5.19779 20
    endloop
  endfacet
  facet normal -0.743151 -0.669123 0
    outer loop
      vertex -16.7283 -18.5786 -10
      vertex -20.2254 -14.6946 20
      vertex -20.2254 -14.6946 -10
    endloop
  endfacet
  facet normal -0.743151 -0.669123 0
    outer loop
      vertex -20.2254 -14.6946 20
      vertex -16.7283 -18.5786 -10
      vertex -16.7283 -18.5786 20
    endloop
  endfacet
  facet normal -0.866026 -0.5 0
    outer loop
      vertex -20.2254 -14.6946 -10
      vertex -22.8386 -10.1684 20
      vertex -22.8386 -10.1684 -10
    endloop
  endfacet
  facet normal -0.866026 -0.5 0
    outer loop
      vertex -22.8386 -10.1684 20
      vertex -20.2254 -14.6946 -10
      vertex -20.2254 -14.6946 20
    endloop
  endfacet
  facet normal 0.207906 -0.978149 0
    outer loop
      vertex 2.61321 -24.863 -10
      vertex 7.72542 -23.7764 20
      vertex 2.61321 -24.863 20
    endloop
  endfacet
  facet normal 0.207906 -0.978149 0
    outer loop
      vertex 7.72542 -23.7764 20
      vertex 2.61321 -24.863 -10
      vertex 7.72542 -23.7764 -10
    endloop
  endfacet
  facet normal -0.994522 0.104527 0
    outer loop
      vertex -25 0 -10
      vertex -24.4537 5.19779 20
      vertex -24.4537 5.19779 -10
    endloop
  endfacet
  facet normal -0.994522 0.104527 0
    outer loop
      vertex -24.4537 5.19779 20
      vertex -25 0 -10
      vertex -25 0 20
    endloop
  endfacet
  facet normal 0.207906 0.978149 -0
    outer loop
      vertex 7.72542 23.7764 -10
      vertex 2.61321 24.863 20
      vertex 7.72542 23.7764 20
    endloop
  endfacet
  facet normal 0.207906 0.978149 0
    outer loop
      vertex 2.61321 24.863 20
      vertex 7.72542 23.7764 -10
      vertex 2.61321 24.863 -10
    endloop
  endfacet
  facet normal 0.58778 0.809021 -0
    outer loop
      vertex 16.7283 18.5786 -10
      vertex 12.5 21.6506 20
      vertex 16.7283 18.5786 20
    endloop
  endfacet
  facet normal 0.58778 0.809021 0
    outer loop
      vertex 12.5 21.6506 20
      vertex 16.7283 18.5786 -10
      vertex 12.5 21.6506 -10
    endloop
  endfacet
  facet normal -0.207906 0.978149 0
    outer loop
      vertex -2.61321 24.863 -10
      vertex -7.72542 23.7764 20
      vertex -2.61321 24.863 20
    endloop
  endfacet
  facet normal -0.207906 0.978149 0
    outer loop
      vertex -7.72542 23.7764 20
      vertex -2.61321 24.863 -10
      vertex -7.72542 23.7764 -10
    endloop
  endfacet
  facet normal 0.40674 -0.913544 0
    outer loop
      vertex 7.72542 -23.7764 -10
      vertex 12.5 -21.6506 20
      vertex 7.72542 -23.7764 20
    endloop
  endfacet
  facet normal 0.40674 -0.913544 0
    outer loop
      vertex 12.5 -21.6506 20
      vertex 7.72542 -23.7764 -10
      vertex 12.5 -21.6506 -10
    endloop
  endfacet
  facet normal 0 -1 0
    outer loop
      vertex -2.61321 -24.863 -10
      vertex 2.61321 -24.863 20
      vertex -2.61321 -24.863 20
    endloop
  endfacet
  facet normal 0 -1 -0
    outer loop
      vertex 2.61321 -24.863 20
      vertex -2.61321 -24.863 -10
      vertex 2.61321 -24.863 -10
    endloop
  endfacet
  facet normal -0.207906 -0.978149 0
    outer loop
      vertex -7.72542 -23.7764 -10
      vertex -2.61321 -24.863 20
      vertex -7.72542 -23.7764 20
    endloop
  endfacet
  facet normal -0.207906 -0.978149 -0
    outer loop
      vertex -2.61321 -24.863 20
      vertex -7.72542 -23.7764 -10
      vertex -2.61321 -24.863 -10
    endloop
  endfacet
  facet normal -0.951054 0.309026 0
    outer loop
      vertex -24.4537 5.19779 -10
      vertex -22.8386 10.1684 20
      vertex -22.8386 10.1684 -10
    endloop
  endfacet
  facet normal -0.951054 0.309026 0
    outer loop
      vertex -22.8386 10.1684 20
      vertex -24.4537 5.19779 -10
      vertex -24.4537 5.19779 20
    endloop
  endfacet
  facet normal -0.951059 -0.309008 0
    outer loop
      vertex 14.6722 3.11868 -10
      vertex 13.7032 6.10105 0
      vertex 13.7032 6.10105 -10
    endloop
  endfacet
  facet normal -0.951059 -0.309008 0
    outer loop
      vertex 13.7032 6.10105 0
      vertex 14.6722 3.11868 -10
      vertex 14.6722 3.11868 0
    endloop
  endfacet
  facet normal -0.994521 -0.104533 0
    outer loop
      vertex 15 0 -10
      vertex 14.6722 3.11868 0
      vertex 14.6722 3.11868 -10
    endloop
  endfacet
  facet normal -0.994521 -0.104533 0
    outer loop
      vertex 14.6722 3.11868 0
      vertex 15 0 -10
      vertex 15 0 0
    endloop
  endfacet
  facet normal -0.866029 -0.499993 0
    outer loop
      vertex 13.7032 6.10105 -10
      vertex 12.1353 8.81678 0
      vertex 12.1353 8.81678 -10
    endloop
  endfacet
  facet normal -0.866029 -0.499993 0
    outer loop
      vertex 12.1353 8.81678 0
      vertex 13.7032 6.10105 -10
      vertex 13.7032 6.10105 0
    endloop
  endfacet
  facet normal -0.951059 0.309008 0
    outer loop
      vertex 13.7032 -6.10105 -10
      vertex 14.6722 -3.11868 0
      vertex 14.6722 -3.11868 -10
    endloop
  endfacet
  facet normal -0.951059 0.309008 0
    outer loop
      vertex 14.6722 -3.11868 0
      vertex 13.7032 -6.10105 -10
      vertex 13.7032 -6.10105 0
    endloop
  endfacet
  facet normal -0.994521 0.104533 0
    outer loop
      vertex 14.6722 -3.11868 -10
      vertex 15 0 0
      vertex 15 0 -10
    endloop
  endfacet
  facet normal -0.994521 0.104533 0
    outer loop
      vertex 15 0 0
      vertex 14.6722 -3.11868 -10
      vertex 14.6722 -3.11868 0
    endloop
  endfacet
  facet normal -0.743148 -0.669127 0
    outer loop
      vertex 12.1353 8.81678 -10
      vertex 10.037 11.1472 0
      vertex 10.037 11.1472 -10
    endloop
  endfacet
  facet normal -0.743148 -0.669127 0
    outer loop
      vertex 10.037 11.1472 0
      vertex 12.1353 8.81678 -10
      vertex 12.1353 8.81678 0
    endloop
  endfacet
  facet normal 0.951059 0.309008 0
    outer loop
      vertex -13.7032 -6.10105 0
      vertex -14.6722 -3.11868 -10
      vertex -14.6722 -3.11868 0
    endloop
  endfacet
  facet normal 0.951059 0.309008 0
    outer loop
      vertex -14.6722 -3.11868 -10
      vertex -13.7032 -6.10105 0
      vertex -13.7032 -6.10105 -10
    endloop
  endfacet
  facet normal 0.951059 -0.309008 0
    outer loop
      vertex -14.6722 3.11868 0
      vertex -13.7032 6.10105 -10
      vertex -13.7032 6.10105 0
    endloop
  endfacet
  facet normal 0.951059 -0.309008 0
    outer loop
      vertex -13.7032 6.10105 -10
      vertex -14.6722 3.11868 0
      vertex -14.6722 3.11868 -10
    endloop
  endfacet
  facet normal -0.587777 0.809023 0
    outer loop
      vertex 10.037 -11.1472 -10
      vertex 7.5 -12.9904 0
      vertex 10.037 -11.1472 0
    endloop
  endfacet
  facet normal -0.587777 0.809023 0
    outer loop
      vertex 7.5 -12.9904 0
      vertex 10.037 -11.1472 -10
      vertex 7.5 -12.9904 -10
    endloop
  endfacet
  facet normal 0.587777 -0.809023 0
    outer loop
      vertex -10.037 11.1472 -10
      vertex -7.5 12.9904 0
      vertex -10.037 11.1472 0
    endloop
  endfacet
  facet normal 0.587777 -0.809023 0
    outer loop
      vertex -7.5 12.9904 0
      vertex -10.037 11.1472 -10
      vertex -7.5 12.9904 -10
    endloop
  endfacet
  facet normal 0 0 -1
    outer loop
      vertex 14.6722 -3.11868 0
      vertex 14.6722 3.11868 0
      vertex 15 0 0
    endloop
  endfacet
  facet normal 0 0 -1
    outer loop
      vertex 13.7032 -6.10105 0
      vertex 14.6722 3.11868 0
      vertex 14.6722 -3.11868 0
    endloop
  endfacet
  facet normal 0 0 -1
    outer loop
      vertex 13.7032 -6.10105 0
      vertex 13.7032 6.10105 0
      vertex 14.6722 3.11868 0
    endloop
  endfacet
  facet normal 0 0 -1
    outer loop
      vertex 12.1353 -8.81678 0
      vertex 13.7032 6.10105 0
      vertex 13.7032 -6.10105 0
    endloop
  endfacet
  facet normal 0 0 -1
    outer loop
      vertex 12.1353 -8.81678 0
      vertex 12.1353 8.81678 0
      vertex 13.7032 6.10105 0
    endloop
  endfacet
  facet normal 0 0 -1
    outer loop
      vertex 10.037 -11.1472 0
      vertex 12.1353 8.81678 0
      vertex 12.1353 -8.81678 0
    endloop
  endfacet
  facet normal 0 0 -1
    outer loop
      vertex 10.037 -11.1472 0
      vertex 10.037 11.1472 0
      vertex 12.1353 8.81678 0
    endloop
  endfacet
  facet normal 0 0 -1
    outer loop
      vertex 7.5 -12.9904 0
      vertex 10.037 11.1472 0
      vertex 10.037 -11.1472 0
    endloop
  endfacet
  facet normal 0 0 -1
    outer loop
      vertex 7.5 -12.9904 0
      vertex 7.5 12.9904 0
      vertex 10.037 11.1472 0
    endloop
  endfacet
  facet normal 0 0 -1
    outer loop
      vertex 4.63525 -14.2658 0
      vertex 7.5 12.9904 0
      vertex 7.5 -12.9904 0
    endloop
  endfacet
  facet normal 0 0 -1
    outer loop
      vertex 4.63525 -14.2658 0
      vertex 4.63525 14.2658 0
      vertex 7.5 12.9904 0
    endloop
  endfacet
  facet normal 0 0 -1
    outer loop
      vertex 1.56793 -14.9178 0
      vertex 4.63525 14.2658 0
      vertex 4.63525 -14.2658 0
    endloop
  endfacet
  facet normal 0 0 -1
    outer loop
      vertex 1.56793 -14.9178 0
      vertex 1.56793 14.9178 0
      vertex 4.63525 14.2658 0
    endloop
  endfacet
  facet normal 0 0 -1
    outer loop
      vertex -1.56793 -14.9178 0
      vertex 1.56793 14.9178 0
      vertex 1.56793 -14.9178 0
    endloop
  endfacet
  facet normal 0 0 -1
    outer loop
      vertex -1.56793 -14.9178 0
      vertex -1.56793 14.9178 0
      vertex 1.56793 14.9178 0
    endloop
  endfacet
  facet normal 0 0 -1
    outer loop
      vertex -4.63525 -14.2658 0
      vertex -1.56793 14.9178 0
      vertex -1.56793 -14.9178 0
    endloop
  endfacet
  facet normal 0 0 -1
    outer loop
      vertex -4.63525 -14.2658 0
      vertex -4.63525 14.2658 0
      vertex -1.56793 14.9178 0
    endloop
  endfacet
  facet normal 0 0 -1
    outer loop
      vertex -7.5 -12.9904 0
      vertex -4.63525 14.2658 0
      vertex -4.63525 -14.2658 0
    endloop
  endfacet
  facet normal 0 0 -1
    outer loop
      vertex -7.5 -12.9904 0
      vertex -7.5 12.9904 0
      vertex -4.63525 14.2658 0
    endloop
  endfacet
  facet normal 0 0 -1
    outer loop
      vertex -10.037 -11.1472 0
      vertex -7.5 12.9904 0
      vertex -7.5 -12.9904 0
    endloop
  endfacet
  facet normal 0 0 -1
    outer loop
      vertex -10.037 -11.1472 0
      vertex -10.037 11.1472 0
      vertex -7.5 12.9904 0
    endloop
  endfacet
  facet normal 0 0 -1
    outer loop
      vertex -12.1353 -8.81678 0
      vertex -10.037 11.1472 0
      vertex -10.037 -11.1472 0
    endloop
  endfacet
  facet normal 0 0 -1
    outer loop
      vertex -12.1353 -8.81678 0
      vertex -12.1353 8.81678 0
      vertex -10.037 11.1472 0
    endloop
  endfacet
  facet normal 0 0 -1
    outer loop
      vertex -13.7032 -6.10105 0
      vertex -12.1353 8.81678 0
      vertex -12.1353 -8.81678 0
    endloop
  endfacet
  facet normal 0 0 -1
    outer loop
      vertex -13.7032 -6.10105 0
      vertex -13.7032 6.10105 0
      vertex -12.1353 8.81678 0
    endloop
  endfacet
  facet normal 0 0 -1
    outer loop
      vertex -14.6722 -3.11868 0
      vertex -13.7032 6.10105 0
      vertex -13.7032 -6.10105 0
    endloop
  endfacet
  facet normal 0 0 -1
    outer loop
      vertex -14.6722 -3.11868 0
      vertex -14.6722 3.11868 0
      vertex -13.7032 6.10105 0
    endloop
  endfacet
  facet normal 0 -0 -1
    outer loop
      vertex -14.6722 3.11868 0
      vertex -14.6722 -3.11868 0
      vertex -15 0 0
    endloop
  endfacet
  facet normal 0.866029 -0.499993 0
    outer loop
      vertex -13.7032 6.10105 0
      vertex -12.1353 8.81678 -10
      vertex -12.1353 8.81678 0
    endloop
  endfacet
  facet normal 0.866029 -0.499993 0
    outer loop
      vertex -12.1353 8.81678 -10
      vertex -13.7032 6.10105 0
      vertex -13.7032 6.10105 -10
    endloop
  endfacet
  facet normal -0.866029 0.499993 0
    outer loop
      vertex 12.1353 -8.81678 -10
      vertex 13.7032 -6.10105 0
      vertex 13.7032 -6.10105 -10
    endloop
  endfacet
  facet normal -0.866029 0.499993 0
    outer loop
      vertex 13.7032 -6.10105 0
      vertex 12.1353 -8.81678 -10
      vertex 12.1353 -8.81678 0
    endloop
  endfacet
  facet normal 0 -1 0
    outer loop
      vertex -1.56793 14.9178 -10
      vertex 1.56793 14.9178 0
      vertex -1.56793 14.9178 0
    endloop
  endfacet
  facet normal 0 -1 -0
    outer loop
      vertex 1.56793 14.9178 0
      vertex -1.56793 14.9178 -10
      vertex 1.56793 14.9178 -10
    endloop
  endfacet
  facet normal 0.406718 -0.913554 0
    outer loop
      vertex -7.5 12.9904 -10
      vertex -4.63525 14.2658 0
      vertex -7.5 12.9904 0
    endloop
  endfacet
  facet normal 0.406718 -0.913554 0
    outer loop
      vertex -4.63525 14.2658 0
      vertex -7.5 12.9904 -10
      vertex -4.63525 14.2658 -10
    endloop
  endfacet
  facet normal 0.207918 0.978146 -0
    outer loop
      vertex -1.56793 -14.9178 -10
      vertex -4.63525 -14.2658 0
      vertex -1.56793 -14.9178 0
    endloop
  endfacet
  facet normal 0.207918 0.978146 0
    outer loop
      vertex -4.63525 -14.2658 0
      vertex -1.56793 -14.9178 -10
      vertex -4.63525 -14.2658 -10
    endloop
  endfacet
  facet normal 0.406718 0.913554 -0
    outer loop
      vertex -4.63525 -14.2658 -10
      vertex -7.5 -12.9904 0
      vertex -4.63525 -14.2658 0
    endloop
  endfacet
  facet normal 0.406718 0.913554 0
    outer loop
      vertex -7.5 -12.9904 0
      vertex -4.63525 -14.2658 -10
      vertex -7.5 -12.9904 -10
    endloop
  endfacet
  facet normal 0.207918 -0.978146 0
    outer loop
      vertex -4.63525 14.2658 -10
      vertex -1.56793 14.9178 0
      vertex -4.63525 14.2658 0
    endloop
  endfacet
  facet normal 0.207918 -0.978146 0
    outer loop
      vertex -1.56793 14.9178 0
      vertex -4.63525 14.2658 -10
      vertex -1.56793 14.9178 -10
    endloop
  endfacet
  facet normal -0.207918 0.978146 0
    outer loop
      vertex 4.63525 -14.2658 -10
      vertex 1.56793 -14.9178 0
      vertex 4.63525 -14.2658 0
    endloop
  endfacet
  facet normal -0.207918 0.978146 0
    outer loop
      vertex 1.56793 -14.9178 0
      vertex 4.63525 -14.2658 -10
      vertex 1.56793 -14.9178 -10
    endloop
  endfacet
  facet normal -0.743148 0.669127 0
    outer loop
      vertex 10.037 -11.1472 -10
      vertex 12.1353 -8.81678 0
      vertex 12.1353 -8.81678 -10
    endloop
  endfacet
  facet normal -0.743148 0.669127 0
    outer loop
      vertex 12.1353 -8.81678 0
      vertex 10.037 -11.1472 -10
      vertex 10.037 -11.1472 0
    endloop
  endfacet
  facet normal -0.406718 0.913554 0
    outer loop
      vertex 7.5 -12.9904 -10
      vertex 4.63525 -14.2658 0
      vertex 7.5 -12.9904 0
    endloop
  endfacet
  facet normal -0.406718 0.913554 0
    outer loop
      vertex 4.63525 -14.2658 0
      vertex 7.5 -12.9904 -10
      vertex 4.63525 -14.2658 -10
    endloop
  endfacet
  facet normal 0.587777 0.809023 -0
    outer loop
      vertex -7.5 -12.9904 -10
      vertex -10.037 -11.1472 0
      vertex -7.5 -12.9904 0
    endloop
  endfacet
  facet normal 0.587777 0.809023 0
    outer loop
      vertex -10.037 -11.1472 0
      vertex -7.5 -12.9904 -10
      vertex -10.037 -11.1472 -10
    endloop
  endfacet
  facet normal -0.587777 -0.809023 0
    outer loop
      vertex 7.5 12.9904 -10
      vertex 10.037 11.1472 0
      vertex 7.5 12.9904 0
    endloop
  endfacet
  facet normal -0.587777 -0.809023 -0
    outer loop
      vertex 10.037 11.1472 0
      vertex 7.5 12.9904 -10
      vertex 10.037 11.1472 -10
    endloop
  endfacet
  facet normal 0.994521 -0.104533 0
    outer loop
      vertex -15 0 0
      vertex -14.6722 3.11868 -10
      vertex -14.6722 3.11868 0
    endloop
  endfacet
  facet normal 0.994521 -0.104533 0
    outer loop
      vertex -14.6722 3.11868 -10
      vertex -15 0 0
      vertex -15 0 -10
    endloop
  endfacet
  facet normal -0.207918 -0.978146 0
    outer loop
      vertex 1.56793 14.9178 -10
      vertex 4.63525 14.2658 0
      vertex 1.56793 14.9178 0
    endloop
  endfacet
  facet normal -0.207918 -0.978146 -0
    outer loop
      vertex 4.63525 14.2658 0
      vertex 1.56793 14.9178 -10
      vertex 4.63525 14.2658 -10
    endloop
  endfacet
  facet normal 0.866029 0.499993 0
    outer loop
      vertex -12.1353 -8.81678 0
      vertex -13.7032 -6.10105 -10
      vertex -13.7032 -6.10105 0
    endloop
  endfacet
  facet normal 0.866029 0.499993 0
    outer loop
      vertex -13.7032 -6.10105 -10
      vertex -12.1353 -8.81678 0
      vertex -12.1353 -8.81678 -10
    endloop
  endfacet
  facet normal -0.406718 -0.913554 0
    outer loop
      vertex 4.63525 14.2658 -10
      vertex 7.5 12.9904 0
      vertex 4.63525 14.2658 0
    endloop
  endfacet
  facet normal -0.406718 -0.913554 -0
    outer loop
      vertex 7.5 12.9904 0
      vertex 4.63525 14.2658 -10
      vertex 7.5 12.9904 -10
    endloop
  endfacet
  facet normal 0 1 -0
    outer loop
      vertex 1.56793 -14.9178 -10
      vertex -1.56793 -14.9178 0
      vertex 1.56793 -14.9178 0
    endloop
  endfacet
  facet normal 0 1 0
    outer loop
      vertex -1.56793 -14.9178 0
      vertex 1.56793 -14.9178 -10
      vertex -1.56793 -14.9178 -10
    endloop
  endfacet
  facet normal 0.994521 0.104533 0
    outer loop
      vertex -14.6722 -3.11868 0
      vertex -15 0 -10
      vertex -15 0 0
    endloop
  endfacet
  facet normal 0.994521 0.104533 0
    outer loop
      vertex -15 0 -10
      vertex -14.6722 -3.11868 0
      vertex -14.6722 -3.11868 -10
    endloop
  endfacet
  facet normal 0.743148 0.669127 0
    outer loop
      vertex -10.037 -11.1472 0
      vertex -12.1353 -8.81678 -10
      vertex -12.1353 -8.81678 0
    endloop
  endfacet
  facet normal 0.743148 0.669127 0
    outer loop
      vertex -12.1353 -8.81678 -10
      vertex -10.037 -11.1472 0
      vertex -10.037 -11.1472 -10
    endloop
  endfacet
  facet normal 0.743148 -0.669127 0
    outer loop
      vertex -12.1353 8.81678 0
      vertex -10.037 11.1472 -10
      vertex -10.037 11.1472 0
    endloop
  endfacet
  facet normal 0.743148 -0.669127 0
    outer loop
      vertex -10.037 11.1472 -10
      vertex -12.1353 8.81678 0
      vertex -12.1353 8.81678 -10
    endloop
  endfacet
  facet normal -0.743147 -0.669129 0
    outer loop
      vertex -6.69131 -7.43145 -25
      vertex -8.09017 -5.87785 -15
      vertex -8.09017 -5.87785 -25
    endloop
  endfacet
  facet normal -0.743147 -0.669129 0
    outer loop
      vertex -8.09017 -5.87785 -15
      vertex -6.69131 -7.43145 -25
      vertex -6.69131 -7.43145 -15
    endloop
  endfacet
  facet normal 0.951055 0.309021 0
    outer loop
      vertex 9.78148 2.07912 -15
      vertex 9.13545 4.06737 -25
      vertex 9.13545 4.06737 -15
    endloop
  endfacet
  facet normal 0.951055 0.309021 0
    outer loop
      vertex 9.13545 4.06737 -25
      vertex 9.78148 2.07912 -15
      vertex 9.78148 2.07912 -25
    endloop
  endfacet
  facet normal 0.994522 0.104526 0
    outer loop
      vertex 10 0 -15
      vertex 9.78148 2.07912 -25
      vertex 9.78148 2.07912 -15
    endloop
  endfacet
  facet normal 0.994522 0.104526 0
    outer loop
      vertex 9.78148 2.07912 -25
      vertex 10 0 -15
      vertex 10 0 -25
    endloop
  endfacet
  facet normal 0.866026 0.5 0
    outer loop
      vertex 9.13545 4.06737 -15
      vertex 8.09017 5.87785 -25
      vertex 8.09017 5.87785 -15
    endloop
  endfacet
  facet normal 0.866026 0.5 0
    outer loop
      vertex 8.09017 5.87785 -25
      vertex 9.13545 4.06737 -15
      vertex 9.13545 4.06737 -25
    endloop
  endfacet
  facet normal 0.951055 -0.309021 0
    outer loop
      vertex 9.13545 -4.06737 -15
      vertex 9.78148 -2.07912 -25
      vertex 9.78148 -2.07912 -15
    endloop
  endfacet
  facet normal 0.951055 -0.309021 0
    outer loop
      vertex 9.78148 -2.07912 -25
      vertex 9.13545 -4.06737 -15
      vertex 9.13545 -4.06737 -25
    endloop
  endfacet
  facet normal 0.587783 -0.809019 0
    outer loop
      vertex 5 -8.66025 -25
      vertex 6.69131 -7.43145 -15
      vertex 5 -8.66025 -15
    endloop
  endfacet
  facet normal 0.587783 -0.809019 0
    outer loop
      vertex 6.69131 -7.43145 -15
      vertex 5 -8.66025 -25
      vertex 6.69131 -7.43145 -25
    endloop
  endfacet
  facet normal 0.743147 -0.669129 0
    outer loop
      vertex 6.69131 -7.43145 -15
      vertex 8.09017 -5.87785 -25
      vertex 8.09017 -5.87785 -15
    endloop
  endfacet
  facet normal 0.743147 -0.669129 0
    outer loop
      vertex 8.09017 -5.87785 -25
      vertex 6.69131 -7.43145 -15
      vertex 6.69131 -7.43145 -25
    endloop
  endfacet
  facet normal 0.994522 -0.104526 0
    outer loop
      vertex 9.78148 -2.07912 -15
      vertex 10 0 -25
      vertex 10 0 -15
    endloop
  endfacet
  facet normal 0.994522 -0.104526 0
    outer loop
      vertex 10 0 -25
      vertex 9.78148 -2.07912 -15
      vertex 9.78148 -2.07912 -25
    endloop
  endfacet
  facet normal -0.406736 -0.913546 0
    outer loop
      vertex -5 -8.66025 -25
      vertex -3.09017 -9.51056 -15
      vertex -5 -8.66025 -15
    endloop
  endfacet
  facet normal -0.406736 -0.913546 -0
    outer loop
      vertex -3.09017 -9.51056 -15
      vertex -5 -8.66025 -25
      vertex -3.09017 -9.51056 -25
    endloop
  endfacet
  facet normal 0.406736 0.913546 -0
    outer loop
      vertex 5 8.66025 -25
      vertex 3.09017 9.51056 -15
      vertex 5 8.66025 -15
    endloop
  endfacet
  facet normal 0.406736 0.913546 0
    outer loop
      vertex 3.09017 9.51056 -15
      vertex 5 8.66025 -25
      vertex 3.09017 9.51056 -25
    endloop
  endfacet
  facet normal 0.743147 0.669129 0
    outer loop
      vertex 8.09017 5.87785 -15
      vertex 6.69131 7.43145 -25
      vertex 6.69131 7.43145 -15
    endloop
  endfacet
  facet normal 0.743147 0.669129 0
    outer loop
      vertex 6.69131 7.43145 -25
      vertex 8.09017 5.87785 -15
      vertex 8.09017 5.87785 -25
    endloop
  endfacet
  facet normal -0.587783 -0.809019 0
    outer loop
      vertex -6.69131 -7.43145 -25
      vertex -5 -8.66025 -15
      vertex -6.69131 -7.43145 -15
    endloop
  endfacet
  facet normal -0.587783 -0.809019 -0
    outer loop
      vertex -5 -8.66025 -15
      vertex -6.69131 -7.43145 -25
      vertex -5 -8.66025 -25
    endloop
  endfacet
  facet normal -0.743147 0.669129 0
    outer loop
      vertex -8.09017 5.87785 -25
      vertex -6.69131 7.43145 -15
      vertex -6.69131 7.43145 -25
    endloop
  endfacet
  facet normal -0.743147 0.669129 0
    outer loop
      vertex -6.69131 7.43145 -15
      vertex -8.09017 5.87785 -25
      vertex -8.09017 5.87785 -15
    endloop
  endfacet
  facet normal 0 1 -0
    outer loop
      vertex 1.04528 9.94522 -25
      vertex -1.04528 9.94522 -15
      vertex 1.04528 9.94522 -15
    endloop
  endfacet
  facet normal 0 1 0
    outer loop
      vertex -1.04528 9.94522 -15
      vertex 1.04528 9.94522 -25
      vertex -1.04528 9.94522 -25
    endloop
  endfacet
  facet normal 0.406736 -0.913546 0
    outer loop
      vertex 3.09017 -9.51056 -25
      vertex 5 -8.66025 -15
      vertex 3.09017 -9.51056 -15
    endloop
  endfacet
  facet normal 0.406736 -0.913546 0
    outer loop
      vertex 5 -8.66025 -15
      vertex 3.09017 -9.51056 -25
      vertex 5 -8.66025 -25
    endloop
  endfacet
  facet normal 0.207914 -0.978147 0
    outer loop
      vertex 1.04528 -9.94522 -25
      vertex 3.09017 -9.51056 -15
      vertex 1.04528 -9.94522 -15
    endloop
  endfacet
  facet normal 0.207914 -0.978147 0
    outer loop
      vertex 3.09017 -9.51056 -15
      vertex 1.04528 -9.94522 -25
      vertex 3.09017 -9.51056 -25
    endloop
  endfacet
  facet normal -0.951055 0.309021 0
    outer loop
      vertex -9.78148 2.07912 -25
      vertex -9.13545 4.06737 -15
      vertex -9.13545 4.06737 -25
    endloop
  endfacet
  facet normal -0.951055 0.309021 0
    outer loop
      vertex -9.13545 4.06737 -15
      vertex -9.78148 2.07912 -25
      vertex -9.78148 2.07912 -15
    endloop
  endfacet
  facet normal 0 0 -1
    outer loop
      vertex 9.78148 -2.07912 -25
      vertex 9.78148 2.07912 -25
      vertex 10 0 -25
    endloop
  endfacet
  facet normal 0 0 -1
    outer loop
      vertex 9.13545 -4.06737 -25
      vertex 9.78148 2.07912 -25
      vertex 9.78148 -2.07912 -25
    endloop
  endfacet
  facet normal 0 0 -1
    outer loop
      vertex 9.13545 -4.06737 -25
      vertex 9.13545 4.06737 -25
      vertex 9.78148 2.07912 -25
    endloop
  endfacet
  facet normal 0 0 -1
    outer loop
      vertex 8.09017 -5.87785 -25
      vertex 9.13545 4.06737 -25
      vertex 9.13545 -4.06737 -25
    endloop
  endfacet
  facet normal 0 0 -1
    outer loop
      vertex 8.09017 -5.87785 -25
      vertex 8.09017 5.87785 -25
      vertex 9.13545 4.06737 -25
    endloop
  endfacet
  facet normal 0 0 -1
    outer loop
      vertex 6.69131 -7.43145 -25
      vertex 8.09017 5.87785 -25
      vertex 8.09017 -5.87785 -25
    endloop
  endfacet
  facet normal 0 0 -1
    outer loop
      vertex 6.69131 -7.43145 -25
      vertex 6.69131 7.43145 -25
      vertex 8.09017 5.87785 -25
    endloop
  endfacet
  facet normal 0 0 -1
    outer loop
      vertex 5 -8.66025 -25
      vertex 6.69131 7.43145 -25
      vertex 6.69131 -7.43145 -25
    endloop
  endfacet
  facet normal 0 0 -1
    outer loop
      vertex 5 -8.66025 -25
      vertex 5 8.66025 -25
      vertex 6.69131 7.43145 -25
    endloop
  endfacet
  facet normal 0 0 -1
    outer loop
      vertex 3.09017 -9.51056 -25
      vertex 5 8.66025 -25
      vertex 5 -8.66025 -25
    endloop
  endfacet
  facet normal 0 0 -1
    outer loop
      vertex 3.09017 -9.51056 -25
      vertex 3.09017 9.51056 -25
      vertex 5 8.66025 -25
    endloop
  endfacet
  facet normal 0 0 -1
    outer loop
      vertex 1.04528 -9.94522 -25
      vertex 3.09017 9.51056 -25
      vertex 3.09017 -9.51056 -25
    endloop
  endfacet
  facet normal 0 0 -1
    outer loop
      vertex 1.04528 -9.94522 -25
      vertex 1.04528 9.94522 -25
      vertex 3.09017 9.51056 -25
    endloop
  endfacet
  facet normal 0 0 -1
    outer loop
      vertex -1.04528 -9.94522 -25
      vertex 1.04528 9.94522 -25
      vertex 1.04528 -9.94522 -25
    endloop
  endfacet
  facet normal 0 0 -1
    outer loop
      vertex -1.04528 -9.94522 -25
      vertex -1.04528 9.94522 -25
      vertex 1.04528 9.94522 -25
    endloop
  endfacet
  facet normal 0 0 -1
    outer loop
      vertex -3.09017 -9.51056 -25
      vertex -1.04528 9.94522 -25
      vertex -1.04528 -9.94522 -25
    endloop
  endfacet
  facet normal 0 0 -1
    outer loop
      vertex -3.09017 -9.51056 -25
      vertex -3.09017 9.51056 -25
      vertex -1.04528 9.94522 -25
    endloop
  endfacet
  facet normal 0 0 -1
    outer loop
      vertex -5 -8.66025 -25
      vertex -3.09017 9.51056 -25
      vertex -3.09017 -9.51056 -25
    endloop
  endfacet
  facet normal 0 0 -1
    outer loop
      vertex -5 -8.66025 -25
      vertex -5 8.66025 -25
      vertex -3.09017 9.51056 -25
    endloop
  endfacet
  facet normal 0 0 -1
    outer loop
      vertex -6.69131 -7.43145 -25
      vertex -5 8.66025 -25
      vertex -5 -8.66025 -25
    endloop
  endfacet
  facet normal 0 0 -1
    outer loop
      vertex -6.69131 -7.43145 -25
      vertex -6.69131 7.43145 -25
      vertex -5 8.66025 -25
    endloop
  endfacet
  facet normal 0 0 -1
    outer loop
      vertex -8.09017 -5.87785 -25
      vertex -6.69131 7.43145 -25
      vertex -6.69131 -7.43145 -25
    endloop
  endfacet
  facet normal 0 0 -1
    outer loop
      vertex -8.09017 -5.87785 -25
      vertex -8.09017 5.87785 -25
      vertex -6.69131 7.43145 -25
    endloop
  endfacet
  facet normal 0 0 -1
    outer loop
      vertex -9.13545 -4.06737 -25
      vertex -8.09017 5.87785 -25
      vertex -8.09017 -5.87785 -25
    endloop
  endfacet
  facet normal 0 0 -1
    outer loop
      vertex -9.13545 -4.06737 -25
      vertex -9.13545 4.06737 -25
      vertex -8.09017 5.87785 -25
    endloop
  endfacet
  facet normal 0 0 -1
    outer loop
      vertex -9.78148 -2.07912 -25
      vertex -9.13545 4.06737 -25
      vertex -9.13545 -4.06737 -25
    endloop
  endfacet
  facet normal 0 0 -1
    outer loop
      vertex -9.78148 -2.07912 -25
      vertex -9.78148 2.07912 -25
      vertex -9.13545 4.06737 -25
    endloop
  endfacet
  facet normal 0 -0 -1
    outer loop
      vertex -9.78148 2.07912 -25
      vertex -9.78148 -2.07912 -25
      vertex -10 0 -25
    endloop
  endfacet
  facet normal -0.951055 -0.309021 0
    outer loop
      vertex -9.13545 -4.06737 -25
      vertex -9.78148 -2.07912 -15
      vertex -9.78148 -2.07912 -25
    endloop
  endfacet
  facet normal -0.951055 -0.309021 0
    outer loop
      vertex -9.78148 -2.07912 -15
      vertex -9.13545 -4.06737 -25
      vertex -9.13545 -4.06737 -15
    endloop
  endfacet
  facet normal -0.406736 0.913546 0
    outer loop
      vertex -3.09017 9.51056 -25
      vertex -5 8.66025 -15
      vertex -3.09017 9.51056 -15
    endloop
  endfacet
  facet normal -0.406736 0.913546 0
    outer loop
      vertex -5 8.66025 -15
      vertex -3.09017 9.51056 -25
      vertex -5 8.66025 -25
    endloop
  endfacet
  facet normal 0 0 1
    outer loop
      vertex 9.78148 2.07912 -15
      vertex 9.78148 -2.07912 -15
      vertex 10 0 -15
    endloop
  endfacet
  facet normal 0 0 1
    outer loop
      vertex 9.13545 4.06737 -15
      vertex 9.78148 -2.07912 -15
      vertex 9.78148 2.07912 -15
    endloop
  endfacet
  facet normal 0 0 1
    outer loop
      vertex 9.13545 4.06737 -15
      vertex 9.13545 -4.06737 -15
      vertex 9.78148 -2.07912 -15
    endloop
  endfacet
  facet normal 0 0 1
    outer loop
      vertex 8.09017 5.87785 -15
      vertex 9.13545 -4.06737 -15
      vertex 9.13545 4.06737 -15
    endloop
  endfacet
  facet normal 0 0 1
    outer loop
      vertex 8.09017 5.87785 -15
      vertex 8.09017 -5.87785 -15
      vertex 9.13545 -4.06737 -15
    endloop
  endfacet
  facet normal 0 0 1
    outer loop
      vertex 6.69131 7.43145 -15
      vertex 8.09017 -5.87785 -15
      vertex 8.09017 5.87785 -15
    endloop
  endfacet
  facet normal 0 0 1
    outer loop
      vertex 6.69131 7.43145 -15
      vertex 6.69131 -7.43145 -15
      vertex 8.09017 -5.87785 -15
    endloop
  endfacet
  facet normal 0 0 1
    outer loop
      vertex 5 8.66025 -15
      vertex 6.69131 -7.43145 -15
      vertex 6.69131 7.43145 -15
    endloop
  endfacet
  facet normal 0 0 1
    outer loop
      vertex 5 8.66025 -15
      vertex 5 -8.66025 -15
      vertex 6.69131 -7.43145 -15
    endloop
  endfacet
  facet normal 0 0 1
    outer loop
      vertex 3.09017 9.51056 -15
      vertex 5 -8.66025 -15
      vertex 5 8.66025 -15
    endloop
  endfacet
  facet normal 0 0 1
    outer loop
      vertex 3.09017 9.51056 -15
      vertex 3.09017 -9.51056 -15
      vertex 5 -8.66025 -15
    endloop
  endfacet
  facet normal 0 0 1
    outer loop
      vertex 1.04528 9.94522 -15
      vertex 3.09017 -9.51056 -15
      vertex 3.09017 9.51056 -15
    endloop
  endfacet
  facet normal 0 0 1
    outer loop
      vertex 1.04528 9.94522 -15
      vertex 1.04528 -9.94522 -15
      vertex 3.09017 -9.51056 -15
    endloop
  endfacet
  facet normal -0 0 1
    outer loop
      vertex -1.04528 9.94522 -15
      vertex 1.04528 -9.94522 -15
      vertex 1.04528 9.94522 -15
    endloop
  endfacet
  facet normal 0 0 1
    outer loop
      vertex -1.04528 9.94522 -15
      vertex -1.04528 -9.94522 -15
      vertex 1.04528 -9.94522 -15
    endloop
  endfacet
  facet normal -0 0 1
    outer loop
      vertex -3.09017 9.51056 -15
      vertex -1.04528 -9.94522 -15
      vertex -1.04528 9.94522 -15
    endloop
  endfacet
  facet normal 0 0 1
    outer loop
      vertex -3.09017 9.51056 -15
      vertex -3.09017 -9.51056 -15
      vertex -1.04528 -9.94522 -15
    endloop
  endfacet
  facet normal -0 0 1
    outer loop
      vertex -5 8.66025 -15
      vertex -3.09017 -9.51056 -15
      vertex -3.09017 9.51056 -15
    endloop
  endfacet
  facet normal 0 0 1
    outer loop
      vertex -5 8.66025 -15
      vertex -5 -8.66025 -15
      vertex -3.09017 -9.51056 -15
    endloop
  endfacet
  facet normal -0 0 1
    outer loop
      vertex -6.69131 7.43145 -15
      vertex -5 -8.66025 -15
      vertex -5 8.66025 -15
    endloop
  endfacet
  facet normal 0 0 1
    outer loop
      vertex -6.69131 7.43145 -15
      vertex -6.69131 -7.43145 -15
      vertex -5 -8.66025 -15
    endloop
  endfacet
  facet normal -0 0 1
    outer loop
      vertex -8.09017 5.87785 -15
      vertex -6.69131 -7.43145 -15
      vertex -6.69131 7.43145 -15
    endloop
  endfacet
  facet normal 0 0 1
    outer loop
      vertex -8.09017 5.87785 -15
      vertex -8.09017 -5.87785 -15
      vertex -6.69131 -7.43145 -15
    endloop
  endfacet
  facet normal -0 0 1
    outer loop
      vertex -9.13545 4.06737 -15
      vertex -8.09017 -5.87785 -15
      vertex -8.09017 5.87785 -15
    endloop
  endfacet
  facet normal 0 0 1
    outer loop
      vertex -9.13545 4.06737 -15
      vertex -9.13545 -4.06737 -15
      vertex -8.09017 -5.87785 -15
    endloop
  endfacet
  facet normal -0 0 1
    outer loop
      vertex -9.78148 2.07912 -15
      vertex -9.13545 -4.06737 -15
      vertex -9.13545 4.06737 -15
    endloop
  endfacet
  facet normal 0 0 1
    outer loop
      vertex -9.78148 2.07912 -15
      vertex -9.78148 -2.07912 -15
      vertex -9.13545 -4.06737 -15
    endloop
  endfacet
  facet normal 0 -0 1
    outer loop
      vertex -9.78148 -2.07912 -15
      vertex -9.78148 2.07912 -15
      vertex -10 0 -15
    endloop
  endfacet
  facet normal -0.207914 -0.978147 0
    outer loop
      vertex -3.09017 -9.51056 -25
      vertex -1.04528 -9.94522 -15
      vertex -3.09017 -9.51056 -15
    endloop
  endfacet
  facet normal -0.207914 -0.978147 -0
    outer loop
      vertex -1.04528 -9.94522 -15
      vertex -3.09017 -9.51056 -25
      vertex -1.04528 -9.94522 -25
    endloop
  endfacet
  facet normal 0.207914 0.978147 -0
    outer loop
      vertex 3.09017 9.51056 -25
      vertex 1.04528 9.94522 -15
      vertex 3.09017 9.51056 -15
    endloop
  endfacet
  facet normal 0.207914 0.978147 0
    outer loop
      vertex 1.04528 9.94522 -15
      vertex 3.09017 9.51056 -25
      vertex 1.04528 9.94522 -25
    endloop
  endfacet
  facet normal -0.994522 -0.104526 0
    outer loop
      vertex -9.78148 -2.07912 -25
      vertex -10 0 -15
      vertex -10 0 -25
    endloop
  endfacet
  facet normal -0.994522 -0.104526 0
    outer loop
      vertex -10 0 -15
      vertex -9.78148 -2.07912 -25
      vertex -9.78148 -2.07912 -15
    endloop
  endfacet
  facet normal -0.866026 -0.5 0
    outer loop
      vertex -8.09017 -5.87785 -25
      vertex -9.13545 -4.06737 -15
      vertex -9.13545 -4.06737 -25
    endloop
  endfacet
  facet normal -0.866026 -0.5 0
    outer loop
      vertex -9.13545 -4.06737 -15
      vertex -8.09017 -5.87785 -25
      vertex -8.09017 -5.87785 -15
    endloop
  endfacet
  facet normal -0.866026 0.5 0
    outer loop
      vertex -9.13545 4.06737 -25
      vertex -8.09017 5.87785 -15
      vertex -8.09017 5.87785 -25
    endloop
  endfacet
  facet normal -0.866026 0.5 0
    outer loop
      vertex -8.09017 5.87785 -15
      vertex -9.13545 4.06737 -25
      vertex -9.13545 4.06737 -15
    endloop
  endfacet
  facet normal 0.866026 -0.5 0
    outer loop
      vertex 8.09017 -5.87785 -15
      vertex 9.13545 -4.06737 -25
      vertex 9.13545 -4.06737 -15
    endloop
  endfacet
  facet normal 0.866026 -0.5 0
    outer loop
      vertex 9.13545 -4.06737 -25
      vertex 8.09017 -5.87785 -15
      vertex 8.09017 -5.87785 -25
    endloop
  endfacet
  facet normal 0.587783 0.809019 -0
    outer loop
      vertex 6.69131 7.43145 -25
      vertex 5 8.66025 -15
      vertex 6.69131 7.43145 -15
    endloop
  endfacet
  facet normal 0.587783 0.809019 0
    outer loop
      vertex 5 8.66025 -15
      vertex 6.69131 7.43145 -25
      vertex 5 8.66025 -25
    endloop
  endfacet
  facet normal -0.587783 0.809019 0
    outer loop
      vertex -5 8.66025 -25
      vertex -6.69131 7.43145 -15
      vertex -5 8.66025 -15
    endloop
  endfacet
  facet normal -0.587783 0.809019 0
    outer loop
      vertex -6.69131 7.43145 -15
      vertex -5 8.66025 -25
      vertex -6.69131 7.43145 -25
    endloop
  endfacet
  facet normal -0.207914 0.978147 0
    outer loop
      vertex -1.04528 9.94522 -25
      vertex -3.09017 9.51056 -15
      vertex -1.04528 9.94522 -15
    endloop
  endfacet
  facet normal -0.207914 0.978147 0
    outer loop
      vertex -3.09017 9.51056 -15
      vertex -1.04528 9.94522 -25
      vertex -3.09017 9.51056 -25
    endloop
  endfacet
  facet normal 0 -1 0
    outer loop
      vertex -1.04528 -9.94522 -25
      vertex 1.04528 -9.94522 -15
      vertex -1.04528 -9.94522 -15
    endloop
  endfacet
  facet normal 0 -1 -0
    outer loop
      vertex 1.04528 -9.94522 -15
      vertex -1.04528 -9.94522 -25
      vertex 1.04528 -9.94522 -25
    endloop
  endfacet
  facet normal -0.994522 0.104526 0
    outer loop
      vertex -10 0 -25
      vertex -9.78148 2.07912 -15
      vertex -9.78148 2.07912 -25
    endloop
  endfacet
  facet normal -0.994522 0.104526 0
    outer loop
      vertex -9.78148 2.07912 -15
      vertex -10 0 -25
      vertex -10 0 -15
    endloop
  endfacet
endsolid OpenSCAD_Model
