solid OpenSCAD_Model
  facet normal 0.951059 0.309008 0
    outer loop
      vertex 14.6722 3.11868 8
      vertex 13.7032 6.10105 -8
      vertex 13.7032 6.10105 8
    endloop
  endfacet
  facet normal 0.951059 0.309008 0
    outer loop
      vertex 13.7032 6.10105 -8
      vertex 14.6722 3.11868 8
      vertex 14.6722 3.11868 -8
    endloop
  endfacet
  facet normal 0.994521 0.104533 0
    outer loop
      vertex 15 0 8
      vertex 14.6722 3.11868 -8
      vertex 14.6722 3.11868 8
    endloop
  endfacet
  facet normal 0.994521 0.104533 0
    outer loop
      vertex 14.6722 3.11868 -8
      vertex 15 0 8
      vertex 15 0 -8
    endloop
  endfacet
  facet normal 0.866029 0.499993 0
    outer loop
      vertex 13.7032 6.10105 8
      vertex 12.1353 8.81678 -8
      vertex 12.1353 8.81678 8
    endloop
  endfacet
  facet normal 0.866029 0.499993 0
    outer loop
      vertex 12.1353 8.81678 -8
      vertex 13.7032 6.10105 8
      vertex 13.7032 6.10105 -8
    endloop
  endfacet
  facet normal 0.587777 0.809023 -0
    outer loop
      vertex 10.037 11.1472 -8
      vertex 7.5 12.9904 8
      vertex 10.037 11.1472 8
    endloop
  endfacet
  facet normal 0.587777 0.809023 0
    outer loop
      vertex 7.5 12.9904 8
      vertex 10.037 11.1472 -8
      vertex 7.5 12.9904 -8
    endloop
  endfacet
  facet normal 0.951059 -0.309008 0
    outer loop
      vertex 13.7032 -6.10105 8
      vertex 14.6722 -3.11868 -8
      vertex 14.6722 -3.11868 8
    endloop
  endfacet
  facet normal 0.951059 -0.309008 0
    outer loop
      vertex 14.6722 -3.11868 -8
      vertex 13.7032 -6.10105 8
      vertex 13.7032 -6.10105 -8
    endloop
  endfacet
  facet normal 0.994521 -0.104533 0
    outer loop
      vertex 14.6722 -3.11868 8
      vertex 15 0 -8
      vertex 15 0 8
    endloop
  endfacet
  facet normal 0.994521 -0.104533 0
    outer loop
      vertex 15 0 -8
      vertex 14.6722 -3.11868 8
      vertex 14.6722 -3.11868 -8
    endloop
  endfacet
  facet normal 0.743148 0.669127 0
    outer loop
      vertex 12.1353 8.81678 8
      vertex 10.037 11.1472 -8
      vertex 10.037 11.1472 8
    endloop
  endfacet
  facet normal 0.743148 0.669127 0
    outer loop
      vertex 10.037 11.1472 -8
      vertex 12.1353 8.81678 8
      vertex 12.1353 8.81678 -8
    endloop
  endfacet
  facet normal -0.951059 -0.309008 0
    outer loop
      vertex -13.7032 -6.10105 -8
      vertex -14.6722 -3.11868 8
      vertex -14.6722 -3.11868 -8
    endloop
  endfacet
  facet normal -0.951059 -0.309008 0
    outer loop
      vertex -14.6722 -3.11868 8
      vertex -13.7032 -6.10105 -8
      vertex -13.7032 -6.10105 8
    endloop
  endfacet
  facet normal -0.743148 0.669127 0
    outer loop
      vertex -12.1353 8.81678 -8
      vertex -10.037 11.1472 8
      vertex -10.037 11.1472 -8
    endloop
  endfacet
  facet normal -0.743148 0.669127 0
    outer loop
      vertex -10.037 11.1472 8
      vertex -12.1353 8.81678 -8
      vertex -12.1353 8.81678 8
    endloop
  endfacet
  facet normal -0.951059 0.309008 0
    outer loop
      vertex -14.6722 3.11868 -8
      vertex -13.7032 6.10105 8
      vertex -13.7032 6.10105 -8
    endloop
  endfacet
  facet normal -0.951059 0.309008 0
    outer loop
      vertex -13.7032 6.10105 8
      vertex -14.6722 3.11868 -8
      vertex -14.6722 3.11868 8
    endloop
  endfacet
  facet normal 0.587777 -0.809023 0
    outer loop
      vertex 7.5 -12.9904 -8
      vertex 10.037 -11.1472 8
      vertex 7.5 -12.9904 8
    endloop
  endfacet
  facet normal 0.587777 -0.809023 0
    outer loop
      vertex 10.037 -11.1472 8
      vertex 7.5 -12.9904 -8
      vertex 10.037 -11.1472 -8
    endloop
  endfacet
  facet normal -0.587777 0.809023 0
    outer loop
      vertex -7.5 12.9904 -8
      vertex -10.037 11.1472 8
      vertex -7.5 12.9904 8
    endloop
  endfacet
  facet normal -0.587777 0.809023 0
    outer loop
      vertex -10.037 11.1472 8
      vertex -7.5 12.9904 -8
      vertex -10.037 11.1472 -8
    endloop
  endfacet
  facet normal 0 0 1
    outer loop
      vertex 6 0 8
      vertex 15 0 8
      vertex 14.6722 3.11868 8
    endloop
  endfacet
  facet normal 0 0 1
    outer loop
      vertex 5.54328 2.2961 8
      vertex 14.6722 3.11868 8
      vertex 13.7032 6.10105 8
    endloop
  endfacet
  facet normal 0 0 1
    outer loop
      vertex 15 0 8
      vertex 6 0 8
      vertex 14.6722 -3.11868 8
    endloop
  endfacet
  facet normal 0 0 1
    outer loop
      vertex 5.54328 2.2961 8
      vertex 13.7032 6.10105 8
      vertex 12.1353 8.81678 8
    endloop
  endfacet
  facet normal -0 0 1
    outer loop
      vertex 5.54328 -2.2961 8
      vertex 14.6722 -3.11868 8
      vertex 6 0 8
    endloop
  endfacet
  facet normal 0 0 1
    outer loop
      vertex 4.24264 4.24264 8
      vertex 12.1353 8.81678 8
      vertex 10.037 11.1472 8
    endloop
  endfacet
  facet normal 0 0 1
    outer loop
      vertex 14.6722 -3.11868 8
      vertex 5.54328 -2.2961 8
      vertex 13.7032 -6.10105 8
    endloop
  endfacet
  facet normal 0 0 1
    outer loop
      vertex 4.24264 4.24264 8
      vertex 10.037 11.1472 8
      vertex 7.5 12.9904 8
    endloop
  endfacet
  facet normal 0 0 1
    outer loop
      vertex 13.7032 -6.10105 8
      vertex 5.54328 -2.2961 8
      vertex 12.1353 -8.81678 8
    endloop
  endfacet
  facet normal -0 0 1
    outer loop
      vertex 4.24264 -4.24264 8
      vertex 12.1353 -8.81678 8
      vertex 5.54328 -2.2961 8
    endloop
  endfacet
  facet normal 0 0 1
    outer loop
      vertex 14.6722 3.11868 8
      vertex 5.54328 2.2961 8
      vertex 6 0 8
    endloop
  endfacet
  facet normal 0 0 1
    outer loop
      vertex 2.2961 5.54328 8
      vertex 7.5 12.9904 8
      vertex 4.63525 14.2658 8
    endloop
  endfacet
  facet normal 0 0 1
    outer loop
      vertex 12.1353 8.81678 8
      vertex 4.24264 4.24264 8
      vertex 5.54328 2.2961 8
    endloop
  endfacet
  facet normal 0 0 1
    outer loop
      vertex 7.5 12.9904 8
      vertex 2.2961 5.54328 8
      vertex 4.24264 4.24264 8
    endloop
  endfacet
  facet normal 0 0 1
    outer loop
      vertex 1.56793 14.9178 8
      vertex 2.2961 5.54328 8
      vertex 4.63525 14.2658 8
    endloop
  endfacet
  facet normal 0 0 1
    outer loop
      vertex 1.56793 14.9178 8
      vertex 0 6 8
      vertex 2.2961 5.54328 8
    endloop
  endfacet
  facet normal -0 0 1
    outer loop
      vertex -1.56793 14.9178 8
      vertex 0 6 8
      vertex 1.56793 14.9178 8
    endloop
  endfacet
  facet normal 0 0 1
    outer loop
      vertex -1.56793 14.9178 8
      vertex -2.2961 5.54328 8
      vertex 0 6 8
    endloop
  endfacet
  facet normal -0 0 1
    outer loop
      vertex -4.63525 14.2658 8
      vertex -2.2961 5.54328 8
      vertex -1.56793 14.9178 8
    endloop
  endfacet
  facet normal -0 0 1
    outer loop
      vertex -7.5 12.9904 8
      vertex -2.2961 5.54328 8
      vertex -4.63525 14.2658 8
    endloop
  endfacet
  facet normal 0 0 1
    outer loop
      vertex -2.2961 5.54328 8
      vertex -7.5 12.9904 8
      vertex -4.24264 4.24264 8
    endloop
  endfacet
  facet normal -0 0 1
    outer loop
      vertex -10.037 11.1472 8
      vertex -4.24264 4.24264 8
      vertex -7.5 12.9904 8
    endloop
  endfacet
  facet normal -0 0 1
    outer loop
      vertex -12.1353 8.81678 8
      vertex -4.24264 4.24264 8
      vertex -10.037 11.1472 8
    endloop
  endfacet
  facet normal 0 0 1
    outer loop
      vertex 12.1353 -8.81678 8
      vertex 4.24264 -4.24264 8
      vertex 10.037 -11.1472 8
    endloop
  endfacet
  facet normal 0 0 1
    outer loop
      vertex 10.037 -11.1472 8
      vertex 4.24264 -4.24264 8
      vertex 7.5 -12.9904 8
    endloop
  endfacet
  facet normal -0 0 1
    outer loop
      vertex 2.2961 -5.54328 8
      vertex 7.5 -12.9904 8
      vertex 4.24264 -4.24264 8
    endloop
  endfacet
  facet normal 0 0 1
    outer loop
      vertex 7.5 -12.9904 8
      vertex 2.2961 -5.54328 8
      vertex 4.63525 -14.2658 8
    endloop
  endfacet
  facet normal 0 0 1
    outer loop
      vertex 2.2961 -5.54328 8
      vertex 1.56793 -14.9178 8
      vertex 4.63525 -14.2658 8
    endloop
  endfacet
  facet normal -0 0 1
    outer loop
      vertex 0 -6 8
      vertex 1.56793 -14.9178 8
      vertex 2.2961 -5.54328 8
    endloop
  endfacet
  facet normal 0 0 1
    outer loop
      vertex 0 -6 8
      vertex -1.56793 -14.9178 8
      vertex 1.56793 -14.9178 8
    endloop
  endfacet
  facet normal 0 0 1
    outer loop
      vertex -2.2961 -5.54328 8
      vertex -1.56793 -14.9178 8
      vertex 0 -6 8
    endloop
  endfacet
  facet normal 0 0 1
    outer loop
      vertex -7.5 -12.9904 8
      vertex -2.2961 -5.54328 8
      vertex -4.24264 -4.24264 8
    endloop
  endfacet
  facet normal 0 0 1
    outer loop
      vertex -2.2961 -5.54328 8
      vertex -4.63525 -14.2658 8
      vertex -1.56793 -14.9178 8
    endloop
  endfacet
  facet normal 0 0 1
    outer loop
      vertex -12.1353 -8.81678 8
      vertex -4.24264 -4.24264 8
      vertex -5.54328 -2.2961 8
    endloop
  endfacet
  facet normal 0 0 1
    outer loop
      vertex -14.6722 -3.11868 8
      vertex -5.54328 -2.2961 8
      vertex -6 0 8
    endloop
  endfacet
  facet normal 0 0 1
    outer loop
      vertex -4.24264 4.24264 8
      vertex -12.1353 8.81678 8
      vertex -5.54328 2.2961 8
    endloop
  endfacet
  facet normal 0 0 1
    outer loop
      vertex -2.2961 -5.54328 8
      vertex -7.5 -12.9904 8
      vertex -4.63525 -14.2658 8
    endloop
  endfacet
  facet normal -0 0 1
    outer loop
      vertex -13.7032 6.10105 8
      vertex -5.54328 2.2961 8
      vertex -12.1353 8.81678 8
    endloop
  endfacet
  facet normal 0 0 1
    outer loop
      vertex -4.24264 -4.24264 8
      vertex -10.037 -11.1472 8
      vertex -7.5 -12.9904 8
    endloop
  endfacet
  facet normal -0 0 1
    outer loop
      vertex -14.6722 3.11868 8
      vertex -5.54328 2.2961 8
      vertex -13.7032 6.10105 8
    endloop
  endfacet
  facet normal 0 0 1
    outer loop
      vertex -4.24264 -4.24264 8
      vertex -12.1353 -8.81678 8
      vertex -10.037 -11.1472 8
    endloop
  endfacet
  facet normal 0 0 1
    outer loop
      vertex -5.54328 2.2961 8
      vertex -14.6722 3.11868 8
      vertex -6 0 8
    endloop
  endfacet
  facet normal 0 0 1
    outer loop
      vertex -5.54328 -2.2961 8
      vertex -13.7032 -6.10105 8
      vertex -12.1353 -8.81678 8
    endloop
  endfacet
  facet normal 0 0 1
    outer loop
      vertex -15 0 8
      vertex -6 0 8
      vertex -14.6722 3.11868 8
    endloop
  endfacet
  facet normal 0 0 1
    outer loop
      vertex -5.54328 -2.2961 8
      vertex -14.6722 -3.11868 8
      vertex -13.7032 -6.10105 8
    endloop
  endfacet
  facet normal 0 0 1
    outer loop
      vertex -6 0 8
      vertex -15 0 8
      vertex -14.6722 -3.11868 8
    endloop
  endfacet
  facet normal -0.866029 0.499993 0
    outer loop
      vertex -13.7032 6.10105 -8
      vertex -12.1353 8.81678 8
      vertex -12.1353 8.81678 -8
    endloop
  endfacet
  facet normal -0.866029 0.499993 0
    outer loop
      vertex -12.1353 8.81678 8
      vertex -13.7032 6.10105 -8
      vertex -13.7032 6.10105 8
    endloop
  endfacet
  facet normal 0.866029 -0.499993 0
    outer loop
      vertex 12.1353 -8.81678 8
      vertex 13.7032 -6.10105 -8
      vertex 13.7032 -6.10105 8
    endloop
  endfacet
  facet normal 0.866029 -0.499993 0
    outer loop
      vertex 13.7032 -6.10105 -8
      vertex 12.1353 -8.81678 8
      vertex 12.1353 -8.81678 -8
    endloop
  endfacet
  facet normal 0 1 -0
    outer loop
      vertex 1.56793 14.9178 -8
      vertex -1.56793 14.9178 8
      vertex 1.56793 14.9178 8
    endloop
  endfacet
  facet normal 0 1 0
    outer loop
      vertex -1.56793 14.9178 8
      vertex 1.56793 14.9178 -8
      vertex -1.56793 14.9178 -8
    endloop
  endfacet
  facet normal -0.406718 0.913554 0
    outer loop
      vertex -4.63525 14.2658 -8
      vertex -7.5 12.9904 8
      vertex -4.63525 14.2658 8
    endloop
  endfacet
  facet normal -0.406718 0.913554 0
    outer loop
      vertex -7.5 12.9904 8
      vertex -4.63525 14.2658 -8
      vertex -7.5 12.9904 -8
    endloop
  endfacet
  facet normal -0.207918 -0.978146 0
    outer loop
      vertex -4.63525 -14.2658 -8
      vertex -1.56793 -14.9178 8
      vertex -4.63525 -14.2658 8
    endloop
  endfacet
  facet normal -0.207918 -0.978146 -0
    outer loop
      vertex -1.56793 -14.9178 8
      vertex -4.63525 -14.2658 -8
      vertex -1.56793 -14.9178 -8
    endloop
  endfacet
  facet normal 0 -1 0
    outer loop
      vertex -1.56793 -14.9178 -8
      vertex 1.56793 -14.9178 8
      vertex -1.56793 -14.9178 8
    endloop
  endfacet
  facet normal 0 -1 -0
    outer loop
      vertex 1.56793 -14.9178 8
      vertex -1.56793 -14.9178 -8
      vertex 1.56793 -14.9178 -8
    endloop
  endfacet
  facet normal -0.207918 0.978146 0
    outer loop
      vertex -1.56793 14.9178 -8
      vertex -4.63525 14.2658 8
      vertex -1.56793 14.9178 8
    endloop
  endfacet
  facet normal -0.207918 0.978146 0
    outer loop
      vertex -4.63525 14.2658 8
      vertex -1.56793 14.9178 -8
      vertex -4.63525 14.2658 -8
    endloop
  endfacet
  facet normal 0.207918 -0.978146 0
    outer loop
      vertex 1.56793 -14.9178 -8
      vertex 4.63525 -14.2658 8
      vertex 1.56793 -14.9178 8
    endloop
  endfacet
  facet normal 0.207918 -0.978146 0
    outer loop
      vertex 4.63525 -14.2658 8
      vertex 1.56793 -14.9178 -8
      vertex 4.63525 -14.2658 -8
    endloop
  endfacet
  facet normal 0.743148 -0.669127 0
    outer loop
      vertex 10.037 -11.1472 8
      vertex 12.1353 -8.81678 -8
      vertex 12.1353 -8.81678 8
    endloop
  endfacet
  facet normal 0.743148 -0.669127 0
    outer loop
      vertex 12.1353 -8.81678 -8
      vertex 10.037 -11.1472 8
      vertex 10.037 -11.1472 -8
    endloop
  endfacet
  facet normal 0.406718 -0.913554 0
    outer loop
      vertex 4.63525 -14.2658 -8
      vertex 7.5 -12.9904 8
      vertex 4.63525 -14.2658 8
    endloop
  endfacet
  facet normal 0.406718 -0.913554 0
    outer loop
      vertex 7.5 -12.9904 8
      vertex 4.63525 -14.2658 -8
      vertex 7.5 -12.9904 -8
    endloop
  endfacet
  facet normal -0.587777 -0.809023 0
    outer loop
      vertex -10.037 -11.1472 -8
      vertex -7.5 -12.9904 8
      vertex -10.037 -11.1472 8
    endloop
  endfacet
  facet normal -0.587777 -0.809023 -0
    outer loop
      vertex -7.5 -12.9904 8
      vertex -10.037 -11.1472 -8
      vertex -7.5 -12.9904 -8
    endloop
  endfacet
  facet normal -0.994521 0.104533 0
    outer loop
      vertex -15 0 -8
      vertex -14.6722 3.11868 8
      vertex -14.6722 3.11868 -8
    endloop
  endfacet
  facet normal -0.994521 0.104533 0
    outer loop
      vertex -14.6722 3.11868 8
      vertex -15 0 -8
      vertex -15 0 8
    endloop
  endfacet
  facet normal 0.207918 0.978146 -0
    outer loop
      vertex 4.63525 14.2658 -8
      vertex 1.56793 14.9178 8
      vertex 4.63525 14.2658 8
    endloop
  endfacet
  facet normal 0.207918 0.978146 0
    outer loop
      vertex 1.56793 14.9178 8
      vertex 4.63525 14.2658 -8
      vertex 1.56793 14.9178 -8
    endloop
  endfacet
  facet normal -0.866029 -0.499993 0
    outer loop
      vertex -12.1353 -8.81678 -8
      vertex -13.7032 -6.10105 8
      vertex -13.7032 -6.10105 -8
    endloop
  endfacet
  facet normal -0.866029 -0.499993 0
    outer loop
      vertex -13.7032 -6.10105 8
      vertex -12.1353 -8.81678 -8
      vertex -12.1353 -8.81678 8
    endloop
  endfacet
  facet normal 0.406718 0.913554 -0
    outer loop
      vertex 7.5 12.9904 -8
      vertex 4.63525 14.2658 8
      vertex 7.5 12.9904 8
    endloop
  endfacet
  facet normal 0.406718 0.913554 0
    outer loop
      vertex 4.63525 14.2658 8
      vertex 7.5 12.9904 -8
      vertex 4.63525 14.2658 -8
    endloop
  endfacet
  facet normal -0.994521 -0.104533 0
    outer loop
      vertex -14.6722 -3.11868 -8
      vertex -15 0 8
      vertex -15 0 -8
    endloop
  endfacet
  facet normal -0.994521 -0.104533 0
    outer loop
      vertex -15 0 8
      vertex -14.6722 -3.11868 -8
      vertex -14.6722 -3.11868 8
    endloop
  endfacet
  facet normal -0.743148 -0.669127 0
    outer loop
      vertex -10.037 -11.1472 -8
      vertex -12.1353 -8.81678 8
      vertex -12.1353 -8.81678 -8
    endloop
  endfacet
  facet normal -0.743148 -0.669127 0
    outer loop
      vertex -12.1353 -8.81678 8
      vertex -10.037 -11.1472 -8
      vertex -10.037 -11.1472 8
    endloop
  endfacet
  facet normal 0 0 -1
    outer loop
      vertex 5 0 -8
      vertex 15 0 -8
      vertex 14.6722 -3.11868 -8
    endloop
  endfacet
  facet normal 0 0 -1
    outer loop
      vertex 4.6194 -1.91342 -8
      vertex 14.6722 -3.11868 -8
      vertex 13.7032 -6.10105 -8
    endloop
  endfacet
  facet normal 0 0 -1
    outer loop
      vertex 15 0 -8
      vertex 5 0 -8
      vertex 14.6722 3.11868 -8
    endloop
  endfacet
  facet normal 0 0 -1
    outer loop
      vertex 4.6194 -1.91342 -8
      vertex 13.7032 -6.10105 -8
      vertex 12.1353 -8.81678 -8
    endloop
  endfacet
  facet normal 0 0 -1
    outer loop
      vertex 4.6194 1.91342 -8
      vertex 14.6722 3.11868 -8
      vertex 5 0 -8
    endloop
  endfacet
  facet normal 0 0 -1
    outer loop
      vertex 3.53553 -3.53553 -8
      vertex 12.1353 -8.81678 -8
      vertex 10.037 -11.1472 -8
    endloop
  endfacet
  facet normal -0 0 -1
    outer loop
      vertex 14.6722 3.11868 -8
      vertex 4.6194 1.91342 -8
      vertex 13.7032 6.10105 -8
    endloop
  endfacet
  facet normal 0 0 -1
    outer loop
      vertex 3.53553 -3.53553 -8
      vertex 10.037 -11.1472 -8
      vertex 7.5 -12.9904 -8
    endloop
  endfacet
  facet normal -0 0 -1
    outer loop
      vertex 13.7032 6.10105 -8
      vertex 4.6194 1.91342 -8
      vertex 12.1353 8.81678 -8
    endloop
  endfacet
  facet normal 0 0 -1
    outer loop
      vertex 3.53553 3.53553 -8
      vertex 12.1353 8.81678 -8
      vertex 4.6194 1.91342 -8
    endloop
  endfacet
  facet normal 0 0 -1
    outer loop
      vertex 1.91342 -4.6194 -8
      vertex 7.5 -12.9904 -8
      vertex 4.63525 -14.2658 -8
    endloop
  endfacet
  facet normal 0 0 -1
    outer loop
      vertex 14.6722 -3.11868 -8
      vertex 4.6194 -1.91342 -8
      vertex 5 0 -8
    endloop
  endfacet
  facet normal 0 0 -1
    outer loop
      vertex 12.1353 -8.81678 -8
      vertex 3.53553 -3.53553 -8
      vertex 4.6194 -1.91342 -8
    endloop
  endfacet
  facet normal 0 0 -1
    outer loop
      vertex 7.5 -12.9904 -8
      vertex 1.91342 -4.6194 -8
      vertex 3.53553 -3.53553 -8
    endloop
  endfacet
  facet normal 0 0 -1
    outer loop
      vertex 1.56793 -14.9178 -8
      vertex 1.91342 -4.6194 -8
      vertex 4.63525 -14.2658 -8
    endloop
  endfacet
  facet normal 0 0 -1
    outer loop
      vertex 1.56793 -14.9178 -8
      vertex 0 -5 -8
      vertex 1.91342 -4.6194 -8
    endloop
  endfacet
  facet normal 0 0 -1
    outer loop
      vertex -1.56793 -14.9178 -8
      vertex 0 -5 -8
      vertex 1.56793 -14.9178 -8
    endloop
  endfacet
  facet normal 0 0 -1
    outer loop
      vertex -1.56793 -14.9178 -8
      vertex -1.91342 -4.6194 -8
      vertex 0 -5 -8
    endloop
  endfacet
  facet normal 0 0 -1
    outer loop
      vertex -4.63525 -14.2658 -8
      vertex -1.91342 -4.6194 -8
      vertex -1.56793 -14.9178 -8
    endloop
  endfacet
  facet normal 0 0 -1
    outer loop
      vertex -7.5 -12.9904 -8
      vertex -1.91342 -4.6194 -8
      vertex -4.63525 -14.2658 -8
    endloop
  endfacet
  facet normal -0 0 -1
    outer loop
      vertex -1.91342 -4.6194 -8
      vertex -7.5 -12.9904 -8
      vertex -3.53553 -3.53553 -8
    endloop
  endfacet
  facet normal 0 0 -1
    outer loop
      vertex -10.037 -11.1472 -8
      vertex -3.53553 -3.53553 -8
      vertex -7.5 -12.9904 -8
    endloop
  endfacet
  facet normal 0 0 -1
    outer loop
      vertex -12.1353 -8.81678 -8
      vertex -3.53553 -3.53553 -8
      vertex -10.037 -11.1472 -8
    endloop
  endfacet
  facet normal -0 0 -1
    outer loop
      vertex 12.1353 8.81678 -8
      vertex 3.53553 3.53553 -8
      vertex 10.037 11.1472 -8
    endloop
  endfacet
  facet normal -0 0 -1
    outer loop
      vertex 10.037 11.1472 -8
      vertex 3.53553 3.53553 -8
      vertex 7.5 12.9904 -8
    endloop
  endfacet
  facet normal 0 0 -1
    outer loop
      vertex 1.91342 4.6194 -8
      vertex 7.5 12.9904 -8
      vertex 3.53553 3.53553 -8
    endloop
  endfacet
  facet normal -0 0 -1
    outer loop
      vertex 7.5 12.9904 -8
      vertex 1.91342 4.6194 -8
      vertex 4.63525 14.2658 -8
    endloop
  endfacet
  facet normal 0 0 -1
    outer loop
      vertex 1.91342 4.6194 -8
      vertex 1.56793 14.9178 -8
      vertex 4.63525 14.2658 -8
    endloop
  endfacet
  facet normal 0 0 -1
    outer loop
      vertex 0 5 -8
      vertex 1.56793 14.9178 -8
      vertex 1.91342 4.6194 -8
    endloop
  endfacet
  facet normal 0 0 -1
    outer loop
      vertex 0 5 -8
      vertex -1.56793 14.9178 -8
      vertex 1.56793 14.9178 -8
    endloop
  endfacet
  facet normal 0 0 -1
    outer loop
      vertex -1.91342 4.6194 -8
      vertex -1.56793 14.9178 -8
      vertex 0 5 -8
    endloop
  endfacet
  facet normal 0 0 -1
    outer loop
      vertex -7.5 12.9904 -8
      vertex -1.91342 4.6194 -8
      vertex -3.53553 3.53553 -8
    endloop
  endfacet
  facet normal 0 0 -1
    outer loop
      vertex -12.1353 8.81678 -8
      vertex -3.53553 3.53553 -8
      vertex -4.6194 1.91342 -8
    endloop
  endfacet
  facet normal 0 0 -1
    outer loop
      vertex -1.91342 4.6194 -8
      vertex -4.63525 14.2658 -8
      vertex -1.56793 14.9178 -8
    endloop
  endfacet
  facet normal 0 0 -1
    outer loop
      vertex -14.6722 3.11868 -8
      vertex -4.6194 1.91342 -8
      vertex -5 0 -8
    endloop
  endfacet
  facet normal -0 0 -1
    outer loop
      vertex -3.53553 -3.53553 -8
      vertex -12.1353 -8.81678 -8
      vertex -4.6194 -1.91342 -8
    endloop
  endfacet
  facet normal 0 0 -1
    outer loop
      vertex -1.91342 4.6194 -8
      vertex -7.5 12.9904 -8
      vertex -4.63525 14.2658 -8
    endloop
  endfacet
  facet normal 0 0 -1
    outer loop
      vertex -13.7032 -6.10105 -8
      vertex -4.6194 -1.91342 -8
      vertex -12.1353 -8.81678 -8
    endloop
  endfacet
  facet normal 0 0 -1
    outer loop
      vertex -3.53553 3.53553 -8
      vertex -10.037 11.1472 -8
      vertex -7.5 12.9904 -8
    endloop
  endfacet
  facet normal 0 0 -1
    outer loop
      vertex -14.6722 -3.11868 -8
      vertex -4.6194 -1.91342 -8
      vertex -13.7032 -6.10105 -8
    endloop
  endfacet
  facet normal 0 0 -1
    outer loop
      vertex -3.53553 3.53553 -8
      vertex -12.1353 8.81678 -8
      vertex -10.037 11.1472 -8
    endloop
  endfacet
  facet normal -0 0 -1
    outer loop
      vertex -4.6194 -1.91342 -8
      vertex -14.6722 -3.11868 -8
      vertex -5 0 -8
    endloop
  endfacet
  facet normal 0 0 -1
    outer loop
      vertex -4.6194 1.91342 -8
      vertex -13.7032 6.10105 -8
      vertex -12.1353 8.81678 -8
    endloop
  endfacet
  facet normal 0 0 -1
    outer loop
      vertex -15 0 -8
      vertex -5 0 -8
      vertex -14.6722 -3.11868 -8
    endloop
  endfacet
  facet normal 0 0 -1
    outer loop
      vertex -4.6194 1.91342 -8
      vertex -14.6722 3.11868 -8
      vertex -13.7032 6.10105 -8
    endloop
  endfacet
  facet normal 0 0 -1
    outer loop
      vertex -5 0 -8
      vertex -15 0 -8
      vertex -14.6722 3.11868 -8
    endloop
  endfacet
  facet normal -0.406718 -0.913554 0
    outer loop
      vertex -7.5 -12.9904 -8
      vertex -4.63525 -14.2658 8
      vertex -7.5 -12.9904 8
    endloop
  endfacet
  facet normal -0.406718 -0.913554 -0
    outer loop
      vertex -4.63525 -14.2658 8
      vertex -7.5 -12.9904 -8
      vertex -4.63525 -14.2658 -8
    endloop
  endfacet
  facet normal -0.829909 -0.554533 0.0611841
    outer loop
      vertex 4.6194 1.91342 -8
      vertex 5.54328 2.2961 8
      vertex 3.53553 3.53553 -8
    endloop
  endfacet
  facet normal -0.978948 -0.194724 0.0611842
    outer loop
      vertex 6 0 8
      vertex 5.54328 2.2961 8
      vertex 5 0 -8
    endloop
  endfacet
  facet normal -0.829911 -0.55453 0.0611845
    outer loop
      vertex 5.54328 2.2961 8
      vertex 4.24264 4.24264 8
      vertex 3.53553 3.53553 -8
    endloop
  endfacet
  facet normal 0.829911 -0.55453 0.0611845
    outer loop
      vertex -3.53553 3.53553 -8
      vertex -4.24264 4.24264 8
      vertex -5.54328 2.2961 8
    endloop
  endfacet
  facet normal -0.978948 -0.194723 0.0611842
    outer loop
      vertex 5 0 -8
      vertex 5.54328 2.2961 8
      vertex 4.6194 1.91342 -8
    endloop
  endfacet
  facet normal 0.829911 0.55453 0.0611845
    outer loop
      vertex -4.24264 -4.24264 8
      vertex -3.53553 -3.53553 -8
      vertex -5.54328 -2.2961 8
    endloop
  endfacet
  facet normal -0.55453 0.829911 0.0611845
    outer loop
      vertex 4.24264 -4.24264 8
      vertex 3.53553 -3.53553 -8
      vertex 2.2961 -5.54328 8
    endloop
  endfacet
  facet normal 0.554533 -0.829909 0.0611841
    outer loop
      vertex -1.91342 4.6194 -8
      vertex -2.2961 5.54328 8
      vertex -3.53553 3.53553 -8
    endloop
  endfacet
  facet normal -0.194723 -0.978948 0.0611842
    outer loop
      vertex 1.91342 4.6194 -8
      vertex 2.2961 5.54328 8
      vertex 0 5 -8
    endloop
  endfacet
  facet normal 0.55453 0.829911 0.0611845
    outer loop
      vertex -2.2961 -5.54328 8
      vertex -3.53553 -3.53553 -8
      vertex -4.24264 -4.24264 8
    endloop
  endfacet
  facet normal -0.829909 0.554533 0.0611841
    outer loop
      vertex 5.54328 -2.2961 8
      vertex 4.6194 -1.91342 -8
      vertex 3.53553 -3.53553 -8
    endloop
  endfacet
  facet normal 0.194724 0.978948 0.0611842
    outer loop
      vertex 0 -6 8
      vertex 0 -5 -8
      vertex -2.2961 -5.54328 8
    endloop
  endfacet
  facet normal 0.829909 0.554533 0.0611841
    outer loop
      vertex -3.53553 -3.53553 -8
      vertex -4.6194 -1.91342 -8
      vertex -5.54328 -2.2961 8
    endloop
  endfacet
  facet normal 0.194723 -0.978948 0.0611842
    outer loop
      vertex -1.91342 4.6194 -8
      vertex 0 5 -8
      vertex -2.2961 5.54328 8
    endloop
  endfacet
  facet normal -0.829911 0.55453 0.0611845
    outer loop
      vertex 4.24264 -4.24264 8
      vertex 5.54328 -2.2961 8
      vertex 3.53553 -3.53553 -8
    endloop
  endfacet
  facet normal 0.194724 -0.978948 0.0611842
    outer loop
      vertex 0 5 -8
      vertex 0 6 8
      vertex -2.2961 5.54328 8
    endloop
  endfacet
  facet normal -0.978948 0.194724 0.0611842
    outer loop
      vertex 5.54328 -2.2961 8
      vertex 6 0 8
      vertex 5 0 -8
    endloop
  endfacet
  facet normal -0.55453 -0.829911 0.0611845
    outer loop
      vertex 3.53553 3.53553 -8
      vertex 4.24264 4.24264 8
      vertex 2.2961 5.54328 8
    endloop
  endfacet
  facet normal -0.194724 -0.978948 0.0611842
    outer loop
      vertex 2.2961 5.54328 8
      vertex 0 6 8
      vertex 0 5 -8
    endloop
  endfacet
  facet normal 0.194723 0.978948 0.0611842
    outer loop
      vertex 0 -5 -8
      vertex -1.91342 -4.6194 -8
      vertex -2.2961 -5.54328 8
    endloop
  endfacet
  facet normal -0.978948 0.194723 0.0611842
    outer loop
      vertex 5.54328 -2.2961 8
      vertex 5 0 -8
      vertex 4.6194 -1.91342 -8
    endloop
  endfacet
  facet normal -0.194723 0.978948 0.0611842
    outer loop
      vertex 2.2961 -5.54328 8
      vertex 1.91342 -4.6194 -8
      vertex 0 -5 -8
    endloop
  endfacet
  facet normal -0.194724 0.978948 0.0611842
    outer loop
      vertex 2.2961 -5.54328 8
      vertex 0 -5 -8
      vertex 0 -6 8
    endloop
  endfacet
  facet normal -0.554533 0.829909 0.0611841
    outer loop
      vertex 2.2961 -5.54328 8
      vertex 3.53553 -3.53553 -8
      vertex 1.91342 -4.6194 -8
    endloop
  endfacet
  facet normal 0.829909 -0.554533 0.0611841
    outer loop
      vertex -4.6194 1.91342 -8
      vertex -3.53553 3.53553 -8
      vertex -5.54328 2.2961 8
    endloop
  endfacet
  facet normal 0.55453 -0.829911 0.0611845
    outer loop
      vertex -3.53553 3.53553 -8
      vertex -2.2961 5.54328 8
      vertex -4.24264 4.24264 8
    endloop
  endfacet
  facet normal 0.978948 -0.194724 0.0611842
    outer loop
      vertex -5 0 -8
      vertex -5.54328 2.2961 8
      vertex -6 0 8
    endloop
  endfacet
  facet normal 0.978948 0.194723 0.0611842
    outer loop
      vertex -4.6194 -1.91342 -8
      vertex -5 0 -8
      vertex -5.54328 -2.2961 8
    endloop
  endfacet
  facet normal 0.978948 0.194724 0.0611842
    outer loop
      vertex -5.54328 -2.2961 8
      vertex -5 0 -8
      vertex -6 0 8
    endloop
  endfacet
  facet normal 0.978948 -0.194723 0.0611842
    outer loop
      vertex -5 0 -8
      vertex -4.6194 1.91342 -8
      vertex -5.54328 2.2961 8
    endloop
  endfacet
  facet normal -0.554533 -0.829909 0.0611841
    outer loop
      vertex 3.53553 3.53553 -8
      vertex 2.2961 5.54328 8
      vertex 1.91342 4.6194 -8
    endloop
  endfacet
  facet normal 0.554533 0.829909 0.0611841
    outer loop
      vertex -2.2961 -5.54328 8
      vertex -1.91342 -4.6194 -8
      vertex -3.53553 -3.53553 -8
    endloop
  endfacet
endsolid OpenSCAD_Model
