solid OpenSCAD_Model
  facet normal 1 -0 0
    outer loop
      vertex 30 -10 -5
      vertex 30 10 -12.5
      vertex 30 10 -5
    endloop
  endfacet
  facet normal 1 0 0
    outer loop
      vertex 30 10 -12.5
      vertex 30 -10 -5
      vertex 30 -10 -12.5
    endloop
  endfacet
  facet normal 1 -0 0
    outer loop
      vertex 30 -10 12.5
      vertex 30 10 0
      vertex 30 10 12.5
    endloop
  endfacet
  facet normal 1 0 0
    outer loop
      vertex 30 10 0
      vertex 30 -10 12.5
      vertex 30 -10 0
    endloop
  endfacet
  facet normal 1 0 0
    outer loop
      vertex 30 10 12.5
      vertex 30 15 20
      vertex 30 10 17.5
    endloop
  endfacet
  facet normal 1 0 0
    outer loop
      vertex 30 15 20
      vertex 30 -10 17.5
      vertex 30 10 17.5
    endloop
  endfacet
  facet normal 1 0 0
    outer loop
      vertex 30 -15 20
      vertex 30 -10 12.5
      vertex 30 -10 17.5
    endloop
  endfacet
  facet normal 1 0 0
    outer loop
      vertex 30 -10 12.5
      vertex 30 -15 20
      vertex 30 -10 0
    endloop
  endfacet
  facet normal 1 0 0
    outer loop
      vertex 30 -15 -20
      vertex 30 -10 0
      vertex 30 -15 20
    endloop
  endfacet
  facet normal 1 0 0
    outer loop
      vertex 30 -10 0
      vertex 30 -15 -20
      vertex 30 -10 -5
    endloop
  endfacet
  facet normal 1 0 0
    outer loop
      vertex 30 -10 -5
      vertex 30 -15 -20
      vertex 30 -10 -12.5
    endloop
  endfacet
  facet normal 1 -0 0
    outer loop
      vertex 30 -15 20
      vertex 30 -10 17.5
      vertex 30 15 20
    endloop
  endfacet
  facet normal 1 0 0
    outer loop
      vertex 30 10 0
      vertex 30 15 20
      vertex 30 10 12.5
    endloop
  endfacet
  facet normal 1 0 0
    outer loop
      vertex 30 15 20
      vertex 30 10 0
      vertex 30 15 -20
    endloop
  endfacet
  facet normal 1 -0 0
    outer loop
      vertex 30 10 -5
      vertex 30 15 -20
      vertex 30 10 0
    endloop
  endfacet
  facet normal 1 -0 0
    outer loop
      vertex 30 10 -12.5
      vertex 30 15 -20
      vertex 30 10 -5
    endloop
  endfacet
  facet normal 1 -0 0
    outer loop
      vertex 30 10 -17.5
      vertex 30 15 -20
      vertex 30 10 -12.5
    endloop
  endfacet
  facet normal 1 -0 0
    outer loop
      vertex 30 -10 -17.5
      vertex 30 15 -20
      vertex 30 10 -17.5
    endloop
  endfacet
  facet normal 1 0 0
    outer loop
      vertex 30 -10 -17.5
      vertex 30 -15 -20
      vertex 30 15 -20
    endloop
  endfacet
  facet normal 1 0 0
    outer loop
      vertex 30 -10 -12.5
      vertex 30 -15 -20
      vertex 30 -10 -17.5
    endloop
  endfacet
  facet normal -0 0 1
    outer loop
      vertex -30 15 20
      vertex 30 -15 20
      vertex 30 15 20
    endloop
  endfacet
  facet normal 0 0 1
    outer loop
      vertex 30 -15 20
      vertex -30 15 20
      vertex -30 -15 20
    endloop
  endfacet
  facet normal -1 0 0
    outer loop
      vertex -30 -10 0
      vertex -30 10 12.5
      vertex -30 10 0
    endloop
  endfacet
  facet normal -1 -0 0
    outer loop
      vertex -30 10 12.5
      vertex -30 -10 0
      vertex -30 -10 12.5
    endloop
  endfacet
  facet normal -1 0 0
    outer loop
      vertex -30 -10 -12.5
      vertex -30 10 -5
      vertex -30 10 -12.5
    endloop
  endfacet
  facet normal -1 -0 0
    outer loop
      vertex -30 10 -5
      vertex -30 -10 -12.5
      vertex -30 -10 -5
    endloop
  endfacet
  facet normal -1 0 0
    outer loop
      vertex -30 10 -12.5
      vertex -30 15 -20
      vertex -30 10 -17.5
    endloop
  endfacet
  facet normal -1 0 0
    outer loop
      vertex -30 15 -20
      vertex -30 -10 -17.5
      vertex -30 10 -17.5
    endloop
  endfacet
  facet normal -1 0 0
    outer loop
      vertex -30 -15 -20
      vertex -30 -10 -12.5
      vertex -30 -10 -17.5
    endloop
  endfacet
  facet normal -1 -0 0
    outer loop
      vertex -30 -10 -12.5
      vertex -30 -15 -20
      vertex -30 -10 -5
    endloop
  endfacet
  facet normal -1 -0 0
    outer loop
      vertex -30 -10 -5
      vertex -30 -15 -20
      vertex -30 -10 0
    endloop
  endfacet
  facet normal -1 0 0
    outer loop
      vertex -30 -15 20
      vertex -30 -10 0
      vertex -30 -15 -20
    endloop
  endfacet
  facet normal -1 0 0
    outer loop
      vertex -30 -10 0
      vertex -30 -15 20
      vertex -30 -10 12.5
    endloop
  endfacet
  facet normal -1 0 0
    outer loop
      vertex -30 -15 -20
      vertex -30 -10 -17.5
      vertex -30 15 -20
    endloop
  endfacet
  facet normal -1 0 0
    outer loop
      vertex -30 10 -5
      vertex -30 15 -20
      vertex -30 10 -12.5
    endloop
  endfacet
  facet normal -1 0 0
    outer loop
      vertex -30 10 0
      vertex -30 15 -20
      vertex -30 10 -5
    endloop
  endfacet
  facet normal -1 0 0
    outer loop
      vertex -30 15 -20
      vertex -30 10 0
      vertex -30 15 20
    endloop
  endfacet
  facet normal -1 0 0
    outer loop
      vertex -30 10 12.5
      vertex -30 15 20
      vertex -30 10 0
    endloop
  endfacet
  facet normal -1 0 0
    outer loop
      vertex -30 10 17.5
      vertex -30 15 20
      vertex -30 10 12.5
    endloop
  endfacet
  facet normal -1 0 0
    outer loop
      vertex -30 -10 17.5
      vertex -30 15 20
      vertex -30 10 17.5
    endloop
  endfacet
  facet normal -1 0 0
    outer loop
      vertex -30 -10 17.5
      vertex -30 -15 20
      vertex -30 15 20
    endloop
  endfacet
  facet normal -1 0 0
    outer loop
      vertex -30 -10 12.5
      vertex -30 -15 20
      vertex -30 -10 17.5
    endloop
  endfacet
  facet normal 0 1 -0
    outer loop
      vertex 30 15 -20
      vertex -30 15 20
      vertex 30 15 20
    endloop
  endfacet
  facet normal 0 1 0
    outer loop
      vertex -30 15 20
      vertex 30 15 -20
      vertex -30 15 -20
    endloop
  endfacet
  facet normal 0 -1 0
    outer loop
      vertex -30 -15 -20
      vertex 30 -15 20
      vertex -30 -15 20
    endloop
  endfacet
  facet normal 0 -1 -0
    outer loop
      vertex 30 -15 20
      vertex -30 -15 -20
      vertex 30 -15 -20
    endloop
  endfacet
  facet normal 0 0 -1
    outer loop
      vertex -30 -10 17.5
      vertex 30 10 17.5
      vertex 30 -10 17.5
    endloop
  endfacet
  facet normal -0 0 -1
    outer loop
      vertex 30 10 17.5
      vertex -30 -10 17.5
      vertex -30 10 17.5
    endloop
  endfacet
  facet normal -0 0 1
    outer loop
      vertex -30 10 12.5
      vertex 30 -10 12.5
      vertex 30 10 12.5
    endloop
  endfacet
  facet normal 0 0 1
    outer loop
      vertex 30 -10 12.5
      vertex -30 10 12.5
      vertex -30 -10 12.5
    endloop
  endfacet
  facet normal 0 -1 0
    outer loop
      vertex -30 10 12.5
      vertex 30 10 17.5
      vertex -30 10 17.5
    endloop
  endfacet
  facet normal 0 -1 -0
    outer loop
      vertex 30 10 17.5
      vertex -30 10 12.5
      vertex 30 10 12.5
    endloop
  endfacet
  facet normal 0 1 -0
    outer loop
      vertex 30 -10 12.5
      vertex -30 -10 17.5
      vertex 30 -10 17.5
    endloop
  endfacet
  facet normal 0 1 0
    outer loop
      vertex -30 -10 17.5
      vertex 30 -10 12.5
      vertex -30 -10 12.5
    endloop
  endfacet
  facet normal 0 0 -1
    outer loop
      vertex -30 -10 0
      vertex 30 10 0
      vertex 30 -10 0
    endloop
  endfacet
  facet normal -0 0 -1
    outer loop
      vertex 30 10 0
      vertex -30 -10 0
      vertex -30 10 0
    endloop
  endfacet
  facet normal -0 0 1
    outer loop
      vertex -30 10 -5
      vertex 30 -10 -5
      vertex 30 10 -5
    endloop
  endfacet
  facet normal 0 0 1
    outer loop
      vertex 30 -10 -5
      vertex -30 10 -5
      vertex -30 -10 -5
    endloop
  endfacet
  facet normal 0 -1 0
    outer loop
      vertex -30 10 -5
      vertex 30 10 0
      vertex -30 10 0
    endloop
  endfacet
  facet normal 0 -1 -0
    outer loop
      vertex 30 10 0
      vertex -30 10 -5
      vertex 30 10 -5
    endloop
  endfacet
  facet normal 0 1 -0
    outer loop
      vertex 30 -10 -5
      vertex -30 -10 0
      vertex 30 -10 0
    endloop
  endfacet
  facet normal 0 1 0
    outer loop
      vertex -30 -10 0
      vertex 30 -10 -5
      vertex -30 -10 -5
    endloop
  endfacet
  facet normal 0 0 -1
    outer loop
      vertex -30 -15 -20
      vertex 30 15 -20
      vertex 30 -15 -20
    endloop
  endfacet
  facet normal -0 0 -1
    outer loop
      vertex 30 15 -20
      vertex -30 -15 -20
      vertex -30 15 -20
    endloop
  endfacet
  facet normal 0 0 -1
    outer loop
      vertex -30 -10 -12.5
      vertex 30 10 -12.5
      vertex 30 -10 -12.5
    endloop
  endfacet
  facet normal -0 0 -1
    outer loop
      vertex 30 10 -12.5
      vertex -30 -10 -12.5
      vertex -30 10 -12.5
    endloop
  endfacet
  facet normal -0 0 1
    outer loop
      vertex -30 10 -17.5
      vertex 30 -10 -17.5
      vertex 30 10 -17.5
    endloop
  endfacet
  facet normal 0 0 1
    outer loop
      vertex 30 -10 -17.5
      vertex -30 10 -17.5
      vertex -30 -10 -17.5
    endloop
  endfacet
  facet normal 0 -1 0
    outer loop
      vertex -30 10 -17.5
      vertex 30 10 -12.5
      vertex -30 10 -12.5
    endloop
  endfacet
  facet normal 0 -1 -0
    outer loop
      vertex 30 10 -12.5
      vertex -30 10 -17.5
      vertex 30 10 -17.5
    endloop
  endfacet
  facet normal 0 1 -0
    outer loop
      vertex 30 -10 -17.5
      vertex -30 -10 -12.5
      vertex 30 -10 -12.5
    endloop
  endfacet
  facet normal 0 1 0
    outer loop
      vertex -30 -10 -12.5
      vertex 30 -10 -17.5
      vertex -30 -10 -17.5
    endloop
  endfacet
endsolid OpenSCAD_Model
