solid OpenSCAD_Model
  facet normal -0.951057 -0.309017 0
    outer loop
      vertex -2.42705 -1.76336 29.5
      vertex -3 0 33.5
      vertex -3 0 29.5
    endloop
  endfacet
  facet normal -0.951057 -0.309017 0
    outer loop
      vertex -3 0 33.5
      vertex -2.42705 -1.76336 29.5
      vertex -2.42705 -1.76336 33.5
    endloop
  endfacet
  facet normal 0.587784 0.809018 -0
    outer loop
      vertex 2.42705 1.76336 29.5
      vertex 0.927051 2.85317 33.5
      vertex 2.42705 1.76336 33.5
    endloop
  endfacet
  facet normal 0.587784 0.809018 0
    outer loop
      vertex 0.927051 2.85317 33.5
      vertex 2.42705 1.76336 29.5
      vertex 0.927051 2.85317 29.5
    endloop
  endfacet
  facet normal 0.951057 0.309017 0
    outer loop
      vertex 3 0 33.5
      vertex 2.42705 1.76336 29.5
      vertex 2.42705 1.76336 33.5
    endloop
  endfacet
  facet normal 0.951057 0.309017 0
    outer loop
      vertex 2.42705 1.76336 29.5
      vertex 3 0 33.5
      vertex 3 0 29.5
    endloop
  endfacet
  facet normal 0 1 -0
    outer loop
      vertex 0.927051 2.85317 29.5
      vertex -0.927051 2.85317 33.5
      vertex 0.927051 2.85317 33.5
    endloop
  endfacet
  facet normal 0 1 0
    outer loop
      vertex -0.927051 2.85317 33.5
      vertex 0.927051 2.85317 29.5
      vertex -0.927051 2.85317 29.5
    endloop
  endfacet
  facet normal 0 0 1
    outer loop
      vertex 2.21731 0 33.5
      vertex 3 0 33.5
      vertex 2.42705 1.76336 33.5
    endloop
  endfacet
  facet normal 0 0 1
    outer loop
      vertex 3 0 33.5
      vertex 2.21731 0 33.5
      vertex 2.42705 -1.76336 33.5
    endloop
  endfacet
  facet normal 0 0 1
    outer loop
      vertex 2.42705 1.76336 33.5
      vertex 1.56787 1.56787 33.5
      vertex 2.21731 0 33.5
    endloop
  endfacet
  facet normal 0 0 1
    outer loop
      vertex 0.927051 2.85317 33.5
      vertex 1.56787 1.56787 33.5
      vertex 2.42705 1.76336 33.5
    endloop
  endfacet
  facet normal 0 0 1
    outer loop
      vertex 0.927051 2.85317 33.5
      vertex 0 2.21731 33.5
      vertex 1.56787 1.56787 33.5
    endloop
  endfacet
  facet normal -0 0 1
    outer loop
      vertex -0.927051 2.85317 33.5
      vertex 0 2.21731 33.5
      vertex 0.927051 2.85317 33.5
    endloop
  endfacet
  facet normal 0 0 1
    outer loop
      vertex -0.927051 2.85317 33.5
      vertex -1.56787 1.56787 33.5
      vertex 0 2.21731 33.5
    endloop
  endfacet
  facet normal 0 0 1
    outer loop
      vertex -1.56787 1.56787 33.5
      vertex -2.42705 1.76336 33.5
      vertex -2.21731 0 33.5
    endloop
  endfacet
  facet normal -0 0 1
    outer loop
      vertex -2.42705 1.76336 33.5
      vertex -1.56787 1.56787 33.5
      vertex -0.927051 2.85317 33.5
    endloop
  endfacet
  facet normal -0 0 1
    outer loop
      vertex 1.56787 -1.56787 33.5
      vertex 2.42705 -1.76336 33.5
      vertex 2.21731 0 33.5
    endloop
  endfacet
  facet normal 0 0 1
    outer loop
      vertex 1.56787 -1.56787 33.5
      vertex 0.927051 -2.85317 33.5
      vertex 2.42705 -1.76336 33.5
    endloop
  endfacet
  facet normal -0 0 1
    outer loop
      vertex 0 -2.21731 33.5
      vertex 0.927051 -2.85317 33.5
      vertex 1.56787 -1.56787 33.5
    endloop
  endfacet
  facet normal 0 0 1
    outer loop
      vertex 0 -2.21731 33.5
      vertex -0.927051 -2.85317 33.5
      vertex 0.927051 -2.85317 33.5
    endloop
  endfacet
  facet normal 0 0 1
    outer loop
      vertex -1.56787 -1.56787 33.5
      vertex -0.927051 -2.85317 33.5
      vertex 0 -2.21731 33.5
    endloop
  endfacet
  facet normal 0 0 1
    outer loop
      vertex -1.56787 -1.56787 33.5
      vertex -2.42705 -1.76336 33.5
      vertex -0.927051 -2.85317 33.5
    endloop
  endfacet
  facet normal 0 0 1
    outer loop
      vertex -2.21731 0 33.5
      vertex -2.42705 -1.76336 33.5
      vertex -1.56787 -1.56787 33.5
    endloop
  endfacet
  facet normal 0 0 1
    outer loop
      vertex -3 0 33.5
      vertex -2.21731 0 33.5
      vertex -2.42705 1.76336 33.5
    endloop
  endfacet
  facet normal 0 0 1
    outer loop
      vertex -2.21731 0 33.5
      vertex -3 0 33.5
      vertex -2.42705 -1.76336 33.5
    endloop
  endfacet
  facet normal -0.587784 -0.809018 0
    outer loop
      vertex -2.42705 -1.76336 29.5
      vertex -0.927051 -2.85317 33.5
      vertex -2.42705 -1.76336 33.5
    endloop
  endfacet
  facet normal -0.587784 -0.809018 -0
    outer loop
      vertex -0.927051 -2.85317 33.5
      vertex -2.42705 -1.76336 29.5
      vertex -0.927051 -2.85317 29.5
    endloop
  endfacet
  facet normal 0.951057 -0.309017 0
    outer loop
      vertex 2.42705 -1.76336 33.5
      vertex 3 0 29.5
      vertex 3 0 33.5
    endloop
  endfacet
  facet normal 0.951057 -0.309017 0
    outer loop
      vertex 3 0 29.5
      vertex 2.42705 -1.76336 33.5
      vertex 2.42705 -1.76336 29.5
    endloop
  endfacet
  facet normal -0.587784 0.809018 0
    outer loop
      vertex -0.927051 2.85317 29.5
      vertex -2.42705 1.76336 33.5
      vertex -0.927051 2.85317 33.5
    endloop
  endfacet
  facet normal -0.587784 0.809018 0
    outer loop
      vertex -2.42705 1.76336 33.5
      vertex -0.927051 2.85317 29.5
      vertex -2.42705 1.76336 29.5
    endloop
  endfacet
  facet normal 0 -1 0
    outer loop
      vertex -0.927051 -2.85317 29.5
      vertex 0.927051 -2.85317 33.5
      vertex -0.927051 -2.85317 33.5
    endloop
  endfacet
  facet normal 0 -1 -0
    outer loop
      vertex 0.927051 -2.85317 33.5
      vertex -0.927051 -2.85317 29.5
      vertex 0.927051 -2.85317 29.5
    endloop
  endfacet
  facet normal 0.587784 -0.809018 0
    outer loop
      vertex 0.927051 -2.85317 29.5
      vertex 2.42705 -1.76336 33.5
      vertex 0.927051 -2.85317 33.5
    endloop
  endfacet
  facet normal 0.587784 -0.809018 0
    outer loop
      vertex 2.42705 -1.76336 33.5
      vertex 0.927051 -2.85317 29.5
      vertex 2.42705 -1.76336 29.5
    endloop
  endfacet
  facet normal -0.951057 0.309017 0
    outer loop
      vertex -3 0 29.5
      vertex -2.42705 1.76336 33.5
      vertex -2.42705 1.76336 29.5
    endloop
  endfacet
  facet normal -0.951057 0.309017 0
    outer loop
      vertex -2.42705 1.76336 33.5
      vertex -3 0 29.5
      vertex -3 0 33.5
    endloop
  endfacet
  facet normal 0 0 -1
    outer loop
      vertex 2.42705 -1.76336 29.5
      vertex 2.42705 1.76336 29.5
      vertex 3 0 29.5
    endloop
  endfacet
  facet normal 0 0 -1
    outer loop
      vertex 0.927051 -2.85317 29.5
      vertex 2.42705 1.76336 29.5
      vertex 2.42705 -1.76336 29.5
    endloop
  endfacet
  facet normal 0 0 -1
    outer loop
      vertex 0.927051 -2.85317 29.5
      vertex 0.927051 2.85317 29.5
      vertex 2.42705 1.76336 29.5
    endloop
  endfacet
  facet normal 0 0 -1
    outer loop
      vertex -0.927051 -2.85317 29.5
      vertex 0.927051 2.85317 29.5
      vertex 0.927051 -2.85317 29.5
    endloop
  endfacet
  facet normal 0 0 -1
    outer loop
      vertex -0.927051 -2.85317 29.5
      vertex -0.927051 2.85317 29.5
      vertex 0.927051 2.85317 29.5
    endloop
  endfacet
  facet normal 0 0 -1
    outer loop
      vertex -2.42705 -1.76336 29.5
      vertex -0.927051 2.85317 29.5
      vertex -0.927051 -2.85317 29.5
    endloop
  endfacet
  facet normal 0 0 -1
    outer loop
      vertex -2.42705 -1.76336 29.5
      vertex -2.42705 1.76336 29.5
      vertex -0.927051 2.85317 29.5
    endloop
  endfacet
  facet normal 0 -0 -1
    outer loop
      vertex -2.42705 1.76336 29.5
      vertex -2.42705 -1.76336 29.5
      vertex -3 0 29.5
    endloop
  endfacet
  facet normal -0.28109 0.678605 0.678589
    outer loop
      vertex 0 2.21731 34.4184
      vertex -1.56787 1.56787 34.4184
      vertex 0 0.91844 35.7173
    endloop
  endfacet
  facet normal -0.678607 -0.281088 0.678588
    outer loop
      vertex -0.91844 0 35.7173
      vertex -1.56787 -1.56787 34.4184
      vertex -0.649435 -0.649435 35.7173
    endloop
  endfacet
  facet normal 0.28109 0.678605 0.678589
    outer loop
      vertex 0 2.21731 34.4184
      vertex 0 0.91844 35.7173
      vertex 1.56787 1.56787 34.4184
    endloop
  endfacet
  facet normal -0.678605 0.28109 0.678589
    outer loop
      vertex -1.56787 1.56787 34.4184
      vertex -2.21731 0 34.4184
      vertex -0.91844 0 35.7173
    endloop
  endfacet
  facet normal 0.281088 0.678607 0.678588
    outer loop
      vertex 1.56787 1.56787 34.4184
      vertex 0 0.91844 35.7173
      vertex 0.649435 0.649435 35.7173
    endloop
  endfacet
  facet normal 0.678607 0.281088 0.678588
    outer loop
      vertex 1.56787 1.56787 34.4184
      vertex 0.649435 0.649435 35.7173
      vertex 0.91844 0 35.7173
    endloop
  endfacet
  facet normal -0.678605 -0.28109 0.678589
    outer loop
      vertex -0.91844 0 35.7173
      vertex -2.21731 0 34.4184
      vertex -1.56787 -1.56787 34.4184
    endloop
  endfacet
  facet normal 0.923878 0.382687 0
    outer loop
      vertex 2.21731 0 34.4184
      vertex 1.56787 1.56787 33.5
      vertex 1.56787 1.56787 34.4184
    endloop
  endfacet
  facet normal 0.923878 0.382687 0
    outer loop
      vertex 1.56787 1.56787 33.5
      vertex 2.21731 0 34.4184
      vertex 2.21731 0 33.5
    endloop
  endfacet
  facet normal 0.678605 0.28109 0.678589
    outer loop
      vertex 1.56787 1.56787 34.4184
      vertex 0.91844 0 35.7173
      vertex 2.21731 0 34.4184
    endloop
  endfacet
  facet normal -0.281088 -0.678607 0.678588
    outer loop
      vertex -0.649435 -0.649435 35.7173
      vertex -1.56787 -1.56787 34.4184
      vertex 0 -0.91844 35.7173
    endloop
  endfacet
  facet normal 0.678605 -0.28109 0.678589
    outer loop
      vertex 2.21731 0 34.4184
      vertex 0.91844 0 35.7173
      vertex 1.56787 -1.56787 34.4184
    endloop
  endfacet
  facet normal -0.923878 0.382687 0
    outer loop
      vertex -2.21731 0 33.5
      vertex -1.56787 1.56787 34.4184
      vertex -1.56787 1.56787 33.5
    endloop
  endfacet
  facet normal -0.923878 0.382687 0
    outer loop
      vertex -1.56787 1.56787 34.4184
      vertex -2.21731 0 33.5
      vertex -2.21731 0 34.4184
    endloop
  endfacet
  facet normal -0.382687 0.923878 0
    outer loop
      vertex 0 2.21731 33.5
      vertex -1.56787 1.56787 34.4184
      vertex 0 2.21731 34.4184
    endloop
  endfacet
  facet normal -0.382687 0.923878 0
    outer loop
      vertex -1.56787 1.56787 34.4184
      vertex 0 2.21731 33.5
      vertex -1.56787 1.56787 33.5
    endloop
  endfacet
  facet normal -0.382687 -0.923878 0
    outer loop
      vertex -1.56787 -1.56787 33.5
      vertex 0 -2.21731 34.4184
      vertex -1.56787 -1.56787 34.4184
    endloop
  endfacet
  facet normal -0.382687 -0.923878 -0
    outer loop
      vertex 0 -2.21731 34.4184
      vertex -1.56787 -1.56787 33.5
      vertex 0 -2.21731 33.5
    endloop
  endfacet
  facet normal 0.382687 0.923878 -0
    outer loop
      vertex 1.56787 1.56787 33.5
      vertex 0 2.21731 34.4184
      vertex 1.56787 1.56787 34.4184
    endloop
  endfacet
  facet normal 0.382687 0.923878 0
    outer loop
      vertex 0 2.21731 34.4184
      vertex 1.56787 1.56787 33.5
      vertex 0 2.21731 33.5
    endloop
  endfacet
  facet normal 0.923878 -0.382687 0
    outer loop
      vertex 1.56787 -1.56787 34.4184
      vertex 2.21731 0 33.5
      vertex 2.21731 0 34.4184
    endloop
  endfacet
  facet normal 0.923878 -0.382687 0
    outer loop
      vertex 2.21731 0 33.5
      vertex 1.56787 -1.56787 34.4184
      vertex 1.56787 -1.56787 33.5
    endloop
  endfacet
  facet normal 0 0 1
    outer loop
      vertex 0.649435 0.649435 35.7173
      vertex 0.649435 -0.649435 35.7173
      vertex 0.91844 0 35.7173
    endloop
  endfacet
  facet normal 0 0 1
    outer loop
      vertex 0 0.91844 35.7173
      vertex 0.649435 -0.649435 35.7173
      vertex 0.649435 0.649435 35.7173
    endloop
  endfacet
  facet normal 0 0 1
    outer loop
      vertex 0 0.91844 35.7173
      vertex 0 -0.91844 35.7173
      vertex 0.649435 -0.649435 35.7173
    endloop
  endfacet
  facet normal -0 0 1
    outer loop
      vertex -0.649435 0.649435 35.7173
      vertex 0 -0.91844 35.7173
      vertex 0 0.91844 35.7173
    endloop
  endfacet
  facet normal 0 0 1
    outer loop
      vertex -0.649435 0.649435 35.7173
      vertex -0.649435 -0.649435 35.7173
      vertex 0 -0.91844 35.7173
    endloop
  endfacet
  facet normal 0 -0 1
    outer loop
      vertex -0.649435 -0.649435 35.7173
      vertex -0.649435 0.649435 35.7173
      vertex -0.91844 0 35.7173
    endloop
  endfacet
  facet normal -0.923878 -0.382687 0
    outer loop
      vertex -1.56787 -1.56787 33.5
      vertex -2.21731 0 34.4184
      vertex -2.21731 0 33.5
    endloop
  endfacet
  facet normal -0.923878 -0.382687 0
    outer loop
      vertex -2.21731 0 34.4184
      vertex -1.56787 -1.56787 33.5
      vertex -1.56787 -1.56787 34.4184
    endloop
  endfacet
  facet normal -0.281088 0.678607 0.678588
    outer loop
      vertex 0 0.91844 35.7173
      vertex -1.56787 1.56787 34.4184
      vertex -0.649435 0.649435 35.7173
    endloop
  endfacet
  facet normal -0.678607 0.281088 0.678588
    outer loop
      vertex -0.649435 0.649435 35.7173
      vertex -1.56787 1.56787 34.4184
      vertex -0.91844 0 35.7173
    endloop
  endfacet
  facet normal 0.28109 -0.678605 0.678589
    outer loop
      vertex 0 -0.91844 35.7173
      vertex 0 -2.21731 34.4184
      vertex 1.56787 -1.56787 34.4184
    endloop
  endfacet
  facet normal -0.28109 -0.678605 0.678589
    outer loop
      vertex 0 -0.91844 35.7173
      vertex -1.56787 -1.56787 34.4184
      vertex 0 -2.21731 34.4184
    endloop
  endfacet
  facet normal 0.281088 -0.678607 0.678588
    outer loop
      vertex 0.649435 -0.649435 35.7173
      vertex 0 -0.91844 35.7173
      vertex 1.56787 -1.56787 34.4184
    endloop
  endfacet
  facet normal 0.678607 -0.281088 0.678588
    outer loop
      vertex 0.91844 0 35.7173
      vertex 0.649435 -0.649435 35.7173
      vertex 1.56787 -1.56787 34.4184
    endloop
  endfacet
  facet normal 0.382687 -0.923878 0
    outer loop
      vertex 0 -2.21731 33.5
      vertex 1.56787 -1.56787 34.4184
      vertex 0 -2.21731 34.4184
    endloop
  endfacet
  facet normal 0.382687 -0.923878 0
    outer loop
      vertex 1.56787 -1.56787 34.4184
      vertex 0 -2.21731 33.5
      vertex 1.56787 -1.56787 33.5
    endloop
  endfacet
  facet normal 0.222525 0.974927 -4.17119e-09
    outer loop
      vertex 1.24698 1.56366 27.5
      vertex 0 1.84828 -24.2125
      vertex -0.445042 1.94986 27.5
    endloop
  endfacet
  facet normal 0.222525 0.974927 0
    outer loop
      vertex 0 1.84828 -24.2125
      vertex 1.24698 1.56366 27.5
      vertex 1.24698 1.56366 -24.4444
    endloop
  endfacet
  facet normal 0.222525 0.974927 0
    outer loop
      vertex -0.445042 1.94986 27.5
      vertex 0 1.84828 -24.2125
      vertex -0.445042 1.94986 -24.4984
    endloop
  endfacet
  facet normal 0.900979 0.433864 0
    outer loop
      vertex 1.24698 1.56366 27.5
      vertex 1.29865 1.45636 -24.3585
      vertex 1.24698 1.56366 -24.4444
    endloop
  endfacet
  facet normal 0.900981 0.433859 1.19762e-08
    outer loop
      vertex 1.24698 1.56366 27.5
      vertex 1.34991 1.34991 -24.2733
      vertex 1.29865 1.45636 -24.3585
    endloop
  endfacet
  facet normal 0.900969 0.433884 -1.16869e-07
    outer loop
      vertex 2 0 27.5
      vertex 1.34991 1.34991 -24.2733
      vertex 1.24698 1.56366 27.5
    endloop
  endfacet
  facet normal 0.900966 0.43389 6.02943e-08
    outer loop
      vertex 1.34991 1.34991 -24.2733
      vertex 2 0 27.5
      vertex 1.41855 1.20738 -24.2829
    endloop
  endfacet
  facet normal 0.900967 0.433888 0
    outer loop
      vertex 1.41855 1.20738 -24.2829
      vertex 2 0 27.5
      vertex 2 0 -24.3643
    endloop
  endfacet
  facet normal 0.900967 -0.433888 0
    outer loop
      vertex 2 0 27.5
      vertex 1.41855 -1.20738 -24.2829
      vertex 2 0 -24.3643
    endloop
  endfacet
  facet normal 0.900966 -0.43389 6.02943e-08
    outer loop
      vertex 2 0 27.5
      vertex 1.34991 -1.34991 -24.2733
      vertex 1.41855 -1.20738 -24.2829
    endloop
  endfacet
  facet normal 0.900969 -0.433884 -1.16869e-07
    outer loop
      vertex 1.24698 -1.56366 27.5
      vertex 1.34991 -1.34991 -24.2733
      vertex 2 0 27.5
    endloop
  endfacet
  facet normal 0.900981 -0.433859 1.19762e-08
    outer loop
      vertex 1.34991 -1.34991 -24.2733
      vertex 1.24698 -1.56366 27.5
      vertex 1.29865 -1.45636 -24.3585
    endloop
  endfacet
  facet normal 0.900979 -0.433864 0
    outer loop
      vertex 1.29865 -1.45636 -24.3585
      vertex 1.24698 -1.56366 27.5
      vertex 1.24698 -1.56366 -24.4444
    endloop
  endfacet
  facet normal -0.623491 0.781831 -1.66433e-07
    outer loop
      vertex -0.445042 1.94986 27.5
      vertex -1.28222 1.28222 -24.1776
      vertex -1.80194 0.867767 27.5
    endloop
  endfacet
  facet normal -0.623514 0.781813 4.36126e-07
    outer loop
      vertex -0.445042 1.94986 27.5
      vertex -1.14413 1.39235 -24.2305
      vertex -1.28222 1.28222 -24.1776
    endloop
  endfacet
  facet normal -0.623494 0.781828 0
    outer loop
      vertex -1.14413 1.39235 -24.2305
      vertex -0.445042 1.94986 27.5
      vertex -0.445042 1.94986 -24.4984
    endloop
  endfacet
  facet normal -0.623436 0.781874 7.32004e-07
    outer loop
      vertex -1.40801 1.18192 -24.2618
      vertex -1.80194 0.867767 27.5
      vertex -1.28222 1.28222 -24.1776
    endloop
  endfacet
  facet normal -0.623495 0.781827 0
    outer loop
      vertex -1.80194 0.867767 27.5
      vertex -1.40801 1.18192 -24.2618
      vertex -1.80194 0.867767 -24.5256
    endloop
  endfacet
  facet normal 0 0 1
    outer loop
      vertex 1.24698 1.56366 27.5
      vertex 1.24698 -1.56366 27.5
      vertex 2 0 27.5
    endloop
  endfacet
  facet normal 0 0 1
    outer loop
      vertex -0.445042 1.94986 27.5
      vertex 1.24698 -1.56366 27.5
      vertex 1.24698 1.56366 27.5
    endloop
  endfacet
  facet normal 0 0 1
    outer loop
      vertex -0.445042 1.94986 27.5
      vertex -0.445042 -1.94986 27.5
      vertex 1.24698 -1.56366 27.5
    endloop
  endfacet
  facet normal -0 0 1
    outer loop
      vertex -1.80194 0.867767 27.5
      vertex -0.445042 -1.94986 27.5
      vertex -0.445042 1.94986 27.5
    endloop
  endfacet
  facet normal 0 0 1
    outer loop
      vertex -0.445042 -1.94986 27.5
      vertex -1.80194 0.867767 27.5
      vertex -1.80194 -0.867767 27.5
    endloop
  endfacet
  facet normal -0.623491 -0.781831 -1.66433e-07
    outer loop
      vertex -1.80194 -0.867767 27.5
      vertex -1.28222 -1.28222 -24.1776
      vertex -0.445042 -1.94986 27.5
    endloop
  endfacet
  facet normal -0.623436 -0.781874 7.32004e-07
    outer loop
      vertex -1.80194 -0.867767 27.5
      vertex -1.40801 -1.18192 -24.2618
      vertex -1.28222 -1.28222 -24.1776
    endloop
  endfacet
  facet normal -0.623495 -0.781827 0
    outer loop
      vertex -1.40801 -1.18192 -24.2618
      vertex -1.80194 -0.867767 27.5
      vertex -1.80194 -0.867767 -24.5256
    endloop
  endfacet
  facet normal -0.623514 -0.781813 4.36126e-07
    outer loop
      vertex -1.14413 -1.39235 -24.2305
      vertex -0.445042 -1.94986 27.5
      vertex -1.28222 -1.28222 -24.1776
    endloop
  endfacet
  facet normal -0.623494 -0.781828 -0
    outer loop
      vertex -0.445042 -1.94986 27.5
      vertex -1.14413 -1.39235 -24.2305
      vertex -0.445042 -1.94986 -24.4984
    endloop
  endfacet
  facet normal 0.222525 -0.974927 -4.17119e-09
    outer loop
      vertex -0.445042 -1.94986 27.5
      vertex 0 -1.84828 -24.2125
      vertex 1.24698 -1.56366 27.5
    endloop
  endfacet
  facet normal 0.222525 -0.974927 0
    outer loop
      vertex 0 -1.84828 -24.2125
      vertex -0.445042 -1.94986 27.5
      vertex -0.445042 -1.94986 -24.4984
    endloop
  endfacet
  facet normal 0.222525 -0.974927 0
    outer loop
      vertex 1.24698 -1.56366 27.5
      vertex 0 -1.84828 -24.2125
      vertex 1.24698 -1.56366 -24.4444
    endloop
  endfacet
  facet normal -1 0 0
    outer loop
      vertex -1.80194 0 -24.1662
      vertex -1.80194 0.867767 27.5
      vertex -1.80194 0.867767 -24.5256
    endloop
  endfacet
  facet normal -1 0 0
    outer loop
      vertex -1.80194 -0.867767 27.5
      vertex -1.80194 0 -24.1662
      vertex -1.80194 -0.867767 -24.5256
    endloop
  endfacet
  facet normal -1 0 0
    outer loop
      vertex -1.80194 0 -24.1662
      vertex -1.80194 -0.867767 27.5
      vertex -1.80194 0.867767 27.5
    endloop
  endfacet
  facet normal 0 1 -0
    outer loop
      vertex 0.9 -1.55885 -19.5
      vertex -0.9 -1.55885 19.5
      vertex 0.9 -1.55885 19.5
    endloop
  endfacet
  facet normal 0 1 0
    outer loop
      vertex -0.9 -1.55885 19.5
      vertex 0.9 -1.55885 -19.5
      vertex -0.9 -1.55885 -19.5
    endloop
  endfacet
  facet normal -0.866026 0.499999 0
    outer loop
      vertex 0.9 -1.55885 -19.5
      vertex 1.8 0 19.5
      vertex 1.8 0 -19.5
    endloop
  endfacet
  facet normal -0.866026 0.499999 0
    outer loop
      vertex 1.8 0 19.5
      vertex 0.9 -1.55885 -19.5
      vertex 0.9 -1.55885 19.5
    endloop
  endfacet
  facet normal 0 -1 0
    outer loop
      vertex -0.9 1.55885 -19.5
      vertex 0.9 1.55885 19.5
      vertex -0.9 1.55885 19.5
    endloop
  endfacet
  facet normal 0 -1 -0
    outer loop
      vertex 0.9 1.55885 19.5
      vertex -0.9 1.55885 -19.5
      vertex 0.9 1.55885 -19.5
    endloop
  endfacet
  facet normal -0.866026 -0.499999 0
    outer loop
      vertex 1.8 0 -19.5
      vertex 0.9 1.55885 19.5
      vertex 0.9 1.55885 -19.5
    endloop
  endfacet
  facet normal -0.866026 -0.499999 0
    outer loop
      vertex 0.9 1.55885 19.5
      vertex 1.8 0 -19.5
      vertex 1.8 0 19.5
    endloop
  endfacet
  facet normal 0.866026 -0.499999 0
    outer loop
      vertex -1.8 0 19.5
      vertex -0.9 1.55885 -19.5
      vertex -0.9 1.55885 19.5
    endloop
  endfacet
  facet normal 0.866026 -0.499999 0
    outer loop
      vertex -0.9 1.55885 -19.5
      vertex -1.8 0 19.5
      vertex -1.8 0 -19.5
    endloop
  endfacet
  facet normal 0.866026 0.499999 0
    outer loop
      vertex -0.9 -1.55885 19.5
      vertex -1.8 0 -19.5
      vertex -1.8 0 19.5
    endloop
  endfacet
  facet normal 0.866026 0.499999 0
    outer loop
      vertex -1.8 0 -19.5
      vertex -0.9 -1.55885 19.5
      vertex -0.9 -1.55885 -19.5
    endloop
  endfacet
  facet normal 0 0 -1
    outer loop
      vertex 0.9 -1.55885 19.5
      vertex 0.9 1.55885 19.5
      vertex 1.8 0 19.5
    endloop
  endfacet
  facet normal 0 0 -1
    outer loop
      vertex -0.9 -1.55885 19.5
      vertex 0.9 1.55885 19.5
      vertex 0.9 -1.55885 19.5
    endloop
  endfacet
  facet normal 0 0 -1
    outer loop
      vertex -0.9 -1.55885 19.5
      vertex -0.9 1.55885 19.5
      vertex 0.9 1.55885 19.5
    endloop
  endfacet
  facet normal 0 -0 -1
    outer loop
      vertex -0.9 1.55885 19.5
      vertex -0.9 -1.55885 19.5
      vertex -1.8 0 19.5
    endloop
  endfacet
  facet normal 0 0 1
    outer loop
      vertex 0.9 1.55885 -19.5
      vertex 0.9 -1.55885 -19.5
      vertex 1.8 0 -19.5
    endloop
  endfacet
  facet normal -0 0 1
    outer loop
      vertex -0.9 1.55885 -19.5
      vertex 0.9 -1.55885 -19.5
      vertex 0.9 1.55885 -19.5
    endloop
  endfacet
  facet normal 0 0 1
    outer loop
      vertex -0.9 1.55885 -19.5
      vertex -0.9 -1.55885 -19.5
      vertex 0.9 -1.55885 -19.5
    endloop
  endfacet
  facet normal 0 -0 1
    outer loop
      vertex -0.9 -1.55885 -19.5
      vertex -0.9 1.55885 -19.5
      vertex -1.8 0 -19.5
    endloop
  endfacet
  facet normal -0.951057 -0.309017 0
    outer loop
      vertex -2.42705 -1.76336 -29.5
      vertex -3 0 -25.5
      vertex -3 0 -29.5
    endloop
  endfacet
  facet normal -0.951057 -0.309017 0
    outer loop
      vertex -3 0 -25.5
      vertex -2.42705 -1.76336 -29.5
      vertex -2.42705 -1.76336 -25.5
    endloop
  endfacet
  facet normal 0.587784 0.809018 -0
    outer loop
      vertex 2.42705 1.76336 -29.5
      vertex 0.927051 2.85317 -25.5
      vertex 2.42705 1.76336 -25.5
    endloop
  endfacet
  facet normal 0.587784 0.809018 0
    outer loop
      vertex 0.927051 2.85317 -25.5
      vertex 2.42705 1.76336 -29.5
      vertex 0.927051 2.85317 -29.5
    endloop
  endfacet
  facet normal 0.951057 0.309017 0
    outer loop
      vertex 3 0 -25.5
      vertex 2.42705 1.76336 -29.5
      vertex 2.42705 1.76336 -25.5
    endloop
  endfacet
  facet normal 0.951057 0.309017 0
    outer loop
      vertex 2.42705 1.76336 -29.5
      vertex 3 0 -25.5
      vertex 3 0 -29.5
    endloop
  endfacet
  facet normal 0 1 -0
    outer loop
      vertex 0.927051 2.85317 -29.5
      vertex -0.927051 2.85317 -25.5
      vertex 0.927051 2.85317 -25.5
    endloop
  endfacet
  facet normal 0 1 0
    outer loop
      vertex -0.927051 2.85317 -25.5
      vertex 0.927051 2.85317 -29.5
      vertex -0.927051 2.85317 -29.5
    endloop
  endfacet
  facet normal 0 0 1
    outer loop
      vertex 2.21731 0 -25.5
      vertex 3 0 -25.5
      vertex 2.42705 1.76336 -25.5
    endloop
  endfacet
  facet normal 0 0 1
    outer loop
      vertex 3 0 -25.5
      vertex 2.21731 0 -25.5
      vertex 2.42705 -1.76336 -25.5
    endloop
  endfacet
  facet normal 0 0 1
    outer loop
      vertex 2.42705 1.76336 -25.5
      vertex 1.56787 1.56787 -25.5
      vertex 2.21731 0 -25.5
    endloop
  endfacet
  facet normal 0 0 1
    outer loop
      vertex 0.927051 2.85317 -25.5
      vertex 1.56787 1.56787 -25.5
      vertex 2.42705 1.76336 -25.5
    endloop
  endfacet
  facet normal 0 0 1
    outer loop
      vertex 0.927051 2.85317 -25.5
      vertex 0 2.21731 -25.5
      vertex 1.56787 1.56787 -25.5
    endloop
  endfacet
  facet normal -0 0 1
    outer loop
      vertex -0.927051 2.85317 -25.5
      vertex 0 2.21731 -25.5
      vertex 0.927051 2.85317 -25.5
    endloop
  endfacet
  facet normal 0 0 1
    outer loop
      vertex -0.927051 2.85317 -25.5
      vertex -1.56787 1.56787 -25.5
      vertex 0 2.21731 -25.5
    endloop
  endfacet
  facet normal 0 0 1
    outer loop
      vertex -1.56787 1.56787 -25.5
      vertex -2.42705 1.76336 -25.5
      vertex -2.21731 0 -25.5
    endloop
  endfacet
  facet normal -0 0 1
    outer loop
      vertex -2.42705 1.76336 -25.5
      vertex -1.56787 1.56787 -25.5
      vertex -0.927051 2.85317 -25.5
    endloop
  endfacet
  facet normal -0 0 1
    outer loop
      vertex 1.56787 -1.56787 -25.5
      vertex 2.42705 -1.76336 -25.5
      vertex 2.21731 0 -25.5
    endloop
  endfacet
  facet normal 0 0 1
    outer loop
      vertex 1.56787 -1.56787 -25.5
      vertex 0.927051 -2.85317 -25.5
      vertex 2.42705 -1.76336 -25.5
    endloop
  endfacet
  facet normal -0 0 1
    outer loop
      vertex 0 -2.21731 -25.5
      vertex 0.927051 -2.85317 -25.5
      vertex 1.56787 -1.56787 -25.5
    endloop
  endfacet
  facet normal 0 0 1
    outer loop
      vertex 0 -2.21731 -25.5
      vertex -0.927051 -2.85317 -25.5
      vertex 0.927051 -2.85317 -25.5
    endloop
  endfacet
  facet normal 0 0 1
    outer loop
      vertex -1.56787 -1.56787 -25.5
      vertex -0.927051 -2.85317 -25.5
      vertex 0 -2.21731 -25.5
    endloop
  endfacet
  facet normal 0 0 1
    outer loop
      vertex -1.56787 -1.56787 -25.5
      vertex -2.42705 -1.76336 -25.5
      vertex -0.927051 -2.85317 -25.5
    endloop
  endfacet
  facet normal 0 0 1
    outer loop
      vertex -2.21731 0 -25.5
      vertex -2.42705 -1.76336 -25.5
      vertex -1.56787 -1.56787 -25.5
    endloop
  endfacet
  facet normal 0 0 1
    outer loop
      vertex -3 0 -25.5
      vertex -2.21731 0 -25.5
      vertex -2.42705 1.76336 -25.5
    endloop
  endfacet
  facet normal 0 0 1
    outer loop
      vertex -2.21731 0 -25.5
      vertex -3 0 -25.5
      vertex -2.42705 -1.76336 -25.5
    endloop
  endfacet
  facet normal -0.587784 -0.809018 0
    outer loop
      vertex -2.42705 -1.76336 -29.5
      vertex -0.927051 -2.85317 -25.5
      vertex -2.42705 -1.76336 -25.5
    endloop
  endfacet
  facet normal -0.587784 -0.809018 -0
    outer loop
      vertex -0.927051 -2.85317 -25.5
      vertex -2.42705 -1.76336 -29.5
      vertex -0.927051 -2.85317 -29.5
    endloop
  endfacet
  facet normal 0.951057 -0.309017 0
    outer loop
      vertex 2.42705 -1.76336 -25.5
      vertex 3 0 -29.5
      vertex 3 0 -25.5
    endloop
  endfacet
  facet normal 0.951057 -0.309017 0
    outer loop
      vertex 3 0 -29.5
      vertex 2.42705 -1.76336 -25.5
      vertex 2.42705 -1.76336 -29.5
    endloop
  endfacet
  facet normal -0.587784 0.809018 0
    outer loop
      vertex -0.927051 2.85317 -29.5
      vertex -2.42705 1.76336 -25.5
      vertex -0.927051 2.85317 -25.5
    endloop
  endfacet
  facet normal -0.587784 0.809018 0
    outer loop
      vertex -2.42705 1.76336 -25.5
      vertex -0.927051 2.85317 -29.5
      vertex -2.42705 1.76336 -29.5
    endloop
  endfacet
  facet normal 0 -1 0
    outer loop
      vertex -0.927051 -2.85317 -29.5
      vertex 0.927051 -2.85317 -25.5
      vertex -0.927051 -2.85317 -25.5
    endloop
  endfacet
  facet normal 0 -1 -0
    outer loop
      vertex 0.927051 -2.85317 -25.5
      vertex -0.927051 -2.85317 -29.5
      vertex 0.927051 -2.85317 -29.5
    endloop
  endfacet
  facet normal 0.587784 -0.809018 0
    outer loop
      vertex 0.927051 -2.85317 -29.5
      vertex 2.42705 -1.76336 -25.5
      vertex 0.927051 -2.85317 -25.5
    endloop
  endfacet
  facet normal 0.587784 -0.809018 0
    outer loop
      vertex 2.42705 -1.76336 -25.5
      vertex 0.927051 -2.85317 -29.5
      vertex 2.42705 -1.76336 -29.5
    endloop
  endfacet
  facet normal -0.951057 0.309017 0
    outer loop
      vertex -3 0 -29.5
      vertex -2.42705 1.76336 -25.5
      vertex -2.42705 1.76336 -29.5
    endloop
  endfacet
  facet normal -0.951057 0.309017 0
    outer loop
      vertex -2.42705 1.76336 -25.5
      vertex -3 0 -29.5
      vertex -3 0 -25.5
    endloop
  endfacet
  facet normal 0 0 -1
    outer loop
      vertex 2.42705 -1.76336 -29.5
      vertex 2.42705 1.76336 -29.5
      vertex 3 0 -29.5
    endloop
  endfacet
  facet normal 0 0 -1
    outer loop
      vertex 0.927051 -2.85317 -29.5
      vertex 2.42705 1.76336 -29.5
      vertex 2.42705 -1.76336 -29.5
    endloop
  endfacet
  facet normal 0 0 -1
    outer loop
      vertex 0.927051 -2.85317 -29.5
      vertex 0.927051 2.85317 -29.5
      vertex 2.42705 1.76336 -29.5
    endloop
  endfacet
  facet normal 0 0 -1
    outer loop
      vertex -0.927051 -2.85317 -29.5
      vertex 0.927051 2.85317 -29.5
      vertex 0.927051 -2.85317 -29.5
    endloop
  endfacet
  facet normal 0 0 -1
    outer loop
      vertex -0.927051 -2.85317 -29.5
      vertex -0.927051 2.85317 -29.5
      vertex 0.927051 2.85317 -29.5
    endloop
  endfacet
  facet normal 0 0 -1
    outer loop
      vertex -2.42705 -1.76336 -29.5
      vertex -0.927051 2.85317 -29.5
      vertex -0.927051 -2.85317 -29.5
    endloop
  endfacet
  facet normal 0 0 -1
    outer loop
      vertex -2.42705 -1.76336 -29.5
      vertex -2.42705 1.76336 -29.5
      vertex -0.927051 2.85317 -29.5
    endloop
  endfacet
  facet normal 0 -0 -1
    outer loop
      vertex -2.42705 1.76336 -29.5
      vertex -2.42705 -1.76336 -29.5
      vertex -3 0 -29.5
    endloop
  endfacet
  facet normal -0.281002 0.67868 0.678551
    outer loop
      vertex 0 2.21731 -24.5816
      vertex -0.445042 1.94986 -24.4984
      vertex 0 1.84828 -24.2125
    endloop
  endfacet
  facet normal -0.281146 0.678611 0.678561
    outer loop
      vertex -0.445042 1.94986 -24.4984
      vertex -1.56787 1.56787 -24.5816
      vertex -1.14413 1.39235 -24.2305
    endloop
  endfacet
  facet normal -0.281234 0.678952 0.678182
    outer loop
      vertex -1.56787 1.56787 -24.5816
      vertex -0.445042 1.94986 -24.4984
      vertex 0 2.21731 -24.5816
    endloop
  endfacet
  facet normal -0.678511 -0.281263 0.678612
    outer loop
      vertex -1.40801 -1.18192 -24.2618
      vertex -1.56787 -1.56787 -24.5816
      vertex -1.28222 -1.28222 -24.1776
    endloop
  endfacet
  facet normal 0.281209 0.678617 0.678528
    outer loop
      vertex 1.56787 1.56787 -24.5816
      vertex 1.24698 1.56366 -24.4444
      vertex 1.29865 1.45636 -24.3585
    endloop
  endfacet
  facet normal 0.281155 0.678761 0.678407
    outer loop
      vertex 0 2.21731 -24.5816
      vertex 1.24698 1.56366 -24.4444
      vertex 1.56787 1.56787 -24.5816
    endloop
  endfacet
  facet normal 0.281089 0.678662 0.678533
    outer loop
      vertex 1.24698 1.56366 -24.4444
      vertex 0 2.21731 -24.5816
      vertex 0 1.84828 -24.2125
    endloop
  endfacet
  facet normal -0.678619 0.281163 0.678545
    outer loop
      vertex -1.56787 1.56787 -24.5816
      vertex -1.80194 0.867767 -24.5256
      vertex -1.40801 1.18192 -24.2618
    endloop
  endfacet
  facet normal -0.679015 0.28126 0.678109
    outer loop
      vertex -2.21731 0 -24.5816
      vertex -1.80194 0.867767 -24.5256
      vertex -1.56787 1.56787 -24.5816
    endloop
  endfacet
  facet normal -0.678631 0.281046 0.678582
    outer loop
      vertex -1.80194 0.867767 -24.5256
      vertex -2.21731 0 -24.5816
      vertex -1.80194 0 -24.1662
    endloop
  endfacet
  facet normal 0.281269 0.678552 0.678568
    outer loop
      vertex 1.56787 1.56787 -24.5816
      vertex 1.29865 1.45636 -24.3585
      vertex 1.34991 1.34991 -24.2733
    endloop
  endfacet
  facet normal 0.678648 0.281123 0.678533
    outer loop
      vertex 1.56787 1.56787 -24.5816
      vertex 1.34991 1.34991 -24.2733
      vertex 1.41855 1.20738 -24.2829
    endloop
  endfacet
  facet normal -0.678631 -0.281046 0.678582
    outer loop
      vertex -2.21731 0 -24.5816
      vertex -1.80194 -0.867767 -24.5256
      vertex -1.80194 0 -24.1662
    endloop
  endfacet
  facet normal -0.678619 -0.281163 0.678545
    outer loop
      vertex -1.80194 -0.867767 -24.5256
      vertex -1.56787 -1.56787 -24.5816
      vertex -1.40801 -1.18192 -24.2618
    endloop
  endfacet
  facet normal -0.679015 -0.28126 0.678109
    outer loop
      vertex -1.56787 -1.56787 -24.5816
      vertex -1.80194 -0.867767 -24.5256
      vertex -2.21731 0 -24.5816
    endloop
  endfacet
  facet normal 0.923878 0.382687 0
    outer loop
      vertex 2.21731 0 -24.5816
      vertex 1.56787 1.56787 -25.5
      vertex 1.56787 1.56787 -24.5816
    endloop
  endfacet
  facet normal 0.923878 0.382687 0
    outer loop
      vertex 1.56787 1.56787 -25.5
      vertex 2.21731 0 -24.5816
      vertex 2.21731 0 -25.5
    endloop
  endfacet
  facet normal 0.678659 0.281113 0.678526
    outer loop
      vertex 1.41855 1.20738 -24.2829
      vertex 2.21731 0 -24.5816
      vertex 1.56787 1.56787 -24.5816
    endloop
  endfacet
  facet normal 0.678591 0.281044 0.678622
    outer loop
      vertex 2.21731 0 -24.5816
      vertex 1.41855 1.20738 -24.2829
      vertex 2 0 -24.3643
    endloop
  endfacet
  facet normal -0.281201 -0.678551 0.678597
    outer loop
      vertex -1.28222 -1.28222 -24.1776
      vertex -1.56787 -1.56787 -24.5816
      vertex -1.14413 -1.39235 -24.2305
    endloop
  endfacet
  facet normal 0.678591 -0.281044 0.678622
    outer loop
      vertex 1.41855 -1.20738 -24.2829
      vertex 2.21731 0 -24.5816
      vertex 2 0 -24.3643
    endloop
  endfacet
  facet normal 0.678659 -0.281113 0.678526
    outer loop
      vertex 2.21731 0 -24.5816
      vertex 1.41855 -1.20738 -24.2829
      vertex 1.56787 -1.56787 -24.5816
    endloop
  endfacet
  facet normal -0.923878 0.382687 0
    outer loop
      vertex -2.21731 0 -25.5
      vertex -1.56787 1.56787 -24.5816
      vertex -1.56787 1.56787 -25.5
    endloop
  endfacet
  facet normal -0.923878 0.382687 0
    outer loop
      vertex -1.56787 1.56787 -24.5816
      vertex -2.21731 0 -25.5
      vertex -2.21731 0 -24.5816
    endloop
  endfacet
  facet normal -0.382687 0.923878 0
    outer loop
      vertex 0 2.21731 -25.5
      vertex -1.56787 1.56787 -24.5816
      vertex 0 2.21731 -24.5816
    endloop
  endfacet
  facet normal -0.382687 0.923878 0
    outer loop
      vertex -1.56787 1.56787 -24.5816
      vertex 0 2.21731 -25.5
      vertex -1.56787 1.56787 -25.5
    endloop
  endfacet
  facet normal -0.382687 -0.923878 0
    outer loop
      vertex -1.56787 -1.56787 -25.5
      vertex 0 -2.21731 -24.5816
      vertex -1.56787 -1.56787 -24.5816
    endloop
  endfacet
  facet normal -0.382687 -0.923878 -0
    outer loop
      vertex 0 -2.21731 -24.5816
      vertex -1.56787 -1.56787 -25.5
      vertex 0 -2.21731 -25.5
    endloop
  endfacet
  facet normal 0.382687 0.923878 -0
    outer loop
      vertex 1.56787 1.56787 -25.5
      vertex 0 2.21731 -24.5816
      vertex 1.56787 1.56787 -24.5816
    endloop
  endfacet
  facet normal 0.382687 0.923878 0
    outer loop
      vertex 0 2.21731 -24.5816
      vertex 1.56787 1.56787 -25.5
      vertex 0 2.21731 -25.5
    endloop
  endfacet
  facet normal 0.923878 -0.382687 0
    outer loop
      vertex 1.56787 -1.56787 -24.5816
      vertex 2.21731 0 -25.5
      vertex 2.21731 0 -24.5816
    endloop
  endfacet
  facet normal 0.923878 -0.382687 0
    outer loop
      vertex 2.21731 0 -25.5
      vertex 1.56787 -1.56787 -24.5816
      vertex 1.56787 -1.56787 -25.5
    endloop
  endfacet
  facet normal -0.923878 -0.382687 0
    outer loop
      vertex -1.56787 -1.56787 -25.5
      vertex -2.21731 0 -24.5816
      vertex -2.21731 0 -25.5
    endloop
  endfacet
  facet normal -0.923878 -0.382687 0
    outer loop
      vertex -2.21731 0 -24.5816
      vertex -1.56787 -1.56787 -25.5
      vertex -1.56787 -1.56787 -24.5816
    endloop
  endfacet
  facet normal -0.281201 0.678551 0.678597
    outer loop
      vertex -1.14413 1.39235 -24.2305
      vertex -1.56787 1.56787 -24.5816
      vertex -1.28222 1.28222 -24.1776
    endloop
  endfacet
  facet normal -0.678511 0.281263 0.678612
    outer loop
      vertex -1.28222 1.28222 -24.1776
      vertex -1.56787 1.56787 -24.5816
      vertex -1.40801 1.18192 -24.2618
    endloop
  endfacet
  facet normal 0.281209 -0.678617 0.678528
    outer loop
      vertex 1.24698 -1.56366 -24.4444
      vertex 1.56787 -1.56787 -24.5816
      vertex 1.29865 -1.45636 -24.3585
    endloop
  endfacet
  facet normal 0.281089 -0.678662 0.678533
    outer loop
      vertex 0 -2.21731 -24.5816
      vertex 1.24698 -1.56366 -24.4444
      vertex 0 -1.84828 -24.2125
    endloop
  endfacet
  facet normal 0.281155 -0.678761 0.678407
    outer loop
      vertex 1.24698 -1.56366 -24.4444
      vertex 0 -2.21731 -24.5816
      vertex 1.56787 -1.56787 -24.5816
    endloop
  endfacet
  facet normal -0.281002 -0.67868 0.678551
    outer loop
      vertex -0.445042 -1.94986 -24.4984
      vertex 0 -2.21731 -24.5816
      vertex 0 -1.84828 -24.2125
    endloop
  endfacet
  facet normal -0.281234 -0.678952 0.678182
    outer loop
      vertex -0.445042 -1.94986 -24.4984
      vertex -1.56787 -1.56787 -24.5816
      vertex 0 -2.21731 -24.5816
    endloop
  endfacet
  facet normal -0.281146 -0.678611 0.678561
    outer loop
      vertex -1.56787 -1.56787 -24.5816
      vertex -0.445042 -1.94986 -24.4984
      vertex -1.14413 -1.39235 -24.2305
    endloop
  endfacet
  facet normal 0.281269 -0.678552 0.678568
    outer loop
      vertex 1.34991 -1.34991 -24.2733
      vertex 1.29865 -1.45636 -24.3585
      vertex 1.56787 -1.56787 -24.5816
    endloop
  endfacet
  facet normal 0.678648 -0.281123 0.678533
    outer loop
      vertex 1.41855 -1.20738 -24.2829
      vertex 1.34991 -1.34991 -24.2733
      vertex 1.56787 -1.56787 -24.5816
    endloop
  endfacet
  facet normal 0.382687 -0.923878 0
    outer loop
      vertex 0 -2.21731 -25.5
      vertex 1.56787 -1.56787 -24.5816
      vertex 0 -2.21731 -24.5816
    endloop
  endfacet
  facet normal 0.382687 -0.923878 0
    outer loop
      vertex 1.56787 -1.56787 -24.5816
      vertex 0 -2.21731 -25.5
      vertex 1.56787 -1.56787 -25.5
    endloop
  endfacet
endsolid OpenSCAD_Model
